%TF.GenerationSoftware,KiCad,Pcbnew,5.1.9*%
%TF.CreationDate,2021-05-15T18:24:56-05:00*%
%TF.ProjectId,nightwing,6e696768-7477-4696-9e67-2e6b69636164,rev?*%
%TF.SameCoordinates,Original*%
%TF.FileFunction,Legend,Bot*%
%TF.FilePolarity,Positive*%
%FSLAX46Y46*%
G04 Gerber Fmt 4.6, Leading zero omitted, Abs format (unit mm)*
G04 Created by KiCad (PCBNEW 5.1.9) date 2021-05-15 18:24:56*
%MOMM*%
%LPD*%
G01*
G04 APERTURE LIST*
%ADD10C,0.160000*%
%ADD11C,0.120000*%
%ADD12C,0.152400*%
%ADD13C,0.150000*%
G04 APERTURE END LIST*
D10*
%TO.C,J3*%
X150485384Y-49789172D02*
X140760951Y-51155852D01*
X140760951Y-51155852D02*
X140454771Y-48977262D01*
X140454771Y-48977262D02*
X150179203Y-47610582D01*
X150179203Y-47610582D02*
X150485384Y-49789172D01*
X143107887Y-50826011D02*
X142801706Y-48647422D01*
D11*
%TO.C,J1*%
X30517394Y-8403577D02*
X30252965Y-6522068D01*
X30252965Y-6522068D02*
X39561485Y-5213841D01*
X39825914Y-7095350D02*
X39561485Y-5213841D01*
%TO.C,L39*%
X135648592Y-18718521D02*
X135648592Y-19868521D01*
X128348592Y-18718521D02*
X135648592Y-18718521D01*
X128348592Y-24218521D02*
X135648592Y-24218521D01*
%TO.C,L38*%
X154080000Y-37310000D02*
X154080000Y-38460000D01*
X146780000Y-37310000D02*
X154080000Y-37310000D01*
X146780000Y-42810000D02*
X154080000Y-42810000D01*
%TO.C,L37*%
X147110000Y-88350000D02*
X147110000Y-87200000D01*
X154410000Y-88350000D02*
X147110000Y-88350000D01*
X154410000Y-82850000D02*
X147110000Y-82850000D01*
%TO.C,L36*%
X124727044Y-113049367D02*
X124527348Y-114181895D01*
X117537947Y-111781735D02*
X124727044Y-113049367D01*
X116582882Y-117198177D02*
X123771979Y-118465809D01*
%TO.C,L35*%
X67024324Y-93717721D02*
X67024324Y-94867721D01*
X59724324Y-93717721D02*
X67024324Y-93717721D01*
X59724324Y-99217721D02*
X67024324Y-99217721D01*
%TO.C,L34*%
X26618505Y-68780487D02*
X26618505Y-69930487D01*
X19318505Y-68780487D02*
X26618505Y-68780487D01*
X19318505Y-74280487D02*
X26618505Y-74280487D01*
%TO.C,L33*%
X23524788Y-28187170D02*
X23524788Y-29337170D01*
X16224788Y-28187170D02*
X23524788Y-28187170D01*
X16224788Y-33687170D02*
X23524788Y-33687170D01*
%TO.C,L32*%
X17235000Y-27108641D02*
X24535000Y-27108641D01*
X24535000Y-21608641D02*
X24535000Y-22758641D01*
X17235000Y-21608641D02*
X24535000Y-21608641D01*
%TO.C,L31*%
X29905000Y-23108641D02*
X37205000Y-23108641D01*
X37205000Y-17608641D02*
X37205000Y-18758641D01*
X29905000Y-17608641D02*
X37205000Y-17608641D01*
%TO.C,L30*%
X42575000Y-19608641D02*
X49875000Y-19608641D01*
X49875000Y-14108641D02*
X49875000Y-15258641D01*
X42575000Y-14108641D02*
X49875000Y-14108641D01*
%TO.C,L29*%
X55235000Y-14508641D02*
X62535000Y-14508641D01*
X62535000Y-9008641D02*
X62535000Y-10158641D01*
X55235000Y-9008641D02*
X62535000Y-9008641D01*
%TO.C,L28*%
X67905000Y-12780000D02*
X75205000Y-12780000D01*
X75205000Y-7280000D02*
X75205000Y-8430000D01*
X67905000Y-7280000D02*
X75205000Y-7280000D01*
%TO.C,L27*%
X80575000Y-13120000D02*
X87875000Y-13120000D01*
X87875000Y-7620000D02*
X87875000Y-8770000D01*
X80575000Y-7620000D02*
X87875000Y-7620000D01*
%TO.C,L26*%
X93235000Y-16750000D02*
X100535000Y-16750000D01*
X100535000Y-11250000D02*
X100535000Y-12400000D01*
X93235000Y-11250000D02*
X100535000Y-11250000D01*
%TO.C,L25*%
X105905000Y-18750000D02*
X113205000Y-18750000D01*
X113205000Y-13250000D02*
X113205000Y-14400000D01*
X105905000Y-13250000D02*
X113205000Y-13250000D01*
%TO.C,L24*%
X118575000Y-20250000D02*
X125875000Y-20250000D01*
X125875000Y-14750000D02*
X125875000Y-15900000D01*
X118575000Y-14750000D02*
X125875000Y-14750000D01*
D10*
%TO.C,D1*%
X16925000Y-37274200D02*
X18525000Y-37274200D01*
G36*
X18106000Y-38595000D02*
G01*
X17725000Y-37960000D01*
X17344000Y-38595000D01*
X18106000Y-38595000D01*
G37*
X18106000Y-38595000D02*
X17725000Y-37960000D01*
X17344000Y-38595000D01*
X18106000Y-38595000D01*
X18525000Y-37274200D02*
X18525000Y-35241000D01*
X17725000Y-37299600D02*
X17725000Y-37960000D01*
X17318600Y-37960000D02*
X18131400Y-37960000D01*
X16925000Y-35241000D02*
X16925000Y-37274200D01*
X17344000Y-38595000D02*
X18106000Y-38595000D01*
X17725000Y-37960000D02*
X17344000Y-38595000D01*
X18525000Y-35241000D02*
X16925000Y-35241000D01*
X17725000Y-38595000D02*
X17725000Y-39458600D01*
X18106000Y-38595000D02*
X17725000Y-37960000D01*
%TO.C,D2*%
X34225000Y-37474200D02*
X35825000Y-37474200D01*
G36*
X35406000Y-38795000D02*
G01*
X35025000Y-38160000D01*
X34644000Y-38795000D01*
X35406000Y-38795000D01*
G37*
X35406000Y-38795000D02*
X35025000Y-38160000D01*
X34644000Y-38795000D01*
X35406000Y-38795000D01*
X35825000Y-37474200D02*
X35825000Y-35441000D01*
X35025000Y-37499600D02*
X35025000Y-38160000D01*
X34618600Y-38160000D02*
X35431400Y-38160000D01*
X34225000Y-35441000D02*
X34225000Y-37474200D01*
X34644000Y-38795000D02*
X35406000Y-38795000D01*
X35025000Y-38160000D02*
X34644000Y-38795000D01*
X35825000Y-35441000D02*
X34225000Y-35441000D01*
X35025000Y-38795000D02*
X35025000Y-39658600D01*
X35406000Y-38795000D02*
X35025000Y-38160000D01*
%TO.C,D3*%
X53225000Y-21924200D02*
X54825000Y-21924200D01*
G36*
X54406000Y-23245000D02*
G01*
X54025000Y-22610000D01*
X53644000Y-23245000D01*
X54406000Y-23245000D01*
G37*
X54406000Y-23245000D02*
X54025000Y-22610000D01*
X53644000Y-23245000D01*
X54406000Y-23245000D01*
X54825000Y-21924200D02*
X54825000Y-19891000D01*
X54025000Y-21949600D02*
X54025000Y-22610000D01*
X53618600Y-22610000D02*
X54431400Y-22610000D01*
X53225000Y-19891000D02*
X53225000Y-21924200D01*
X53644000Y-23245000D02*
X54406000Y-23245000D01*
X54025000Y-22610000D02*
X53644000Y-23245000D01*
X54825000Y-19891000D02*
X53225000Y-19891000D01*
X54025000Y-23245000D02*
X54025000Y-24108600D01*
X54406000Y-23245000D02*
X54025000Y-22610000D01*
%TO.C,D4*%
X72225000Y-18924200D02*
X73825000Y-18924200D01*
G36*
X73406000Y-20245000D02*
G01*
X73025000Y-19610000D01*
X72644000Y-20245000D01*
X73406000Y-20245000D01*
G37*
X73406000Y-20245000D02*
X73025000Y-19610000D01*
X72644000Y-20245000D01*
X73406000Y-20245000D01*
X73825000Y-18924200D02*
X73825000Y-16891000D01*
X73025000Y-18949600D02*
X73025000Y-19610000D01*
X72618600Y-19610000D02*
X73431400Y-19610000D01*
X72225000Y-16891000D02*
X72225000Y-18924200D01*
X72644000Y-20245000D02*
X73406000Y-20245000D01*
X73025000Y-19610000D02*
X72644000Y-20245000D01*
X73825000Y-16891000D02*
X72225000Y-16891000D01*
X73025000Y-20245000D02*
X73025000Y-21108600D01*
X73406000Y-20245000D02*
X73025000Y-19610000D01*
%TO.C,D5*%
X91225000Y-28924200D02*
X92825000Y-28924200D01*
G36*
X92406000Y-30245000D02*
G01*
X92025000Y-29610000D01*
X91644000Y-30245000D01*
X92406000Y-30245000D01*
G37*
X92406000Y-30245000D02*
X92025000Y-29610000D01*
X91644000Y-30245000D01*
X92406000Y-30245000D01*
X92825000Y-28924200D02*
X92825000Y-26891000D01*
X92025000Y-28949600D02*
X92025000Y-29610000D01*
X91618600Y-29610000D02*
X92431400Y-29610000D01*
X91225000Y-26891000D02*
X91225000Y-28924200D01*
X91644000Y-30245000D02*
X92406000Y-30245000D01*
X92025000Y-29610000D02*
X91644000Y-30245000D01*
X92825000Y-26891000D02*
X91225000Y-26891000D01*
X92025000Y-30245000D02*
X92025000Y-31108600D01*
X92406000Y-30245000D02*
X92025000Y-29610000D01*
%TO.C,D6*%
X110225000Y-30924200D02*
X111825000Y-30924200D01*
G36*
X111406000Y-32245000D02*
G01*
X111025000Y-31610000D01*
X110644000Y-32245000D01*
X111406000Y-32245000D01*
G37*
X111406000Y-32245000D02*
X111025000Y-31610000D01*
X110644000Y-32245000D01*
X111406000Y-32245000D01*
X111825000Y-30924200D02*
X111825000Y-28891000D01*
X111025000Y-30949600D02*
X111025000Y-31610000D01*
X110618600Y-31610000D02*
X111431400Y-31610000D01*
X110225000Y-28891000D02*
X110225000Y-30924200D01*
X110644000Y-32245000D02*
X111406000Y-32245000D01*
X111025000Y-31610000D02*
X110644000Y-32245000D01*
X111825000Y-28891000D02*
X110225000Y-28891000D01*
X111025000Y-32245000D02*
X111025000Y-33108600D01*
X111406000Y-32245000D02*
X111025000Y-31610000D01*
%TO.C,D7*%
X16925000Y-56274200D02*
X18525000Y-56274200D01*
G36*
X18106000Y-57595000D02*
G01*
X17725000Y-56960000D01*
X17344000Y-57595000D01*
X18106000Y-57595000D01*
G37*
X18106000Y-57595000D02*
X17725000Y-56960000D01*
X17344000Y-57595000D01*
X18106000Y-57595000D01*
X18525000Y-56274200D02*
X18525000Y-54241000D01*
X17725000Y-56299600D02*
X17725000Y-56960000D01*
X17318600Y-56960000D02*
X18131400Y-56960000D01*
X16925000Y-54241000D02*
X16925000Y-56274200D01*
X17344000Y-57595000D02*
X18106000Y-57595000D01*
X17725000Y-56960000D02*
X17344000Y-57595000D01*
X18525000Y-54241000D02*
X16925000Y-54241000D01*
X17725000Y-57595000D02*
X17725000Y-58458600D01*
X18106000Y-57595000D02*
X17725000Y-56960000D01*
%TO.C,D8*%
X34225000Y-56474200D02*
X35825000Y-56474200D01*
G36*
X35406000Y-57795000D02*
G01*
X35025000Y-57160000D01*
X34644000Y-57795000D01*
X35406000Y-57795000D01*
G37*
X35406000Y-57795000D02*
X35025000Y-57160000D01*
X34644000Y-57795000D01*
X35406000Y-57795000D01*
X35825000Y-56474200D02*
X35825000Y-54441000D01*
X35025000Y-56499600D02*
X35025000Y-57160000D01*
X34618600Y-57160000D02*
X35431400Y-57160000D01*
X34225000Y-54441000D02*
X34225000Y-56474200D01*
X34644000Y-57795000D02*
X35406000Y-57795000D01*
X35025000Y-57160000D02*
X34644000Y-57795000D01*
X35825000Y-54441000D02*
X34225000Y-54441000D01*
X35025000Y-57795000D02*
X35025000Y-58658600D01*
X35406000Y-57795000D02*
X35025000Y-57160000D01*
%TO.C,D9*%
X53225000Y-40924200D02*
X54825000Y-40924200D01*
G36*
X54406000Y-42245000D02*
G01*
X54025000Y-41610000D01*
X53644000Y-42245000D01*
X54406000Y-42245000D01*
G37*
X54406000Y-42245000D02*
X54025000Y-41610000D01*
X53644000Y-42245000D01*
X54406000Y-42245000D01*
X54825000Y-40924200D02*
X54825000Y-38891000D01*
X54025000Y-40949600D02*
X54025000Y-41610000D01*
X53618600Y-41610000D02*
X54431400Y-41610000D01*
X53225000Y-38891000D02*
X53225000Y-40924200D01*
X53644000Y-42245000D02*
X54406000Y-42245000D01*
X54025000Y-41610000D02*
X53644000Y-42245000D01*
X54825000Y-38891000D02*
X53225000Y-38891000D01*
X54025000Y-42245000D02*
X54025000Y-43108600D01*
X54406000Y-42245000D02*
X54025000Y-41610000D01*
%TO.C,D10*%
X72225000Y-37924200D02*
X73825000Y-37924200D01*
G36*
X73406000Y-39245000D02*
G01*
X73025000Y-38610000D01*
X72644000Y-39245000D01*
X73406000Y-39245000D01*
G37*
X73406000Y-39245000D02*
X73025000Y-38610000D01*
X72644000Y-39245000D01*
X73406000Y-39245000D01*
X73825000Y-37924200D02*
X73825000Y-35891000D01*
X73025000Y-37949600D02*
X73025000Y-38610000D01*
X72618600Y-38610000D02*
X73431400Y-38610000D01*
X72225000Y-35891000D02*
X72225000Y-37924200D01*
X72644000Y-39245000D02*
X73406000Y-39245000D01*
X73025000Y-38610000D02*
X72644000Y-39245000D01*
X73825000Y-35891000D02*
X72225000Y-35891000D01*
X73025000Y-39245000D02*
X73025000Y-40108600D01*
X73406000Y-39245000D02*
X73025000Y-38610000D01*
%TO.C,D11*%
X91225000Y-47924200D02*
X92825000Y-47924200D01*
G36*
X92406000Y-49245000D02*
G01*
X92025000Y-48610000D01*
X91644000Y-49245000D01*
X92406000Y-49245000D01*
G37*
X92406000Y-49245000D02*
X92025000Y-48610000D01*
X91644000Y-49245000D01*
X92406000Y-49245000D01*
X92825000Y-47924200D02*
X92825000Y-45891000D01*
X92025000Y-47949600D02*
X92025000Y-48610000D01*
X91618600Y-48610000D02*
X92431400Y-48610000D01*
X91225000Y-45891000D02*
X91225000Y-47924200D01*
X91644000Y-49245000D02*
X92406000Y-49245000D01*
X92025000Y-48610000D02*
X91644000Y-49245000D01*
X92825000Y-45891000D02*
X91225000Y-45891000D01*
X92025000Y-49245000D02*
X92025000Y-50108600D01*
X92406000Y-49245000D02*
X92025000Y-48610000D01*
%TO.C,D12*%
X110225000Y-49924200D02*
X111825000Y-49924200D01*
G36*
X111406000Y-51245000D02*
G01*
X111025000Y-50610000D01*
X110644000Y-51245000D01*
X111406000Y-51245000D01*
G37*
X111406000Y-51245000D02*
X111025000Y-50610000D01*
X110644000Y-51245000D01*
X111406000Y-51245000D01*
X111825000Y-49924200D02*
X111825000Y-47891000D01*
X111025000Y-49949600D02*
X111025000Y-50610000D01*
X110618600Y-50610000D02*
X111431400Y-50610000D01*
X110225000Y-47891000D02*
X110225000Y-49924200D01*
X110644000Y-51245000D02*
X111406000Y-51245000D01*
X111025000Y-50610000D02*
X110644000Y-51245000D01*
X111825000Y-47891000D02*
X110225000Y-47891000D01*
X111025000Y-51245000D02*
X111025000Y-52108600D01*
X111406000Y-51245000D02*
X111025000Y-50610000D01*
%TO.C,D13*%
X16731063Y-74213647D02*
X18331063Y-74213647D01*
G36*
X17912063Y-75534447D02*
G01*
X17531063Y-74899447D01*
X17150063Y-75534447D01*
X17912063Y-75534447D01*
G37*
X17912063Y-75534447D02*
X17531063Y-74899447D01*
X17150063Y-75534447D01*
X17912063Y-75534447D01*
X18331063Y-74213647D02*
X18331063Y-72180447D01*
X17531063Y-74239047D02*
X17531063Y-74899447D01*
X17124663Y-74899447D02*
X17937463Y-74899447D01*
X16731063Y-72180447D02*
X16731063Y-74213647D01*
X17150063Y-75534447D02*
X17912063Y-75534447D01*
X17531063Y-74899447D02*
X17150063Y-75534447D01*
X18331063Y-72180447D02*
X16731063Y-72180447D01*
X17531063Y-75534447D02*
X17531063Y-76398047D01*
X17912063Y-75534447D02*
X17531063Y-74899447D01*
%TO.C,D14*%
X34225000Y-75474200D02*
X35825000Y-75474200D01*
G36*
X35406000Y-76795000D02*
G01*
X35025000Y-76160000D01*
X34644000Y-76795000D01*
X35406000Y-76795000D01*
G37*
X35406000Y-76795000D02*
X35025000Y-76160000D01*
X34644000Y-76795000D01*
X35406000Y-76795000D01*
X35825000Y-75474200D02*
X35825000Y-73441000D01*
X35025000Y-75499600D02*
X35025000Y-76160000D01*
X34618600Y-76160000D02*
X35431400Y-76160000D01*
X34225000Y-73441000D02*
X34225000Y-75474200D01*
X34644000Y-76795000D02*
X35406000Y-76795000D01*
X35025000Y-76160000D02*
X34644000Y-76795000D01*
X35825000Y-73441000D02*
X34225000Y-73441000D01*
X35025000Y-76795000D02*
X35025000Y-77658600D01*
X35406000Y-76795000D02*
X35025000Y-76160000D01*
%TO.C,D15*%
X53225000Y-59924200D02*
X54825000Y-59924200D01*
G36*
X54406000Y-61245000D02*
G01*
X54025000Y-60610000D01*
X53644000Y-61245000D01*
X54406000Y-61245000D01*
G37*
X54406000Y-61245000D02*
X54025000Y-60610000D01*
X53644000Y-61245000D01*
X54406000Y-61245000D01*
X54825000Y-59924200D02*
X54825000Y-57891000D01*
X54025000Y-59949600D02*
X54025000Y-60610000D01*
X53618600Y-60610000D02*
X54431400Y-60610000D01*
X53225000Y-57891000D02*
X53225000Y-59924200D01*
X53644000Y-61245000D02*
X54406000Y-61245000D01*
X54025000Y-60610000D02*
X53644000Y-61245000D01*
X54825000Y-57891000D02*
X53225000Y-57891000D01*
X54025000Y-61245000D02*
X54025000Y-62108600D01*
X54406000Y-61245000D02*
X54025000Y-60610000D01*
%TO.C,D16*%
X70730487Y-57444054D02*
X72330487Y-57444054D01*
G36*
X71911487Y-58764854D02*
G01*
X71530487Y-58129854D01*
X71149487Y-58764854D01*
X71911487Y-58764854D01*
G37*
X71911487Y-58764854D02*
X71530487Y-58129854D01*
X71149487Y-58764854D01*
X71911487Y-58764854D01*
X72330487Y-57444054D02*
X72330487Y-55410854D01*
X71530487Y-57469454D02*
X71530487Y-58129854D01*
X71124087Y-58129854D02*
X71936887Y-58129854D01*
X70730487Y-55410854D02*
X70730487Y-57444054D01*
X71149487Y-58764854D02*
X71911487Y-58764854D01*
X71530487Y-58129854D02*
X71149487Y-58764854D01*
X72330487Y-55410854D02*
X70730487Y-55410854D01*
X71530487Y-58764854D02*
X71530487Y-59628454D01*
X71911487Y-58764854D02*
X71530487Y-58129854D01*
%TO.C,D17*%
X91225000Y-66924200D02*
X92825000Y-66924200D01*
G36*
X92406000Y-68245000D02*
G01*
X92025000Y-67610000D01*
X91644000Y-68245000D01*
X92406000Y-68245000D01*
G37*
X92406000Y-68245000D02*
X92025000Y-67610000D01*
X91644000Y-68245000D01*
X92406000Y-68245000D01*
X92825000Y-66924200D02*
X92825000Y-64891000D01*
X92025000Y-66949600D02*
X92025000Y-67610000D01*
X91618600Y-67610000D02*
X92431400Y-67610000D01*
X91225000Y-64891000D02*
X91225000Y-66924200D01*
X91644000Y-68245000D02*
X92406000Y-68245000D01*
X92025000Y-67610000D02*
X91644000Y-68245000D01*
X92825000Y-64891000D02*
X91225000Y-64891000D01*
X92025000Y-68245000D02*
X92025000Y-69108600D01*
X92406000Y-68245000D02*
X92025000Y-67610000D01*
%TO.C,D18*%
X110225000Y-68924200D02*
X111825000Y-68924200D01*
G36*
X111406000Y-70245000D02*
G01*
X111025000Y-69610000D01*
X110644000Y-70245000D01*
X111406000Y-70245000D01*
G37*
X111406000Y-70245000D02*
X111025000Y-69610000D01*
X110644000Y-70245000D01*
X111406000Y-70245000D01*
X111825000Y-68924200D02*
X111825000Y-66891000D01*
X111025000Y-68949600D02*
X111025000Y-69610000D01*
X110618600Y-69610000D02*
X111431400Y-69610000D01*
X110225000Y-66891000D02*
X110225000Y-68924200D01*
X110644000Y-70245000D02*
X111406000Y-70245000D01*
X111025000Y-69610000D02*
X110644000Y-70245000D01*
X111825000Y-66891000D02*
X110225000Y-66891000D01*
X111025000Y-70245000D02*
X111025000Y-71108600D01*
X111406000Y-70245000D02*
X111025000Y-69610000D01*
%TO.C,D19*%
X73261710Y-92869698D02*
X74861710Y-92869698D01*
G36*
X74442710Y-94190498D02*
G01*
X74061710Y-93555498D01*
X73680710Y-94190498D01*
X74442710Y-94190498D01*
G37*
X74442710Y-94190498D02*
X74061710Y-93555498D01*
X73680710Y-94190498D01*
X74442710Y-94190498D01*
X74861710Y-92869698D02*
X74861710Y-90836498D01*
X74061710Y-92895098D02*
X74061710Y-93555498D01*
X73655310Y-93555498D02*
X74468110Y-93555498D01*
X73261710Y-90836498D02*
X73261710Y-92869698D01*
X73680710Y-94190498D02*
X74442710Y-94190498D01*
X74061710Y-93555498D02*
X73680710Y-94190498D01*
X74861710Y-90836498D02*
X73261710Y-90836498D01*
X74061710Y-94190498D02*
X74061710Y-95054098D01*
X74442710Y-94190498D02*
X74061710Y-93555498D01*
%TO.C,D20*%
X76837500Y-85933200D02*
X78437500Y-85933200D01*
G36*
X78018500Y-87254000D02*
G01*
X77637500Y-86619000D01*
X77256500Y-87254000D01*
X78018500Y-87254000D01*
G37*
X78018500Y-87254000D02*
X77637500Y-86619000D01*
X77256500Y-87254000D01*
X78018500Y-87254000D01*
X78437500Y-85933200D02*
X78437500Y-83900000D01*
X77637500Y-85958600D02*
X77637500Y-86619000D01*
X77231100Y-86619000D02*
X78043900Y-86619000D01*
X76837500Y-83900000D02*
X76837500Y-85933200D01*
X77256500Y-87254000D02*
X78018500Y-87254000D01*
X77637500Y-86619000D02*
X77256500Y-87254000D01*
X78437500Y-83900000D02*
X76837500Y-83900000D01*
X77637500Y-87254000D02*
X77637500Y-88117600D01*
X78018500Y-87254000D02*
X77637500Y-86619000D01*
%TO.C,D21*%
X95837500Y-87933200D02*
X97437500Y-87933200D01*
G36*
X97018500Y-89254000D02*
G01*
X96637500Y-88619000D01*
X96256500Y-89254000D01*
X97018500Y-89254000D01*
G37*
X97018500Y-89254000D02*
X96637500Y-88619000D01*
X96256500Y-89254000D01*
X97018500Y-89254000D01*
X97437500Y-87933200D02*
X97437500Y-85900000D01*
X96637500Y-87958600D02*
X96637500Y-88619000D01*
X96231100Y-88619000D02*
X97043900Y-88619000D01*
X95837500Y-85900000D02*
X95837500Y-87933200D01*
X96256500Y-89254000D02*
X97018500Y-89254000D01*
X96637500Y-88619000D02*
X96256500Y-89254000D01*
X97437500Y-85900000D02*
X95837500Y-85900000D01*
X96637500Y-89254000D02*
X96637500Y-90117600D01*
X97018500Y-89254000D02*
X96637500Y-88619000D01*
%TO.C,D22*%
X157430330Y-106908750D02*
X157708167Y-105333058D01*
G36*
X158936142Y-105975047D02*
G01*
X158244629Y-106239992D01*
X158803822Y-106725470D01*
X158936142Y-105975047D01*
G37*
X158936142Y-105975047D02*
X158244629Y-106239992D01*
X158803822Y-106725470D01*
X158936142Y-105975047D01*
X157708167Y-105333058D02*
X155705856Y-104979996D01*
X157594262Y-106125315D02*
X158244629Y-106239992D01*
X158174059Y-106640218D02*
X158315200Y-105839766D01*
X155428018Y-106555689D02*
X157430330Y-106908750D01*
X158803822Y-106725470D02*
X158936142Y-105975047D01*
X158244629Y-106239992D02*
X158803822Y-106725470D01*
X155705856Y-104979996D02*
X155428018Y-106555689D01*
X158869982Y-106350259D02*
X159720462Y-106500221D01*
X158936142Y-105975047D02*
X158244629Y-106239992D01*
%TO.C,D23*%
X131821250Y-100710330D02*
X133396942Y-100988167D01*
G36*
X132754953Y-102216142D02*
G01*
X132490008Y-101524629D01*
X132004530Y-102083822D01*
X132754953Y-102216142D01*
G37*
X132754953Y-102216142D02*
X132490008Y-101524629D01*
X132004530Y-102083822D01*
X132754953Y-102216142D01*
X133396942Y-100988167D02*
X133750004Y-98985856D01*
X132604685Y-100874262D02*
X132490008Y-101524629D01*
X132089782Y-101454059D02*
X132890234Y-101595200D01*
X132174311Y-98708018D02*
X131821250Y-100710330D01*
X132004530Y-102083822D02*
X132754953Y-102216142D01*
X132490008Y-101524629D02*
X132004530Y-102083822D01*
X133750004Y-98985856D02*
X132174311Y-98708018D01*
X132379741Y-102149982D02*
X132229779Y-103000462D01*
X132754953Y-102216142D02*
X132490008Y-101524629D01*
%TO.C,D24*%
X150701250Y-103120330D02*
X152276942Y-103398167D01*
G36*
X151634953Y-104626142D02*
G01*
X151370008Y-103934629D01*
X150884530Y-104493822D01*
X151634953Y-104626142D01*
G37*
X151634953Y-104626142D02*
X151370008Y-103934629D01*
X150884530Y-104493822D01*
X151634953Y-104626142D01*
X152276942Y-103398167D02*
X152630004Y-101395856D01*
X151484685Y-103284262D02*
X151370008Y-103934629D01*
X150969782Y-103864059D02*
X151770234Y-104005200D01*
X151054311Y-101118018D02*
X150701250Y-103120330D01*
X150884530Y-104493822D02*
X151634953Y-104626142D01*
X151370008Y-103934629D02*
X150884530Y-104493822D01*
X152630004Y-101395856D02*
X151054311Y-101118018D01*
X151259741Y-104559982D02*
X151109779Y-105410462D01*
X151634953Y-104626142D02*
X151370008Y-103934629D01*
D11*
%TO.C,BZ1*%
X72499312Y-87874148D02*
X72499312Y-71874148D01*
X72499312Y-71874148D02*
X56499312Y-71874148D01*
X56499312Y-71874148D02*
X56499312Y-87874148D01*
X56499312Y-87874148D02*
X72499312Y-87874148D01*
%TO.C,J2*%
X162078110Y-89279601D02*
X171335303Y-90911894D01*
X170328144Y-96623779D02*
X170675440Y-94654164D01*
X171005372Y-92783029D02*
X171335303Y-90911894D01*
X161070951Y-94991486D02*
X161418247Y-93021871D01*
X161748179Y-91150736D02*
X162078110Y-89279601D01*
D10*
%TO.C,L1*%
G36*
X20542000Y-36825000D02*
G01*
X20542000Y-37460000D01*
X19907000Y-37460000D01*
X20542000Y-36825000D01*
G37*
X20542000Y-36825000D02*
X20542000Y-37460000D01*
X19907000Y-37460000D01*
X20542000Y-36825000D01*
%TO.C,L2*%
G36*
X39542000Y-35525000D02*
G01*
X39542000Y-36160000D01*
X38907000Y-36160000D01*
X39542000Y-35525000D01*
G37*
X39542000Y-35525000D02*
X39542000Y-36160000D01*
X38907000Y-36160000D01*
X39542000Y-35525000D01*
%TO.C,L3*%
G36*
X58542000Y-19975000D02*
G01*
X58542000Y-20610000D01*
X57907000Y-20610000D01*
X58542000Y-19975000D01*
G37*
X58542000Y-19975000D02*
X58542000Y-20610000D01*
X57907000Y-20610000D01*
X58542000Y-19975000D01*
%TO.C,L4*%
G36*
X77542000Y-16975000D02*
G01*
X77542000Y-17610000D01*
X76907000Y-17610000D01*
X77542000Y-16975000D01*
G37*
X77542000Y-16975000D02*
X77542000Y-17610000D01*
X76907000Y-17610000D01*
X77542000Y-16975000D01*
%TO.C,L5*%
G36*
X96542000Y-26975000D02*
G01*
X96542000Y-27610000D01*
X95907000Y-27610000D01*
X96542000Y-26975000D01*
G37*
X96542000Y-26975000D02*
X96542000Y-27610000D01*
X95907000Y-27610000D01*
X96542000Y-26975000D01*
%TO.C,L6*%
G36*
X115542000Y-28975000D02*
G01*
X115542000Y-29610000D01*
X114907000Y-29610000D01*
X115542000Y-28975000D01*
G37*
X115542000Y-28975000D02*
X115542000Y-29610000D01*
X114907000Y-29610000D01*
X115542000Y-28975000D01*
%TO.C,L7*%
G36*
X27908000Y-57857000D02*
G01*
X27908000Y-57222000D01*
X28543000Y-57222000D01*
X27908000Y-57857000D01*
G37*
X27908000Y-57857000D02*
X27908000Y-57222000D01*
X28543000Y-57222000D01*
X27908000Y-57857000D01*
%TO.C,L8*%
G36*
X46908000Y-56557000D02*
G01*
X46908000Y-55922000D01*
X47543000Y-55922000D01*
X46908000Y-56557000D01*
G37*
X46908000Y-56557000D02*
X46908000Y-55922000D01*
X47543000Y-55922000D01*
X46908000Y-56557000D01*
%TO.C,L9*%
G36*
X65908000Y-41007000D02*
G01*
X65908000Y-40372000D01*
X66543000Y-40372000D01*
X65908000Y-41007000D01*
G37*
X65908000Y-41007000D02*
X65908000Y-40372000D01*
X66543000Y-40372000D01*
X65908000Y-41007000D01*
%TO.C,L10*%
G36*
X84908000Y-38007000D02*
G01*
X84908000Y-37372000D01*
X85543000Y-37372000D01*
X84908000Y-38007000D01*
G37*
X84908000Y-38007000D02*
X84908000Y-37372000D01*
X85543000Y-37372000D01*
X84908000Y-38007000D01*
%TO.C,L11*%
G36*
X103908000Y-48007000D02*
G01*
X103908000Y-47372000D01*
X104543000Y-47372000D01*
X103908000Y-48007000D01*
G37*
X103908000Y-48007000D02*
X103908000Y-47372000D01*
X104543000Y-47372000D01*
X103908000Y-48007000D01*
%TO.C,L12*%
G36*
X122908000Y-50007000D02*
G01*
X122908000Y-49372000D01*
X123543000Y-49372000D01*
X122908000Y-50007000D01*
G37*
X122908000Y-50007000D02*
X122908000Y-49372000D01*
X123543000Y-49372000D01*
X122908000Y-50007000D01*
%TO.C,L13*%
G36*
X20542000Y-74825000D02*
G01*
X20542000Y-75460000D01*
X19907000Y-75460000D01*
X20542000Y-74825000D01*
G37*
X20542000Y-74825000D02*
X20542000Y-75460000D01*
X19907000Y-75460000D01*
X20542000Y-74825000D01*
%TO.C,L14*%
G36*
X39542000Y-73525000D02*
G01*
X39542000Y-74160000D01*
X38907000Y-74160000D01*
X39542000Y-73525000D01*
G37*
X39542000Y-73525000D02*
X39542000Y-74160000D01*
X38907000Y-74160000D01*
X39542000Y-73525000D01*
%TO.C,L15*%
G36*
X58542000Y-57975000D02*
G01*
X58542000Y-58610000D01*
X57907000Y-58610000D01*
X58542000Y-57975000D01*
G37*
X58542000Y-57975000D02*
X58542000Y-58610000D01*
X57907000Y-58610000D01*
X58542000Y-57975000D01*
%TO.C,L16*%
G36*
X77542000Y-54975000D02*
G01*
X77542000Y-55610000D01*
X76907000Y-55610000D01*
X77542000Y-54975000D01*
G37*
X77542000Y-54975000D02*
X77542000Y-55610000D01*
X76907000Y-55610000D01*
X77542000Y-54975000D01*
%TO.C,L17*%
G36*
X96542000Y-64975000D02*
G01*
X96542000Y-65610000D01*
X95907000Y-65610000D01*
X96542000Y-64975000D01*
G37*
X96542000Y-64975000D02*
X96542000Y-65610000D01*
X95907000Y-65610000D01*
X96542000Y-64975000D01*
%TO.C,L18*%
G36*
X115542000Y-66975000D02*
G01*
X115542000Y-67610000D01*
X114907000Y-67610000D01*
X115542000Y-66975000D01*
G37*
X115542000Y-66975000D02*
X115542000Y-67610000D01*
X114907000Y-67610000D01*
X115542000Y-66975000D01*
%TO.C,L19*%
G36*
X89520500Y-86016000D02*
G01*
X89520500Y-85381000D01*
X90155500Y-85381000D01*
X89520500Y-86016000D01*
G37*
X89520500Y-86016000D02*
X89520500Y-85381000D01*
X90155500Y-85381000D01*
X89520500Y-86016000D01*
%TO.C,L20*%
G36*
X108520500Y-88016000D02*
G01*
X108520500Y-87381000D01*
X109155500Y-87381000D01*
X108520500Y-88016000D01*
G37*
X108520500Y-88016000D02*
X108520500Y-87381000D01*
X109155500Y-87381000D01*
X108520500Y-88016000D01*
%TO.C,L21*%
G36*
X128259124Y-99885914D02*
G01*
X128369391Y-99260561D01*
X128994744Y-99370828D01*
X128259124Y-99885914D01*
G37*
X128259124Y-99885914D02*
X128369391Y-99260561D01*
X128994744Y-99370828D01*
X128259124Y-99885914D01*
%TO.C,L22*%
G36*
X147200620Y-103340111D02*
G01*
X147310887Y-102714758D01*
X147936240Y-102825025D01*
X147200620Y-103340111D01*
G37*
X147200620Y-103340111D02*
X147310887Y-102714758D01*
X147936240Y-102825025D01*
X147200620Y-103340111D01*
%TO.C,L23*%
G36*
X153449889Y-117430620D02*
G01*
X154075242Y-117540887D01*
X153964975Y-118166240D01*
X153449889Y-117430620D01*
G37*
X153449889Y-117430620D02*
X154075242Y-117540887D01*
X153964975Y-118166240D01*
X153449889Y-117430620D01*
%TO.C,J3*%
D12*
X146035741Y-46733601D02*
X146116541Y-47308522D01*
X146171029Y-47418120D01*
X146258459Y-47484002D01*
X146378829Y-47506171D01*
X146455486Y-47495397D01*
X145729116Y-46776694D02*
X145230851Y-46846720D01*
X145542241Y-47115639D01*
X145427257Y-47131799D01*
X145355987Y-47180900D01*
X145323046Y-47224615D01*
X145295491Y-47306658D01*
X145322424Y-47498298D01*
X145371526Y-47569568D01*
X145415241Y-47602509D01*
X145497283Y-47630064D01*
X145727252Y-47597744D01*
X145798521Y-47548642D01*
X145831463Y-47504928D01*
X144058219Y-47402375D02*
X144326516Y-47364668D01*
X144385769Y-47786277D02*
X144272649Y-46981387D01*
X143889368Y-47035254D01*
X143337605Y-27118213D02*
X143418405Y-27693134D01*
X143472893Y-27802732D01*
X143560323Y-27868614D01*
X143680694Y-27890783D01*
X143757350Y-27880009D01*
X143030980Y-27161306D02*
X142532715Y-27231332D01*
X142844105Y-27500251D01*
X142729121Y-27516411D01*
X142657851Y-27565512D01*
X142624910Y-27609227D01*
X142597355Y-27691270D01*
X142624289Y-27882910D01*
X142673390Y-27954180D01*
X142717105Y-27987121D01*
X142799148Y-28014676D01*
X143029116Y-27982356D01*
X143100386Y-27933254D01*
X143133327Y-27889540D01*
X141360083Y-27786987D02*
X141250485Y-27841475D01*
X141217544Y-27885189D01*
X141189989Y-27967232D01*
X141206149Y-28082217D01*
X141255251Y-28153486D01*
X141298965Y-28186427D01*
X141381008Y-28213982D01*
X141687633Y-28170889D01*
X141574513Y-27365999D01*
X141306216Y-27403706D01*
X141234947Y-27452807D01*
X141202005Y-27496522D01*
X141174451Y-27578565D01*
X141185224Y-27655221D01*
X141234325Y-27726490D01*
X141278040Y-27759432D01*
X141360083Y-27786987D01*
X141628380Y-27749280D01*
%TO.C,J1*%
D13*
X36489507Y-14731382D02*
X36588916Y-15438716D01*
X36655954Y-15573556D01*
X36763520Y-15654612D01*
X36911614Y-15681886D01*
X37005925Y-15668632D01*
X35638412Y-15860823D02*
X36204280Y-15781295D01*
X35921346Y-15821059D02*
X35782173Y-14830791D01*
X35896366Y-14959003D01*
X36003932Y-15040060D01*
X36104870Y-15073961D01*
%TO.C,L39*%
X132641449Y-25670901D02*
X133117639Y-25670901D01*
X133117639Y-24670901D01*
X132403353Y-24670901D02*
X131784306Y-24670901D01*
X132117639Y-25051854D01*
X131974782Y-25051854D01*
X131879544Y-25099473D01*
X131831925Y-25147092D01*
X131784306Y-25242330D01*
X131784306Y-25480425D01*
X131831925Y-25575663D01*
X131879544Y-25623282D01*
X131974782Y-25670901D01*
X132260496Y-25670901D01*
X132355734Y-25623282D01*
X132403353Y-25575663D01*
X131308115Y-25670901D02*
X131117639Y-25670901D01*
X131022401Y-25623282D01*
X130974782Y-25575663D01*
X130879544Y-25432806D01*
X130831925Y-25242330D01*
X130831925Y-24861378D01*
X130879544Y-24766140D01*
X130927163Y-24718521D01*
X131022401Y-24670901D01*
X131212877Y-24670901D01*
X131308115Y-24718521D01*
X131355734Y-24766140D01*
X131403353Y-24861378D01*
X131403353Y-25099473D01*
X131355734Y-25194711D01*
X131308115Y-25242330D01*
X131212877Y-25289949D01*
X131022401Y-25289949D01*
X130927163Y-25242330D01*
X130879544Y-25194711D01*
X130831925Y-25099473D01*
X127562877Y-23520901D02*
X128134306Y-23520901D01*
X127848592Y-23520901D02*
X127848592Y-22520901D01*
X127943830Y-22663759D01*
X128039068Y-22758997D01*
X128134306Y-22806616D01*
%TO.C,L38*%
X151072857Y-44262380D02*
X151549047Y-44262380D01*
X151549047Y-43262380D01*
X150834761Y-43262380D02*
X150215714Y-43262380D01*
X150549047Y-43643333D01*
X150406190Y-43643333D01*
X150310952Y-43690952D01*
X150263333Y-43738571D01*
X150215714Y-43833809D01*
X150215714Y-44071904D01*
X150263333Y-44167142D01*
X150310952Y-44214761D01*
X150406190Y-44262380D01*
X150691904Y-44262380D01*
X150787142Y-44214761D01*
X150834761Y-44167142D01*
X149644285Y-43690952D02*
X149739523Y-43643333D01*
X149787142Y-43595714D01*
X149834761Y-43500476D01*
X149834761Y-43452857D01*
X149787142Y-43357619D01*
X149739523Y-43310000D01*
X149644285Y-43262380D01*
X149453809Y-43262380D01*
X149358571Y-43310000D01*
X149310952Y-43357619D01*
X149263333Y-43452857D01*
X149263333Y-43500476D01*
X149310952Y-43595714D01*
X149358571Y-43643333D01*
X149453809Y-43690952D01*
X149644285Y-43690952D01*
X149739523Y-43738571D01*
X149787142Y-43786190D01*
X149834761Y-43881428D01*
X149834761Y-44071904D01*
X149787142Y-44167142D01*
X149739523Y-44214761D01*
X149644285Y-44262380D01*
X149453809Y-44262380D01*
X149358571Y-44214761D01*
X149310952Y-44167142D01*
X149263333Y-44071904D01*
X149263333Y-43881428D01*
X149310952Y-43786190D01*
X149358571Y-43738571D01*
X149453809Y-43690952D01*
X145994285Y-42112380D02*
X146565714Y-42112380D01*
X146280000Y-42112380D02*
X146280000Y-41112380D01*
X146375238Y-41255238D01*
X146470476Y-41350476D01*
X146565714Y-41398095D01*
%TO.C,L37*%
X151402857Y-82302380D02*
X151879047Y-82302380D01*
X151879047Y-81302380D01*
X151164761Y-81302380D02*
X150545714Y-81302380D01*
X150879047Y-81683333D01*
X150736190Y-81683333D01*
X150640952Y-81730952D01*
X150593333Y-81778571D01*
X150545714Y-81873809D01*
X150545714Y-82111904D01*
X150593333Y-82207142D01*
X150640952Y-82254761D01*
X150736190Y-82302380D01*
X151021904Y-82302380D01*
X151117142Y-82254761D01*
X151164761Y-82207142D01*
X150212380Y-81302380D02*
X149545714Y-81302380D01*
X149974285Y-82302380D01*
X154624285Y-84452380D02*
X155195714Y-84452380D01*
X154910000Y-84452380D02*
X154910000Y-83452380D01*
X155005238Y-83595238D01*
X155100476Y-83690476D01*
X155195714Y-83738095D01*
%TO.C,L36*%
X120558317Y-119373940D02*
X121027273Y-119456629D01*
X121200921Y-118471822D01*
X120497487Y-118347787D02*
X119887844Y-118240291D01*
X120149962Y-118673338D01*
X120009275Y-118648531D01*
X119907215Y-118678889D01*
X119852050Y-118717516D01*
X119788617Y-118803038D01*
X119747272Y-119037516D01*
X119777630Y-119139576D01*
X119816256Y-119194741D01*
X119901779Y-119258174D01*
X120183152Y-119307788D01*
X120285212Y-119277430D01*
X120340377Y-119238804D01*
X119043723Y-118091449D02*
X119231306Y-118124525D01*
X119316828Y-118187959D01*
X119355455Y-118243123D01*
X119424439Y-118400348D01*
X119438259Y-118596199D01*
X119372107Y-118971364D01*
X119308674Y-119056887D01*
X119253509Y-119095513D01*
X119151449Y-119125871D01*
X118963866Y-119092795D01*
X118878344Y-119029362D01*
X118839718Y-118974197D01*
X118809360Y-118872137D01*
X118850705Y-118637659D01*
X118914138Y-118552137D01*
X118969303Y-118513510D01*
X119071363Y-118483152D01*
X119258945Y-118516228D01*
X119344468Y-118579662D01*
X119383094Y-118634826D01*
X119413452Y-118736886D01*
X115930245Y-116374718D02*
X116492992Y-116473946D01*
X116211618Y-116424332D02*
X116385267Y-115439524D01*
X116454251Y-115596749D01*
X116531504Y-115707078D01*
X116617026Y-115770511D01*
%TO.C,L35*%
X64017181Y-100670101D02*
X64493371Y-100670101D01*
X64493371Y-99670101D01*
X63779085Y-99670101D02*
X63160038Y-99670101D01*
X63493371Y-100051054D01*
X63350514Y-100051054D01*
X63255276Y-100098673D01*
X63207657Y-100146292D01*
X63160038Y-100241530D01*
X63160038Y-100479625D01*
X63207657Y-100574863D01*
X63255276Y-100622482D01*
X63350514Y-100670101D01*
X63636228Y-100670101D01*
X63731466Y-100622482D01*
X63779085Y-100574863D01*
X62255276Y-99670101D02*
X62731466Y-99670101D01*
X62779085Y-100146292D01*
X62731466Y-100098673D01*
X62636228Y-100051054D01*
X62398133Y-100051054D01*
X62302895Y-100098673D01*
X62255276Y-100146292D01*
X62207657Y-100241530D01*
X62207657Y-100479625D01*
X62255276Y-100574863D01*
X62302895Y-100622482D01*
X62398133Y-100670101D01*
X62636228Y-100670101D01*
X62731466Y-100622482D01*
X62779085Y-100574863D01*
X58938609Y-98520101D02*
X59510038Y-98520101D01*
X59224324Y-98520101D02*
X59224324Y-97520101D01*
X59319562Y-97662959D01*
X59414800Y-97758197D01*
X59510038Y-97805816D01*
%TO.C,L34*%
X23611362Y-75732867D02*
X24087552Y-75732867D01*
X24087552Y-74732867D01*
X23373266Y-74732867D02*
X22754219Y-74732867D01*
X23087552Y-75113820D01*
X22944695Y-75113820D01*
X22849457Y-75161439D01*
X22801838Y-75209058D01*
X22754219Y-75304296D01*
X22754219Y-75542391D01*
X22801838Y-75637629D01*
X22849457Y-75685248D01*
X22944695Y-75732867D01*
X23230409Y-75732867D01*
X23325647Y-75685248D01*
X23373266Y-75637629D01*
X21897076Y-75066201D02*
X21897076Y-75732867D01*
X22135171Y-74685248D02*
X22373266Y-75399534D01*
X21754219Y-75399534D01*
X18532790Y-73582867D02*
X19104219Y-73582867D01*
X18818505Y-73582867D02*
X18818505Y-72582867D01*
X18913743Y-72725725D01*
X19008981Y-72820963D01*
X19104219Y-72868582D01*
%TO.C,L33*%
X20517645Y-35139550D02*
X20993835Y-35139550D01*
X20993835Y-34139550D01*
X20279549Y-34139550D02*
X19660502Y-34139550D01*
X19993835Y-34520503D01*
X19850978Y-34520503D01*
X19755740Y-34568122D01*
X19708121Y-34615741D01*
X19660502Y-34710979D01*
X19660502Y-34949074D01*
X19708121Y-35044312D01*
X19755740Y-35091931D01*
X19850978Y-35139550D01*
X20136692Y-35139550D01*
X20231930Y-35091931D01*
X20279549Y-35044312D01*
X19327168Y-34139550D02*
X18708121Y-34139550D01*
X19041454Y-34520503D01*
X18898597Y-34520503D01*
X18803359Y-34568122D01*
X18755740Y-34615741D01*
X18708121Y-34710979D01*
X18708121Y-34949074D01*
X18755740Y-35044312D01*
X18803359Y-35091931D01*
X18898597Y-35139550D01*
X19184311Y-35139550D01*
X19279549Y-35091931D01*
X19327168Y-35044312D01*
X15439073Y-32989550D02*
X16010502Y-32989550D01*
X15724788Y-32989550D02*
X15724788Y-31989550D01*
X15820026Y-32132408D01*
X15915264Y-32227646D01*
X16010502Y-32275265D01*
%TO.C,L32*%
X21527857Y-21061021D02*
X22004047Y-21061021D01*
X22004047Y-20061021D01*
X21289761Y-20061021D02*
X20670714Y-20061021D01*
X21004047Y-20441974D01*
X20861190Y-20441974D01*
X20765952Y-20489593D01*
X20718333Y-20537212D01*
X20670714Y-20632450D01*
X20670714Y-20870545D01*
X20718333Y-20965783D01*
X20765952Y-21013402D01*
X20861190Y-21061021D01*
X21146904Y-21061021D01*
X21242142Y-21013402D01*
X21289761Y-20965783D01*
X20289761Y-20156260D02*
X20242142Y-20108641D01*
X20146904Y-20061021D01*
X19908809Y-20061021D01*
X19813571Y-20108641D01*
X19765952Y-20156260D01*
X19718333Y-20251498D01*
X19718333Y-20346736D01*
X19765952Y-20489593D01*
X20337380Y-21061021D01*
X19718333Y-21061021D01*
X16449285Y-26411021D02*
X17020714Y-26411021D01*
X16735000Y-26411021D02*
X16735000Y-25411021D01*
X16830238Y-25553879D01*
X16925476Y-25649117D01*
X17020714Y-25696736D01*
%TO.C,L31*%
X34197857Y-17061021D02*
X34674047Y-17061021D01*
X34674047Y-16061021D01*
X33959761Y-16061021D02*
X33340714Y-16061021D01*
X33674047Y-16441974D01*
X33531190Y-16441974D01*
X33435952Y-16489593D01*
X33388333Y-16537212D01*
X33340714Y-16632450D01*
X33340714Y-16870545D01*
X33388333Y-16965783D01*
X33435952Y-17013402D01*
X33531190Y-17061021D01*
X33816904Y-17061021D01*
X33912142Y-17013402D01*
X33959761Y-16965783D01*
X32388333Y-17061021D02*
X32959761Y-17061021D01*
X32674047Y-17061021D02*
X32674047Y-16061021D01*
X32769285Y-16203879D01*
X32864523Y-16299117D01*
X32959761Y-16346736D01*
X29119285Y-22411021D02*
X29690714Y-22411021D01*
X29405000Y-22411021D02*
X29405000Y-21411021D01*
X29500238Y-21553879D01*
X29595476Y-21649117D01*
X29690714Y-21696736D01*
%TO.C,L30*%
X46867857Y-13561021D02*
X47344047Y-13561021D01*
X47344047Y-12561021D01*
X46629761Y-12561021D02*
X46010714Y-12561021D01*
X46344047Y-12941974D01*
X46201190Y-12941974D01*
X46105952Y-12989593D01*
X46058333Y-13037212D01*
X46010714Y-13132450D01*
X46010714Y-13370545D01*
X46058333Y-13465783D01*
X46105952Y-13513402D01*
X46201190Y-13561021D01*
X46486904Y-13561021D01*
X46582142Y-13513402D01*
X46629761Y-13465783D01*
X45391666Y-12561021D02*
X45296428Y-12561021D01*
X45201190Y-12608641D01*
X45153571Y-12656260D01*
X45105952Y-12751498D01*
X45058333Y-12941974D01*
X45058333Y-13180069D01*
X45105952Y-13370545D01*
X45153571Y-13465783D01*
X45201190Y-13513402D01*
X45296428Y-13561021D01*
X45391666Y-13561021D01*
X45486904Y-13513402D01*
X45534523Y-13465783D01*
X45582142Y-13370545D01*
X45629761Y-13180069D01*
X45629761Y-12941974D01*
X45582142Y-12751498D01*
X45534523Y-12656260D01*
X45486904Y-12608641D01*
X45391666Y-12561021D01*
X41789285Y-18911021D02*
X42360714Y-18911021D01*
X42075000Y-18911021D02*
X42075000Y-17911021D01*
X42170238Y-18053879D01*
X42265476Y-18149117D01*
X42360714Y-18196736D01*
%TO.C,L29*%
X59527857Y-8461021D02*
X60004047Y-8461021D01*
X60004047Y-7461021D01*
X59242142Y-7556260D02*
X59194523Y-7508641D01*
X59099285Y-7461021D01*
X58861190Y-7461021D01*
X58765952Y-7508641D01*
X58718333Y-7556260D01*
X58670714Y-7651498D01*
X58670714Y-7746736D01*
X58718333Y-7889593D01*
X59289761Y-8461021D01*
X58670714Y-8461021D01*
X58194523Y-8461021D02*
X58004047Y-8461021D01*
X57908809Y-8413402D01*
X57861190Y-8365783D01*
X57765952Y-8222926D01*
X57718333Y-8032450D01*
X57718333Y-7651498D01*
X57765952Y-7556260D01*
X57813571Y-7508641D01*
X57908809Y-7461021D01*
X58099285Y-7461021D01*
X58194523Y-7508641D01*
X58242142Y-7556260D01*
X58289761Y-7651498D01*
X58289761Y-7889593D01*
X58242142Y-7984831D01*
X58194523Y-8032450D01*
X58099285Y-8080069D01*
X57908809Y-8080069D01*
X57813571Y-8032450D01*
X57765952Y-7984831D01*
X57718333Y-7889593D01*
X54449285Y-13811021D02*
X55020714Y-13811021D01*
X54735000Y-13811021D02*
X54735000Y-12811021D01*
X54830238Y-12953879D01*
X54925476Y-13049117D01*
X55020714Y-13096736D01*
%TO.C,L28*%
X72197857Y-6732380D02*
X72674047Y-6732380D01*
X72674047Y-5732380D01*
X71912142Y-5827619D02*
X71864523Y-5780000D01*
X71769285Y-5732380D01*
X71531190Y-5732380D01*
X71435952Y-5780000D01*
X71388333Y-5827619D01*
X71340714Y-5922857D01*
X71340714Y-6018095D01*
X71388333Y-6160952D01*
X71959761Y-6732380D01*
X71340714Y-6732380D01*
X70769285Y-6160952D02*
X70864523Y-6113333D01*
X70912142Y-6065714D01*
X70959761Y-5970476D01*
X70959761Y-5922857D01*
X70912142Y-5827619D01*
X70864523Y-5780000D01*
X70769285Y-5732380D01*
X70578809Y-5732380D01*
X70483571Y-5780000D01*
X70435952Y-5827619D01*
X70388333Y-5922857D01*
X70388333Y-5970476D01*
X70435952Y-6065714D01*
X70483571Y-6113333D01*
X70578809Y-6160952D01*
X70769285Y-6160952D01*
X70864523Y-6208571D01*
X70912142Y-6256190D01*
X70959761Y-6351428D01*
X70959761Y-6541904D01*
X70912142Y-6637142D01*
X70864523Y-6684761D01*
X70769285Y-6732380D01*
X70578809Y-6732380D01*
X70483571Y-6684761D01*
X70435952Y-6637142D01*
X70388333Y-6541904D01*
X70388333Y-6351428D01*
X70435952Y-6256190D01*
X70483571Y-6208571D01*
X70578809Y-6160952D01*
X67119285Y-12082380D02*
X67690714Y-12082380D01*
X67405000Y-12082380D02*
X67405000Y-11082380D01*
X67500238Y-11225238D01*
X67595476Y-11320476D01*
X67690714Y-11368095D01*
%TO.C,L27*%
X84867857Y-7072380D02*
X85344047Y-7072380D01*
X85344047Y-6072380D01*
X84582142Y-6167619D02*
X84534523Y-6120000D01*
X84439285Y-6072380D01*
X84201190Y-6072380D01*
X84105952Y-6120000D01*
X84058333Y-6167619D01*
X84010714Y-6262857D01*
X84010714Y-6358095D01*
X84058333Y-6500952D01*
X84629761Y-7072380D01*
X84010714Y-7072380D01*
X83677380Y-6072380D02*
X83010714Y-6072380D01*
X83439285Y-7072380D01*
X79789285Y-12422380D02*
X80360714Y-12422380D01*
X80075000Y-12422380D02*
X80075000Y-11422380D01*
X80170238Y-11565238D01*
X80265476Y-11660476D01*
X80360714Y-11708095D01*
%TO.C,L26*%
X97527857Y-10702380D02*
X98004047Y-10702380D01*
X98004047Y-9702380D01*
X97242142Y-9797619D02*
X97194523Y-9750000D01*
X97099285Y-9702380D01*
X96861190Y-9702380D01*
X96765952Y-9750000D01*
X96718333Y-9797619D01*
X96670714Y-9892857D01*
X96670714Y-9988095D01*
X96718333Y-10130952D01*
X97289761Y-10702380D01*
X96670714Y-10702380D01*
X95813571Y-9702380D02*
X96004047Y-9702380D01*
X96099285Y-9750000D01*
X96146904Y-9797619D01*
X96242142Y-9940476D01*
X96289761Y-10130952D01*
X96289761Y-10511904D01*
X96242142Y-10607142D01*
X96194523Y-10654761D01*
X96099285Y-10702380D01*
X95908809Y-10702380D01*
X95813571Y-10654761D01*
X95765952Y-10607142D01*
X95718333Y-10511904D01*
X95718333Y-10273809D01*
X95765952Y-10178571D01*
X95813571Y-10130952D01*
X95908809Y-10083333D01*
X96099285Y-10083333D01*
X96194523Y-10130952D01*
X96242142Y-10178571D01*
X96289761Y-10273809D01*
X92449285Y-16052380D02*
X93020714Y-16052380D01*
X92735000Y-16052380D02*
X92735000Y-15052380D01*
X92830238Y-15195238D01*
X92925476Y-15290476D01*
X93020714Y-15338095D01*
%TO.C,L25*%
X110197857Y-12702380D02*
X110674047Y-12702380D01*
X110674047Y-11702380D01*
X109912142Y-11797619D02*
X109864523Y-11750000D01*
X109769285Y-11702380D01*
X109531190Y-11702380D01*
X109435952Y-11750000D01*
X109388333Y-11797619D01*
X109340714Y-11892857D01*
X109340714Y-11988095D01*
X109388333Y-12130952D01*
X109959761Y-12702380D01*
X109340714Y-12702380D01*
X108435952Y-11702380D02*
X108912142Y-11702380D01*
X108959761Y-12178571D01*
X108912142Y-12130952D01*
X108816904Y-12083333D01*
X108578809Y-12083333D01*
X108483571Y-12130952D01*
X108435952Y-12178571D01*
X108388333Y-12273809D01*
X108388333Y-12511904D01*
X108435952Y-12607142D01*
X108483571Y-12654761D01*
X108578809Y-12702380D01*
X108816904Y-12702380D01*
X108912142Y-12654761D01*
X108959761Y-12607142D01*
X105119285Y-18052380D02*
X105690714Y-18052380D01*
X105405000Y-18052380D02*
X105405000Y-17052380D01*
X105500238Y-17195238D01*
X105595476Y-17290476D01*
X105690714Y-17338095D01*
%TO.C,L24*%
X122867857Y-14202380D02*
X123344047Y-14202380D01*
X123344047Y-13202380D01*
X122582142Y-13297619D02*
X122534523Y-13250000D01*
X122439285Y-13202380D01*
X122201190Y-13202380D01*
X122105952Y-13250000D01*
X122058333Y-13297619D01*
X122010714Y-13392857D01*
X122010714Y-13488095D01*
X122058333Y-13630952D01*
X122629761Y-14202380D01*
X122010714Y-14202380D01*
X121153571Y-13535714D02*
X121153571Y-14202380D01*
X121391666Y-13154761D02*
X121629761Y-13869047D01*
X121010714Y-13869047D01*
X117789285Y-19552380D02*
X118360714Y-19552380D01*
X118075000Y-19552380D02*
X118075000Y-18552380D01*
X118170238Y-18695238D01*
X118265476Y-18790476D01*
X118360714Y-18838095D01*
%TO.C,D1*%
D12*
X18092695Y-41515583D02*
X17279895Y-41515583D01*
X17279895Y-41709107D01*
X17318600Y-41825221D01*
X17396009Y-41902631D01*
X17473419Y-41941336D01*
X17628238Y-41980040D01*
X17744352Y-41980040D01*
X17899171Y-41941336D01*
X17976580Y-41902631D01*
X18053990Y-41825221D01*
X18092695Y-41709107D01*
X18092695Y-41515583D01*
X18092695Y-42754136D02*
X18092695Y-42289679D01*
X18092695Y-42521907D02*
X17279895Y-42521907D01*
X17396009Y-42444498D01*
X17473419Y-42367088D01*
X17512123Y-42289679D01*
%TO.C,D2*%
X35392695Y-41715583D02*
X34579895Y-41715583D01*
X34579895Y-41909107D01*
X34618600Y-42025221D01*
X34696009Y-42102631D01*
X34773419Y-42141336D01*
X34928238Y-42180040D01*
X35044352Y-42180040D01*
X35199171Y-42141336D01*
X35276580Y-42102631D01*
X35353990Y-42025221D01*
X35392695Y-41909107D01*
X35392695Y-41715583D01*
X34657304Y-42489679D02*
X34618600Y-42528383D01*
X34579895Y-42605793D01*
X34579895Y-42799317D01*
X34618600Y-42876726D01*
X34657304Y-42915431D01*
X34734714Y-42954136D01*
X34812123Y-42954136D01*
X34928238Y-42915431D01*
X35392695Y-42450974D01*
X35392695Y-42954136D01*
%TO.C,D3*%
X54392695Y-26165583D02*
X53579895Y-26165583D01*
X53579895Y-26359107D01*
X53618600Y-26475221D01*
X53696009Y-26552631D01*
X53773419Y-26591336D01*
X53928238Y-26630040D01*
X54044352Y-26630040D01*
X54199171Y-26591336D01*
X54276580Y-26552631D01*
X54353990Y-26475221D01*
X54392695Y-26359107D01*
X54392695Y-26165583D01*
X53579895Y-26900974D02*
X53579895Y-27404136D01*
X53889533Y-27133202D01*
X53889533Y-27249317D01*
X53928238Y-27326726D01*
X53966942Y-27365431D01*
X54044352Y-27404136D01*
X54237876Y-27404136D01*
X54315285Y-27365431D01*
X54353990Y-27326726D01*
X54392695Y-27249317D01*
X54392695Y-27017088D01*
X54353990Y-26939679D01*
X54315285Y-26900974D01*
%TO.C,D4*%
X73392695Y-23165583D02*
X72579895Y-23165583D01*
X72579895Y-23359107D01*
X72618600Y-23475221D01*
X72696009Y-23552631D01*
X72773419Y-23591336D01*
X72928238Y-23630040D01*
X73044352Y-23630040D01*
X73199171Y-23591336D01*
X73276580Y-23552631D01*
X73353990Y-23475221D01*
X73392695Y-23359107D01*
X73392695Y-23165583D01*
X72850828Y-24326726D02*
X73392695Y-24326726D01*
X72541190Y-24133202D02*
X73121761Y-23939679D01*
X73121761Y-24442840D01*
%TO.C,D5*%
X92392695Y-33165583D02*
X91579895Y-33165583D01*
X91579895Y-33359107D01*
X91618600Y-33475221D01*
X91696009Y-33552631D01*
X91773419Y-33591336D01*
X91928238Y-33630040D01*
X92044352Y-33630040D01*
X92199171Y-33591336D01*
X92276580Y-33552631D01*
X92353990Y-33475221D01*
X92392695Y-33359107D01*
X92392695Y-33165583D01*
X91579895Y-34365431D02*
X91579895Y-33978383D01*
X91966942Y-33939679D01*
X91928238Y-33978383D01*
X91889533Y-34055793D01*
X91889533Y-34249317D01*
X91928238Y-34326726D01*
X91966942Y-34365431D01*
X92044352Y-34404136D01*
X92237876Y-34404136D01*
X92315285Y-34365431D01*
X92353990Y-34326726D01*
X92392695Y-34249317D01*
X92392695Y-34055793D01*
X92353990Y-33978383D01*
X92315285Y-33939679D01*
%TO.C,D6*%
X111392695Y-35165583D02*
X110579895Y-35165583D01*
X110579895Y-35359107D01*
X110618600Y-35475221D01*
X110696009Y-35552631D01*
X110773419Y-35591336D01*
X110928238Y-35630040D01*
X111044352Y-35630040D01*
X111199171Y-35591336D01*
X111276580Y-35552631D01*
X111353990Y-35475221D01*
X111392695Y-35359107D01*
X111392695Y-35165583D01*
X110579895Y-36326726D02*
X110579895Y-36171907D01*
X110618600Y-36094498D01*
X110657304Y-36055793D01*
X110773419Y-35978383D01*
X110928238Y-35939679D01*
X111237876Y-35939679D01*
X111315285Y-35978383D01*
X111353990Y-36017088D01*
X111392695Y-36094498D01*
X111392695Y-36249317D01*
X111353990Y-36326726D01*
X111315285Y-36365431D01*
X111237876Y-36404136D01*
X111044352Y-36404136D01*
X110966942Y-36365431D01*
X110928238Y-36326726D01*
X110889533Y-36249317D01*
X110889533Y-36094498D01*
X110928238Y-36017088D01*
X110966942Y-35978383D01*
X111044352Y-35939679D01*
%TO.C,D7*%
X18092695Y-60515583D02*
X17279895Y-60515583D01*
X17279895Y-60709107D01*
X17318600Y-60825221D01*
X17396009Y-60902631D01*
X17473419Y-60941336D01*
X17628238Y-60980040D01*
X17744352Y-60980040D01*
X17899171Y-60941336D01*
X17976580Y-60902631D01*
X18053990Y-60825221D01*
X18092695Y-60709107D01*
X18092695Y-60515583D01*
X17279895Y-61250974D02*
X17279895Y-61792840D01*
X18092695Y-61444498D01*
%TO.C,D8*%
X35392695Y-60715583D02*
X34579895Y-60715583D01*
X34579895Y-60909107D01*
X34618600Y-61025221D01*
X34696009Y-61102631D01*
X34773419Y-61141336D01*
X34928238Y-61180040D01*
X35044352Y-61180040D01*
X35199171Y-61141336D01*
X35276580Y-61102631D01*
X35353990Y-61025221D01*
X35392695Y-60909107D01*
X35392695Y-60715583D01*
X34928238Y-61644498D02*
X34889533Y-61567088D01*
X34850828Y-61528383D01*
X34773419Y-61489679D01*
X34734714Y-61489679D01*
X34657304Y-61528383D01*
X34618600Y-61567088D01*
X34579895Y-61644498D01*
X34579895Y-61799317D01*
X34618600Y-61876726D01*
X34657304Y-61915431D01*
X34734714Y-61954136D01*
X34773419Y-61954136D01*
X34850828Y-61915431D01*
X34889533Y-61876726D01*
X34928238Y-61799317D01*
X34928238Y-61644498D01*
X34966942Y-61567088D01*
X35005647Y-61528383D01*
X35083057Y-61489679D01*
X35237876Y-61489679D01*
X35315285Y-61528383D01*
X35353990Y-61567088D01*
X35392695Y-61644498D01*
X35392695Y-61799317D01*
X35353990Y-61876726D01*
X35315285Y-61915431D01*
X35237876Y-61954136D01*
X35083057Y-61954136D01*
X35005647Y-61915431D01*
X34966942Y-61876726D01*
X34928238Y-61799317D01*
%TO.C,D9*%
X54392695Y-45165583D02*
X53579895Y-45165583D01*
X53579895Y-45359107D01*
X53618600Y-45475221D01*
X53696009Y-45552631D01*
X53773419Y-45591336D01*
X53928238Y-45630040D01*
X54044352Y-45630040D01*
X54199171Y-45591336D01*
X54276580Y-45552631D01*
X54353990Y-45475221D01*
X54392695Y-45359107D01*
X54392695Y-45165583D01*
X54392695Y-46017088D02*
X54392695Y-46171907D01*
X54353990Y-46249317D01*
X54315285Y-46288021D01*
X54199171Y-46365431D01*
X54044352Y-46404136D01*
X53734714Y-46404136D01*
X53657304Y-46365431D01*
X53618600Y-46326726D01*
X53579895Y-46249317D01*
X53579895Y-46094498D01*
X53618600Y-46017088D01*
X53657304Y-45978383D01*
X53734714Y-45939679D01*
X53928238Y-45939679D01*
X54005647Y-45978383D01*
X54044352Y-46017088D01*
X54083057Y-46094498D01*
X54083057Y-46249317D01*
X54044352Y-46326726D01*
X54005647Y-46365431D01*
X53928238Y-46404136D01*
%TO.C,D10*%
X73392695Y-42165583D02*
X72579895Y-42165583D01*
X72579895Y-42359107D01*
X72618600Y-42475221D01*
X72696009Y-42552631D01*
X72773419Y-42591336D01*
X72928238Y-42630040D01*
X73044352Y-42630040D01*
X73199171Y-42591336D01*
X73276580Y-42552631D01*
X73353990Y-42475221D01*
X73392695Y-42359107D01*
X73392695Y-42165583D01*
X73392695Y-43404136D02*
X73392695Y-42939679D01*
X73392695Y-43171907D02*
X72579895Y-43171907D01*
X72696009Y-43094498D01*
X72773419Y-43017088D01*
X72812123Y-42939679D01*
X72579895Y-43907298D02*
X72579895Y-43984707D01*
X72618600Y-44062117D01*
X72657304Y-44100821D01*
X72734714Y-44139526D01*
X72889533Y-44178231D01*
X73083057Y-44178231D01*
X73237876Y-44139526D01*
X73315285Y-44100821D01*
X73353990Y-44062117D01*
X73392695Y-43984707D01*
X73392695Y-43907298D01*
X73353990Y-43829888D01*
X73315285Y-43791183D01*
X73237876Y-43752479D01*
X73083057Y-43713774D01*
X72889533Y-43713774D01*
X72734714Y-43752479D01*
X72657304Y-43791183D01*
X72618600Y-43829888D01*
X72579895Y-43907298D01*
%TO.C,D11*%
X92392695Y-52165583D02*
X91579895Y-52165583D01*
X91579895Y-52359107D01*
X91618600Y-52475221D01*
X91696009Y-52552631D01*
X91773419Y-52591336D01*
X91928238Y-52630040D01*
X92044352Y-52630040D01*
X92199171Y-52591336D01*
X92276580Y-52552631D01*
X92353990Y-52475221D01*
X92392695Y-52359107D01*
X92392695Y-52165583D01*
X92392695Y-53404136D02*
X92392695Y-52939679D01*
X92392695Y-53171907D02*
X91579895Y-53171907D01*
X91696009Y-53094498D01*
X91773419Y-53017088D01*
X91812123Y-52939679D01*
X92392695Y-54178231D02*
X92392695Y-53713774D01*
X92392695Y-53946002D02*
X91579895Y-53946002D01*
X91696009Y-53868593D01*
X91773419Y-53791183D01*
X91812123Y-53713774D01*
%TO.C,D12*%
X111392695Y-54165583D02*
X110579895Y-54165583D01*
X110579895Y-54359107D01*
X110618600Y-54475221D01*
X110696009Y-54552631D01*
X110773419Y-54591336D01*
X110928238Y-54630040D01*
X111044352Y-54630040D01*
X111199171Y-54591336D01*
X111276580Y-54552631D01*
X111353990Y-54475221D01*
X111392695Y-54359107D01*
X111392695Y-54165583D01*
X111392695Y-55404136D02*
X111392695Y-54939679D01*
X111392695Y-55171907D02*
X110579895Y-55171907D01*
X110696009Y-55094498D01*
X110773419Y-55017088D01*
X110812123Y-54939679D01*
X110657304Y-55713774D02*
X110618600Y-55752479D01*
X110579895Y-55829888D01*
X110579895Y-56023412D01*
X110618600Y-56100821D01*
X110657304Y-56139526D01*
X110734714Y-56178231D01*
X110812123Y-56178231D01*
X110928238Y-56139526D01*
X111392695Y-55675069D01*
X111392695Y-56178231D01*
%TO.C,D13*%
X17898758Y-78455030D02*
X17085958Y-78455030D01*
X17085958Y-78648554D01*
X17124663Y-78764668D01*
X17202072Y-78842078D01*
X17279482Y-78880783D01*
X17434301Y-78919487D01*
X17550415Y-78919487D01*
X17705234Y-78880783D01*
X17782643Y-78842078D01*
X17860053Y-78764668D01*
X17898758Y-78648554D01*
X17898758Y-78455030D01*
X17898758Y-79693583D02*
X17898758Y-79229126D01*
X17898758Y-79461354D02*
X17085958Y-79461354D01*
X17202072Y-79383945D01*
X17279482Y-79306535D01*
X17318186Y-79229126D01*
X17085958Y-79964516D02*
X17085958Y-80467678D01*
X17395596Y-80196745D01*
X17395596Y-80312859D01*
X17434301Y-80390268D01*
X17473005Y-80428973D01*
X17550415Y-80467678D01*
X17743939Y-80467678D01*
X17821348Y-80428973D01*
X17860053Y-80390268D01*
X17898758Y-80312859D01*
X17898758Y-80080630D01*
X17860053Y-80003221D01*
X17821348Y-79964516D01*
%TO.C,D14*%
X35392695Y-79715583D02*
X34579895Y-79715583D01*
X34579895Y-79909107D01*
X34618600Y-80025221D01*
X34696009Y-80102631D01*
X34773419Y-80141336D01*
X34928238Y-80180040D01*
X35044352Y-80180040D01*
X35199171Y-80141336D01*
X35276580Y-80102631D01*
X35353990Y-80025221D01*
X35392695Y-79909107D01*
X35392695Y-79715583D01*
X35392695Y-80954136D02*
X35392695Y-80489679D01*
X35392695Y-80721907D02*
X34579895Y-80721907D01*
X34696009Y-80644498D01*
X34773419Y-80567088D01*
X34812123Y-80489679D01*
X34850828Y-81650821D02*
X35392695Y-81650821D01*
X34541190Y-81457298D02*
X35121761Y-81263774D01*
X35121761Y-81766936D01*
%TO.C,D15*%
X54392695Y-64165583D02*
X53579895Y-64165583D01*
X53579895Y-64359107D01*
X53618600Y-64475221D01*
X53696009Y-64552631D01*
X53773419Y-64591336D01*
X53928238Y-64630040D01*
X54044352Y-64630040D01*
X54199171Y-64591336D01*
X54276580Y-64552631D01*
X54353990Y-64475221D01*
X54392695Y-64359107D01*
X54392695Y-64165583D01*
X54392695Y-65404136D02*
X54392695Y-64939679D01*
X54392695Y-65171907D02*
X53579895Y-65171907D01*
X53696009Y-65094498D01*
X53773419Y-65017088D01*
X53812123Y-64939679D01*
X53579895Y-66139526D02*
X53579895Y-65752479D01*
X53966942Y-65713774D01*
X53928238Y-65752479D01*
X53889533Y-65829888D01*
X53889533Y-66023412D01*
X53928238Y-66100821D01*
X53966942Y-66139526D01*
X54044352Y-66178231D01*
X54237876Y-66178231D01*
X54315285Y-66139526D01*
X54353990Y-66100821D01*
X54392695Y-66023412D01*
X54392695Y-65829888D01*
X54353990Y-65752479D01*
X54315285Y-65713774D01*
%TO.C,D16*%
X71898182Y-61685437D02*
X71085382Y-61685437D01*
X71085382Y-61878961D01*
X71124087Y-61995075D01*
X71201496Y-62072485D01*
X71278906Y-62111190D01*
X71433725Y-62149894D01*
X71549839Y-62149894D01*
X71704658Y-62111190D01*
X71782067Y-62072485D01*
X71859477Y-61995075D01*
X71898182Y-61878961D01*
X71898182Y-61685437D01*
X71898182Y-62923990D02*
X71898182Y-62459533D01*
X71898182Y-62691761D02*
X71085382Y-62691761D01*
X71201496Y-62614352D01*
X71278906Y-62536942D01*
X71317610Y-62459533D01*
X71085382Y-63620675D02*
X71085382Y-63465856D01*
X71124087Y-63388447D01*
X71162791Y-63349742D01*
X71278906Y-63272333D01*
X71433725Y-63233628D01*
X71743363Y-63233628D01*
X71820772Y-63272333D01*
X71859477Y-63311037D01*
X71898182Y-63388447D01*
X71898182Y-63543266D01*
X71859477Y-63620675D01*
X71820772Y-63659380D01*
X71743363Y-63698085D01*
X71549839Y-63698085D01*
X71472429Y-63659380D01*
X71433725Y-63620675D01*
X71395020Y-63543266D01*
X71395020Y-63388447D01*
X71433725Y-63311037D01*
X71472429Y-63272333D01*
X71549839Y-63233628D01*
%TO.C,D17*%
X92392695Y-71165583D02*
X91579895Y-71165583D01*
X91579895Y-71359107D01*
X91618600Y-71475221D01*
X91696009Y-71552631D01*
X91773419Y-71591336D01*
X91928238Y-71630040D01*
X92044352Y-71630040D01*
X92199171Y-71591336D01*
X92276580Y-71552631D01*
X92353990Y-71475221D01*
X92392695Y-71359107D01*
X92392695Y-71165583D01*
X92392695Y-72404136D02*
X92392695Y-71939679D01*
X92392695Y-72171907D02*
X91579895Y-72171907D01*
X91696009Y-72094498D01*
X91773419Y-72017088D01*
X91812123Y-71939679D01*
X91579895Y-72675069D02*
X91579895Y-73216936D01*
X92392695Y-72868593D01*
%TO.C,D18*%
X111392695Y-73165583D02*
X110579895Y-73165583D01*
X110579895Y-73359107D01*
X110618600Y-73475221D01*
X110696009Y-73552631D01*
X110773419Y-73591336D01*
X110928238Y-73630040D01*
X111044352Y-73630040D01*
X111199171Y-73591336D01*
X111276580Y-73552631D01*
X111353990Y-73475221D01*
X111392695Y-73359107D01*
X111392695Y-73165583D01*
X111392695Y-74404136D02*
X111392695Y-73939679D01*
X111392695Y-74171907D02*
X110579895Y-74171907D01*
X110696009Y-74094498D01*
X110773419Y-74017088D01*
X110812123Y-73939679D01*
X110928238Y-74868593D02*
X110889533Y-74791183D01*
X110850828Y-74752479D01*
X110773419Y-74713774D01*
X110734714Y-74713774D01*
X110657304Y-74752479D01*
X110618600Y-74791183D01*
X110579895Y-74868593D01*
X110579895Y-75023412D01*
X110618600Y-75100821D01*
X110657304Y-75139526D01*
X110734714Y-75178231D01*
X110773419Y-75178231D01*
X110850828Y-75139526D01*
X110889533Y-75100821D01*
X110928238Y-75023412D01*
X110928238Y-74868593D01*
X110966942Y-74791183D01*
X111005647Y-74752479D01*
X111083057Y-74713774D01*
X111237876Y-74713774D01*
X111315285Y-74752479D01*
X111353990Y-74791183D01*
X111392695Y-74868593D01*
X111392695Y-75023412D01*
X111353990Y-75100821D01*
X111315285Y-75139526D01*
X111237876Y-75178231D01*
X111083057Y-75178231D01*
X111005647Y-75139526D01*
X110966942Y-75100821D01*
X110928238Y-75023412D01*
%TO.C,D19*%
X74429405Y-97111081D02*
X73616605Y-97111081D01*
X73616605Y-97304605D01*
X73655310Y-97420719D01*
X73732719Y-97498129D01*
X73810129Y-97536834D01*
X73964948Y-97575538D01*
X74081062Y-97575538D01*
X74235881Y-97536834D01*
X74313290Y-97498129D01*
X74390700Y-97420719D01*
X74429405Y-97304605D01*
X74429405Y-97111081D01*
X74429405Y-98349634D02*
X74429405Y-97885177D01*
X74429405Y-98117405D02*
X73616605Y-98117405D01*
X73732719Y-98039996D01*
X73810129Y-97962586D01*
X73848833Y-97885177D01*
X74429405Y-98736681D02*
X74429405Y-98891500D01*
X74390700Y-98968910D01*
X74351995Y-99007615D01*
X74235881Y-99085024D01*
X74081062Y-99123729D01*
X73771424Y-99123729D01*
X73694014Y-99085024D01*
X73655310Y-99046319D01*
X73616605Y-98968910D01*
X73616605Y-98814091D01*
X73655310Y-98736681D01*
X73694014Y-98697977D01*
X73771424Y-98659272D01*
X73964948Y-98659272D01*
X74042357Y-98697977D01*
X74081062Y-98736681D01*
X74119767Y-98814091D01*
X74119767Y-98968910D01*
X74081062Y-99046319D01*
X74042357Y-99085024D01*
X73964948Y-99123729D01*
%TO.C,D20*%
X78005195Y-90174583D02*
X77192395Y-90174583D01*
X77192395Y-90368107D01*
X77231100Y-90484221D01*
X77308509Y-90561631D01*
X77385919Y-90600336D01*
X77540738Y-90639040D01*
X77656852Y-90639040D01*
X77811671Y-90600336D01*
X77889080Y-90561631D01*
X77966490Y-90484221D01*
X78005195Y-90368107D01*
X78005195Y-90174583D01*
X77269804Y-90948679D02*
X77231100Y-90987383D01*
X77192395Y-91064793D01*
X77192395Y-91258317D01*
X77231100Y-91335726D01*
X77269804Y-91374431D01*
X77347214Y-91413136D01*
X77424623Y-91413136D01*
X77540738Y-91374431D01*
X78005195Y-90909974D01*
X78005195Y-91413136D01*
X77192395Y-91916298D02*
X77192395Y-91993707D01*
X77231100Y-92071117D01*
X77269804Y-92109821D01*
X77347214Y-92148526D01*
X77502033Y-92187231D01*
X77695557Y-92187231D01*
X77850376Y-92148526D01*
X77927785Y-92109821D01*
X77966490Y-92071117D01*
X78005195Y-91993707D01*
X78005195Y-91916298D01*
X77966490Y-91838888D01*
X77927785Y-91800183D01*
X77850376Y-91761479D01*
X77695557Y-91722774D01*
X77502033Y-91722774D01*
X77347214Y-91761479D01*
X77269804Y-91800183D01*
X77231100Y-91838888D01*
X77192395Y-91916298D01*
%TO.C,D21*%
X97005195Y-92174583D02*
X96192395Y-92174583D01*
X96192395Y-92368107D01*
X96231100Y-92484221D01*
X96308509Y-92561631D01*
X96385919Y-92600336D01*
X96540738Y-92639040D01*
X96656852Y-92639040D01*
X96811671Y-92600336D01*
X96889080Y-92561631D01*
X96966490Y-92484221D01*
X97005195Y-92368107D01*
X97005195Y-92174583D01*
X96269804Y-92948679D02*
X96231100Y-92987383D01*
X96192395Y-93064793D01*
X96192395Y-93258317D01*
X96231100Y-93335726D01*
X96269804Y-93374431D01*
X96347214Y-93413136D01*
X96424623Y-93413136D01*
X96540738Y-93374431D01*
X97005195Y-92909974D01*
X97005195Y-93413136D01*
X97005195Y-94187231D02*
X97005195Y-93722774D01*
X97005195Y-93955002D02*
X96192395Y-93955002D01*
X96308509Y-93877593D01*
X96385919Y-93800183D01*
X96424623Y-93722774D01*
%TO.C,D22*%
X161106068Y-107117908D02*
X161247209Y-106317456D01*
X161056626Y-106283851D01*
X160935554Y-106301805D01*
X160845879Y-106364596D01*
X160794320Y-106434109D01*
X160729319Y-106579855D01*
X160709156Y-106694205D01*
X160720389Y-106853393D01*
X160745064Y-106936348D01*
X160807855Y-107026023D01*
X160915484Y-107084303D01*
X161106068Y-107117908D01*
X160471432Y-106259270D02*
X160440037Y-106214432D01*
X160370524Y-106162873D01*
X160179940Y-106129268D01*
X160096986Y-106153943D01*
X160052148Y-106185338D01*
X160000589Y-106254851D01*
X159987147Y-106331084D01*
X160005101Y-106452156D01*
X160381850Y-106990209D01*
X159886332Y-106902836D01*
X159709097Y-106124849D02*
X159677702Y-106080012D01*
X159608189Y-106028453D01*
X159417605Y-105994848D01*
X159334651Y-106019522D01*
X159289813Y-106050918D01*
X159238254Y-106120431D01*
X159224812Y-106196664D01*
X159242766Y-106317735D01*
X159619515Y-106855789D01*
X159123997Y-106768415D01*
%TO.C,D23*%
X132234696Y-105090045D02*
X131434244Y-104948904D01*
X131400639Y-105139487D01*
X131418593Y-105260559D01*
X131481384Y-105350234D01*
X131550897Y-105401793D01*
X131696643Y-105466794D01*
X131810993Y-105486957D01*
X131970181Y-105475724D01*
X132053136Y-105451049D01*
X132142811Y-105388258D01*
X132201091Y-105280629D01*
X132234696Y-105090045D01*
X131376058Y-105724681D02*
X131331220Y-105756076D01*
X131279661Y-105825589D01*
X131246056Y-106016173D01*
X131270731Y-106099127D01*
X131302126Y-106143965D01*
X131371639Y-106195524D01*
X131447872Y-106208966D01*
X131568944Y-106191012D01*
X132106997Y-105814263D01*
X132019624Y-106309781D01*
X131172125Y-106435457D02*
X131084752Y-106930975D01*
X131436733Y-106717925D01*
X131416570Y-106832276D01*
X131441244Y-106915230D01*
X131472640Y-106960068D01*
X131542153Y-107011627D01*
X131732736Y-107045232D01*
X131815691Y-107020557D01*
X131860529Y-106989161D01*
X131912087Y-106919649D01*
X131952413Y-106690948D01*
X131927739Y-106607994D01*
X131896343Y-106563156D01*
%TO.C,D24*%
X151114696Y-107500045D02*
X150314244Y-107358904D01*
X150280639Y-107549487D01*
X150298593Y-107670559D01*
X150361384Y-107760234D01*
X150430897Y-107811793D01*
X150576643Y-107876794D01*
X150690993Y-107896957D01*
X150850181Y-107885724D01*
X150933136Y-107861049D01*
X151022811Y-107798258D01*
X151081091Y-107690629D01*
X151114696Y-107500045D01*
X150256058Y-108134681D02*
X150211220Y-108166076D01*
X150159661Y-108235589D01*
X150126056Y-108426173D01*
X150150731Y-108509127D01*
X150182126Y-108553965D01*
X150251639Y-108605524D01*
X150327872Y-108618966D01*
X150448944Y-108601012D01*
X150986997Y-108224263D01*
X150899624Y-108719781D01*
X150245011Y-109311788D02*
X150778645Y-109405882D01*
X149973682Y-109067436D02*
X150579038Y-108977668D01*
X150491665Y-109473186D01*
%TO.C,BZ1*%
D13*
X65629184Y-80236679D02*
X65486327Y-80284298D01*
X65438708Y-80331917D01*
X65391089Y-80427155D01*
X65391089Y-80570012D01*
X65438708Y-80665250D01*
X65486327Y-80712869D01*
X65581565Y-80760488D01*
X65962517Y-80760488D01*
X65962517Y-79760488D01*
X65629184Y-79760488D01*
X65533946Y-79808108D01*
X65486327Y-79855727D01*
X65438708Y-79950965D01*
X65438708Y-80046203D01*
X65486327Y-80141441D01*
X65533946Y-80189060D01*
X65629184Y-80236679D01*
X65962517Y-80236679D01*
X65057755Y-79760488D02*
X64391089Y-79760488D01*
X65057755Y-80760488D01*
X64391089Y-80760488D01*
X63486327Y-80760488D02*
X64057755Y-80760488D01*
X63772041Y-80760488D02*
X63772041Y-79760488D01*
X63867279Y-79903346D01*
X63962517Y-79998584D01*
X64057755Y-80046203D01*
%TO.C,J2*%
X165472597Y-99014321D02*
X165348562Y-99717755D01*
X165370651Y-99866711D01*
X165447904Y-99977040D01*
X165580322Y-100048742D01*
X165674113Y-100065280D01*
X165033998Y-99033691D02*
X164995372Y-98978527D01*
X164909850Y-98915093D01*
X164675371Y-98873748D01*
X164573311Y-98904106D01*
X164518147Y-98942733D01*
X164454713Y-99028255D01*
X164438175Y-99122046D01*
X164460264Y-99271002D01*
X164923784Y-99932977D01*
X164314141Y-99825480D01*
%TO.C,L1*%
D12*
X24360466Y-40989695D02*
X24747514Y-40989695D01*
X24747514Y-40176895D01*
X23663780Y-40989695D02*
X24128238Y-40989695D01*
X23896009Y-40989695D02*
X23896009Y-40176895D01*
X23973419Y-40293009D01*
X24050828Y-40370419D01*
X24128238Y-40409123D01*
D13*
X25558333Y-37440904D02*
X25558333Y-36640904D01*
X25558333Y-37021857D02*
X25101190Y-37021857D01*
X25101190Y-37440904D02*
X25101190Y-36640904D01*
X24567857Y-36640904D02*
X24415476Y-36640904D01*
X24339285Y-36679000D01*
X24263095Y-36755190D01*
X24225000Y-36907571D01*
X24225000Y-37174238D01*
X24263095Y-37326619D01*
X24339285Y-37402809D01*
X24415476Y-37440904D01*
X24567857Y-37440904D01*
X24644047Y-37402809D01*
X24720238Y-37326619D01*
X24758333Y-37174238D01*
X24758333Y-36907571D01*
X24720238Y-36755190D01*
X24644047Y-36679000D01*
X24567857Y-36640904D01*
X23501190Y-37440904D02*
X23882142Y-37440904D01*
X23882142Y-36640904D01*
X23234523Y-37021857D02*
X22967857Y-37021857D01*
X22853571Y-37440904D02*
X23234523Y-37440904D01*
X23234523Y-36640904D01*
X22853571Y-36640904D01*
%TO.C,L2*%
D12*
X43360466Y-39689695D02*
X43747514Y-39689695D01*
X43747514Y-38876895D01*
X43128238Y-38954304D02*
X43089533Y-38915600D01*
X43012123Y-38876895D01*
X42818600Y-38876895D01*
X42741190Y-38915600D01*
X42702485Y-38954304D01*
X42663780Y-39031714D01*
X42663780Y-39109123D01*
X42702485Y-39225238D01*
X43166942Y-39689695D01*
X42663780Y-39689695D01*
D13*
X44558333Y-36140904D02*
X44558333Y-35340904D01*
X44558333Y-35721857D02*
X44101190Y-35721857D01*
X44101190Y-36140904D02*
X44101190Y-35340904D01*
X43567857Y-35340904D02*
X43415476Y-35340904D01*
X43339285Y-35379000D01*
X43263095Y-35455190D01*
X43225000Y-35607571D01*
X43225000Y-35874238D01*
X43263095Y-36026619D01*
X43339285Y-36102809D01*
X43415476Y-36140904D01*
X43567857Y-36140904D01*
X43644047Y-36102809D01*
X43720238Y-36026619D01*
X43758333Y-35874238D01*
X43758333Y-35607571D01*
X43720238Y-35455190D01*
X43644047Y-35379000D01*
X43567857Y-35340904D01*
X42501190Y-36140904D02*
X42882142Y-36140904D01*
X42882142Y-35340904D01*
X42234523Y-35721857D02*
X41967857Y-35721857D01*
X41853571Y-36140904D02*
X42234523Y-36140904D01*
X42234523Y-35340904D01*
X41853571Y-35340904D01*
%TO.C,L3*%
D12*
X62360466Y-24139695D02*
X62747514Y-24139695D01*
X62747514Y-23326895D01*
X62166942Y-23326895D02*
X61663780Y-23326895D01*
X61934714Y-23636533D01*
X61818600Y-23636533D01*
X61741190Y-23675238D01*
X61702485Y-23713942D01*
X61663780Y-23791352D01*
X61663780Y-23984876D01*
X61702485Y-24062285D01*
X61741190Y-24100990D01*
X61818600Y-24139695D01*
X62050828Y-24139695D01*
X62128238Y-24100990D01*
X62166942Y-24062285D01*
D13*
X63558333Y-20590904D02*
X63558333Y-19790904D01*
X63558333Y-20171857D02*
X63101190Y-20171857D01*
X63101190Y-20590904D02*
X63101190Y-19790904D01*
X62567857Y-19790904D02*
X62415476Y-19790904D01*
X62339285Y-19829000D01*
X62263095Y-19905190D01*
X62225000Y-20057571D01*
X62225000Y-20324238D01*
X62263095Y-20476619D01*
X62339285Y-20552809D01*
X62415476Y-20590904D01*
X62567857Y-20590904D01*
X62644047Y-20552809D01*
X62720238Y-20476619D01*
X62758333Y-20324238D01*
X62758333Y-20057571D01*
X62720238Y-19905190D01*
X62644047Y-19829000D01*
X62567857Y-19790904D01*
X61501190Y-20590904D02*
X61882142Y-20590904D01*
X61882142Y-19790904D01*
X61234523Y-20171857D02*
X60967857Y-20171857D01*
X60853571Y-20590904D02*
X61234523Y-20590904D01*
X61234523Y-19790904D01*
X60853571Y-19790904D01*
%TO.C,L4*%
D12*
X81360466Y-21139695D02*
X81747514Y-21139695D01*
X81747514Y-20326895D01*
X80741190Y-20597828D02*
X80741190Y-21139695D01*
X80934714Y-20288190D02*
X81128238Y-20868761D01*
X80625076Y-20868761D01*
D13*
X82558333Y-17590904D02*
X82558333Y-16790904D01*
X82558333Y-17171857D02*
X82101190Y-17171857D01*
X82101190Y-17590904D02*
X82101190Y-16790904D01*
X81567857Y-16790904D02*
X81415476Y-16790904D01*
X81339285Y-16829000D01*
X81263095Y-16905190D01*
X81225000Y-17057571D01*
X81225000Y-17324238D01*
X81263095Y-17476619D01*
X81339285Y-17552809D01*
X81415476Y-17590904D01*
X81567857Y-17590904D01*
X81644047Y-17552809D01*
X81720238Y-17476619D01*
X81758333Y-17324238D01*
X81758333Y-17057571D01*
X81720238Y-16905190D01*
X81644047Y-16829000D01*
X81567857Y-16790904D01*
X80501190Y-17590904D02*
X80882142Y-17590904D01*
X80882142Y-16790904D01*
X80234523Y-17171857D02*
X79967857Y-17171857D01*
X79853571Y-17590904D02*
X80234523Y-17590904D01*
X80234523Y-16790904D01*
X79853571Y-16790904D01*
%TO.C,L5*%
D12*
X100360466Y-31139695D02*
X100747514Y-31139695D01*
X100747514Y-30326895D01*
X99702485Y-30326895D02*
X100089533Y-30326895D01*
X100128238Y-30713942D01*
X100089533Y-30675238D01*
X100012123Y-30636533D01*
X99818600Y-30636533D01*
X99741190Y-30675238D01*
X99702485Y-30713942D01*
X99663780Y-30791352D01*
X99663780Y-30984876D01*
X99702485Y-31062285D01*
X99741190Y-31100990D01*
X99818600Y-31139695D01*
X100012123Y-31139695D01*
X100089533Y-31100990D01*
X100128238Y-31062285D01*
D13*
X101558333Y-27590904D02*
X101558333Y-26790904D01*
X101558333Y-27171857D02*
X101101190Y-27171857D01*
X101101190Y-27590904D02*
X101101190Y-26790904D01*
X100567857Y-26790904D02*
X100415476Y-26790904D01*
X100339285Y-26829000D01*
X100263095Y-26905190D01*
X100225000Y-27057571D01*
X100225000Y-27324238D01*
X100263095Y-27476619D01*
X100339285Y-27552809D01*
X100415476Y-27590904D01*
X100567857Y-27590904D01*
X100644047Y-27552809D01*
X100720238Y-27476619D01*
X100758333Y-27324238D01*
X100758333Y-27057571D01*
X100720238Y-26905190D01*
X100644047Y-26829000D01*
X100567857Y-26790904D01*
X99501190Y-27590904D02*
X99882142Y-27590904D01*
X99882142Y-26790904D01*
X99234523Y-27171857D02*
X98967857Y-27171857D01*
X98853571Y-27590904D02*
X99234523Y-27590904D01*
X99234523Y-26790904D01*
X98853571Y-26790904D01*
%TO.C,L6*%
D12*
X119360466Y-33139695D02*
X119747514Y-33139695D01*
X119747514Y-32326895D01*
X118741190Y-32326895D02*
X118896009Y-32326895D01*
X118973419Y-32365600D01*
X119012123Y-32404304D01*
X119089533Y-32520419D01*
X119128238Y-32675238D01*
X119128238Y-32984876D01*
X119089533Y-33062285D01*
X119050828Y-33100990D01*
X118973419Y-33139695D01*
X118818600Y-33139695D01*
X118741190Y-33100990D01*
X118702485Y-33062285D01*
X118663780Y-32984876D01*
X118663780Y-32791352D01*
X118702485Y-32713942D01*
X118741190Y-32675238D01*
X118818600Y-32636533D01*
X118973419Y-32636533D01*
X119050828Y-32675238D01*
X119089533Y-32713942D01*
X119128238Y-32791352D01*
D13*
X120558333Y-29590904D02*
X120558333Y-28790904D01*
X120558333Y-29171857D02*
X120101190Y-29171857D01*
X120101190Y-29590904D02*
X120101190Y-28790904D01*
X119567857Y-28790904D02*
X119415476Y-28790904D01*
X119339285Y-28829000D01*
X119263095Y-28905190D01*
X119225000Y-29057571D01*
X119225000Y-29324238D01*
X119263095Y-29476619D01*
X119339285Y-29552809D01*
X119415476Y-29590904D01*
X119567857Y-29590904D01*
X119644047Y-29552809D01*
X119720238Y-29476619D01*
X119758333Y-29324238D01*
X119758333Y-29057571D01*
X119720238Y-28905190D01*
X119644047Y-28829000D01*
X119567857Y-28790904D01*
X118501190Y-29590904D02*
X118882142Y-29590904D01*
X118882142Y-28790904D01*
X118234523Y-29171857D02*
X117967857Y-29171857D01*
X117853571Y-29590904D02*
X118234523Y-29590904D01*
X118234523Y-28790904D01*
X117853571Y-28790904D01*
%TO.C,L7*%
D12*
X24360466Y-54427695D02*
X24747514Y-54427695D01*
X24747514Y-53614895D01*
X24166942Y-53614895D02*
X23625076Y-53614895D01*
X23973419Y-54427695D01*
D13*
X25558333Y-57964904D02*
X25558333Y-57164904D01*
X25558333Y-57545857D02*
X25101190Y-57545857D01*
X25101190Y-57964904D02*
X25101190Y-57164904D01*
X24567857Y-57164904D02*
X24415476Y-57164904D01*
X24339285Y-57203000D01*
X24263095Y-57279190D01*
X24225000Y-57431571D01*
X24225000Y-57698238D01*
X24263095Y-57850619D01*
X24339285Y-57926809D01*
X24415476Y-57964904D01*
X24567857Y-57964904D01*
X24644047Y-57926809D01*
X24720238Y-57850619D01*
X24758333Y-57698238D01*
X24758333Y-57431571D01*
X24720238Y-57279190D01*
X24644047Y-57203000D01*
X24567857Y-57164904D01*
X23501190Y-57964904D02*
X23882142Y-57964904D01*
X23882142Y-57164904D01*
X23234523Y-57545857D02*
X22967857Y-57545857D01*
X22853571Y-57964904D02*
X23234523Y-57964904D01*
X23234523Y-57164904D01*
X22853571Y-57164904D01*
%TO.C,L8*%
D12*
X43360466Y-53127695D02*
X43747514Y-53127695D01*
X43747514Y-52314895D01*
X42973419Y-52663238D02*
X43050828Y-52624533D01*
X43089533Y-52585828D01*
X43128238Y-52508419D01*
X43128238Y-52469714D01*
X43089533Y-52392304D01*
X43050828Y-52353600D01*
X42973419Y-52314895D01*
X42818600Y-52314895D01*
X42741190Y-52353600D01*
X42702485Y-52392304D01*
X42663780Y-52469714D01*
X42663780Y-52508419D01*
X42702485Y-52585828D01*
X42741190Y-52624533D01*
X42818600Y-52663238D01*
X42973419Y-52663238D01*
X43050828Y-52701942D01*
X43089533Y-52740647D01*
X43128238Y-52818057D01*
X43128238Y-52972876D01*
X43089533Y-53050285D01*
X43050828Y-53088990D01*
X42973419Y-53127695D01*
X42818600Y-53127695D01*
X42741190Y-53088990D01*
X42702485Y-53050285D01*
X42663780Y-52972876D01*
X42663780Y-52818057D01*
X42702485Y-52740647D01*
X42741190Y-52701942D01*
X42818600Y-52663238D01*
D13*
X44558333Y-56664904D02*
X44558333Y-55864904D01*
X44558333Y-56245857D02*
X44101190Y-56245857D01*
X44101190Y-56664904D02*
X44101190Y-55864904D01*
X43567857Y-55864904D02*
X43415476Y-55864904D01*
X43339285Y-55903000D01*
X43263095Y-55979190D01*
X43225000Y-56131571D01*
X43225000Y-56398238D01*
X43263095Y-56550619D01*
X43339285Y-56626809D01*
X43415476Y-56664904D01*
X43567857Y-56664904D01*
X43644047Y-56626809D01*
X43720238Y-56550619D01*
X43758333Y-56398238D01*
X43758333Y-56131571D01*
X43720238Y-55979190D01*
X43644047Y-55903000D01*
X43567857Y-55864904D01*
X42501190Y-56664904D02*
X42882142Y-56664904D01*
X42882142Y-55864904D01*
X42234523Y-56245857D02*
X41967857Y-56245857D01*
X41853571Y-56664904D02*
X42234523Y-56664904D01*
X42234523Y-55864904D01*
X41853571Y-55864904D01*
%TO.C,L9*%
D12*
X62360466Y-37577695D02*
X62747514Y-37577695D01*
X62747514Y-36764895D01*
X62050828Y-37577695D02*
X61896009Y-37577695D01*
X61818600Y-37538990D01*
X61779895Y-37500285D01*
X61702485Y-37384171D01*
X61663780Y-37229352D01*
X61663780Y-36919714D01*
X61702485Y-36842304D01*
X61741190Y-36803600D01*
X61818600Y-36764895D01*
X61973419Y-36764895D01*
X62050828Y-36803600D01*
X62089533Y-36842304D01*
X62128238Y-36919714D01*
X62128238Y-37113238D01*
X62089533Y-37190647D01*
X62050828Y-37229352D01*
X61973419Y-37268057D01*
X61818600Y-37268057D01*
X61741190Y-37229352D01*
X61702485Y-37190647D01*
X61663780Y-37113238D01*
D13*
X63558333Y-41114904D02*
X63558333Y-40314904D01*
X63558333Y-40695857D02*
X63101190Y-40695857D01*
X63101190Y-41114904D02*
X63101190Y-40314904D01*
X62567857Y-40314904D02*
X62415476Y-40314904D01*
X62339285Y-40353000D01*
X62263095Y-40429190D01*
X62225000Y-40581571D01*
X62225000Y-40848238D01*
X62263095Y-41000619D01*
X62339285Y-41076809D01*
X62415476Y-41114904D01*
X62567857Y-41114904D01*
X62644047Y-41076809D01*
X62720238Y-41000619D01*
X62758333Y-40848238D01*
X62758333Y-40581571D01*
X62720238Y-40429190D01*
X62644047Y-40353000D01*
X62567857Y-40314904D01*
X61501190Y-41114904D02*
X61882142Y-41114904D01*
X61882142Y-40314904D01*
X61234523Y-40695857D02*
X60967857Y-40695857D01*
X60853571Y-41114904D02*
X61234523Y-41114904D01*
X61234523Y-40314904D01*
X60853571Y-40314904D01*
%TO.C,L10*%
D12*
X81747514Y-34577695D02*
X82134561Y-34577695D01*
X82134561Y-33764895D01*
X81050828Y-34577695D02*
X81515285Y-34577695D01*
X81283057Y-34577695D02*
X81283057Y-33764895D01*
X81360466Y-33881009D01*
X81437876Y-33958419D01*
X81515285Y-33997123D01*
X80547666Y-33764895D02*
X80470257Y-33764895D01*
X80392847Y-33803600D01*
X80354142Y-33842304D01*
X80315438Y-33919714D01*
X80276733Y-34074533D01*
X80276733Y-34268057D01*
X80315438Y-34422876D01*
X80354142Y-34500285D01*
X80392847Y-34538990D01*
X80470257Y-34577695D01*
X80547666Y-34577695D01*
X80625076Y-34538990D01*
X80663780Y-34500285D01*
X80702485Y-34422876D01*
X80741190Y-34268057D01*
X80741190Y-34074533D01*
X80702485Y-33919714D01*
X80663780Y-33842304D01*
X80625076Y-33803600D01*
X80547666Y-33764895D01*
D13*
X82558333Y-38114904D02*
X82558333Y-37314904D01*
X82558333Y-37695857D02*
X82101190Y-37695857D01*
X82101190Y-38114904D02*
X82101190Y-37314904D01*
X81567857Y-37314904D02*
X81415476Y-37314904D01*
X81339285Y-37353000D01*
X81263095Y-37429190D01*
X81225000Y-37581571D01*
X81225000Y-37848238D01*
X81263095Y-38000619D01*
X81339285Y-38076809D01*
X81415476Y-38114904D01*
X81567857Y-38114904D01*
X81644047Y-38076809D01*
X81720238Y-38000619D01*
X81758333Y-37848238D01*
X81758333Y-37581571D01*
X81720238Y-37429190D01*
X81644047Y-37353000D01*
X81567857Y-37314904D01*
X80501190Y-38114904D02*
X80882142Y-38114904D01*
X80882142Y-37314904D01*
X80234523Y-37695857D02*
X79967857Y-37695857D01*
X79853571Y-38114904D02*
X80234523Y-38114904D01*
X80234523Y-37314904D01*
X79853571Y-37314904D01*
%TO.C,L11*%
D12*
X100747514Y-44577695D02*
X101134561Y-44577695D01*
X101134561Y-43764895D01*
X100050828Y-44577695D02*
X100515285Y-44577695D01*
X100283057Y-44577695D02*
X100283057Y-43764895D01*
X100360466Y-43881009D01*
X100437876Y-43958419D01*
X100515285Y-43997123D01*
X99276733Y-44577695D02*
X99741190Y-44577695D01*
X99508961Y-44577695D02*
X99508961Y-43764895D01*
X99586371Y-43881009D01*
X99663780Y-43958419D01*
X99741190Y-43997123D01*
D13*
X101558333Y-48114904D02*
X101558333Y-47314904D01*
X101558333Y-47695857D02*
X101101190Y-47695857D01*
X101101190Y-48114904D02*
X101101190Y-47314904D01*
X100567857Y-47314904D02*
X100415476Y-47314904D01*
X100339285Y-47353000D01*
X100263095Y-47429190D01*
X100225000Y-47581571D01*
X100225000Y-47848238D01*
X100263095Y-48000619D01*
X100339285Y-48076809D01*
X100415476Y-48114904D01*
X100567857Y-48114904D01*
X100644047Y-48076809D01*
X100720238Y-48000619D01*
X100758333Y-47848238D01*
X100758333Y-47581571D01*
X100720238Y-47429190D01*
X100644047Y-47353000D01*
X100567857Y-47314904D01*
X99501190Y-48114904D02*
X99882142Y-48114904D01*
X99882142Y-47314904D01*
X99234523Y-47695857D02*
X98967857Y-47695857D01*
X98853571Y-48114904D02*
X99234523Y-48114904D01*
X99234523Y-47314904D01*
X98853571Y-47314904D01*
%TO.C,L12*%
D12*
X119747514Y-46577695D02*
X120134561Y-46577695D01*
X120134561Y-45764895D01*
X119050828Y-46577695D02*
X119515285Y-46577695D01*
X119283057Y-46577695D02*
X119283057Y-45764895D01*
X119360466Y-45881009D01*
X119437876Y-45958419D01*
X119515285Y-45997123D01*
X118741190Y-45842304D02*
X118702485Y-45803600D01*
X118625076Y-45764895D01*
X118431552Y-45764895D01*
X118354142Y-45803600D01*
X118315438Y-45842304D01*
X118276733Y-45919714D01*
X118276733Y-45997123D01*
X118315438Y-46113238D01*
X118779895Y-46577695D01*
X118276733Y-46577695D01*
D13*
X120558333Y-50114904D02*
X120558333Y-49314904D01*
X120558333Y-49695857D02*
X120101190Y-49695857D01*
X120101190Y-50114904D02*
X120101190Y-49314904D01*
X119567857Y-49314904D02*
X119415476Y-49314904D01*
X119339285Y-49353000D01*
X119263095Y-49429190D01*
X119225000Y-49581571D01*
X119225000Y-49848238D01*
X119263095Y-50000619D01*
X119339285Y-50076809D01*
X119415476Y-50114904D01*
X119567857Y-50114904D01*
X119644047Y-50076809D01*
X119720238Y-50000619D01*
X119758333Y-49848238D01*
X119758333Y-49581571D01*
X119720238Y-49429190D01*
X119644047Y-49353000D01*
X119567857Y-49314904D01*
X118501190Y-50114904D02*
X118882142Y-50114904D01*
X118882142Y-49314904D01*
X118234523Y-49695857D02*
X117967857Y-49695857D01*
X117853571Y-50114904D02*
X118234523Y-50114904D01*
X118234523Y-49314904D01*
X117853571Y-49314904D01*
%TO.C,L13*%
D12*
X24747514Y-78989695D02*
X25134561Y-78989695D01*
X25134561Y-78176895D01*
X24050828Y-78989695D02*
X24515285Y-78989695D01*
X24283057Y-78989695D02*
X24283057Y-78176895D01*
X24360466Y-78293009D01*
X24437876Y-78370419D01*
X24515285Y-78409123D01*
X23779895Y-78176895D02*
X23276733Y-78176895D01*
X23547666Y-78486533D01*
X23431552Y-78486533D01*
X23354142Y-78525238D01*
X23315438Y-78563942D01*
X23276733Y-78641352D01*
X23276733Y-78834876D01*
X23315438Y-78912285D01*
X23354142Y-78950990D01*
X23431552Y-78989695D01*
X23663780Y-78989695D01*
X23741190Y-78950990D01*
X23779895Y-78912285D01*
D13*
X25558333Y-75440904D02*
X25558333Y-74640904D01*
X25558333Y-75021857D02*
X25101190Y-75021857D01*
X25101190Y-75440904D02*
X25101190Y-74640904D01*
X24567857Y-74640904D02*
X24415476Y-74640904D01*
X24339285Y-74679000D01*
X24263095Y-74755190D01*
X24225000Y-74907571D01*
X24225000Y-75174238D01*
X24263095Y-75326619D01*
X24339285Y-75402809D01*
X24415476Y-75440904D01*
X24567857Y-75440904D01*
X24644047Y-75402809D01*
X24720238Y-75326619D01*
X24758333Y-75174238D01*
X24758333Y-74907571D01*
X24720238Y-74755190D01*
X24644047Y-74679000D01*
X24567857Y-74640904D01*
X23501190Y-75440904D02*
X23882142Y-75440904D01*
X23882142Y-74640904D01*
X23234523Y-75021857D02*
X22967857Y-75021857D01*
X22853571Y-75440904D02*
X23234523Y-75440904D01*
X23234523Y-74640904D01*
X22853571Y-74640904D01*
%TO.C,L14*%
D12*
X43747514Y-77689695D02*
X44134561Y-77689695D01*
X44134561Y-76876895D01*
X43050828Y-77689695D02*
X43515285Y-77689695D01*
X43283057Y-77689695D02*
X43283057Y-76876895D01*
X43360466Y-76993009D01*
X43437876Y-77070419D01*
X43515285Y-77109123D01*
X42354142Y-77147828D02*
X42354142Y-77689695D01*
X42547666Y-76838190D02*
X42741190Y-77418761D01*
X42238028Y-77418761D01*
D13*
X44558333Y-74140904D02*
X44558333Y-73340904D01*
X44558333Y-73721857D02*
X44101190Y-73721857D01*
X44101190Y-74140904D02*
X44101190Y-73340904D01*
X43567857Y-73340904D02*
X43415476Y-73340904D01*
X43339285Y-73379000D01*
X43263095Y-73455190D01*
X43225000Y-73607571D01*
X43225000Y-73874238D01*
X43263095Y-74026619D01*
X43339285Y-74102809D01*
X43415476Y-74140904D01*
X43567857Y-74140904D01*
X43644047Y-74102809D01*
X43720238Y-74026619D01*
X43758333Y-73874238D01*
X43758333Y-73607571D01*
X43720238Y-73455190D01*
X43644047Y-73379000D01*
X43567857Y-73340904D01*
X42501190Y-74140904D02*
X42882142Y-74140904D01*
X42882142Y-73340904D01*
X42234523Y-73721857D02*
X41967857Y-73721857D01*
X41853571Y-74140904D02*
X42234523Y-74140904D01*
X42234523Y-73340904D01*
X41853571Y-73340904D01*
%TO.C,L15*%
D12*
X62747514Y-62139695D02*
X63134561Y-62139695D01*
X63134561Y-61326895D01*
X62050828Y-62139695D02*
X62515285Y-62139695D01*
X62283057Y-62139695D02*
X62283057Y-61326895D01*
X62360466Y-61443009D01*
X62437876Y-61520419D01*
X62515285Y-61559123D01*
X61315438Y-61326895D02*
X61702485Y-61326895D01*
X61741190Y-61713942D01*
X61702485Y-61675238D01*
X61625076Y-61636533D01*
X61431552Y-61636533D01*
X61354142Y-61675238D01*
X61315438Y-61713942D01*
X61276733Y-61791352D01*
X61276733Y-61984876D01*
X61315438Y-62062285D01*
X61354142Y-62100990D01*
X61431552Y-62139695D01*
X61625076Y-62139695D01*
X61702485Y-62100990D01*
X61741190Y-62062285D01*
D13*
X63558333Y-58590904D02*
X63558333Y-57790904D01*
X63558333Y-58171857D02*
X63101190Y-58171857D01*
X63101190Y-58590904D02*
X63101190Y-57790904D01*
X62567857Y-57790904D02*
X62415476Y-57790904D01*
X62339285Y-57829000D01*
X62263095Y-57905190D01*
X62225000Y-58057571D01*
X62225000Y-58324238D01*
X62263095Y-58476619D01*
X62339285Y-58552809D01*
X62415476Y-58590904D01*
X62567857Y-58590904D01*
X62644047Y-58552809D01*
X62720238Y-58476619D01*
X62758333Y-58324238D01*
X62758333Y-58057571D01*
X62720238Y-57905190D01*
X62644047Y-57829000D01*
X62567857Y-57790904D01*
X61501190Y-58590904D02*
X61882142Y-58590904D01*
X61882142Y-57790904D01*
X61234523Y-58171857D02*
X60967857Y-58171857D01*
X60853571Y-58590904D02*
X61234523Y-58590904D01*
X61234523Y-57790904D01*
X60853571Y-57790904D01*
%TO.C,L16*%
D12*
X81747514Y-59139695D02*
X82134561Y-59139695D01*
X82134561Y-58326895D01*
X81050828Y-59139695D02*
X81515285Y-59139695D01*
X81283057Y-59139695D02*
X81283057Y-58326895D01*
X81360466Y-58443009D01*
X81437876Y-58520419D01*
X81515285Y-58559123D01*
X80354142Y-58326895D02*
X80508961Y-58326895D01*
X80586371Y-58365600D01*
X80625076Y-58404304D01*
X80702485Y-58520419D01*
X80741190Y-58675238D01*
X80741190Y-58984876D01*
X80702485Y-59062285D01*
X80663780Y-59100990D01*
X80586371Y-59139695D01*
X80431552Y-59139695D01*
X80354142Y-59100990D01*
X80315438Y-59062285D01*
X80276733Y-58984876D01*
X80276733Y-58791352D01*
X80315438Y-58713942D01*
X80354142Y-58675238D01*
X80431552Y-58636533D01*
X80586371Y-58636533D01*
X80663780Y-58675238D01*
X80702485Y-58713942D01*
X80741190Y-58791352D01*
D13*
X82558333Y-55590904D02*
X82558333Y-54790904D01*
X82558333Y-55171857D02*
X82101190Y-55171857D01*
X82101190Y-55590904D02*
X82101190Y-54790904D01*
X81567857Y-54790904D02*
X81415476Y-54790904D01*
X81339285Y-54829000D01*
X81263095Y-54905190D01*
X81225000Y-55057571D01*
X81225000Y-55324238D01*
X81263095Y-55476619D01*
X81339285Y-55552809D01*
X81415476Y-55590904D01*
X81567857Y-55590904D01*
X81644047Y-55552809D01*
X81720238Y-55476619D01*
X81758333Y-55324238D01*
X81758333Y-55057571D01*
X81720238Y-54905190D01*
X81644047Y-54829000D01*
X81567857Y-54790904D01*
X80501190Y-55590904D02*
X80882142Y-55590904D01*
X80882142Y-54790904D01*
X80234523Y-55171857D02*
X79967857Y-55171857D01*
X79853571Y-55590904D02*
X80234523Y-55590904D01*
X80234523Y-54790904D01*
X79853571Y-54790904D01*
%TO.C,L17*%
D12*
X100747514Y-69139695D02*
X101134561Y-69139695D01*
X101134561Y-68326895D01*
X100050828Y-69139695D02*
X100515285Y-69139695D01*
X100283057Y-69139695D02*
X100283057Y-68326895D01*
X100360466Y-68443009D01*
X100437876Y-68520419D01*
X100515285Y-68559123D01*
X99779895Y-68326895D02*
X99238028Y-68326895D01*
X99586371Y-69139695D01*
D13*
X101558333Y-65590904D02*
X101558333Y-64790904D01*
X101558333Y-65171857D02*
X101101190Y-65171857D01*
X101101190Y-65590904D02*
X101101190Y-64790904D01*
X100567857Y-64790904D02*
X100415476Y-64790904D01*
X100339285Y-64829000D01*
X100263095Y-64905190D01*
X100225000Y-65057571D01*
X100225000Y-65324238D01*
X100263095Y-65476619D01*
X100339285Y-65552809D01*
X100415476Y-65590904D01*
X100567857Y-65590904D01*
X100644047Y-65552809D01*
X100720238Y-65476619D01*
X100758333Y-65324238D01*
X100758333Y-65057571D01*
X100720238Y-64905190D01*
X100644047Y-64829000D01*
X100567857Y-64790904D01*
X99501190Y-65590904D02*
X99882142Y-65590904D01*
X99882142Y-64790904D01*
X99234523Y-65171857D02*
X98967857Y-65171857D01*
X98853571Y-65590904D02*
X99234523Y-65590904D01*
X99234523Y-64790904D01*
X98853571Y-64790904D01*
%TO.C,L18*%
X120558333Y-67590904D02*
X120558333Y-66790904D01*
X120558333Y-67171857D02*
X120101190Y-67171857D01*
X120101190Y-67590904D02*
X120101190Y-66790904D01*
X119567857Y-66790904D02*
X119415476Y-66790904D01*
X119339285Y-66829000D01*
X119263095Y-66905190D01*
X119225000Y-67057571D01*
X119225000Y-67324238D01*
X119263095Y-67476619D01*
X119339285Y-67552809D01*
X119415476Y-67590904D01*
X119567857Y-67590904D01*
X119644047Y-67552809D01*
X119720238Y-67476619D01*
X119758333Y-67324238D01*
X119758333Y-67057571D01*
X119720238Y-66905190D01*
X119644047Y-66829000D01*
X119567857Y-66790904D01*
X118501190Y-67590904D02*
X118882142Y-67590904D01*
X118882142Y-66790904D01*
X118234523Y-67171857D02*
X117967857Y-67171857D01*
X117853571Y-67590904D02*
X118234523Y-67590904D01*
X118234523Y-66790904D01*
X117853571Y-66790904D01*
D12*
X119747514Y-71139695D02*
X120134561Y-71139695D01*
X120134561Y-70326895D01*
X119050828Y-71139695D02*
X119515285Y-71139695D01*
X119283057Y-71139695D02*
X119283057Y-70326895D01*
X119360466Y-70443009D01*
X119437876Y-70520419D01*
X119515285Y-70559123D01*
X118586371Y-70675238D02*
X118663780Y-70636533D01*
X118702485Y-70597828D01*
X118741190Y-70520419D01*
X118741190Y-70481714D01*
X118702485Y-70404304D01*
X118663780Y-70365600D01*
X118586371Y-70326895D01*
X118431552Y-70326895D01*
X118354142Y-70365600D01*
X118315438Y-70404304D01*
X118276733Y-70481714D01*
X118276733Y-70520419D01*
X118315438Y-70597828D01*
X118354142Y-70636533D01*
X118431552Y-70675238D01*
X118586371Y-70675238D01*
X118663780Y-70713942D01*
X118702485Y-70752647D01*
X118741190Y-70830057D01*
X118741190Y-70984876D01*
X118702485Y-71062285D01*
X118663780Y-71100990D01*
X118586371Y-71139695D01*
X118431552Y-71139695D01*
X118354142Y-71100990D01*
X118315438Y-71062285D01*
X118276733Y-70984876D01*
X118276733Y-70830057D01*
X118315438Y-70752647D01*
X118354142Y-70713942D01*
X118431552Y-70675238D01*
%TO.C,L19*%
X86360014Y-82586695D02*
X86747061Y-82586695D01*
X86747061Y-81773895D01*
X85663328Y-82586695D02*
X86127785Y-82586695D01*
X85895557Y-82586695D02*
X85895557Y-81773895D01*
X85972966Y-81890009D01*
X86050376Y-81967419D01*
X86127785Y-82006123D01*
X85276280Y-82586695D02*
X85121461Y-82586695D01*
X85044052Y-82547990D01*
X85005347Y-82509285D01*
X84927938Y-82393171D01*
X84889233Y-82238352D01*
X84889233Y-81928714D01*
X84927938Y-81851304D01*
X84966642Y-81812600D01*
X85044052Y-81773895D01*
X85198871Y-81773895D01*
X85276280Y-81812600D01*
X85314985Y-81851304D01*
X85353690Y-81928714D01*
X85353690Y-82122238D01*
X85314985Y-82199647D01*
X85276280Y-82238352D01*
X85198871Y-82277057D01*
X85044052Y-82277057D01*
X84966642Y-82238352D01*
X84927938Y-82199647D01*
X84889233Y-82122238D01*
D13*
X87170833Y-86123904D02*
X87170833Y-85323904D01*
X87170833Y-85704857D02*
X86713690Y-85704857D01*
X86713690Y-86123904D02*
X86713690Y-85323904D01*
X86180357Y-85323904D02*
X86027976Y-85323904D01*
X85951785Y-85362000D01*
X85875595Y-85438190D01*
X85837500Y-85590571D01*
X85837500Y-85857238D01*
X85875595Y-86009619D01*
X85951785Y-86085809D01*
X86027976Y-86123904D01*
X86180357Y-86123904D01*
X86256547Y-86085809D01*
X86332738Y-86009619D01*
X86370833Y-85857238D01*
X86370833Y-85590571D01*
X86332738Y-85438190D01*
X86256547Y-85362000D01*
X86180357Y-85323904D01*
X85113690Y-86123904D02*
X85494642Y-86123904D01*
X85494642Y-85323904D01*
X84847023Y-85704857D02*
X84580357Y-85704857D01*
X84466071Y-86123904D02*
X84847023Y-86123904D01*
X84847023Y-85323904D01*
X84466071Y-85323904D01*
%TO.C,L20*%
D12*
X105360014Y-84586695D02*
X105747061Y-84586695D01*
X105747061Y-83773895D01*
X105127785Y-83851304D02*
X105089080Y-83812600D01*
X105011671Y-83773895D01*
X104818147Y-83773895D01*
X104740738Y-83812600D01*
X104702033Y-83851304D01*
X104663328Y-83928714D01*
X104663328Y-84006123D01*
X104702033Y-84122238D01*
X105166490Y-84586695D01*
X104663328Y-84586695D01*
X104160166Y-83773895D02*
X104082757Y-83773895D01*
X104005347Y-83812600D01*
X103966642Y-83851304D01*
X103927938Y-83928714D01*
X103889233Y-84083533D01*
X103889233Y-84277057D01*
X103927938Y-84431876D01*
X103966642Y-84509285D01*
X104005347Y-84547990D01*
X104082757Y-84586695D01*
X104160166Y-84586695D01*
X104237576Y-84547990D01*
X104276280Y-84509285D01*
X104314985Y-84431876D01*
X104353690Y-84277057D01*
X104353690Y-84083533D01*
X104314985Y-83928714D01*
X104276280Y-83851304D01*
X104237576Y-83812600D01*
X104160166Y-83773895D01*
D13*
X106170833Y-88123904D02*
X106170833Y-87323904D01*
X106170833Y-87704857D02*
X105713690Y-87704857D01*
X105713690Y-88123904D02*
X105713690Y-87323904D01*
X105180357Y-87323904D02*
X105027976Y-87323904D01*
X104951785Y-87362000D01*
X104875595Y-87438190D01*
X104837500Y-87590571D01*
X104837500Y-87857238D01*
X104875595Y-88009619D01*
X104951785Y-88085809D01*
X105027976Y-88123904D01*
X105180357Y-88123904D01*
X105256547Y-88085809D01*
X105332738Y-88009619D01*
X105370833Y-87857238D01*
X105370833Y-87590571D01*
X105332738Y-87438190D01*
X105256547Y-87362000D01*
X105180357Y-87323904D01*
X104113690Y-88123904D02*
X104494642Y-88123904D01*
X104494642Y-87323904D01*
X103847023Y-87704857D02*
X103580357Y-87704857D01*
X103466071Y-88123904D02*
X103847023Y-88123904D01*
X103847023Y-87323904D01*
X103466071Y-87323904D01*
%TO.C,L21*%
D12*
X125742146Y-95959895D02*
X126123314Y-96027105D01*
X126264455Y-95226654D01*
X125641145Y-95195351D02*
X125609749Y-95150513D01*
X125540237Y-95098954D01*
X125349653Y-95065349D01*
X125266698Y-95090024D01*
X125221860Y-95121420D01*
X125170302Y-95190932D01*
X125156860Y-95267166D01*
X125174813Y-95388237D01*
X125551562Y-95926290D01*
X125056045Y-95838917D01*
X124293710Y-95704497D02*
X124751111Y-95785149D01*
X124522410Y-95744823D02*
X124663551Y-94944371D01*
X124719622Y-95072163D01*
X124782413Y-95161839D01*
X124851926Y-95213398D01*
D13*
X125926416Y-99584164D02*
X126065335Y-98796318D01*
X125999183Y-99171483D02*
X125548985Y-99092101D01*
X125476219Y-99504782D02*
X125615137Y-98716936D01*
X125089906Y-98624323D02*
X124939840Y-98597863D01*
X124858192Y-98622149D01*
X124769929Y-98683952D01*
X124705952Y-98827402D01*
X124659646Y-99090018D01*
X124670701Y-99246699D01*
X124732504Y-99334962D01*
X124800922Y-99385709D01*
X124950988Y-99412170D01*
X125032636Y-99387883D01*
X125120899Y-99326081D01*
X125184876Y-99182630D01*
X125231183Y-98920015D01*
X125220127Y-98763334D01*
X125158324Y-98675070D01*
X125089906Y-98624323D01*
X123900526Y-99226945D02*
X124275691Y-99293097D01*
X124414610Y-98505250D01*
X123710678Y-98767957D02*
X123448062Y-98721651D01*
X123262746Y-99114487D02*
X123637911Y-99180639D01*
X123776829Y-98392793D01*
X123401664Y-98326641D01*
%TO.C,L22*%
D12*
X144683642Y-99414092D02*
X145064810Y-99481302D01*
X145205951Y-98680851D01*
X144582641Y-98649548D02*
X144551245Y-98604710D01*
X144481733Y-98553151D01*
X144291149Y-98519546D01*
X144208194Y-98544221D01*
X144163356Y-98575617D01*
X144111798Y-98645129D01*
X144098356Y-98721363D01*
X144116309Y-98842434D01*
X144493058Y-99380487D01*
X143997541Y-99293114D01*
X143820306Y-98515128D02*
X143788910Y-98470290D01*
X143719398Y-98418731D01*
X143528814Y-98385126D01*
X143445859Y-98409801D01*
X143401021Y-98441197D01*
X143349463Y-98510709D01*
X143336021Y-98586943D01*
X143353974Y-98708014D01*
X143730723Y-99246067D01*
X143235206Y-99158694D01*
D13*
X144867912Y-103038361D02*
X145006831Y-102250515D01*
X144940679Y-102625680D02*
X144490481Y-102546298D01*
X144417715Y-102958979D02*
X144556633Y-102171133D01*
X144031402Y-102078520D02*
X143881336Y-102052060D01*
X143799688Y-102076346D01*
X143711425Y-102138149D01*
X143647448Y-102281599D01*
X143601142Y-102544215D01*
X143612197Y-102700896D01*
X143674000Y-102789159D01*
X143742418Y-102839906D01*
X143892484Y-102866367D01*
X143974132Y-102842080D01*
X144062395Y-102780278D01*
X144126372Y-102636827D01*
X144172679Y-102374212D01*
X144161623Y-102217531D01*
X144099820Y-102129267D01*
X144031402Y-102078520D01*
X142842022Y-102681142D02*
X143217187Y-102747294D01*
X143356106Y-101959447D01*
X142652174Y-102222154D02*
X142389558Y-102175848D01*
X142204242Y-102568684D02*
X142579407Y-102634836D01*
X142718325Y-101846990D01*
X142343160Y-101780838D01*
%TO.C,L23*%
D12*
X158281592Y-114012189D02*
X158348802Y-113631021D01*
X157548351Y-113489880D01*
X157517048Y-114113190D02*
X157472210Y-114144586D01*
X157420651Y-114214098D01*
X157387046Y-114404682D01*
X157411721Y-114487637D01*
X157443117Y-114532475D01*
X157512629Y-114584033D01*
X157588863Y-114597475D01*
X157709934Y-114579522D01*
X158247987Y-114202773D01*
X158160614Y-114698290D01*
X157313115Y-114823966D02*
X157225742Y-115319484D01*
X157577723Y-115106435D01*
X157557560Y-115220785D01*
X157582235Y-115303740D01*
X157613631Y-115348578D01*
X157683143Y-115400136D01*
X157873727Y-115433741D01*
X157956681Y-115409067D01*
X158001519Y-115377671D01*
X158053078Y-115308158D01*
X158093404Y-115079458D01*
X158068729Y-114996503D01*
X158037333Y-114951666D01*
D13*
X154927513Y-112597447D02*
X154139667Y-112458528D01*
X154514832Y-112524680D02*
X154435450Y-112974878D01*
X154848131Y-113047644D02*
X154060285Y-112908726D01*
X153967672Y-113433957D02*
X153941212Y-113584023D01*
X153965498Y-113665671D01*
X154027301Y-113753934D01*
X154170751Y-113817911D01*
X154433367Y-113864217D01*
X154590048Y-113853162D01*
X154678311Y-113791359D01*
X154729058Y-113722941D01*
X154755519Y-113572875D01*
X154731232Y-113491227D01*
X154669430Y-113402964D01*
X154525979Y-113338987D01*
X154263364Y-113292680D01*
X154106683Y-113303736D01*
X154018419Y-113365539D01*
X153967672Y-113433957D01*
X154570294Y-114623337D02*
X154636446Y-114248172D01*
X153848599Y-114109253D01*
X154111306Y-114813185D02*
X154065000Y-115075801D01*
X154457836Y-115261117D02*
X154523988Y-114885952D01*
X153736142Y-114747034D01*
X153669990Y-115122199D01*
%TD*%
M02*
