%TF.GenerationSoftware,KiCad,Pcbnew,5.1.9*%
%TF.CreationDate,2021-05-15T18:24:56-05:00*%
%TF.ProjectId,nightwing,6e696768-7477-4696-9e67-2e6b69636164,rev?*%
%TF.SameCoordinates,Original*%
%TF.FileFunction,Other,Fab,Bot*%
%FSLAX46Y46*%
G04 Gerber Fmt 4.6, Leading zero omitted, Abs format (unit mm)*
G04 Created by KiCad (PCBNEW 5.1.9) date 2021-05-15 18:24:56*
%MOMM*%
%LPD*%
G01*
G04 APERTURE LIST*
%ADD10C,0.100000*%
%ADD11C,0.150000*%
G04 APERTURE END LIST*
D10*
%TO.C,RESET_SW1*%
X131010000Y-59210000D02*
X131010000Y-53210000D01*
X137010000Y-53210000D02*
X137010000Y-59210000D01*
X137010000Y-59210000D02*
X131010000Y-59210000D01*
X131010000Y-53210000D02*
X137010000Y-53210000D01*
X135760714Y-56210000D02*
G75*
G03*
X135760714Y-56210000I-1750714J0D01*
G01*
%TO.C,J1*%
X31531484Y-13966582D02*
X30515520Y-6737625D01*
X30515520Y-6737625D02*
X39368516Y-5493418D01*
X40384480Y-12722375D02*
X39368516Y-5493418D01*
%TO.C,L39*%
X134498592Y-18968521D02*
X134498592Y-23968521D01*
X134498592Y-23968521D02*
X129498592Y-23968521D01*
X129498592Y-18968521D02*
X134498592Y-18968521D01*
X129498592Y-23968521D02*
X129498592Y-18968521D01*
X133998592Y-21468521D02*
G75*
G03*
X133998592Y-21468521I-2000000J0D01*
G01*
X134498592Y-19968521D02*
X133498592Y-18968521D01*
%TO.C,L38*%
X152930000Y-37560000D02*
X152930000Y-42560000D01*
X152930000Y-42560000D02*
X147930000Y-42560000D01*
X147930000Y-37560000D02*
X152930000Y-37560000D01*
X147930000Y-42560000D02*
X147930000Y-37560000D01*
X152430000Y-40060000D02*
G75*
G03*
X152430000Y-40060000I-2000000J0D01*
G01*
X152930000Y-38560000D02*
X151930000Y-37560000D01*
%TO.C,L37*%
X148260000Y-88100000D02*
X148260000Y-83100000D01*
X148260000Y-83100000D02*
X153260000Y-83100000D01*
X153260000Y-88100000D02*
X148260000Y-88100000D01*
X153260000Y-83100000D02*
X153260000Y-88100000D01*
X152760000Y-85600000D02*
G75*
G03*
X152760000Y-85600000I-2000000J0D01*
G01*
X148260000Y-87100000D02*
X149260000Y-88100000D01*
%TO.C,L36*%
X123551103Y-113095873D02*
X122682862Y-118019912D01*
X122682862Y-118019912D02*
X117758823Y-117151671D01*
X118627064Y-112227632D02*
X123551103Y-113095873D01*
X117758823Y-117151671D02*
X118627064Y-112227632D01*
X122654963Y-115123772D02*
G75*
G03*
X122654963Y-115123772I-2000000J0D01*
G01*
X123377455Y-114080681D02*
X122566295Y-112922225D01*
%TO.C,L35*%
X65874324Y-93967721D02*
X65874324Y-98967721D01*
X65874324Y-98967721D02*
X60874324Y-98967721D01*
X60874324Y-93967721D02*
X65874324Y-93967721D01*
X60874324Y-98967721D02*
X60874324Y-93967721D01*
X65374324Y-96467721D02*
G75*
G03*
X65374324Y-96467721I-2000000J0D01*
G01*
X65874324Y-94967721D02*
X64874324Y-93967721D01*
%TO.C,L34*%
X25468505Y-69030487D02*
X25468505Y-74030487D01*
X25468505Y-74030487D02*
X20468505Y-74030487D01*
X20468505Y-69030487D02*
X25468505Y-69030487D01*
X20468505Y-74030487D02*
X20468505Y-69030487D01*
X24968505Y-71530487D02*
G75*
G03*
X24968505Y-71530487I-2000000J0D01*
G01*
X25468505Y-70030487D02*
X24468505Y-69030487D01*
%TO.C,L33*%
X22374788Y-28437170D02*
X22374788Y-33437170D01*
X22374788Y-33437170D02*
X17374788Y-33437170D01*
X17374788Y-28437170D02*
X22374788Y-28437170D01*
X17374788Y-33437170D02*
X17374788Y-28437170D01*
X21874788Y-30937170D02*
G75*
G03*
X21874788Y-30937170I-2000000J0D01*
G01*
X22374788Y-29437170D02*
X21374788Y-28437170D01*
%TO.C,L32*%
X18385000Y-21858641D02*
X23385000Y-21858641D01*
X22885000Y-24358641D02*
G75*
G03*
X22885000Y-24358641I-2000000J0D01*
G01*
X23385000Y-26858641D02*
X18385000Y-26858641D01*
X23385000Y-22858641D02*
X22385000Y-21858641D01*
X18385000Y-26858641D02*
X18385000Y-21858641D01*
X23385000Y-21858641D02*
X23385000Y-26858641D01*
%TO.C,L31*%
X31055000Y-17858641D02*
X36055000Y-17858641D01*
X35555000Y-20358641D02*
G75*
G03*
X35555000Y-20358641I-2000000J0D01*
G01*
X36055000Y-22858641D02*
X31055000Y-22858641D01*
X36055000Y-18858641D02*
X35055000Y-17858641D01*
X31055000Y-22858641D02*
X31055000Y-17858641D01*
X36055000Y-17858641D02*
X36055000Y-22858641D01*
%TO.C,L30*%
X43725000Y-14358641D02*
X48725000Y-14358641D01*
X48225000Y-16858641D02*
G75*
G03*
X48225000Y-16858641I-2000000J0D01*
G01*
X48725000Y-19358641D02*
X43725000Y-19358641D01*
X48725000Y-15358641D02*
X47725000Y-14358641D01*
X43725000Y-19358641D02*
X43725000Y-14358641D01*
X48725000Y-14358641D02*
X48725000Y-19358641D01*
%TO.C,L29*%
X56385000Y-9258641D02*
X61385000Y-9258641D01*
X60885000Y-11758641D02*
G75*
G03*
X60885000Y-11758641I-2000000J0D01*
G01*
X61385000Y-14258641D02*
X56385000Y-14258641D01*
X61385000Y-10258641D02*
X60385000Y-9258641D01*
X56385000Y-14258641D02*
X56385000Y-9258641D01*
X61385000Y-9258641D02*
X61385000Y-14258641D01*
%TO.C,L28*%
X69055000Y-7530000D02*
X74055000Y-7530000D01*
X73555000Y-10030000D02*
G75*
G03*
X73555000Y-10030000I-2000000J0D01*
G01*
X74055000Y-12530000D02*
X69055000Y-12530000D01*
X74055000Y-8530000D02*
X73055000Y-7530000D01*
X69055000Y-12530000D02*
X69055000Y-7530000D01*
X74055000Y-7530000D02*
X74055000Y-12530000D01*
%TO.C,L27*%
X81725000Y-7870000D02*
X86725000Y-7870000D01*
X86225000Y-10370000D02*
G75*
G03*
X86225000Y-10370000I-2000000J0D01*
G01*
X86725000Y-12870000D02*
X81725000Y-12870000D01*
X86725000Y-8870000D02*
X85725000Y-7870000D01*
X81725000Y-12870000D02*
X81725000Y-7870000D01*
X86725000Y-7870000D02*
X86725000Y-12870000D01*
%TO.C,L26*%
X94385000Y-11500000D02*
X99385000Y-11500000D01*
X98885000Y-14000000D02*
G75*
G03*
X98885000Y-14000000I-2000000J0D01*
G01*
X99385000Y-16500000D02*
X94385000Y-16500000D01*
X99385000Y-12500000D02*
X98385000Y-11500000D01*
X94385000Y-16500000D02*
X94385000Y-11500000D01*
X99385000Y-11500000D02*
X99385000Y-16500000D01*
%TO.C,L25*%
X107055000Y-13500000D02*
X112055000Y-13500000D01*
X111555000Y-16000000D02*
G75*
G03*
X111555000Y-16000000I-2000000J0D01*
G01*
X112055000Y-18500000D02*
X107055000Y-18500000D01*
X112055000Y-14500000D02*
X111055000Y-13500000D01*
X107055000Y-18500000D02*
X107055000Y-13500000D01*
X112055000Y-13500000D02*
X112055000Y-18500000D01*
%TO.C,L24*%
X119725000Y-15000000D02*
X124725000Y-15000000D01*
X124225000Y-17500000D02*
G75*
G03*
X124225000Y-17500000I-2000000J0D01*
G01*
X124725000Y-20000000D02*
X119725000Y-20000000D01*
X124725000Y-16000000D02*
X123725000Y-15000000D01*
X119725000Y-20000000D02*
X119725000Y-15000000D01*
X124725000Y-15000000D02*
X124725000Y-20000000D01*
%TO.C,J2*%
X160993572Y-96754839D02*
X169797754Y-98307254D01*
X160993572Y-96754839D02*
X162261204Y-89565742D01*
X162261204Y-89565742D02*
X171065386Y-91118157D01*
X169797754Y-98307254D02*
X171065386Y-91118157D01*
%TD*%
%TO.C,L39*%
D11*
X132512877Y-21830425D02*
X132893830Y-21830425D01*
X132893830Y-21030425D01*
X132322401Y-21030425D02*
X131827163Y-21030425D01*
X132093830Y-21335187D01*
X131979544Y-21335187D01*
X131903353Y-21373282D01*
X131865258Y-21411378D01*
X131827163Y-21487568D01*
X131827163Y-21678044D01*
X131865258Y-21754235D01*
X131903353Y-21792330D01*
X131979544Y-21830425D01*
X132208115Y-21830425D01*
X132284306Y-21792330D01*
X132322401Y-21754235D01*
X131446211Y-21830425D02*
X131293830Y-21830425D01*
X131217639Y-21792330D01*
X131179544Y-21754235D01*
X131103353Y-21639949D01*
X131065258Y-21487568D01*
X131065258Y-21182806D01*
X131103353Y-21106616D01*
X131141449Y-21068521D01*
X131217639Y-21030425D01*
X131370020Y-21030425D01*
X131446211Y-21068521D01*
X131484306Y-21106616D01*
X131522401Y-21182806D01*
X131522401Y-21373282D01*
X131484306Y-21449473D01*
X131446211Y-21487568D01*
X131370020Y-21525663D01*
X131217639Y-21525663D01*
X131141449Y-21487568D01*
X131103353Y-21449473D01*
X131065258Y-21373282D01*
%TO.C,L38*%
X150944285Y-40421904D02*
X151325238Y-40421904D01*
X151325238Y-39621904D01*
X150753809Y-39621904D02*
X150258571Y-39621904D01*
X150525238Y-39926666D01*
X150410952Y-39926666D01*
X150334761Y-39964761D01*
X150296666Y-40002857D01*
X150258571Y-40079047D01*
X150258571Y-40269523D01*
X150296666Y-40345714D01*
X150334761Y-40383809D01*
X150410952Y-40421904D01*
X150639523Y-40421904D01*
X150715714Y-40383809D01*
X150753809Y-40345714D01*
X149801428Y-39964761D02*
X149877619Y-39926666D01*
X149915714Y-39888571D01*
X149953809Y-39812380D01*
X149953809Y-39774285D01*
X149915714Y-39698095D01*
X149877619Y-39660000D01*
X149801428Y-39621904D01*
X149649047Y-39621904D01*
X149572857Y-39660000D01*
X149534761Y-39698095D01*
X149496666Y-39774285D01*
X149496666Y-39812380D01*
X149534761Y-39888571D01*
X149572857Y-39926666D01*
X149649047Y-39964761D01*
X149801428Y-39964761D01*
X149877619Y-40002857D01*
X149915714Y-40040952D01*
X149953809Y-40117142D01*
X149953809Y-40269523D01*
X149915714Y-40345714D01*
X149877619Y-40383809D01*
X149801428Y-40421904D01*
X149649047Y-40421904D01*
X149572857Y-40383809D01*
X149534761Y-40345714D01*
X149496666Y-40269523D01*
X149496666Y-40117142D01*
X149534761Y-40040952D01*
X149572857Y-40002857D01*
X149649047Y-39964761D01*
%TO.C,L37*%
X151274285Y-85961904D02*
X151655238Y-85961904D01*
X151655238Y-85161904D01*
X151083809Y-85161904D02*
X150588571Y-85161904D01*
X150855238Y-85466666D01*
X150740952Y-85466666D01*
X150664761Y-85504761D01*
X150626666Y-85542857D01*
X150588571Y-85619047D01*
X150588571Y-85809523D01*
X150626666Y-85885714D01*
X150664761Y-85923809D01*
X150740952Y-85961904D01*
X150969523Y-85961904D01*
X151045714Y-85923809D01*
X151083809Y-85885714D01*
X150321904Y-85161904D02*
X149788571Y-85161904D01*
X150131428Y-85961904D01*
%TO.C,L36*%
X121098591Y-115569483D02*
X121473756Y-115635635D01*
X121612674Y-114847788D01*
X121049927Y-114748561D02*
X120562213Y-114662564D01*
X120771907Y-115009002D01*
X120659357Y-114989156D01*
X120577709Y-115013442D01*
X120533578Y-115044344D01*
X120482831Y-115112761D01*
X120449755Y-115300344D01*
X120474041Y-115381992D01*
X120504942Y-115426124D01*
X120573360Y-115476871D01*
X120798459Y-115516562D01*
X120880107Y-115492275D01*
X120924239Y-115461374D01*
X119886916Y-114543491D02*
X120036982Y-114569951D01*
X120105400Y-114620698D01*
X120136301Y-114664830D01*
X120191489Y-114790610D01*
X120202544Y-114947291D01*
X120149623Y-115247423D01*
X120098876Y-115315840D01*
X120054745Y-115346742D01*
X119973096Y-115371028D01*
X119823030Y-115344567D01*
X119754613Y-115293820D01*
X119723711Y-115249689D01*
X119699425Y-115168041D01*
X119732501Y-114980458D01*
X119783248Y-114912040D01*
X119827379Y-114881139D01*
X119909028Y-114856853D01*
X120059094Y-114883314D01*
X120127511Y-114934060D01*
X120158413Y-114978192D01*
X120182699Y-115059840D01*
%TO.C,L35*%
X63888609Y-96829625D02*
X64269562Y-96829625D01*
X64269562Y-96029625D01*
X63698133Y-96029625D02*
X63202895Y-96029625D01*
X63469562Y-96334387D01*
X63355276Y-96334387D01*
X63279085Y-96372482D01*
X63240990Y-96410578D01*
X63202895Y-96486768D01*
X63202895Y-96677244D01*
X63240990Y-96753435D01*
X63279085Y-96791530D01*
X63355276Y-96829625D01*
X63583847Y-96829625D01*
X63660038Y-96791530D01*
X63698133Y-96753435D01*
X62479085Y-96029625D02*
X62860038Y-96029625D01*
X62898133Y-96410578D01*
X62860038Y-96372482D01*
X62783847Y-96334387D01*
X62593371Y-96334387D01*
X62517181Y-96372482D01*
X62479085Y-96410578D01*
X62440990Y-96486768D01*
X62440990Y-96677244D01*
X62479085Y-96753435D01*
X62517181Y-96791530D01*
X62593371Y-96829625D01*
X62783847Y-96829625D01*
X62860038Y-96791530D01*
X62898133Y-96753435D01*
%TO.C,L34*%
X23482790Y-71892391D02*
X23863743Y-71892391D01*
X23863743Y-71092391D01*
X23292314Y-71092391D02*
X22797076Y-71092391D01*
X23063743Y-71397153D01*
X22949457Y-71397153D01*
X22873266Y-71435248D01*
X22835171Y-71473344D01*
X22797076Y-71549534D01*
X22797076Y-71740010D01*
X22835171Y-71816201D01*
X22873266Y-71854296D01*
X22949457Y-71892391D01*
X23178028Y-71892391D01*
X23254219Y-71854296D01*
X23292314Y-71816201D01*
X22111362Y-71359058D02*
X22111362Y-71892391D01*
X22301838Y-71054296D02*
X22492314Y-71625725D01*
X21997076Y-71625725D01*
%TO.C,L33*%
X20389073Y-31299074D02*
X20770026Y-31299074D01*
X20770026Y-30499074D01*
X20198597Y-30499074D02*
X19703359Y-30499074D01*
X19970026Y-30803836D01*
X19855740Y-30803836D01*
X19779549Y-30841931D01*
X19741454Y-30880027D01*
X19703359Y-30956217D01*
X19703359Y-31146693D01*
X19741454Y-31222884D01*
X19779549Y-31260979D01*
X19855740Y-31299074D01*
X20084311Y-31299074D01*
X20160502Y-31260979D01*
X20198597Y-31222884D01*
X19436692Y-30499074D02*
X18941454Y-30499074D01*
X19208121Y-30803836D01*
X19093835Y-30803836D01*
X19017645Y-30841931D01*
X18979549Y-30880027D01*
X18941454Y-30956217D01*
X18941454Y-31146693D01*
X18979549Y-31222884D01*
X19017645Y-31260979D01*
X19093835Y-31299074D01*
X19322407Y-31299074D01*
X19398597Y-31260979D01*
X19436692Y-31222884D01*
%TO.C,L32*%
X21399285Y-24720545D02*
X21780238Y-24720545D01*
X21780238Y-23920545D01*
X21208809Y-23920545D02*
X20713571Y-23920545D01*
X20980238Y-24225307D01*
X20865952Y-24225307D01*
X20789761Y-24263402D01*
X20751666Y-24301498D01*
X20713571Y-24377688D01*
X20713571Y-24568164D01*
X20751666Y-24644355D01*
X20789761Y-24682450D01*
X20865952Y-24720545D01*
X21094523Y-24720545D01*
X21170714Y-24682450D01*
X21208809Y-24644355D01*
X20408809Y-23996736D02*
X20370714Y-23958641D01*
X20294523Y-23920545D01*
X20104047Y-23920545D01*
X20027857Y-23958641D01*
X19989761Y-23996736D01*
X19951666Y-24072926D01*
X19951666Y-24149117D01*
X19989761Y-24263402D01*
X20446904Y-24720545D01*
X19951666Y-24720545D01*
%TO.C,L31*%
X34069285Y-20720545D02*
X34450238Y-20720545D01*
X34450238Y-19920545D01*
X33878809Y-19920545D02*
X33383571Y-19920545D01*
X33650238Y-20225307D01*
X33535952Y-20225307D01*
X33459761Y-20263402D01*
X33421666Y-20301498D01*
X33383571Y-20377688D01*
X33383571Y-20568164D01*
X33421666Y-20644355D01*
X33459761Y-20682450D01*
X33535952Y-20720545D01*
X33764523Y-20720545D01*
X33840714Y-20682450D01*
X33878809Y-20644355D01*
X32621666Y-20720545D02*
X33078809Y-20720545D01*
X32850238Y-20720545D02*
X32850238Y-19920545D01*
X32926428Y-20034831D01*
X33002619Y-20111021D01*
X33078809Y-20149117D01*
%TO.C,L30*%
X46739285Y-17220545D02*
X47120238Y-17220545D01*
X47120238Y-16420545D01*
X46548809Y-16420545D02*
X46053571Y-16420545D01*
X46320238Y-16725307D01*
X46205952Y-16725307D01*
X46129761Y-16763402D01*
X46091666Y-16801498D01*
X46053571Y-16877688D01*
X46053571Y-17068164D01*
X46091666Y-17144355D01*
X46129761Y-17182450D01*
X46205952Y-17220545D01*
X46434523Y-17220545D01*
X46510714Y-17182450D01*
X46548809Y-17144355D01*
X45558333Y-16420545D02*
X45482142Y-16420545D01*
X45405952Y-16458641D01*
X45367857Y-16496736D01*
X45329761Y-16572926D01*
X45291666Y-16725307D01*
X45291666Y-16915783D01*
X45329761Y-17068164D01*
X45367857Y-17144355D01*
X45405952Y-17182450D01*
X45482142Y-17220545D01*
X45558333Y-17220545D01*
X45634523Y-17182450D01*
X45672619Y-17144355D01*
X45710714Y-17068164D01*
X45748809Y-16915783D01*
X45748809Y-16725307D01*
X45710714Y-16572926D01*
X45672619Y-16496736D01*
X45634523Y-16458641D01*
X45558333Y-16420545D01*
%TO.C,L29*%
X59399285Y-12120545D02*
X59780238Y-12120545D01*
X59780238Y-11320545D01*
X59170714Y-11396736D02*
X59132619Y-11358641D01*
X59056428Y-11320545D01*
X58865952Y-11320545D01*
X58789761Y-11358641D01*
X58751666Y-11396736D01*
X58713571Y-11472926D01*
X58713571Y-11549117D01*
X58751666Y-11663402D01*
X59208809Y-12120545D01*
X58713571Y-12120545D01*
X58332619Y-12120545D02*
X58180238Y-12120545D01*
X58104047Y-12082450D01*
X58065952Y-12044355D01*
X57989761Y-11930069D01*
X57951666Y-11777688D01*
X57951666Y-11472926D01*
X57989761Y-11396736D01*
X58027857Y-11358641D01*
X58104047Y-11320545D01*
X58256428Y-11320545D01*
X58332619Y-11358641D01*
X58370714Y-11396736D01*
X58408809Y-11472926D01*
X58408809Y-11663402D01*
X58370714Y-11739593D01*
X58332619Y-11777688D01*
X58256428Y-11815783D01*
X58104047Y-11815783D01*
X58027857Y-11777688D01*
X57989761Y-11739593D01*
X57951666Y-11663402D01*
%TO.C,L28*%
X72069285Y-10391904D02*
X72450238Y-10391904D01*
X72450238Y-9591904D01*
X71840714Y-9668095D02*
X71802619Y-9630000D01*
X71726428Y-9591904D01*
X71535952Y-9591904D01*
X71459761Y-9630000D01*
X71421666Y-9668095D01*
X71383571Y-9744285D01*
X71383571Y-9820476D01*
X71421666Y-9934761D01*
X71878809Y-10391904D01*
X71383571Y-10391904D01*
X70926428Y-9934761D02*
X71002619Y-9896666D01*
X71040714Y-9858571D01*
X71078809Y-9782380D01*
X71078809Y-9744285D01*
X71040714Y-9668095D01*
X71002619Y-9630000D01*
X70926428Y-9591904D01*
X70774047Y-9591904D01*
X70697857Y-9630000D01*
X70659761Y-9668095D01*
X70621666Y-9744285D01*
X70621666Y-9782380D01*
X70659761Y-9858571D01*
X70697857Y-9896666D01*
X70774047Y-9934761D01*
X70926428Y-9934761D01*
X71002619Y-9972857D01*
X71040714Y-10010952D01*
X71078809Y-10087142D01*
X71078809Y-10239523D01*
X71040714Y-10315714D01*
X71002619Y-10353809D01*
X70926428Y-10391904D01*
X70774047Y-10391904D01*
X70697857Y-10353809D01*
X70659761Y-10315714D01*
X70621666Y-10239523D01*
X70621666Y-10087142D01*
X70659761Y-10010952D01*
X70697857Y-9972857D01*
X70774047Y-9934761D01*
%TO.C,L27*%
X84739285Y-10731904D02*
X85120238Y-10731904D01*
X85120238Y-9931904D01*
X84510714Y-10008095D02*
X84472619Y-9970000D01*
X84396428Y-9931904D01*
X84205952Y-9931904D01*
X84129761Y-9970000D01*
X84091666Y-10008095D01*
X84053571Y-10084285D01*
X84053571Y-10160476D01*
X84091666Y-10274761D01*
X84548809Y-10731904D01*
X84053571Y-10731904D01*
X83786904Y-9931904D02*
X83253571Y-9931904D01*
X83596428Y-10731904D01*
%TO.C,L26*%
X97399285Y-14361904D02*
X97780238Y-14361904D01*
X97780238Y-13561904D01*
X97170714Y-13638095D02*
X97132619Y-13600000D01*
X97056428Y-13561904D01*
X96865952Y-13561904D01*
X96789761Y-13600000D01*
X96751666Y-13638095D01*
X96713571Y-13714285D01*
X96713571Y-13790476D01*
X96751666Y-13904761D01*
X97208809Y-14361904D01*
X96713571Y-14361904D01*
X96027857Y-13561904D02*
X96180238Y-13561904D01*
X96256428Y-13600000D01*
X96294523Y-13638095D01*
X96370714Y-13752380D01*
X96408809Y-13904761D01*
X96408809Y-14209523D01*
X96370714Y-14285714D01*
X96332619Y-14323809D01*
X96256428Y-14361904D01*
X96104047Y-14361904D01*
X96027857Y-14323809D01*
X95989761Y-14285714D01*
X95951666Y-14209523D01*
X95951666Y-14019047D01*
X95989761Y-13942857D01*
X96027857Y-13904761D01*
X96104047Y-13866666D01*
X96256428Y-13866666D01*
X96332619Y-13904761D01*
X96370714Y-13942857D01*
X96408809Y-14019047D01*
%TO.C,L25*%
X110069285Y-16361904D02*
X110450238Y-16361904D01*
X110450238Y-15561904D01*
X109840714Y-15638095D02*
X109802619Y-15600000D01*
X109726428Y-15561904D01*
X109535952Y-15561904D01*
X109459761Y-15600000D01*
X109421666Y-15638095D01*
X109383571Y-15714285D01*
X109383571Y-15790476D01*
X109421666Y-15904761D01*
X109878809Y-16361904D01*
X109383571Y-16361904D01*
X108659761Y-15561904D02*
X109040714Y-15561904D01*
X109078809Y-15942857D01*
X109040714Y-15904761D01*
X108964523Y-15866666D01*
X108774047Y-15866666D01*
X108697857Y-15904761D01*
X108659761Y-15942857D01*
X108621666Y-16019047D01*
X108621666Y-16209523D01*
X108659761Y-16285714D01*
X108697857Y-16323809D01*
X108774047Y-16361904D01*
X108964523Y-16361904D01*
X109040714Y-16323809D01*
X109078809Y-16285714D01*
%TO.C,L24*%
X122739285Y-17861904D02*
X123120238Y-17861904D01*
X123120238Y-17061904D01*
X122510714Y-17138095D02*
X122472619Y-17100000D01*
X122396428Y-17061904D01*
X122205952Y-17061904D01*
X122129761Y-17100000D01*
X122091666Y-17138095D01*
X122053571Y-17214285D01*
X122053571Y-17290476D01*
X122091666Y-17404761D01*
X122548809Y-17861904D01*
X122053571Y-17861904D01*
X121367857Y-17328571D02*
X121367857Y-17861904D01*
X121558333Y-17023809D02*
X121748809Y-17595238D01*
X121253571Y-17595238D01*
%TO.C,BZ1*%
X66676803Y-79236679D02*
X66533946Y-79284298D01*
X66486327Y-79331917D01*
X66438708Y-79427155D01*
X66438708Y-79570012D01*
X66486327Y-79665250D01*
X66533946Y-79712869D01*
X66629184Y-79760488D01*
X67010136Y-79760488D01*
X67010136Y-78760488D01*
X66676803Y-78760488D01*
X66581565Y-78808108D01*
X66533946Y-78855727D01*
X66486327Y-78950965D01*
X66486327Y-79046203D01*
X66533946Y-79141441D01*
X66581565Y-79189060D01*
X66676803Y-79236679D01*
X67010136Y-79236679D01*
X65581565Y-79093822D02*
X65581565Y-79760488D01*
X66010136Y-79093822D02*
X66010136Y-79617631D01*
X65962517Y-79712869D01*
X65867279Y-79760488D01*
X65724422Y-79760488D01*
X65629184Y-79712869D01*
X65581565Y-79665250D01*
X65200612Y-79093822D02*
X64676803Y-79093822D01*
X65200612Y-79760488D01*
X64676803Y-79760488D01*
X64391089Y-79093822D02*
X63867279Y-79093822D01*
X64391089Y-79760488D01*
X63867279Y-79760488D01*
X63105374Y-79712869D02*
X63200612Y-79760488D01*
X63391089Y-79760488D01*
X63486327Y-79712869D01*
X63533946Y-79617631D01*
X63533946Y-79236679D01*
X63486327Y-79141441D01*
X63391089Y-79093822D01*
X63200612Y-79093822D01*
X63105374Y-79141441D01*
X63057755Y-79236679D01*
X63057755Y-79331917D01*
X63533946Y-79427155D01*
X62629184Y-79760488D02*
X62629184Y-79093822D01*
X62629184Y-79284298D02*
X62581565Y-79189060D01*
X62533946Y-79141441D01*
X62438708Y-79093822D01*
X62343470Y-79093822D01*
%TO.C,J2*%
X166452841Y-93455081D02*
X166328806Y-94158515D01*
X166350895Y-94307471D01*
X166428148Y-94417800D01*
X166560566Y-94489502D01*
X166654357Y-94506040D01*
X166014242Y-93474451D02*
X165975616Y-93419287D01*
X165890094Y-93355853D01*
X165655615Y-93314508D01*
X165553555Y-93344866D01*
X165498391Y-93383493D01*
X165434957Y-93469015D01*
X165418419Y-93562806D01*
X165440508Y-93711762D01*
X165904028Y-94373737D01*
X165294385Y-94266240D01*
%TD*%
M02*
