%TF.GenerationSoftware,KiCad,Pcbnew,5.1.9*%
%TF.CreationDate,2021-05-15T18:24:56-05:00*%
%TF.ProjectId,nightwing,6e696768-7477-4696-9e67-2e6b69636164,rev?*%
%TF.SameCoordinates,Original*%
%TF.FileFunction,Other,Fab,Top*%
%FSLAX46Y46*%
G04 Gerber Fmt 4.6, Leading zero omitted, Abs format (unit mm)*
G04 Created by KiCad (PCBNEW 5.1.9) date 2021-05-15 18:24:56*
%MOMM*%
%LPD*%
G01*
G04 APERTURE LIST*
%ADD10C,0.100000*%
%ADD11C,0.150000*%
%ADD12C,0.120000*%
%ADD13C,0.160000*%
%ADD14C,0.152400*%
%ADD15C,0.080000*%
%ADD16C,0.075000*%
G04 APERTURE END LIST*
D10*
%TO.C,RESET_SW1*%
X131010000Y-53210000D02*
X131010000Y-59210000D01*
X131010000Y-59210000D02*
X137010000Y-59210000D01*
X137010000Y-59210000D02*
X137010000Y-53210000D01*
X137010000Y-53210000D02*
X131010000Y-53210000D01*
X135760714Y-56210000D02*
G75*
G03*
X135760714Y-56210000I-1750714J0D01*
G01*
D11*
%TO.C,U3*%
X137566039Y-68517107D02*
X137566039Y-67102893D01*
X143930000Y-74881068D02*
X137566039Y-68517107D01*
X151001068Y-67810000D02*
X143930000Y-74881068D01*
X143930000Y-60738932D02*
X151001068Y-67810000D01*
X137566039Y-67102893D02*
X143930000Y-60738932D01*
D10*
%TO.C,J1*%
X31531484Y-13966582D02*
X30515520Y-6737625D01*
X39368516Y-5493418D02*
X30515520Y-6737625D01*
X40384480Y-12722375D02*
X39368516Y-5493418D01*
X40384480Y-12722375D02*
X31531484Y-13966582D01*
D12*
%TO.C,SW19*%
X64790000Y-94970000D02*
G75*
G03*
X64790000Y-94970000I-3000000J0D01*
G01*
X56790000Y-89170000D02*
X67790000Y-89170000D01*
X67790000Y-89170000D02*
X67790000Y-100770000D01*
X67790000Y-100770000D02*
X55790000Y-100770000D01*
X55790000Y-100770000D02*
X55790000Y-90270000D01*
X55790000Y-90270000D02*
X56790000Y-89170000D01*
X61790000Y-91970000D02*
X61790000Y-97970000D01*
X58790000Y-94970000D02*
X64790000Y-94970000D01*
D10*
%TO.C,L39*%
X129498592Y-23968521D02*
X134498592Y-23968521D01*
X133998592Y-21468521D02*
G75*
G03*
X133998592Y-21468521I-2000000J0D01*
G01*
X134498592Y-18968521D02*
X129498592Y-18968521D01*
X134498592Y-22968521D02*
X133498592Y-23968521D01*
X129498592Y-18968521D02*
X129498592Y-23968521D01*
X134498592Y-23968521D02*
X134498592Y-18968521D01*
%TO.C,L38*%
X147930000Y-42560000D02*
X152930000Y-42560000D01*
X152430000Y-40060000D02*
G75*
G03*
X152430000Y-40060000I-2000000J0D01*
G01*
X152930000Y-37560000D02*
X147930000Y-37560000D01*
X152930000Y-41560000D02*
X151930000Y-42560000D01*
X147930000Y-37560000D02*
X147930000Y-42560000D01*
X152930000Y-42560000D02*
X152930000Y-37560000D01*
%TO.C,L37*%
X153260000Y-83100000D02*
X148260000Y-83100000D01*
X152760000Y-85600000D02*
G75*
G03*
X152760000Y-85600000I-2000000J0D01*
G01*
X148260000Y-88100000D02*
X153260000Y-88100000D01*
X148260000Y-84100000D02*
X149260000Y-83100000D01*
X153260000Y-88100000D02*
X153260000Y-83100000D01*
X148260000Y-83100000D02*
X148260000Y-88100000D01*
%TO.C,L36*%
X117758823Y-117151671D02*
X122682862Y-118019912D01*
X122654963Y-115123772D02*
G75*
G03*
X122654963Y-115123772I-2000000J0D01*
G01*
X123551103Y-113095873D02*
X118627064Y-112227632D01*
X122856510Y-117035104D02*
X121698054Y-117846264D01*
X118627064Y-112227632D02*
X117758823Y-117151671D01*
X122682862Y-118019912D02*
X123551103Y-113095873D01*
%TO.C,L35*%
X60874324Y-98967721D02*
X65874324Y-98967721D01*
X65374324Y-96467721D02*
G75*
G03*
X65374324Y-96467721I-2000000J0D01*
G01*
X65874324Y-93967721D02*
X60874324Y-93967721D01*
X65874324Y-97967721D02*
X64874324Y-98967721D01*
X60874324Y-93967721D02*
X60874324Y-98967721D01*
X65874324Y-98967721D02*
X65874324Y-93967721D01*
%TO.C,L34*%
X20468505Y-74030487D02*
X25468505Y-74030487D01*
X24968505Y-71530487D02*
G75*
G03*
X24968505Y-71530487I-2000000J0D01*
G01*
X25468505Y-69030487D02*
X20468505Y-69030487D01*
X25468505Y-73030487D02*
X24468505Y-74030487D01*
X20468505Y-69030487D02*
X20468505Y-74030487D01*
X25468505Y-74030487D02*
X25468505Y-69030487D01*
%TO.C,L33*%
X17374788Y-33437170D02*
X22374788Y-33437170D01*
X21874788Y-30937170D02*
G75*
G03*
X21874788Y-30937170I-2000000J0D01*
G01*
X22374788Y-28437170D02*
X17374788Y-28437170D01*
X22374788Y-32437170D02*
X21374788Y-33437170D01*
X17374788Y-28437170D02*
X17374788Y-33437170D01*
X22374788Y-33437170D02*
X22374788Y-28437170D01*
%TO.C,L32*%
X23385000Y-26858641D02*
X23385000Y-21858641D01*
X23385000Y-21858641D02*
X18385000Y-21858641D01*
X18385000Y-26858641D02*
X23385000Y-26858641D01*
X18385000Y-21858641D02*
X18385000Y-26858641D01*
X22885000Y-24358641D02*
G75*
G03*
X22885000Y-24358641I-2000000J0D01*
G01*
X23385000Y-25858641D02*
X22385000Y-26858641D01*
%TO.C,L31*%
X36055000Y-22858641D02*
X36055000Y-17858641D01*
X36055000Y-17858641D02*
X31055000Y-17858641D01*
X31055000Y-22858641D02*
X36055000Y-22858641D01*
X31055000Y-17858641D02*
X31055000Y-22858641D01*
X35555000Y-20358641D02*
G75*
G03*
X35555000Y-20358641I-2000000J0D01*
G01*
X36055000Y-21858641D02*
X35055000Y-22858641D01*
%TO.C,L30*%
X48725000Y-19358641D02*
X48725000Y-14358641D01*
X48725000Y-14358641D02*
X43725000Y-14358641D01*
X43725000Y-19358641D02*
X48725000Y-19358641D01*
X43725000Y-14358641D02*
X43725000Y-19358641D01*
X48225000Y-16858641D02*
G75*
G03*
X48225000Y-16858641I-2000000J0D01*
G01*
X48725000Y-18358641D02*
X47725000Y-19358641D01*
%TO.C,L29*%
X61385000Y-14258641D02*
X61385000Y-9258641D01*
X61385000Y-9258641D02*
X56385000Y-9258641D01*
X56385000Y-14258641D02*
X61385000Y-14258641D01*
X56385000Y-9258641D02*
X56385000Y-14258641D01*
X60885000Y-11758641D02*
G75*
G03*
X60885000Y-11758641I-2000000J0D01*
G01*
X61385000Y-13258641D02*
X60385000Y-14258641D01*
%TO.C,L28*%
X74055000Y-12530000D02*
X74055000Y-7530000D01*
X74055000Y-7530000D02*
X69055000Y-7530000D01*
X69055000Y-12530000D02*
X74055000Y-12530000D01*
X69055000Y-7530000D02*
X69055000Y-12530000D01*
X73555000Y-10030000D02*
G75*
G03*
X73555000Y-10030000I-2000000J0D01*
G01*
X74055000Y-11530000D02*
X73055000Y-12530000D01*
%TO.C,L27*%
X86725000Y-12870000D02*
X86725000Y-7870000D01*
X86725000Y-7870000D02*
X81725000Y-7870000D01*
X81725000Y-12870000D02*
X86725000Y-12870000D01*
X81725000Y-7870000D02*
X81725000Y-12870000D01*
X86225000Y-10370000D02*
G75*
G03*
X86225000Y-10370000I-2000000J0D01*
G01*
X86725000Y-11870000D02*
X85725000Y-12870000D01*
%TO.C,L26*%
X99385000Y-16500000D02*
X99385000Y-11500000D01*
X99385000Y-11500000D02*
X94385000Y-11500000D01*
X94385000Y-16500000D02*
X99385000Y-16500000D01*
X94385000Y-11500000D02*
X94385000Y-16500000D01*
X98885000Y-14000000D02*
G75*
G03*
X98885000Y-14000000I-2000000J0D01*
G01*
X99385000Y-15500000D02*
X98385000Y-16500000D01*
%TO.C,L25*%
X112055000Y-18500000D02*
X112055000Y-13500000D01*
X112055000Y-13500000D02*
X107055000Y-13500000D01*
X107055000Y-18500000D02*
X112055000Y-18500000D01*
X107055000Y-13500000D02*
X107055000Y-18500000D01*
X111555000Y-16000000D02*
G75*
G03*
X111555000Y-16000000I-2000000J0D01*
G01*
X112055000Y-17500000D02*
X111055000Y-18500000D01*
%TO.C,L24*%
X124725000Y-20000000D02*
X124725000Y-15000000D01*
X124725000Y-15000000D02*
X119725000Y-15000000D01*
X119725000Y-20000000D02*
X124725000Y-20000000D01*
X119725000Y-15000000D02*
X119725000Y-20000000D01*
X124225000Y-17500000D02*
G75*
G03*
X124225000Y-17500000I-2000000J0D01*
G01*
X124725000Y-19000000D02*
X123725000Y-20000000D01*
%TO.C,R5*%
X133000000Y-70992113D02*
X135000000Y-70992113D01*
X133000000Y-72242113D02*
X133000000Y-70992113D01*
X135000000Y-72242113D02*
X133000000Y-72242113D01*
X135000000Y-70992113D02*
X135000000Y-72242113D01*
%TO.C,R7*%
X133000000Y-73018781D02*
X135000000Y-73018781D01*
X133000000Y-74268781D02*
X133000000Y-73018781D01*
X135000000Y-74268781D02*
X133000000Y-74268781D01*
X135000000Y-73018781D02*
X135000000Y-74268781D01*
%TO.C,R3*%
X43374544Y-22187498D02*
X43374544Y-24187498D01*
X42124544Y-22187498D02*
X43374544Y-22187498D01*
X42124544Y-24187498D02*
X42124544Y-22187498D01*
X43374544Y-24187498D02*
X42124544Y-24187498D01*
%TO.C,R4*%
X41030819Y-24187498D02*
X39780819Y-24187498D01*
X39780819Y-24187498D02*
X39780819Y-22187498D01*
X39780819Y-22187498D02*
X41030819Y-22187498D01*
X41030819Y-22187498D02*
X41030819Y-24187498D01*
D13*
%TO.C,D1*%
X17725000Y-38591000D02*
X17725000Y-39091000D01*
X17325000Y-38591000D02*
X17725000Y-37991000D01*
X18125000Y-38591000D02*
X17325000Y-38591000D01*
X17725000Y-37991000D02*
X18125000Y-38591000D01*
X17725000Y-37991000D02*
X17175000Y-37991000D01*
X17725000Y-37991000D02*
X18275000Y-37991000D01*
X17725000Y-37591000D02*
X17725000Y-37991000D01*
X16825000Y-36941000D02*
X18625000Y-36941000D01*
X16825000Y-39741000D02*
X16825000Y-36941000D01*
X18625000Y-39741000D02*
X16825000Y-39741000D01*
X18625000Y-36941000D02*
X18625000Y-39741000D01*
%TO.C,D2*%
X35025000Y-38791000D02*
X35025000Y-39291000D01*
X34625000Y-38791000D02*
X35025000Y-38191000D01*
X35425000Y-38791000D02*
X34625000Y-38791000D01*
X35025000Y-38191000D02*
X35425000Y-38791000D01*
X35025000Y-38191000D02*
X34475000Y-38191000D01*
X35025000Y-38191000D02*
X35575000Y-38191000D01*
X35025000Y-37791000D02*
X35025000Y-38191000D01*
X34125000Y-37141000D02*
X35925000Y-37141000D01*
X34125000Y-39941000D02*
X34125000Y-37141000D01*
X35925000Y-39941000D02*
X34125000Y-39941000D01*
X35925000Y-37141000D02*
X35925000Y-39941000D01*
%TO.C,D3*%
X54025000Y-23241000D02*
X54025000Y-23741000D01*
X53625000Y-23241000D02*
X54025000Y-22641000D01*
X54425000Y-23241000D02*
X53625000Y-23241000D01*
X54025000Y-22641000D02*
X54425000Y-23241000D01*
X54025000Y-22641000D02*
X53475000Y-22641000D01*
X54025000Y-22641000D02*
X54575000Y-22641000D01*
X54025000Y-22241000D02*
X54025000Y-22641000D01*
X53125000Y-21591000D02*
X54925000Y-21591000D01*
X53125000Y-24391000D02*
X53125000Y-21591000D01*
X54925000Y-24391000D02*
X53125000Y-24391000D01*
X54925000Y-21591000D02*
X54925000Y-24391000D01*
%TO.C,D4*%
X73025000Y-20241000D02*
X73025000Y-20741000D01*
X72625000Y-20241000D02*
X73025000Y-19641000D01*
X73425000Y-20241000D02*
X72625000Y-20241000D01*
X73025000Y-19641000D02*
X73425000Y-20241000D01*
X73025000Y-19641000D02*
X72475000Y-19641000D01*
X73025000Y-19641000D02*
X73575000Y-19641000D01*
X73025000Y-19241000D02*
X73025000Y-19641000D01*
X72125000Y-18591000D02*
X73925000Y-18591000D01*
X72125000Y-21391000D02*
X72125000Y-18591000D01*
X73925000Y-21391000D02*
X72125000Y-21391000D01*
X73925000Y-18591000D02*
X73925000Y-21391000D01*
%TO.C,D5*%
X92025000Y-30241000D02*
X92025000Y-30741000D01*
X91625000Y-30241000D02*
X92025000Y-29641000D01*
X92425000Y-30241000D02*
X91625000Y-30241000D01*
X92025000Y-29641000D02*
X92425000Y-30241000D01*
X92025000Y-29641000D02*
X91475000Y-29641000D01*
X92025000Y-29641000D02*
X92575000Y-29641000D01*
X92025000Y-29241000D02*
X92025000Y-29641000D01*
X91125000Y-28591000D02*
X92925000Y-28591000D01*
X91125000Y-31391000D02*
X91125000Y-28591000D01*
X92925000Y-31391000D02*
X91125000Y-31391000D01*
X92925000Y-28591000D02*
X92925000Y-31391000D01*
%TO.C,D6*%
X111025000Y-32241000D02*
X111025000Y-32741000D01*
X110625000Y-32241000D02*
X111025000Y-31641000D01*
X111425000Y-32241000D02*
X110625000Y-32241000D01*
X111025000Y-31641000D02*
X111425000Y-32241000D01*
X111025000Y-31641000D02*
X110475000Y-31641000D01*
X111025000Y-31641000D02*
X111575000Y-31641000D01*
X111025000Y-31241000D02*
X111025000Y-31641000D01*
X110125000Y-30591000D02*
X111925000Y-30591000D01*
X110125000Y-33391000D02*
X110125000Y-30591000D01*
X111925000Y-33391000D02*
X110125000Y-33391000D01*
X111925000Y-30591000D02*
X111925000Y-33391000D01*
%TO.C,D7*%
X17725000Y-57591000D02*
X17725000Y-58091000D01*
X17325000Y-57591000D02*
X17725000Y-56991000D01*
X18125000Y-57591000D02*
X17325000Y-57591000D01*
X17725000Y-56991000D02*
X18125000Y-57591000D01*
X17725000Y-56991000D02*
X17175000Y-56991000D01*
X17725000Y-56991000D02*
X18275000Y-56991000D01*
X17725000Y-56591000D02*
X17725000Y-56991000D01*
X16825000Y-55941000D02*
X18625000Y-55941000D01*
X16825000Y-58741000D02*
X16825000Y-55941000D01*
X18625000Y-58741000D02*
X16825000Y-58741000D01*
X18625000Y-55941000D02*
X18625000Y-58741000D01*
%TO.C,D8*%
X35025000Y-57791000D02*
X35025000Y-58291000D01*
X34625000Y-57791000D02*
X35025000Y-57191000D01*
X35425000Y-57791000D02*
X34625000Y-57791000D01*
X35025000Y-57191000D02*
X35425000Y-57791000D01*
X35025000Y-57191000D02*
X34475000Y-57191000D01*
X35025000Y-57191000D02*
X35575000Y-57191000D01*
X35025000Y-56791000D02*
X35025000Y-57191000D01*
X34125000Y-56141000D02*
X35925000Y-56141000D01*
X34125000Y-58941000D02*
X34125000Y-56141000D01*
X35925000Y-58941000D02*
X34125000Y-58941000D01*
X35925000Y-56141000D02*
X35925000Y-58941000D01*
%TO.C,D9*%
X54025000Y-42241000D02*
X54025000Y-42741000D01*
X53625000Y-42241000D02*
X54025000Y-41641000D01*
X54425000Y-42241000D02*
X53625000Y-42241000D01*
X54025000Y-41641000D02*
X54425000Y-42241000D01*
X54025000Y-41641000D02*
X53475000Y-41641000D01*
X54025000Y-41641000D02*
X54575000Y-41641000D01*
X54025000Y-41241000D02*
X54025000Y-41641000D01*
X53125000Y-40591000D02*
X54925000Y-40591000D01*
X53125000Y-43391000D02*
X53125000Y-40591000D01*
X54925000Y-43391000D02*
X53125000Y-43391000D01*
X54925000Y-40591000D02*
X54925000Y-43391000D01*
%TO.C,D10*%
X73025000Y-39241000D02*
X73025000Y-39741000D01*
X72625000Y-39241000D02*
X73025000Y-38641000D01*
X73425000Y-39241000D02*
X72625000Y-39241000D01*
X73025000Y-38641000D02*
X73425000Y-39241000D01*
X73025000Y-38641000D02*
X72475000Y-38641000D01*
X73025000Y-38641000D02*
X73575000Y-38641000D01*
X73025000Y-38241000D02*
X73025000Y-38641000D01*
X72125000Y-37591000D02*
X73925000Y-37591000D01*
X72125000Y-40391000D02*
X72125000Y-37591000D01*
X73925000Y-40391000D02*
X72125000Y-40391000D01*
X73925000Y-37591000D02*
X73925000Y-40391000D01*
%TO.C,D11*%
X92025000Y-49241000D02*
X92025000Y-49741000D01*
X91625000Y-49241000D02*
X92025000Y-48641000D01*
X92425000Y-49241000D02*
X91625000Y-49241000D01*
X92025000Y-48641000D02*
X92425000Y-49241000D01*
X92025000Y-48641000D02*
X91475000Y-48641000D01*
X92025000Y-48641000D02*
X92575000Y-48641000D01*
X92025000Y-48241000D02*
X92025000Y-48641000D01*
X91125000Y-47591000D02*
X92925000Y-47591000D01*
X91125000Y-50391000D02*
X91125000Y-47591000D01*
X92925000Y-50391000D02*
X91125000Y-50391000D01*
X92925000Y-47591000D02*
X92925000Y-50391000D01*
%TO.C,D12*%
X111025000Y-51241000D02*
X111025000Y-51741000D01*
X110625000Y-51241000D02*
X111025000Y-50641000D01*
X111425000Y-51241000D02*
X110625000Y-51241000D01*
X111025000Y-50641000D02*
X111425000Y-51241000D01*
X111025000Y-50641000D02*
X110475000Y-50641000D01*
X111025000Y-50641000D02*
X111575000Y-50641000D01*
X111025000Y-50241000D02*
X111025000Y-50641000D01*
X110125000Y-49591000D02*
X111925000Y-49591000D01*
X110125000Y-52391000D02*
X110125000Y-49591000D01*
X111925000Y-52391000D02*
X110125000Y-52391000D01*
X111925000Y-49591000D02*
X111925000Y-52391000D01*
%TO.C,D13*%
X17531063Y-75530447D02*
X17531063Y-76030447D01*
X17131063Y-75530447D02*
X17531063Y-74930447D01*
X17931063Y-75530447D02*
X17131063Y-75530447D01*
X17531063Y-74930447D02*
X17931063Y-75530447D01*
X17531063Y-74930447D02*
X16981063Y-74930447D01*
X17531063Y-74930447D02*
X18081063Y-74930447D01*
X17531063Y-74530447D02*
X17531063Y-74930447D01*
X16631063Y-73880447D02*
X18431063Y-73880447D01*
X16631063Y-76680447D02*
X16631063Y-73880447D01*
X18431063Y-76680447D02*
X16631063Y-76680447D01*
X18431063Y-73880447D02*
X18431063Y-76680447D01*
%TO.C,D14*%
X35025000Y-76791000D02*
X35025000Y-77291000D01*
X34625000Y-76791000D02*
X35025000Y-76191000D01*
X35425000Y-76791000D02*
X34625000Y-76791000D01*
X35025000Y-76191000D02*
X35425000Y-76791000D01*
X35025000Y-76191000D02*
X34475000Y-76191000D01*
X35025000Y-76191000D02*
X35575000Y-76191000D01*
X35025000Y-75791000D02*
X35025000Y-76191000D01*
X34125000Y-75141000D02*
X35925000Y-75141000D01*
X34125000Y-77941000D02*
X34125000Y-75141000D01*
X35925000Y-77941000D02*
X34125000Y-77941000D01*
X35925000Y-75141000D02*
X35925000Y-77941000D01*
%TO.C,D15*%
X54025000Y-61241000D02*
X54025000Y-61741000D01*
X53625000Y-61241000D02*
X54025000Y-60641000D01*
X54425000Y-61241000D02*
X53625000Y-61241000D01*
X54025000Y-60641000D02*
X54425000Y-61241000D01*
X54025000Y-60641000D02*
X53475000Y-60641000D01*
X54025000Y-60641000D02*
X54575000Y-60641000D01*
X54025000Y-60241000D02*
X54025000Y-60641000D01*
X53125000Y-59591000D02*
X54925000Y-59591000D01*
X53125000Y-62391000D02*
X53125000Y-59591000D01*
X54925000Y-62391000D02*
X53125000Y-62391000D01*
X54925000Y-59591000D02*
X54925000Y-62391000D01*
%TO.C,D16*%
X71530487Y-58760854D02*
X71530487Y-59260854D01*
X71130487Y-58760854D02*
X71530487Y-58160854D01*
X71930487Y-58760854D02*
X71130487Y-58760854D01*
X71530487Y-58160854D02*
X71930487Y-58760854D01*
X71530487Y-58160854D02*
X70980487Y-58160854D01*
X71530487Y-58160854D02*
X72080487Y-58160854D01*
X71530487Y-57760854D02*
X71530487Y-58160854D01*
X70630487Y-57110854D02*
X72430487Y-57110854D01*
X70630487Y-59910854D02*
X70630487Y-57110854D01*
X72430487Y-59910854D02*
X70630487Y-59910854D01*
X72430487Y-57110854D02*
X72430487Y-59910854D01*
%TO.C,D17*%
X92025000Y-68241000D02*
X92025000Y-68741000D01*
X91625000Y-68241000D02*
X92025000Y-67641000D01*
X92425000Y-68241000D02*
X91625000Y-68241000D01*
X92025000Y-67641000D02*
X92425000Y-68241000D01*
X92025000Y-67641000D02*
X91475000Y-67641000D01*
X92025000Y-67641000D02*
X92575000Y-67641000D01*
X92025000Y-67241000D02*
X92025000Y-67641000D01*
X91125000Y-66591000D02*
X92925000Y-66591000D01*
X91125000Y-69391000D02*
X91125000Y-66591000D01*
X92925000Y-69391000D02*
X91125000Y-69391000D01*
X92925000Y-66591000D02*
X92925000Y-69391000D01*
%TO.C,D18*%
X111025000Y-70241000D02*
X111025000Y-70741000D01*
X110625000Y-70241000D02*
X111025000Y-69641000D01*
X111425000Y-70241000D02*
X110625000Y-70241000D01*
X111025000Y-69641000D02*
X111425000Y-70241000D01*
X111025000Y-69641000D02*
X110475000Y-69641000D01*
X111025000Y-69641000D02*
X111575000Y-69641000D01*
X111025000Y-69241000D02*
X111025000Y-69641000D01*
X110125000Y-68591000D02*
X111925000Y-68591000D01*
X110125000Y-71391000D02*
X110125000Y-68591000D01*
X111925000Y-71391000D02*
X110125000Y-71391000D01*
X111925000Y-68591000D02*
X111925000Y-71391000D01*
%TO.C,D19*%
X74061710Y-94186498D02*
X74061710Y-94686498D01*
X73661710Y-94186498D02*
X74061710Y-93586498D01*
X74461710Y-94186498D02*
X73661710Y-94186498D01*
X74061710Y-93586498D02*
X74461710Y-94186498D01*
X74061710Y-93586498D02*
X73511710Y-93586498D01*
X74061710Y-93586498D02*
X74611710Y-93586498D01*
X74061710Y-93186498D02*
X74061710Y-93586498D01*
X73161710Y-92536498D02*
X74961710Y-92536498D01*
X73161710Y-95336498D02*
X73161710Y-92536498D01*
X74961710Y-95336498D02*
X73161710Y-95336498D01*
X74961710Y-92536498D02*
X74961710Y-95336498D01*
%TO.C,D20*%
X77637500Y-87250000D02*
X77637500Y-87750000D01*
X77237500Y-87250000D02*
X77637500Y-86650000D01*
X78037500Y-87250000D02*
X77237500Y-87250000D01*
X77637500Y-86650000D02*
X78037500Y-87250000D01*
X77637500Y-86650000D02*
X77087500Y-86650000D01*
X77637500Y-86650000D02*
X78187500Y-86650000D01*
X77637500Y-86250000D02*
X77637500Y-86650000D01*
X76737500Y-85600000D02*
X78537500Y-85600000D01*
X76737500Y-88400000D02*
X76737500Y-85600000D01*
X78537500Y-88400000D02*
X76737500Y-88400000D01*
X78537500Y-85600000D02*
X78537500Y-88400000D01*
%TO.C,D21*%
X96637500Y-89250000D02*
X96637500Y-89750000D01*
X96237500Y-89250000D02*
X96637500Y-88650000D01*
X97037500Y-89250000D02*
X96237500Y-89250000D01*
X96637500Y-88650000D02*
X97037500Y-89250000D01*
X96637500Y-88650000D02*
X96087500Y-88650000D01*
X96637500Y-88650000D02*
X97187500Y-88650000D01*
X96637500Y-88250000D02*
X96637500Y-88650000D01*
X95737500Y-87600000D02*
X97537500Y-87600000D01*
X95737500Y-90400000D02*
X95737500Y-87600000D01*
X97537500Y-90400000D02*
X95737500Y-90400000D01*
X97537500Y-87600000D02*
X97537500Y-90400000D01*
%TO.C,D22*%
X158866043Y-106349564D02*
X159358447Y-106436388D01*
X158796584Y-106743487D02*
X158275158Y-106245375D01*
X158935502Y-105955641D02*
X158796584Y-106743487D01*
X158275158Y-106245375D02*
X158935502Y-105955641D01*
X158275158Y-106245375D02*
X158179652Y-106787019D01*
X158275158Y-106245375D02*
X158370665Y-105703731D01*
X157881235Y-106175916D02*
X158275158Y-106245375D01*
X157084827Y-106949372D02*
X157397394Y-105176718D01*
X159842288Y-107435586D02*
X157084827Y-106949372D01*
X160154855Y-105662932D02*
X159842288Y-107435586D01*
X157397394Y-105176718D02*
X160154855Y-105662932D01*
%TO.C,D23*%
X132380436Y-102146043D02*
X132293612Y-102638447D01*
X131986513Y-102076584D02*
X132484625Y-101555158D01*
X132774359Y-102215502D02*
X131986513Y-102076584D01*
X132484625Y-101555158D02*
X132774359Y-102215502D01*
X132484625Y-101555158D02*
X131942981Y-101459652D01*
X132484625Y-101555158D02*
X133026269Y-101650665D01*
X132554084Y-101161235D02*
X132484625Y-101555158D01*
X131780628Y-100364827D02*
X133553282Y-100677394D01*
X131294414Y-103122288D02*
X131780628Y-100364827D01*
X133067068Y-103434855D02*
X131294414Y-103122288D01*
X133553282Y-100677394D02*
X133067068Y-103434855D01*
%TO.C,D24*%
X151260436Y-104556043D02*
X151173612Y-105048447D01*
X150866513Y-104486584D02*
X151364625Y-103965158D01*
X151654359Y-104625502D02*
X150866513Y-104486584D01*
X151364625Y-103965158D02*
X151654359Y-104625502D01*
X151364625Y-103965158D02*
X150822981Y-103869652D01*
X151364625Y-103965158D02*
X151906269Y-104060665D01*
X151434084Y-103571235D02*
X151364625Y-103965158D01*
X150660628Y-102774827D02*
X152433282Y-103087394D01*
X150174414Y-105532288D02*
X150660628Y-102774827D01*
X151947068Y-105844855D02*
X150174414Y-105532288D01*
X152433282Y-103087394D02*
X151947068Y-105844855D01*
D10*
%TO.C,J2*%
X160993572Y-96754839D02*
X162261204Y-89565742D01*
X171065386Y-91118157D02*
X162261204Y-89565742D01*
X169797754Y-98307254D02*
X171065386Y-91118157D01*
%TO.C,C1*%
X142235165Y-57620951D02*
X143119049Y-58504835D01*
X143119049Y-58504835D02*
X141704835Y-59919049D01*
X141704835Y-59919049D02*
X140820951Y-59035165D01*
X140820951Y-59035165D02*
X142235165Y-57620951D01*
%TO.C,C2*%
X140780951Y-76644835D02*
X141664835Y-75760951D01*
X141664835Y-75760951D02*
X143079049Y-77175165D01*
X143079049Y-77175165D02*
X142195165Y-78059049D01*
X142195165Y-78059049D02*
X140780951Y-76644835D01*
%TO.C,C4*%
X135103414Y-64692702D02*
X135987298Y-65576586D01*
X135987298Y-65576586D02*
X134573084Y-66990800D01*
X134573084Y-66990800D02*
X133689200Y-66106916D01*
X133689200Y-66106916D02*
X135103414Y-64692702D01*
%TO.C,C5*%
X144760951Y-58494835D02*
X145644835Y-57610951D01*
X145644835Y-57610951D02*
X147059049Y-59025165D01*
X147059049Y-59025165D02*
X146175165Y-59909049D01*
X146175165Y-59909049D02*
X144760951Y-58494835D01*
%TO.C,C9*%
X151020951Y-64604835D02*
X151904835Y-63720951D01*
X151904835Y-63720951D02*
X153319049Y-65135165D01*
X153319049Y-65135165D02*
X152435165Y-66019049D01*
X152435165Y-66019049D02*
X151020951Y-64604835D01*
%TO.C,C10*%
X135000000Y-75125000D02*
X135000000Y-76375000D01*
X135000000Y-76375000D02*
X133000000Y-76375000D01*
X133000000Y-76375000D02*
X133000000Y-75125000D01*
X133000000Y-75125000D02*
X135000000Y-75125000D01*
%TO.C,F2*%
X30386842Y-28205587D02*
X30386842Y-29805587D01*
X30386842Y-29805587D02*
X27186842Y-29805587D01*
X27186842Y-29805587D02*
X27186842Y-28205587D01*
X27186842Y-28205587D02*
X30386842Y-28205587D01*
%TO.C,R2*%
X153470000Y-60165000D02*
X153470000Y-61415000D01*
X153470000Y-61415000D02*
X151470000Y-61415000D01*
X151470000Y-61415000D02*
X151470000Y-60165000D01*
X151470000Y-60165000D02*
X153470000Y-60165000D01*
%TO.C,U1*%
X40255275Y-26486882D02*
X39655275Y-26986882D01*
X40255275Y-26486882D02*
X42055275Y-26486882D01*
X39655275Y-29486882D02*
X39655275Y-26986882D01*
X42055275Y-29486882D02*
X39655275Y-29486882D01*
X42055275Y-26486882D02*
X42055275Y-29486882D01*
%TO.C,X1*%
X154898545Y-74230842D02*
X150373062Y-78756326D01*
X151610499Y-70942796D02*
X147085015Y-75468279D01*
X154527314Y-74142454D02*
X150284674Y-78385094D01*
X151698887Y-71314027D02*
X147456247Y-75556667D01*
X151610499Y-70942796D02*
G75*
G02*
X154898545Y-74230842I1644023J-1644023D01*
G01*
X147085016Y-75468278D02*
G75*
G03*
X150373062Y-78756326I1644023J-1644024D01*
G01*
X151698888Y-71314026D02*
G75*
G02*
X154527314Y-74142454I1414213J-1414214D01*
G01*
X147456246Y-75556668D02*
G75*
G03*
X150284674Y-78385094I1414214J-1414213D01*
G01*
%TD*%
%TO.C,RESET_SW1*%
D11*
X130652857Y-52612380D02*
X130319523Y-52136190D01*
X130081428Y-52612380D02*
X130081428Y-51612380D01*
X130462380Y-51612380D01*
X130557619Y-51660000D01*
X130605238Y-51707619D01*
X130652857Y-51802857D01*
X130652857Y-51945714D01*
X130605238Y-52040952D01*
X130557619Y-52088571D01*
X130462380Y-52136190D01*
X130081428Y-52136190D01*
X131081428Y-52088571D02*
X131414761Y-52088571D01*
X131557619Y-52612380D02*
X131081428Y-52612380D01*
X131081428Y-51612380D01*
X131557619Y-51612380D01*
X131938571Y-52564761D02*
X132081428Y-52612380D01*
X132319523Y-52612380D01*
X132414761Y-52564761D01*
X132462380Y-52517142D01*
X132510000Y-52421904D01*
X132510000Y-52326666D01*
X132462380Y-52231428D01*
X132414761Y-52183809D01*
X132319523Y-52136190D01*
X132129047Y-52088571D01*
X132033809Y-52040952D01*
X131986190Y-51993333D01*
X131938571Y-51898095D01*
X131938571Y-51802857D01*
X131986190Y-51707619D01*
X132033809Y-51660000D01*
X132129047Y-51612380D01*
X132367142Y-51612380D01*
X132510000Y-51660000D01*
X132938571Y-52088571D02*
X133271904Y-52088571D01*
X133414761Y-52612380D02*
X132938571Y-52612380D01*
X132938571Y-51612380D01*
X133414761Y-51612380D01*
X133700476Y-51612380D02*
X134271904Y-51612380D01*
X133986190Y-52612380D02*
X133986190Y-51612380D01*
X134367142Y-52707619D02*
X135129047Y-52707619D01*
X135319523Y-52564761D02*
X135462380Y-52612380D01*
X135700476Y-52612380D01*
X135795714Y-52564761D01*
X135843333Y-52517142D01*
X135890952Y-52421904D01*
X135890952Y-52326666D01*
X135843333Y-52231428D01*
X135795714Y-52183809D01*
X135700476Y-52136190D01*
X135510000Y-52088571D01*
X135414761Y-52040952D01*
X135367142Y-51993333D01*
X135319523Y-51898095D01*
X135319523Y-51802857D01*
X135367142Y-51707619D01*
X135414761Y-51660000D01*
X135510000Y-51612380D01*
X135748095Y-51612380D01*
X135890952Y-51660000D01*
X136224285Y-51612380D02*
X136462380Y-52612380D01*
X136652857Y-51898095D01*
X136843333Y-52612380D01*
X137081428Y-51612380D01*
X137986190Y-52612380D02*
X137414761Y-52612380D01*
X137700476Y-52612380D02*
X137700476Y-51612380D01*
X137605238Y-51755238D01*
X137510000Y-51850476D01*
X137414761Y-51898095D01*
%TO.C,J3*%
D14*
X142673426Y-37966221D02*
X142826739Y-37944674D01*
X142908781Y-37972229D01*
X142996211Y-38038112D01*
X143056086Y-38186037D01*
X143093792Y-38454334D01*
X143077011Y-38613033D01*
X143011128Y-38700462D01*
X142939858Y-38749564D01*
X142786546Y-38771111D01*
X142704503Y-38743556D01*
X142617074Y-38677673D01*
X142557199Y-38529747D01*
X142519492Y-38261451D01*
X142536274Y-38102752D01*
X142602157Y-38015322D01*
X142673426Y-37966221D01*
X143859733Y-38620284D02*
X143476452Y-38674151D01*
X143363332Y-37869261D01*
X144068776Y-38160968D02*
X144337073Y-38123262D01*
X144511310Y-38528711D02*
X144128029Y-38582577D01*
X144014909Y-37777687D01*
X144398190Y-37723821D01*
X144856263Y-38480231D02*
X144743143Y-37675341D01*
X144934783Y-37648408D01*
X145055154Y-37670576D01*
X145142584Y-37736459D01*
X145191685Y-37807728D01*
X145251560Y-37955654D01*
X145267720Y-38070638D01*
X145250939Y-38229337D01*
X145223384Y-38311380D01*
X145157501Y-38398809D01*
X145047903Y-38453297D01*
X144856263Y-38480231D01*
%TO.C,U3*%
D11*
X144972141Y-77539453D02*
X145308858Y-77202735D01*
X145106828Y-77808827D02*
X144635423Y-76866018D01*
X145578232Y-77337422D01*
X145005812Y-76495628D02*
X145409873Y-76091567D01*
X145914950Y-77000705D02*
X145207843Y-76293598D01*
X146352682Y-76562972D02*
X145881278Y-76091567D01*
X145948621Y-76158911D02*
X145948621Y-76091567D01*
X145982293Y-75990552D01*
X146083308Y-75889537D01*
X146184324Y-75855865D01*
X146285339Y-75889537D01*
X146655728Y-76259926D01*
X146285339Y-75889537D02*
X146251667Y-75788521D01*
X146285339Y-75687506D01*
X146386354Y-75586491D01*
X146487370Y-75552819D01*
X146588385Y-75586491D01*
X146958774Y-75956880D01*
X147531194Y-75317117D02*
X147497522Y-75418132D01*
X147362835Y-75552819D01*
X147261820Y-75586491D01*
X147160805Y-75552819D01*
X146891431Y-75283445D01*
X146857759Y-75182430D01*
X146891431Y-75081415D01*
X147026118Y-74946728D01*
X147127133Y-74913056D01*
X147228148Y-74946728D01*
X147295492Y-75014071D01*
X147026118Y-75418132D01*
X147733224Y-74239621D02*
X148305644Y-74812041D01*
X148339316Y-74913056D01*
X148339316Y-74980399D01*
X148305644Y-75081415D01*
X148204629Y-75182430D01*
X148103614Y-75216102D01*
X148170957Y-74677354D02*
X148137285Y-74778369D01*
X148002598Y-74913056D01*
X147901583Y-74946728D01*
X147834240Y-74946728D01*
X147733224Y-74913056D01*
X147531194Y-74711025D01*
X147497522Y-74610010D01*
X147497522Y-74542667D01*
X147531194Y-74441651D01*
X147665881Y-74306964D01*
X147766896Y-74273293D01*
X148844392Y-74071262D02*
X148474003Y-73700873D01*
X148372988Y-73667201D01*
X148271972Y-73700873D01*
X148137285Y-73835560D01*
X148103614Y-73936575D01*
X148810720Y-74037590D02*
X148777049Y-74138606D01*
X148608690Y-74306964D01*
X148507675Y-74340636D01*
X148406659Y-74306964D01*
X148339316Y-74239621D01*
X148305644Y-74138606D01*
X148339316Y-74037590D01*
X148507675Y-73869232D01*
X148541346Y-73768216D01*
X148406659Y-73094781D02*
X148844392Y-72657049D01*
X148878064Y-73162125D01*
X148979079Y-73061110D01*
X149080094Y-73027438D01*
X149147438Y-73027438D01*
X149248453Y-73061110D01*
X149416812Y-73229468D01*
X149450484Y-73330484D01*
X149450484Y-73397827D01*
X149416812Y-73498842D01*
X149214781Y-73700873D01*
X149113766Y-73734545D01*
X149046423Y-73734545D01*
X149181110Y-72455018D02*
X149181110Y-72387675D01*
X149214781Y-72286659D01*
X149383140Y-72118301D01*
X149484155Y-72084629D01*
X149551499Y-72084629D01*
X149652514Y-72118301D01*
X149719858Y-72185644D01*
X149787201Y-72320331D01*
X149787201Y-73128453D01*
X150224934Y-72690720D01*
X149820873Y-71680568D02*
X150393293Y-72252988D01*
X150494308Y-72286659D01*
X150561651Y-72286659D01*
X150662667Y-72252988D01*
X150797354Y-72118301D01*
X150831025Y-72017285D01*
X150831025Y-71949942D01*
X150797354Y-71848927D01*
X150224934Y-71276507D01*
X151100399Y-70872446D02*
X151571804Y-71343850D01*
X150662667Y-70771431D02*
X150999384Y-71444866D01*
X151437117Y-71007133D01*
X151672819Y-70704087D02*
X152211567Y-70165339D01*
X152581957Y-69929637D02*
X152918674Y-69592919D01*
X152716644Y-70199011D02*
X152245239Y-69256202D01*
X153188048Y-69727606D01*
X152716644Y-68784797D02*
X153289063Y-69357217D01*
X153390079Y-69390889D01*
X153457422Y-69390889D01*
X153558437Y-69357217D01*
X153693124Y-69222530D01*
X153726796Y-69121515D01*
X153726796Y-69054171D01*
X153693124Y-68953156D01*
X153120705Y-68380736D01*
X143004026Y-67961522D02*
X143576446Y-68533942D01*
X143677461Y-68567614D01*
X143744805Y-68567614D01*
X143845820Y-68533942D01*
X143980507Y-68399255D01*
X144014179Y-68298240D01*
X144014179Y-68230896D01*
X143980507Y-68129881D01*
X143408087Y-67557461D01*
X143677461Y-67288087D02*
X144115194Y-66850355D01*
X144148866Y-67355431D01*
X144249881Y-67254416D01*
X144350896Y-67220744D01*
X144418240Y-67220744D01*
X144519255Y-67254416D01*
X144687614Y-67422774D01*
X144721286Y-67523790D01*
X144721286Y-67591133D01*
X144687614Y-67692148D01*
X144485583Y-67894179D01*
X144384568Y-67927851D01*
X144317225Y-67927851D01*
%TO.C,J1*%
X34878210Y-9079782D02*
X34977620Y-9787116D01*
X34950346Y-9935210D01*
X34869289Y-10042776D01*
X34734450Y-10109814D01*
X34640138Y-10123068D01*
X36007651Y-9930877D02*
X35441784Y-10010404D01*
X35724718Y-9970641D02*
X35585545Y-8980373D01*
X35511115Y-9135094D01*
X35430059Y-9242660D01*
X35342375Y-9303070D01*
%TO.C,SW19*%
X57892380Y-99948571D02*
X57416190Y-100281904D01*
X57892380Y-100520000D02*
X56892380Y-100520000D01*
X56892380Y-100139047D01*
X56940000Y-100043809D01*
X56987619Y-99996190D01*
X57082857Y-99948571D01*
X57225714Y-99948571D01*
X57320952Y-99996190D01*
X57368571Y-100043809D01*
X57416190Y-100139047D01*
X57416190Y-100520000D01*
X57892380Y-99377142D02*
X57844761Y-99472380D01*
X57797142Y-99520000D01*
X57701904Y-99567619D01*
X57416190Y-99567619D01*
X57320952Y-99520000D01*
X57273333Y-99472380D01*
X57225714Y-99377142D01*
X57225714Y-99234285D01*
X57273333Y-99139047D01*
X57320952Y-99091428D01*
X57416190Y-99043809D01*
X57701904Y-99043809D01*
X57797142Y-99091428D01*
X57844761Y-99139047D01*
X57892380Y-99234285D01*
X57892380Y-99377142D01*
X57225714Y-98758095D02*
X57225714Y-98377142D01*
X56892380Y-98615238D02*
X57749523Y-98615238D01*
X57844761Y-98567619D01*
X57892380Y-98472380D01*
X57892380Y-98377142D01*
X57892380Y-97615238D02*
X57368571Y-97615238D01*
X57273333Y-97662857D01*
X57225714Y-97758095D01*
X57225714Y-97948571D01*
X57273333Y-98043809D01*
X57844761Y-97615238D02*
X57892380Y-97710476D01*
X57892380Y-97948571D01*
X57844761Y-98043809D01*
X57749523Y-98091428D01*
X57654285Y-98091428D01*
X57559047Y-98043809D01*
X57511428Y-97948571D01*
X57511428Y-97710476D01*
X57463809Y-97615238D01*
X57892380Y-97139047D02*
X57225714Y-97139047D01*
X57416190Y-97139047D02*
X57320952Y-97091428D01*
X57273333Y-97043809D01*
X57225714Y-96948571D01*
X57225714Y-96853333D01*
X57225714Y-96615238D02*
X57892380Y-96377142D01*
X57225714Y-96139047D02*
X57892380Y-96377142D01*
X58130476Y-96472380D01*
X58178095Y-96520000D01*
X58225714Y-96615238D01*
X57987619Y-95996190D02*
X57987619Y-95234285D01*
X57368571Y-94996190D02*
X57368571Y-94662857D01*
X57892380Y-94520000D02*
X57892380Y-94996190D01*
X56892380Y-94996190D01*
X56892380Y-94520000D01*
X57225714Y-94091428D02*
X57892380Y-94091428D01*
X57320952Y-94091428D02*
X57273333Y-94043809D01*
X57225714Y-93948571D01*
X57225714Y-93805714D01*
X57273333Y-93710476D01*
X57368571Y-93662857D01*
X57892380Y-93662857D01*
X57844761Y-92758095D02*
X57892380Y-92853333D01*
X57892380Y-93043809D01*
X57844761Y-93139047D01*
X57797142Y-93186666D01*
X57701904Y-93234285D01*
X57416190Y-93234285D01*
X57320952Y-93186666D01*
X57273333Y-93139047D01*
X57225714Y-93043809D01*
X57225714Y-92853333D01*
X57273333Y-92758095D01*
X57892380Y-92186666D02*
X57844761Y-92281904D01*
X57797142Y-92329523D01*
X57701904Y-92377142D01*
X57416190Y-92377142D01*
X57320952Y-92329523D01*
X57273333Y-92281904D01*
X57225714Y-92186666D01*
X57225714Y-92043809D01*
X57273333Y-91948571D01*
X57320952Y-91900952D01*
X57416190Y-91853333D01*
X57701904Y-91853333D01*
X57797142Y-91900952D01*
X57844761Y-91948571D01*
X57892380Y-92043809D01*
X57892380Y-92186666D01*
X57892380Y-90996190D02*
X56892380Y-90996190D01*
X57844761Y-90996190D02*
X57892380Y-91091428D01*
X57892380Y-91281904D01*
X57844761Y-91377142D01*
X57797142Y-91424761D01*
X57701904Y-91472380D01*
X57416190Y-91472380D01*
X57320952Y-91424761D01*
X57273333Y-91377142D01*
X57225714Y-91281904D01*
X57225714Y-91091428D01*
X57273333Y-90996190D01*
X57844761Y-90139047D02*
X57892380Y-90234285D01*
X57892380Y-90424761D01*
X57844761Y-90520000D01*
X57749523Y-90567619D01*
X57368571Y-90567619D01*
X57273333Y-90520000D01*
X57225714Y-90424761D01*
X57225714Y-90234285D01*
X57273333Y-90139047D01*
X57368571Y-90091428D01*
X57463809Y-90091428D01*
X57559047Y-90567619D01*
X57892380Y-89662857D02*
X57225714Y-89662857D01*
X57416190Y-89662857D02*
X57320952Y-89615238D01*
X57273333Y-89567619D01*
X57225714Y-89472380D01*
X57225714Y-89377142D01*
X63580476Y-99174761D02*
X63723333Y-99222380D01*
X63961428Y-99222380D01*
X64056666Y-99174761D01*
X64104285Y-99127142D01*
X64151904Y-99031904D01*
X64151904Y-98936666D01*
X64104285Y-98841428D01*
X64056666Y-98793809D01*
X63961428Y-98746190D01*
X63770952Y-98698571D01*
X63675714Y-98650952D01*
X63628095Y-98603333D01*
X63580476Y-98508095D01*
X63580476Y-98412857D01*
X63628095Y-98317619D01*
X63675714Y-98270000D01*
X63770952Y-98222380D01*
X64009047Y-98222380D01*
X64151904Y-98270000D01*
X64485238Y-98222380D02*
X64723333Y-99222380D01*
X64913809Y-98508095D01*
X65104285Y-99222380D01*
X65342380Y-98222380D01*
X66247142Y-99222380D02*
X65675714Y-99222380D01*
X65961428Y-99222380D02*
X65961428Y-98222380D01*
X65866190Y-98365238D01*
X65770952Y-98460476D01*
X65675714Y-98508095D01*
X66723333Y-99222380D02*
X66913809Y-99222380D01*
X67009047Y-99174761D01*
X67056666Y-99127142D01*
X67151904Y-98984285D01*
X67199523Y-98793809D01*
X67199523Y-98412857D01*
X67151904Y-98317619D01*
X67104285Y-98270000D01*
X67009047Y-98222380D01*
X66818571Y-98222380D01*
X66723333Y-98270000D01*
X66675714Y-98317619D01*
X66628095Y-98412857D01*
X66628095Y-98650952D01*
X66675714Y-98746190D01*
X66723333Y-98793809D01*
X66818571Y-98841428D01*
X67009047Y-98841428D01*
X67104285Y-98793809D01*
X67151904Y-98746190D01*
X67199523Y-98650952D01*
%TO.C,L39*%
X131484306Y-21830425D02*
X131103353Y-21830425D01*
X131103353Y-21030425D01*
X131674782Y-21030425D02*
X132170020Y-21030425D01*
X131903353Y-21335187D01*
X132017639Y-21335187D01*
X132093830Y-21373282D01*
X132131925Y-21411378D01*
X132170020Y-21487568D01*
X132170020Y-21678044D01*
X132131925Y-21754235D01*
X132093830Y-21792330D01*
X132017639Y-21830425D01*
X131789068Y-21830425D01*
X131712877Y-21792330D01*
X131674782Y-21754235D01*
X132550972Y-21830425D02*
X132703353Y-21830425D01*
X132779544Y-21792330D01*
X132817639Y-21754235D01*
X132893830Y-21639949D01*
X132931925Y-21487568D01*
X132931925Y-21182806D01*
X132893830Y-21106616D01*
X132855734Y-21068521D01*
X132779544Y-21030425D01*
X132627163Y-21030425D01*
X132550972Y-21068521D01*
X132512877Y-21106616D01*
X132474782Y-21182806D01*
X132474782Y-21373282D01*
X132512877Y-21449473D01*
X132550972Y-21487568D01*
X132627163Y-21525663D01*
X132779544Y-21525663D01*
X132855734Y-21487568D01*
X132893830Y-21449473D01*
X132931925Y-21373282D01*
%TO.C,L38*%
X149915714Y-40421904D02*
X149534761Y-40421904D01*
X149534761Y-39621904D01*
X150106190Y-39621904D02*
X150601428Y-39621904D01*
X150334761Y-39926666D01*
X150449047Y-39926666D01*
X150525238Y-39964761D01*
X150563333Y-40002857D01*
X150601428Y-40079047D01*
X150601428Y-40269523D01*
X150563333Y-40345714D01*
X150525238Y-40383809D01*
X150449047Y-40421904D01*
X150220476Y-40421904D01*
X150144285Y-40383809D01*
X150106190Y-40345714D01*
X151058571Y-39964761D02*
X150982380Y-39926666D01*
X150944285Y-39888571D01*
X150906190Y-39812380D01*
X150906190Y-39774285D01*
X150944285Y-39698095D01*
X150982380Y-39660000D01*
X151058571Y-39621904D01*
X151210952Y-39621904D01*
X151287142Y-39660000D01*
X151325238Y-39698095D01*
X151363333Y-39774285D01*
X151363333Y-39812380D01*
X151325238Y-39888571D01*
X151287142Y-39926666D01*
X151210952Y-39964761D01*
X151058571Y-39964761D01*
X150982380Y-40002857D01*
X150944285Y-40040952D01*
X150906190Y-40117142D01*
X150906190Y-40269523D01*
X150944285Y-40345714D01*
X150982380Y-40383809D01*
X151058571Y-40421904D01*
X151210952Y-40421904D01*
X151287142Y-40383809D01*
X151325238Y-40345714D01*
X151363333Y-40269523D01*
X151363333Y-40117142D01*
X151325238Y-40040952D01*
X151287142Y-40002857D01*
X151210952Y-39964761D01*
%TO.C,L37*%
X150245714Y-85961904D02*
X149864761Y-85961904D01*
X149864761Y-85161904D01*
X150436190Y-85161904D02*
X150931428Y-85161904D01*
X150664761Y-85466666D01*
X150779047Y-85466666D01*
X150855238Y-85504761D01*
X150893333Y-85542857D01*
X150931428Y-85619047D01*
X150931428Y-85809523D01*
X150893333Y-85885714D01*
X150855238Y-85923809D01*
X150779047Y-85961904D01*
X150550476Y-85961904D01*
X150474285Y-85923809D01*
X150436190Y-85885714D01*
X151198095Y-85161904D02*
X151731428Y-85161904D01*
X151388571Y-85961904D01*
%TO.C,L36*%
X120085646Y-115390873D02*
X119710481Y-115324722D01*
X119849400Y-114536875D01*
X120412147Y-114636103D02*
X120899861Y-114722100D01*
X120584324Y-114975926D01*
X120696874Y-114995771D01*
X120765292Y-115046518D01*
X120796193Y-115090650D01*
X120820479Y-115172298D01*
X120787403Y-115359880D01*
X120736656Y-115428298D01*
X120692525Y-115459200D01*
X120610877Y-115483486D01*
X120385778Y-115443795D01*
X120317360Y-115393048D01*
X120286459Y-115348916D01*
X121575158Y-114841173D02*
X121425092Y-114814713D01*
X121343444Y-114838999D01*
X121299312Y-114869900D01*
X121204434Y-114969219D01*
X121140456Y-115112670D01*
X121087535Y-115412802D01*
X121111821Y-115494450D01*
X121142723Y-115538582D01*
X121211140Y-115589328D01*
X121361206Y-115615789D01*
X121442854Y-115591503D01*
X121486986Y-115560602D01*
X121537733Y-115492184D01*
X121570809Y-115304601D01*
X121546523Y-115222953D01*
X121515621Y-115178822D01*
X121447204Y-115128075D01*
X121297138Y-115101614D01*
X121215489Y-115125900D01*
X121171358Y-115156802D01*
X121120611Y-115225219D01*
%TO.C,L35*%
X62860038Y-96829625D02*
X62479085Y-96829625D01*
X62479085Y-96029625D01*
X63050514Y-96029625D02*
X63545752Y-96029625D01*
X63279085Y-96334387D01*
X63393371Y-96334387D01*
X63469562Y-96372482D01*
X63507657Y-96410578D01*
X63545752Y-96486768D01*
X63545752Y-96677244D01*
X63507657Y-96753435D01*
X63469562Y-96791530D01*
X63393371Y-96829625D01*
X63164800Y-96829625D01*
X63088609Y-96791530D01*
X63050514Y-96753435D01*
X64269562Y-96029625D02*
X63888609Y-96029625D01*
X63850514Y-96410578D01*
X63888609Y-96372482D01*
X63964800Y-96334387D01*
X64155276Y-96334387D01*
X64231466Y-96372482D01*
X64269562Y-96410578D01*
X64307657Y-96486768D01*
X64307657Y-96677244D01*
X64269562Y-96753435D01*
X64231466Y-96791530D01*
X64155276Y-96829625D01*
X63964800Y-96829625D01*
X63888609Y-96791530D01*
X63850514Y-96753435D01*
%TO.C,L34*%
X22454219Y-71892391D02*
X22073266Y-71892391D01*
X22073266Y-71092391D01*
X22644695Y-71092391D02*
X23139933Y-71092391D01*
X22873266Y-71397153D01*
X22987552Y-71397153D01*
X23063743Y-71435248D01*
X23101838Y-71473344D01*
X23139933Y-71549534D01*
X23139933Y-71740010D01*
X23101838Y-71816201D01*
X23063743Y-71854296D01*
X22987552Y-71892391D01*
X22758981Y-71892391D01*
X22682790Y-71854296D01*
X22644695Y-71816201D01*
X23825647Y-71359058D02*
X23825647Y-71892391D01*
X23635171Y-71054296D02*
X23444695Y-71625725D01*
X23939933Y-71625725D01*
%TO.C,L33*%
X19360502Y-31299074D02*
X18979549Y-31299074D01*
X18979549Y-30499074D01*
X19550978Y-30499074D02*
X20046216Y-30499074D01*
X19779549Y-30803836D01*
X19893835Y-30803836D01*
X19970026Y-30841931D01*
X20008121Y-30880027D01*
X20046216Y-30956217D01*
X20046216Y-31146693D01*
X20008121Y-31222884D01*
X19970026Y-31260979D01*
X19893835Y-31299074D01*
X19665264Y-31299074D01*
X19589073Y-31260979D01*
X19550978Y-31222884D01*
X20312883Y-30499074D02*
X20808121Y-30499074D01*
X20541454Y-30803836D01*
X20655740Y-30803836D01*
X20731930Y-30841931D01*
X20770026Y-30880027D01*
X20808121Y-30956217D01*
X20808121Y-31146693D01*
X20770026Y-31222884D01*
X20731930Y-31260979D01*
X20655740Y-31299074D01*
X20427168Y-31299074D01*
X20350978Y-31260979D01*
X20312883Y-31222884D01*
%TO.C,L32*%
X20370714Y-24720545D02*
X19989761Y-24720545D01*
X19989761Y-23920545D01*
X20561190Y-23920545D02*
X21056428Y-23920545D01*
X20789761Y-24225307D01*
X20904047Y-24225307D01*
X20980238Y-24263402D01*
X21018333Y-24301498D01*
X21056428Y-24377688D01*
X21056428Y-24568164D01*
X21018333Y-24644355D01*
X20980238Y-24682450D01*
X20904047Y-24720545D01*
X20675476Y-24720545D01*
X20599285Y-24682450D01*
X20561190Y-24644355D01*
X21361190Y-23996736D02*
X21399285Y-23958641D01*
X21475476Y-23920545D01*
X21665952Y-23920545D01*
X21742142Y-23958641D01*
X21780238Y-23996736D01*
X21818333Y-24072926D01*
X21818333Y-24149117D01*
X21780238Y-24263402D01*
X21323095Y-24720545D01*
X21818333Y-24720545D01*
%TO.C,L31*%
X33040714Y-20720545D02*
X32659761Y-20720545D01*
X32659761Y-19920545D01*
X33231190Y-19920545D02*
X33726428Y-19920545D01*
X33459761Y-20225307D01*
X33574047Y-20225307D01*
X33650238Y-20263402D01*
X33688333Y-20301498D01*
X33726428Y-20377688D01*
X33726428Y-20568164D01*
X33688333Y-20644355D01*
X33650238Y-20682450D01*
X33574047Y-20720545D01*
X33345476Y-20720545D01*
X33269285Y-20682450D01*
X33231190Y-20644355D01*
X34488333Y-20720545D02*
X34031190Y-20720545D01*
X34259761Y-20720545D02*
X34259761Y-19920545D01*
X34183571Y-20034831D01*
X34107380Y-20111021D01*
X34031190Y-20149117D01*
%TO.C,L30*%
X45710714Y-17220545D02*
X45329761Y-17220545D01*
X45329761Y-16420545D01*
X45901190Y-16420545D02*
X46396428Y-16420545D01*
X46129761Y-16725307D01*
X46244047Y-16725307D01*
X46320238Y-16763402D01*
X46358333Y-16801498D01*
X46396428Y-16877688D01*
X46396428Y-17068164D01*
X46358333Y-17144355D01*
X46320238Y-17182450D01*
X46244047Y-17220545D01*
X46015476Y-17220545D01*
X45939285Y-17182450D01*
X45901190Y-17144355D01*
X46891666Y-16420545D02*
X46967857Y-16420545D01*
X47044047Y-16458641D01*
X47082142Y-16496736D01*
X47120238Y-16572926D01*
X47158333Y-16725307D01*
X47158333Y-16915783D01*
X47120238Y-17068164D01*
X47082142Y-17144355D01*
X47044047Y-17182450D01*
X46967857Y-17220545D01*
X46891666Y-17220545D01*
X46815476Y-17182450D01*
X46777380Y-17144355D01*
X46739285Y-17068164D01*
X46701190Y-16915783D01*
X46701190Y-16725307D01*
X46739285Y-16572926D01*
X46777380Y-16496736D01*
X46815476Y-16458641D01*
X46891666Y-16420545D01*
%TO.C,L29*%
X58370714Y-12120545D02*
X57989761Y-12120545D01*
X57989761Y-11320545D01*
X58599285Y-11396736D02*
X58637380Y-11358641D01*
X58713571Y-11320545D01*
X58904047Y-11320545D01*
X58980238Y-11358641D01*
X59018333Y-11396736D01*
X59056428Y-11472926D01*
X59056428Y-11549117D01*
X59018333Y-11663402D01*
X58561190Y-12120545D01*
X59056428Y-12120545D01*
X59437380Y-12120545D02*
X59589761Y-12120545D01*
X59665952Y-12082450D01*
X59704047Y-12044355D01*
X59780238Y-11930069D01*
X59818333Y-11777688D01*
X59818333Y-11472926D01*
X59780238Y-11396736D01*
X59742142Y-11358641D01*
X59665952Y-11320545D01*
X59513571Y-11320545D01*
X59437380Y-11358641D01*
X59399285Y-11396736D01*
X59361190Y-11472926D01*
X59361190Y-11663402D01*
X59399285Y-11739593D01*
X59437380Y-11777688D01*
X59513571Y-11815783D01*
X59665952Y-11815783D01*
X59742142Y-11777688D01*
X59780238Y-11739593D01*
X59818333Y-11663402D01*
%TO.C,L28*%
X71040714Y-10391904D02*
X70659761Y-10391904D01*
X70659761Y-9591904D01*
X71269285Y-9668095D02*
X71307380Y-9630000D01*
X71383571Y-9591904D01*
X71574047Y-9591904D01*
X71650238Y-9630000D01*
X71688333Y-9668095D01*
X71726428Y-9744285D01*
X71726428Y-9820476D01*
X71688333Y-9934761D01*
X71231190Y-10391904D01*
X71726428Y-10391904D01*
X72183571Y-9934761D02*
X72107380Y-9896666D01*
X72069285Y-9858571D01*
X72031190Y-9782380D01*
X72031190Y-9744285D01*
X72069285Y-9668095D01*
X72107380Y-9630000D01*
X72183571Y-9591904D01*
X72335952Y-9591904D01*
X72412142Y-9630000D01*
X72450238Y-9668095D01*
X72488333Y-9744285D01*
X72488333Y-9782380D01*
X72450238Y-9858571D01*
X72412142Y-9896666D01*
X72335952Y-9934761D01*
X72183571Y-9934761D01*
X72107380Y-9972857D01*
X72069285Y-10010952D01*
X72031190Y-10087142D01*
X72031190Y-10239523D01*
X72069285Y-10315714D01*
X72107380Y-10353809D01*
X72183571Y-10391904D01*
X72335952Y-10391904D01*
X72412142Y-10353809D01*
X72450238Y-10315714D01*
X72488333Y-10239523D01*
X72488333Y-10087142D01*
X72450238Y-10010952D01*
X72412142Y-9972857D01*
X72335952Y-9934761D01*
%TO.C,L27*%
X83710714Y-10731904D02*
X83329761Y-10731904D01*
X83329761Y-9931904D01*
X83939285Y-10008095D02*
X83977380Y-9970000D01*
X84053571Y-9931904D01*
X84244047Y-9931904D01*
X84320238Y-9970000D01*
X84358333Y-10008095D01*
X84396428Y-10084285D01*
X84396428Y-10160476D01*
X84358333Y-10274761D01*
X83901190Y-10731904D01*
X84396428Y-10731904D01*
X84663095Y-9931904D02*
X85196428Y-9931904D01*
X84853571Y-10731904D01*
%TO.C,L26*%
X96370714Y-14361904D02*
X95989761Y-14361904D01*
X95989761Y-13561904D01*
X96599285Y-13638095D02*
X96637380Y-13600000D01*
X96713571Y-13561904D01*
X96904047Y-13561904D01*
X96980238Y-13600000D01*
X97018333Y-13638095D01*
X97056428Y-13714285D01*
X97056428Y-13790476D01*
X97018333Y-13904761D01*
X96561190Y-14361904D01*
X97056428Y-14361904D01*
X97742142Y-13561904D02*
X97589761Y-13561904D01*
X97513571Y-13600000D01*
X97475476Y-13638095D01*
X97399285Y-13752380D01*
X97361190Y-13904761D01*
X97361190Y-14209523D01*
X97399285Y-14285714D01*
X97437380Y-14323809D01*
X97513571Y-14361904D01*
X97665952Y-14361904D01*
X97742142Y-14323809D01*
X97780238Y-14285714D01*
X97818333Y-14209523D01*
X97818333Y-14019047D01*
X97780238Y-13942857D01*
X97742142Y-13904761D01*
X97665952Y-13866666D01*
X97513571Y-13866666D01*
X97437380Y-13904761D01*
X97399285Y-13942857D01*
X97361190Y-14019047D01*
%TO.C,L25*%
X109040714Y-16361904D02*
X108659761Y-16361904D01*
X108659761Y-15561904D01*
X109269285Y-15638095D02*
X109307380Y-15600000D01*
X109383571Y-15561904D01*
X109574047Y-15561904D01*
X109650238Y-15600000D01*
X109688333Y-15638095D01*
X109726428Y-15714285D01*
X109726428Y-15790476D01*
X109688333Y-15904761D01*
X109231190Y-16361904D01*
X109726428Y-16361904D01*
X110450238Y-15561904D02*
X110069285Y-15561904D01*
X110031190Y-15942857D01*
X110069285Y-15904761D01*
X110145476Y-15866666D01*
X110335952Y-15866666D01*
X110412142Y-15904761D01*
X110450238Y-15942857D01*
X110488333Y-16019047D01*
X110488333Y-16209523D01*
X110450238Y-16285714D01*
X110412142Y-16323809D01*
X110335952Y-16361904D01*
X110145476Y-16361904D01*
X110069285Y-16323809D01*
X110031190Y-16285714D01*
%TO.C,L24*%
X121710714Y-17861904D02*
X121329761Y-17861904D01*
X121329761Y-17061904D01*
X121939285Y-17138095D02*
X121977380Y-17100000D01*
X122053571Y-17061904D01*
X122244047Y-17061904D01*
X122320238Y-17100000D01*
X122358333Y-17138095D01*
X122396428Y-17214285D01*
X122396428Y-17290476D01*
X122358333Y-17404761D01*
X121901190Y-17861904D01*
X122396428Y-17861904D01*
X123082142Y-17328571D02*
X123082142Y-17861904D01*
X122891666Y-17023809D02*
X122701190Y-17595238D01*
X123196428Y-17595238D01*
%TO.C,R5*%
X133238095Y-69514732D02*
X133285714Y-69467113D01*
X133380952Y-69419493D01*
X133619047Y-69419493D01*
X133714285Y-69467113D01*
X133761904Y-69514732D01*
X133809523Y-69609970D01*
X133809523Y-69705208D01*
X133761904Y-69848065D01*
X133190476Y-70419493D01*
X133809523Y-70419493D01*
X134190476Y-69514732D02*
X134238095Y-69467113D01*
X134333333Y-69419493D01*
X134571428Y-69419493D01*
X134666666Y-69467113D01*
X134714285Y-69514732D01*
X134761904Y-69609970D01*
X134761904Y-69705208D01*
X134714285Y-69848065D01*
X134142857Y-70419493D01*
X134761904Y-70419493D01*
D15*
X133916666Y-71843303D02*
X133750000Y-71605208D01*
X133630952Y-71843303D02*
X133630952Y-71343303D01*
X133821428Y-71343303D01*
X133869047Y-71367113D01*
X133892857Y-71390922D01*
X133916666Y-71438541D01*
X133916666Y-71509970D01*
X133892857Y-71557589D01*
X133869047Y-71581398D01*
X133821428Y-71605208D01*
X133630952Y-71605208D01*
X134369047Y-71343303D02*
X134130952Y-71343303D01*
X134107142Y-71581398D01*
X134130952Y-71557589D01*
X134178571Y-71533779D01*
X134297619Y-71533779D01*
X134345238Y-71557589D01*
X134369047Y-71581398D01*
X134392857Y-71629017D01*
X134392857Y-71748065D01*
X134369047Y-71795684D01*
X134345238Y-71819493D01*
X134297619Y-71843303D01*
X134178571Y-71843303D01*
X134130952Y-71819493D01*
X134107142Y-71795684D01*
%TO.C,R7*%
D11*
X133238095Y-71541400D02*
X133285714Y-71493781D01*
X133380952Y-71446161D01*
X133619047Y-71446161D01*
X133714285Y-71493781D01*
X133761904Y-71541400D01*
X133809523Y-71636638D01*
X133809523Y-71731876D01*
X133761904Y-71874733D01*
X133190476Y-72446161D01*
X133809523Y-72446161D01*
X134190476Y-71541400D02*
X134238095Y-71493781D01*
X134333333Y-71446161D01*
X134571428Y-71446161D01*
X134666666Y-71493781D01*
X134714285Y-71541400D01*
X134761904Y-71636638D01*
X134761904Y-71731876D01*
X134714285Y-71874733D01*
X134142857Y-72446161D01*
X134761904Y-72446161D01*
D15*
X133916666Y-73869971D02*
X133750000Y-73631876D01*
X133630952Y-73869971D02*
X133630952Y-73369971D01*
X133821428Y-73369971D01*
X133869047Y-73393781D01*
X133892857Y-73417590D01*
X133916666Y-73465209D01*
X133916666Y-73536638D01*
X133892857Y-73584257D01*
X133869047Y-73608066D01*
X133821428Y-73631876D01*
X133630952Y-73631876D01*
X134083333Y-73369971D02*
X134416666Y-73369971D01*
X134202380Y-73869971D01*
%TO.C,R3*%
D11*
X43851924Y-24068450D02*
X43851924Y-24544640D01*
X44328115Y-24592259D01*
X44280496Y-24544640D01*
X44232877Y-24449402D01*
X44232877Y-24211307D01*
X44280496Y-24116069D01*
X44328115Y-24068450D01*
X44423353Y-24020831D01*
X44661448Y-24020831D01*
X44756686Y-24068450D01*
X44804305Y-24116069D01*
X44851924Y-24211307D01*
X44851924Y-24449402D01*
X44804305Y-24544640D01*
X44756686Y-24592259D01*
X44756686Y-23592259D02*
X44804305Y-23544640D01*
X44851924Y-23592259D01*
X44804305Y-23639878D01*
X44756686Y-23592259D01*
X44851924Y-23592259D01*
X44851924Y-22592259D02*
X44851924Y-23163688D01*
X44851924Y-22877974D02*
X43851924Y-22877974D01*
X43994782Y-22973212D01*
X44090020Y-23068450D01*
X44137639Y-23163688D01*
X44851924Y-22163688D02*
X43851924Y-22163688D01*
X44470972Y-22068450D02*
X44851924Y-21782736D01*
X44185258Y-21782736D02*
X44566210Y-22163688D01*
D15*
X42975734Y-23270831D02*
X42737639Y-23437498D01*
X42975734Y-23556545D02*
X42475734Y-23556545D01*
X42475734Y-23366069D01*
X42499544Y-23318450D01*
X42523353Y-23294640D01*
X42570972Y-23270831D01*
X42642401Y-23270831D01*
X42690020Y-23294640D01*
X42713829Y-23318450D01*
X42737639Y-23366069D01*
X42737639Y-23556545D01*
X42475734Y-23104164D02*
X42475734Y-22794640D01*
X42666210Y-22961307D01*
X42666210Y-22889878D01*
X42690020Y-22842259D01*
X42713829Y-22818450D01*
X42761448Y-22794640D01*
X42880496Y-22794640D01*
X42928115Y-22818450D01*
X42951924Y-22842259D01*
X42975734Y-22889878D01*
X42975734Y-23032736D01*
X42951924Y-23080355D01*
X42928115Y-23104164D01*
%TO.C,R4*%
D11*
X41508199Y-24068450D02*
X41508199Y-24544640D01*
X41984390Y-24592259D01*
X41936771Y-24544640D01*
X41889152Y-24449402D01*
X41889152Y-24211307D01*
X41936771Y-24116069D01*
X41984390Y-24068450D01*
X42079628Y-24020831D01*
X42317723Y-24020831D01*
X42412961Y-24068450D01*
X42460580Y-24116069D01*
X42508199Y-24211307D01*
X42508199Y-24449402D01*
X42460580Y-24544640D01*
X42412961Y-24592259D01*
X42412961Y-23592259D02*
X42460580Y-23544640D01*
X42508199Y-23592259D01*
X42460580Y-23639878D01*
X42412961Y-23592259D01*
X42508199Y-23592259D01*
X42508199Y-22592259D02*
X42508199Y-23163688D01*
X42508199Y-22877974D02*
X41508199Y-22877974D01*
X41651057Y-22973212D01*
X41746295Y-23068450D01*
X41793914Y-23163688D01*
X42508199Y-22163688D02*
X41508199Y-22163688D01*
X42127247Y-22068450D02*
X42508199Y-21782736D01*
X41841533Y-21782736D02*
X42222485Y-22163688D01*
D15*
X40632009Y-23270831D02*
X40393914Y-23437498D01*
X40632009Y-23556545D02*
X40132009Y-23556545D01*
X40132009Y-23366069D01*
X40155819Y-23318450D01*
X40179628Y-23294640D01*
X40227247Y-23270831D01*
X40298676Y-23270831D01*
X40346295Y-23294640D01*
X40370104Y-23318450D01*
X40393914Y-23366069D01*
X40393914Y-23556545D01*
X40298676Y-22842259D02*
X40632009Y-22842259D01*
X40108199Y-22961307D02*
X40465342Y-23080355D01*
X40465342Y-22770831D01*
%TO.C,D1*%
D14*
X15992695Y-38553876D02*
X15179895Y-38553876D01*
X15179895Y-38360352D01*
X15218600Y-38244238D01*
X15296009Y-38166828D01*
X15373419Y-38128123D01*
X15528238Y-38089419D01*
X15644352Y-38089419D01*
X15799171Y-38128123D01*
X15876580Y-38166828D01*
X15953990Y-38244238D01*
X15992695Y-38360352D01*
X15992695Y-38553876D01*
X19992695Y-38940923D02*
X19179895Y-38940923D01*
X19179895Y-38747400D01*
X19218600Y-38631285D01*
X19296009Y-38553876D01*
X19373419Y-38515171D01*
X19528238Y-38476466D01*
X19644352Y-38476466D01*
X19799171Y-38515171D01*
X19876580Y-38553876D01*
X19953990Y-38631285D01*
X19992695Y-38747400D01*
X19992695Y-38940923D01*
X19992695Y-37702371D02*
X19992695Y-38166828D01*
X19992695Y-37934600D02*
X19179895Y-37934600D01*
X19296009Y-38012009D01*
X19373419Y-38089419D01*
X19412123Y-38166828D01*
%TO.C,D2*%
X33292695Y-38753876D02*
X32479895Y-38753876D01*
X32479895Y-38560352D01*
X32518600Y-38444238D01*
X32596009Y-38366828D01*
X32673419Y-38328123D01*
X32828238Y-38289419D01*
X32944352Y-38289419D01*
X33099171Y-38328123D01*
X33176580Y-38366828D01*
X33253990Y-38444238D01*
X33292695Y-38560352D01*
X33292695Y-38753876D01*
X37292695Y-39140923D02*
X36479895Y-39140923D01*
X36479895Y-38947400D01*
X36518600Y-38831285D01*
X36596009Y-38753876D01*
X36673419Y-38715171D01*
X36828238Y-38676466D01*
X36944352Y-38676466D01*
X37099171Y-38715171D01*
X37176580Y-38753876D01*
X37253990Y-38831285D01*
X37292695Y-38947400D01*
X37292695Y-39140923D01*
X36557304Y-38366828D02*
X36518600Y-38328123D01*
X36479895Y-38250714D01*
X36479895Y-38057190D01*
X36518600Y-37979780D01*
X36557304Y-37941076D01*
X36634714Y-37902371D01*
X36712123Y-37902371D01*
X36828238Y-37941076D01*
X37292695Y-38405533D01*
X37292695Y-37902371D01*
%TO.C,D3*%
X52292695Y-23203876D02*
X51479895Y-23203876D01*
X51479895Y-23010352D01*
X51518600Y-22894238D01*
X51596009Y-22816828D01*
X51673419Y-22778123D01*
X51828238Y-22739419D01*
X51944352Y-22739419D01*
X52099171Y-22778123D01*
X52176580Y-22816828D01*
X52253990Y-22894238D01*
X52292695Y-23010352D01*
X52292695Y-23203876D01*
X56292695Y-23590923D02*
X55479895Y-23590923D01*
X55479895Y-23397400D01*
X55518600Y-23281285D01*
X55596009Y-23203876D01*
X55673419Y-23165171D01*
X55828238Y-23126466D01*
X55944352Y-23126466D01*
X56099171Y-23165171D01*
X56176580Y-23203876D01*
X56253990Y-23281285D01*
X56292695Y-23397400D01*
X56292695Y-23590923D01*
X55479895Y-22855533D02*
X55479895Y-22352371D01*
X55789533Y-22623304D01*
X55789533Y-22507190D01*
X55828238Y-22429780D01*
X55866942Y-22391076D01*
X55944352Y-22352371D01*
X56137876Y-22352371D01*
X56215285Y-22391076D01*
X56253990Y-22429780D01*
X56292695Y-22507190D01*
X56292695Y-22739419D01*
X56253990Y-22816828D01*
X56215285Y-22855533D01*
%TO.C,D4*%
X71292695Y-20203876D02*
X70479895Y-20203876D01*
X70479895Y-20010352D01*
X70518600Y-19894238D01*
X70596009Y-19816828D01*
X70673419Y-19778123D01*
X70828238Y-19739419D01*
X70944352Y-19739419D01*
X71099171Y-19778123D01*
X71176580Y-19816828D01*
X71253990Y-19894238D01*
X71292695Y-20010352D01*
X71292695Y-20203876D01*
X75292695Y-20590923D02*
X74479895Y-20590923D01*
X74479895Y-20397400D01*
X74518600Y-20281285D01*
X74596009Y-20203876D01*
X74673419Y-20165171D01*
X74828238Y-20126466D01*
X74944352Y-20126466D01*
X75099171Y-20165171D01*
X75176580Y-20203876D01*
X75253990Y-20281285D01*
X75292695Y-20397400D01*
X75292695Y-20590923D01*
X74750828Y-19429780D02*
X75292695Y-19429780D01*
X74441190Y-19623304D02*
X75021761Y-19816828D01*
X75021761Y-19313666D01*
%TO.C,D5*%
X90292695Y-30203876D02*
X89479895Y-30203876D01*
X89479895Y-30010352D01*
X89518600Y-29894238D01*
X89596009Y-29816828D01*
X89673419Y-29778123D01*
X89828238Y-29739419D01*
X89944352Y-29739419D01*
X90099171Y-29778123D01*
X90176580Y-29816828D01*
X90253990Y-29894238D01*
X90292695Y-30010352D01*
X90292695Y-30203876D01*
X94292695Y-30590923D02*
X93479895Y-30590923D01*
X93479895Y-30397400D01*
X93518600Y-30281285D01*
X93596009Y-30203876D01*
X93673419Y-30165171D01*
X93828238Y-30126466D01*
X93944352Y-30126466D01*
X94099171Y-30165171D01*
X94176580Y-30203876D01*
X94253990Y-30281285D01*
X94292695Y-30397400D01*
X94292695Y-30590923D01*
X93479895Y-29391076D02*
X93479895Y-29778123D01*
X93866942Y-29816828D01*
X93828238Y-29778123D01*
X93789533Y-29700714D01*
X93789533Y-29507190D01*
X93828238Y-29429780D01*
X93866942Y-29391076D01*
X93944352Y-29352371D01*
X94137876Y-29352371D01*
X94215285Y-29391076D01*
X94253990Y-29429780D01*
X94292695Y-29507190D01*
X94292695Y-29700714D01*
X94253990Y-29778123D01*
X94215285Y-29816828D01*
%TO.C,D6*%
X109292695Y-32203876D02*
X108479895Y-32203876D01*
X108479895Y-32010352D01*
X108518600Y-31894238D01*
X108596009Y-31816828D01*
X108673419Y-31778123D01*
X108828238Y-31739419D01*
X108944352Y-31739419D01*
X109099171Y-31778123D01*
X109176580Y-31816828D01*
X109253990Y-31894238D01*
X109292695Y-32010352D01*
X109292695Y-32203876D01*
X113292695Y-32590923D02*
X112479895Y-32590923D01*
X112479895Y-32397400D01*
X112518600Y-32281285D01*
X112596009Y-32203876D01*
X112673419Y-32165171D01*
X112828238Y-32126466D01*
X112944352Y-32126466D01*
X113099171Y-32165171D01*
X113176580Y-32203876D01*
X113253990Y-32281285D01*
X113292695Y-32397400D01*
X113292695Y-32590923D01*
X112479895Y-31429780D02*
X112479895Y-31584600D01*
X112518600Y-31662009D01*
X112557304Y-31700714D01*
X112673419Y-31778123D01*
X112828238Y-31816828D01*
X113137876Y-31816828D01*
X113215285Y-31778123D01*
X113253990Y-31739419D01*
X113292695Y-31662009D01*
X113292695Y-31507190D01*
X113253990Y-31429780D01*
X113215285Y-31391076D01*
X113137876Y-31352371D01*
X112944352Y-31352371D01*
X112866942Y-31391076D01*
X112828238Y-31429780D01*
X112789533Y-31507190D01*
X112789533Y-31662009D01*
X112828238Y-31739419D01*
X112866942Y-31778123D01*
X112944352Y-31816828D01*
%TO.C,D7*%
X15992695Y-57553876D02*
X15179895Y-57553876D01*
X15179895Y-57360352D01*
X15218600Y-57244238D01*
X15296009Y-57166828D01*
X15373419Y-57128123D01*
X15528238Y-57089419D01*
X15644352Y-57089419D01*
X15799171Y-57128123D01*
X15876580Y-57166828D01*
X15953990Y-57244238D01*
X15992695Y-57360352D01*
X15992695Y-57553876D01*
X19992695Y-57940923D02*
X19179895Y-57940923D01*
X19179895Y-57747400D01*
X19218600Y-57631285D01*
X19296009Y-57553876D01*
X19373419Y-57515171D01*
X19528238Y-57476466D01*
X19644352Y-57476466D01*
X19799171Y-57515171D01*
X19876580Y-57553876D01*
X19953990Y-57631285D01*
X19992695Y-57747400D01*
X19992695Y-57940923D01*
X19179895Y-57205533D02*
X19179895Y-56663666D01*
X19992695Y-57012009D01*
%TO.C,D8*%
X33292695Y-57753876D02*
X32479895Y-57753876D01*
X32479895Y-57560352D01*
X32518600Y-57444238D01*
X32596009Y-57366828D01*
X32673419Y-57328123D01*
X32828238Y-57289419D01*
X32944352Y-57289419D01*
X33099171Y-57328123D01*
X33176580Y-57366828D01*
X33253990Y-57444238D01*
X33292695Y-57560352D01*
X33292695Y-57753876D01*
X37292695Y-58140923D02*
X36479895Y-58140923D01*
X36479895Y-57947400D01*
X36518600Y-57831285D01*
X36596009Y-57753876D01*
X36673419Y-57715171D01*
X36828238Y-57676466D01*
X36944352Y-57676466D01*
X37099171Y-57715171D01*
X37176580Y-57753876D01*
X37253990Y-57831285D01*
X37292695Y-57947400D01*
X37292695Y-58140923D01*
X36828238Y-57212009D02*
X36789533Y-57289419D01*
X36750828Y-57328123D01*
X36673419Y-57366828D01*
X36634714Y-57366828D01*
X36557304Y-57328123D01*
X36518600Y-57289419D01*
X36479895Y-57212009D01*
X36479895Y-57057190D01*
X36518600Y-56979780D01*
X36557304Y-56941076D01*
X36634714Y-56902371D01*
X36673419Y-56902371D01*
X36750828Y-56941076D01*
X36789533Y-56979780D01*
X36828238Y-57057190D01*
X36828238Y-57212009D01*
X36866942Y-57289419D01*
X36905647Y-57328123D01*
X36983057Y-57366828D01*
X37137876Y-57366828D01*
X37215285Y-57328123D01*
X37253990Y-57289419D01*
X37292695Y-57212009D01*
X37292695Y-57057190D01*
X37253990Y-56979780D01*
X37215285Y-56941076D01*
X37137876Y-56902371D01*
X36983057Y-56902371D01*
X36905647Y-56941076D01*
X36866942Y-56979780D01*
X36828238Y-57057190D01*
%TO.C,D9*%
X52292695Y-42203876D02*
X51479895Y-42203876D01*
X51479895Y-42010352D01*
X51518600Y-41894238D01*
X51596009Y-41816828D01*
X51673419Y-41778123D01*
X51828238Y-41739419D01*
X51944352Y-41739419D01*
X52099171Y-41778123D01*
X52176580Y-41816828D01*
X52253990Y-41894238D01*
X52292695Y-42010352D01*
X52292695Y-42203876D01*
X56292695Y-42590923D02*
X55479895Y-42590923D01*
X55479895Y-42397400D01*
X55518600Y-42281285D01*
X55596009Y-42203876D01*
X55673419Y-42165171D01*
X55828238Y-42126466D01*
X55944352Y-42126466D01*
X56099171Y-42165171D01*
X56176580Y-42203876D01*
X56253990Y-42281285D01*
X56292695Y-42397400D01*
X56292695Y-42590923D01*
X56292695Y-41739419D02*
X56292695Y-41584600D01*
X56253990Y-41507190D01*
X56215285Y-41468485D01*
X56099171Y-41391076D01*
X55944352Y-41352371D01*
X55634714Y-41352371D01*
X55557304Y-41391076D01*
X55518600Y-41429780D01*
X55479895Y-41507190D01*
X55479895Y-41662009D01*
X55518600Y-41739419D01*
X55557304Y-41778123D01*
X55634714Y-41816828D01*
X55828238Y-41816828D01*
X55905647Y-41778123D01*
X55944352Y-41739419D01*
X55983057Y-41662009D01*
X55983057Y-41507190D01*
X55944352Y-41429780D01*
X55905647Y-41391076D01*
X55828238Y-41352371D01*
%TO.C,D10*%
X71292695Y-39203876D02*
X70479895Y-39203876D01*
X70479895Y-39010352D01*
X70518600Y-38894238D01*
X70596009Y-38816828D01*
X70673419Y-38778123D01*
X70828238Y-38739419D01*
X70944352Y-38739419D01*
X71099171Y-38778123D01*
X71176580Y-38816828D01*
X71253990Y-38894238D01*
X71292695Y-39010352D01*
X71292695Y-39203876D01*
X75292695Y-39977971D02*
X74479895Y-39977971D01*
X74479895Y-39784447D01*
X74518600Y-39668333D01*
X74596009Y-39590923D01*
X74673419Y-39552219D01*
X74828238Y-39513514D01*
X74944352Y-39513514D01*
X75099171Y-39552219D01*
X75176580Y-39590923D01*
X75253990Y-39668333D01*
X75292695Y-39784447D01*
X75292695Y-39977971D01*
X75292695Y-38739419D02*
X75292695Y-39203876D01*
X75292695Y-38971647D02*
X74479895Y-38971647D01*
X74596009Y-39049057D01*
X74673419Y-39126466D01*
X74712123Y-39203876D01*
X74479895Y-38236257D02*
X74479895Y-38158847D01*
X74518600Y-38081438D01*
X74557304Y-38042733D01*
X74634714Y-38004028D01*
X74789533Y-37965323D01*
X74983057Y-37965323D01*
X75137876Y-38004028D01*
X75215285Y-38042733D01*
X75253990Y-38081438D01*
X75292695Y-38158847D01*
X75292695Y-38236257D01*
X75253990Y-38313666D01*
X75215285Y-38352371D01*
X75137876Y-38391076D01*
X74983057Y-38429780D01*
X74789533Y-38429780D01*
X74634714Y-38391076D01*
X74557304Y-38352371D01*
X74518600Y-38313666D01*
X74479895Y-38236257D01*
%TO.C,D11*%
X90292695Y-49203876D02*
X89479895Y-49203876D01*
X89479895Y-49010352D01*
X89518600Y-48894238D01*
X89596009Y-48816828D01*
X89673419Y-48778123D01*
X89828238Y-48739419D01*
X89944352Y-48739419D01*
X90099171Y-48778123D01*
X90176580Y-48816828D01*
X90253990Y-48894238D01*
X90292695Y-49010352D01*
X90292695Y-49203876D01*
X94292695Y-49977971D02*
X93479895Y-49977971D01*
X93479895Y-49784447D01*
X93518600Y-49668333D01*
X93596009Y-49590923D01*
X93673419Y-49552219D01*
X93828238Y-49513514D01*
X93944352Y-49513514D01*
X94099171Y-49552219D01*
X94176580Y-49590923D01*
X94253990Y-49668333D01*
X94292695Y-49784447D01*
X94292695Y-49977971D01*
X94292695Y-48739419D02*
X94292695Y-49203876D01*
X94292695Y-48971647D02*
X93479895Y-48971647D01*
X93596009Y-49049057D01*
X93673419Y-49126466D01*
X93712123Y-49203876D01*
X94292695Y-47965323D02*
X94292695Y-48429780D01*
X94292695Y-48197552D02*
X93479895Y-48197552D01*
X93596009Y-48274961D01*
X93673419Y-48352371D01*
X93712123Y-48429780D01*
%TO.C,D12*%
X109292695Y-51203876D02*
X108479895Y-51203876D01*
X108479895Y-51010352D01*
X108518600Y-50894238D01*
X108596009Y-50816828D01*
X108673419Y-50778123D01*
X108828238Y-50739419D01*
X108944352Y-50739419D01*
X109099171Y-50778123D01*
X109176580Y-50816828D01*
X109253990Y-50894238D01*
X109292695Y-51010352D01*
X109292695Y-51203876D01*
X113292695Y-51977971D02*
X112479895Y-51977971D01*
X112479895Y-51784447D01*
X112518600Y-51668333D01*
X112596009Y-51590923D01*
X112673419Y-51552219D01*
X112828238Y-51513514D01*
X112944352Y-51513514D01*
X113099171Y-51552219D01*
X113176580Y-51590923D01*
X113253990Y-51668333D01*
X113292695Y-51784447D01*
X113292695Y-51977971D01*
X113292695Y-50739419D02*
X113292695Y-51203876D01*
X113292695Y-50971647D02*
X112479895Y-50971647D01*
X112596009Y-51049057D01*
X112673419Y-51126466D01*
X112712123Y-51203876D01*
X112557304Y-50429780D02*
X112518600Y-50391076D01*
X112479895Y-50313666D01*
X112479895Y-50120142D01*
X112518600Y-50042733D01*
X112557304Y-50004028D01*
X112634714Y-49965323D01*
X112712123Y-49965323D01*
X112828238Y-50004028D01*
X113292695Y-50468485D01*
X113292695Y-49965323D01*
%TO.C,D13*%
X15798758Y-75493323D02*
X14985958Y-75493323D01*
X14985958Y-75299799D01*
X15024663Y-75183685D01*
X15102072Y-75106275D01*
X15179482Y-75067570D01*
X15334301Y-75028866D01*
X15450415Y-75028866D01*
X15605234Y-75067570D01*
X15682643Y-75106275D01*
X15760053Y-75183685D01*
X15798758Y-75299799D01*
X15798758Y-75493323D01*
X19798758Y-76267418D02*
X18985958Y-76267418D01*
X18985958Y-76073894D01*
X19024663Y-75957780D01*
X19102072Y-75880370D01*
X19179482Y-75841666D01*
X19334301Y-75802961D01*
X19450415Y-75802961D01*
X19605234Y-75841666D01*
X19682643Y-75880370D01*
X19760053Y-75957780D01*
X19798758Y-76073894D01*
X19798758Y-76267418D01*
X19798758Y-75028866D02*
X19798758Y-75493323D01*
X19798758Y-75261094D02*
X18985958Y-75261094D01*
X19102072Y-75338504D01*
X19179482Y-75415913D01*
X19218186Y-75493323D01*
X18985958Y-74757932D02*
X18985958Y-74254770D01*
X19295596Y-74525704D01*
X19295596Y-74409589D01*
X19334301Y-74332180D01*
X19373005Y-74293475D01*
X19450415Y-74254770D01*
X19643939Y-74254770D01*
X19721348Y-74293475D01*
X19760053Y-74332180D01*
X19798758Y-74409589D01*
X19798758Y-74641818D01*
X19760053Y-74719227D01*
X19721348Y-74757932D01*
%TO.C,D14*%
X33292695Y-76753876D02*
X32479895Y-76753876D01*
X32479895Y-76560352D01*
X32518600Y-76444238D01*
X32596009Y-76366828D01*
X32673419Y-76328123D01*
X32828238Y-76289419D01*
X32944352Y-76289419D01*
X33099171Y-76328123D01*
X33176580Y-76366828D01*
X33253990Y-76444238D01*
X33292695Y-76560352D01*
X33292695Y-76753876D01*
X37292695Y-77527971D02*
X36479895Y-77527971D01*
X36479895Y-77334447D01*
X36518600Y-77218333D01*
X36596009Y-77140923D01*
X36673419Y-77102219D01*
X36828238Y-77063514D01*
X36944352Y-77063514D01*
X37099171Y-77102219D01*
X37176580Y-77140923D01*
X37253990Y-77218333D01*
X37292695Y-77334447D01*
X37292695Y-77527971D01*
X37292695Y-76289419D02*
X37292695Y-76753876D01*
X37292695Y-76521647D02*
X36479895Y-76521647D01*
X36596009Y-76599057D01*
X36673419Y-76676466D01*
X36712123Y-76753876D01*
X36750828Y-75592733D02*
X37292695Y-75592733D01*
X36441190Y-75786257D02*
X37021761Y-75979780D01*
X37021761Y-75476619D01*
%TO.C,D15*%
X52292695Y-61203876D02*
X51479895Y-61203876D01*
X51479895Y-61010352D01*
X51518600Y-60894238D01*
X51596009Y-60816828D01*
X51673419Y-60778123D01*
X51828238Y-60739419D01*
X51944352Y-60739419D01*
X52099171Y-60778123D01*
X52176580Y-60816828D01*
X52253990Y-60894238D01*
X52292695Y-61010352D01*
X52292695Y-61203876D01*
X56292695Y-61977971D02*
X55479895Y-61977971D01*
X55479895Y-61784447D01*
X55518600Y-61668333D01*
X55596009Y-61590923D01*
X55673419Y-61552219D01*
X55828238Y-61513514D01*
X55944352Y-61513514D01*
X56099171Y-61552219D01*
X56176580Y-61590923D01*
X56253990Y-61668333D01*
X56292695Y-61784447D01*
X56292695Y-61977971D01*
X56292695Y-60739419D02*
X56292695Y-61203876D01*
X56292695Y-60971647D02*
X55479895Y-60971647D01*
X55596009Y-61049057D01*
X55673419Y-61126466D01*
X55712123Y-61203876D01*
X55479895Y-60004028D02*
X55479895Y-60391076D01*
X55866942Y-60429780D01*
X55828238Y-60391076D01*
X55789533Y-60313666D01*
X55789533Y-60120142D01*
X55828238Y-60042733D01*
X55866942Y-60004028D01*
X55944352Y-59965323D01*
X56137876Y-59965323D01*
X56215285Y-60004028D01*
X56253990Y-60042733D01*
X56292695Y-60120142D01*
X56292695Y-60313666D01*
X56253990Y-60391076D01*
X56215285Y-60429780D01*
%TO.C,D16*%
X69798182Y-58723730D02*
X68985382Y-58723730D01*
X68985382Y-58530206D01*
X69024087Y-58414092D01*
X69101496Y-58336682D01*
X69178906Y-58297977D01*
X69333725Y-58259273D01*
X69449839Y-58259273D01*
X69604658Y-58297977D01*
X69682067Y-58336682D01*
X69759477Y-58414092D01*
X69798182Y-58530206D01*
X69798182Y-58723730D01*
X73798182Y-59497825D02*
X72985382Y-59497825D01*
X72985382Y-59304301D01*
X73024087Y-59188187D01*
X73101496Y-59110777D01*
X73178906Y-59072073D01*
X73333725Y-59033368D01*
X73449839Y-59033368D01*
X73604658Y-59072073D01*
X73682067Y-59110777D01*
X73759477Y-59188187D01*
X73798182Y-59304301D01*
X73798182Y-59497825D01*
X73798182Y-58259273D02*
X73798182Y-58723730D01*
X73798182Y-58491501D02*
X72985382Y-58491501D01*
X73101496Y-58568911D01*
X73178906Y-58646320D01*
X73217610Y-58723730D01*
X72985382Y-57562587D02*
X72985382Y-57717406D01*
X73024087Y-57794815D01*
X73062791Y-57833520D01*
X73178906Y-57910930D01*
X73333725Y-57949634D01*
X73643363Y-57949634D01*
X73720772Y-57910930D01*
X73759477Y-57872225D01*
X73798182Y-57794815D01*
X73798182Y-57639996D01*
X73759477Y-57562587D01*
X73720772Y-57523882D01*
X73643363Y-57485177D01*
X73449839Y-57485177D01*
X73372429Y-57523882D01*
X73333725Y-57562587D01*
X73295020Y-57639996D01*
X73295020Y-57794815D01*
X73333725Y-57872225D01*
X73372429Y-57910930D01*
X73449839Y-57949634D01*
%TO.C,D17*%
X90292695Y-68203876D02*
X89479895Y-68203876D01*
X89479895Y-68010352D01*
X89518600Y-67894238D01*
X89596009Y-67816828D01*
X89673419Y-67778123D01*
X89828238Y-67739419D01*
X89944352Y-67739419D01*
X90099171Y-67778123D01*
X90176580Y-67816828D01*
X90253990Y-67894238D01*
X90292695Y-68010352D01*
X90292695Y-68203876D01*
X94292695Y-68977971D02*
X93479895Y-68977971D01*
X93479895Y-68784447D01*
X93518600Y-68668333D01*
X93596009Y-68590923D01*
X93673419Y-68552219D01*
X93828238Y-68513514D01*
X93944352Y-68513514D01*
X94099171Y-68552219D01*
X94176580Y-68590923D01*
X94253990Y-68668333D01*
X94292695Y-68784447D01*
X94292695Y-68977971D01*
X94292695Y-67739419D02*
X94292695Y-68203876D01*
X94292695Y-67971647D02*
X93479895Y-67971647D01*
X93596009Y-68049057D01*
X93673419Y-68126466D01*
X93712123Y-68203876D01*
X93479895Y-67468485D02*
X93479895Y-66926619D01*
X94292695Y-67274961D01*
%TO.C,D18*%
X109292695Y-70203876D02*
X108479895Y-70203876D01*
X108479895Y-70010352D01*
X108518600Y-69894238D01*
X108596009Y-69816828D01*
X108673419Y-69778123D01*
X108828238Y-69739419D01*
X108944352Y-69739419D01*
X109099171Y-69778123D01*
X109176580Y-69816828D01*
X109253990Y-69894238D01*
X109292695Y-70010352D01*
X109292695Y-70203876D01*
X113292695Y-70977971D02*
X112479895Y-70977971D01*
X112479895Y-70784447D01*
X112518600Y-70668333D01*
X112596009Y-70590923D01*
X112673419Y-70552219D01*
X112828238Y-70513514D01*
X112944352Y-70513514D01*
X113099171Y-70552219D01*
X113176580Y-70590923D01*
X113253990Y-70668333D01*
X113292695Y-70784447D01*
X113292695Y-70977971D01*
X113292695Y-69739419D02*
X113292695Y-70203876D01*
X113292695Y-69971647D02*
X112479895Y-69971647D01*
X112596009Y-70049057D01*
X112673419Y-70126466D01*
X112712123Y-70203876D01*
X112828238Y-69274961D02*
X112789533Y-69352371D01*
X112750828Y-69391076D01*
X112673419Y-69429780D01*
X112634714Y-69429780D01*
X112557304Y-69391076D01*
X112518600Y-69352371D01*
X112479895Y-69274961D01*
X112479895Y-69120142D01*
X112518600Y-69042733D01*
X112557304Y-69004028D01*
X112634714Y-68965323D01*
X112673419Y-68965323D01*
X112750828Y-69004028D01*
X112789533Y-69042733D01*
X112828238Y-69120142D01*
X112828238Y-69274961D01*
X112866942Y-69352371D01*
X112905647Y-69391076D01*
X112983057Y-69429780D01*
X113137876Y-69429780D01*
X113215285Y-69391076D01*
X113253990Y-69352371D01*
X113292695Y-69274961D01*
X113292695Y-69120142D01*
X113253990Y-69042733D01*
X113215285Y-69004028D01*
X113137876Y-68965323D01*
X112983057Y-68965323D01*
X112905647Y-69004028D01*
X112866942Y-69042733D01*
X112828238Y-69120142D01*
%TO.C,D19*%
X72329405Y-94149374D02*
X71516605Y-94149374D01*
X71516605Y-93955850D01*
X71555310Y-93839736D01*
X71632719Y-93762326D01*
X71710129Y-93723621D01*
X71864948Y-93684917D01*
X71981062Y-93684917D01*
X72135881Y-93723621D01*
X72213290Y-93762326D01*
X72290700Y-93839736D01*
X72329405Y-93955850D01*
X72329405Y-94149374D01*
X76329405Y-94923469D02*
X75516605Y-94923469D01*
X75516605Y-94729945D01*
X75555310Y-94613831D01*
X75632719Y-94536421D01*
X75710129Y-94497717D01*
X75864948Y-94459012D01*
X75981062Y-94459012D01*
X76135881Y-94497717D01*
X76213290Y-94536421D01*
X76290700Y-94613831D01*
X76329405Y-94729945D01*
X76329405Y-94923469D01*
X76329405Y-93684917D02*
X76329405Y-94149374D01*
X76329405Y-93917145D02*
X75516605Y-93917145D01*
X75632719Y-93994555D01*
X75710129Y-94071964D01*
X75748833Y-94149374D01*
X76329405Y-93297869D02*
X76329405Y-93143050D01*
X76290700Y-93065640D01*
X76251995Y-93026936D01*
X76135881Y-92949526D01*
X75981062Y-92910821D01*
X75671424Y-92910821D01*
X75594014Y-92949526D01*
X75555310Y-92988231D01*
X75516605Y-93065640D01*
X75516605Y-93220459D01*
X75555310Y-93297869D01*
X75594014Y-93336574D01*
X75671424Y-93375278D01*
X75864948Y-93375278D01*
X75942357Y-93336574D01*
X75981062Y-93297869D01*
X76019767Y-93220459D01*
X76019767Y-93065640D01*
X75981062Y-92988231D01*
X75942357Y-92949526D01*
X75864948Y-92910821D01*
%TO.C,D20*%
X75905195Y-87212876D02*
X75092395Y-87212876D01*
X75092395Y-87019352D01*
X75131100Y-86903238D01*
X75208509Y-86825828D01*
X75285919Y-86787123D01*
X75440738Y-86748419D01*
X75556852Y-86748419D01*
X75711671Y-86787123D01*
X75789080Y-86825828D01*
X75866490Y-86903238D01*
X75905195Y-87019352D01*
X75905195Y-87212876D01*
X79905195Y-87986971D02*
X79092395Y-87986971D01*
X79092395Y-87793447D01*
X79131100Y-87677333D01*
X79208509Y-87599923D01*
X79285919Y-87561219D01*
X79440738Y-87522514D01*
X79556852Y-87522514D01*
X79711671Y-87561219D01*
X79789080Y-87599923D01*
X79866490Y-87677333D01*
X79905195Y-87793447D01*
X79905195Y-87986971D01*
X79169804Y-87212876D02*
X79131100Y-87174171D01*
X79092395Y-87096761D01*
X79092395Y-86903238D01*
X79131100Y-86825828D01*
X79169804Y-86787123D01*
X79247214Y-86748419D01*
X79324623Y-86748419D01*
X79440738Y-86787123D01*
X79905195Y-87251580D01*
X79905195Y-86748419D01*
X79092395Y-86245257D02*
X79092395Y-86167847D01*
X79131100Y-86090438D01*
X79169804Y-86051733D01*
X79247214Y-86013028D01*
X79402033Y-85974323D01*
X79595557Y-85974323D01*
X79750376Y-86013028D01*
X79827785Y-86051733D01*
X79866490Y-86090438D01*
X79905195Y-86167847D01*
X79905195Y-86245257D01*
X79866490Y-86322666D01*
X79827785Y-86361371D01*
X79750376Y-86400076D01*
X79595557Y-86438780D01*
X79402033Y-86438780D01*
X79247214Y-86400076D01*
X79169804Y-86361371D01*
X79131100Y-86322666D01*
X79092395Y-86245257D01*
%TO.C,D21*%
X94905195Y-89212876D02*
X94092395Y-89212876D01*
X94092395Y-89019352D01*
X94131100Y-88903238D01*
X94208509Y-88825828D01*
X94285919Y-88787123D01*
X94440738Y-88748419D01*
X94556852Y-88748419D01*
X94711671Y-88787123D01*
X94789080Y-88825828D01*
X94866490Y-88903238D01*
X94905195Y-89019352D01*
X94905195Y-89212876D01*
X98905195Y-89986971D02*
X98092395Y-89986971D01*
X98092395Y-89793447D01*
X98131100Y-89677333D01*
X98208509Y-89599923D01*
X98285919Y-89561219D01*
X98440738Y-89522514D01*
X98556852Y-89522514D01*
X98711671Y-89561219D01*
X98789080Y-89599923D01*
X98866490Y-89677333D01*
X98905195Y-89793447D01*
X98905195Y-89986971D01*
X98169804Y-89212876D02*
X98131100Y-89174171D01*
X98092395Y-89096761D01*
X98092395Y-88903238D01*
X98131100Y-88825828D01*
X98169804Y-88787123D01*
X98247214Y-88748419D01*
X98324623Y-88748419D01*
X98440738Y-88787123D01*
X98905195Y-89251580D01*
X98905195Y-88748419D01*
X98905195Y-87974323D02*
X98905195Y-88438780D01*
X98905195Y-88206552D02*
X98092395Y-88206552D01*
X98208509Y-88283961D01*
X98285919Y-88361371D01*
X98324623Y-88438780D01*
%TO.C,D22*%
X157981688Y-108699391D02*
X158122829Y-107898939D01*
X158313413Y-107932544D01*
X158421042Y-107990824D01*
X158483833Y-108080500D01*
X158508508Y-108163454D01*
X158519741Y-108322642D01*
X158499578Y-108436992D01*
X158434577Y-108582738D01*
X158383018Y-108652251D01*
X158293343Y-108715042D01*
X158172272Y-108732996D01*
X157981688Y-108699391D01*
X157913946Y-104625740D02*
X158055087Y-103825288D01*
X158245671Y-103858893D01*
X158353300Y-103917173D01*
X158416091Y-104006848D01*
X158440766Y-104089803D01*
X158451999Y-104248991D01*
X158431836Y-104363341D01*
X158366835Y-104509087D01*
X158315276Y-104578600D01*
X158225601Y-104641391D01*
X158104530Y-104659345D01*
X157913946Y-104625740D01*
X158803980Y-104035942D02*
X158848818Y-104004546D01*
X158931772Y-103979871D01*
X159122356Y-104013476D01*
X159191868Y-104065035D01*
X159223264Y-104109873D01*
X159247939Y-104192827D01*
X159234497Y-104269061D01*
X159176217Y-104376690D01*
X158638164Y-104753439D01*
X159133682Y-104840812D01*
X159566315Y-104170362D02*
X159611153Y-104138966D01*
X159694107Y-104114292D01*
X159884691Y-104147897D01*
X159954203Y-104199455D01*
X159985599Y-104244293D01*
X160010274Y-104327248D01*
X159996832Y-104403481D01*
X159938552Y-104511110D01*
X159400499Y-104887859D01*
X159896017Y-104975232D01*
%TO.C,D23*%
X130680895Y-101808671D02*
X129880443Y-101667530D01*
X129914048Y-101476946D01*
X129972328Y-101369317D01*
X130062004Y-101306526D01*
X130144958Y-101281851D01*
X130304146Y-101270618D01*
X130418496Y-101290781D01*
X130564242Y-101355782D01*
X130633755Y-101407341D01*
X130696546Y-101497016D01*
X130714500Y-101618087D01*
X130680895Y-101808671D01*
X134485706Y-103265599D02*
X133685254Y-103124458D01*
X133718859Y-102933874D01*
X133777139Y-102826245D01*
X133866814Y-102763454D01*
X133949769Y-102738779D01*
X134108957Y-102727546D01*
X134223307Y-102747709D01*
X134369053Y-102812710D01*
X134438566Y-102864269D01*
X134501357Y-102953944D01*
X134519311Y-103075015D01*
X134485706Y-103265599D01*
X133895908Y-102375565D02*
X133864512Y-102330727D01*
X133839837Y-102247773D01*
X133873442Y-102057189D01*
X133925001Y-101987677D01*
X133969839Y-101956281D01*
X134052793Y-101931606D01*
X134129027Y-101945048D01*
X134236656Y-102003328D01*
X134613405Y-102541381D01*
X134700778Y-102045863D01*
X133947374Y-101637905D02*
X134034747Y-101142387D01*
X134292634Y-101462972D01*
X134312797Y-101348622D01*
X134364355Y-101279110D01*
X134409193Y-101247714D01*
X134492148Y-101223039D01*
X134682731Y-101256644D01*
X134752244Y-101308203D01*
X134783640Y-101353041D01*
X134808314Y-101435995D01*
X134767988Y-101664696D01*
X134716430Y-101734208D01*
X134671592Y-101765604D01*
%TO.C,D24*%
X149560895Y-104218671D02*
X148760443Y-104077530D01*
X148794048Y-103886946D01*
X148852328Y-103779317D01*
X148942004Y-103716526D01*
X149024958Y-103691851D01*
X149184146Y-103680618D01*
X149298496Y-103700781D01*
X149444242Y-103765782D01*
X149513755Y-103817341D01*
X149576546Y-103907016D01*
X149594500Y-104028087D01*
X149560895Y-104218671D01*
X153365706Y-105675599D02*
X152565254Y-105534458D01*
X152598859Y-105343874D01*
X152657139Y-105236245D01*
X152746814Y-105173454D01*
X152829769Y-105148779D01*
X152988957Y-105137546D01*
X153103307Y-105157709D01*
X153249053Y-105222710D01*
X153318566Y-105274269D01*
X153381357Y-105363944D01*
X153399311Y-105485015D01*
X153365706Y-105675599D01*
X152775908Y-104785565D02*
X152744512Y-104740727D01*
X152719837Y-104657773D01*
X152753442Y-104467189D01*
X152805001Y-104397677D01*
X152849839Y-104366281D01*
X152932793Y-104341606D01*
X153009027Y-104355048D01*
X153116656Y-104413328D01*
X153493405Y-104951381D01*
X153580778Y-104455863D01*
X153168122Y-103675668D02*
X153701756Y-103769762D01*
X152829583Y-103812483D02*
X153367729Y-104103882D01*
X153455102Y-103608364D01*
%TO.C,BZ1*%
D11*
X62819660Y-80368759D02*
X62962517Y-80416378D01*
X63010136Y-80463997D01*
X63057755Y-80559235D01*
X63057755Y-80702092D01*
X63010136Y-80797330D01*
X62962517Y-80844949D01*
X62867279Y-80892568D01*
X62486327Y-80892568D01*
X62486327Y-79892568D01*
X62819660Y-79892568D01*
X62914898Y-79940188D01*
X62962517Y-79987807D01*
X63010136Y-80083045D01*
X63010136Y-80178283D01*
X62962517Y-80273521D01*
X62914898Y-80321140D01*
X62819660Y-80368759D01*
X62486327Y-80368759D01*
X63914898Y-80225902D02*
X63914898Y-80892568D01*
X63486327Y-80225902D02*
X63486327Y-80749711D01*
X63533946Y-80844949D01*
X63629184Y-80892568D01*
X63772041Y-80892568D01*
X63867279Y-80844949D01*
X63914898Y-80797330D01*
X64295851Y-80225902D02*
X64819660Y-80225902D01*
X64295851Y-80892568D01*
X64819660Y-80892568D01*
X65105374Y-80225902D02*
X65629184Y-80225902D01*
X65105374Y-80892568D01*
X65629184Y-80892568D01*
X66391089Y-80844949D02*
X66295851Y-80892568D01*
X66105374Y-80892568D01*
X66010136Y-80844949D01*
X65962517Y-80749711D01*
X65962517Y-80368759D01*
X66010136Y-80273521D01*
X66105374Y-80225902D01*
X66295851Y-80225902D01*
X66391089Y-80273521D01*
X66438708Y-80368759D01*
X66438708Y-80463997D01*
X65962517Y-80559235D01*
X66867279Y-80892568D02*
X66867279Y-80225902D01*
X66867279Y-80416378D02*
X66914898Y-80321140D01*
X66962517Y-80273521D01*
X67057755Y-80225902D01*
X67152993Y-80225902D01*
%TO.C,C1*%
X139334175Y-58255496D02*
X139401519Y-58188152D01*
X139502534Y-58154480D01*
X139569877Y-58154480D01*
X139670893Y-58188152D01*
X139839251Y-58289167D01*
X140007610Y-58457526D01*
X140108625Y-58625885D01*
X140142297Y-58726900D01*
X140142297Y-58794244D01*
X140108625Y-58895259D01*
X140041282Y-58962602D01*
X139940267Y-58996274D01*
X139872923Y-58996274D01*
X139771908Y-58962602D01*
X139603549Y-58861587D01*
X139435190Y-58693228D01*
X139334175Y-58524870D01*
X139300503Y-58423854D01*
X139300503Y-58356511D01*
X139334175Y-58255496D01*
X140512686Y-58356511D02*
X140580030Y-58356511D01*
X140580030Y-58423854D01*
X140512686Y-58423854D01*
X140512686Y-58356511D01*
X140580030Y-58423854D01*
X141287137Y-57716748D02*
X140883076Y-58120809D01*
X141085106Y-57918778D02*
X140377999Y-57211671D01*
X140411671Y-57380030D01*
X140411671Y-57514717D01*
X140377999Y-57615732D01*
X141421824Y-56639251D02*
X141893228Y-57110656D01*
X141118778Y-56942297D02*
X141489167Y-57312686D01*
X141590183Y-57346358D01*
X141691198Y-57312686D01*
X141792213Y-57211671D01*
X141825885Y-57110656D01*
X141825885Y-57043312D01*
X141657526Y-56403549D02*
X141926900Y-56134175D01*
X142229946Y-56773938D02*
X141623854Y-56167847D01*
X141590183Y-56066832D01*
X141623854Y-55965816D01*
X141691198Y-55898473D01*
D15*
X142037343Y-58955194D02*
X142037343Y-58988866D01*
X142003671Y-59056209D01*
X141970000Y-59089881D01*
X141902656Y-59123553D01*
X141835312Y-59123553D01*
X141784805Y-59106717D01*
X141700625Y-59056209D01*
X141650118Y-59005702D01*
X141599610Y-58921522D01*
X141582774Y-58871015D01*
X141582774Y-58803671D01*
X141616446Y-58736328D01*
X141650118Y-58702656D01*
X141717461Y-58668984D01*
X141751133Y-58668984D01*
X142407732Y-58652148D02*
X142205702Y-58854179D01*
X142306717Y-58753164D02*
X141953164Y-58399610D01*
X141970000Y-58483790D01*
X141970000Y-58551133D01*
X141953164Y-58601641D01*
%TO.C,C2*%
D11*
X140068625Y-76650053D02*
X140135969Y-76717397D01*
X140169641Y-76818412D01*
X140169641Y-76885755D01*
X140135969Y-76986771D01*
X140034954Y-77155129D01*
X139866595Y-77323488D01*
X139698236Y-77424503D01*
X139597221Y-77458175D01*
X139529877Y-77458175D01*
X139428862Y-77424503D01*
X139361519Y-77357160D01*
X139327847Y-77256145D01*
X139327847Y-77188801D01*
X139361519Y-77087786D01*
X139462534Y-76919427D01*
X139630893Y-76751068D01*
X139799251Y-76650053D01*
X139900267Y-76616381D01*
X139967610Y-76616381D01*
X140068625Y-76650053D01*
X139967610Y-77828564D02*
X139967610Y-77895908D01*
X139900267Y-77895908D01*
X139900267Y-77828564D01*
X139967610Y-77828564D01*
X139900267Y-77895908D01*
X140607373Y-78603015D02*
X140203312Y-78198954D01*
X140405343Y-78400984D02*
X141112450Y-77693877D01*
X140944091Y-77727549D01*
X140809404Y-77727549D01*
X140708389Y-77693877D01*
X141684870Y-78737702D02*
X141213465Y-79209106D01*
X141381824Y-78434656D02*
X141011435Y-78805045D01*
X140977763Y-78906061D01*
X141011435Y-79007076D01*
X141112450Y-79108091D01*
X141213465Y-79141763D01*
X141280809Y-79141763D01*
X141920572Y-78973404D02*
X142189946Y-79242778D01*
X141550183Y-79545824D02*
X142156274Y-78939732D01*
X142257289Y-78906061D01*
X142358305Y-78939732D01*
X142425648Y-79007076D01*
D15*
X141744805Y-76977343D02*
X141711133Y-76977343D01*
X141643790Y-76943671D01*
X141610118Y-76910000D01*
X141576446Y-76842656D01*
X141576446Y-76775312D01*
X141593282Y-76724805D01*
X141643790Y-76640625D01*
X141694297Y-76590118D01*
X141778477Y-76539610D01*
X141828984Y-76522774D01*
X141896328Y-76522774D01*
X141963671Y-76556446D01*
X141997343Y-76590118D01*
X142031015Y-76657461D01*
X142031015Y-76691133D01*
X142165702Y-76825820D02*
X142199374Y-76825820D01*
X142249881Y-76842656D01*
X142334061Y-76926835D01*
X142350896Y-76977343D01*
X142350896Y-77011015D01*
X142334061Y-77061522D01*
X142300389Y-77095194D01*
X142233045Y-77128866D01*
X141828984Y-77128866D01*
X142047851Y-77347732D01*
%TO.C,C4*%
D11*
X132202424Y-65327247D02*
X132269768Y-65259903D01*
X132370783Y-65226231D01*
X132438126Y-65226231D01*
X132539142Y-65259903D01*
X132707500Y-65360918D01*
X132875859Y-65529277D01*
X132976874Y-65697636D01*
X133010546Y-65798651D01*
X133010546Y-65865995D01*
X132976874Y-65967010D01*
X132909531Y-66034353D01*
X132808516Y-66068025D01*
X132741172Y-66068025D01*
X132640157Y-66034353D01*
X132471798Y-65933338D01*
X132303439Y-65764979D01*
X132202424Y-65596621D01*
X132168752Y-65495605D01*
X132168752Y-65428262D01*
X132202424Y-65327247D01*
X133380935Y-65428262D02*
X133448279Y-65428262D01*
X133448279Y-65495605D01*
X133380935Y-65495605D01*
X133380935Y-65428262D01*
X133448279Y-65495605D01*
X134155386Y-64788499D02*
X133751325Y-65192560D01*
X133953355Y-64990529D02*
X133246248Y-64283422D01*
X133279920Y-64451781D01*
X133279920Y-64586468D01*
X133246248Y-64687483D01*
X134290073Y-63711002D02*
X134761477Y-64182407D01*
X133987027Y-64014048D02*
X134357416Y-64384437D01*
X134458432Y-64418109D01*
X134559447Y-64384437D01*
X134660462Y-64283422D01*
X134694134Y-64182407D01*
X134694134Y-64115063D01*
X134525775Y-63475300D02*
X134795149Y-63205926D01*
X135098195Y-63845689D02*
X134492103Y-63239598D01*
X134458432Y-63138583D01*
X134492103Y-63037567D01*
X134559447Y-62970224D01*
D15*
X134905592Y-66026945D02*
X134905592Y-66060617D01*
X134871920Y-66127960D01*
X134838249Y-66161632D01*
X134770905Y-66195304D01*
X134703561Y-66195304D01*
X134653054Y-66178468D01*
X134568874Y-66127960D01*
X134518367Y-66077453D01*
X134467859Y-65993273D01*
X134451023Y-65942766D01*
X134451023Y-65875422D01*
X134484695Y-65808079D01*
X134518367Y-65774407D01*
X134585710Y-65740735D01*
X134619382Y-65740735D01*
X135006607Y-65521869D02*
X135242310Y-65757571D01*
X134787741Y-65471361D02*
X134956100Y-65808079D01*
X135174966Y-65589212D01*
%TO.C,C5*%
D11*
X144048625Y-58500053D02*
X144115969Y-58567397D01*
X144149641Y-58668412D01*
X144149641Y-58735755D01*
X144115969Y-58836771D01*
X144014954Y-59005129D01*
X143846595Y-59173488D01*
X143678236Y-59274503D01*
X143577221Y-59308175D01*
X143509877Y-59308175D01*
X143408862Y-59274503D01*
X143341519Y-59207160D01*
X143307847Y-59106145D01*
X143307847Y-59038801D01*
X143341519Y-58937786D01*
X143442534Y-58769427D01*
X143610893Y-58601068D01*
X143779251Y-58500053D01*
X143880267Y-58466381D01*
X143947610Y-58466381D01*
X144048625Y-58500053D01*
X143947610Y-59678564D02*
X143947610Y-59745908D01*
X143880267Y-59745908D01*
X143880267Y-59678564D01*
X143947610Y-59678564D01*
X143880267Y-59745908D01*
X144587373Y-60453015D02*
X144183312Y-60048954D01*
X144385343Y-60250984D02*
X145092450Y-59543877D01*
X144924091Y-59577549D01*
X144789404Y-59577549D01*
X144688389Y-59543877D01*
X145664870Y-60587702D02*
X145193465Y-61059106D01*
X145361824Y-60284656D02*
X144991435Y-60655045D01*
X144957763Y-60756061D01*
X144991435Y-60857076D01*
X145092450Y-60958091D01*
X145193465Y-60991763D01*
X145260809Y-60991763D01*
X145900572Y-60823404D02*
X146169946Y-61092778D01*
X145530183Y-61395824D02*
X146136274Y-60789732D01*
X146237289Y-60756061D01*
X146338305Y-60789732D01*
X146405648Y-60857076D01*
D15*
X145724805Y-58827343D02*
X145691133Y-58827343D01*
X145623790Y-58793671D01*
X145590118Y-58760000D01*
X145556446Y-58692656D01*
X145556446Y-58625312D01*
X145573282Y-58574805D01*
X145623790Y-58490625D01*
X145674297Y-58440118D01*
X145758477Y-58389610D01*
X145808984Y-58372774D01*
X145876328Y-58372774D01*
X145943671Y-58406446D01*
X145977343Y-58440118D01*
X146011015Y-58507461D01*
X146011015Y-58541133D01*
X146364568Y-58827343D02*
X146196209Y-58658984D01*
X146011015Y-58810507D01*
X146044687Y-58810507D01*
X146095194Y-58827343D01*
X146179374Y-58911522D01*
X146196209Y-58962030D01*
X146196209Y-58995702D01*
X146179374Y-59046209D01*
X146095194Y-59130389D01*
X146044687Y-59147225D01*
X146011015Y-59147225D01*
X145960507Y-59130389D01*
X145876328Y-59046209D01*
X145859492Y-58995702D01*
X145859492Y-58962030D01*
%TO.C,C9*%
D11*
X150308625Y-64610053D02*
X150375969Y-64677397D01*
X150409641Y-64778412D01*
X150409641Y-64845755D01*
X150375969Y-64946771D01*
X150274954Y-65115129D01*
X150106595Y-65283488D01*
X149938236Y-65384503D01*
X149837221Y-65418175D01*
X149769877Y-65418175D01*
X149668862Y-65384503D01*
X149601519Y-65317160D01*
X149567847Y-65216145D01*
X149567847Y-65148801D01*
X149601519Y-65047786D01*
X149702534Y-64879427D01*
X149870893Y-64711068D01*
X150039251Y-64610053D01*
X150140267Y-64576381D01*
X150207610Y-64576381D01*
X150308625Y-64610053D01*
X150207610Y-65788564D02*
X150207610Y-65855908D01*
X150140267Y-65855908D01*
X150140267Y-65788564D01*
X150207610Y-65788564D01*
X150140267Y-65855908D01*
X150847373Y-66563015D02*
X150443312Y-66158954D01*
X150645343Y-66360984D02*
X151352450Y-65653877D01*
X151184091Y-65687549D01*
X151049404Y-65687549D01*
X150948389Y-65653877D01*
X151924870Y-66697702D02*
X151453465Y-67169106D01*
X151621824Y-66394656D02*
X151251435Y-66765045D01*
X151217763Y-66866061D01*
X151251435Y-66967076D01*
X151352450Y-67068091D01*
X151453465Y-67101763D01*
X151520809Y-67101763D01*
X152160572Y-66933404D02*
X152429946Y-67202778D01*
X151790183Y-67505824D02*
X152396274Y-66899732D01*
X152497289Y-66866061D01*
X152598305Y-66899732D01*
X152665648Y-66967076D01*
D15*
X151984805Y-64937343D02*
X151951133Y-64937343D01*
X151883790Y-64903671D01*
X151850118Y-64870000D01*
X151816446Y-64802656D01*
X151816446Y-64735312D01*
X151833282Y-64684805D01*
X151883790Y-64600625D01*
X151934297Y-64550118D01*
X152018477Y-64499610D01*
X152068984Y-64482774D01*
X152136328Y-64482774D01*
X152203671Y-64516446D01*
X152237343Y-64550118D01*
X152271015Y-64617461D01*
X152271015Y-64651133D01*
X152119492Y-65139374D02*
X152186835Y-65206717D01*
X152237343Y-65223553D01*
X152271015Y-65223553D01*
X152355194Y-65206717D01*
X152439374Y-65156209D01*
X152574061Y-65021522D01*
X152590896Y-64971015D01*
X152590896Y-64937343D01*
X152574061Y-64886835D01*
X152506717Y-64819492D01*
X152456209Y-64802656D01*
X152422538Y-64802656D01*
X152372030Y-64819492D01*
X152287851Y-64903671D01*
X152271015Y-64954179D01*
X152271015Y-64987851D01*
X152287851Y-65038358D01*
X152355194Y-65105702D01*
X152405702Y-65122538D01*
X152439374Y-65122538D01*
X152489881Y-65105702D01*
%TO.C,C10*%
D11*
X133833333Y-74522380D02*
X133261904Y-74522380D01*
X133547619Y-74522380D02*
X133547619Y-73522380D01*
X133452380Y-73665238D01*
X133357142Y-73760476D01*
X133261904Y-73808095D01*
X134690476Y-73855714D02*
X134690476Y-74522380D01*
X134261904Y-73855714D02*
X134261904Y-74379523D01*
X134309523Y-74474761D01*
X134404761Y-74522380D01*
X134547619Y-74522380D01*
X134642857Y-74474761D01*
X134690476Y-74427142D01*
D15*
X133678571Y-75928571D02*
X133654761Y-75952380D01*
X133583333Y-75976190D01*
X133535714Y-75976190D01*
X133464285Y-75952380D01*
X133416666Y-75904761D01*
X133392857Y-75857142D01*
X133369047Y-75761904D01*
X133369047Y-75690476D01*
X133392857Y-75595238D01*
X133416666Y-75547619D01*
X133464285Y-75500000D01*
X133535714Y-75476190D01*
X133583333Y-75476190D01*
X133654761Y-75500000D01*
X133678571Y-75523809D01*
X134154761Y-75976190D02*
X133869047Y-75976190D01*
X134011904Y-75976190D02*
X134011904Y-75476190D01*
X133964285Y-75547619D01*
X133916666Y-75595238D01*
X133869047Y-75619047D01*
X134464285Y-75476190D02*
X134511904Y-75476190D01*
X134559523Y-75500000D01*
X134583333Y-75523809D01*
X134607142Y-75571428D01*
X134630952Y-75666666D01*
X134630952Y-75785714D01*
X134607142Y-75880952D01*
X134583333Y-75928571D01*
X134559523Y-75952380D01*
X134511904Y-75976190D01*
X134464285Y-75976190D01*
X134416666Y-75952380D01*
X134392857Y-75928571D01*
X134369047Y-75880952D01*
X134345238Y-75785714D01*
X134345238Y-75666666D01*
X134369047Y-75571428D01*
X134392857Y-75523809D01*
X134416666Y-75500000D01*
X134464285Y-75476190D01*
%TO.C,F2*%
D11*
X27143984Y-27637967D02*
X27143984Y-26637967D01*
X27524937Y-26637967D01*
X27620175Y-26685587D01*
X27667794Y-26733206D01*
X27715413Y-26828444D01*
X27715413Y-26971301D01*
X27667794Y-27066539D01*
X27620175Y-27114158D01*
X27524937Y-27161777D01*
X27143984Y-27161777D01*
X28143984Y-27637967D02*
X28143984Y-26637967D01*
X28524937Y-26637967D01*
X28620175Y-26685587D01*
X28667794Y-26733206D01*
X28715413Y-26828444D01*
X28715413Y-26971301D01*
X28667794Y-27066539D01*
X28620175Y-27114158D01*
X28524937Y-27161777D01*
X28143984Y-27161777D01*
X29001127Y-26637967D02*
X29572556Y-26637967D01*
X29286842Y-27637967D02*
X29286842Y-26637967D01*
X30477318Y-27542729D02*
X30429699Y-27590348D01*
X30286842Y-27637967D01*
X30191603Y-27637967D01*
X30048746Y-27590348D01*
X29953508Y-27495110D01*
X29905889Y-27399872D01*
X29858270Y-27209396D01*
X29858270Y-27066539D01*
X29905889Y-26876063D01*
X29953508Y-26780825D01*
X30048746Y-26685587D01*
X30191603Y-26637967D01*
X30286842Y-26637967D01*
X30429699Y-26685587D01*
X30477318Y-26733206D01*
D12*
X28520175Y-28948444D02*
X28253508Y-28948444D01*
X28253508Y-29367491D02*
X28253508Y-28567491D01*
X28634461Y-28567491D01*
X28901127Y-28643682D02*
X28939222Y-28605587D01*
X29015413Y-28567491D01*
X29205889Y-28567491D01*
X29282080Y-28605587D01*
X29320175Y-28643682D01*
X29358270Y-28719872D01*
X29358270Y-28796063D01*
X29320175Y-28910348D01*
X28863032Y-29367491D01*
X29358270Y-29367491D01*
%TO.C,R2*%
D11*
X151874761Y-59592380D02*
X151303333Y-59592380D01*
X151589047Y-59592380D02*
X151589047Y-58592380D01*
X151493809Y-58735238D01*
X151398571Y-58830476D01*
X151303333Y-58878095D01*
X152493809Y-58592380D02*
X152589047Y-58592380D01*
X152684285Y-58640000D01*
X152731904Y-58687619D01*
X152779523Y-58782857D01*
X152827142Y-58973333D01*
X152827142Y-59211428D01*
X152779523Y-59401904D01*
X152731904Y-59497142D01*
X152684285Y-59544761D01*
X152589047Y-59592380D01*
X152493809Y-59592380D01*
X152398571Y-59544761D01*
X152350952Y-59497142D01*
X152303333Y-59401904D01*
X152255714Y-59211428D01*
X152255714Y-58973333D01*
X152303333Y-58782857D01*
X152350952Y-58687619D01*
X152398571Y-58640000D01*
X152493809Y-58592380D01*
X153255714Y-59592380D02*
X153255714Y-58592380D01*
X153350952Y-59211428D02*
X153636666Y-59592380D01*
X153636666Y-58925714D02*
X153255714Y-59306666D01*
D15*
X152386666Y-61016190D02*
X152220000Y-60778095D01*
X152100952Y-61016190D02*
X152100952Y-60516190D01*
X152291428Y-60516190D01*
X152339047Y-60540000D01*
X152362857Y-60563809D01*
X152386666Y-60611428D01*
X152386666Y-60682857D01*
X152362857Y-60730476D01*
X152339047Y-60754285D01*
X152291428Y-60778095D01*
X152100952Y-60778095D01*
X152577142Y-60563809D02*
X152600952Y-60540000D01*
X152648571Y-60516190D01*
X152767619Y-60516190D01*
X152815238Y-60540000D01*
X152839047Y-60563809D01*
X152862857Y-60611428D01*
X152862857Y-60659047D01*
X152839047Y-60730476D01*
X152553333Y-61016190D01*
X152862857Y-61016190D01*
%TO.C,U1*%
D11*
X36335275Y-30919262D02*
X36335275Y-29919262D01*
X36716227Y-29919262D01*
X36811465Y-29966882D01*
X36859084Y-30014501D01*
X36906703Y-30109739D01*
X36906703Y-30252596D01*
X36859084Y-30347834D01*
X36811465Y-30395453D01*
X36716227Y-30443072D01*
X36335275Y-30443072D01*
X37906703Y-30919262D02*
X37573370Y-30443072D01*
X37335275Y-30919262D02*
X37335275Y-29919262D01*
X37716227Y-29919262D01*
X37811465Y-29966882D01*
X37859084Y-30014501D01*
X37906703Y-30109739D01*
X37906703Y-30252596D01*
X37859084Y-30347834D01*
X37811465Y-30395453D01*
X37716227Y-30443072D01*
X37335275Y-30443072D01*
X38192417Y-29919262D02*
X38763846Y-29919262D01*
X38478132Y-30919262D02*
X38478132Y-29919262D01*
X39668608Y-30919262D02*
X39335275Y-30443072D01*
X39097179Y-30919262D02*
X39097179Y-29919262D01*
X39478132Y-29919262D01*
X39573370Y-29966882D01*
X39620989Y-30014501D01*
X39668608Y-30109739D01*
X39668608Y-30252596D01*
X39620989Y-30347834D01*
X39573370Y-30395453D01*
X39478132Y-30443072D01*
X39097179Y-30443072D01*
X40573370Y-29919262D02*
X40097179Y-29919262D01*
X40049560Y-30395453D01*
X40097179Y-30347834D01*
X40192417Y-30300215D01*
X40430513Y-30300215D01*
X40525751Y-30347834D01*
X40573370Y-30395453D01*
X40620989Y-30490691D01*
X40620989Y-30728786D01*
X40573370Y-30824024D01*
X40525751Y-30871643D01*
X40430513Y-30919262D01*
X40192417Y-30919262D01*
X40097179Y-30871643D01*
X40049560Y-30824024D01*
X40906703Y-29919262D02*
X41240036Y-30919262D01*
X41573370Y-29919262D01*
X42097179Y-29919262D02*
X42192417Y-29919262D01*
X42287655Y-29966882D01*
X42335275Y-30014501D01*
X42382894Y-30109739D01*
X42430513Y-30300215D01*
X42430513Y-30538310D01*
X42382894Y-30728786D01*
X42335275Y-30824024D01*
X42287655Y-30871643D01*
X42192417Y-30919262D01*
X42097179Y-30919262D01*
X42001941Y-30871643D01*
X41954322Y-30824024D01*
X41906703Y-30728786D01*
X41859084Y-30538310D01*
X41859084Y-30300215D01*
X41906703Y-30109739D01*
X41954322Y-30014501D01*
X42001941Y-29966882D01*
X42097179Y-29919262D01*
X42859084Y-29919262D02*
X42859084Y-30728786D01*
X42906703Y-30824024D01*
X42954322Y-30871643D01*
X43049560Y-30919262D01*
X43240036Y-30919262D01*
X43335275Y-30871643D01*
X43382894Y-30824024D01*
X43430513Y-30728786D01*
X43430513Y-29919262D01*
X43859084Y-30014501D02*
X43906703Y-29966882D01*
X44001941Y-29919262D01*
X44240036Y-29919262D01*
X44335275Y-29966882D01*
X44382894Y-30014501D01*
X44430513Y-30109739D01*
X44430513Y-30204977D01*
X44382894Y-30347834D01*
X43811465Y-30919262D01*
X44430513Y-30919262D01*
X44763846Y-29919262D02*
X45430513Y-30919262D01*
X45430513Y-29919262D02*
X44763846Y-30919262D01*
D16*
X40581465Y-28367834D02*
X40986227Y-28367834D01*
X41033846Y-28344024D01*
X41057655Y-28320215D01*
X41081465Y-28272596D01*
X41081465Y-28177358D01*
X41057655Y-28129739D01*
X41033846Y-28105929D01*
X40986227Y-28082120D01*
X40581465Y-28082120D01*
X41081465Y-27582120D02*
X41081465Y-27867834D01*
X41081465Y-27724977D02*
X40581465Y-27724977D01*
X40652894Y-27772596D01*
X40700513Y-27820215D01*
X40724322Y-27867834D01*
%TO.C,X1*%
D11*
X147606927Y-73889073D02*
X147202866Y-74293134D01*
X147404897Y-74091104D02*
X146697790Y-73383997D01*
X146731462Y-73552356D01*
X146731462Y-73687043D01*
X146697790Y-73788058D01*
X147505912Y-72575875D02*
X147371225Y-72710562D01*
X147337553Y-72811577D01*
X147337553Y-72878921D01*
X147371225Y-73047279D01*
X147472240Y-73215638D01*
X147741614Y-73485012D01*
X147842629Y-73518684D01*
X147909973Y-73518684D01*
X148010988Y-73485012D01*
X148145675Y-73350325D01*
X148179347Y-73249310D01*
X148179347Y-73181966D01*
X148145675Y-73080951D01*
X147977316Y-72912592D01*
X147876301Y-72878921D01*
X147808958Y-72878921D01*
X147707942Y-72912592D01*
X147573255Y-73047279D01*
X147539584Y-73148295D01*
X147539584Y-73215638D01*
X147573255Y-73316653D01*
X148583408Y-72912592D02*
X148112003Y-72441188D01*
X148179347Y-72508531D02*
X148179347Y-72441188D01*
X148213019Y-72340173D01*
X148314034Y-72239157D01*
X148415049Y-72205486D01*
X148516064Y-72239157D01*
X148886454Y-72609547D01*
X148516064Y-72239157D02*
X148482393Y-72138142D01*
X148516064Y-72037127D01*
X148617080Y-71936112D01*
X148718095Y-71902440D01*
X148819110Y-71936112D01*
X149189499Y-72306501D01*
X149526217Y-71969783D02*
X148819110Y-71262677D01*
X149829263Y-71666738D02*
X149458873Y-71296348D01*
X149357858Y-71262677D01*
X149256843Y-71296348D01*
X149155828Y-71397364D01*
X149122156Y-71498379D01*
X149122156Y-71565722D01*
X149627232Y-70925959D02*
X149997621Y-70555570D01*
X150098637Y-71397364D01*
X150469026Y-71026974D01*
X150032135Y-75034755D02*
X151210646Y-75270457D01*
X150503539Y-74563351D02*
X150739241Y-75741862D01*
X151850409Y-74630694D02*
X151446348Y-75034755D01*
X151648379Y-74832725D02*
X150941272Y-74125618D01*
X150974944Y-74293977D01*
X150974944Y-74428664D01*
X150941272Y-74529679D01*
%TD*%
M02*
