%TF.GenerationSoftware,KiCad,Pcbnew,5.1.9*%
%TF.CreationDate,2021-05-15T18:24:56-05:00*%
%TF.ProjectId,nightwing,6e696768-7477-4696-9e67-2e6b69636164,rev?*%
%TF.SameCoordinates,Original*%
%TF.FileFunction,Other,User*%
%FSLAX46Y46*%
G04 Gerber Fmt 4.6, Leading zero omitted, Abs format (unit mm)*
G04 Created by KiCad (PCBNEW 5.1.9) date 2021-05-15 18:24:56*
%MOMM*%
%LPD*%
G01*
G04 APERTURE LIST*
%ADD10C,0.050000*%
G04 APERTURE END LIST*
D10*
%TO.C,RESET_SW1*%
X139010000Y-59460000D02*
X139010000Y-52960000D01*
X129010000Y-52960000D02*
X129010000Y-59460000D01*
X129010000Y-59460000D02*
X139010000Y-59460000D01*
X129010000Y-52960000D02*
X139010000Y-52960000D01*
%TO.C,J3*%
X146626275Y-24126509D02*
X146862869Y-25809964D01*
X137633571Y-27107058D02*
X137396976Y-25423602D01*
X137396976Y-25423602D02*
X146626275Y-24126509D01*
X150203024Y-49576398D02*
X140973725Y-50873491D01*
X140973725Y-50873491D02*
X140737131Y-49190036D01*
X146862869Y-25809964D02*
X137633571Y-27107058D01*
X140737131Y-49190036D02*
X149966429Y-47892942D01*
X149966429Y-47892942D02*
X150203024Y-49576398D01*
%TO.C,U3*%
X143930000Y-77285231D02*
X153405231Y-67810000D01*
X134454769Y-67810000D02*
X143930000Y-58334769D01*
X143930000Y-58334769D02*
X153405231Y-67810000D01*
X134454769Y-67810000D02*
X143930000Y-77285231D01*
%TO.C,J1*%
X30915216Y-15689114D02*
X29604206Y-6360788D01*
X41451668Y-14208312D02*
X40140658Y-4879987D01*
X40140658Y-4879987D02*
X29604206Y-6360788D01*
X41451668Y-14208312D02*
X30915216Y-15689114D01*
%TO.C,SW19*%
X70290000Y-102070000D02*
X52790000Y-102070000D01*
X70290000Y-102070000D02*
X70290000Y-87870000D01*
X52790000Y-87870000D02*
X52790000Y-102070000D01*
X52790000Y-87870000D02*
X70290000Y-87870000D01*
%TO.C,L39*%
X128548592Y-18718521D02*
X128548592Y-24218521D01*
X135448592Y-18718521D02*
X128548592Y-18718521D01*
X128548592Y-24218521D02*
X135448592Y-24218521D01*
X135448592Y-24218521D02*
X135448592Y-18718521D01*
%TO.C,L38*%
X146980000Y-37310000D02*
X146980000Y-42810000D01*
X153880000Y-37310000D02*
X146980000Y-37310000D01*
X146980000Y-42810000D02*
X153880000Y-42810000D01*
X153880000Y-42810000D02*
X153880000Y-37310000D01*
%TO.C,L37*%
X154210000Y-88350000D02*
X154210000Y-82850000D01*
X147310000Y-88350000D02*
X154210000Y-88350000D01*
X154210000Y-82850000D02*
X147310000Y-82850000D01*
X147310000Y-82850000D02*
X147310000Y-88350000D01*
%TO.C,L36*%
X117734909Y-111816464D02*
X116779844Y-117232907D01*
X124530082Y-113014637D02*
X117734909Y-111816464D01*
X116779844Y-117232907D02*
X123575017Y-118431080D01*
X123575017Y-118431080D02*
X124530082Y-113014637D01*
%TO.C,L35*%
X59924324Y-93717721D02*
X59924324Y-99217721D01*
X66824324Y-93717721D02*
X59924324Y-93717721D01*
X59924324Y-99217721D02*
X66824324Y-99217721D01*
X66824324Y-99217721D02*
X66824324Y-93717721D01*
%TO.C,L34*%
X19518505Y-68780487D02*
X19518505Y-74280487D01*
X26418505Y-68780487D02*
X19518505Y-68780487D01*
X19518505Y-74280487D02*
X26418505Y-74280487D01*
X26418505Y-74280487D02*
X26418505Y-68780487D01*
%TO.C,L33*%
X16424788Y-28187170D02*
X16424788Y-33687170D01*
X23324788Y-28187170D02*
X16424788Y-28187170D01*
X16424788Y-33687170D02*
X23324788Y-33687170D01*
X23324788Y-33687170D02*
X23324788Y-28187170D01*
%TO.C,L32*%
X17435000Y-21608641D02*
X17435000Y-27108641D01*
X24335000Y-21608641D02*
X17435000Y-21608641D01*
X24335000Y-27108641D02*
X24335000Y-21608641D01*
X17435000Y-27108641D02*
X24335000Y-27108641D01*
%TO.C,L31*%
X30105000Y-17608641D02*
X30105000Y-23108641D01*
X37005000Y-17608641D02*
X30105000Y-17608641D01*
X37005000Y-23108641D02*
X37005000Y-17608641D01*
X30105000Y-23108641D02*
X37005000Y-23108641D01*
%TO.C,L30*%
X42775000Y-14108641D02*
X42775000Y-19608641D01*
X49675000Y-14108641D02*
X42775000Y-14108641D01*
X49675000Y-19608641D02*
X49675000Y-14108641D01*
X42775000Y-19608641D02*
X49675000Y-19608641D01*
%TO.C,L29*%
X55435000Y-9008641D02*
X55435000Y-14508641D01*
X62335000Y-9008641D02*
X55435000Y-9008641D01*
X62335000Y-14508641D02*
X62335000Y-9008641D01*
X55435000Y-14508641D02*
X62335000Y-14508641D01*
%TO.C,L28*%
X68105000Y-7280000D02*
X68105000Y-12780000D01*
X75005000Y-7280000D02*
X68105000Y-7280000D01*
X75005000Y-12780000D02*
X75005000Y-7280000D01*
X68105000Y-12780000D02*
X75005000Y-12780000D01*
%TO.C,L27*%
X80775000Y-7620000D02*
X80775000Y-13120000D01*
X87675000Y-7620000D02*
X80775000Y-7620000D01*
X87675000Y-13120000D02*
X87675000Y-7620000D01*
X80775000Y-13120000D02*
X87675000Y-13120000D01*
%TO.C,L26*%
X93435000Y-11250000D02*
X93435000Y-16750000D01*
X100335000Y-11250000D02*
X93435000Y-11250000D01*
X100335000Y-16750000D02*
X100335000Y-11250000D01*
X93435000Y-16750000D02*
X100335000Y-16750000D01*
%TO.C,L25*%
X106105000Y-13250000D02*
X106105000Y-18750000D01*
X113005000Y-13250000D02*
X106105000Y-13250000D01*
X113005000Y-18750000D02*
X113005000Y-13250000D01*
X106105000Y-18750000D02*
X113005000Y-18750000D01*
%TO.C,L24*%
X118775000Y-14750000D02*
X118775000Y-20250000D01*
X125675000Y-14750000D02*
X118775000Y-14750000D01*
X125675000Y-20250000D02*
X125675000Y-14750000D01*
X118775000Y-20250000D02*
X125675000Y-20250000D01*
%TO.C,R5*%
X132320000Y-70667113D02*
X135680000Y-70667113D01*
X132320000Y-72567113D02*
X132320000Y-70667113D01*
X135680000Y-72567113D02*
X132320000Y-72567113D01*
X135680000Y-70667113D02*
X135680000Y-72567113D01*
%TO.C,R7*%
X132320000Y-72693781D02*
X135680000Y-72693781D01*
X132320000Y-74593781D02*
X132320000Y-72693781D01*
X135680000Y-74593781D02*
X132320000Y-74593781D01*
X135680000Y-72693781D02*
X135680000Y-74593781D01*
%TO.C,R3*%
X43699544Y-21507498D02*
X43699544Y-24867498D01*
X41799544Y-21507498D02*
X43699544Y-21507498D01*
X41799544Y-24867498D02*
X41799544Y-21507498D01*
X43699544Y-24867498D02*
X41799544Y-24867498D01*
%TO.C,R4*%
X41355819Y-24867498D02*
X39455819Y-24867498D01*
X39455819Y-24867498D02*
X39455819Y-21507498D01*
X39455819Y-21507498D02*
X41355819Y-21507498D01*
X41355819Y-21507498D02*
X41355819Y-24867498D01*
%TO.C,D1*%
X18775000Y-35041000D02*
X18775000Y-41641000D01*
X18775000Y-41641000D02*
X16675000Y-41641000D01*
X16675000Y-41641000D02*
X16675000Y-35041000D01*
X18775000Y-35041000D02*
X16675000Y-35041000D01*
%TO.C,D2*%
X36075000Y-35241000D02*
X36075000Y-41841000D01*
X36075000Y-41841000D02*
X33975000Y-41841000D01*
X33975000Y-41841000D02*
X33975000Y-35241000D01*
X36075000Y-35241000D02*
X33975000Y-35241000D01*
%TO.C,D3*%
X55075000Y-19691000D02*
X55075000Y-26291000D01*
X55075000Y-26291000D02*
X52975000Y-26291000D01*
X52975000Y-26291000D02*
X52975000Y-19691000D01*
X55075000Y-19691000D02*
X52975000Y-19691000D01*
%TO.C,D4*%
X74075000Y-16691000D02*
X74075000Y-23291000D01*
X74075000Y-23291000D02*
X71975000Y-23291000D01*
X71975000Y-23291000D02*
X71975000Y-16691000D01*
X74075000Y-16691000D02*
X71975000Y-16691000D01*
%TO.C,D5*%
X93075000Y-26691000D02*
X93075000Y-33291000D01*
X93075000Y-33291000D02*
X90975000Y-33291000D01*
X90975000Y-33291000D02*
X90975000Y-26691000D01*
X93075000Y-26691000D02*
X90975000Y-26691000D01*
%TO.C,D6*%
X112075000Y-28691000D02*
X112075000Y-35291000D01*
X112075000Y-35291000D02*
X109975000Y-35291000D01*
X109975000Y-35291000D02*
X109975000Y-28691000D01*
X112075000Y-28691000D02*
X109975000Y-28691000D01*
%TO.C,D7*%
X18775000Y-54041000D02*
X18775000Y-60641000D01*
X18775000Y-60641000D02*
X16675000Y-60641000D01*
X16675000Y-60641000D02*
X16675000Y-54041000D01*
X18775000Y-54041000D02*
X16675000Y-54041000D01*
%TO.C,D8*%
X36075000Y-54241000D02*
X36075000Y-60841000D01*
X36075000Y-60841000D02*
X33975000Y-60841000D01*
X33975000Y-60841000D02*
X33975000Y-54241000D01*
X36075000Y-54241000D02*
X33975000Y-54241000D01*
%TO.C,D9*%
X55075000Y-38691000D02*
X55075000Y-45291000D01*
X55075000Y-45291000D02*
X52975000Y-45291000D01*
X52975000Y-45291000D02*
X52975000Y-38691000D01*
X55075000Y-38691000D02*
X52975000Y-38691000D01*
%TO.C,D10*%
X74075000Y-35691000D02*
X74075000Y-42291000D01*
X74075000Y-42291000D02*
X71975000Y-42291000D01*
X71975000Y-42291000D02*
X71975000Y-35691000D01*
X74075000Y-35691000D02*
X71975000Y-35691000D01*
%TO.C,D11*%
X93075000Y-45691000D02*
X93075000Y-52291000D01*
X93075000Y-52291000D02*
X90975000Y-52291000D01*
X90975000Y-52291000D02*
X90975000Y-45691000D01*
X93075000Y-45691000D02*
X90975000Y-45691000D01*
%TO.C,D12*%
X112075000Y-47691000D02*
X112075000Y-54291000D01*
X112075000Y-54291000D02*
X109975000Y-54291000D01*
X109975000Y-54291000D02*
X109975000Y-47691000D01*
X112075000Y-47691000D02*
X109975000Y-47691000D01*
%TO.C,D13*%
X18581063Y-71980447D02*
X18581063Y-78580447D01*
X18581063Y-78580447D02*
X16481063Y-78580447D01*
X16481063Y-78580447D02*
X16481063Y-71980447D01*
X18581063Y-71980447D02*
X16481063Y-71980447D01*
%TO.C,D14*%
X36075000Y-73241000D02*
X36075000Y-79841000D01*
X36075000Y-79841000D02*
X33975000Y-79841000D01*
X33975000Y-79841000D02*
X33975000Y-73241000D01*
X36075000Y-73241000D02*
X33975000Y-73241000D01*
%TO.C,D15*%
X55075000Y-57691000D02*
X55075000Y-64291000D01*
X55075000Y-64291000D02*
X52975000Y-64291000D01*
X52975000Y-64291000D02*
X52975000Y-57691000D01*
X55075000Y-57691000D02*
X52975000Y-57691000D01*
%TO.C,D16*%
X72580487Y-55210854D02*
X72580487Y-61810854D01*
X72580487Y-61810854D02*
X70480487Y-61810854D01*
X70480487Y-61810854D02*
X70480487Y-55210854D01*
X72580487Y-55210854D02*
X70480487Y-55210854D01*
%TO.C,D17*%
X93075000Y-64691000D02*
X93075000Y-71291000D01*
X93075000Y-71291000D02*
X90975000Y-71291000D01*
X90975000Y-71291000D02*
X90975000Y-64691000D01*
X93075000Y-64691000D02*
X90975000Y-64691000D01*
%TO.C,D18*%
X112075000Y-66691000D02*
X112075000Y-73291000D01*
X112075000Y-73291000D02*
X109975000Y-73291000D01*
X109975000Y-73291000D02*
X109975000Y-66691000D01*
X112075000Y-66691000D02*
X109975000Y-66691000D01*
%TO.C,D19*%
X75111710Y-90636498D02*
X75111710Y-97236498D01*
X75111710Y-97236498D02*
X73011710Y-97236498D01*
X73011710Y-97236498D02*
X73011710Y-90636498D01*
X75111710Y-90636498D02*
X73011710Y-90636498D01*
%TO.C,D20*%
X78687500Y-83700000D02*
X78687500Y-90300000D01*
X78687500Y-90300000D02*
X76587500Y-90300000D01*
X76587500Y-90300000D02*
X76587500Y-83700000D01*
X78687500Y-83700000D02*
X76587500Y-83700000D01*
%TO.C,D21*%
X97687500Y-85700000D02*
X97687500Y-92300000D01*
X97687500Y-92300000D02*
X95587500Y-92300000D01*
X95587500Y-92300000D02*
X95587500Y-85700000D01*
X97687500Y-85700000D02*
X95587500Y-85700000D01*
%TO.C,D22*%
X155552306Y-104699065D02*
X162052037Y-105845143D01*
X162052037Y-105845143D02*
X161687376Y-107913239D01*
X161687376Y-107913239D02*
X155187645Y-106767161D01*
X155552306Y-104699065D02*
X155187645Y-106767161D01*
%TO.C,D23*%
X134030935Y-98832306D02*
X132884857Y-105332037D01*
X132884857Y-105332037D02*
X130816761Y-104967376D01*
X130816761Y-104967376D02*
X131962839Y-98467645D01*
X134030935Y-98832306D02*
X131962839Y-98467645D01*
%TO.C,D24*%
X152910935Y-101242306D02*
X151764857Y-107742037D01*
X151764857Y-107742037D02*
X149696761Y-107377376D01*
X149696761Y-107377376D02*
X150842839Y-100877645D01*
X152910935Y-101242306D02*
X150842839Y-100877645D01*
%TO.C,J2*%
X170353530Y-100050243D02*
X159875176Y-98202627D01*
X159875176Y-98202627D02*
X161510942Y-88925738D01*
X170353530Y-100050243D02*
X171989296Y-90773354D01*
X171989296Y-90773354D02*
X161510942Y-88925738D01*
%TO.C,C1*%
X142479117Y-56874954D02*
X143865046Y-58260883D01*
X143865046Y-58260883D02*
X141460883Y-60665046D01*
X141460883Y-60665046D02*
X140074954Y-59279117D01*
X140074954Y-59279117D02*
X142479117Y-56874954D01*
%TO.C,C2*%
X140034954Y-76400883D02*
X141420883Y-75014954D01*
X141420883Y-75014954D02*
X143825046Y-77419117D01*
X143825046Y-77419117D02*
X142439117Y-78805046D01*
X142439117Y-78805046D02*
X140034954Y-76400883D01*
%TO.C,C4*%
X135347366Y-63946705D02*
X136733295Y-65332634D01*
X136733295Y-65332634D02*
X134329132Y-67736797D01*
X134329132Y-67736797D02*
X132943203Y-66350868D01*
X132943203Y-66350868D02*
X135347366Y-63946705D01*
%TO.C,C5*%
X144014954Y-58250883D02*
X145400883Y-56864954D01*
X145400883Y-56864954D02*
X147805046Y-59269117D01*
X147805046Y-59269117D02*
X146419117Y-60655046D01*
X146419117Y-60655046D02*
X144014954Y-58250883D01*
%TO.C,C9*%
X150274954Y-64360883D02*
X151660883Y-62974954D01*
X151660883Y-62974954D02*
X154065046Y-65379117D01*
X154065046Y-65379117D02*
X152679117Y-66765046D01*
X152679117Y-66765046D02*
X150274954Y-64360883D01*
%TO.C,C10*%
X135700000Y-74770000D02*
X135700000Y-76730000D01*
X135700000Y-76730000D02*
X132300000Y-76730000D01*
X132300000Y-76730000D02*
X132300000Y-74770000D01*
X132300000Y-74770000D02*
X135700000Y-74770000D01*
%TO.C,F2*%
X31066842Y-27885587D02*
X31066842Y-30125587D01*
X31066842Y-30125587D02*
X26506842Y-30125587D01*
X26506842Y-30125587D02*
X26506842Y-27885587D01*
X26506842Y-27885587D02*
X31066842Y-27885587D01*
%TO.C,R2*%
X154150000Y-59840000D02*
X154150000Y-61740000D01*
X154150000Y-61740000D02*
X150790000Y-61740000D01*
X150790000Y-61740000D02*
X150790000Y-59840000D01*
X150790000Y-59840000D02*
X154150000Y-59840000D01*
%TO.C,U1*%
X44305275Y-26236882D02*
X44305275Y-29736882D01*
X44305275Y-26236882D02*
X37405275Y-26236882D01*
X37405275Y-29736882D02*
X44305275Y-29736882D01*
X37405275Y-29736882D02*
X37405275Y-26236882D01*
%TO.C,X1*%
X157242604Y-72558535D02*
X153282806Y-68598737D01*
X153282806Y-68598737D02*
X144726814Y-77154729D01*
X144726814Y-77154729D02*
X148686612Y-81114527D01*
X148686612Y-81114527D02*
X157242604Y-72558535D01*
%TO.C,L1*%
X19225000Y-36317000D02*
X29225000Y-36317000D01*
X29225000Y-36317000D02*
X29225000Y-39365000D01*
X29225000Y-39365000D02*
X19225000Y-39365000D01*
X19225000Y-36317000D02*
X19225000Y-39365000D01*
%TO.C,L2*%
X38225000Y-35017000D02*
X48225000Y-35017000D01*
X48225000Y-35017000D02*
X48225000Y-38065000D01*
X48225000Y-38065000D02*
X38225000Y-38065000D01*
X38225000Y-35017000D02*
X38225000Y-38065000D01*
%TO.C,L3*%
X57225000Y-19467000D02*
X67225000Y-19467000D01*
X67225000Y-19467000D02*
X67225000Y-22515000D01*
X67225000Y-22515000D02*
X57225000Y-22515000D01*
X57225000Y-19467000D02*
X57225000Y-22515000D01*
%TO.C,L4*%
X76225000Y-16467000D02*
X86225000Y-16467000D01*
X86225000Y-16467000D02*
X86225000Y-19515000D01*
X86225000Y-19515000D02*
X76225000Y-19515000D01*
X76225000Y-16467000D02*
X76225000Y-19515000D01*
%TO.C,L5*%
X95225000Y-26467000D02*
X105225000Y-26467000D01*
X105225000Y-26467000D02*
X105225000Y-29515000D01*
X105225000Y-29515000D02*
X95225000Y-29515000D01*
X95225000Y-26467000D02*
X95225000Y-29515000D01*
%TO.C,L6*%
X114225000Y-28467000D02*
X124225000Y-28467000D01*
X124225000Y-28467000D02*
X124225000Y-31515000D01*
X124225000Y-31515000D02*
X114225000Y-31515000D01*
X114225000Y-28467000D02*
X114225000Y-31515000D01*
%TO.C,L7*%
X29225000Y-58365000D02*
X19225000Y-58365000D01*
X19225000Y-58365000D02*
X19225000Y-55317000D01*
X19225000Y-55317000D02*
X29225000Y-55317000D01*
X29225000Y-58365000D02*
X29225000Y-55317000D01*
%TO.C,L8*%
X48225000Y-57065000D02*
X38225000Y-57065000D01*
X38225000Y-57065000D02*
X38225000Y-54017000D01*
X38225000Y-54017000D02*
X48225000Y-54017000D01*
X48225000Y-57065000D02*
X48225000Y-54017000D01*
%TO.C,L9*%
X67225000Y-41515000D02*
X57225000Y-41515000D01*
X57225000Y-41515000D02*
X57225000Y-38467000D01*
X57225000Y-38467000D02*
X67225000Y-38467000D01*
X67225000Y-41515000D02*
X67225000Y-38467000D01*
%TO.C,L10*%
X86225000Y-38515000D02*
X76225000Y-38515000D01*
X76225000Y-38515000D02*
X76225000Y-35467000D01*
X76225000Y-35467000D02*
X86225000Y-35467000D01*
X86225000Y-38515000D02*
X86225000Y-35467000D01*
%TO.C,L11*%
X105225000Y-48515000D02*
X95225000Y-48515000D01*
X95225000Y-48515000D02*
X95225000Y-45467000D01*
X95225000Y-45467000D02*
X105225000Y-45467000D01*
X105225000Y-48515000D02*
X105225000Y-45467000D01*
%TO.C,L12*%
X124225000Y-50515000D02*
X114225000Y-50515000D01*
X114225000Y-50515000D02*
X114225000Y-47467000D01*
X114225000Y-47467000D02*
X124225000Y-47467000D01*
X124225000Y-50515000D02*
X124225000Y-47467000D01*
%TO.C,L13*%
X19225000Y-74317000D02*
X29225000Y-74317000D01*
X29225000Y-74317000D02*
X29225000Y-77365000D01*
X29225000Y-77365000D02*
X19225000Y-77365000D01*
X19225000Y-74317000D02*
X19225000Y-77365000D01*
%TO.C,L14*%
X38225000Y-73017000D02*
X48225000Y-73017000D01*
X48225000Y-73017000D02*
X48225000Y-76065000D01*
X48225000Y-76065000D02*
X38225000Y-76065000D01*
X38225000Y-73017000D02*
X38225000Y-76065000D01*
%TO.C,L15*%
X57225000Y-57467000D02*
X67225000Y-57467000D01*
X67225000Y-57467000D02*
X67225000Y-60515000D01*
X67225000Y-60515000D02*
X57225000Y-60515000D01*
X57225000Y-57467000D02*
X57225000Y-60515000D01*
%TO.C,L16*%
X76225000Y-54467000D02*
X86225000Y-54467000D01*
X86225000Y-54467000D02*
X86225000Y-57515000D01*
X86225000Y-57515000D02*
X76225000Y-57515000D01*
X76225000Y-54467000D02*
X76225000Y-57515000D01*
%TO.C,L17*%
X95225000Y-64467000D02*
X105225000Y-64467000D01*
X105225000Y-64467000D02*
X105225000Y-67515000D01*
X105225000Y-67515000D02*
X95225000Y-67515000D01*
X95225000Y-64467000D02*
X95225000Y-67515000D01*
%TO.C,L18*%
X114225000Y-66467000D02*
X114225000Y-69515000D01*
X124225000Y-69515000D02*
X114225000Y-69515000D01*
X124225000Y-66467000D02*
X124225000Y-69515000D01*
X114225000Y-66467000D02*
X124225000Y-66467000D01*
%TO.C,L19*%
X90837500Y-86524000D02*
X80837500Y-86524000D01*
X80837500Y-86524000D02*
X80837500Y-83476000D01*
X80837500Y-83476000D02*
X90837500Y-83476000D01*
X90837500Y-86524000D02*
X90837500Y-83476000D01*
%TO.C,L20*%
X109837500Y-88524000D02*
X99837500Y-88524000D01*
X99837500Y-88524000D02*
X99837500Y-85476000D01*
X99837500Y-85476000D02*
X109837500Y-85476000D01*
X109837500Y-88524000D02*
X109837500Y-85476000D01*
%TO.C,L21*%
X129467903Y-100614891D02*
X119619825Y-98878409D01*
X119619825Y-98878409D02*
X120149105Y-95876715D01*
X120149105Y-95876715D02*
X129997183Y-97613197D01*
X129467903Y-100614891D02*
X129997183Y-97613197D01*
%TO.C,L22*%
X148409399Y-104069088D02*
X138561321Y-102332606D01*
X138561321Y-102332606D02*
X139090601Y-99330912D01*
X139090601Y-99330912D02*
X148938679Y-101067394D01*
X148409399Y-104069088D02*
X148938679Y-101067394D01*
%TO.C,L23*%
X152720912Y-118639399D02*
X154457394Y-108791321D01*
X154457394Y-108791321D02*
X157459088Y-109320601D01*
X157459088Y-109320601D02*
X155722606Y-119168679D01*
X152720912Y-118639399D02*
X155722606Y-119168679D01*
%TD*%
M02*
