%TF.GenerationSoftware,KiCad,Pcbnew,5.1.10*%
%TF.CreationDate,2021-05-25T13:28:19-05:00*%
%TF.ProjectId,nightwing,6e696768-7477-4696-9e67-2e6b69636164,rev?*%
%TF.SameCoordinates,Original*%
%TF.FileFunction,Other,User*%
%FSLAX46Y46*%
G04 Gerber Fmt 4.6, Leading zero omitted, Abs format (unit mm)*
G04 Created by KiCad (PCBNEW 5.1.10) date 2021-05-25 13:28:19*
%MOMM*%
%LPD*%
G01*
G04 APERTURE LIST*
%ADD10C,0.050000*%
G04 APERTURE END LIST*
D10*
%TO.C,R7*%
X157820000Y-80950000D02*
X157820000Y-79050000D01*
X157820000Y-79050000D02*
X161180000Y-79050000D01*
X161180000Y-79050000D02*
X161180000Y-80950000D01*
X161180000Y-80950000D02*
X157820000Y-80950000D01*
%TO.C,R8*%
X161180000Y-74550000D02*
X161180000Y-76450000D01*
X161180000Y-76450000D02*
X157820000Y-76450000D01*
X157820000Y-76450000D02*
X157820000Y-74550000D01*
X157820000Y-74550000D02*
X161180000Y-74550000D01*
%TO.C,R6*%
X154870000Y-84730000D02*
X154870000Y-81370000D01*
X156770000Y-84730000D02*
X154870000Y-84730000D01*
X156770000Y-81370000D02*
X156770000Y-84730000D01*
X154870000Y-81370000D02*
X156770000Y-81370000D01*
%TO.C,R1*%
X154770000Y-81370000D02*
X154770000Y-84730000D01*
X152870000Y-81370000D02*
X154770000Y-81370000D01*
X152870000Y-84730000D02*
X152870000Y-81370000D01*
X154770000Y-84730000D02*
X152870000Y-84730000D01*
%TO.C,H10*%
X59430000Y-85980000D02*
G75*
G03*
X59430000Y-85980000I-2150000J0D01*
G01*
%TO.C,H9*%
X149400000Y-130660000D02*
G75*
G03*
X149400000Y-130660000I-2150000J0D01*
G01*
%TO.C,H8*%
X133320000Y-100940000D02*
G75*
G03*
X133320000Y-100940000I-2150000J0D01*
G01*
%TO.C,H7*%
X95240000Y-89350000D02*
G75*
G03*
X95240000Y-89350000I-2150000J0D01*
G01*
%TO.C,H6*%
X116610000Y-74240000D02*
G75*
G03*
X116610000Y-74240000I-2150000J0D01*
G01*
%TO.C,H5*%
X116370000Y-55030000D02*
G75*
G03*
X116370000Y-55030000I-2150000J0D01*
G01*
%TO.C,H4*%
X78950000Y-62910000D02*
G75*
G03*
X78950000Y-62910000I-2150000J0D01*
G01*
%TO.C,H3*%
X78930000Y-44250000D02*
G75*
G03*
X78930000Y-44250000I-2150000J0D01*
G01*
%TO.C,H2*%
X41140000Y-81490000D02*
G75*
G03*
X41140000Y-81490000I-2150000J0D01*
G01*
%TO.C,H1*%
X40610000Y-62530000D02*
G75*
G03*
X40610000Y-62530000I-2150000J0D01*
G01*
%TO.C,J2*%
X165634697Y-110438129D02*
X167270463Y-101161240D01*
X176113051Y-112285745D02*
X177748817Y-103008856D01*
X177748817Y-103008856D02*
X167270463Y-101161240D01*
X176113051Y-112285745D02*
X165634697Y-110438129D01*
%TO.C,RESET*%
X144623000Y-92448000D02*
X144623000Y-85948000D01*
X134623000Y-85948000D02*
X134623000Y-92448000D01*
X134623000Y-92448000D02*
X144623000Y-92448000D01*
X134623000Y-85948000D02*
X144623000Y-85948000D01*
%TO.C,J3*%
X154286429Y-58786942D02*
X154523024Y-60470398D01*
X145057131Y-60084036D02*
X154286429Y-58786942D01*
X151182869Y-36703964D02*
X141953571Y-38001058D01*
X145293725Y-61767491D02*
X145057131Y-60084036D01*
X154523024Y-60470398D02*
X145293725Y-61767491D01*
X141716976Y-36317602D02*
X150946275Y-35020509D01*
X141953571Y-38001058D02*
X141716976Y-36317602D01*
X150946275Y-35020509D02*
X151182869Y-36703964D01*
%TO.C,U3*%
X148138000Y-84055231D02*
X157613231Y-74580000D01*
X138662769Y-74580000D02*
X148138000Y-65104769D01*
X148138000Y-84055231D02*
X138662769Y-74580000D01*
X157613231Y-74580000D02*
X148138000Y-65104769D01*
%TO.C,R2*%
X134550000Y-73530000D02*
X134550000Y-71630000D01*
X134550000Y-71630000D02*
X137910000Y-71630000D01*
X137910000Y-71630000D02*
X137910000Y-73530000D01*
X137910000Y-73530000D02*
X134550000Y-73530000D01*
%TO.C,C10*%
X157800000Y-78980000D02*
X157800000Y-77020000D01*
X157800000Y-77020000D02*
X161200000Y-77020000D01*
X161200000Y-77020000D02*
X161200000Y-78980000D01*
X161200000Y-78980000D02*
X157800000Y-78980000D01*
%TO.C,C9*%
X149820000Y-62750000D02*
X149820000Y-64710000D01*
X149820000Y-64710000D02*
X146420000Y-64710000D01*
X146420000Y-64710000D02*
X146420000Y-62750000D01*
X146420000Y-62750000D02*
X149820000Y-62750000D01*
%TO.C,C5*%
X137930000Y-75730000D02*
X137930000Y-77690000D01*
X137930000Y-77690000D02*
X134530000Y-77690000D01*
X134530000Y-77690000D02*
X134530000Y-75730000D01*
X134530000Y-75730000D02*
X137930000Y-75730000D01*
%TO.C,C4*%
X137930000Y-73630000D02*
X137930000Y-75590000D01*
X137930000Y-75590000D02*
X134530000Y-75590000D01*
X134530000Y-75590000D02*
X134530000Y-73630000D01*
X134530000Y-73630000D02*
X137930000Y-73630000D01*
%TO.C,C2*%
X148084000Y-84173000D02*
X148084000Y-86133000D01*
X148084000Y-86133000D02*
X144684000Y-86133000D01*
X144684000Y-86133000D02*
X144684000Y-84173000D01*
X144684000Y-84173000D02*
X148084000Y-84173000D01*
%TO.C,C1*%
X148186000Y-86133000D02*
X148186000Y-84173000D01*
X148186000Y-84173000D02*
X151586000Y-84173000D01*
X151586000Y-84173000D02*
X151586000Y-86133000D01*
X151586000Y-86133000D02*
X148186000Y-86133000D01*
%TO.C,L29*%
X59755000Y-25402641D02*
X66655000Y-25402641D01*
X66655000Y-25402641D02*
X66655000Y-19902641D01*
X66655000Y-19902641D02*
X59755000Y-19902641D01*
X59755000Y-19902641D02*
X59755000Y-25402641D01*
%TO.C,L30*%
X47095000Y-30502641D02*
X53995000Y-30502641D01*
X53995000Y-30502641D02*
X53995000Y-25002641D01*
X53995000Y-25002641D02*
X47095000Y-25002641D01*
X47095000Y-25002641D02*
X47095000Y-30502641D01*
%TO.C,J1*%
X45684668Y-23420312D02*
X35148216Y-24901114D01*
X44373658Y-14091987D02*
X33837206Y-15572788D01*
X45684668Y-23420312D02*
X44373658Y-14091987D01*
X35148216Y-24901114D02*
X33837206Y-15572788D01*
%TO.C,SW19*%
X57110000Y-98764000D02*
X74610000Y-98764000D01*
X57110000Y-98764000D02*
X57110000Y-112964000D01*
X74610000Y-112964000D02*
X74610000Y-98764000D01*
X74610000Y-112964000D02*
X57110000Y-112964000D01*
%TO.C,L38*%
X158200000Y-53704000D02*
X158200000Y-48204000D01*
X151300000Y-53704000D02*
X158200000Y-53704000D01*
X158200000Y-48204000D02*
X151300000Y-48204000D01*
X151300000Y-48204000D02*
X151300000Y-53704000D01*
%TO.C,L37*%
X146556000Y-100478000D02*
X146556000Y-105978000D01*
X153456000Y-100478000D02*
X146556000Y-100478000D01*
X146556000Y-105978000D02*
X153456000Y-105978000D01*
X153456000Y-105978000D02*
X153456000Y-100478000D01*
%TO.C,L36*%
X127895017Y-129325080D02*
X128850082Y-123908637D01*
X121099844Y-128126907D02*
X127895017Y-129325080D01*
X128850082Y-123908637D02*
X122054909Y-122710464D01*
X122054909Y-122710464D02*
X121099844Y-128126907D01*
%TO.C,L34*%
X30738505Y-85174487D02*
X30738505Y-79674487D01*
X23838505Y-85174487D02*
X30738505Y-85174487D01*
X30738505Y-79674487D02*
X23838505Y-79674487D01*
X23838505Y-79674487D02*
X23838505Y-85174487D01*
%TO.C,L33*%
X27644788Y-44581170D02*
X27644788Y-39081170D01*
X20744788Y-44581170D02*
X27644788Y-44581170D01*
X27644788Y-39081170D02*
X20744788Y-39081170D01*
X20744788Y-39081170D02*
X20744788Y-44581170D01*
%TO.C,L32*%
X21755000Y-38002641D02*
X28655000Y-38002641D01*
X28655000Y-38002641D02*
X28655000Y-32502641D01*
X28655000Y-32502641D02*
X21755000Y-32502641D01*
X21755000Y-32502641D02*
X21755000Y-38002641D01*
%TO.C,L31*%
X34425000Y-34002641D02*
X41325000Y-34002641D01*
X41325000Y-34002641D02*
X41325000Y-28502641D01*
X41325000Y-28502641D02*
X34425000Y-28502641D01*
X34425000Y-28502641D02*
X34425000Y-34002641D01*
%TO.C,L28*%
X72425000Y-23674000D02*
X79325000Y-23674000D01*
X79325000Y-23674000D02*
X79325000Y-18174000D01*
X79325000Y-18174000D02*
X72425000Y-18174000D01*
X72425000Y-18174000D02*
X72425000Y-23674000D01*
%TO.C,L27*%
X85095000Y-24014000D02*
X91995000Y-24014000D01*
X91995000Y-24014000D02*
X91995000Y-18514000D01*
X91995000Y-18514000D02*
X85095000Y-18514000D01*
X85095000Y-18514000D02*
X85095000Y-24014000D01*
%TO.C,L26*%
X97755000Y-27644000D02*
X104655000Y-27644000D01*
X104655000Y-27644000D02*
X104655000Y-22144000D01*
X104655000Y-22144000D02*
X97755000Y-22144000D01*
X97755000Y-22144000D02*
X97755000Y-27644000D01*
%TO.C,L25*%
X110425000Y-29644000D02*
X117325000Y-29644000D01*
X117325000Y-29644000D02*
X117325000Y-24144000D01*
X117325000Y-24144000D02*
X110425000Y-24144000D01*
X110425000Y-24144000D02*
X110425000Y-29644000D01*
%TO.C,L24*%
X123095000Y-31144000D02*
X129995000Y-31144000D01*
X129995000Y-31144000D02*
X129995000Y-25644000D01*
X129995000Y-25644000D02*
X123095000Y-25644000D01*
X123095000Y-25644000D02*
X123095000Y-31144000D01*
%TO.C,R5*%
X157820000Y-82950000D02*
X157820000Y-81050000D01*
X157820000Y-81050000D02*
X161180000Y-81050000D01*
X161180000Y-81050000D02*
X161180000Y-82950000D01*
X161180000Y-82950000D02*
X157820000Y-82950000D01*
%TO.C,R3*%
X48452544Y-34137498D02*
X46552544Y-34137498D01*
X46552544Y-34137498D02*
X46552544Y-30777498D01*
X46552544Y-30777498D02*
X48452544Y-30777498D01*
X48452544Y-30777498D02*
X48452544Y-34137498D01*
%TO.C,R4*%
X46108819Y-30777498D02*
X46108819Y-34137498D01*
X44208819Y-30777498D02*
X46108819Y-30777498D01*
X44208819Y-34137498D02*
X44208819Y-30777498D01*
X46108819Y-34137498D02*
X44208819Y-34137498D01*
%TO.C,D1*%
X23095000Y-45935000D02*
X20995000Y-45935000D01*
X20995000Y-52535000D02*
X20995000Y-45935000D01*
X23095000Y-52535000D02*
X20995000Y-52535000D01*
X23095000Y-45935000D02*
X23095000Y-52535000D01*
%TO.C,D2*%
X40395000Y-46135000D02*
X38295000Y-46135000D01*
X38295000Y-52735000D02*
X38295000Y-46135000D01*
X40395000Y-52735000D02*
X38295000Y-52735000D01*
X40395000Y-46135000D02*
X40395000Y-52735000D01*
%TO.C,D3*%
X59395000Y-30585000D02*
X57295000Y-30585000D01*
X57295000Y-37185000D02*
X57295000Y-30585000D01*
X59395000Y-37185000D02*
X57295000Y-37185000D01*
X59395000Y-30585000D02*
X59395000Y-37185000D01*
%TO.C,D4*%
X78395000Y-27585000D02*
X76295000Y-27585000D01*
X76295000Y-34185000D02*
X76295000Y-27585000D01*
X78395000Y-34185000D02*
X76295000Y-34185000D01*
X78395000Y-27585000D02*
X78395000Y-34185000D01*
%TO.C,D5*%
X97395000Y-37585000D02*
X95295000Y-37585000D01*
X95295000Y-44185000D02*
X95295000Y-37585000D01*
X97395000Y-44185000D02*
X95295000Y-44185000D01*
X97395000Y-37585000D02*
X97395000Y-44185000D01*
%TO.C,D6*%
X116395000Y-39585000D02*
X114295000Y-39585000D01*
X114295000Y-46185000D02*
X114295000Y-39585000D01*
X116395000Y-46185000D02*
X114295000Y-46185000D01*
X116395000Y-39585000D02*
X116395000Y-46185000D01*
%TO.C,D7*%
X23095000Y-64935000D02*
X20995000Y-64935000D01*
X20995000Y-71535000D02*
X20995000Y-64935000D01*
X23095000Y-71535000D02*
X20995000Y-71535000D01*
X23095000Y-64935000D02*
X23095000Y-71535000D01*
%TO.C,D8*%
X40395000Y-65135000D02*
X38295000Y-65135000D01*
X38295000Y-71735000D02*
X38295000Y-65135000D01*
X40395000Y-71735000D02*
X38295000Y-71735000D01*
X40395000Y-65135000D02*
X40395000Y-71735000D01*
%TO.C,D9*%
X59395000Y-49585000D02*
X57295000Y-49585000D01*
X57295000Y-56185000D02*
X57295000Y-49585000D01*
X59395000Y-56185000D02*
X57295000Y-56185000D01*
X59395000Y-49585000D02*
X59395000Y-56185000D01*
%TO.C,D10*%
X78395000Y-46585000D02*
X76295000Y-46585000D01*
X76295000Y-53185000D02*
X76295000Y-46585000D01*
X78395000Y-53185000D02*
X76295000Y-53185000D01*
X78395000Y-46585000D02*
X78395000Y-53185000D01*
%TO.C,D11*%
X97395000Y-56585000D02*
X95295000Y-56585000D01*
X95295000Y-63185000D02*
X95295000Y-56585000D01*
X97395000Y-63185000D02*
X95295000Y-63185000D01*
X97395000Y-56585000D02*
X97395000Y-63185000D01*
%TO.C,D12*%
X116395000Y-58585000D02*
X114295000Y-58585000D01*
X114295000Y-65185000D02*
X114295000Y-58585000D01*
X116395000Y-65185000D02*
X114295000Y-65185000D01*
X116395000Y-58585000D02*
X116395000Y-65185000D01*
%TO.C,D13*%
X22901063Y-82874447D02*
X20801063Y-82874447D01*
X20801063Y-89474447D02*
X20801063Y-82874447D01*
X22901063Y-89474447D02*
X20801063Y-89474447D01*
X22901063Y-82874447D02*
X22901063Y-89474447D01*
%TO.C,D14*%
X40395000Y-84135000D02*
X38295000Y-84135000D01*
X38295000Y-90735000D02*
X38295000Y-84135000D01*
X40395000Y-90735000D02*
X38295000Y-90735000D01*
X40395000Y-84135000D02*
X40395000Y-90735000D01*
%TO.C,D15*%
X59395000Y-68585000D02*
X57295000Y-68585000D01*
X57295000Y-75185000D02*
X57295000Y-68585000D01*
X59395000Y-75185000D02*
X57295000Y-75185000D01*
X59395000Y-68585000D02*
X59395000Y-75185000D01*
%TO.C,D16*%
X76900487Y-66104854D02*
X74800487Y-66104854D01*
X74800487Y-72704854D02*
X74800487Y-66104854D01*
X76900487Y-72704854D02*
X74800487Y-72704854D01*
X76900487Y-66104854D02*
X76900487Y-72704854D01*
%TO.C,D17*%
X97395000Y-75585000D02*
X95295000Y-75585000D01*
X95295000Y-82185000D02*
X95295000Y-75585000D01*
X97395000Y-82185000D02*
X95295000Y-82185000D01*
X97395000Y-75585000D02*
X97395000Y-82185000D01*
%TO.C,D18*%
X116395000Y-77585000D02*
X114295000Y-77585000D01*
X114295000Y-84185000D02*
X114295000Y-77585000D01*
X116395000Y-84185000D02*
X114295000Y-84185000D01*
X116395000Y-77585000D02*
X116395000Y-84185000D01*
%TO.C,D19*%
X79431710Y-101530498D02*
X77331710Y-101530498D01*
X77331710Y-108130498D02*
X77331710Y-101530498D01*
X79431710Y-108130498D02*
X77331710Y-108130498D01*
X79431710Y-101530498D02*
X79431710Y-108130498D01*
%TO.C,D20*%
X83007500Y-94594000D02*
X80907500Y-94594000D01*
X80907500Y-101194000D02*
X80907500Y-94594000D01*
X83007500Y-101194000D02*
X80907500Y-101194000D01*
X83007500Y-94594000D02*
X83007500Y-101194000D01*
%TO.C,D21*%
X102007500Y-96594000D02*
X99907500Y-96594000D01*
X99907500Y-103194000D02*
X99907500Y-96594000D01*
X102007500Y-103194000D02*
X99907500Y-103194000D01*
X102007500Y-96594000D02*
X102007500Y-103194000D01*
%TO.C,D22*%
X159872306Y-115593065D02*
X159507645Y-117661161D01*
X166007376Y-118807239D02*
X159507645Y-117661161D01*
X166372037Y-116739143D02*
X166007376Y-118807239D01*
X159872306Y-115593065D02*
X166372037Y-116739143D01*
%TO.C,D23*%
X138350935Y-109726306D02*
X136282839Y-109361645D01*
X135136761Y-115861376D02*
X136282839Y-109361645D01*
X137204857Y-116226037D02*
X135136761Y-115861376D01*
X138350935Y-109726306D02*
X137204857Y-116226037D01*
%TO.C,D24*%
X157230935Y-112136306D02*
X155162839Y-111771645D01*
X154016761Y-118271376D02*
X155162839Y-111771645D01*
X156084857Y-118636037D02*
X154016761Y-118271376D01*
X157230935Y-112136306D02*
X156084857Y-118636037D01*
%TO.C,F2*%
X26319000Y-31004000D02*
X26319000Y-28764000D01*
X26319000Y-28764000D02*
X30879000Y-28764000D01*
X30879000Y-28764000D02*
X30879000Y-31004000D01*
X30879000Y-31004000D02*
X26319000Y-31004000D01*
%TO.C,U1*%
X25043000Y-28595000D02*
X25043000Y-25095000D01*
X25043000Y-28595000D02*
X31943000Y-28595000D01*
X31943000Y-25095000D02*
X25043000Y-25095000D01*
X31943000Y-25095000D02*
X31943000Y-28595000D01*
%TO.C,X1*%
X153823315Y-61495517D02*
X149863517Y-65455315D01*
X149863517Y-65455315D02*
X158419509Y-74011307D01*
X158419509Y-74011307D02*
X162379307Y-70051509D01*
X162379307Y-70051509D02*
X153823315Y-61495517D01*
%TO.C,L1*%
X23545000Y-47211000D02*
X23545000Y-50259000D01*
X33545000Y-50259000D02*
X23545000Y-50259000D01*
X33545000Y-47211000D02*
X33545000Y-50259000D01*
X23545000Y-47211000D02*
X33545000Y-47211000D01*
%TO.C,L2*%
X42545000Y-45911000D02*
X42545000Y-48959000D01*
X52545000Y-48959000D02*
X42545000Y-48959000D01*
X52545000Y-45911000D02*
X52545000Y-48959000D01*
X42545000Y-45911000D02*
X52545000Y-45911000D01*
%TO.C,L3*%
X61545000Y-30361000D02*
X61545000Y-33409000D01*
X71545000Y-33409000D02*
X61545000Y-33409000D01*
X71545000Y-30361000D02*
X71545000Y-33409000D01*
X61545000Y-30361000D02*
X71545000Y-30361000D01*
%TO.C,L4*%
X80545000Y-27361000D02*
X80545000Y-30409000D01*
X90545000Y-30409000D02*
X80545000Y-30409000D01*
X90545000Y-27361000D02*
X90545000Y-30409000D01*
X80545000Y-27361000D02*
X90545000Y-27361000D01*
%TO.C,L5*%
X99545000Y-37361000D02*
X99545000Y-40409000D01*
X109545000Y-40409000D02*
X99545000Y-40409000D01*
X109545000Y-37361000D02*
X109545000Y-40409000D01*
X99545000Y-37361000D02*
X109545000Y-37361000D01*
%TO.C,L6*%
X118545000Y-39361000D02*
X118545000Y-42409000D01*
X128545000Y-42409000D02*
X118545000Y-42409000D01*
X128545000Y-39361000D02*
X128545000Y-42409000D01*
X118545000Y-39361000D02*
X128545000Y-39361000D01*
%TO.C,L7*%
X33545000Y-69259000D02*
X33545000Y-66211000D01*
X23545000Y-66211000D02*
X33545000Y-66211000D01*
X23545000Y-69259000D02*
X23545000Y-66211000D01*
X33545000Y-69259000D02*
X23545000Y-69259000D01*
%TO.C,L8*%
X52545000Y-67959000D02*
X52545000Y-64911000D01*
X42545000Y-64911000D02*
X52545000Y-64911000D01*
X42545000Y-67959000D02*
X42545000Y-64911000D01*
X52545000Y-67959000D02*
X42545000Y-67959000D01*
%TO.C,L9*%
X71545000Y-52409000D02*
X71545000Y-49361000D01*
X61545000Y-49361000D02*
X71545000Y-49361000D01*
X61545000Y-52409000D02*
X61545000Y-49361000D01*
X71545000Y-52409000D02*
X61545000Y-52409000D01*
%TO.C,L10*%
X90545000Y-49409000D02*
X90545000Y-46361000D01*
X80545000Y-46361000D02*
X90545000Y-46361000D01*
X80545000Y-49409000D02*
X80545000Y-46361000D01*
X90545000Y-49409000D02*
X80545000Y-49409000D01*
%TO.C,L11*%
X109545000Y-59409000D02*
X109545000Y-56361000D01*
X99545000Y-56361000D02*
X109545000Y-56361000D01*
X99545000Y-59409000D02*
X99545000Y-56361000D01*
X109545000Y-59409000D02*
X99545000Y-59409000D01*
%TO.C,L12*%
X128545000Y-61409000D02*
X128545000Y-58361000D01*
X118545000Y-58361000D02*
X128545000Y-58361000D01*
X118545000Y-61409000D02*
X118545000Y-58361000D01*
X128545000Y-61409000D02*
X118545000Y-61409000D01*
%TO.C,L13*%
X23545000Y-85211000D02*
X23545000Y-88259000D01*
X33545000Y-88259000D02*
X23545000Y-88259000D01*
X33545000Y-85211000D02*
X33545000Y-88259000D01*
X23545000Y-85211000D02*
X33545000Y-85211000D01*
%TO.C,L14*%
X42545000Y-83911000D02*
X42545000Y-86959000D01*
X52545000Y-86959000D02*
X42545000Y-86959000D01*
X52545000Y-83911000D02*
X52545000Y-86959000D01*
X42545000Y-83911000D02*
X52545000Y-83911000D01*
%TO.C,L15*%
X61545000Y-68361000D02*
X61545000Y-71409000D01*
X71545000Y-71409000D02*
X61545000Y-71409000D01*
X71545000Y-68361000D02*
X71545000Y-71409000D01*
X61545000Y-68361000D02*
X71545000Y-68361000D01*
%TO.C,L16*%
X80545000Y-65361000D02*
X80545000Y-68409000D01*
X90545000Y-68409000D02*
X80545000Y-68409000D01*
X90545000Y-65361000D02*
X90545000Y-68409000D01*
X80545000Y-65361000D02*
X90545000Y-65361000D01*
%TO.C,L17*%
X99545000Y-75361000D02*
X99545000Y-78409000D01*
X109545000Y-78409000D02*
X99545000Y-78409000D01*
X109545000Y-75361000D02*
X109545000Y-78409000D01*
X99545000Y-75361000D02*
X109545000Y-75361000D01*
%TO.C,L18*%
X118545000Y-77361000D02*
X128545000Y-77361000D01*
X128545000Y-77361000D02*
X128545000Y-80409000D01*
X128545000Y-80409000D02*
X118545000Y-80409000D01*
X118545000Y-77361000D02*
X118545000Y-80409000D01*
%TO.C,L19*%
X95157500Y-97418000D02*
X95157500Y-94370000D01*
X85157500Y-94370000D02*
X95157500Y-94370000D01*
X85157500Y-97418000D02*
X85157500Y-94370000D01*
X95157500Y-97418000D02*
X85157500Y-97418000D01*
%TO.C,L20*%
X114157500Y-99418000D02*
X114157500Y-96370000D01*
X104157500Y-96370000D02*
X114157500Y-96370000D01*
X104157500Y-99418000D02*
X104157500Y-96370000D01*
X114157500Y-99418000D02*
X104157500Y-99418000D01*
%TO.C,L21*%
X133787903Y-111508891D02*
X134317183Y-108507197D01*
X124469105Y-106770715D02*
X134317183Y-108507197D01*
X123939825Y-109772409D02*
X124469105Y-106770715D01*
X133787903Y-111508891D02*
X123939825Y-109772409D01*
%TO.C,L22*%
X152729399Y-114963088D02*
X153258679Y-111961394D01*
X143410601Y-110224912D02*
X153258679Y-111961394D01*
X142881321Y-113226606D02*
X143410601Y-110224912D01*
X152729399Y-114963088D02*
X142881321Y-113226606D01*
%TO.C,L23*%
X157040912Y-129533399D02*
X160042606Y-130062679D01*
X161779088Y-120214601D02*
X160042606Y-130062679D01*
X158777394Y-119685321D02*
X161779088Y-120214601D01*
X157040912Y-129533399D02*
X158777394Y-119685321D01*
%TD*%
M02*
