%TF.GenerationSoftware,KiCad,Pcbnew,5.1.9*%
%TF.CreationDate,2021-05-10T09:53:42-05:00*%
%TF.ProjectId,nightwing,6e696768-7477-4696-9e67-2e6b69636164,rev?*%
%TF.SameCoordinates,Original*%
%TF.FileFunction,Other,User*%
%FSLAX46Y46*%
G04 Gerber Fmt 4.6, Leading zero omitted, Abs format (unit mm)*
G04 Created by KiCad (PCBNEW 5.1.9) date 2021-05-10 09:53:42*
%MOMM*%
%LPD*%
G01*
G04 APERTURE LIST*
%ADD10C,0.050000*%
G04 APERTURE END LIST*
D10*
%TO.C,J2*%
X159875176Y-98202627D02*
X170353530Y-100050243D01*
X161510942Y-88925738D02*
X171989296Y-90773354D01*
X159875176Y-98202627D02*
X161510942Y-88925738D01*
X170353530Y-100050243D02*
X171989296Y-90773354D01*
%TO.C,J1*%
X42490000Y-15430000D02*
X42490000Y-6010000D01*
X31850000Y-15430000D02*
X31850000Y-6010000D01*
X31850000Y-6010000D02*
X42490000Y-6010000D01*
%TO.C,J3*%
X148470000Y-28450000D02*
X139150000Y-28450000D01*
X139150000Y-50750000D02*
X148470000Y-50750000D01*
X148470000Y-50750000D02*
X148470000Y-52450000D01*
X139150000Y-28450000D02*
X139150000Y-26750000D01*
X148470000Y-26750000D02*
X148470000Y-28450000D01*
X139150000Y-26750000D02*
X148470000Y-26750000D01*
X139150000Y-52450000D02*
X139150000Y-50750000D01*
X148470000Y-52450000D02*
X139150000Y-52450000D01*
%TO.C,L31*%
X154457394Y-108791321D02*
X157459088Y-109320601D01*
X155722606Y-119168679D02*
X157459088Y-109320601D01*
X152720912Y-118639399D02*
X155722606Y-119168679D01*
X154457394Y-108791321D02*
X152720912Y-118639399D01*
%TO.C,L30*%
X138561321Y-102332606D02*
X139090601Y-99330912D01*
X148938679Y-101067394D02*
X139090601Y-99330912D01*
X148409399Y-104069088D02*
X148938679Y-101067394D01*
X138561321Y-102332606D02*
X148409399Y-104069088D01*
%TO.C,L29*%
X119619825Y-98878409D02*
X120149105Y-95876715D01*
X129997183Y-97613197D02*
X120149105Y-95876715D01*
X129467903Y-100614891D02*
X129997183Y-97613197D01*
X119619825Y-98878409D02*
X129467903Y-100614891D01*
%TO.C,L28*%
X99837500Y-88524000D02*
X99837500Y-85476000D01*
X109837500Y-85476000D02*
X99837500Y-85476000D01*
X109837500Y-88524000D02*
X109837500Y-85476000D01*
X99837500Y-88524000D02*
X109837500Y-88524000D01*
%TO.C,L27*%
X80837500Y-86524000D02*
X80837500Y-83476000D01*
X90837500Y-83476000D02*
X80837500Y-83476000D01*
X90837500Y-86524000D02*
X90837500Y-83476000D01*
X80837500Y-86524000D02*
X90837500Y-86524000D01*
%TO.C,L26*%
X114225000Y-69515000D02*
X114225000Y-66467000D01*
X124225000Y-66467000D02*
X114225000Y-66467000D01*
X124225000Y-69515000D02*
X124225000Y-66467000D01*
X114225000Y-69515000D02*
X124225000Y-69515000D01*
%TO.C,L25*%
X95225000Y-67515000D02*
X95225000Y-64467000D01*
X105225000Y-64467000D02*
X95225000Y-64467000D01*
X105225000Y-67515000D02*
X105225000Y-64467000D01*
X95225000Y-67515000D02*
X105225000Y-67515000D01*
%TO.C,L24*%
X76225000Y-57515000D02*
X76225000Y-54467000D01*
X86225000Y-54467000D02*
X76225000Y-54467000D01*
X86225000Y-57515000D02*
X86225000Y-54467000D01*
X76225000Y-57515000D02*
X86225000Y-57515000D01*
%TO.C,L23*%
X57225000Y-60515000D02*
X57225000Y-57467000D01*
X67225000Y-57467000D02*
X57225000Y-57467000D01*
X67225000Y-60515000D02*
X67225000Y-57467000D01*
X57225000Y-60515000D02*
X67225000Y-60515000D01*
%TO.C,L22*%
X38225000Y-76065000D02*
X38225000Y-73017000D01*
X48225000Y-73017000D02*
X38225000Y-73017000D01*
X48225000Y-76065000D02*
X48225000Y-73017000D01*
X38225000Y-76065000D02*
X48225000Y-76065000D01*
%TO.C,L21*%
X19225000Y-77365000D02*
X19225000Y-74317000D01*
X29225000Y-74317000D02*
X19225000Y-74317000D01*
X29225000Y-77365000D02*
X29225000Y-74317000D01*
X19225000Y-77365000D02*
X29225000Y-77365000D01*
%TO.C,L20*%
X29225000Y-55317000D02*
X29225000Y-58365000D01*
X19225000Y-58365000D02*
X29225000Y-58365000D01*
X19225000Y-55317000D02*
X19225000Y-58365000D01*
X29225000Y-55317000D02*
X19225000Y-55317000D01*
%TO.C,L19*%
X48225000Y-54017000D02*
X48225000Y-57065000D01*
X38225000Y-57065000D02*
X48225000Y-57065000D01*
X38225000Y-54017000D02*
X38225000Y-57065000D01*
X48225000Y-54017000D02*
X38225000Y-54017000D01*
%TO.C,L18*%
X67225000Y-38467000D02*
X67225000Y-41515000D01*
X57225000Y-41515000D02*
X67225000Y-41515000D01*
X57225000Y-38467000D02*
X57225000Y-41515000D01*
X67225000Y-38467000D02*
X57225000Y-38467000D01*
%TO.C,L17*%
X86225000Y-35467000D02*
X86225000Y-38515000D01*
X76225000Y-38515000D02*
X86225000Y-38515000D01*
X76225000Y-35467000D02*
X76225000Y-38515000D01*
X86225000Y-35467000D02*
X76225000Y-35467000D01*
%TO.C,L16*%
X105225000Y-45467000D02*
X105225000Y-48515000D01*
X95225000Y-48515000D02*
X105225000Y-48515000D01*
X95225000Y-45467000D02*
X95225000Y-48515000D01*
X105225000Y-45467000D02*
X95225000Y-45467000D01*
%TO.C,L15*%
X124225000Y-47467000D02*
X124225000Y-50515000D01*
X114225000Y-50515000D02*
X124225000Y-50515000D01*
X114225000Y-47467000D02*
X114225000Y-50515000D01*
X124225000Y-47467000D02*
X114225000Y-47467000D01*
%TO.C,L14*%
X114225000Y-31515000D02*
X114225000Y-28467000D01*
X124225000Y-28467000D02*
X114225000Y-28467000D01*
X124225000Y-31515000D02*
X124225000Y-28467000D01*
X114225000Y-31515000D02*
X124225000Y-31515000D01*
%TO.C,L13*%
X95225000Y-29515000D02*
X95225000Y-26467000D01*
X105225000Y-26467000D02*
X95225000Y-26467000D01*
X105225000Y-29515000D02*
X105225000Y-26467000D01*
X95225000Y-29515000D02*
X105225000Y-29515000D01*
%TO.C,L12*%
X76225000Y-19515000D02*
X76225000Y-16467000D01*
X86225000Y-16467000D02*
X76225000Y-16467000D01*
X86225000Y-19515000D02*
X86225000Y-16467000D01*
X76225000Y-19515000D02*
X86225000Y-19515000D01*
%TO.C,L11*%
X57225000Y-22515000D02*
X57225000Y-19467000D01*
X67225000Y-19467000D02*
X57225000Y-19467000D01*
X67225000Y-22515000D02*
X67225000Y-19467000D01*
X57225000Y-22515000D02*
X67225000Y-22515000D01*
%TO.C,L10*%
X38225000Y-38065000D02*
X38225000Y-35017000D01*
X48225000Y-35017000D02*
X38225000Y-35017000D01*
X48225000Y-38065000D02*
X48225000Y-35017000D01*
X38225000Y-38065000D02*
X48225000Y-38065000D01*
%TO.C,L9*%
X19225000Y-39365000D02*
X19225000Y-36317000D01*
X29225000Y-36317000D02*
X19225000Y-36317000D01*
X29225000Y-39365000D02*
X29225000Y-36317000D01*
X19225000Y-39365000D02*
X29225000Y-39365000D01*
%TO.C,JP1*%
X46452000Y-22440000D02*
X42388000Y-22440000D01*
X46452000Y-22440000D02*
X46452000Y-19940000D01*
X42388000Y-19940000D02*
X46452000Y-19940000D01*
X42388000Y-19940000D02*
X42388000Y-22440000D01*
%TO.C,D24*%
X152910935Y-101242306D02*
X150842839Y-100877645D01*
X149696761Y-107377376D02*
X150842839Y-100877645D01*
X151764857Y-107742037D02*
X149696761Y-107377376D01*
X152910935Y-101242306D02*
X151764857Y-107742037D01*
%TO.C,D23*%
X134030935Y-98832306D02*
X131962839Y-98467645D01*
X130816761Y-104967376D02*
X131962839Y-98467645D01*
X132884857Y-105332037D02*
X130816761Y-104967376D01*
X134030935Y-98832306D02*
X132884857Y-105332037D01*
%TO.C,D22*%
X155552306Y-104699065D02*
X155187645Y-106767161D01*
X161687376Y-107913239D02*
X155187645Y-106767161D01*
X162052037Y-105845143D02*
X161687376Y-107913239D01*
X155552306Y-104699065D02*
X162052037Y-105845143D01*
%TO.C,D21*%
X97687500Y-85700000D02*
X95587500Y-85700000D01*
X95587500Y-92300000D02*
X95587500Y-85700000D01*
X97687500Y-92300000D02*
X95587500Y-92300000D01*
X97687500Y-85700000D02*
X97687500Y-92300000D01*
%TO.C,D20*%
X78687500Y-83700000D02*
X76587500Y-83700000D01*
X76587500Y-90300000D02*
X76587500Y-83700000D01*
X78687500Y-90300000D02*
X76587500Y-90300000D01*
X78687500Y-83700000D02*
X78687500Y-90300000D01*
%TO.C,D19*%
X76840000Y-96080000D02*
X76840000Y-93980000D01*
X70240000Y-93980000D02*
X76840000Y-93980000D01*
X70240000Y-96080000D02*
X70240000Y-93980000D01*
X76840000Y-96080000D02*
X70240000Y-96080000D01*
%TO.C,D18*%
X112075000Y-66691000D02*
X109975000Y-66691000D01*
X109975000Y-73291000D02*
X109975000Y-66691000D01*
X112075000Y-73291000D02*
X109975000Y-73291000D01*
X112075000Y-66691000D02*
X112075000Y-73291000D01*
%TO.C,D17*%
X93075000Y-64691000D02*
X90975000Y-64691000D01*
X90975000Y-71291000D02*
X90975000Y-64691000D01*
X93075000Y-71291000D02*
X90975000Y-71291000D01*
X93075000Y-64691000D02*
X93075000Y-71291000D01*
%TO.C,D16*%
X74075000Y-54691000D02*
X71975000Y-54691000D01*
X71975000Y-61291000D02*
X71975000Y-54691000D01*
X74075000Y-61291000D02*
X71975000Y-61291000D01*
X74075000Y-54691000D02*
X74075000Y-61291000D01*
%TO.C,D15*%
X55075000Y-57691000D02*
X52975000Y-57691000D01*
X52975000Y-64291000D02*
X52975000Y-57691000D01*
X55075000Y-64291000D02*
X52975000Y-64291000D01*
X55075000Y-57691000D02*
X55075000Y-64291000D01*
%TO.C,D14*%
X36075000Y-73241000D02*
X33975000Y-73241000D01*
X33975000Y-79841000D02*
X33975000Y-73241000D01*
X36075000Y-79841000D02*
X33975000Y-79841000D01*
X36075000Y-73241000D02*
X36075000Y-79841000D01*
%TO.C,D13*%
X31660000Y-72920000D02*
X29560000Y-72920000D01*
X29560000Y-79520000D02*
X29560000Y-72920000D01*
X31660000Y-79520000D02*
X29560000Y-79520000D01*
X31660000Y-72920000D02*
X31660000Y-79520000D01*
%TO.C,D12*%
X112075000Y-47691000D02*
X109975000Y-47691000D01*
X109975000Y-54291000D02*
X109975000Y-47691000D01*
X112075000Y-54291000D02*
X109975000Y-54291000D01*
X112075000Y-47691000D02*
X112075000Y-54291000D01*
%TO.C,D11*%
X93075000Y-45691000D02*
X90975000Y-45691000D01*
X90975000Y-52291000D02*
X90975000Y-45691000D01*
X93075000Y-52291000D02*
X90975000Y-52291000D01*
X93075000Y-45691000D02*
X93075000Y-52291000D01*
%TO.C,D10*%
X74075000Y-35691000D02*
X71975000Y-35691000D01*
X71975000Y-42291000D02*
X71975000Y-35691000D01*
X74075000Y-42291000D02*
X71975000Y-42291000D01*
X74075000Y-35691000D02*
X74075000Y-42291000D01*
%TO.C,D9*%
X55075000Y-38691000D02*
X52975000Y-38691000D01*
X52975000Y-45291000D02*
X52975000Y-38691000D01*
X55075000Y-45291000D02*
X52975000Y-45291000D01*
X55075000Y-38691000D02*
X55075000Y-45291000D01*
%TO.C,D8*%
X36075000Y-54241000D02*
X33975000Y-54241000D01*
X33975000Y-60841000D02*
X33975000Y-54241000D01*
X36075000Y-60841000D02*
X33975000Y-60841000D01*
X36075000Y-54241000D02*
X36075000Y-60841000D01*
%TO.C,D7*%
X18775000Y-54041000D02*
X16675000Y-54041000D01*
X16675000Y-60641000D02*
X16675000Y-54041000D01*
X18775000Y-60641000D02*
X16675000Y-60641000D01*
X18775000Y-54041000D02*
X18775000Y-60641000D01*
%TO.C,D6*%
X112075000Y-28691000D02*
X109975000Y-28691000D01*
X109975000Y-35291000D02*
X109975000Y-28691000D01*
X112075000Y-35291000D02*
X109975000Y-35291000D01*
X112075000Y-28691000D02*
X112075000Y-35291000D01*
%TO.C,D5*%
X93075000Y-26691000D02*
X90975000Y-26691000D01*
X90975000Y-33291000D02*
X90975000Y-26691000D01*
X93075000Y-33291000D02*
X90975000Y-33291000D01*
X93075000Y-26691000D02*
X93075000Y-33291000D01*
%TO.C,D4*%
X74075000Y-16691000D02*
X71975000Y-16691000D01*
X71975000Y-23291000D02*
X71975000Y-16691000D01*
X74075000Y-23291000D02*
X71975000Y-23291000D01*
X74075000Y-16691000D02*
X74075000Y-23291000D01*
%TO.C,D3*%
X55075000Y-19691000D02*
X52975000Y-19691000D01*
X52975000Y-26291000D02*
X52975000Y-19691000D01*
X55075000Y-26291000D02*
X52975000Y-26291000D01*
X55075000Y-19691000D02*
X55075000Y-26291000D01*
%TO.C,D2*%
X36075000Y-35241000D02*
X33975000Y-35241000D01*
X33975000Y-41841000D02*
X33975000Y-35241000D01*
X36075000Y-41841000D02*
X33975000Y-41841000D01*
X36075000Y-35241000D02*
X36075000Y-41841000D01*
%TO.C,D1*%
X18775000Y-35041000D02*
X16675000Y-35041000D01*
X16675000Y-41641000D02*
X16675000Y-35041000D01*
X18775000Y-41641000D02*
X16675000Y-41641000D01*
X18775000Y-35041000D02*
X18775000Y-41641000D01*
%TD*%
M02*
