%TF.GenerationSoftware,KiCad,Pcbnew,5.1.10*%
%TF.CreationDate,2021-05-26T10:29:04-05:00*%
%TF.ProjectId,nightwing,6e696768-7477-4696-9e67-2e6b69636164,rev?*%
%TF.SameCoordinates,Original*%
%TF.FileFunction,Soldermask,Top*%
%TF.FilePolarity,Negative*%
%FSLAX46Y46*%
G04 Gerber Fmt 4.6, Leading zero omitted, Abs format (unit mm)*
G04 Created by KiCad (PCBNEW 5.1.10) date 2021-05-26 10:29:04*
%MOMM*%
%LPD*%
G01*
G04 APERTURE LIST*
%ADD10R,1.500000X1.000000*%
%ADD11R,1.550000X1.300000*%
%ADD12C,2.200000*%
%ADD13C,0.150000*%
%ADD14C,0.650000*%
%ADD15C,1.600000*%
%ADD16C,2.000000*%
%ADD17R,3.200000X2.000000*%
%ADD18R,2.000000X2.000000*%
%ADD19C,4.000000*%
%ADD20C,3.050000*%
%ADD21C,3.987800*%
%ADD22C,1.750000*%
%ADD23R,2.350000X2.500000*%
%ADD24R,2.150000X2.500000*%
%ADD25R,3.000000X3.000000*%
%ADD26R,2.800000X1.200000*%
%ADD27R,2.800000X1.000000*%
%ADD28C,1.500000*%
%ADD29O,1.800000X0.820000*%
G04 APERTURE END LIST*
D10*
%TO.C,L31*%
X40325000Y-29652641D03*
X35425000Y-29652641D03*
X40325000Y-32852641D03*
X35425000Y-32852641D03*
%TD*%
%TO.C,RIGHT*%
G36*
G01*
X155369998Y-83450000D02*
X156270002Y-83450000D01*
G75*
G02*
X156520000Y-83699998I0J-249998D01*
G01*
X156520000Y-84225002D01*
G75*
G02*
X156270002Y-84475000I-249998J0D01*
G01*
X155369998Y-84475000D01*
G75*
G02*
X155120000Y-84225002I0J249998D01*
G01*
X155120000Y-83699998D01*
G75*
G02*
X155369998Y-83450000I249998J0D01*
G01*
G37*
G36*
G01*
X155369998Y-81625000D02*
X156270002Y-81625000D01*
G75*
G02*
X156520000Y-81874998I0J-249998D01*
G01*
X156520000Y-82400002D01*
G75*
G02*
X156270002Y-82650000I-249998J0D01*
G01*
X155369998Y-82650000D01*
G75*
G02*
X155120000Y-82400002I0J249998D01*
G01*
X155120000Y-81874998D01*
G75*
G02*
X155369998Y-81625000I249998J0D01*
G01*
G37*
%TD*%
%TO.C,LEFT*%
G36*
G01*
X154270002Y-84475000D02*
X153369998Y-84475000D01*
G75*
G02*
X153120000Y-84225002I0J249998D01*
G01*
X153120000Y-83699998D01*
G75*
G02*
X153369998Y-83450000I249998J0D01*
G01*
X154270002Y-83450000D01*
G75*
G02*
X154520000Y-83699998I0J-249998D01*
G01*
X154520000Y-84225002D01*
G75*
G02*
X154270002Y-84475000I-249998J0D01*
G01*
G37*
G36*
G01*
X154270002Y-82650000D02*
X153369998Y-82650000D01*
G75*
G02*
X153120000Y-82400002I0J249998D01*
G01*
X153120000Y-81874998D01*
G75*
G02*
X153369998Y-81625000I249998J0D01*
G01*
X154270002Y-81625000D01*
G75*
G02*
X154520000Y-81874998I0J-249998D01*
G01*
X154520000Y-82400002D01*
G75*
G02*
X154270002Y-82650000I-249998J0D01*
G01*
G37*
%TD*%
D11*
%TO.C,BOOT*%
X159373000Y-93250000D03*
X159373000Y-88750000D03*
X151423000Y-88750000D03*
X151423000Y-93250000D03*
%TD*%
D10*
%TO.C,L32*%
X27655000Y-33652641D03*
X22755000Y-33652641D03*
X27655000Y-36852641D03*
X22755000Y-36852641D03*
%TD*%
D11*
%TO.C,RESET*%
X135554000Y-93250000D03*
X135554000Y-88750000D03*
X143504000Y-88750000D03*
X143504000Y-93250000D03*
%TD*%
D10*
%TO.C,L39*%
X136983000Y-33205000D03*
X132083000Y-30005000D03*
X132083000Y-33205000D03*
X136983000Y-30005000D03*
%TD*%
%TO.C,R7*%
G36*
G01*
X159900000Y-80450002D02*
X159900000Y-79549998D01*
G75*
G02*
X160149998Y-79300000I249998J0D01*
G01*
X160675002Y-79300000D01*
G75*
G02*
X160925000Y-79549998I0J-249998D01*
G01*
X160925000Y-80450002D01*
G75*
G02*
X160675002Y-80700000I-249998J0D01*
G01*
X160149998Y-80700000D01*
G75*
G02*
X159900000Y-80450002I0J249998D01*
G01*
G37*
G36*
G01*
X158075000Y-80450002D02*
X158075000Y-79549998D01*
G75*
G02*
X158324998Y-79300000I249998J0D01*
G01*
X158850002Y-79300000D01*
G75*
G02*
X159100000Y-79549998I0J-249998D01*
G01*
X159100000Y-80450002D01*
G75*
G02*
X158850002Y-80700000I-249998J0D01*
G01*
X158324998Y-80700000D01*
G75*
G02*
X158075000Y-80450002I0J249998D01*
G01*
G37*
%TD*%
%TO.C,R8*%
G36*
G01*
X159100000Y-75049998D02*
X159100000Y-75950002D01*
G75*
G02*
X158850002Y-76200000I-249998J0D01*
G01*
X158324998Y-76200000D01*
G75*
G02*
X158075000Y-75950002I0J249998D01*
G01*
X158075000Y-75049998D01*
G75*
G02*
X158324998Y-74800000I249998J0D01*
G01*
X158850002Y-74800000D01*
G75*
G02*
X159100000Y-75049998I0J-249998D01*
G01*
G37*
G36*
G01*
X160925000Y-75049998D02*
X160925000Y-75950002D01*
G75*
G02*
X160675002Y-76200000I-249998J0D01*
G01*
X160149998Y-76200000D01*
G75*
G02*
X159900000Y-75950002I0J249998D01*
G01*
X159900000Y-75049998D01*
G75*
G02*
X160149998Y-74800000I249998J0D01*
G01*
X160675002Y-74800000D01*
G75*
G02*
X160925000Y-75049998I0J-249998D01*
G01*
G37*
%TD*%
D12*
%TO.C,H10*%
X77767000Y-101031000D03*
%TD*%
%TO.C,H9*%
X147250000Y-130660000D03*
%TD*%
%TO.C,H8*%
X131170000Y-100940000D03*
%TD*%
%TO.C,H6*%
X114460000Y-74240000D03*
%TD*%
%TO.C,H5*%
X114220000Y-55030000D03*
%TD*%
%TO.C,H4*%
X76800000Y-62910000D03*
%TD*%
%TO.C,H3*%
X76780000Y-44250000D03*
%TD*%
%TO.C,H2*%
X38990000Y-81490000D03*
%TD*%
%TO.C,H1*%
X38460000Y-62530000D03*
%TD*%
D13*
%TO.C,J2*%
G36*
X168307305Y-108929300D02*
G01*
X168055515Y-110357271D01*
X167464631Y-110253082D01*
X167716421Y-108825111D01*
X168307305Y-108929300D01*
G37*
G36*
X174708555Y-110058013D02*
G01*
X174456765Y-111485984D01*
X173865881Y-111381795D01*
X174117671Y-109953824D01*
X174708555Y-110058013D01*
G37*
G36*
X173920709Y-109919094D02*
G01*
X173668919Y-111347065D01*
X173078035Y-111242876D01*
X173329825Y-109814905D01*
X173920709Y-109919094D01*
G37*
G36*
X169095151Y-109068218D02*
G01*
X168843361Y-110496189D01*
X168252477Y-110392000D01*
X168504267Y-108964029D01*
X169095151Y-109068218D01*
G37*
G36*
X172591219Y-109684670D02*
G01*
X172339429Y-111112641D01*
X172043987Y-111060546D01*
X172295777Y-109632575D01*
X172591219Y-109684670D01*
G37*
G36*
X172098815Y-109597845D02*
G01*
X171847025Y-111025816D01*
X171551583Y-110973721D01*
X171803373Y-109545750D01*
X172098815Y-109597845D01*
G37*
G36*
X171114007Y-109424197D02*
G01*
X170862217Y-110852168D01*
X170566775Y-110800073D01*
X170818565Y-109372102D01*
X171114007Y-109424197D01*
G37*
G36*
X170621603Y-109337373D02*
G01*
X170369813Y-110765344D01*
X170074371Y-110713249D01*
X170326161Y-109285278D01*
X170621603Y-109337373D01*
G37*
G36*
X169636796Y-109163725D02*
G01*
X169385006Y-110591696D01*
X169089564Y-110539601D01*
X169341354Y-109111630D01*
X169636796Y-109163725D01*
G37*
G36*
X171606411Y-109511021D02*
G01*
X171354621Y-110938992D01*
X171059179Y-110886897D01*
X171310969Y-109458926D01*
X171606411Y-109511021D01*
G37*
G36*
G01*
X167579022Y-108049468D02*
X167388010Y-109132756D01*
G75*
G02*
X166808782Y-109538336I-492404J86824D01*
G01*
X166808782Y-109538336D01*
G75*
G02*
X166403202Y-108959108I86824J492404D01*
G01*
X166594214Y-107875820D01*
G75*
G02*
X167173442Y-107470240I492404J-86824D01*
G01*
X167173442Y-107470240D01*
G75*
G02*
X167579022Y-108049468I-86824J-492404D01*
G01*
G37*
G36*
G01*
X176087761Y-109549788D02*
X175896749Y-110633076D01*
G75*
G02*
X175317521Y-111038656I-492404J86824D01*
G01*
X175317521Y-111038656D01*
G75*
G02*
X174911941Y-110459428I86824J492404D01*
G01*
X175102953Y-109376140D01*
G75*
G02*
X175682181Y-108970560I492404J-86824D01*
G01*
X175682181Y-108970560D01*
G75*
G02*
X176087761Y-109549788I-86824J-492404D01*
G01*
G37*
D14*
X174183609Y-109234343D03*
G36*
G01*
X176770198Y-105679494D02*
X176666010Y-106270378D01*
G75*
G02*
X176086782Y-106675958I-492404J86824D01*
G01*
X176086782Y-106675958D01*
G75*
G02*
X175681202Y-106096730I86824J492404D01*
G01*
X175785390Y-105505846D01*
G75*
G02*
X176364618Y-105100266I492404J-86824D01*
G01*
X176364618Y-105100266D01*
G75*
G02*
X176770198Y-105679494I-86824J-492404D01*
G01*
G37*
X168491420Y-108230657D03*
G36*
G01*
X168261459Y-104179174D02*
X168157271Y-104770058D01*
G75*
G02*
X167578043Y-105175638I-492404J86824D01*
G01*
X167578043Y-105175638D01*
G75*
G02*
X167172463Y-104596410I86824J492404D01*
G01*
X167276651Y-104005526D01*
G75*
G02*
X167855879Y-103599946I492404J-86824D01*
G01*
X167855879Y-103599946D01*
G75*
G02*
X168261459Y-104179174I-86824J-492404D01*
G01*
G37*
%TD*%
D13*
%TO.C,J3*%
G36*
X141996125Y-37944586D02*
G01*
X141773448Y-36360157D01*
X143357877Y-36137480D01*
X143580554Y-37721909D01*
X141996125Y-37944586D01*
G37*
D15*
X147707563Y-36334033D03*
X150222844Y-35980534D03*
X145192282Y-36687533D03*
D13*
G36*
X146698032Y-59903913D02*
G01*
X146920709Y-61488342D01*
X145336280Y-61711019D01*
X145113603Y-60126590D01*
X146698032Y-59903913D01*
G37*
D15*
X148532437Y-60453967D03*
X151047718Y-60100467D03*
X153562999Y-59746967D03*
%TD*%
D13*
%TO.C,U3*%
G36*
X150064866Y-81774812D02*
G01*
X149675958Y-82163720D01*
X148615298Y-81103060D01*
X149004206Y-80714152D01*
X150064866Y-81774812D01*
G37*
G36*
X150630551Y-81209126D02*
G01*
X150241643Y-81598034D01*
X149180983Y-80537374D01*
X149569891Y-80148466D01*
X150630551Y-81209126D01*
G37*
G36*
X151196236Y-80643441D02*
G01*
X150807328Y-81032349D01*
X149746668Y-79971689D01*
X150135576Y-79582781D01*
X151196236Y-80643441D01*
G37*
G36*
X151761922Y-80077756D02*
G01*
X151373014Y-80466664D01*
X150312354Y-79406004D01*
X150701262Y-79017096D01*
X151761922Y-80077756D01*
G37*
G36*
X152327607Y-79512070D02*
G01*
X151938699Y-79900978D01*
X150878039Y-78840318D01*
X151266947Y-78451410D01*
X152327607Y-79512070D01*
G37*
G36*
X152893293Y-78946385D02*
G01*
X152504385Y-79335293D01*
X151443725Y-78274633D01*
X151832633Y-77885725D01*
X152893293Y-78946385D01*
G37*
G36*
X153458978Y-78380699D02*
G01*
X153070070Y-78769607D01*
X152009410Y-77708947D01*
X152398318Y-77320039D01*
X153458978Y-78380699D01*
G37*
G36*
X154024664Y-77815014D02*
G01*
X153635756Y-78203922D01*
X152575096Y-77143262D01*
X152964004Y-76754354D01*
X154024664Y-77815014D01*
G37*
G36*
X154590349Y-77249328D02*
G01*
X154201441Y-77638236D01*
X153140781Y-76577576D01*
X153529689Y-76188668D01*
X154590349Y-77249328D01*
G37*
G36*
X155156034Y-76683643D02*
G01*
X154767126Y-77072551D01*
X153706466Y-76011891D01*
X154095374Y-75622983D01*
X155156034Y-76683643D01*
G37*
G36*
X155721720Y-76117958D02*
G01*
X155332812Y-76506866D01*
X154272152Y-75446206D01*
X154661060Y-75057298D01*
X155721720Y-76117958D01*
G37*
G36*
X155332812Y-72653134D02*
G01*
X155721720Y-73042042D01*
X154661060Y-74102702D01*
X154272152Y-73713794D01*
X155332812Y-72653134D01*
G37*
G36*
X154767126Y-72087449D02*
G01*
X155156034Y-72476357D01*
X154095374Y-73537017D01*
X153706466Y-73148109D01*
X154767126Y-72087449D01*
G37*
G36*
X154201441Y-71521764D02*
G01*
X154590349Y-71910672D01*
X153529689Y-72971332D01*
X153140781Y-72582424D01*
X154201441Y-71521764D01*
G37*
G36*
X153635756Y-70956078D02*
G01*
X154024664Y-71344986D01*
X152964004Y-72405646D01*
X152575096Y-72016738D01*
X153635756Y-70956078D01*
G37*
G36*
X153070070Y-70390393D02*
G01*
X153458978Y-70779301D01*
X152398318Y-71839961D01*
X152009410Y-71451053D01*
X153070070Y-70390393D01*
G37*
G36*
X152504385Y-69824707D02*
G01*
X152893293Y-70213615D01*
X151832633Y-71274275D01*
X151443725Y-70885367D01*
X152504385Y-69824707D01*
G37*
G36*
X151938699Y-69259022D02*
G01*
X152327607Y-69647930D01*
X151266947Y-70708590D01*
X150878039Y-70319682D01*
X151938699Y-69259022D01*
G37*
G36*
X151373014Y-68693336D02*
G01*
X151761922Y-69082244D01*
X150701262Y-70142904D01*
X150312354Y-69753996D01*
X151373014Y-68693336D01*
G37*
G36*
X150807328Y-68127651D02*
G01*
X151196236Y-68516559D01*
X150135576Y-69577219D01*
X149746668Y-69188311D01*
X150807328Y-68127651D01*
G37*
G36*
X150241643Y-67561966D02*
G01*
X150630551Y-67950874D01*
X149569891Y-69011534D01*
X149180983Y-68622626D01*
X150241643Y-67561966D01*
G37*
G36*
X149675958Y-66996280D02*
G01*
X150064866Y-67385188D01*
X149004206Y-68445848D01*
X148615298Y-68056940D01*
X149675958Y-66996280D01*
G37*
G36*
X147660702Y-68056940D02*
G01*
X147271794Y-68445848D01*
X146211134Y-67385188D01*
X146600042Y-66996280D01*
X147660702Y-68056940D01*
G37*
G36*
X147095017Y-68622626D02*
G01*
X146706109Y-69011534D01*
X145645449Y-67950874D01*
X146034357Y-67561966D01*
X147095017Y-68622626D01*
G37*
G36*
X146529332Y-69188311D02*
G01*
X146140424Y-69577219D01*
X145079764Y-68516559D01*
X145468672Y-68127651D01*
X146529332Y-69188311D01*
G37*
G36*
X145963646Y-69753996D02*
G01*
X145574738Y-70142904D01*
X144514078Y-69082244D01*
X144902986Y-68693336D01*
X145963646Y-69753996D01*
G37*
G36*
X145397961Y-70319682D02*
G01*
X145009053Y-70708590D01*
X143948393Y-69647930D01*
X144337301Y-69259022D01*
X145397961Y-70319682D01*
G37*
G36*
X144832275Y-70885367D02*
G01*
X144443367Y-71274275D01*
X143382707Y-70213615D01*
X143771615Y-69824707D01*
X144832275Y-70885367D01*
G37*
G36*
X144266590Y-71451053D02*
G01*
X143877682Y-71839961D01*
X142817022Y-70779301D01*
X143205930Y-70390393D01*
X144266590Y-71451053D01*
G37*
G36*
X143700904Y-72016738D02*
G01*
X143311996Y-72405646D01*
X142251336Y-71344986D01*
X142640244Y-70956078D01*
X143700904Y-72016738D01*
G37*
G36*
X143135219Y-72582424D02*
G01*
X142746311Y-72971332D01*
X141685651Y-71910672D01*
X142074559Y-71521764D01*
X143135219Y-72582424D01*
G37*
G36*
X142569534Y-73148109D02*
G01*
X142180626Y-73537017D01*
X141119966Y-72476357D01*
X141508874Y-72087449D01*
X142569534Y-73148109D01*
G37*
G36*
X142003848Y-73713794D02*
G01*
X141614940Y-74102702D01*
X140554280Y-73042042D01*
X140943188Y-72653134D01*
X142003848Y-73713794D01*
G37*
G36*
X141614940Y-75057298D02*
G01*
X142003848Y-75446206D01*
X140943188Y-76506866D01*
X140554280Y-76117958D01*
X141614940Y-75057298D01*
G37*
G36*
X142180626Y-75622983D02*
G01*
X142569534Y-76011891D01*
X141508874Y-77072551D01*
X141119966Y-76683643D01*
X142180626Y-75622983D01*
G37*
G36*
X142746311Y-76188668D02*
G01*
X143135219Y-76577576D01*
X142074559Y-77638236D01*
X141685651Y-77249328D01*
X142746311Y-76188668D01*
G37*
G36*
X143311996Y-76754354D02*
G01*
X143700904Y-77143262D01*
X142640244Y-78203922D01*
X142251336Y-77815014D01*
X143311996Y-76754354D01*
G37*
G36*
X143877682Y-77320039D02*
G01*
X144266590Y-77708947D01*
X143205930Y-78769607D01*
X142817022Y-78380699D01*
X143877682Y-77320039D01*
G37*
G36*
X144443367Y-77885725D02*
G01*
X144832275Y-78274633D01*
X143771615Y-79335293D01*
X143382707Y-78946385D01*
X144443367Y-77885725D01*
G37*
G36*
X145009053Y-78451410D02*
G01*
X145397961Y-78840318D01*
X144337301Y-79900978D01*
X143948393Y-79512070D01*
X145009053Y-78451410D01*
G37*
G36*
X145574738Y-79017096D02*
G01*
X145963646Y-79406004D01*
X144902986Y-80466664D01*
X144514078Y-80077756D01*
X145574738Y-79017096D01*
G37*
G36*
X146140424Y-79582781D02*
G01*
X146529332Y-79971689D01*
X145468672Y-81032349D01*
X145079764Y-80643441D01*
X146140424Y-79582781D01*
G37*
G36*
X146706109Y-80148466D02*
G01*
X147095017Y-80537374D01*
X146034357Y-81598034D01*
X145645449Y-81209126D01*
X146706109Y-80148466D01*
G37*
G36*
X147271794Y-80714152D02*
G01*
X147660702Y-81103060D01*
X146600042Y-82163720D01*
X146211134Y-81774812D01*
X147271794Y-80714152D01*
G37*
%TD*%
%TO.C,R2*%
G36*
G01*
X134805000Y-73030002D02*
X134805000Y-72129998D01*
G75*
G02*
X135054998Y-71880000I249998J0D01*
G01*
X135580002Y-71880000D01*
G75*
G02*
X135830000Y-72129998I0J-249998D01*
G01*
X135830000Y-73030002D01*
G75*
G02*
X135580002Y-73280000I-249998J0D01*
G01*
X135054998Y-73280000D01*
G75*
G02*
X134805000Y-73030002I0J249998D01*
G01*
G37*
G36*
G01*
X136630000Y-73030002D02*
X136630000Y-72129998D01*
G75*
G02*
X136879998Y-71880000I249998J0D01*
G01*
X137405002Y-71880000D01*
G75*
G02*
X137655000Y-72129998I0J-249998D01*
G01*
X137655000Y-73030002D01*
G75*
G02*
X137405002Y-73280000I-249998J0D01*
G01*
X136879998Y-73280000D01*
G75*
G02*
X136630000Y-73030002I0J249998D01*
G01*
G37*
%TD*%
D10*
%TO.C,L42*%
X68426000Y-26721000D03*
X63526000Y-23521000D03*
X63526000Y-26721000D03*
X68426000Y-23521000D03*
%TD*%
%TO.C,L41*%
X104571000Y-32633000D03*
X99671000Y-29433000D03*
X99671000Y-32633000D03*
X104571000Y-29433000D03*
%TD*%
%TO.C,L40*%
X89324000Y-87988000D03*
X84424000Y-84788000D03*
X84424000Y-87988000D03*
X89324000Y-84788000D03*
%TD*%
%TO.C,C10*%
G36*
G01*
X158050000Y-78475000D02*
X158050000Y-77525000D01*
G75*
G02*
X158300000Y-77275000I250000J0D01*
G01*
X158800000Y-77275000D01*
G75*
G02*
X159050000Y-77525000I0J-250000D01*
G01*
X159050000Y-78475000D01*
G75*
G02*
X158800000Y-78725000I-250000J0D01*
G01*
X158300000Y-78725000D01*
G75*
G02*
X158050000Y-78475000I0J250000D01*
G01*
G37*
G36*
G01*
X159950000Y-78475000D02*
X159950000Y-77525000D01*
G75*
G02*
X160200000Y-77275000I250000J0D01*
G01*
X160700000Y-77275000D01*
G75*
G02*
X160950000Y-77525000I0J-250000D01*
G01*
X160950000Y-78475000D01*
G75*
G02*
X160700000Y-78725000I-250000J0D01*
G01*
X160200000Y-78725000D01*
G75*
G02*
X159950000Y-78475000I0J250000D01*
G01*
G37*
%TD*%
%TO.C,C9*%
G36*
G01*
X149570000Y-63255000D02*
X149570000Y-64205000D01*
G75*
G02*
X149320000Y-64455000I-250000J0D01*
G01*
X148820000Y-64455000D01*
G75*
G02*
X148570000Y-64205000I0J250000D01*
G01*
X148570000Y-63255000D01*
G75*
G02*
X148820000Y-63005000I250000J0D01*
G01*
X149320000Y-63005000D01*
G75*
G02*
X149570000Y-63255000I0J-250000D01*
G01*
G37*
G36*
G01*
X147670000Y-63255000D02*
X147670000Y-64205000D01*
G75*
G02*
X147420000Y-64455000I-250000J0D01*
G01*
X146920000Y-64455000D01*
G75*
G02*
X146670000Y-64205000I0J250000D01*
G01*
X146670000Y-63255000D01*
G75*
G02*
X146920000Y-63005000I250000J0D01*
G01*
X147420000Y-63005000D01*
G75*
G02*
X147670000Y-63255000I0J-250000D01*
G01*
G37*
%TD*%
%TO.C,C5*%
G36*
G01*
X137680000Y-76235000D02*
X137680000Y-77185000D01*
G75*
G02*
X137430000Y-77435000I-250000J0D01*
G01*
X136930000Y-77435000D01*
G75*
G02*
X136680000Y-77185000I0J250000D01*
G01*
X136680000Y-76235000D01*
G75*
G02*
X136930000Y-75985000I250000J0D01*
G01*
X137430000Y-75985000D01*
G75*
G02*
X137680000Y-76235000I0J-250000D01*
G01*
G37*
G36*
G01*
X135780000Y-76235000D02*
X135780000Y-77185000D01*
G75*
G02*
X135530000Y-77435000I-250000J0D01*
G01*
X135030000Y-77435000D01*
G75*
G02*
X134780000Y-77185000I0J250000D01*
G01*
X134780000Y-76235000D01*
G75*
G02*
X135030000Y-75985000I250000J0D01*
G01*
X135530000Y-75985000D01*
G75*
G02*
X135780000Y-76235000I0J-250000D01*
G01*
G37*
%TD*%
%TO.C,C4*%
G36*
G01*
X137680000Y-74135000D02*
X137680000Y-75085000D01*
G75*
G02*
X137430000Y-75335000I-250000J0D01*
G01*
X136930000Y-75335000D01*
G75*
G02*
X136680000Y-75085000I0J250000D01*
G01*
X136680000Y-74135000D01*
G75*
G02*
X136930000Y-73885000I250000J0D01*
G01*
X137430000Y-73885000D01*
G75*
G02*
X137680000Y-74135000I0J-250000D01*
G01*
G37*
G36*
G01*
X135780000Y-74135000D02*
X135780000Y-75085000D01*
G75*
G02*
X135530000Y-75335000I-250000J0D01*
G01*
X135030000Y-75335000D01*
G75*
G02*
X134780000Y-75085000I0J250000D01*
G01*
X134780000Y-74135000D01*
G75*
G02*
X135030000Y-73885000I250000J0D01*
G01*
X135530000Y-73885000D01*
G75*
G02*
X135780000Y-74135000I0J-250000D01*
G01*
G37*
%TD*%
%TO.C,C2*%
G36*
G01*
X147834000Y-84678000D02*
X147834000Y-85628000D01*
G75*
G02*
X147584000Y-85878000I-250000J0D01*
G01*
X147084000Y-85878000D01*
G75*
G02*
X146834000Y-85628000I0J250000D01*
G01*
X146834000Y-84678000D01*
G75*
G02*
X147084000Y-84428000I250000J0D01*
G01*
X147584000Y-84428000D01*
G75*
G02*
X147834000Y-84678000I0J-250000D01*
G01*
G37*
G36*
G01*
X145934000Y-84678000D02*
X145934000Y-85628000D01*
G75*
G02*
X145684000Y-85878000I-250000J0D01*
G01*
X145184000Y-85878000D01*
G75*
G02*
X144934000Y-85628000I0J250000D01*
G01*
X144934000Y-84678000D01*
G75*
G02*
X145184000Y-84428000I250000J0D01*
G01*
X145684000Y-84428000D01*
G75*
G02*
X145934000Y-84678000I0J-250000D01*
G01*
G37*
%TD*%
%TO.C,C1*%
G36*
G01*
X148436000Y-85628000D02*
X148436000Y-84678000D01*
G75*
G02*
X148686000Y-84428000I250000J0D01*
G01*
X149186000Y-84428000D01*
G75*
G02*
X149436000Y-84678000I0J-250000D01*
G01*
X149436000Y-85628000D01*
G75*
G02*
X149186000Y-85878000I-250000J0D01*
G01*
X148686000Y-85878000D01*
G75*
G02*
X148436000Y-85628000I0J250000D01*
G01*
G37*
G36*
G01*
X150336000Y-85628000D02*
X150336000Y-84678000D01*
G75*
G02*
X150586000Y-84428000I250000J0D01*
G01*
X151086000Y-84428000D01*
G75*
G02*
X151336000Y-84678000I0J-250000D01*
G01*
X151336000Y-85628000D01*
G75*
G02*
X151086000Y-85878000I-250000J0D01*
G01*
X150586000Y-85878000D01*
G75*
G02*
X150336000Y-85628000I0J250000D01*
G01*
G37*
%TD*%
%TO.C,L35*%
X70144324Y-108961721D03*
X65244324Y-105761721D03*
X65244324Y-108961721D03*
X70144324Y-105761721D03*
%TD*%
%TO.C,L29*%
X65655000Y-21052641D03*
X60755000Y-21052641D03*
X65655000Y-24252641D03*
X60755000Y-24252641D03*
%TD*%
%TO.C,L30*%
X52995000Y-26152641D03*
X48095000Y-26152641D03*
X52995000Y-29352641D03*
X48095000Y-29352641D03*
%TD*%
D13*
%TO.C,J1*%
G36*
X37223764Y-22640251D02*
G01*
X37425565Y-24076139D01*
X36831404Y-24159643D01*
X36629603Y-22723755D01*
X37223764Y-22640251D01*
G37*
G36*
X43660506Y-21735626D02*
G01*
X43862307Y-23171514D01*
X43268146Y-23255018D01*
X43066345Y-21819130D01*
X43660506Y-21735626D01*
G37*
G36*
X42868292Y-21846964D02*
G01*
X43070093Y-23282852D01*
X42475932Y-23366356D01*
X42274131Y-21930468D01*
X42868292Y-21846964D01*
G37*
G36*
X38015978Y-22528912D02*
G01*
X38217779Y-23964800D01*
X37623618Y-24048304D01*
X37421817Y-22612416D01*
X38015978Y-22528912D01*
G37*
G36*
X41531430Y-22034848D02*
G01*
X41733231Y-23470736D01*
X41436150Y-23512488D01*
X41234349Y-22076600D01*
X41531430Y-22034848D01*
G37*
G36*
X41036296Y-22104435D02*
G01*
X41238097Y-23540323D01*
X40941016Y-23582075D01*
X40739215Y-22146187D01*
X41036296Y-22104435D01*
G37*
G36*
X40046028Y-22243608D02*
G01*
X40247829Y-23679496D01*
X39950748Y-23721248D01*
X39748947Y-22285360D01*
X40046028Y-22243608D01*
G37*
G36*
X39550894Y-22313194D02*
G01*
X39752695Y-23749082D01*
X39455614Y-23790834D01*
X39253813Y-22354946D01*
X39550894Y-22313194D01*
G37*
G36*
X38560626Y-22452367D02*
G01*
X38762427Y-23888255D01*
X38465346Y-23930007D01*
X38263545Y-22494119D01*
X38560626Y-22452367D01*
G37*
G36*
X40541162Y-22174021D02*
G01*
X40742963Y-23609909D01*
X40445882Y-23651661D01*
X40244081Y-22215773D01*
X40541162Y-22174021D01*
G37*
G36*
G01*
X36259243Y-22028533D02*
X36412333Y-23117827D01*
G75*
G02*
X35986786Y-23682548I-495134J-69587D01*
G01*
X35986786Y-23682548D01*
G75*
G02*
X35422065Y-23257001I-69587J495134D01*
G01*
X35268975Y-22167707D01*
G75*
G02*
X35694522Y-21602986I495134J69587D01*
G01*
X35694522Y-21602986D01*
G75*
G02*
X36259243Y-22028533I69587J-495134D01*
G01*
G37*
G36*
G01*
X44815159Y-20826077D02*
X44968249Y-21915371D01*
G75*
G02*
X44542702Y-22480092I-495134J-69587D01*
G01*
X44542702Y-22480092D01*
G75*
G02*
X43977981Y-22054545I-69587J495134D01*
G01*
X43824891Y-20965251D01*
G75*
G02*
X44250438Y-20400530I495134J69587D01*
G01*
X44250438Y-20400530D01*
G75*
G02*
X44815159Y-20826077I69587J-495134D01*
G01*
G37*
D14*
X42906725Y-21114487D03*
G36*
G01*
X44268208Y-16934324D02*
X44351712Y-17528484D01*
G75*
G02*
X43926165Y-18093205I-495134J-69587D01*
G01*
X43926165Y-18093205D01*
G75*
G02*
X43361444Y-17667658I-69587J495134D01*
G01*
X43277940Y-17073498D01*
G75*
G02*
X43703487Y-16508777I495134J69587D01*
G01*
X43703487Y-16508777D01*
G75*
G02*
X44268208Y-16934324I69587J-495134D01*
G01*
G37*
X37182975Y-21918907D03*
G36*
G01*
X35712292Y-18136779D02*
X35795796Y-18730939D01*
G75*
G02*
X35370249Y-19295660I-495134J-69587D01*
G01*
X35370249Y-19295660D01*
G75*
G02*
X34805528Y-18870113I-69587J495134D01*
G01*
X34722024Y-18275953D01*
G75*
G02*
X35147571Y-17711232I495134J69587D01*
G01*
X35147571Y-17711232D01*
G75*
G02*
X35712292Y-18136779I69587J-495134D01*
G01*
G37*
D13*
G36*
X41931284Y-23442901D02*
G01*
X41729483Y-22007013D01*
X42026564Y-21965261D01*
X42228365Y-23401149D01*
X41931284Y-23442901D01*
G37*
G36*
X38960480Y-23860421D02*
G01*
X38758679Y-22424533D01*
X39055760Y-22382781D01*
X39257561Y-23818669D01*
X38960480Y-23860421D01*
G37*
%TD*%
D16*
%TO.C,SW19*%
X73110000Y-108364000D03*
X73110000Y-103364000D03*
D17*
X66110000Y-111464000D03*
X66110000Y-100264000D03*
D16*
X58610000Y-108364000D03*
X58610000Y-105864000D03*
D18*
X58610000Y-103364000D03*
%TD*%
D10*
%TO.C,L38*%
X157200000Y-52554000D03*
X152300000Y-49354000D03*
X152300000Y-52554000D03*
X157200000Y-49354000D03*
%TD*%
%TO.C,L37*%
X147556000Y-101628000D03*
X152456000Y-104828000D03*
X152456000Y-101628000D03*
X147556000Y-104828000D03*
%TD*%
D13*
%TO.C,L36*%
G36*
X126284475Y-128381070D02*
G01*
X126458123Y-127396262D01*
X127935335Y-127656734D01*
X127761687Y-128641542D01*
X126284475Y-128381070D01*
G37*
G36*
X122014591Y-124378810D02*
G01*
X122188239Y-123394002D01*
X123665451Y-123654474D01*
X123491803Y-124639282D01*
X122014591Y-124378810D01*
G37*
G36*
X121458917Y-127530194D02*
G01*
X121632565Y-126545386D01*
X123109777Y-126805858D01*
X122936129Y-127790666D01*
X121458917Y-127530194D01*
G37*
G36*
X126840149Y-125229686D02*
G01*
X127013797Y-124244878D01*
X128491009Y-124505350D01*
X128317361Y-125490158D01*
X126840149Y-125229686D01*
G37*
%TD*%
D10*
%TO.C,L34*%
X29738505Y-84024487D03*
X24838505Y-80824487D03*
X24838505Y-84024487D03*
X29738505Y-80824487D03*
%TD*%
%TO.C,L33*%
X26644788Y-43431170D03*
X21744788Y-40231170D03*
X21744788Y-43431170D03*
X26644788Y-40231170D03*
%TD*%
%TO.C,L28*%
X78325000Y-19324000D03*
X73425000Y-19324000D03*
X78325000Y-22524000D03*
X73425000Y-22524000D03*
%TD*%
%TO.C,L27*%
X90995000Y-19664000D03*
X86095000Y-19664000D03*
X90995000Y-22864000D03*
X86095000Y-22864000D03*
%TD*%
%TO.C,L26*%
X103655000Y-23294000D03*
X98755000Y-23294000D03*
X103655000Y-26494000D03*
X98755000Y-26494000D03*
%TD*%
%TO.C,L25*%
X116325000Y-25294000D03*
X111425000Y-25294000D03*
X116325000Y-28494000D03*
X111425000Y-28494000D03*
%TD*%
%TO.C,L24*%
X128995000Y-26794000D03*
X124095000Y-26794000D03*
X128995000Y-29994000D03*
X124095000Y-29994000D03*
%TD*%
D19*
%TO.C,REF\u002A\u002A*%
X117888771Y-124832351D03*
X122021597Y-101393927D03*
D20*
X137030068Y-104040325D03*
X132897241Y-127478750D03*
%TD*%
%TO.C,REF\u002A\u002A*%
X142042759Y-104959250D03*
X137909932Y-128397675D03*
D19*
X152918403Y-131044073D03*
X157051229Y-107605649D03*
%TD*%
%TO.C,R5*%
G36*
G01*
X159900000Y-82450002D02*
X159900000Y-81549998D01*
G75*
G02*
X160149998Y-81300000I249998J0D01*
G01*
X160675002Y-81300000D01*
G75*
G02*
X160925000Y-81549998I0J-249998D01*
G01*
X160925000Y-82450002D01*
G75*
G02*
X160675002Y-82700000I-249998J0D01*
G01*
X160149998Y-82700000D01*
G75*
G02*
X159900000Y-82450002I0J249998D01*
G01*
G37*
G36*
G01*
X158075000Y-82450002D02*
X158075000Y-81549998D01*
G75*
G02*
X158324998Y-81300000I249998J0D01*
G01*
X158850002Y-81300000D01*
G75*
G02*
X159100000Y-81549998I0J-249998D01*
G01*
X159100000Y-82450002D01*
G75*
G02*
X158850002Y-82700000I-249998J0D01*
G01*
X158324998Y-82700000D01*
G75*
G02*
X158075000Y-82450002I0J249998D01*
G01*
G37*
%TD*%
%TO.C,R3*%
G36*
G01*
X47952546Y-33882498D02*
X47052542Y-33882498D01*
G75*
G02*
X46802544Y-33632500I0J249998D01*
G01*
X46802544Y-33107496D01*
G75*
G02*
X47052542Y-32857498I249998J0D01*
G01*
X47952546Y-32857498D01*
G75*
G02*
X48202544Y-33107496I0J-249998D01*
G01*
X48202544Y-33632500D01*
G75*
G02*
X47952546Y-33882498I-249998J0D01*
G01*
G37*
G36*
G01*
X47952546Y-32057498D02*
X47052542Y-32057498D01*
G75*
G02*
X46802544Y-31807500I0J249998D01*
G01*
X46802544Y-31282496D01*
G75*
G02*
X47052542Y-31032498I249998J0D01*
G01*
X47952546Y-31032498D01*
G75*
G02*
X48202544Y-31282496I0J-249998D01*
G01*
X48202544Y-31807500D01*
G75*
G02*
X47952546Y-32057498I-249998J0D01*
G01*
G37*
%TD*%
%TO.C,R4*%
G36*
G01*
X45608821Y-32057498D02*
X44708817Y-32057498D01*
G75*
G02*
X44458819Y-31807500I0J249998D01*
G01*
X44458819Y-31282496D01*
G75*
G02*
X44708817Y-31032498I249998J0D01*
G01*
X45608821Y-31032498D01*
G75*
G02*
X45858819Y-31282496I0J-249998D01*
G01*
X45858819Y-31807500D01*
G75*
G02*
X45608821Y-32057498I-249998J0D01*
G01*
G37*
G36*
G01*
X45608821Y-33882498D02*
X44708817Y-33882498D01*
G75*
G02*
X44458819Y-33632500I0J249998D01*
G01*
X44458819Y-33107496D01*
G75*
G02*
X44708817Y-32857498I249998J0D01*
G01*
X45608821Y-32857498D01*
G75*
G02*
X45858819Y-33107496I0J-249998D01*
G01*
X45858819Y-33632500D01*
G75*
G02*
X45608821Y-33882498I-249998J0D01*
G01*
G37*
%TD*%
%TO.C,D1*%
G36*
G01*
X21745000Y-46333500D02*
X22345000Y-46333500D01*
G75*
G02*
X22645000Y-46633500I0J-300000D01*
G01*
X22645000Y-47734500D01*
G75*
G02*
X22345000Y-48034500I-300000J0D01*
G01*
X21745000Y-48034500D01*
G75*
G02*
X21445000Y-47734500I0J300000D01*
G01*
X21445000Y-46633500D01*
G75*
G02*
X21745000Y-46333500I300000J0D01*
G01*
G37*
G36*
G01*
X21745000Y-50435500D02*
X22345000Y-50435500D01*
G75*
G02*
X22645000Y-50735500I0J-300000D01*
G01*
X22645000Y-51836500D01*
G75*
G02*
X22345000Y-52136500I-300000J0D01*
G01*
X21745000Y-52136500D01*
G75*
G02*
X21445000Y-51836500I0J300000D01*
G01*
X21445000Y-50735500D01*
G75*
G02*
X21745000Y-50435500I300000J0D01*
G01*
G37*
%TD*%
%TO.C,D2*%
G36*
G01*
X39045000Y-46533500D02*
X39645000Y-46533500D01*
G75*
G02*
X39945000Y-46833500I0J-300000D01*
G01*
X39945000Y-47934500D01*
G75*
G02*
X39645000Y-48234500I-300000J0D01*
G01*
X39045000Y-48234500D01*
G75*
G02*
X38745000Y-47934500I0J300000D01*
G01*
X38745000Y-46833500D01*
G75*
G02*
X39045000Y-46533500I300000J0D01*
G01*
G37*
G36*
G01*
X39045000Y-50635500D02*
X39645000Y-50635500D01*
G75*
G02*
X39945000Y-50935500I0J-300000D01*
G01*
X39945000Y-52036500D01*
G75*
G02*
X39645000Y-52336500I-300000J0D01*
G01*
X39045000Y-52336500D01*
G75*
G02*
X38745000Y-52036500I0J300000D01*
G01*
X38745000Y-50935500D01*
G75*
G02*
X39045000Y-50635500I300000J0D01*
G01*
G37*
%TD*%
%TO.C,D3*%
G36*
G01*
X58045000Y-30983500D02*
X58645000Y-30983500D01*
G75*
G02*
X58945000Y-31283500I0J-300000D01*
G01*
X58945000Y-32384500D01*
G75*
G02*
X58645000Y-32684500I-300000J0D01*
G01*
X58045000Y-32684500D01*
G75*
G02*
X57745000Y-32384500I0J300000D01*
G01*
X57745000Y-31283500D01*
G75*
G02*
X58045000Y-30983500I300000J0D01*
G01*
G37*
G36*
G01*
X58045000Y-35085500D02*
X58645000Y-35085500D01*
G75*
G02*
X58945000Y-35385500I0J-300000D01*
G01*
X58945000Y-36486500D01*
G75*
G02*
X58645000Y-36786500I-300000J0D01*
G01*
X58045000Y-36786500D01*
G75*
G02*
X57745000Y-36486500I0J300000D01*
G01*
X57745000Y-35385500D01*
G75*
G02*
X58045000Y-35085500I300000J0D01*
G01*
G37*
%TD*%
%TO.C,D4*%
G36*
G01*
X77045000Y-27983500D02*
X77645000Y-27983500D01*
G75*
G02*
X77945000Y-28283500I0J-300000D01*
G01*
X77945000Y-29384500D01*
G75*
G02*
X77645000Y-29684500I-300000J0D01*
G01*
X77045000Y-29684500D01*
G75*
G02*
X76745000Y-29384500I0J300000D01*
G01*
X76745000Y-28283500D01*
G75*
G02*
X77045000Y-27983500I300000J0D01*
G01*
G37*
G36*
G01*
X77045000Y-32085500D02*
X77645000Y-32085500D01*
G75*
G02*
X77945000Y-32385500I0J-300000D01*
G01*
X77945000Y-33486500D01*
G75*
G02*
X77645000Y-33786500I-300000J0D01*
G01*
X77045000Y-33786500D01*
G75*
G02*
X76745000Y-33486500I0J300000D01*
G01*
X76745000Y-32385500D01*
G75*
G02*
X77045000Y-32085500I300000J0D01*
G01*
G37*
%TD*%
%TO.C,D5*%
G36*
G01*
X96045000Y-37983500D02*
X96645000Y-37983500D01*
G75*
G02*
X96945000Y-38283500I0J-300000D01*
G01*
X96945000Y-39384500D01*
G75*
G02*
X96645000Y-39684500I-300000J0D01*
G01*
X96045000Y-39684500D01*
G75*
G02*
X95745000Y-39384500I0J300000D01*
G01*
X95745000Y-38283500D01*
G75*
G02*
X96045000Y-37983500I300000J0D01*
G01*
G37*
G36*
G01*
X96045000Y-42085500D02*
X96645000Y-42085500D01*
G75*
G02*
X96945000Y-42385500I0J-300000D01*
G01*
X96945000Y-43486500D01*
G75*
G02*
X96645000Y-43786500I-300000J0D01*
G01*
X96045000Y-43786500D01*
G75*
G02*
X95745000Y-43486500I0J300000D01*
G01*
X95745000Y-42385500D01*
G75*
G02*
X96045000Y-42085500I300000J0D01*
G01*
G37*
%TD*%
%TO.C,D6*%
G36*
G01*
X115045000Y-39983500D02*
X115645000Y-39983500D01*
G75*
G02*
X115945000Y-40283500I0J-300000D01*
G01*
X115945000Y-41384500D01*
G75*
G02*
X115645000Y-41684500I-300000J0D01*
G01*
X115045000Y-41684500D01*
G75*
G02*
X114745000Y-41384500I0J300000D01*
G01*
X114745000Y-40283500D01*
G75*
G02*
X115045000Y-39983500I300000J0D01*
G01*
G37*
G36*
G01*
X115045000Y-44085500D02*
X115645000Y-44085500D01*
G75*
G02*
X115945000Y-44385500I0J-300000D01*
G01*
X115945000Y-45486500D01*
G75*
G02*
X115645000Y-45786500I-300000J0D01*
G01*
X115045000Y-45786500D01*
G75*
G02*
X114745000Y-45486500I0J300000D01*
G01*
X114745000Y-44385500D01*
G75*
G02*
X115045000Y-44085500I300000J0D01*
G01*
G37*
%TD*%
%TO.C,D7*%
G36*
G01*
X21745000Y-65333500D02*
X22345000Y-65333500D01*
G75*
G02*
X22645000Y-65633500I0J-300000D01*
G01*
X22645000Y-66734500D01*
G75*
G02*
X22345000Y-67034500I-300000J0D01*
G01*
X21745000Y-67034500D01*
G75*
G02*
X21445000Y-66734500I0J300000D01*
G01*
X21445000Y-65633500D01*
G75*
G02*
X21745000Y-65333500I300000J0D01*
G01*
G37*
G36*
G01*
X21745000Y-69435500D02*
X22345000Y-69435500D01*
G75*
G02*
X22645000Y-69735500I0J-300000D01*
G01*
X22645000Y-70836500D01*
G75*
G02*
X22345000Y-71136500I-300000J0D01*
G01*
X21745000Y-71136500D01*
G75*
G02*
X21445000Y-70836500I0J300000D01*
G01*
X21445000Y-69735500D01*
G75*
G02*
X21745000Y-69435500I300000J0D01*
G01*
G37*
%TD*%
%TO.C,D8*%
G36*
G01*
X39045000Y-65533500D02*
X39645000Y-65533500D01*
G75*
G02*
X39945000Y-65833500I0J-300000D01*
G01*
X39945000Y-66934500D01*
G75*
G02*
X39645000Y-67234500I-300000J0D01*
G01*
X39045000Y-67234500D01*
G75*
G02*
X38745000Y-66934500I0J300000D01*
G01*
X38745000Y-65833500D01*
G75*
G02*
X39045000Y-65533500I300000J0D01*
G01*
G37*
G36*
G01*
X39045000Y-69635500D02*
X39645000Y-69635500D01*
G75*
G02*
X39945000Y-69935500I0J-300000D01*
G01*
X39945000Y-71036500D01*
G75*
G02*
X39645000Y-71336500I-300000J0D01*
G01*
X39045000Y-71336500D01*
G75*
G02*
X38745000Y-71036500I0J300000D01*
G01*
X38745000Y-69935500D01*
G75*
G02*
X39045000Y-69635500I300000J0D01*
G01*
G37*
%TD*%
%TO.C,D9*%
G36*
G01*
X58045000Y-49983500D02*
X58645000Y-49983500D01*
G75*
G02*
X58945000Y-50283500I0J-300000D01*
G01*
X58945000Y-51384500D01*
G75*
G02*
X58645000Y-51684500I-300000J0D01*
G01*
X58045000Y-51684500D01*
G75*
G02*
X57745000Y-51384500I0J300000D01*
G01*
X57745000Y-50283500D01*
G75*
G02*
X58045000Y-49983500I300000J0D01*
G01*
G37*
G36*
G01*
X58045000Y-54085500D02*
X58645000Y-54085500D01*
G75*
G02*
X58945000Y-54385500I0J-300000D01*
G01*
X58945000Y-55486500D01*
G75*
G02*
X58645000Y-55786500I-300000J0D01*
G01*
X58045000Y-55786500D01*
G75*
G02*
X57745000Y-55486500I0J300000D01*
G01*
X57745000Y-54385500D01*
G75*
G02*
X58045000Y-54085500I300000J0D01*
G01*
G37*
%TD*%
%TO.C,D10*%
G36*
G01*
X77045000Y-46983500D02*
X77645000Y-46983500D01*
G75*
G02*
X77945000Y-47283500I0J-300000D01*
G01*
X77945000Y-48384500D01*
G75*
G02*
X77645000Y-48684500I-300000J0D01*
G01*
X77045000Y-48684500D01*
G75*
G02*
X76745000Y-48384500I0J300000D01*
G01*
X76745000Y-47283500D01*
G75*
G02*
X77045000Y-46983500I300000J0D01*
G01*
G37*
G36*
G01*
X77045000Y-51085500D02*
X77645000Y-51085500D01*
G75*
G02*
X77945000Y-51385500I0J-300000D01*
G01*
X77945000Y-52486500D01*
G75*
G02*
X77645000Y-52786500I-300000J0D01*
G01*
X77045000Y-52786500D01*
G75*
G02*
X76745000Y-52486500I0J300000D01*
G01*
X76745000Y-51385500D01*
G75*
G02*
X77045000Y-51085500I300000J0D01*
G01*
G37*
%TD*%
%TO.C,D11*%
G36*
G01*
X96045000Y-56983500D02*
X96645000Y-56983500D01*
G75*
G02*
X96945000Y-57283500I0J-300000D01*
G01*
X96945000Y-58384500D01*
G75*
G02*
X96645000Y-58684500I-300000J0D01*
G01*
X96045000Y-58684500D01*
G75*
G02*
X95745000Y-58384500I0J300000D01*
G01*
X95745000Y-57283500D01*
G75*
G02*
X96045000Y-56983500I300000J0D01*
G01*
G37*
G36*
G01*
X96045000Y-61085500D02*
X96645000Y-61085500D01*
G75*
G02*
X96945000Y-61385500I0J-300000D01*
G01*
X96945000Y-62486500D01*
G75*
G02*
X96645000Y-62786500I-300000J0D01*
G01*
X96045000Y-62786500D01*
G75*
G02*
X95745000Y-62486500I0J300000D01*
G01*
X95745000Y-61385500D01*
G75*
G02*
X96045000Y-61085500I300000J0D01*
G01*
G37*
%TD*%
%TO.C,D12*%
G36*
G01*
X115045000Y-58983500D02*
X115645000Y-58983500D01*
G75*
G02*
X115945000Y-59283500I0J-300000D01*
G01*
X115945000Y-60384500D01*
G75*
G02*
X115645000Y-60684500I-300000J0D01*
G01*
X115045000Y-60684500D01*
G75*
G02*
X114745000Y-60384500I0J300000D01*
G01*
X114745000Y-59283500D01*
G75*
G02*
X115045000Y-58983500I300000J0D01*
G01*
G37*
G36*
G01*
X115045000Y-63085500D02*
X115645000Y-63085500D01*
G75*
G02*
X115945000Y-63385500I0J-300000D01*
G01*
X115945000Y-64486500D01*
G75*
G02*
X115645000Y-64786500I-300000J0D01*
G01*
X115045000Y-64786500D01*
G75*
G02*
X114745000Y-64486500I0J300000D01*
G01*
X114745000Y-63385500D01*
G75*
G02*
X115045000Y-63085500I300000J0D01*
G01*
G37*
%TD*%
%TO.C,D13*%
G36*
G01*
X21551063Y-83272947D02*
X22151063Y-83272947D01*
G75*
G02*
X22451063Y-83572947I0J-300000D01*
G01*
X22451063Y-84673947D01*
G75*
G02*
X22151063Y-84973947I-300000J0D01*
G01*
X21551063Y-84973947D01*
G75*
G02*
X21251063Y-84673947I0J300000D01*
G01*
X21251063Y-83572947D01*
G75*
G02*
X21551063Y-83272947I300000J0D01*
G01*
G37*
G36*
G01*
X21551063Y-87374947D02*
X22151063Y-87374947D01*
G75*
G02*
X22451063Y-87674947I0J-300000D01*
G01*
X22451063Y-88775947D01*
G75*
G02*
X22151063Y-89075947I-300000J0D01*
G01*
X21551063Y-89075947D01*
G75*
G02*
X21251063Y-88775947I0J300000D01*
G01*
X21251063Y-87674947D01*
G75*
G02*
X21551063Y-87374947I300000J0D01*
G01*
G37*
%TD*%
%TO.C,D14*%
G36*
G01*
X39045000Y-84533500D02*
X39645000Y-84533500D01*
G75*
G02*
X39945000Y-84833500I0J-300000D01*
G01*
X39945000Y-85934500D01*
G75*
G02*
X39645000Y-86234500I-300000J0D01*
G01*
X39045000Y-86234500D01*
G75*
G02*
X38745000Y-85934500I0J300000D01*
G01*
X38745000Y-84833500D01*
G75*
G02*
X39045000Y-84533500I300000J0D01*
G01*
G37*
G36*
G01*
X39045000Y-88635500D02*
X39645000Y-88635500D01*
G75*
G02*
X39945000Y-88935500I0J-300000D01*
G01*
X39945000Y-90036500D01*
G75*
G02*
X39645000Y-90336500I-300000J0D01*
G01*
X39045000Y-90336500D01*
G75*
G02*
X38745000Y-90036500I0J300000D01*
G01*
X38745000Y-88935500D01*
G75*
G02*
X39045000Y-88635500I300000J0D01*
G01*
G37*
%TD*%
%TO.C,D15*%
G36*
G01*
X58045000Y-68983500D02*
X58645000Y-68983500D01*
G75*
G02*
X58945000Y-69283500I0J-300000D01*
G01*
X58945000Y-70384500D01*
G75*
G02*
X58645000Y-70684500I-300000J0D01*
G01*
X58045000Y-70684500D01*
G75*
G02*
X57745000Y-70384500I0J300000D01*
G01*
X57745000Y-69283500D01*
G75*
G02*
X58045000Y-68983500I300000J0D01*
G01*
G37*
G36*
G01*
X58045000Y-73085500D02*
X58645000Y-73085500D01*
G75*
G02*
X58945000Y-73385500I0J-300000D01*
G01*
X58945000Y-74486500D01*
G75*
G02*
X58645000Y-74786500I-300000J0D01*
G01*
X58045000Y-74786500D01*
G75*
G02*
X57745000Y-74486500I0J300000D01*
G01*
X57745000Y-73385500D01*
G75*
G02*
X58045000Y-73085500I300000J0D01*
G01*
G37*
%TD*%
%TO.C,D16*%
G36*
G01*
X75550487Y-66503354D02*
X76150487Y-66503354D01*
G75*
G02*
X76450487Y-66803354I0J-300000D01*
G01*
X76450487Y-67904354D01*
G75*
G02*
X76150487Y-68204354I-300000J0D01*
G01*
X75550487Y-68204354D01*
G75*
G02*
X75250487Y-67904354I0J300000D01*
G01*
X75250487Y-66803354D01*
G75*
G02*
X75550487Y-66503354I300000J0D01*
G01*
G37*
G36*
G01*
X75550487Y-70605354D02*
X76150487Y-70605354D01*
G75*
G02*
X76450487Y-70905354I0J-300000D01*
G01*
X76450487Y-72006354D01*
G75*
G02*
X76150487Y-72306354I-300000J0D01*
G01*
X75550487Y-72306354D01*
G75*
G02*
X75250487Y-72006354I0J300000D01*
G01*
X75250487Y-70905354D01*
G75*
G02*
X75550487Y-70605354I300000J0D01*
G01*
G37*
%TD*%
%TO.C,D17*%
G36*
G01*
X96045000Y-75983500D02*
X96645000Y-75983500D01*
G75*
G02*
X96945000Y-76283500I0J-300000D01*
G01*
X96945000Y-77384500D01*
G75*
G02*
X96645000Y-77684500I-300000J0D01*
G01*
X96045000Y-77684500D01*
G75*
G02*
X95745000Y-77384500I0J300000D01*
G01*
X95745000Y-76283500D01*
G75*
G02*
X96045000Y-75983500I300000J0D01*
G01*
G37*
G36*
G01*
X96045000Y-80085500D02*
X96645000Y-80085500D01*
G75*
G02*
X96945000Y-80385500I0J-300000D01*
G01*
X96945000Y-81486500D01*
G75*
G02*
X96645000Y-81786500I-300000J0D01*
G01*
X96045000Y-81786500D01*
G75*
G02*
X95745000Y-81486500I0J300000D01*
G01*
X95745000Y-80385500D01*
G75*
G02*
X96045000Y-80085500I300000J0D01*
G01*
G37*
%TD*%
%TO.C,D18*%
G36*
G01*
X115045000Y-77983500D02*
X115645000Y-77983500D01*
G75*
G02*
X115945000Y-78283500I0J-300000D01*
G01*
X115945000Y-79384500D01*
G75*
G02*
X115645000Y-79684500I-300000J0D01*
G01*
X115045000Y-79684500D01*
G75*
G02*
X114745000Y-79384500I0J300000D01*
G01*
X114745000Y-78283500D01*
G75*
G02*
X115045000Y-77983500I300000J0D01*
G01*
G37*
G36*
G01*
X115045000Y-82085500D02*
X115645000Y-82085500D01*
G75*
G02*
X115945000Y-82385500I0J-300000D01*
G01*
X115945000Y-83486500D01*
G75*
G02*
X115645000Y-83786500I-300000J0D01*
G01*
X115045000Y-83786500D01*
G75*
G02*
X114745000Y-83486500I0J300000D01*
G01*
X114745000Y-82385500D01*
G75*
G02*
X115045000Y-82085500I300000J0D01*
G01*
G37*
%TD*%
%TO.C,D19*%
G36*
G01*
X75489000Y-103779500D02*
X76089000Y-103779500D01*
G75*
G02*
X76389000Y-104079500I0J-300000D01*
G01*
X76389000Y-105180500D01*
G75*
G02*
X76089000Y-105480500I-300000J0D01*
G01*
X75489000Y-105480500D01*
G75*
G02*
X75189000Y-105180500I0J300000D01*
G01*
X75189000Y-104079500D01*
G75*
G02*
X75489000Y-103779500I300000J0D01*
G01*
G37*
G36*
G01*
X75489000Y-107881500D02*
X76089000Y-107881500D01*
G75*
G02*
X76389000Y-108181500I0J-300000D01*
G01*
X76389000Y-109282500D01*
G75*
G02*
X76089000Y-109582500I-300000J0D01*
G01*
X75489000Y-109582500D01*
G75*
G02*
X75189000Y-109282500I0J300000D01*
G01*
X75189000Y-108181500D01*
G75*
G02*
X75489000Y-107881500I300000J0D01*
G01*
G37*
%TD*%
%TO.C,D20*%
G36*
G01*
X81657500Y-94992500D02*
X82257500Y-94992500D01*
G75*
G02*
X82557500Y-95292500I0J-300000D01*
G01*
X82557500Y-96393500D01*
G75*
G02*
X82257500Y-96693500I-300000J0D01*
G01*
X81657500Y-96693500D01*
G75*
G02*
X81357500Y-96393500I0J300000D01*
G01*
X81357500Y-95292500D01*
G75*
G02*
X81657500Y-94992500I300000J0D01*
G01*
G37*
G36*
G01*
X81657500Y-99094500D02*
X82257500Y-99094500D01*
G75*
G02*
X82557500Y-99394500I0J-300000D01*
G01*
X82557500Y-100495500D01*
G75*
G02*
X82257500Y-100795500I-300000J0D01*
G01*
X81657500Y-100795500D01*
G75*
G02*
X81357500Y-100495500I0J300000D01*
G01*
X81357500Y-99394500D01*
G75*
G02*
X81657500Y-99094500I300000J0D01*
G01*
G37*
%TD*%
%TO.C,D21*%
G36*
G01*
X100657500Y-96992500D02*
X101257500Y-96992500D01*
G75*
G02*
X101557500Y-97292500I0J-300000D01*
G01*
X101557500Y-98393500D01*
G75*
G02*
X101257500Y-98693500I-300000J0D01*
G01*
X100657500Y-98693500D01*
G75*
G02*
X100357500Y-98393500I0J300000D01*
G01*
X100357500Y-97292500D01*
G75*
G02*
X100657500Y-96992500I300000J0D01*
G01*
G37*
G36*
G01*
X100657500Y-101094500D02*
X101257500Y-101094500D01*
G75*
G02*
X101557500Y-101394500I0J-300000D01*
G01*
X101557500Y-102495500D01*
G75*
G02*
X101257500Y-102795500I-300000J0D01*
G01*
X100657500Y-102795500D01*
G75*
G02*
X100357500Y-102495500I0J300000D01*
G01*
X100357500Y-101394500D01*
G75*
G02*
X100657500Y-101094500I300000J0D01*
G01*
G37*
%TD*%
%TO.C,D22*%
G36*
G01*
X160030327Y-116991755D02*
X160134516Y-116400870D01*
G75*
G02*
X160482052Y-116157522I295442J-52094D01*
G01*
X161566325Y-116348709D01*
G75*
G02*
X161809673Y-116696245I-52094J-295442D01*
G01*
X161705484Y-117287130D01*
G75*
G02*
X161357948Y-117530478I-295442J52094D01*
G01*
X160273675Y-117339291D01*
G75*
G02*
X160030327Y-116991755I52094J295442D01*
G01*
G37*
G36*
G01*
X164070009Y-117704059D02*
X164174198Y-117113174D01*
G75*
G02*
X164521734Y-116869826I295442J-52094D01*
G01*
X165606007Y-117061013D01*
G75*
G02*
X165849355Y-117408549I-52094J-295442D01*
G01*
X165745166Y-117999434D01*
G75*
G02*
X165397630Y-118242782I-295442J52094D01*
G01*
X164313357Y-118051595D01*
G75*
G02*
X164070009Y-117704059I52094J295442D01*
G01*
G37*
%TD*%
%TO.C,D23*%
G36*
G01*
X136952245Y-109884327D02*
X137543130Y-109988516D01*
G75*
G02*
X137786478Y-110336052I-52094J-295442D01*
G01*
X137595291Y-111420325D01*
G75*
G02*
X137247755Y-111663673I-295442J52094D01*
G01*
X136656870Y-111559484D01*
G75*
G02*
X136413522Y-111211948I52094J295442D01*
G01*
X136604709Y-110127675D01*
G75*
G02*
X136952245Y-109884327I295442J-52094D01*
G01*
G37*
G36*
G01*
X136239941Y-113924009D02*
X136830826Y-114028198D01*
G75*
G02*
X137074174Y-114375734I-52094J-295442D01*
G01*
X136882987Y-115460007D01*
G75*
G02*
X136535451Y-115703355I-295442J52094D01*
G01*
X135944566Y-115599166D01*
G75*
G02*
X135701218Y-115251630I52094J295442D01*
G01*
X135892405Y-114167357D01*
G75*
G02*
X136239941Y-113924009I295442J-52094D01*
G01*
G37*
%TD*%
%TO.C,D24*%
G36*
G01*
X155832245Y-112294327D02*
X156423130Y-112398516D01*
G75*
G02*
X156666478Y-112746052I-52094J-295442D01*
G01*
X156475291Y-113830325D01*
G75*
G02*
X156127755Y-114073673I-295442J52094D01*
G01*
X155536870Y-113969484D01*
G75*
G02*
X155293522Y-113621948I52094J295442D01*
G01*
X155484709Y-112537675D01*
G75*
G02*
X155832245Y-112294327I295442J-52094D01*
G01*
G37*
G36*
G01*
X155119941Y-116334009D02*
X155710826Y-116438198D01*
G75*
G02*
X155954174Y-116785734I-52094J-295442D01*
G01*
X155762987Y-117870007D01*
G75*
G02*
X155415451Y-118113355I-295442J52094D01*
G01*
X154824566Y-118009166D01*
G75*
G02*
X154581218Y-117661630I52094J295442D01*
G01*
X154772405Y-116577357D01*
G75*
G02*
X155119941Y-116334009I295442J-52094D01*
G01*
G37*
%TD*%
D21*
%TO.C,SW1*%
X28545000Y-54235000D03*
D22*
X33625000Y-54235000D03*
X23465000Y-54235000D03*
D23*
X21333000Y-56775000D03*
D24*
X34944200Y-59302300D03*
%TD*%
D21*
%TO.C,SW2*%
X47545000Y-52935000D03*
D22*
X52625000Y-52935000D03*
X42465000Y-52935000D03*
D23*
X40333000Y-55475000D03*
D24*
X53944200Y-58002300D03*
%TD*%
D21*
%TO.C,SW3*%
X66545000Y-37385000D03*
D22*
X71625000Y-37385000D03*
X61465000Y-37385000D03*
D23*
X59333000Y-39925000D03*
D24*
X72944200Y-42452300D03*
%TD*%
D21*
%TO.C,SW4*%
X85545000Y-34385000D03*
D22*
X90625000Y-34385000D03*
X80465000Y-34385000D03*
D23*
X78333000Y-36925000D03*
D24*
X91944200Y-39452300D03*
%TD*%
D21*
%TO.C,SW5*%
X104545000Y-44385000D03*
D22*
X109625000Y-44385000D03*
X99465000Y-44385000D03*
D23*
X97333000Y-46925000D03*
D24*
X110944200Y-49452300D03*
%TD*%
D21*
%TO.C,SW6*%
X123545000Y-46385000D03*
D22*
X128625000Y-46385000D03*
X118465000Y-46385000D03*
D23*
X116333000Y-48925000D03*
D24*
X129944200Y-51452300D03*
%TD*%
D21*
%TO.C,SW7*%
X28545000Y-73235000D03*
D22*
X33625000Y-73235000D03*
X23465000Y-73235000D03*
D23*
X21333000Y-75775000D03*
D24*
X34944200Y-78302300D03*
%TD*%
D21*
%TO.C,SW8*%
X47545000Y-71935000D03*
D22*
X52625000Y-71935000D03*
X42465000Y-71935000D03*
D23*
X40333000Y-74475000D03*
D24*
X53944200Y-77002300D03*
%TD*%
D21*
%TO.C,SW9*%
X66545000Y-56385000D03*
D22*
X71625000Y-56385000D03*
X61465000Y-56385000D03*
D23*
X59333000Y-58925000D03*
D24*
X72944200Y-61452300D03*
%TD*%
D21*
%TO.C,SW10*%
X85545000Y-53385000D03*
D22*
X90625000Y-53385000D03*
X80465000Y-53385000D03*
D23*
X78333000Y-55925000D03*
D24*
X91944200Y-58452300D03*
%TD*%
D21*
%TO.C,SW11*%
X104545000Y-63385000D03*
D22*
X109625000Y-63385000D03*
X99465000Y-63385000D03*
D23*
X97333000Y-65925000D03*
D24*
X110944200Y-68452300D03*
%TD*%
D21*
%TO.C,SW12*%
X123545000Y-65385000D03*
D22*
X128625000Y-65385000D03*
X118465000Y-65385000D03*
D23*
X116333000Y-67925000D03*
D24*
X129944200Y-70452300D03*
%TD*%
D21*
%TO.C,SW13*%
X28545000Y-92235000D03*
D22*
X33625000Y-92235000D03*
X23465000Y-92235000D03*
D23*
X21333000Y-94775000D03*
D24*
X34944200Y-97302300D03*
%TD*%
D21*
%TO.C,SW14*%
X47545000Y-90935000D03*
D22*
X52625000Y-90935000D03*
X42465000Y-90935000D03*
D23*
X40333000Y-93475000D03*
D24*
X53944200Y-96002300D03*
%TD*%
D21*
%TO.C,SW15*%
X66545000Y-75385000D03*
D22*
X71625000Y-75385000D03*
X61465000Y-75385000D03*
D23*
X59333000Y-77925000D03*
D24*
X72944200Y-80452300D03*
%TD*%
D21*
%TO.C,SW16*%
X85545000Y-72385000D03*
D22*
X90625000Y-72385000D03*
X80465000Y-72385000D03*
D23*
X78333000Y-74925000D03*
D24*
X91944200Y-77452300D03*
%TD*%
D21*
%TO.C,SW17*%
X104545000Y-82385000D03*
D22*
X109625000Y-82385000D03*
X99465000Y-82385000D03*
D23*
X97333000Y-84925000D03*
D24*
X110944200Y-87452300D03*
%TD*%
D21*
%TO.C,SW18*%
X123545000Y-84385000D03*
D22*
X128625000Y-84385000D03*
X118465000Y-84385000D03*
D23*
X116333000Y-86925000D03*
D24*
X129944200Y-89452300D03*
%TD*%
D21*
%TO.C,SW20*%
X90157500Y-101394000D03*
D22*
X95237500Y-101394000D03*
X85077500Y-101394000D03*
D23*
X82945500Y-103934000D03*
D24*
X96556700Y-106461300D03*
%TD*%
D21*
%TO.C,SW21*%
X109157500Y-103394000D03*
D22*
X114237500Y-103394000D03*
X104077500Y-103394000D03*
D23*
X101945500Y-105934000D03*
D24*
X115556700Y-108461300D03*
%TD*%
D21*
%TO.C,SW22*%
X164840000Y-125894000D03*
D22*
X165722133Y-120891177D03*
X163957867Y-130896823D03*
D13*
G36*
X165062088Y-132063291D02*
G01*
X167524107Y-132497411D01*
X167116034Y-134811709D01*
X164654015Y-134377589D01*
X165062088Y-132063291D01*
G37*
G36*
X171985864Y-121747675D02*
G01*
X169523845Y-121313554D01*
X169897188Y-119196217D01*
X172359207Y-119630338D01*
X171985864Y-121747675D01*
G37*
%TD*%
D21*
%TO.C,SW23*%
X128070000Y-114544000D03*
D22*
X133072823Y-115426133D03*
X123067177Y-113661867D03*
D13*
G36*
X121900709Y-114766088D02*
G01*
X121466589Y-117228107D01*
X119152291Y-116820034D01*
X119586411Y-114358015D01*
X121900709Y-114766088D01*
G37*
G36*
X132216325Y-121689864D02*
G01*
X132650446Y-119227845D01*
X134767783Y-119601188D01*
X134333662Y-122063207D01*
X132216325Y-121689864D01*
G37*
%TD*%
D21*
%TO.C,SW24*%
X146870000Y-117894000D03*
D22*
X151872823Y-118776133D03*
X141867177Y-117011867D03*
D13*
G36*
X140700709Y-118116088D02*
G01*
X140266589Y-120578107D01*
X137952291Y-120170034D01*
X138386411Y-117708015D01*
X140700709Y-118116088D01*
G37*
G36*
X151016325Y-125039864D02*
G01*
X151450446Y-122577845D01*
X153567783Y-122951188D01*
X153133662Y-125413207D01*
X151016325Y-125039864D01*
G37*
%TD*%
D25*
%TO.C,BZ1*%
X77819312Y-90768148D03*
X59819312Y-90768148D03*
%TD*%
%TO.C,F2*%
G36*
G01*
X26574000Y-30509000D02*
X26574000Y-29259000D01*
G75*
G02*
X26824000Y-29009000I250000J0D01*
G01*
X27574000Y-29009000D01*
G75*
G02*
X27824000Y-29259000I0J-250000D01*
G01*
X27824000Y-30509000D01*
G75*
G02*
X27574000Y-30759000I-250000J0D01*
G01*
X26824000Y-30759000D01*
G75*
G02*
X26574000Y-30509000I0J250000D01*
G01*
G37*
G36*
G01*
X29374000Y-30509000D02*
X29374000Y-29259000D01*
G75*
G02*
X29624000Y-29009000I250000J0D01*
G01*
X30374000Y-29009000D01*
G75*
G02*
X30624000Y-29259000I0J-250000D01*
G01*
X30624000Y-30509000D01*
G75*
G02*
X30374000Y-30759000I-250000J0D01*
G01*
X29624000Y-30759000D01*
G75*
G02*
X29374000Y-30509000I0J250000D01*
G01*
G37*
%TD*%
D26*
%TO.C,U1*%
X30293000Y-27615000D03*
D27*
X30293000Y-25895000D03*
X26693000Y-25895000D03*
D13*
G36*
X28093000Y-28295000D02*
G01*
X25293000Y-28295000D01*
X25293000Y-27295000D01*
X28093000Y-27295000D01*
X28093000Y-28295000D01*
G37*
%TD*%
D28*
%TO.C,X1*%
X154389000Y-66021000D03*
X157839681Y-69471681D03*
%TD*%
D29*
%TO.C,L1*%
X25845000Y-48095000D03*
X25845000Y-49375000D03*
X31245000Y-49375000D03*
X31245000Y-48095000D03*
%TD*%
%TO.C,L2*%
X44845000Y-46795000D03*
X44845000Y-48075000D03*
X50245000Y-48075000D03*
X50245000Y-46795000D03*
%TD*%
%TO.C,L3*%
X63845000Y-31245000D03*
X63845000Y-32525000D03*
X69245000Y-32525000D03*
X69245000Y-31245000D03*
%TD*%
%TO.C,L4*%
X82845000Y-28245000D03*
X82845000Y-29525000D03*
X88245000Y-29525000D03*
X88245000Y-28245000D03*
%TD*%
%TO.C,L5*%
X101845000Y-38245000D03*
X101845000Y-39525000D03*
X107245000Y-39525000D03*
X107245000Y-38245000D03*
%TD*%
%TO.C,L6*%
X120845000Y-40245000D03*
X120845000Y-41525000D03*
X126245000Y-41525000D03*
X126245000Y-40245000D03*
%TD*%
%TO.C,L7*%
X31245000Y-68375000D03*
X31245000Y-67095000D03*
X25845000Y-67095000D03*
X25845000Y-68375000D03*
%TD*%
%TO.C,L8*%
X50245000Y-67075000D03*
X50245000Y-65795000D03*
X44845000Y-65795000D03*
X44845000Y-67075000D03*
%TD*%
%TO.C,L9*%
X69245000Y-51525000D03*
X69245000Y-50245000D03*
X63845000Y-50245000D03*
X63845000Y-51525000D03*
%TD*%
%TO.C,L10*%
X88245000Y-48525000D03*
X88245000Y-47245000D03*
X82845000Y-47245000D03*
X82845000Y-48525000D03*
%TD*%
%TO.C,L11*%
X107245000Y-58525000D03*
X107245000Y-57245000D03*
X101845000Y-57245000D03*
X101845000Y-58525000D03*
%TD*%
%TO.C,L12*%
X126245000Y-60525000D03*
X126245000Y-59245000D03*
X120845000Y-59245000D03*
X120845000Y-60525000D03*
%TD*%
%TO.C,L13*%
X25845000Y-86095000D03*
X25845000Y-87375000D03*
X31245000Y-87375000D03*
X31245000Y-86095000D03*
%TD*%
%TO.C,L14*%
X44845000Y-84795000D03*
X44845000Y-86075000D03*
X50245000Y-86075000D03*
X50245000Y-84795000D03*
%TD*%
%TO.C,L15*%
X63845000Y-69245000D03*
X63845000Y-70525000D03*
X69245000Y-70525000D03*
X69245000Y-69245000D03*
%TD*%
%TO.C,L16*%
X82845000Y-66245000D03*
X82845000Y-67525000D03*
X88245000Y-67525000D03*
X88245000Y-66245000D03*
%TD*%
%TO.C,L17*%
X101845000Y-76245000D03*
X101845000Y-77525000D03*
X107245000Y-77525000D03*
X107245000Y-76245000D03*
%TD*%
%TO.C,L18*%
X126245000Y-78245000D03*
X126245000Y-79525000D03*
X120845000Y-79525000D03*
X120845000Y-78245000D03*
%TD*%
%TO.C,L19*%
X92857500Y-96534000D03*
X92857500Y-95254000D03*
X87457500Y-95254000D03*
X87457500Y-96534000D03*
%TD*%
%TO.C,L20*%
X111857500Y-98534000D03*
X111857500Y-97254000D03*
X106457500Y-97254000D03*
X106457500Y-98534000D03*
%TD*%
%TO.C,L21*%
G36*
G01*
X132562677Y-110395214D02*
X132562677Y-110395214D01*
G75*
G02*
X132087710Y-110727789I-403771J71196D01*
G01*
X131122598Y-110557613D01*
G75*
G02*
X130790023Y-110082646I71196J403771D01*
G01*
X130790023Y-110082646D01*
G75*
G02*
X131264990Y-109750071I403771J-71196D01*
G01*
X132230102Y-109920247D01*
G75*
G02*
X132562677Y-110395214I-71196J-403771D01*
G01*
G37*
G36*
G01*
X132784947Y-109134660D02*
X132784947Y-109134660D01*
G75*
G02*
X132309980Y-109467235I-403771J71196D01*
G01*
X131344868Y-109297059D01*
G75*
G02*
X131012293Y-108822092I71196J403771D01*
G01*
X131012293Y-108822092D01*
G75*
G02*
X131487260Y-108489517I403771J-71196D01*
G01*
X132452372Y-108659693D01*
G75*
G02*
X132784947Y-109134660I-71196J-403771D01*
G01*
G37*
G36*
G01*
X127466985Y-108196960D02*
X127466985Y-108196960D01*
G75*
G02*
X126992018Y-108529535I-403771J71196D01*
G01*
X126026906Y-108359359D01*
G75*
G02*
X125694331Y-107884392I71196J403771D01*
G01*
X125694331Y-107884392D01*
G75*
G02*
X126169298Y-107551817I403771J-71196D01*
G01*
X127134410Y-107721993D01*
G75*
G02*
X127466985Y-108196960I-71196J-403771D01*
G01*
G37*
G36*
G01*
X127244715Y-109457514D02*
X127244715Y-109457514D01*
G75*
G02*
X126769748Y-109790089I-403771J71196D01*
G01*
X125804636Y-109619913D01*
G75*
G02*
X125472061Y-109144946I71196J403771D01*
G01*
X125472061Y-109144946D01*
G75*
G02*
X125947028Y-108812371I403771J-71196D01*
G01*
X126912140Y-108982547D01*
G75*
G02*
X127244715Y-109457514I-71196J-403771D01*
G01*
G37*
%TD*%
%TO.C,L22*%
G36*
G01*
X151504173Y-113849411D02*
X151504173Y-113849411D01*
G75*
G02*
X151029206Y-114181986I-403771J71196D01*
G01*
X150064094Y-114011810D01*
G75*
G02*
X149731519Y-113536843I71196J403771D01*
G01*
X149731519Y-113536843D01*
G75*
G02*
X150206486Y-113204268I403771J-71196D01*
G01*
X151171598Y-113374444D01*
G75*
G02*
X151504173Y-113849411I-71196J-403771D01*
G01*
G37*
G36*
G01*
X151726443Y-112588857D02*
X151726443Y-112588857D01*
G75*
G02*
X151251476Y-112921432I-403771J71196D01*
G01*
X150286364Y-112751256D01*
G75*
G02*
X149953789Y-112276289I71196J403771D01*
G01*
X149953789Y-112276289D01*
G75*
G02*
X150428756Y-111943714I403771J-71196D01*
G01*
X151393868Y-112113890D01*
G75*
G02*
X151726443Y-112588857I-71196J-403771D01*
G01*
G37*
G36*
G01*
X146408481Y-111651157D02*
X146408481Y-111651157D01*
G75*
G02*
X145933514Y-111983732I-403771J71196D01*
G01*
X144968402Y-111813556D01*
G75*
G02*
X144635827Y-111338589I71196J403771D01*
G01*
X144635827Y-111338589D01*
G75*
G02*
X145110794Y-111006014I403771J-71196D01*
G01*
X146075906Y-111176190D01*
G75*
G02*
X146408481Y-111651157I-71196J-403771D01*
G01*
G37*
G36*
G01*
X146186211Y-112911711D02*
X146186211Y-112911711D01*
G75*
G02*
X145711244Y-113244286I-403771J71196D01*
G01*
X144746132Y-113074110D01*
G75*
G02*
X144413557Y-112599143I71196J403771D01*
G01*
X144413557Y-112599143D01*
G75*
G02*
X144888524Y-112266568I403771J-71196D01*
G01*
X145853636Y-112436744D01*
G75*
G02*
X146186211Y-112911711I-71196J-403771D01*
G01*
G37*
%TD*%
%TO.C,L23*%
G36*
G01*
X158154589Y-128308173D02*
X158154589Y-128308173D01*
G75*
G02*
X157822014Y-127833206I71196J403771D01*
G01*
X157992190Y-126868094D01*
G75*
G02*
X158467157Y-126535519I403771J-71196D01*
G01*
X158467157Y-126535519D01*
G75*
G02*
X158799732Y-127010486I-71196J-403771D01*
G01*
X158629556Y-127975598D01*
G75*
G02*
X158154589Y-128308173I-403771J71196D01*
G01*
G37*
G36*
G01*
X159415143Y-128530443D02*
X159415143Y-128530443D01*
G75*
G02*
X159082568Y-128055476I71196J403771D01*
G01*
X159252744Y-127090364D01*
G75*
G02*
X159727711Y-126757789I403771J-71196D01*
G01*
X159727711Y-126757789D01*
G75*
G02*
X160060286Y-127232756I-71196J-403771D01*
G01*
X159890110Y-128197868D01*
G75*
G02*
X159415143Y-128530443I-403771J71196D01*
G01*
G37*
G36*
G01*
X160352843Y-123212481D02*
X160352843Y-123212481D01*
G75*
G02*
X160020268Y-122737514I71196J403771D01*
G01*
X160190444Y-121772402D01*
G75*
G02*
X160665411Y-121439827I403771J-71196D01*
G01*
X160665411Y-121439827D01*
G75*
G02*
X160997986Y-121914794I-71196J-403771D01*
G01*
X160827810Y-122879906D01*
G75*
G02*
X160352843Y-123212481I-403771J71196D01*
G01*
G37*
G36*
G01*
X159092289Y-122990211D02*
X159092289Y-122990211D01*
G75*
G02*
X158759714Y-122515244I71196J403771D01*
G01*
X158929890Y-121550132D01*
G75*
G02*
X159404857Y-121217557I403771J-71196D01*
G01*
X159404857Y-121217557D01*
G75*
G02*
X159737432Y-121692524I-71196J-403771D01*
G01*
X159567256Y-122657636D01*
G75*
G02*
X159092289Y-122990211I-403771J71196D01*
G01*
G37*
%TD*%
M02*
