%TF.GenerationSoftware,KiCad,Pcbnew,5.1.9*%
%TF.CreationDate,2021-05-10T09:53:43-05:00*%
%TF.ProjectId,nightwing,6e696768-7477-4696-9e67-2e6b69636164,rev?*%
%TF.SameCoordinates,Original*%
%TF.FileFunction,Other,Fab,Bot*%
%FSLAX46Y46*%
G04 Gerber Fmt 4.6, Leading zero omitted, Abs format (unit mm)*
G04 Created by KiCad (PCBNEW 5.1.9) date 2021-05-10 09:53:43*
%MOMM*%
%LPD*%
G01*
G04 APERTURE LIST*
%ADD10C,0.100000*%
%ADD11C,0.150000*%
G04 APERTURE END LIST*
D10*
%TO.C,J2*%
X160993572Y-96754839D02*
X169797754Y-98307254D01*
X160993572Y-96754839D02*
X162261204Y-89565742D01*
X162261204Y-89565742D02*
X171065386Y-91118157D01*
X169797754Y-98307254D02*
X171065386Y-91118157D01*
%TO.C,J1*%
X41640000Y-13810000D02*
X41640000Y-6510000D01*
X32700000Y-6510000D02*
X41640000Y-6510000D01*
X32700000Y-13810000D02*
X32700000Y-6510000D01*
%TO.C,RESET_SW1*%
X149500000Y-60000000D02*
X149500000Y-54000000D01*
X155500000Y-54000000D02*
X155500000Y-60000000D01*
X155500000Y-60000000D02*
X149500000Y-60000000D01*
X149500000Y-54000000D02*
X155500000Y-54000000D01*
X154250714Y-57000000D02*
G75*
G03*
X154250714Y-57000000I-1750714J0D01*
G01*
%TO.C,Boot1*%
X132740000Y-60010000D02*
X132740000Y-54010000D01*
X138740000Y-54010000D02*
X138740000Y-60010000D01*
X138740000Y-60010000D02*
X132740000Y-60010000D01*
X132740000Y-54010000D02*
X138740000Y-54010000D01*
X137490714Y-57010000D02*
G75*
G03*
X137490714Y-57010000I-1750714J0D01*
G01*
%TD*%
%TO.C,J2*%
D11*
X166452841Y-93455081D02*
X166328806Y-94158515D01*
X166350895Y-94307471D01*
X166428148Y-94417800D01*
X166560566Y-94489502D01*
X166654357Y-94506040D01*
X166014242Y-93474451D02*
X165975616Y-93419287D01*
X165890094Y-93355853D01*
X165655615Y-93314508D01*
X165553555Y-93344866D01*
X165498391Y-93383493D01*
X165434957Y-93469015D01*
X165418419Y-93562806D01*
X165440508Y-93711762D01*
X165904028Y-94373737D01*
X165294385Y-94266240D01*
%TO.C,J1*%
X46860476Y-4512380D02*
X46860476Y-5321904D01*
X46812857Y-5417142D01*
X46765238Y-5464761D01*
X46670000Y-5512380D01*
X46479523Y-5512380D01*
X46384285Y-5464761D01*
X46336666Y-5417142D01*
X46289047Y-5321904D01*
X46289047Y-4512380D01*
X45860476Y-5464761D02*
X45717619Y-5512380D01*
X45479523Y-5512380D01*
X45384285Y-5464761D01*
X45336666Y-5417142D01*
X45289047Y-5321904D01*
X45289047Y-5226666D01*
X45336666Y-5131428D01*
X45384285Y-5083809D01*
X45479523Y-5036190D01*
X45670000Y-4988571D01*
X45765238Y-4940952D01*
X45812857Y-4893333D01*
X45860476Y-4798095D01*
X45860476Y-4702857D01*
X45812857Y-4607619D01*
X45765238Y-4560000D01*
X45670000Y-4512380D01*
X45431904Y-4512380D01*
X45289047Y-4560000D01*
X44527142Y-4988571D02*
X44384285Y-5036190D01*
X44336666Y-5083809D01*
X44289047Y-5179047D01*
X44289047Y-5321904D01*
X44336666Y-5417142D01*
X44384285Y-5464761D01*
X44479523Y-5512380D01*
X44860476Y-5512380D01*
X44860476Y-4512380D01*
X44527142Y-4512380D01*
X44431904Y-4560000D01*
X44384285Y-4607619D01*
X44336666Y-4702857D01*
X44336666Y-4798095D01*
X44384285Y-4893333D01*
X44431904Y-4940952D01*
X44527142Y-4988571D01*
X44860476Y-4988571D01*
X44098571Y-5607619D02*
X43336666Y-5607619D01*
X42527142Y-5417142D02*
X42574761Y-5464761D01*
X42717619Y-5512380D01*
X42812857Y-5512380D01*
X42955714Y-5464761D01*
X43050952Y-5369523D01*
X43098571Y-5274285D01*
X43146190Y-5083809D01*
X43146190Y-4940952D01*
X43098571Y-4750476D01*
X43050952Y-4655238D01*
X42955714Y-4560000D01*
X42812857Y-4512380D01*
X42717619Y-4512380D01*
X42574761Y-4560000D01*
X42527142Y-4607619D01*
X42336666Y-5607619D02*
X41574761Y-5607619D01*
X40765238Y-5512380D02*
X41098571Y-5036190D01*
X41336666Y-5512380D02*
X41336666Y-4512380D01*
X40955714Y-4512380D01*
X40860476Y-4560000D01*
X40812857Y-4607619D01*
X40765238Y-4702857D01*
X40765238Y-4845714D01*
X40812857Y-4940952D01*
X40860476Y-4988571D01*
X40955714Y-5036190D01*
X41336666Y-5036190D01*
X39955714Y-5464761D02*
X40050952Y-5512380D01*
X40241428Y-5512380D01*
X40336666Y-5464761D01*
X40384285Y-5369523D01*
X40384285Y-4988571D01*
X40336666Y-4893333D01*
X40241428Y-4845714D01*
X40050952Y-4845714D01*
X39955714Y-4893333D01*
X39908095Y-4988571D01*
X39908095Y-5083809D01*
X40384285Y-5179047D01*
X39050952Y-5464761D02*
X39146190Y-5512380D01*
X39336666Y-5512380D01*
X39431904Y-5464761D01*
X39479523Y-5417142D01*
X39527142Y-5321904D01*
X39527142Y-5036190D01*
X39479523Y-4940952D01*
X39431904Y-4893333D01*
X39336666Y-4845714D01*
X39146190Y-4845714D01*
X39050952Y-4893333D01*
X38241428Y-5464761D02*
X38336666Y-5512380D01*
X38527142Y-5512380D01*
X38622380Y-5464761D01*
X38670000Y-5369523D01*
X38670000Y-4988571D01*
X38622380Y-4893333D01*
X38527142Y-4845714D01*
X38336666Y-4845714D01*
X38241428Y-4893333D01*
X38193809Y-4988571D01*
X38193809Y-5083809D01*
X38670000Y-5179047D01*
X37765238Y-4845714D02*
X37765238Y-5845714D01*
X37765238Y-4893333D02*
X37670000Y-4845714D01*
X37479523Y-4845714D01*
X37384285Y-4893333D01*
X37336666Y-4940952D01*
X37289047Y-5036190D01*
X37289047Y-5321904D01*
X37336666Y-5417142D01*
X37384285Y-5464761D01*
X37479523Y-5512380D01*
X37670000Y-5512380D01*
X37765238Y-5464761D01*
X37003333Y-4845714D02*
X36622380Y-4845714D01*
X36860476Y-4512380D02*
X36860476Y-5369523D01*
X36812857Y-5464761D01*
X36717619Y-5512380D01*
X36622380Y-5512380D01*
X35860476Y-5512380D02*
X35860476Y-4988571D01*
X35908095Y-4893333D01*
X36003333Y-4845714D01*
X36193809Y-4845714D01*
X36289047Y-4893333D01*
X35860476Y-5464761D02*
X35955714Y-5512380D01*
X36193809Y-5512380D01*
X36289047Y-5464761D01*
X36336666Y-5369523D01*
X36336666Y-5274285D01*
X36289047Y-5179047D01*
X36193809Y-5131428D01*
X35955714Y-5131428D01*
X35860476Y-5083809D01*
X34955714Y-5464761D02*
X35050952Y-5512380D01*
X35241428Y-5512380D01*
X35336666Y-5464761D01*
X35384285Y-5417142D01*
X35431904Y-5321904D01*
X35431904Y-5036190D01*
X35384285Y-4940952D01*
X35336666Y-4893333D01*
X35241428Y-4845714D01*
X35050952Y-4845714D01*
X34955714Y-4893333D01*
X34384285Y-5512380D02*
X34479523Y-5464761D01*
X34527142Y-5369523D01*
X34527142Y-4512380D01*
X33622380Y-5464761D02*
X33717619Y-5512380D01*
X33908095Y-5512380D01*
X34003333Y-5464761D01*
X34050952Y-5369523D01*
X34050952Y-4988571D01*
X34003333Y-4893333D01*
X33908095Y-4845714D01*
X33717619Y-4845714D01*
X33622380Y-4893333D01*
X33574761Y-4988571D01*
X33574761Y-5083809D01*
X34050952Y-5179047D01*
X33384285Y-5607619D02*
X32622380Y-5607619D01*
X32384285Y-4512380D02*
X32384285Y-5321904D01*
X32336666Y-5417142D01*
X32289047Y-5464761D01*
X32193809Y-5512380D01*
X32003333Y-5512380D01*
X31908095Y-5464761D01*
X31860476Y-5417142D01*
X31812857Y-5321904D01*
X31812857Y-4512380D01*
X31384285Y-5464761D02*
X31241428Y-5512380D01*
X31003333Y-5512380D01*
X30908095Y-5464761D01*
X30860476Y-5417142D01*
X30812857Y-5321904D01*
X30812857Y-5226666D01*
X30860476Y-5131428D01*
X30908095Y-5083809D01*
X31003333Y-5036190D01*
X31193809Y-4988571D01*
X31289047Y-4940952D01*
X31336666Y-4893333D01*
X31384285Y-4798095D01*
X31384285Y-4702857D01*
X31336666Y-4607619D01*
X31289047Y-4560000D01*
X31193809Y-4512380D01*
X30955714Y-4512380D01*
X30812857Y-4560000D01*
X30050952Y-4988571D02*
X29908095Y-5036190D01*
X29860476Y-5083809D01*
X29812857Y-5179047D01*
X29812857Y-5321904D01*
X29860476Y-5417142D01*
X29908095Y-5464761D01*
X30003333Y-5512380D01*
X30384285Y-5512380D01*
X30384285Y-4512380D01*
X30050952Y-4512380D01*
X29955714Y-4560000D01*
X29908095Y-4607619D01*
X29860476Y-4702857D01*
X29860476Y-4798095D01*
X29908095Y-4893333D01*
X29955714Y-4940952D01*
X30050952Y-4988571D01*
X30384285Y-4988571D01*
X29431904Y-4607619D02*
X29384285Y-4560000D01*
X29289047Y-4512380D01*
X29050952Y-4512380D01*
X28955714Y-4560000D01*
X28908095Y-4607619D01*
X28860476Y-4702857D01*
X28860476Y-4798095D01*
X28908095Y-4940952D01*
X29479523Y-5512380D01*
X28860476Y-5512380D01*
X28431904Y-5417142D02*
X28384285Y-5464761D01*
X28431904Y-5512380D01*
X28479523Y-5464761D01*
X28431904Y-5417142D01*
X28431904Y-5512380D01*
X27765238Y-4512380D02*
X27670000Y-4512380D01*
X27574761Y-4560000D01*
X27527142Y-4607619D01*
X27479523Y-4702857D01*
X27431904Y-4893333D01*
X27431904Y-5131428D01*
X27479523Y-5321904D01*
X27527142Y-5417142D01*
X27574761Y-5464761D01*
X27670000Y-5512380D01*
X27765238Y-5512380D01*
X27860476Y-5464761D01*
X27908095Y-5417142D01*
X27955714Y-5321904D01*
X28003333Y-5131428D01*
X28003333Y-4893333D01*
X27955714Y-4702857D01*
X27908095Y-4607619D01*
X27860476Y-4560000D01*
X27765238Y-4512380D01*
%TO.C,BZ1*%
X66676803Y-79236679D02*
X66533946Y-79284298D01*
X66486327Y-79331917D01*
X66438708Y-79427155D01*
X66438708Y-79570012D01*
X66486327Y-79665250D01*
X66533946Y-79712869D01*
X66629184Y-79760488D01*
X67010136Y-79760488D01*
X67010136Y-78760488D01*
X66676803Y-78760488D01*
X66581565Y-78808108D01*
X66533946Y-78855727D01*
X66486327Y-78950965D01*
X66486327Y-79046203D01*
X66533946Y-79141441D01*
X66581565Y-79189060D01*
X66676803Y-79236679D01*
X67010136Y-79236679D01*
X65581565Y-79093822D02*
X65581565Y-79760488D01*
X66010136Y-79093822D02*
X66010136Y-79617631D01*
X65962517Y-79712869D01*
X65867279Y-79760488D01*
X65724422Y-79760488D01*
X65629184Y-79712869D01*
X65581565Y-79665250D01*
X65200612Y-79093822D02*
X64676803Y-79093822D01*
X65200612Y-79760488D01*
X64676803Y-79760488D01*
X64391089Y-79093822D02*
X63867279Y-79093822D01*
X64391089Y-79760488D01*
X63867279Y-79760488D01*
X63105374Y-79712869D02*
X63200612Y-79760488D01*
X63391089Y-79760488D01*
X63486327Y-79712869D01*
X63533946Y-79617631D01*
X63533946Y-79236679D01*
X63486327Y-79141441D01*
X63391089Y-79093822D01*
X63200612Y-79093822D01*
X63105374Y-79141441D01*
X63057755Y-79236679D01*
X63057755Y-79331917D01*
X63533946Y-79427155D01*
X62629184Y-79760488D02*
X62629184Y-79093822D01*
X62629184Y-79284298D02*
X62581565Y-79189060D01*
X62533946Y-79141441D01*
X62438708Y-79093822D01*
X62343470Y-79093822D01*
%TD*%
M02*
