M48
; DRILL file {KiCad 5.1.10} date Tue May 25 13:28:24 2021
; FORMAT={-:-/ absolute / inch / decimal}
; #@! TF.CreationDate,2021-05-25T13:28:24-05:00
; #@! TF.GenerationSoftware,Kicad,Pcbnew,5.1.10
FMAT,2
INCH
T1C0.0118
T2C0.0157
T3C0.0236
T4C0.0315
T5C0.0394
T6C0.0256
T7C0.0591
T8C0.0689
T9C0.0866
T10C0.1201
T11C0.1570
T12C0.1575
%
G90
G05
T1
X0.83Y-1.7509
X0.8453Y-3.4269
X0.8529Y-1.9726
X0.8529Y-2.7207
X0.8753Y-3.3577
X0.8829Y-1.9034
X0.8829Y-2.6514
X0.921Y-3.3088
X0.9427Y-1.8754
X0.9427Y-1.962
X0.9427Y-2.6234
X0.9427Y-2.71
X0.9427Y-3.3715
X0.9427Y-3.4581
X0.9703Y-1.9187
X0.9703Y-2.6667
X0.9703Y-3.4148
X0.9874Y-2.8043
X1.0096Y-1.4492
X1.0096Y-1.6379
X1.0431Y-3.9163
X1.055Y-2.4282
X1.0891Y-1.3701
X1.1088Y-3.3156
X1.1314Y-3.134
X1.1514Y-3.9387
X1.211Y-3.9123
X1.2253Y-0.928
X1.2299Y-2.797
X1.2327Y-3.3104
X1.2774Y-1.9187
X1.2774Y-2.6667
X1.2774Y-3.4148
X1.2786Y-2.4321
X1.2814Y-1.0865
X1.2917Y-3.1801
X1.2999Y-0.8998
X1.3049Y-1.8754
X1.3049Y-1.962
X1.3049Y-2.6234
X1.3049Y-2.71
X1.3049Y-3.3715
X1.3049Y-3.4581
X1.3409Y-1.2934
X1.3995Y-0.9978
X1.4591Y-3.3104
X1.4752Y-2.8017
X1.4787Y-1.6311
X1.5163Y-1.3321
X1.534Y-1.9805
X1.534Y-2.7285
X1.534Y-3.4766
X1.5362Y-1.0159
X1.564Y-1.9113
X1.564Y-2.6593
X1.564Y-3.4073
X1.5761Y-0.8347
X1.584Y-0.9977
X1.5874Y-1.2051
X1.61Y-0.8245
X1.6313Y-0.976
X1.6348Y-0.7969
X1.6667Y-1.2671
X1.6907Y-1.8242
X1.6907Y-1.9108
X1.6907Y-2.5722
X1.6907Y-2.6589
X1.6907Y-3.3203
X1.6907Y-3.4069
X1.7143Y-0.9568
X1.7183Y-1.8675
X1.7183Y-2.6156
X1.7183Y-3.3636
X1.7919Y-2.3883
X1.7972Y-1.0458
X1.8011Y-1.178
X1.8068Y-0.9759
X1.8251Y-1.1589
X1.8296Y-0.8056
X1.8347Y-3.1424
X1.8384Y-3.8504
X1.8453Y-0.9507
X1.8469Y-0.8841
X1.9064Y-3.8524
X1.9181Y-2.3931
X1.9398Y-1.0455
X1.9504Y-3.1262
X2.0165Y-1.1541
X2.0254Y-1.8675
X2.0254Y-2.6156
X2.0254Y-3.3636
X2.053Y-1.8242
X2.053Y-1.9108
X2.053Y-2.5722
X2.053Y-2.6589
X2.053Y-3.3203
X2.053Y-3.4069
X2.1071Y-1.6034
X2.1279Y-0.9881
X2.1995Y-2.6995
X2.282Y-1.3683
X2.282Y-2.1163
X2.282Y-2.8644
X2.312Y-1.2991
X2.312Y-2.0471
X2.312Y-2.7951
X2.338Y-0.9548
X2.4388Y-1.212
X2.4388Y-1.2986
X2.4388Y-1.96
X2.4388Y-2.0467
X2.4388Y-2.7081
X2.4388Y-2.7947
X2.4663Y-1.2553
X2.4663Y-2.0033
X2.4663Y-2.7514
X2.4896Y-2.5173
X2.5122Y-1.0155
X2.5422Y-1.7933
X2.551Y-4.2262
X2.5732Y-0.8903
X2.6287Y-2.5125
X2.6407Y-3.2151
X2.6665Y-1.7865
X2.6713Y-0.8868
X2.6795Y-0.9652
X2.708Y-3.8346
X2.7108Y-4.1935
X2.7624Y-1.0737
X2.7734Y-1.2553
X2.7734Y-2.0033
X2.7734Y-2.7514
X2.7936Y-0.8868
X2.801Y-1.212
X2.801Y-1.2986
X2.801Y-1.96
X2.801Y-2.0467
X2.801Y-2.7081
X2.801Y-2.7947
X2.8813Y-3.8083
X2.9712Y-2.7667
X3.0012Y-2.6975
X3.0301Y-1.2502
X3.0301Y-1.9982
X3.0601Y-1.1809
X3.0601Y-1.929
X3.0709Y-4.1614
X3.1009Y-4.0922
X3.1472Y-0.8243
X3.1589Y-3.5735
X3.1868Y-1.0939
X3.1868Y-1.1805
X3.1868Y-1.8419
X3.1868Y-1.9285
X3.1868Y-2.59
X3.1868Y-2.6766
X3.2117Y-3.8883
X3.2144Y-1.1372
X3.2144Y-1.8852
X3.2144Y-2.6333
X3.2417Y-3.8191
X3.2492Y-3.3461
X3.2786Y-2.4286
X3.3021Y-0.9002
X3.3226Y-1.6621
X3.3388Y-3.4276
X3.3411Y-3.143
X3.3684Y-3.732
X3.3684Y-3.8187
X3.396Y-3.7754
X3.4193Y-1.6621
X3.435Y-3.165
X3.4464Y-2.4214
X3.4631Y-4.2934
X3.5067Y-3.3765
X3.5215Y-1.1372
X3.5215Y-1.8852
X3.5215Y-2.6333
X3.5244Y-0.7978
X3.549Y-1.0939
X3.549Y-1.1805
X3.549Y-1.8419
X3.549Y-1.9285
X3.549Y-2.59
X3.549Y-2.6766
X3.6102Y-4.2906
X3.6689Y-0.8606
X3.7031Y-3.7754
X3.7306Y-3.732
X3.7306Y-3.8187
X3.7781Y-1.6439
X3.7781Y-2.3919
X3.7781Y-3.14
X3.7869Y-0.9786
X3.8081Y-1.5746
X3.8081Y-2.3227
X3.8081Y-3.0707
X3.8112Y-3.6171
X3.8922Y-4.3057
X3.9232Y-1.2438
X3.9348Y-1.4876
X3.9348Y-1.5742
X3.9348Y-2.2356
X3.9348Y-2.3222
X3.9348Y-2.9837
X3.9348Y-3.0703
X3.9597Y-3.9671
X3.9624Y-1.5309
X3.9624Y-2.2789
X3.9624Y-3.027
X3.9897Y-3.8978
X4.0303Y-2.7985
X4.0351Y-2.0551
X4.0405Y-3.5426
X4.1091Y-1.2002
X4.1164Y-3.8108
X4.1164Y-3.8974
X4.144Y-3.8541
X4.1464Y-3.5327
X4.1574Y-2.0383
X4.1687Y-1.0049
X4.1909Y-1.2614
X4.2101Y-2.8033
X4.2347Y-4.3447
X4.2695Y-1.5309
X4.2695Y-2.2789
X4.2695Y-3.027
X4.297Y-1.4876
X4.297Y-1.5742
X4.297Y-2.2356
X4.297Y-2.3222
X4.297Y-2.9837
X4.297Y-3.0703
X4.313Y-1.1218
X4.343Y-4.3419
X4.3492Y-1.271
X4.4511Y-3.8541
X4.4786Y-3.8108
X4.4786Y-3.8974
X4.5098Y-1.2926
X4.5261Y-1.7226
X4.5261Y-2.4707
X4.5261Y-3.2187
X4.5561Y-1.6534
X4.5561Y-2.4014
X4.5561Y-3.1494
X4.5899Y-3.753
X4.6518Y-1.0679
X4.6829Y-1.5663
X4.6829Y-1.653
X4.6829Y-2.3144
X4.6829Y-2.401
X4.6829Y-3.0624
X4.6829Y-3.149
X4.7104Y-1.6096
X4.7104Y-2.3577
X4.7104Y-3.1057
X4.7688Y-1.2926
X4.7952Y-2.1199
X4.8048Y-2.8776
X4.8188Y-1.1764
X4.8253Y-3.6251
X4.8361Y-4.9416
X4.8877Y-1.1144
X4.8979Y-4.308
X4.9127Y-2.127
X4.913Y-4.2227
X4.9326Y-4.2702
X4.946Y-3.632
X4.9487Y-1.2806
X4.9535Y-2.892
X4.956Y-4.7831
X4.9913Y-1.1813
X5.0008Y-4.9679
X5.0175Y-1.6096
X5.0175Y-2.3577
X5.0175Y-3.1057
X5.0283Y-4.9781
X5.0365Y-4.7997
X5.0406Y-4.6368
X5.0451Y-1.5663
X5.0451Y-1.653
X5.0451Y-2.3144
X5.0451Y-2.401
X5.0451Y-3.0624
X5.0451Y-3.149
X5.0789Y-1.1144
X5.1872Y-4.1271
X5.2024Y-1.2693
X5.2311Y-2.6587
X5.232Y-2.3927
X5.235Y-4.3235
X5.2546Y-4.3709
X5.2606Y-2.6854
X5.2634Y-2.9852
X5.2697Y-4.2856
X5.2822Y-4.1648
X5.2884Y-2.5236
X5.3102Y-1.5403
X5.3102Y-2.5669
X5.3319Y-1.5599
X5.3319Y-2.5452
X5.3629Y-4.4718
X5.3842Y-3.4232
X5.3947Y-1.2193
X5.4045Y-4.4088
X5.4062Y-3.1387
X5.4079Y-2.7098
X5.4282Y-3.1202
X5.4283Y-2.735
X5.4499Y-3.1397
X5.45Y-2.7606
X5.4503Y-3.6841
X5.4717Y-2.7898
X5.4717Y-3.1201
X5.4923Y-4.2943
X5.5118Y-3.0669
X5.5283Y-1.2575
X5.5299Y-4.5171
X5.619Y-2.5181
X5.6202Y-3.4232
X5.6437Y-4.444
X5.654Y-4.9135
X5.6587Y-4.3587
X5.6783Y-4.4062
X5.6808Y-3.3045
X5.7748Y-4.9399
X5.8044Y-4.1827
X5.8087Y-4.0906
X5.8303Y-2.6232
X5.9209Y-2.6323
X5.9411Y-4.0744
X5.9807Y-4.4595
X5.9811Y-2.0088
X5.9832Y-4.2726
X5.9867Y-4.0404
X5.9869Y-2.6843
X6.0004Y-4.5069
X6.0154Y-4.4216
X6.0465Y-3.1488
X6.0843Y-2.7803
X6.0971Y-3.2338
X6.1006Y-3.0665
X6.1062Y-4.5667
X6.1478Y-4.5037
X6.1521Y-2.9254
X6.1522Y-3.4223
X6.1783Y-2.0029
X6.1818Y-1.6405
X6.1818Y-1.7532
X6.1914Y-3.145
X6.1937Y-4.399
X6.1969Y-3.285
X6.2019Y-5.0871
X6.2493Y-5.0675
X6.2513Y-2.2615
X6.2648Y-4.7304
X6.2872Y-5.1022
X6.3026Y-4.7651
X6.3454Y-4.0011
X6.3501Y-4.7455
X6.3663Y-3.1541
X6.3689Y-3.2283
X6.3705Y-1.5146
X6.3831Y-4.5933
X6.4017Y-1.5331
X6.4461Y-4.6349
X6.6654Y-4.3795
X6.6996Y-4.3764
X6.7621Y-5.0344
X6.7794Y-4.9662
X6.7827Y-4.4008
T2
X0.8138Y-2.1652
X0.8138Y-2.3052
X0.8138Y-2.9133
X0.8138Y-3.0533
X0.8138Y-3.6613
X0.8138Y-3.8013
X0.8488Y-2.4052
X0.8488Y-3.1533
X0.8488Y-3.9013
X0.8543Y-1.6289
X0.8677Y-1.5466
X0.8688Y-2.1652
X0.8688Y-2.9133
X0.8688Y-3.6613
X0.8976Y-1.3651
X0.9038Y-2.4052
X0.9038Y-3.1533
X0.9038Y-3.9013
X0.9348Y-2.3715
X0.9348Y-3.1195
X0.9348Y-3.8675
X0.9789Y-3.228
X1.3128Y-2.3715
X1.3128Y-3.1195
X1.3128Y-3.8675
X1.3422Y-1.8507
X1.3438Y-2.4052
X1.3438Y-3.1533
X1.3438Y-3.9013
X1.3484Y-3.3468
X1.349Y-3.2513
X1.376Y-2.7606
X1.3788Y-2.1652
X1.3788Y-2.9133
X1.3788Y-3.6613
X1.3961Y-1.2049
X1.3988Y-2.4052
X1.3988Y-3.1533
X1.3988Y-3.9013
X1.4338Y-2.1652
X1.4338Y-2.3052
X1.4338Y-2.9133
X1.4338Y-3.0533
X1.4338Y-3.6613
X1.4338Y-3.8013
X1.4646Y-1.2934
X1.5619Y-2.1141
X1.5619Y-2.2541
X1.5619Y-2.8621
X1.5619Y-3.0021
X1.5619Y-3.6101
X1.5619Y-3.7501
X1.5969Y-2.3541
X1.5969Y-3.1021
X1.5969Y-3.8501
X1.6169Y-2.1141
X1.6169Y-2.8621
X1.6169Y-3.6101
X1.6446Y-1.0264
X1.6519Y-2.3541
X1.6519Y-3.1021
X1.6519Y-3.8501
X1.6829Y-2.3203
X1.6829Y-3.0683
X1.6829Y-3.8163
X2.0608Y-2.3203
X2.0608Y-3.0683
X2.0608Y-3.8163
X2.0919Y-2.3541
X2.0919Y-3.1021
X2.0919Y-3.8501
X2.1269Y-2.1141
X2.1269Y-2.8621
X2.1269Y-3.6101
X2.1469Y-2.3541
X2.1469Y-3.1021
X2.1469Y-3.8501
X2.1819Y-2.1141
X2.1819Y-2.2541
X2.1819Y-2.8621
X2.1819Y-3.0021
X2.1819Y-3.6101
X2.1819Y-3.7501
X2.1835Y-3.1471
X2.2442Y-2.5042
X2.3099Y-1.5019
X2.3099Y-1.6419
X2.3099Y-2.2499
X2.3099Y-2.3899
X2.3099Y-2.9979
X2.3099Y-3.1379
X2.3449Y-1.7419
X2.3449Y-2.4899
X2.3449Y-3.2379
X2.3532Y-2.734
X2.3649Y-1.5019
X2.3649Y-2.2499
X2.3649Y-2.9979
X2.3917Y-0.8734
X2.3999Y-1.7419
X2.3999Y-2.4899
X2.3999Y-3.2379
X2.4309Y-1.7081
X2.4309Y-2.4561
X2.4309Y-3.2041
X2.5866Y-4.2254
X2.8089Y-1.7081
X2.8089Y-2.4561
X2.8089Y-3.2041
X2.8399Y-1.7419
X2.8399Y-2.4899
X2.8399Y-3.2379
X2.8749Y-1.5019
X2.8749Y-2.2499
X2.8749Y-2.9979
X2.8949Y-1.7419
X2.8949Y-2.4899
X2.8949Y-3.2379
X2.9118Y-0.8088
X2.9299Y-1.5019
X2.9299Y-1.6419
X2.9299Y-2.2499
X2.9299Y-2.3899
X2.9299Y-2.9979
X2.9299Y-3.1379
X3.0579Y-1.3837
X3.0579Y-1.5237
X3.0579Y-2.1318
X3.0579Y-2.2718
X3.0579Y-2.8798
X3.0579Y-3.0198
X3.0929Y-1.6237
X3.0929Y-2.3718
X3.0929Y-3.1198
X3.1129Y-1.3837
X3.1129Y-2.1318
X3.1129Y-2.8798
X3.1479Y-1.6237
X3.1479Y-2.3718
X3.1479Y-3.1198
X3.1789Y-1.59
X3.1789Y-2.338
X3.1789Y-3.086
X3.2395Y-4.0219
X3.2395Y-4.1619
X3.2745Y-4.2619
X3.2945Y-4.0219
X3.3141Y-3.3762
X3.3295Y-4.2619
X3.3605Y-4.2281
X3.4098Y-0.8234
X3.5569Y-1.59
X3.5569Y-2.338
X3.5569Y-3.086
X3.5879Y-1.6237
X3.5879Y-2.3718
X3.5879Y-3.1198
X3.6229Y-1.3837
X3.6229Y-2.1318
X3.6229Y-2.8798
X3.6429Y-1.6237
X3.6429Y-2.3718
X3.6429Y-3.1198
X3.6779Y-1.3837
X3.6779Y-1.5237
X3.6779Y-2.1318
X3.6779Y-2.2718
X3.6779Y-2.8798
X3.6779Y-3.0198
X3.7385Y-4.2281
X3.7695Y-4.2619
X3.8045Y-4.0219
X3.8059Y-1.7774
X3.8059Y-1.9174
X3.8059Y-2.5255
X3.8059Y-2.6655
X3.8059Y-3.2735
X3.8059Y-3.4135
X3.8245Y-4.2619
X3.8409Y-2.0174
X3.8409Y-2.7655
X3.8409Y-3.5135
X3.8595Y-4.0219
X3.8595Y-4.1619
X3.8609Y-1.7774
X3.8609Y-2.5255
X3.8609Y-3.2735
X3.8858Y-0.9612
X3.8959Y-2.0174
X3.8959Y-2.7655
X3.8959Y-3.5135
X3.927Y-1.9837
X3.927Y-2.7317
X3.927Y-3.4797
X3.9875Y-4.1006
X3.9875Y-4.2406
X4.0225Y-4.3406
X4.0425Y-4.1006
X4.0775Y-4.3406
X4.1086Y-4.3069
X4.3049Y-1.9837
X4.3049Y-2.7317
X4.3049Y-3.4797
X4.3359Y-2.0174
X4.3359Y-2.7655
X4.3359Y-3.5135
X4.3709Y-1.7774
X4.3709Y-2.5255
X4.3709Y-3.2735
X4.3909Y-2.0174
X4.3909Y-2.7655
X4.3909Y-3.5135
X4.4087Y-1.0348
X4.4259Y-1.7774
X4.4259Y-1.9174
X4.4259Y-2.5255
X4.4259Y-2.6655
X4.4259Y-3.2735
X4.4259Y-3.4135
X4.4865Y-4.3069
X4.5175Y-4.3406
X4.5525Y-4.1006
X4.554Y-1.8562
X4.554Y-1.9962
X4.554Y-2.6042
X4.554Y-2.7442
X4.554Y-3.3522
X4.554Y-3.4922
X4.5725Y-4.3406
X4.589Y-2.0962
X4.589Y-2.8442
X4.589Y-3.5922
X4.6075Y-4.1006
X4.6075Y-4.2406
X4.609Y-1.8562
X4.609Y-2.6042
X4.609Y-3.3522
X4.644Y-2.0962
X4.644Y-2.8442
X4.644Y-3.5922
X4.675Y-2.0624
X4.675Y-2.8104
X4.675Y-3.5585
X4.7073Y-4.6232
X4.7244Y-4.7278
X4.7316Y-4.4853
X4.7786Y-4.7373
X4.7858Y-4.4949
X4.8047Y-4.9226
X4.815Y-4.7094
X4.8729Y-4.2694
X4.9138Y-1.0946
X5.053Y-2.0624
X5.053Y-2.8104
X5.053Y-3.5585
X5.084Y-2.0962
X5.084Y-2.8442
X5.084Y-3.5922
X5.119Y-1.8562
X5.119Y-2.6042
X5.119Y-3.3522
X5.139Y-2.0962
X5.139Y-2.8442
X5.139Y-3.5922
X5.174Y-1.8562
X5.174Y-1.9962
X5.174Y-2.6042
X5.174Y-2.7442
X5.174Y-3.3522
X5.174Y-3.4922
X5.1872Y-4.7751
X5.2119Y-4.8137
X5.2288Y-1.2584
X5.2661Y-4.8233
X5.288Y-4.5834
X5.3179Y-4.7309
X5.3422Y-4.593
X5.3661Y-2.7299
X5.3815Y-3.0941
X5.4062Y-3.6855
X5.428Y-3.6657
X5.4475Y-4.7551
X5.4646Y-4.8596
X5.4718Y-4.6172
X5.5187Y-4.8692
X5.5259Y-4.6268
X5.5552Y-4.8413
X5.6518Y-3.3657
X5.8281Y-2.4669
X5.9274Y-4.9069
X5.9497Y-1.9431
X5.9521Y-4.9456
X6.0062Y-4.9551
X6.0113Y-4.0906
X6.0118Y-1.9967
X6.0282Y-4.7153
X6.0581Y-4.8627
X6.0824Y-4.7249
X6.4654Y-4.5114
X6.4655Y-5.267
X6.475Y-5.2128
X6.5636Y-4.7105
X6.5731Y-4.6564
X6.6034Y-5.2913
X6.6193Y-4.4323
X6.6896Y-5.1836
X6.7079Y-5.2742
X6.711Y-4.6807
X6.7175Y-5.22
X6.7552Y-4.8114
X6.7939Y-4.7867
X6.8034Y-4.7325
X6.8114Y-4.4626
T3
X1.4997Y-1.232
X1.4997Y-0.9914
X1.7144Y-1.2364
T4
X6.0783Y-2.5993
X6.2142Y-2.7351
T5
X2.3075Y-4.0694
X2.3075Y-4.1679
X2.3075Y-4.2663
X2.8783Y-4.0694
X2.8783Y-4.2663
X5.6172Y-1.4583
X5.7162Y-1.4444
X5.7487Y-2.394
X5.8153Y-1.4305
X5.8477Y-2.3801
X5.9143Y-1.4166
X5.9468Y-2.3662
X6.0458Y-2.3522
T6
X1.4639Y-0.8629
X1.6892Y-0.8313
X6.6335Y-4.261
X6.8576Y-4.3006
T8
X0.9238Y-2.1352
X0.9238Y-2.8833
X0.9238Y-3.6313
X1.3238Y-2.1352
X1.3238Y-2.8833
X1.3238Y-3.6313
X1.6719Y-2.0841
X1.6719Y-2.8321
X1.6719Y-3.5801
X2.0719Y-2.0841
X2.0719Y-2.8321
X2.0719Y-3.5801
X2.4199Y-1.4719
X2.4199Y-2.2199
X2.4199Y-2.9679
X2.8199Y-1.4719
X2.8199Y-2.2199
X2.8199Y-2.9679
X3.1679Y-1.3537
X3.1679Y-2.1018
X3.1679Y-2.8498
X3.3495Y-3.9919
X3.5679Y-1.3537
X3.5679Y-2.1018
X3.5679Y-2.8498
X3.7495Y-3.9919
X3.9159Y-1.7474
X3.9159Y-2.4955
X3.9159Y-3.2435
X4.0975Y-4.0706
X4.3159Y-1.7474
X4.3159Y-2.4955
X4.3159Y-3.2435
X4.4975Y-4.0706
X4.664Y-1.8262
X4.664Y-2.5742
X4.664Y-3.3222
X4.8452Y-4.4749
X5.064Y-1.8262
X5.064Y-2.5742
X5.064Y-3.3222
X5.2391Y-4.5443
X5.5853Y-4.6068
X5.9792Y-4.6762
X6.455Y-5.1534
X6.5245Y-4.7595
T9
X1.5142Y-2.4618
X1.535Y-3.2083
X2.2551Y-3.385
X3.0228Y-1.7421
X3.0236Y-2.4768
X3.665Y-3.5177
X4.4969Y-2.1665
X4.5063Y-2.9228
X5.1642Y-3.974
X5.7972Y-5.1441
T10
X5.2322Y-5.0188
X5.3949Y-4.0961
X5.4295Y-5.055
X5.5922Y-4.1323
T11
X1.1238Y-2.1352
X1.1238Y-2.8833
X1.1238Y-3.6313
X1.8719Y-2.0841
X1.8719Y-2.8321
X1.8719Y-3.5801
X2.6199Y-1.4719
X2.6199Y-2.2199
X2.6199Y-2.9679
X3.3679Y-1.3537
X3.3679Y-2.1018
X3.3679Y-2.8498
X3.5495Y-3.9919
X4.1159Y-1.7474
X4.1159Y-2.4955
X4.1159Y-3.2435
X4.2975Y-4.0706
X4.864Y-1.8262
X4.864Y-2.5742
X4.864Y-3.3222
X5.0421Y-4.5096
X5.7823Y-4.6415
X6.4898Y-4.9565
T12
X4.6413Y-4.9147
X4.804Y-3.9919
X6.0204Y-5.1592
X6.1831Y-4.2364
T3
G00X1.3898Y-0.7402
M15
G01X1.3865Y-0.7168
M16
G05
G00X1.4141Y-0.9129
M15
G01X1.408Y-0.87
M16
G05
G00X1.7266Y-0.6928
M15
G01X1.7233Y-0.6694
M16
G05
G00X1.7509Y-0.8655
M15
G01X1.7449Y-0.8227
M16
G05
G00X6.5707Y-4.2931
M15
G01X6.5782Y-4.2505
M16
G05
G00X6.601Y-4.1214
M15
G01X6.6051Y-4.0981
M16
G05
G00X6.9057Y-4.3522
M15
G01X6.9132Y-4.3096
M16
G05
G00X6.936Y-4.1805
M15
G01X6.9401Y-4.1572
M16
G05
T7
G00X2.5772Y-3.9474
M15
G01X2.6283Y-3.9474
M16
G05
G00X2.5772Y-4.3883
M15
G01X2.6283Y-4.3883
M16
G05
T0
M30
