%TF.GenerationSoftware,KiCad,Pcbnew,5.1.9*%
%TF.CreationDate,2021-05-10T09:53:42-05:00*%
%TF.ProjectId,nightwing,6e696768-7477-4696-9e67-2e6b69636164,rev?*%
%TF.SameCoordinates,Original*%
%TF.FileFunction,Other,Fab,Top*%
%FSLAX46Y46*%
G04 Gerber Fmt 4.6, Leading zero omitted, Abs format (unit mm)*
G04 Created by KiCad (PCBNEW 5.1.9) date 2021-05-10 09:53:42*
%MOMM*%
%LPD*%
G01*
G04 APERTURE LIST*
%ADD10C,0.100000*%
%ADD11C,0.160000*%
%ADD12C,0.120000*%
%ADD13C,0.150000*%
%ADD14C,0.152400*%
%ADD15C,0.080000*%
%ADD16C,0.110000*%
G04 APERTURE END LIST*
D10*
%TO.C,J2*%
X160993572Y-96754839D02*
X162261204Y-89565742D01*
X171065386Y-91118157D02*
X162261204Y-89565742D01*
X169797754Y-98307254D02*
X171065386Y-91118157D01*
%TO.C,J1*%
X41640000Y-13810000D02*
X32700000Y-13810000D01*
X41640000Y-13810000D02*
X41640000Y-6510000D01*
X41640000Y-6510000D02*
X32700000Y-6510000D01*
X32700000Y-13810000D02*
X32700000Y-6510000D01*
%TO.C,RESET_SW1*%
X149500000Y-54000000D02*
X149500000Y-60000000D01*
X149500000Y-60000000D02*
X155500000Y-60000000D01*
X155500000Y-60000000D02*
X155500000Y-54000000D01*
X155500000Y-54000000D02*
X149500000Y-54000000D01*
X154250714Y-57000000D02*
G75*
G03*
X154250714Y-57000000I-1750714J0D01*
G01*
%TO.C,Boot1*%
X132740000Y-54010000D02*
X132740000Y-60010000D01*
X132740000Y-60010000D02*
X138740000Y-60010000D01*
X138740000Y-60010000D02*
X138740000Y-54010000D01*
X138740000Y-54010000D02*
X132740000Y-54010000D01*
X137490714Y-57010000D02*
G75*
G03*
X137490714Y-57010000I-1750714J0D01*
G01*
D11*
%TO.C,D24*%
X152433282Y-103087394D02*
X151947068Y-105844855D01*
X151947068Y-105844855D02*
X150174414Y-105532288D01*
X150174414Y-105532288D02*
X150660628Y-102774827D01*
X150660628Y-102774827D02*
X152433282Y-103087394D01*
X151434084Y-103571235D02*
X151364625Y-103965158D01*
X151364625Y-103965158D02*
X151906269Y-104060665D01*
X151364625Y-103965158D02*
X150822981Y-103869652D01*
X151364625Y-103965158D02*
X151654359Y-104625502D01*
X151654359Y-104625502D02*
X150866513Y-104486584D01*
X150866513Y-104486584D02*
X151364625Y-103965158D01*
X151260436Y-104556043D02*
X151173612Y-105048447D01*
%TO.C,D23*%
X133553282Y-100677394D02*
X133067068Y-103434855D01*
X133067068Y-103434855D02*
X131294414Y-103122288D01*
X131294414Y-103122288D02*
X131780628Y-100364827D01*
X131780628Y-100364827D02*
X133553282Y-100677394D01*
X132554084Y-101161235D02*
X132484625Y-101555158D01*
X132484625Y-101555158D02*
X133026269Y-101650665D01*
X132484625Y-101555158D02*
X131942981Y-101459652D01*
X132484625Y-101555158D02*
X132774359Y-102215502D01*
X132774359Y-102215502D02*
X131986513Y-102076584D01*
X131986513Y-102076584D02*
X132484625Y-101555158D01*
X132380436Y-102146043D02*
X132293612Y-102638447D01*
%TO.C,D22*%
X157397394Y-105176718D02*
X160154855Y-105662932D01*
X160154855Y-105662932D02*
X159842288Y-107435586D01*
X159842288Y-107435586D02*
X157084827Y-106949372D01*
X157084827Y-106949372D02*
X157397394Y-105176718D01*
X157881235Y-106175916D02*
X158275158Y-106245375D01*
X158275158Y-106245375D02*
X158370665Y-105703731D01*
X158275158Y-106245375D02*
X158179652Y-106787019D01*
X158275158Y-106245375D02*
X158935502Y-105955641D01*
X158935502Y-105955641D02*
X158796584Y-106743487D01*
X158796584Y-106743487D02*
X158275158Y-106245375D01*
X158866043Y-106349564D02*
X159358447Y-106436388D01*
%TO.C,D21*%
X97537500Y-87600000D02*
X97537500Y-90400000D01*
X97537500Y-90400000D02*
X95737500Y-90400000D01*
X95737500Y-90400000D02*
X95737500Y-87600000D01*
X95737500Y-87600000D02*
X97537500Y-87600000D01*
X96637500Y-88250000D02*
X96637500Y-88650000D01*
X96637500Y-88650000D02*
X97187500Y-88650000D01*
X96637500Y-88650000D02*
X96087500Y-88650000D01*
X96637500Y-88650000D02*
X97037500Y-89250000D01*
X97037500Y-89250000D02*
X96237500Y-89250000D01*
X96237500Y-89250000D02*
X96637500Y-88650000D01*
X96637500Y-89250000D02*
X96637500Y-89750000D01*
%TO.C,D20*%
X78537500Y-85600000D02*
X78537500Y-88400000D01*
X78537500Y-88400000D02*
X76737500Y-88400000D01*
X76737500Y-88400000D02*
X76737500Y-85600000D01*
X76737500Y-85600000D02*
X78537500Y-85600000D01*
X77637500Y-86250000D02*
X77637500Y-86650000D01*
X77637500Y-86650000D02*
X78187500Y-86650000D01*
X77637500Y-86650000D02*
X77087500Y-86650000D01*
X77637500Y-86650000D02*
X78037500Y-87250000D01*
X78037500Y-87250000D02*
X77237500Y-87250000D01*
X77237500Y-87250000D02*
X77637500Y-86650000D01*
X77637500Y-87250000D02*
X77637500Y-87750000D01*
%TO.C,D19*%
X74940000Y-95930000D02*
X72140000Y-95930000D01*
X72140000Y-95930000D02*
X72140000Y-94130000D01*
X72140000Y-94130000D02*
X74940000Y-94130000D01*
X74940000Y-94130000D02*
X74940000Y-95930000D01*
X74290000Y-95030000D02*
X73890000Y-95030000D01*
X73890000Y-95030000D02*
X73890000Y-95580000D01*
X73890000Y-95030000D02*
X73890000Y-94480000D01*
X73890000Y-95030000D02*
X73290000Y-95430000D01*
X73290000Y-95430000D02*
X73290000Y-94630000D01*
X73290000Y-94630000D02*
X73890000Y-95030000D01*
X73290000Y-95030000D02*
X72790000Y-95030000D01*
%TO.C,D18*%
X111925000Y-68591000D02*
X111925000Y-71391000D01*
X111925000Y-71391000D02*
X110125000Y-71391000D01*
X110125000Y-71391000D02*
X110125000Y-68591000D01*
X110125000Y-68591000D02*
X111925000Y-68591000D01*
X111025000Y-69241000D02*
X111025000Y-69641000D01*
X111025000Y-69641000D02*
X111575000Y-69641000D01*
X111025000Y-69641000D02*
X110475000Y-69641000D01*
X111025000Y-69641000D02*
X111425000Y-70241000D01*
X111425000Y-70241000D02*
X110625000Y-70241000D01*
X110625000Y-70241000D02*
X111025000Y-69641000D01*
X111025000Y-70241000D02*
X111025000Y-70741000D01*
%TO.C,D17*%
X92925000Y-66591000D02*
X92925000Y-69391000D01*
X92925000Y-69391000D02*
X91125000Y-69391000D01*
X91125000Y-69391000D02*
X91125000Y-66591000D01*
X91125000Y-66591000D02*
X92925000Y-66591000D01*
X92025000Y-67241000D02*
X92025000Y-67641000D01*
X92025000Y-67641000D02*
X92575000Y-67641000D01*
X92025000Y-67641000D02*
X91475000Y-67641000D01*
X92025000Y-67641000D02*
X92425000Y-68241000D01*
X92425000Y-68241000D02*
X91625000Y-68241000D01*
X91625000Y-68241000D02*
X92025000Y-67641000D01*
X92025000Y-68241000D02*
X92025000Y-68741000D01*
%TO.C,D16*%
X73925000Y-56591000D02*
X73925000Y-59391000D01*
X73925000Y-59391000D02*
X72125000Y-59391000D01*
X72125000Y-59391000D02*
X72125000Y-56591000D01*
X72125000Y-56591000D02*
X73925000Y-56591000D01*
X73025000Y-57241000D02*
X73025000Y-57641000D01*
X73025000Y-57641000D02*
X73575000Y-57641000D01*
X73025000Y-57641000D02*
X72475000Y-57641000D01*
X73025000Y-57641000D02*
X73425000Y-58241000D01*
X73425000Y-58241000D02*
X72625000Y-58241000D01*
X72625000Y-58241000D02*
X73025000Y-57641000D01*
X73025000Y-58241000D02*
X73025000Y-58741000D01*
%TO.C,D15*%
X54925000Y-59591000D02*
X54925000Y-62391000D01*
X54925000Y-62391000D02*
X53125000Y-62391000D01*
X53125000Y-62391000D02*
X53125000Y-59591000D01*
X53125000Y-59591000D02*
X54925000Y-59591000D01*
X54025000Y-60241000D02*
X54025000Y-60641000D01*
X54025000Y-60641000D02*
X54575000Y-60641000D01*
X54025000Y-60641000D02*
X53475000Y-60641000D01*
X54025000Y-60641000D02*
X54425000Y-61241000D01*
X54425000Y-61241000D02*
X53625000Y-61241000D01*
X53625000Y-61241000D02*
X54025000Y-60641000D01*
X54025000Y-61241000D02*
X54025000Y-61741000D01*
%TO.C,D14*%
X35925000Y-75141000D02*
X35925000Y-77941000D01*
X35925000Y-77941000D02*
X34125000Y-77941000D01*
X34125000Y-77941000D02*
X34125000Y-75141000D01*
X34125000Y-75141000D02*
X35925000Y-75141000D01*
X35025000Y-75791000D02*
X35025000Y-76191000D01*
X35025000Y-76191000D02*
X35575000Y-76191000D01*
X35025000Y-76191000D02*
X34475000Y-76191000D01*
X35025000Y-76191000D02*
X35425000Y-76791000D01*
X35425000Y-76791000D02*
X34625000Y-76791000D01*
X34625000Y-76791000D02*
X35025000Y-76191000D01*
X35025000Y-76791000D02*
X35025000Y-77291000D01*
%TO.C,D13*%
X31510000Y-74820000D02*
X31510000Y-77620000D01*
X31510000Y-77620000D02*
X29710000Y-77620000D01*
X29710000Y-77620000D02*
X29710000Y-74820000D01*
X29710000Y-74820000D02*
X31510000Y-74820000D01*
X30610000Y-75470000D02*
X30610000Y-75870000D01*
X30610000Y-75870000D02*
X31160000Y-75870000D01*
X30610000Y-75870000D02*
X30060000Y-75870000D01*
X30610000Y-75870000D02*
X31010000Y-76470000D01*
X31010000Y-76470000D02*
X30210000Y-76470000D01*
X30210000Y-76470000D02*
X30610000Y-75870000D01*
X30610000Y-76470000D02*
X30610000Y-76970000D01*
%TO.C,D12*%
X111925000Y-49591000D02*
X111925000Y-52391000D01*
X111925000Y-52391000D02*
X110125000Y-52391000D01*
X110125000Y-52391000D02*
X110125000Y-49591000D01*
X110125000Y-49591000D02*
X111925000Y-49591000D01*
X111025000Y-50241000D02*
X111025000Y-50641000D01*
X111025000Y-50641000D02*
X111575000Y-50641000D01*
X111025000Y-50641000D02*
X110475000Y-50641000D01*
X111025000Y-50641000D02*
X111425000Y-51241000D01*
X111425000Y-51241000D02*
X110625000Y-51241000D01*
X110625000Y-51241000D02*
X111025000Y-50641000D01*
X111025000Y-51241000D02*
X111025000Y-51741000D01*
%TO.C,D11*%
X92925000Y-47591000D02*
X92925000Y-50391000D01*
X92925000Y-50391000D02*
X91125000Y-50391000D01*
X91125000Y-50391000D02*
X91125000Y-47591000D01*
X91125000Y-47591000D02*
X92925000Y-47591000D01*
X92025000Y-48241000D02*
X92025000Y-48641000D01*
X92025000Y-48641000D02*
X92575000Y-48641000D01*
X92025000Y-48641000D02*
X91475000Y-48641000D01*
X92025000Y-48641000D02*
X92425000Y-49241000D01*
X92425000Y-49241000D02*
X91625000Y-49241000D01*
X91625000Y-49241000D02*
X92025000Y-48641000D01*
X92025000Y-49241000D02*
X92025000Y-49741000D01*
%TO.C,D10*%
X73925000Y-37591000D02*
X73925000Y-40391000D01*
X73925000Y-40391000D02*
X72125000Y-40391000D01*
X72125000Y-40391000D02*
X72125000Y-37591000D01*
X72125000Y-37591000D02*
X73925000Y-37591000D01*
X73025000Y-38241000D02*
X73025000Y-38641000D01*
X73025000Y-38641000D02*
X73575000Y-38641000D01*
X73025000Y-38641000D02*
X72475000Y-38641000D01*
X73025000Y-38641000D02*
X73425000Y-39241000D01*
X73425000Y-39241000D02*
X72625000Y-39241000D01*
X72625000Y-39241000D02*
X73025000Y-38641000D01*
X73025000Y-39241000D02*
X73025000Y-39741000D01*
%TO.C,D9*%
X54925000Y-40591000D02*
X54925000Y-43391000D01*
X54925000Y-43391000D02*
X53125000Y-43391000D01*
X53125000Y-43391000D02*
X53125000Y-40591000D01*
X53125000Y-40591000D02*
X54925000Y-40591000D01*
X54025000Y-41241000D02*
X54025000Y-41641000D01*
X54025000Y-41641000D02*
X54575000Y-41641000D01*
X54025000Y-41641000D02*
X53475000Y-41641000D01*
X54025000Y-41641000D02*
X54425000Y-42241000D01*
X54425000Y-42241000D02*
X53625000Y-42241000D01*
X53625000Y-42241000D02*
X54025000Y-41641000D01*
X54025000Y-42241000D02*
X54025000Y-42741000D01*
%TO.C,D8*%
X35925000Y-56141000D02*
X35925000Y-58941000D01*
X35925000Y-58941000D02*
X34125000Y-58941000D01*
X34125000Y-58941000D02*
X34125000Y-56141000D01*
X34125000Y-56141000D02*
X35925000Y-56141000D01*
X35025000Y-56791000D02*
X35025000Y-57191000D01*
X35025000Y-57191000D02*
X35575000Y-57191000D01*
X35025000Y-57191000D02*
X34475000Y-57191000D01*
X35025000Y-57191000D02*
X35425000Y-57791000D01*
X35425000Y-57791000D02*
X34625000Y-57791000D01*
X34625000Y-57791000D02*
X35025000Y-57191000D01*
X35025000Y-57791000D02*
X35025000Y-58291000D01*
%TO.C,D7*%
X18625000Y-55941000D02*
X18625000Y-58741000D01*
X18625000Y-58741000D02*
X16825000Y-58741000D01*
X16825000Y-58741000D02*
X16825000Y-55941000D01*
X16825000Y-55941000D02*
X18625000Y-55941000D01*
X17725000Y-56591000D02*
X17725000Y-56991000D01*
X17725000Y-56991000D02*
X18275000Y-56991000D01*
X17725000Y-56991000D02*
X17175000Y-56991000D01*
X17725000Y-56991000D02*
X18125000Y-57591000D01*
X18125000Y-57591000D02*
X17325000Y-57591000D01*
X17325000Y-57591000D02*
X17725000Y-56991000D01*
X17725000Y-57591000D02*
X17725000Y-58091000D01*
%TO.C,D6*%
X111925000Y-30591000D02*
X111925000Y-33391000D01*
X111925000Y-33391000D02*
X110125000Y-33391000D01*
X110125000Y-33391000D02*
X110125000Y-30591000D01*
X110125000Y-30591000D02*
X111925000Y-30591000D01*
X111025000Y-31241000D02*
X111025000Y-31641000D01*
X111025000Y-31641000D02*
X111575000Y-31641000D01*
X111025000Y-31641000D02*
X110475000Y-31641000D01*
X111025000Y-31641000D02*
X111425000Y-32241000D01*
X111425000Y-32241000D02*
X110625000Y-32241000D01*
X110625000Y-32241000D02*
X111025000Y-31641000D01*
X111025000Y-32241000D02*
X111025000Y-32741000D01*
%TO.C,D5*%
X92925000Y-28591000D02*
X92925000Y-31391000D01*
X92925000Y-31391000D02*
X91125000Y-31391000D01*
X91125000Y-31391000D02*
X91125000Y-28591000D01*
X91125000Y-28591000D02*
X92925000Y-28591000D01*
X92025000Y-29241000D02*
X92025000Y-29641000D01*
X92025000Y-29641000D02*
X92575000Y-29641000D01*
X92025000Y-29641000D02*
X91475000Y-29641000D01*
X92025000Y-29641000D02*
X92425000Y-30241000D01*
X92425000Y-30241000D02*
X91625000Y-30241000D01*
X91625000Y-30241000D02*
X92025000Y-29641000D01*
X92025000Y-30241000D02*
X92025000Y-30741000D01*
%TO.C,D4*%
X73925000Y-18591000D02*
X73925000Y-21391000D01*
X73925000Y-21391000D02*
X72125000Y-21391000D01*
X72125000Y-21391000D02*
X72125000Y-18591000D01*
X72125000Y-18591000D02*
X73925000Y-18591000D01*
X73025000Y-19241000D02*
X73025000Y-19641000D01*
X73025000Y-19641000D02*
X73575000Y-19641000D01*
X73025000Y-19641000D02*
X72475000Y-19641000D01*
X73025000Y-19641000D02*
X73425000Y-20241000D01*
X73425000Y-20241000D02*
X72625000Y-20241000D01*
X72625000Y-20241000D02*
X73025000Y-19641000D01*
X73025000Y-20241000D02*
X73025000Y-20741000D01*
%TO.C,D3*%
X54925000Y-21591000D02*
X54925000Y-24391000D01*
X54925000Y-24391000D02*
X53125000Y-24391000D01*
X53125000Y-24391000D02*
X53125000Y-21591000D01*
X53125000Y-21591000D02*
X54925000Y-21591000D01*
X54025000Y-22241000D02*
X54025000Y-22641000D01*
X54025000Y-22641000D02*
X54575000Y-22641000D01*
X54025000Y-22641000D02*
X53475000Y-22641000D01*
X54025000Y-22641000D02*
X54425000Y-23241000D01*
X54425000Y-23241000D02*
X53625000Y-23241000D01*
X53625000Y-23241000D02*
X54025000Y-22641000D01*
X54025000Y-23241000D02*
X54025000Y-23741000D01*
%TO.C,D2*%
X35925000Y-37141000D02*
X35925000Y-39941000D01*
X35925000Y-39941000D02*
X34125000Y-39941000D01*
X34125000Y-39941000D02*
X34125000Y-37141000D01*
X34125000Y-37141000D02*
X35925000Y-37141000D01*
X35025000Y-37791000D02*
X35025000Y-38191000D01*
X35025000Y-38191000D02*
X35575000Y-38191000D01*
X35025000Y-38191000D02*
X34475000Y-38191000D01*
X35025000Y-38191000D02*
X35425000Y-38791000D01*
X35425000Y-38791000D02*
X34625000Y-38791000D01*
X34625000Y-38791000D02*
X35025000Y-38191000D01*
X35025000Y-38791000D02*
X35025000Y-39291000D01*
%TO.C,D1*%
X18625000Y-36941000D02*
X18625000Y-39741000D01*
X18625000Y-39741000D02*
X16825000Y-39741000D01*
X16825000Y-39741000D02*
X16825000Y-36941000D01*
X16825000Y-36941000D02*
X18625000Y-36941000D01*
X17725000Y-37591000D02*
X17725000Y-37991000D01*
X17725000Y-37991000D02*
X18275000Y-37991000D01*
X17725000Y-37991000D02*
X17175000Y-37991000D01*
X17725000Y-37991000D02*
X18125000Y-38591000D01*
X18125000Y-38591000D02*
X17325000Y-38591000D01*
X17325000Y-38591000D02*
X17725000Y-37991000D01*
X17725000Y-38591000D02*
X17725000Y-39091000D01*
D10*
%TO.C,D25*%
X22890000Y-27040000D02*
X20090000Y-27040000D01*
X20090000Y-27040000D02*
X20090000Y-25240000D01*
X20090000Y-25240000D02*
X22890000Y-25240000D01*
X22890000Y-25240000D02*
X22890000Y-27040000D01*
X22240000Y-26140000D02*
X21840000Y-26140000D01*
X21840000Y-26140000D02*
X21840000Y-26690000D01*
X21840000Y-26140000D02*
X21840000Y-25590000D01*
X21840000Y-26140000D02*
X21240000Y-26540000D01*
X21240000Y-26540000D02*
X21240000Y-25740000D01*
X21240000Y-25740000D02*
X21840000Y-26140000D01*
X21240000Y-26140000D02*
X20740000Y-26140000D01*
%TO.C,16mhz1*%
X147638576Y-76363378D02*
X152164059Y-71837894D01*
X150926622Y-79651424D02*
X155452106Y-75125941D01*
X148009807Y-76451766D02*
X152252447Y-72209126D01*
X150838234Y-79280193D02*
X155080874Y-75037553D01*
X150926622Y-79651424D02*
G75*
G02*
X147638576Y-76363378I-1644023J1644023D01*
G01*
X155452105Y-75125942D02*
G75*
G03*
X152164059Y-71837894I-1644023J1644024D01*
G01*
X150838233Y-79280194D02*
G75*
G02*
X148009807Y-76451766I-1414213J1414214D01*
G01*
X155080875Y-75037552D02*
G75*
G03*
X152252447Y-72209126I-1414214J1414213D01*
G01*
%TO.C,C5*%
X131920000Y-76875000D02*
X133920000Y-76875000D01*
X131920000Y-78125000D02*
X131920000Y-76875000D01*
X133920000Y-78125000D02*
X131920000Y-78125000D01*
X133920000Y-76875000D02*
X133920000Y-78125000D01*
%TO.C,D27*%
X142320000Y-22263810D02*
X142320000Y-24596190D01*
X145320000Y-23430000D02*
G75*
G03*
X145320000Y-23430000I-1500000J0D01*
G01*
X142319445Y-24595476D02*
G75*
G03*
X142320000Y-22263810I1500555J1165476D01*
G01*
%TO.C,R6*%
X138717277Y-31718401D02*
X138717277Y-33718401D01*
X137467277Y-31718401D02*
X138717277Y-31718401D01*
X137467277Y-33718401D02*
X137467277Y-31718401D01*
X138717277Y-33718401D02*
X137467277Y-33718401D01*
%TO.C,RED1*%
X152320000Y-23430000D02*
G75*
G03*
X152320000Y-23430000I-1500000J0D01*
G01*
X149320000Y-22263810D02*
X149320000Y-24596190D01*
X149319445Y-24595476D02*
G75*
G03*
X149320000Y-22263810I1500555J1165476D01*
G01*
%TO.C,D26*%
X137320000Y-23430000D02*
G75*
G03*
X137320000Y-23430000I-1500000J0D01*
G01*
X134320000Y-22263810D02*
X134320000Y-24596190D01*
X134319445Y-24595476D02*
G75*
G03*
X134320000Y-22263810I1500555J1165476D01*
G01*
%TO.C,R8*%
X135436062Y-33693411D02*
X134186062Y-33693411D01*
X134186062Y-33693411D02*
X134186062Y-31693411D01*
X134186062Y-31693411D02*
X135436062Y-31693411D01*
X135436062Y-31693411D02*
X135436062Y-33693411D01*
D12*
%TO.C,SW19*%
X64790000Y-94970000D02*
G75*
G03*
X64790000Y-94970000I-3000000J0D01*
G01*
X56790000Y-89170000D02*
X67790000Y-89170000D01*
X67790000Y-89170000D02*
X67790000Y-100770000D01*
X67790000Y-100770000D02*
X55790000Y-100770000D01*
X55790000Y-100770000D02*
X55790000Y-90270000D01*
X55790000Y-90270000D02*
X56790000Y-89170000D01*
X61790000Y-91970000D02*
X61790000Y-97970000D01*
X58790000Y-94970000D02*
X64790000Y-94970000D01*
D10*
%TO.C,R4*%
X38985000Y-20070000D02*
X38985000Y-22070000D01*
X37735000Y-20070000D02*
X38985000Y-20070000D01*
X37735000Y-22070000D02*
X37735000Y-20070000D01*
X38985000Y-22070000D02*
X37735000Y-22070000D01*
%TO.C,R3*%
X27905959Y-18412324D02*
X26655959Y-18412324D01*
X26655959Y-18412324D02*
X26655959Y-16412324D01*
X26655959Y-16412324D02*
X27905959Y-16412324D01*
X27905959Y-16412324D02*
X27905959Y-18412324D01*
%TO.C,U2*%
X37500000Y-24250000D02*
X38250000Y-23500000D01*
X37500000Y-26500000D02*
X37500000Y-24250000D01*
X40500000Y-26500000D02*
X37500000Y-26500000D01*
X40500000Y-23500000D02*
X40500000Y-26500000D01*
X38250000Y-23500000D02*
X40500000Y-23500000D01*
%TO.C,R7*%
X131910000Y-74375000D02*
X133910000Y-74375000D01*
X131910000Y-75625000D02*
X131910000Y-74375000D01*
X133910000Y-75625000D02*
X131910000Y-75625000D01*
X133910000Y-74375000D02*
X133910000Y-75625000D01*
%TO.C,R5*%
X131910000Y-71875000D02*
X133910000Y-71875000D01*
X131910000Y-73125000D02*
X131910000Y-71875000D01*
X133910000Y-73125000D02*
X131910000Y-73125000D01*
X133910000Y-71875000D02*
X133910000Y-73125000D01*
%TO.C,R2*%
X153273366Y-62124344D02*
X151273366Y-62124344D01*
X153273366Y-60874344D02*
X153273366Y-62124344D01*
X151273366Y-60874344D02*
X153273366Y-60874344D01*
X151273366Y-62124344D02*
X151273366Y-60874344D01*
%TO.C,R1*%
X152779627Y-30780911D02*
X152779627Y-32780911D01*
X151529627Y-30780911D02*
X152779627Y-30780911D01*
X151529627Y-32780911D02*
X151529627Y-30780911D01*
X152779627Y-32780911D02*
X151529627Y-32780911D01*
%TO.C,F1*%
X31660000Y-25700000D02*
X28460000Y-25700000D01*
X31660000Y-24100000D02*
X31660000Y-25700000D01*
X28460000Y-24100000D02*
X31660000Y-24100000D01*
X28460000Y-25700000D02*
X28460000Y-24100000D01*
%TO.C,C19*%
X31600000Y-30800000D02*
X31600000Y-29200000D01*
X28400000Y-30800000D02*
X31600000Y-30800000D01*
X28400000Y-29600000D02*
X28400000Y-30800000D01*
X28800000Y-29200000D02*
X28400000Y-29600000D01*
X31600000Y-29200000D02*
X28800000Y-29200000D01*
%TO.C,C8*%
X49000000Y-25625000D02*
X47000000Y-25625000D01*
X49000000Y-24375000D02*
X49000000Y-25625000D01*
X47000000Y-24375000D02*
X49000000Y-24375000D01*
X47000000Y-25625000D02*
X47000000Y-24375000D01*
%TO.C,C7*%
X49000000Y-30625000D02*
X47000000Y-30625000D01*
X49000000Y-29375000D02*
X49000000Y-30625000D01*
X47000000Y-29375000D02*
X49000000Y-29375000D01*
X47000000Y-30625000D02*
X47000000Y-29375000D01*
%TO.C,C6*%
X40600000Y-30800000D02*
X40600000Y-29200000D01*
X37400000Y-30800000D02*
X40600000Y-30800000D01*
X37400000Y-29600000D02*
X37400000Y-30800000D01*
X37800000Y-29200000D02*
X37400000Y-29600000D01*
X40600000Y-29200000D02*
X37800000Y-29200000D01*
%TO.C,C3*%
X21531031Y-31280923D02*
X19531031Y-31280923D01*
X21531031Y-30030923D02*
X21531031Y-31280923D01*
X19531031Y-30030923D02*
X21531031Y-30030923D01*
X19531031Y-31280923D02*
X19531031Y-30030923D01*
%TO.C,C1*%
X133910000Y-70625000D02*
X131910000Y-70625000D01*
X133910000Y-69375000D02*
X133910000Y-70625000D01*
X131910000Y-69375000D02*
X133910000Y-69375000D01*
X131910000Y-70625000D02*
X131910000Y-69375000D01*
%TD*%
%TO.C,J1*%
D13*
X27479523Y-4512380D02*
X27479523Y-5321904D01*
X27527142Y-5417142D01*
X27574761Y-5464761D01*
X27670000Y-5512380D01*
X27860476Y-5512380D01*
X27955714Y-5464761D01*
X28003333Y-5417142D01*
X28050952Y-5321904D01*
X28050952Y-4512380D01*
X28479523Y-5464761D02*
X28622380Y-5512380D01*
X28860476Y-5512380D01*
X28955714Y-5464761D01*
X29003333Y-5417142D01*
X29050952Y-5321904D01*
X29050952Y-5226666D01*
X29003333Y-5131428D01*
X28955714Y-5083809D01*
X28860476Y-5036190D01*
X28670000Y-4988571D01*
X28574761Y-4940952D01*
X28527142Y-4893333D01*
X28479523Y-4798095D01*
X28479523Y-4702857D01*
X28527142Y-4607619D01*
X28574761Y-4560000D01*
X28670000Y-4512380D01*
X28908095Y-4512380D01*
X29050952Y-4560000D01*
X29812857Y-4988571D02*
X29955714Y-5036190D01*
X30003333Y-5083809D01*
X30050952Y-5179047D01*
X30050952Y-5321904D01*
X30003333Y-5417142D01*
X29955714Y-5464761D01*
X29860476Y-5512380D01*
X29479523Y-5512380D01*
X29479523Y-4512380D01*
X29812857Y-4512380D01*
X29908095Y-4560000D01*
X29955714Y-4607619D01*
X30003333Y-4702857D01*
X30003333Y-4798095D01*
X29955714Y-4893333D01*
X29908095Y-4940952D01*
X29812857Y-4988571D01*
X29479523Y-4988571D01*
X30241428Y-5607619D02*
X31003333Y-5607619D01*
X31812857Y-5417142D02*
X31765238Y-5464761D01*
X31622380Y-5512380D01*
X31527142Y-5512380D01*
X31384285Y-5464761D01*
X31289047Y-5369523D01*
X31241428Y-5274285D01*
X31193809Y-5083809D01*
X31193809Y-4940952D01*
X31241428Y-4750476D01*
X31289047Y-4655238D01*
X31384285Y-4560000D01*
X31527142Y-4512380D01*
X31622380Y-4512380D01*
X31765238Y-4560000D01*
X31812857Y-4607619D01*
X32003333Y-5607619D02*
X32765238Y-5607619D01*
X33574761Y-5512380D02*
X33241428Y-5036190D01*
X33003333Y-5512380D02*
X33003333Y-4512380D01*
X33384285Y-4512380D01*
X33479523Y-4560000D01*
X33527142Y-4607619D01*
X33574761Y-4702857D01*
X33574761Y-4845714D01*
X33527142Y-4940952D01*
X33479523Y-4988571D01*
X33384285Y-5036190D01*
X33003333Y-5036190D01*
X34384285Y-5464761D02*
X34289047Y-5512380D01*
X34098571Y-5512380D01*
X34003333Y-5464761D01*
X33955714Y-5369523D01*
X33955714Y-4988571D01*
X34003333Y-4893333D01*
X34098571Y-4845714D01*
X34289047Y-4845714D01*
X34384285Y-4893333D01*
X34431904Y-4988571D01*
X34431904Y-5083809D01*
X33955714Y-5179047D01*
X35289047Y-5464761D02*
X35193809Y-5512380D01*
X35003333Y-5512380D01*
X34908095Y-5464761D01*
X34860476Y-5417142D01*
X34812857Y-5321904D01*
X34812857Y-5036190D01*
X34860476Y-4940952D01*
X34908095Y-4893333D01*
X35003333Y-4845714D01*
X35193809Y-4845714D01*
X35289047Y-4893333D01*
X36098571Y-5464761D02*
X36003333Y-5512380D01*
X35812857Y-5512380D01*
X35717619Y-5464761D01*
X35670000Y-5369523D01*
X35670000Y-4988571D01*
X35717619Y-4893333D01*
X35812857Y-4845714D01*
X36003333Y-4845714D01*
X36098571Y-4893333D01*
X36146190Y-4988571D01*
X36146190Y-5083809D01*
X35670000Y-5179047D01*
X36574761Y-4845714D02*
X36574761Y-5845714D01*
X36574761Y-4893333D02*
X36670000Y-4845714D01*
X36860476Y-4845714D01*
X36955714Y-4893333D01*
X37003333Y-4940952D01*
X37050952Y-5036190D01*
X37050952Y-5321904D01*
X37003333Y-5417142D01*
X36955714Y-5464761D01*
X36860476Y-5512380D01*
X36670000Y-5512380D01*
X36574761Y-5464761D01*
X37336666Y-4845714D02*
X37717619Y-4845714D01*
X37479523Y-4512380D02*
X37479523Y-5369523D01*
X37527142Y-5464761D01*
X37622380Y-5512380D01*
X37717619Y-5512380D01*
X38479523Y-5512380D02*
X38479523Y-4988571D01*
X38431904Y-4893333D01*
X38336666Y-4845714D01*
X38146190Y-4845714D01*
X38050952Y-4893333D01*
X38479523Y-5464761D02*
X38384285Y-5512380D01*
X38146190Y-5512380D01*
X38050952Y-5464761D01*
X38003333Y-5369523D01*
X38003333Y-5274285D01*
X38050952Y-5179047D01*
X38146190Y-5131428D01*
X38384285Y-5131428D01*
X38479523Y-5083809D01*
X39384285Y-5464761D02*
X39289047Y-5512380D01*
X39098571Y-5512380D01*
X39003333Y-5464761D01*
X38955714Y-5417142D01*
X38908095Y-5321904D01*
X38908095Y-5036190D01*
X38955714Y-4940952D01*
X39003333Y-4893333D01*
X39098571Y-4845714D01*
X39289047Y-4845714D01*
X39384285Y-4893333D01*
X39955714Y-5512380D02*
X39860476Y-5464761D01*
X39812857Y-5369523D01*
X39812857Y-4512380D01*
X40717619Y-5464761D02*
X40622380Y-5512380D01*
X40431904Y-5512380D01*
X40336666Y-5464761D01*
X40289047Y-5369523D01*
X40289047Y-4988571D01*
X40336666Y-4893333D01*
X40431904Y-4845714D01*
X40622380Y-4845714D01*
X40717619Y-4893333D01*
X40765238Y-4988571D01*
X40765238Y-5083809D01*
X40289047Y-5179047D01*
X40955714Y-5607619D02*
X41717619Y-5607619D01*
X41955714Y-4512380D02*
X41955714Y-5321904D01*
X42003333Y-5417142D01*
X42050952Y-5464761D01*
X42146190Y-5512380D01*
X42336666Y-5512380D01*
X42431904Y-5464761D01*
X42479523Y-5417142D01*
X42527142Y-5321904D01*
X42527142Y-4512380D01*
X42955714Y-5464761D02*
X43098571Y-5512380D01*
X43336666Y-5512380D01*
X43431904Y-5464761D01*
X43479523Y-5417142D01*
X43527142Y-5321904D01*
X43527142Y-5226666D01*
X43479523Y-5131428D01*
X43431904Y-5083809D01*
X43336666Y-5036190D01*
X43146190Y-4988571D01*
X43050952Y-4940952D01*
X43003333Y-4893333D01*
X42955714Y-4798095D01*
X42955714Y-4702857D01*
X43003333Y-4607619D01*
X43050952Y-4560000D01*
X43146190Y-4512380D01*
X43384285Y-4512380D01*
X43527142Y-4560000D01*
X44289047Y-4988571D02*
X44431904Y-5036190D01*
X44479523Y-5083809D01*
X44527142Y-5179047D01*
X44527142Y-5321904D01*
X44479523Y-5417142D01*
X44431904Y-5464761D01*
X44336666Y-5512380D01*
X43955714Y-5512380D01*
X43955714Y-4512380D01*
X44289047Y-4512380D01*
X44384285Y-4560000D01*
X44431904Y-4607619D01*
X44479523Y-4702857D01*
X44479523Y-4798095D01*
X44431904Y-4893333D01*
X44384285Y-4940952D01*
X44289047Y-4988571D01*
X43955714Y-4988571D01*
X44908095Y-4607619D02*
X44955714Y-4560000D01*
X45050952Y-4512380D01*
X45289047Y-4512380D01*
X45384285Y-4560000D01*
X45431904Y-4607619D01*
X45479523Y-4702857D01*
X45479523Y-4798095D01*
X45431904Y-4940952D01*
X44860476Y-5512380D01*
X45479523Y-5512380D01*
X45908095Y-5417142D02*
X45955714Y-5464761D01*
X45908095Y-5512380D01*
X45860476Y-5464761D01*
X45908095Y-5417142D01*
X45908095Y-5512380D01*
X46574761Y-4512380D02*
X46669999Y-4512380D01*
X46765238Y-4560000D01*
X46812857Y-4607619D01*
X46860476Y-4702857D01*
X46908095Y-4893333D01*
X46908095Y-5131428D01*
X46860476Y-5321904D01*
X46812857Y-5417142D01*
X46765238Y-5464761D01*
X46669999Y-5512380D01*
X46574761Y-5512380D01*
X46479523Y-5464761D01*
X46431904Y-5417142D01*
X46384285Y-5321904D01*
X46336666Y-5131428D01*
X46336666Y-4893333D01*
X46384285Y-4702857D01*
X46431904Y-4607619D01*
X46479523Y-4560000D01*
X46574761Y-4512380D01*
X36836666Y-9612380D02*
X36836666Y-10326666D01*
X36789047Y-10469523D01*
X36693809Y-10564761D01*
X36550952Y-10612380D01*
X36455714Y-10612380D01*
X37836666Y-10612380D02*
X37265238Y-10612380D01*
X37550952Y-10612380D02*
X37550952Y-9612380D01*
X37455714Y-9755238D01*
X37360476Y-9850476D01*
X37265238Y-9898095D01*
%TO.C,J3*%
D14*
X142629504Y-39904895D02*
X142784323Y-39904895D01*
X142861733Y-39943600D01*
X142939142Y-40021009D01*
X142977847Y-40175828D01*
X142977847Y-40446761D01*
X142939142Y-40601580D01*
X142861733Y-40678990D01*
X142784323Y-40717695D01*
X142629504Y-40717695D01*
X142552095Y-40678990D01*
X142474685Y-40601580D01*
X142435980Y-40446761D01*
X142435980Y-40175828D01*
X142474685Y-40021009D01*
X142552095Y-39943600D01*
X142629504Y-39904895D01*
X143713238Y-40717695D02*
X143326190Y-40717695D01*
X143326190Y-39904895D01*
X143984171Y-40291942D02*
X144255104Y-40291942D01*
X144371219Y-40717695D02*
X143984171Y-40717695D01*
X143984171Y-39904895D01*
X144371219Y-39904895D01*
X144719561Y-40717695D02*
X144719561Y-39904895D01*
X144913085Y-39904895D01*
X145029200Y-39943600D01*
X145106609Y-40021009D01*
X145145314Y-40098419D01*
X145184019Y-40253238D01*
X145184019Y-40369352D01*
X145145314Y-40524171D01*
X145106609Y-40601580D01*
X145029200Y-40678990D01*
X144913085Y-40717695D01*
X144719561Y-40717695D01*
%TO.C,H8*%
D13*
X114538941Y-86995241D02*
X114538941Y-85995241D01*
X114538941Y-86471432D02*
X115110370Y-86471432D01*
X115110370Y-86995241D02*
X115110370Y-85995241D01*
X115729417Y-86995241D02*
X115634179Y-86947622D01*
X115586560Y-86900003D01*
X115538941Y-86804765D01*
X115538941Y-86519051D01*
X115586560Y-86423813D01*
X115634179Y-86376194D01*
X115729417Y-86328575D01*
X115872274Y-86328575D01*
X115967513Y-86376194D01*
X116015132Y-86423813D01*
X116062751Y-86519051D01*
X116062751Y-86804765D01*
X116015132Y-86900003D01*
X115967513Y-86947622D01*
X115872274Y-86995241D01*
X115729417Y-86995241D01*
X116634179Y-86995241D02*
X116538941Y-86947622D01*
X116491322Y-86852384D01*
X116491322Y-85995241D01*
X117396084Y-86947622D02*
X117300846Y-86995241D01*
X117110370Y-86995241D01*
X117015132Y-86947622D01*
X116967513Y-86852384D01*
X116967513Y-86471432D01*
X117015132Y-86376194D01*
X117110370Y-86328575D01*
X117300846Y-86328575D01*
X117396084Y-86376194D01*
X117443703Y-86471432D01*
X117443703Y-86566670D01*
X116967513Y-86661908D01*
X114923108Y-84047741D02*
X114923108Y-83047741D01*
X114923108Y-83523932D02*
X115494536Y-83523932D01*
X115494536Y-84047741D02*
X115494536Y-83047741D01*
X116113584Y-83476313D02*
X116018346Y-83428694D01*
X115970727Y-83381075D01*
X115923108Y-83285837D01*
X115923108Y-83238218D01*
X115970727Y-83142980D01*
X116018346Y-83095361D01*
X116113584Y-83047741D01*
X116304060Y-83047741D01*
X116399298Y-83095361D01*
X116446917Y-83142980D01*
X116494536Y-83238218D01*
X116494536Y-83285837D01*
X116446917Y-83381075D01*
X116399298Y-83428694D01*
X116304060Y-83476313D01*
X116113584Y-83476313D01*
X116018346Y-83523932D01*
X115970727Y-83571551D01*
X115923108Y-83666789D01*
X115923108Y-83857265D01*
X115970727Y-83952503D01*
X116018346Y-84000122D01*
X116113584Y-84047741D01*
X116304060Y-84047741D01*
X116399298Y-84000122D01*
X116446917Y-83952503D01*
X116494536Y-83857265D01*
X116494536Y-83666789D01*
X116446917Y-83571551D01*
X116399298Y-83523932D01*
X116304060Y-83476313D01*
%TO.C,BZ1*%
X62819660Y-80368759D02*
X62962517Y-80416378D01*
X63010136Y-80463997D01*
X63057755Y-80559235D01*
X63057755Y-80702092D01*
X63010136Y-80797330D01*
X62962517Y-80844949D01*
X62867279Y-80892568D01*
X62486327Y-80892568D01*
X62486327Y-79892568D01*
X62819660Y-79892568D01*
X62914898Y-79940188D01*
X62962517Y-79987807D01*
X63010136Y-80083045D01*
X63010136Y-80178283D01*
X62962517Y-80273521D01*
X62914898Y-80321140D01*
X62819660Y-80368759D01*
X62486327Y-80368759D01*
X63914898Y-80225902D02*
X63914898Y-80892568D01*
X63486327Y-80225902D02*
X63486327Y-80749711D01*
X63533946Y-80844949D01*
X63629184Y-80892568D01*
X63772041Y-80892568D01*
X63867279Y-80844949D01*
X63914898Y-80797330D01*
X64295851Y-80225902D02*
X64819660Y-80225902D01*
X64295851Y-80892568D01*
X64819660Y-80892568D01*
X65105374Y-80225902D02*
X65629184Y-80225902D01*
X65105374Y-80892568D01*
X65629184Y-80892568D01*
X66391089Y-80844949D02*
X66295851Y-80892568D01*
X66105374Y-80892568D01*
X66010136Y-80844949D01*
X65962517Y-80749711D01*
X65962517Y-80368759D01*
X66010136Y-80273521D01*
X66105374Y-80225902D01*
X66295851Y-80225902D01*
X66391089Y-80273521D01*
X66438708Y-80368759D01*
X66438708Y-80463997D01*
X65962517Y-80559235D01*
X66867279Y-80892568D02*
X66867279Y-80225902D01*
X66867279Y-80416378D02*
X66914898Y-80321140D01*
X66962517Y-80273521D01*
X67057755Y-80225902D01*
X67152993Y-80225902D01*
%TO.C,RESET_SW1*%
X149142857Y-53402380D02*
X148809523Y-52926190D01*
X148571428Y-53402380D02*
X148571428Y-52402380D01*
X148952380Y-52402380D01*
X149047619Y-52450000D01*
X149095238Y-52497619D01*
X149142857Y-52592857D01*
X149142857Y-52735714D01*
X149095238Y-52830952D01*
X149047619Y-52878571D01*
X148952380Y-52926190D01*
X148571428Y-52926190D01*
X149571428Y-52878571D02*
X149904761Y-52878571D01*
X150047619Y-53402380D02*
X149571428Y-53402380D01*
X149571428Y-52402380D01*
X150047619Y-52402380D01*
X150428571Y-53354761D02*
X150571428Y-53402380D01*
X150809523Y-53402380D01*
X150904761Y-53354761D01*
X150952380Y-53307142D01*
X151000000Y-53211904D01*
X151000000Y-53116666D01*
X150952380Y-53021428D01*
X150904761Y-52973809D01*
X150809523Y-52926190D01*
X150619047Y-52878571D01*
X150523809Y-52830952D01*
X150476190Y-52783333D01*
X150428571Y-52688095D01*
X150428571Y-52592857D01*
X150476190Y-52497619D01*
X150523809Y-52450000D01*
X150619047Y-52402380D01*
X150857142Y-52402380D01*
X151000000Y-52450000D01*
X151428571Y-52878571D02*
X151761904Y-52878571D01*
X151904761Y-53402380D02*
X151428571Y-53402380D01*
X151428571Y-52402380D01*
X151904761Y-52402380D01*
X152190476Y-52402380D02*
X152761904Y-52402380D01*
X152476190Y-53402380D02*
X152476190Y-52402380D01*
X152857142Y-53497619D02*
X153619047Y-53497619D01*
X153809523Y-53354761D02*
X153952380Y-53402380D01*
X154190476Y-53402380D01*
X154285714Y-53354761D01*
X154333333Y-53307142D01*
X154380952Y-53211904D01*
X154380952Y-53116666D01*
X154333333Y-53021428D01*
X154285714Y-52973809D01*
X154190476Y-52926190D01*
X154000000Y-52878571D01*
X153904761Y-52830952D01*
X153857142Y-52783333D01*
X153809523Y-52688095D01*
X153809523Y-52592857D01*
X153857142Y-52497619D01*
X153904761Y-52450000D01*
X154000000Y-52402380D01*
X154238095Y-52402380D01*
X154380952Y-52450000D01*
X154714285Y-52402380D02*
X154952380Y-53402380D01*
X155142857Y-52688095D01*
X155333333Y-53402380D01*
X155571428Y-52402380D01*
X156476190Y-53402380D02*
X155904761Y-53402380D01*
X156190476Y-53402380D02*
X156190476Y-52402380D01*
X156095238Y-52545238D01*
X156000000Y-52640476D01*
X155904761Y-52688095D01*
%TO.C,Boot1*%
X134144761Y-52888571D02*
X134287619Y-52936190D01*
X134335238Y-52983809D01*
X134382857Y-53079047D01*
X134382857Y-53221904D01*
X134335238Y-53317142D01*
X134287619Y-53364761D01*
X134192380Y-53412380D01*
X133811428Y-53412380D01*
X133811428Y-52412380D01*
X134144761Y-52412380D01*
X134240000Y-52460000D01*
X134287619Y-52507619D01*
X134335238Y-52602857D01*
X134335238Y-52698095D01*
X134287619Y-52793333D01*
X134240000Y-52840952D01*
X134144761Y-52888571D01*
X133811428Y-52888571D01*
X134954285Y-53412380D02*
X134859047Y-53364761D01*
X134811428Y-53317142D01*
X134763809Y-53221904D01*
X134763809Y-52936190D01*
X134811428Y-52840952D01*
X134859047Y-52793333D01*
X134954285Y-52745714D01*
X135097142Y-52745714D01*
X135192380Y-52793333D01*
X135240000Y-52840952D01*
X135287619Y-52936190D01*
X135287619Y-53221904D01*
X135240000Y-53317142D01*
X135192380Y-53364761D01*
X135097142Y-53412380D01*
X134954285Y-53412380D01*
X135859047Y-53412380D02*
X135763809Y-53364761D01*
X135716190Y-53317142D01*
X135668571Y-53221904D01*
X135668571Y-52936190D01*
X135716190Y-52840952D01*
X135763809Y-52793333D01*
X135859047Y-52745714D01*
X136001904Y-52745714D01*
X136097142Y-52793333D01*
X136144761Y-52840952D01*
X136192380Y-52936190D01*
X136192380Y-53221904D01*
X136144761Y-53317142D01*
X136097142Y-53364761D01*
X136001904Y-53412380D01*
X135859047Y-53412380D01*
X136478095Y-52745714D02*
X136859047Y-52745714D01*
X136620952Y-52412380D02*
X136620952Y-53269523D01*
X136668571Y-53364761D01*
X136763809Y-53412380D01*
X136859047Y-53412380D01*
X137716190Y-53412380D02*
X137144761Y-53412380D01*
X137430476Y-53412380D02*
X137430476Y-52412380D01*
X137335238Y-52555238D01*
X137240000Y-52650476D01*
X137144761Y-52698095D01*
%TO.C,JP1*%
D14*
X42658933Y-23126155D02*
X42658933Y-23706726D01*
X42620228Y-23822840D01*
X42542819Y-23900250D01*
X42426704Y-23938955D01*
X42349295Y-23938955D01*
X43394323Y-23397088D02*
X43394323Y-23938955D01*
X43045980Y-23397088D02*
X43045980Y-23822840D01*
X43084685Y-23900250D01*
X43162095Y-23938955D01*
X43278209Y-23938955D01*
X43355619Y-23900250D01*
X43394323Y-23861545D01*
X43781371Y-23938955D02*
X43781371Y-23397088D01*
X43781371Y-23474498D02*
X43820076Y-23435793D01*
X43897485Y-23397088D01*
X44013600Y-23397088D01*
X44091009Y-23435793D01*
X44129714Y-23513202D01*
X44129714Y-23938955D01*
X44129714Y-23513202D02*
X44168419Y-23435793D01*
X44245828Y-23397088D01*
X44361942Y-23397088D01*
X44439352Y-23435793D01*
X44478057Y-23513202D01*
X44478057Y-23938955D01*
X44865104Y-23397088D02*
X44865104Y-24209888D01*
X44865104Y-23435793D02*
X44942514Y-23397088D01*
X45097333Y-23397088D01*
X45174742Y-23435793D01*
X45213447Y-23474498D01*
X45252152Y-23551907D01*
X45252152Y-23784136D01*
X45213447Y-23861545D01*
X45174742Y-23900250D01*
X45097333Y-23938955D01*
X44942514Y-23938955D01*
X44865104Y-23900250D01*
X45910133Y-23900250D02*
X45832723Y-23938955D01*
X45677904Y-23938955D01*
X45600495Y-23900250D01*
X45561790Y-23822840D01*
X45561790Y-23513202D01*
X45600495Y-23435793D01*
X45677904Y-23397088D01*
X45832723Y-23397088D01*
X45910133Y-23435793D01*
X45948838Y-23513202D01*
X45948838Y-23590612D01*
X45561790Y-23668021D01*
X46297180Y-23938955D02*
X46297180Y-23397088D01*
X46297180Y-23551907D02*
X46335885Y-23474498D01*
X46374590Y-23435793D01*
X46452000Y-23397088D01*
X46529409Y-23397088D01*
%TO.C,D24*%
X149560895Y-104218671D02*
X148760443Y-104077530D01*
X148794048Y-103886946D01*
X148852328Y-103779317D01*
X148942004Y-103716526D01*
X149024958Y-103691851D01*
X149184146Y-103680618D01*
X149298496Y-103700781D01*
X149444242Y-103765782D01*
X149513755Y-103817341D01*
X149576546Y-103907016D01*
X149594500Y-104028087D01*
X149560895Y-104218671D01*
X153365706Y-105675599D02*
X152565254Y-105534458D01*
X152598859Y-105343874D01*
X152657139Y-105236245D01*
X152746814Y-105173454D01*
X152829769Y-105148779D01*
X152988957Y-105137546D01*
X153103307Y-105157709D01*
X153249053Y-105222710D01*
X153318566Y-105274269D01*
X153381357Y-105363944D01*
X153399311Y-105485015D01*
X153365706Y-105675599D01*
X152775908Y-104785565D02*
X152744512Y-104740727D01*
X152719837Y-104657773D01*
X152753442Y-104467189D01*
X152805001Y-104397677D01*
X152849839Y-104366281D01*
X152932793Y-104341606D01*
X153009027Y-104355048D01*
X153116656Y-104413328D01*
X153493405Y-104951381D01*
X153580778Y-104455863D01*
X153168122Y-103675668D02*
X153701756Y-103769762D01*
X152829583Y-103812483D02*
X153367729Y-104103882D01*
X153455102Y-103608364D01*
%TO.C,D23*%
X130680895Y-101808671D02*
X129880443Y-101667530D01*
X129914048Y-101476946D01*
X129972328Y-101369317D01*
X130062004Y-101306526D01*
X130144958Y-101281851D01*
X130304146Y-101270618D01*
X130418496Y-101290781D01*
X130564242Y-101355782D01*
X130633755Y-101407341D01*
X130696546Y-101497016D01*
X130714500Y-101618087D01*
X130680895Y-101808671D01*
X134485706Y-103265599D02*
X133685254Y-103124458D01*
X133718859Y-102933874D01*
X133777139Y-102826245D01*
X133866814Y-102763454D01*
X133949769Y-102738779D01*
X134108957Y-102727546D01*
X134223307Y-102747709D01*
X134369053Y-102812710D01*
X134438566Y-102864269D01*
X134501357Y-102953944D01*
X134519311Y-103075015D01*
X134485706Y-103265599D01*
X133895908Y-102375565D02*
X133864512Y-102330727D01*
X133839837Y-102247773D01*
X133873442Y-102057189D01*
X133925001Y-101987677D01*
X133969839Y-101956281D01*
X134052793Y-101931606D01*
X134129027Y-101945048D01*
X134236656Y-102003328D01*
X134613405Y-102541381D01*
X134700778Y-102045863D01*
X133947374Y-101637905D02*
X134034747Y-101142387D01*
X134292634Y-101462972D01*
X134312797Y-101348622D01*
X134364355Y-101279110D01*
X134409193Y-101247714D01*
X134492148Y-101223039D01*
X134682731Y-101256644D01*
X134752244Y-101308203D01*
X134783640Y-101353041D01*
X134808314Y-101435995D01*
X134767988Y-101664696D01*
X134716430Y-101734208D01*
X134671592Y-101765604D01*
%TO.C,D22*%
X157981688Y-108699391D02*
X158122829Y-107898939D01*
X158313413Y-107932544D01*
X158421042Y-107990824D01*
X158483833Y-108080500D01*
X158508508Y-108163454D01*
X158519741Y-108322642D01*
X158499578Y-108436992D01*
X158434577Y-108582738D01*
X158383018Y-108652251D01*
X158293343Y-108715042D01*
X158172272Y-108732996D01*
X157981688Y-108699391D01*
X157913946Y-104625740D02*
X158055087Y-103825288D01*
X158245671Y-103858893D01*
X158353300Y-103917173D01*
X158416091Y-104006848D01*
X158440766Y-104089803D01*
X158451999Y-104248991D01*
X158431836Y-104363341D01*
X158366835Y-104509087D01*
X158315276Y-104578600D01*
X158225601Y-104641391D01*
X158104530Y-104659345D01*
X157913946Y-104625740D01*
X158803980Y-104035942D02*
X158848818Y-104004546D01*
X158931772Y-103979871D01*
X159122356Y-104013476D01*
X159191868Y-104065035D01*
X159223264Y-104109873D01*
X159247939Y-104192827D01*
X159234497Y-104269061D01*
X159176217Y-104376690D01*
X158638164Y-104753439D01*
X159133682Y-104840812D01*
X159566315Y-104170362D02*
X159611153Y-104138966D01*
X159694107Y-104114292D01*
X159884691Y-104147897D01*
X159954203Y-104199455D01*
X159985599Y-104244293D01*
X160010274Y-104327248D01*
X159996832Y-104403481D01*
X159938552Y-104511110D01*
X159400499Y-104887859D01*
X159896017Y-104975232D01*
%TO.C,D21*%
X94905195Y-89212876D02*
X94092395Y-89212876D01*
X94092395Y-89019352D01*
X94131100Y-88903238D01*
X94208509Y-88825828D01*
X94285919Y-88787123D01*
X94440738Y-88748419D01*
X94556852Y-88748419D01*
X94711671Y-88787123D01*
X94789080Y-88825828D01*
X94866490Y-88903238D01*
X94905195Y-89019352D01*
X94905195Y-89212876D01*
X98905195Y-89986971D02*
X98092395Y-89986971D01*
X98092395Y-89793447D01*
X98131100Y-89677333D01*
X98208509Y-89599923D01*
X98285919Y-89561219D01*
X98440738Y-89522514D01*
X98556852Y-89522514D01*
X98711671Y-89561219D01*
X98789080Y-89599923D01*
X98866490Y-89677333D01*
X98905195Y-89793447D01*
X98905195Y-89986971D01*
X98169804Y-89212876D02*
X98131100Y-89174171D01*
X98092395Y-89096761D01*
X98092395Y-88903238D01*
X98131100Y-88825828D01*
X98169804Y-88787123D01*
X98247214Y-88748419D01*
X98324623Y-88748419D01*
X98440738Y-88787123D01*
X98905195Y-89251580D01*
X98905195Y-88748419D01*
X98905195Y-87974323D02*
X98905195Y-88438780D01*
X98905195Y-88206552D02*
X98092395Y-88206552D01*
X98208509Y-88283961D01*
X98285919Y-88361371D01*
X98324623Y-88438780D01*
%TO.C,D20*%
X75905195Y-87212876D02*
X75092395Y-87212876D01*
X75092395Y-87019352D01*
X75131100Y-86903238D01*
X75208509Y-86825828D01*
X75285919Y-86787123D01*
X75440738Y-86748419D01*
X75556852Y-86748419D01*
X75711671Y-86787123D01*
X75789080Y-86825828D01*
X75866490Y-86903238D01*
X75905195Y-87019352D01*
X75905195Y-87212876D01*
X79905195Y-87986971D02*
X79092395Y-87986971D01*
X79092395Y-87793447D01*
X79131100Y-87677333D01*
X79208509Y-87599923D01*
X79285919Y-87561219D01*
X79440738Y-87522514D01*
X79556852Y-87522514D01*
X79711671Y-87561219D01*
X79789080Y-87599923D01*
X79866490Y-87677333D01*
X79905195Y-87793447D01*
X79905195Y-87986971D01*
X79169804Y-87212876D02*
X79131100Y-87174171D01*
X79092395Y-87096761D01*
X79092395Y-86903238D01*
X79131100Y-86825828D01*
X79169804Y-86787123D01*
X79247214Y-86748419D01*
X79324623Y-86748419D01*
X79440738Y-86787123D01*
X79905195Y-87251580D01*
X79905195Y-86748419D01*
X79092395Y-86245257D02*
X79092395Y-86167847D01*
X79131100Y-86090438D01*
X79169804Y-86051733D01*
X79247214Y-86013028D01*
X79402033Y-85974323D01*
X79595557Y-85974323D01*
X79750376Y-86013028D01*
X79827785Y-86051733D01*
X79866490Y-86090438D01*
X79905195Y-86167847D01*
X79905195Y-86245257D01*
X79866490Y-86322666D01*
X79827785Y-86361371D01*
X79750376Y-86400076D01*
X79595557Y-86438780D01*
X79402033Y-86438780D01*
X79247214Y-86400076D01*
X79169804Y-86361371D01*
X79131100Y-86322666D01*
X79092395Y-86245257D01*
%TO.C,D19*%
X73327123Y-93297695D02*
X73327123Y-92484895D01*
X73520647Y-92484895D01*
X73636761Y-92523600D01*
X73714171Y-92601009D01*
X73752876Y-92678419D01*
X73791580Y-92833238D01*
X73791580Y-92949352D01*
X73752876Y-93104171D01*
X73714171Y-93181580D01*
X73636761Y-93258990D01*
X73520647Y-93297695D01*
X73327123Y-93297695D01*
X72553028Y-97297695D02*
X72553028Y-96484895D01*
X72746552Y-96484895D01*
X72862666Y-96523600D01*
X72940076Y-96601009D01*
X72978780Y-96678419D01*
X73017485Y-96833238D01*
X73017485Y-96949352D01*
X72978780Y-97104171D01*
X72940076Y-97181580D01*
X72862666Y-97258990D01*
X72746552Y-97297695D01*
X72553028Y-97297695D01*
X73791580Y-97297695D02*
X73327123Y-97297695D01*
X73559352Y-97297695D02*
X73559352Y-96484895D01*
X73481942Y-96601009D01*
X73404533Y-96678419D01*
X73327123Y-96717123D01*
X74178628Y-97297695D02*
X74333447Y-97297695D01*
X74410857Y-97258990D01*
X74449561Y-97220285D01*
X74526971Y-97104171D01*
X74565676Y-96949352D01*
X74565676Y-96639714D01*
X74526971Y-96562304D01*
X74488266Y-96523600D01*
X74410857Y-96484895D01*
X74256038Y-96484895D01*
X74178628Y-96523600D01*
X74139923Y-96562304D01*
X74101219Y-96639714D01*
X74101219Y-96833238D01*
X74139923Y-96910647D01*
X74178628Y-96949352D01*
X74256038Y-96988057D01*
X74410857Y-96988057D01*
X74488266Y-96949352D01*
X74526971Y-96910647D01*
X74565676Y-96833238D01*
%TO.C,D18*%
X109292695Y-70203876D02*
X108479895Y-70203876D01*
X108479895Y-70010352D01*
X108518600Y-69894238D01*
X108596009Y-69816828D01*
X108673419Y-69778123D01*
X108828238Y-69739419D01*
X108944352Y-69739419D01*
X109099171Y-69778123D01*
X109176580Y-69816828D01*
X109253990Y-69894238D01*
X109292695Y-70010352D01*
X109292695Y-70203876D01*
X113292695Y-70977971D02*
X112479895Y-70977971D01*
X112479895Y-70784447D01*
X112518600Y-70668333D01*
X112596009Y-70590923D01*
X112673419Y-70552219D01*
X112828238Y-70513514D01*
X112944352Y-70513514D01*
X113099171Y-70552219D01*
X113176580Y-70590923D01*
X113253990Y-70668333D01*
X113292695Y-70784447D01*
X113292695Y-70977971D01*
X113292695Y-69739419D02*
X113292695Y-70203876D01*
X113292695Y-69971647D02*
X112479895Y-69971647D01*
X112596009Y-70049057D01*
X112673419Y-70126466D01*
X112712123Y-70203876D01*
X112828238Y-69274961D02*
X112789533Y-69352371D01*
X112750828Y-69391076D01*
X112673419Y-69429780D01*
X112634714Y-69429780D01*
X112557304Y-69391076D01*
X112518600Y-69352371D01*
X112479895Y-69274961D01*
X112479895Y-69120142D01*
X112518600Y-69042733D01*
X112557304Y-69004028D01*
X112634714Y-68965323D01*
X112673419Y-68965323D01*
X112750828Y-69004028D01*
X112789533Y-69042733D01*
X112828238Y-69120142D01*
X112828238Y-69274961D01*
X112866942Y-69352371D01*
X112905647Y-69391076D01*
X112983057Y-69429780D01*
X113137876Y-69429780D01*
X113215285Y-69391076D01*
X113253990Y-69352371D01*
X113292695Y-69274961D01*
X113292695Y-69120142D01*
X113253990Y-69042733D01*
X113215285Y-69004028D01*
X113137876Y-68965323D01*
X112983057Y-68965323D01*
X112905647Y-69004028D01*
X112866942Y-69042733D01*
X112828238Y-69120142D01*
%TO.C,D17*%
X90292695Y-68203876D02*
X89479895Y-68203876D01*
X89479895Y-68010352D01*
X89518600Y-67894238D01*
X89596009Y-67816828D01*
X89673419Y-67778123D01*
X89828238Y-67739419D01*
X89944352Y-67739419D01*
X90099171Y-67778123D01*
X90176580Y-67816828D01*
X90253990Y-67894238D01*
X90292695Y-68010352D01*
X90292695Y-68203876D01*
X94292695Y-68977971D02*
X93479895Y-68977971D01*
X93479895Y-68784447D01*
X93518600Y-68668333D01*
X93596009Y-68590923D01*
X93673419Y-68552219D01*
X93828238Y-68513514D01*
X93944352Y-68513514D01*
X94099171Y-68552219D01*
X94176580Y-68590923D01*
X94253990Y-68668333D01*
X94292695Y-68784447D01*
X94292695Y-68977971D01*
X94292695Y-67739419D02*
X94292695Y-68203876D01*
X94292695Y-67971647D02*
X93479895Y-67971647D01*
X93596009Y-68049057D01*
X93673419Y-68126466D01*
X93712123Y-68203876D01*
X93479895Y-67468485D02*
X93479895Y-66926619D01*
X94292695Y-67274961D01*
%TO.C,D16*%
X71292695Y-58203876D02*
X70479895Y-58203876D01*
X70479895Y-58010352D01*
X70518600Y-57894238D01*
X70596009Y-57816828D01*
X70673419Y-57778123D01*
X70828238Y-57739419D01*
X70944352Y-57739419D01*
X71099171Y-57778123D01*
X71176580Y-57816828D01*
X71253990Y-57894238D01*
X71292695Y-58010352D01*
X71292695Y-58203876D01*
X75292695Y-58977971D02*
X74479895Y-58977971D01*
X74479895Y-58784447D01*
X74518600Y-58668333D01*
X74596009Y-58590923D01*
X74673419Y-58552219D01*
X74828238Y-58513514D01*
X74944352Y-58513514D01*
X75099171Y-58552219D01*
X75176580Y-58590923D01*
X75253990Y-58668333D01*
X75292695Y-58784447D01*
X75292695Y-58977971D01*
X75292695Y-57739419D02*
X75292695Y-58203876D01*
X75292695Y-57971647D02*
X74479895Y-57971647D01*
X74596009Y-58049057D01*
X74673419Y-58126466D01*
X74712123Y-58203876D01*
X74479895Y-57042733D02*
X74479895Y-57197552D01*
X74518600Y-57274961D01*
X74557304Y-57313666D01*
X74673419Y-57391076D01*
X74828238Y-57429780D01*
X75137876Y-57429780D01*
X75215285Y-57391076D01*
X75253990Y-57352371D01*
X75292695Y-57274961D01*
X75292695Y-57120142D01*
X75253990Y-57042733D01*
X75215285Y-57004028D01*
X75137876Y-56965323D01*
X74944352Y-56965323D01*
X74866942Y-57004028D01*
X74828238Y-57042733D01*
X74789533Y-57120142D01*
X74789533Y-57274961D01*
X74828238Y-57352371D01*
X74866942Y-57391076D01*
X74944352Y-57429780D01*
%TO.C,D15*%
X52292695Y-61203876D02*
X51479895Y-61203876D01*
X51479895Y-61010352D01*
X51518600Y-60894238D01*
X51596009Y-60816828D01*
X51673419Y-60778123D01*
X51828238Y-60739419D01*
X51944352Y-60739419D01*
X52099171Y-60778123D01*
X52176580Y-60816828D01*
X52253990Y-60894238D01*
X52292695Y-61010352D01*
X52292695Y-61203876D01*
X56292695Y-61977971D02*
X55479895Y-61977971D01*
X55479895Y-61784447D01*
X55518600Y-61668333D01*
X55596009Y-61590923D01*
X55673419Y-61552219D01*
X55828238Y-61513514D01*
X55944352Y-61513514D01*
X56099171Y-61552219D01*
X56176580Y-61590923D01*
X56253990Y-61668333D01*
X56292695Y-61784447D01*
X56292695Y-61977971D01*
X56292695Y-60739419D02*
X56292695Y-61203876D01*
X56292695Y-60971647D02*
X55479895Y-60971647D01*
X55596009Y-61049057D01*
X55673419Y-61126466D01*
X55712123Y-61203876D01*
X55479895Y-60004028D02*
X55479895Y-60391076D01*
X55866942Y-60429780D01*
X55828238Y-60391076D01*
X55789533Y-60313666D01*
X55789533Y-60120142D01*
X55828238Y-60042733D01*
X55866942Y-60004028D01*
X55944352Y-59965323D01*
X56137876Y-59965323D01*
X56215285Y-60004028D01*
X56253990Y-60042733D01*
X56292695Y-60120142D01*
X56292695Y-60313666D01*
X56253990Y-60391076D01*
X56215285Y-60429780D01*
%TO.C,D14*%
X33292695Y-76753876D02*
X32479895Y-76753876D01*
X32479895Y-76560352D01*
X32518600Y-76444238D01*
X32596009Y-76366828D01*
X32673419Y-76328123D01*
X32828238Y-76289419D01*
X32944352Y-76289419D01*
X33099171Y-76328123D01*
X33176580Y-76366828D01*
X33253990Y-76444238D01*
X33292695Y-76560352D01*
X33292695Y-76753876D01*
X37292695Y-77527971D02*
X36479895Y-77527971D01*
X36479895Y-77334447D01*
X36518600Y-77218333D01*
X36596009Y-77140923D01*
X36673419Y-77102219D01*
X36828238Y-77063514D01*
X36944352Y-77063514D01*
X37099171Y-77102219D01*
X37176580Y-77140923D01*
X37253990Y-77218333D01*
X37292695Y-77334447D01*
X37292695Y-77527971D01*
X37292695Y-76289419D02*
X37292695Y-76753876D01*
X37292695Y-76521647D02*
X36479895Y-76521647D01*
X36596009Y-76599057D01*
X36673419Y-76676466D01*
X36712123Y-76753876D01*
X36750828Y-75592733D02*
X37292695Y-75592733D01*
X36441190Y-75786257D02*
X37021761Y-75979780D01*
X37021761Y-75476619D01*
%TO.C,D13*%
X28877695Y-76432876D02*
X28064895Y-76432876D01*
X28064895Y-76239352D01*
X28103600Y-76123238D01*
X28181009Y-76045828D01*
X28258419Y-76007123D01*
X28413238Y-75968419D01*
X28529352Y-75968419D01*
X28684171Y-76007123D01*
X28761580Y-76045828D01*
X28838990Y-76123238D01*
X28877695Y-76239352D01*
X28877695Y-76432876D01*
X32877695Y-77206971D02*
X32064895Y-77206971D01*
X32064895Y-77013447D01*
X32103600Y-76897333D01*
X32181009Y-76819923D01*
X32258419Y-76781219D01*
X32413238Y-76742514D01*
X32529352Y-76742514D01*
X32684171Y-76781219D01*
X32761580Y-76819923D01*
X32838990Y-76897333D01*
X32877695Y-77013447D01*
X32877695Y-77206971D01*
X32877695Y-75968419D02*
X32877695Y-76432876D01*
X32877695Y-76200647D02*
X32064895Y-76200647D01*
X32181009Y-76278057D01*
X32258419Y-76355466D01*
X32297123Y-76432876D01*
X32064895Y-75697485D02*
X32064895Y-75194323D01*
X32374533Y-75465257D01*
X32374533Y-75349142D01*
X32413238Y-75271733D01*
X32451942Y-75233028D01*
X32529352Y-75194323D01*
X32722876Y-75194323D01*
X32800285Y-75233028D01*
X32838990Y-75271733D01*
X32877695Y-75349142D01*
X32877695Y-75581371D01*
X32838990Y-75658780D01*
X32800285Y-75697485D01*
%TO.C,D12*%
X109292695Y-51203876D02*
X108479895Y-51203876D01*
X108479895Y-51010352D01*
X108518600Y-50894238D01*
X108596009Y-50816828D01*
X108673419Y-50778123D01*
X108828238Y-50739419D01*
X108944352Y-50739419D01*
X109099171Y-50778123D01*
X109176580Y-50816828D01*
X109253990Y-50894238D01*
X109292695Y-51010352D01*
X109292695Y-51203876D01*
X113292695Y-51977971D02*
X112479895Y-51977971D01*
X112479895Y-51784447D01*
X112518600Y-51668333D01*
X112596009Y-51590923D01*
X112673419Y-51552219D01*
X112828238Y-51513514D01*
X112944352Y-51513514D01*
X113099171Y-51552219D01*
X113176580Y-51590923D01*
X113253990Y-51668333D01*
X113292695Y-51784447D01*
X113292695Y-51977971D01*
X113292695Y-50739419D02*
X113292695Y-51203876D01*
X113292695Y-50971647D02*
X112479895Y-50971647D01*
X112596009Y-51049057D01*
X112673419Y-51126466D01*
X112712123Y-51203876D01*
X112557304Y-50429780D02*
X112518600Y-50391076D01*
X112479895Y-50313666D01*
X112479895Y-50120142D01*
X112518600Y-50042733D01*
X112557304Y-50004028D01*
X112634714Y-49965323D01*
X112712123Y-49965323D01*
X112828238Y-50004028D01*
X113292695Y-50468485D01*
X113292695Y-49965323D01*
%TO.C,D11*%
X90292695Y-49203876D02*
X89479895Y-49203876D01*
X89479895Y-49010352D01*
X89518600Y-48894238D01*
X89596009Y-48816828D01*
X89673419Y-48778123D01*
X89828238Y-48739419D01*
X89944352Y-48739419D01*
X90099171Y-48778123D01*
X90176580Y-48816828D01*
X90253990Y-48894238D01*
X90292695Y-49010352D01*
X90292695Y-49203876D01*
X94292695Y-49977971D02*
X93479895Y-49977971D01*
X93479895Y-49784447D01*
X93518600Y-49668333D01*
X93596009Y-49590923D01*
X93673419Y-49552219D01*
X93828238Y-49513514D01*
X93944352Y-49513514D01*
X94099171Y-49552219D01*
X94176580Y-49590923D01*
X94253990Y-49668333D01*
X94292695Y-49784447D01*
X94292695Y-49977971D01*
X94292695Y-48739419D02*
X94292695Y-49203876D01*
X94292695Y-48971647D02*
X93479895Y-48971647D01*
X93596009Y-49049057D01*
X93673419Y-49126466D01*
X93712123Y-49203876D01*
X94292695Y-47965323D02*
X94292695Y-48429780D01*
X94292695Y-48197552D02*
X93479895Y-48197552D01*
X93596009Y-48274961D01*
X93673419Y-48352371D01*
X93712123Y-48429780D01*
%TO.C,D10*%
X71292695Y-39203876D02*
X70479895Y-39203876D01*
X70479895Y-39010352D01*
X70518600Y-38894238D01*
X70596009Y-38816828D01*
X70673419Y-38778123D01*
X70828238Y-38739419D01*
X70944352Y-38739419D01*
X71099171Y-38778123D01*
X71176580Y-38816828D01*
X71253990Y-38894238D01*
X71292695Y-39010352D01*
X71292695Y-39203876D01*
X75292695Y-39977971D02*
X74479895Y-39977971D01*
X74479895Y-39784447D01*
X74518600Y-39668333D01*
X74596009Y-39590923D01*
X74673419Y-39552219D01*
X74828238Y-39513514D01*
X74944352Y-39513514D01*
X75099171Y-39552219D01*
X75176580Y-39590923D01*
X75253990Y-39668333D01*
X75292695Y-39784447D01*
X75292695Y-39977971D01*
X75292695Y-38739419D02*
X75292695Y-39203876D01*
X75292695Y-38971647D02*
X74479895Y-38971647D01*
X74596009Y-39049057D01*
X74673419Y-39126466D01*
X74712123Y-39203876D01*
X74479895Y-38236257D02*
X74479895Y-38158847D01*
X74518600Y-38081438D01*
X74557304Y-38042733D01*
X74634714Y-38004028D01*
X74789533Y-37965323D01*
X74983057Y-37965323D01*
X75137876Y-38004028D01*
X75215285Y-38042733D01*
X75253990Y-38081438D01*
X75292695Y-38158847D01*
X75292695Y-38236257D01*
X75253990Y-38313666D01*
X75215285Y-38352371D01*
X75137876Y-38391076D01*
X74983057Y-38429780D01*
X74789533Y-38429780D01*
X74634714Y-38391076D01*
X74557304Y-38352371D01*
X74518600Y-38313666D01*
X74479895Y-38236257D01*
%TO.C,D9*%
X52292695Y-42203876D02*
X51479895Y-42203876D01*
X51479895Y-42010352D01*
X51518600Y-41894238D01*
X51596009Y-41816828D01*
X51673419Y-41778123D01*
X51828238Y-41739419D01*
X51944352Y-41739419D01*
X52099171Y-41778123D01*
X52176580Y-41816828D01*
X52253990Y-41894238D01*
X52292695Y-42010352D01*
X52292695Y-42203876D01*
X56292695Y-42590923D02*
X55479895Y-42590923D01*
X55479895Y-42397400D01*
X55518600Y-42281285D01*
X55596009Y-42203876D01*
X55673419Y-42165171D01*
X55828238Y-42126466D01*
X55944352Y-42126466D01*
X56099171Y-42165171D01*
X56176580Y-42203876D01*
X56253990Y-42281285D01*
X56292695Y-42397400D01*
X56292695Y-42590923D01*
X56292695Y-41739419D02*
X56292695Y-41584600D01*
X56253990Y-41507190D01*
X56215285Y-41468485D01*
X56099171Y-41391076D01*
X55944352Y-41352371D01*
X55634714Y-41352371D01*
X55557304Y-41391076D01*
X55518600Y-41429780D01*
X55479895Y-41507190D01*
X55479895Y-41662009D01*
X55518600Y-41739419D01*
X55557304Y-41778123D01*
X55634714Y-41816828D01*
X55828238Y-41816828D01*
X55905647Y-41778123D01*
X55944352Y-41739419D01*
X55983057Y-41662009D01*
X55983057Y-41507190D01*
X55944352Y-41429780D01*
X55905647Y-41391076D01*
X55828238Y-41352371D01*
%TO.C,D8*%
X33292695Y-57753876D02*
X32479895Y-57753876D01*
X32479895Y-57560352D01*
X32518600Y-57444238D01*
X32596009Y-57366828D01*
X32673419Y-57328123D01*
X32828238Y-57289419D01*
X32944352Y-57289419D01*
X33099171Y-57328123D01*
X33176580Y-57366828D01*
X33253990Y-57444238D01*
X33292695Y-57560352D01*
X33292695Y-57753876D01*
X37292695Y-58140923D02*
X36479895Y-58140923D01*
X36479895Y-57947400D01*
X36518600Y-57831285D01*
X36596009Y-57753876D01*
X36673419Y-57715171D01*
X36828238Y-57676466D01*
X36944352Y-57676466D01*
X37099171Y-57715171D01*
X37176580Y-57753876D01*
X37253990Y-57831285D01*
X37292695Y-57947400D01*
X37292695Y-58140923D01*
X36828238Y-57212009D02*
X36789533Y-57289419D01*
X36750828Y-57328123D01*
X36673419Y-57366828D01*
X36634714Y-57366828D01*
X36557304Y-57328123D01*
X36518600Y-57289419D01*
X36479895Y-57212009D01*
X36479895Y-57057190D01*
X36518600Y-56979780D01*
X36557304Y-56941076D01*
X36634714Y-56902371D01*
X36673419Y-56902371D01*
X36750828Y-56941076D01*
X36789533Y-56979780D01*
X36828238Y-57057190D01*
X36828238Y-57212009D01*
X36866942Y-57289419D01*
X36905647Y-57328123D01*
X36983057Y-57366828D01*
X37137876Y-57366828D01*
X37215285Y-57328123D01*
X37253990Y-57289419D01*
X37292695Y-57212009D01*
X37292695Y-57057190D01*
X37253990Y-56979780D01*
X37215285Y-56941076D01*
X37137876Y-56902371D01*
X36983057Y-56902371D01*
X36905647Y-56941076D01*
X36866942Y-56979780D01*
X36828238Y-57057190D01*
%TO.C,D7*%
X15992695Y-57553876D02*
X15179895Y-57553876D01*
X15179895Y-57360352D01*
X15218600Y-57244238D01*
X15296009Y-57166828D01*
X15373419Y-57128123D01*
X15528238Y-57089419D01*
X15644352Y-57089419D01*
X15799171Y-57128123D01*
X15876580Y-57166828D01*
X15953990Y-57244238D01*
X15992695Y-57360352D01*
X15992695Y-57553876D01*
X19992695Y-57940923D02*
X19179895Y-57940923D01*
X19179895Y-57747400D01*
X19218600Y-57631285D01*
X19296009Y-57553876D01*
X19373419Y-57515171D01*
X19528238Y-57476466D01*
X19644352Y-57476466D01*
X19799171Y-57515171D01*
X19876580Y-57553876D01*
X19953990Y-57631285D01*
X19992695Y-57747400D01*
X19992695Y-57940923D01*
X19179895Y-57205533D02*
X19179895Y-56663666D01*
X19992695Y-57012009D01*
%TO.C,D6*%
X109292695Y-32203876D02*
X108479895Y-32203876D01*
X108479895Y-32010352D01*
X108518600Y-31894238D01*
X108596009Y-31816828D01*
X108673419Y-31778123D01*
X108828238Y-31739419D01*
X108944352Y-31739419D01*
X109099171Y-31778123D01*
X109176580Y-31816828D01*
X109253990Y-31894238D01*
X109292695Y-32010352D01*
X109292695Y-32203876D01*
X113292695Y-32590923D02*
X112479895Y-32590923D01*
X112479895Y-32397400D01*
X112518600Y-32281285D01*
X112596009Y-32203876D01*
X112673419Y-32165171D01*
X112828238Y-32126466D01*
X112944352Y-32126466D01*
X113099171Y-32165171D01*
X113176580Y-32203876D01*
X113253990Y-32281285D01*
X113292695Y-32397400D01*
X113292695Y-32590923D01*
X112479895Y-31429780D02*
X112479895Y-31584600D01*
X112518600Y-31662009D01*
X112557304Y-31700714D01*
X112673419Y-31778123D01*
X112828238Y-31816828D01*
X113137876Y-31816828D01*
X113215285Y-31778123D01*
X113253990Y-31739419D01*
X113292695Y-31662009D01*
X113292695Y-31507190D01*
X113253990Y-31429780D01*
X113215285Y-31391076D01*
X113137876Y-31352371D01*
X112944352Y-31352371D01*
X112866942Y-31391076D01*
X112828238Y-31429780D01*
X112789533Y-31507190D01*
X112789533Y-31662009D01*
X112828238Y-31739419D01*
X112866942Y-31778123D01*
X112944352Y-31816828D01*
%TO.C,D5*%
X90292695Y-30203876D02*
X89479895Y-30203876D01*
X89479895Y-30010352D01*
X89518600Y-29894238D01*
X89596009Y-29816828D01*
X89673419Y-29778123D01*
X89828238Y-29739419D01*
X89944352Y-29739419D01*
X90099171Y-29778123D01*
X90176580Y-29816828D01*
X90253990Y-29894238D01*
X90292695Y-30010352D01*
X90292695Y-30203876D01*
X94292695Y-30590923D02*
X93479895Y-30590923D01*
X93479895Y-30397400D01*
X93518600Y-30281285D01*
X93596009Y-30203876D01*
X93673419Y-30165171D01*
X93828238Y-30126466D01*
X93944352Y-30126466D01*
X94099171Y-30165171D01*
X94176580Y-30203876D01*
X94253990Y-30281285D01*
X94292695Y-30397400D01*
X94292695Y-30590923D01*
X93479895Y-29391076D02*
X93479895Y-29778123D01*
X93866942Y-29816828D01*
X93828238Y-29778123D01*
X93789533Y-29700714D01*
X93789533Y-29507190D01*
X93828238Y-29429780D01*
X93866942Y-29391076D01*
X93944352Y-29352371D01*
X94137876Y-29352371D01*
X94215285Y-29391076D01*
X94253990Y-29429780D01*
X94292695Y-29507190D01*
X94292695Y-29700714D01*
X94253990Y-29778123D01*
X94215285Y-29816828D01*
%TO.C,D4*%
X71292695Y-20203876D02*
X70479895Y-20203876D01*
X70479895Y-20010352D01*
X70518600Y-19894238D01*
X70596009Y-19816828D01*
X70673419Y-19778123D01*
X70828238Y-19739419D01*
X70944352Y-19739419D01*
X71099171Y-19778123D01*
X71176580Y-19816828D01*
X71253990Y-19894238D01*
X71292695Y-20010352D01*
X71292695Y-20203876D01*
X75292695Y-20590923D02*
X74479895Y-20590923D01*
X74479895Y-20397400D01*
X74518600Y-20281285D01*
X74596009Y-20203876D01*
X74673419Y-20165171D01*
X74828238Y-20126466D01*
X74944352Y-20126466D01*
X75099171Y-20165171D01*
X75176580Y-20203876D01*
X75253990Y-20281285D01*
X75292695Y-20397400D01*
X75292695Y-20590923D01*
X74750828Y-19429780D02*
X75292695Y-19429780D01*
X74441190Y-19623304D02*
X75021761Y-19816828D01*
X75021761Y-19313666D01*
%TO.C,D3*%
X52292695Y-23203876D02*
X51479895Y-23203876D01*
X51479895Y-23010352D01*
X51518600Y-22894238D01*
X51596009Y-22816828D01*
X51673419Y-22778123D01*
X51828238Y-22739419D01*
X51944352Y-22739419D01*
X52099171Y-22778123D01*
X52176580Y-22816828D01*
X52253990Y-22894238D01*
X52292695Y-23010352D01*
X52292695Y-23203876D01*
X56292695Y-23590923D02*
X55479895Y-23590923D01*
X55479895Y-23397400D01*
X55518600Y-23281285D01*
X55596009Y-23203876D01*
X55673419Y-23165171D01*
X55828238Y-23126466D01*
X55944352Y-23126466D01*
X56099171Y-23165171D01*
X56176580Y-23203876D01*
X56253990Y-23281285D01*
X56292695Y-23397400D01*
X56292695Y-23590923D01*
X55479895Y-22855533D02*
X55479895Y-22352371D01*
X55789533Y-22623304D01*
X55789533Y-22507190D01*
X55828238Y-22429780D01*
X55866942Y-22391076D01*
X55944352Y-22352371D01*
X56137876Y-22352371D01*
X56215285Y-22391076D01*
X56253990Y-22429780D01*
X56292695Y-22507190D01*
X56292695Y-22739419D01*
X56253990Y-22816828D01*
X56215285Y-22855533D01*
%TO.C,D2*%
X33292695Y-38753876D02*
X32479895Y-38753876D01*
X32479895Y-38560352D01*
X32518600Y-38444238D01*
X32596009Y-38366828D01*
X32673419Y-38328123D01*
X32828238Y-38289419D01*
X32944352Y-38289419D01*
X33099171Y-38328123D01*
X33176580Y-38366828D01*
X33253990Y-38444238D01*
X33292695Y-38560352D01*
X33292695Y-38753876D01*
X37292695Y-39140923D02*
X36479895Y-39140923D01*
X36479895Y-38947400D01*
X36518600Y-38831285D01*
X36596009Y-38753876D01*
X36673419Y-38715171D01*
X36828238Y-38676466D01*
X36944352Y-38676466D01*
X37099171Y-38715171D01*
X37176580Y-38753876D01*
X37253990Y-38831285D01*
X37292695Y-38947400D01*
X37292695Y-39140923D01*
X36557304Y-38366828D02*
X36518600Y-38328123D01*
X36479895Y-38250714D01*
X36479895Y-38057190D01*
X36518600Y-37979780D01*
X36557304Y-37941076D01*
X36634714Y-37902371D01*
X36712123Y-37902371D01*
X36828238Y-37941076D01*
X37292695Y-38405533D01*
X37292695Y-37902371D01*
%TO.C,D1*%
X15992695Y-38553876D02*
X15179895Y-38553876D01*
X15179895Y-38360352D01*
X15218600Y-38244238D01*
X15296009Y-38166828D01*
X15373419Y-38128123D01*
X15528238Y-38089419D01*
X15644352Y-38089419D01*
X15799171Y-38128123D01*
X15876580Y-38166828D01*
X15953990Y-38244238D01*
X15992695Y-38360352D01*
X15992695Y-38553876D01*
X19992695Y-38940923D02*
X19179895Y-38940923D01*
X19179895Y-38747400D01*
X19218600Y-38631285D01*
X19296009Y-38553876D01*
X19373419Y-38515171D01*
X19528238Y-38476466D01*
X19644352Y-38476466D01*
X19799171Y-38515171D01*
X19876580Y-38553876D01*
X19953990Y-38631285D01*
X19992695Y-38747400D01*
X19992695Y-38940923D01*
X19992695Y-37702371D02*
X19992695Y-38166828D01*
X19992695Y-37934600D02*
X19179895Y-37934600D01*
X19296009Y-38012009D01*
X19373419Y-38089419D01*
X19412123Y-38166828D01*
%TO.C,D25*%
D13*
X21228095Y-24492380D02*
X21228095Y-23492380D01*
X21466190Y-23492380D01*
X21609047Y-23540000D01*
X21704285Y-23635238D01*
X21751904Y-23730476D01*
X21799523Y-23920952D01*
X21799523Y-24063809D01*
X21751904Y-24254285D01*
X21704285Y-24349523D01*
X21609047Y-24444761D01*
X21466190Y-24492380D01*
X21228095Y-24492380D01*
X20275714Y-28592380D02*
X20275714Y-27592380D01*
X20513809Y-27592380D01*
X20656666Y-27640000D01*
X20751904Y-27735238D01*
X20799523Y-27830476D01*
X20847142Y-28020952D01*
X20847142Y-28163809D01*
X20799523Y-28354285D01*
X20751904Y-28449523D01*
X20656666Y-28544761D01*
X20513809Y-28592380D01*
X20275714Y-28592380D01*
X21228095Y-27687619D02*
X21275714Y-27640000D01*
X21370952Y-27592380D01*
X21609047Y-27592380D01*
X21704285Y-27640000D01*
X21751904Y-27687619D01*
X21799523Y-27782857D01*
X21799523Y-27878095D01*
X21751904Y-28020952D01*
X21180476Y-28592380D01*
X21799523Y-28592380D01*
X22704285Y-27592380D02*
X22228095Y-27592380D01*
X22180476Y-28068571D01*
X22228095Y-28020952D01*
X22323333Y-27973333D01*
X22561428Y-27973333D01*
X22656666Y-28020952D01*
X22704285Y-28068571D01*
X22751904Y-28163809D01*
X22751904Y-28401904D01*
X22704285Y-28497142D01*
X22656666Y-28544761D01*
X22561428Y-28592380D01*
X22323333Y-28592380D01*
X22228095Y-28544761D01*
X22180476Y-28497142D01*
%TO.C,H9*%
X172621428Y-99502380D02*
X172621428Y-98502380D01*
X172621428Y-98978571D02*
X173192857Y-98978571D01*
X173192857Y-99502380D02*
X173192857Y-98502380D01*
X173811904Y-99502380D02*
X173716666Y-99454761D01*
X173669047Y-99407142D01*
X173621428Y-99311904D01*
X173621428Y-99026190D01*
X173669047Y-98930952D01*
X173716666Y-98883333D01*
X173811904Y-98835714D01*
X173954761Y-98835714D01*
X174050000Y-98883333D01*
X174097619Y-98930952D01*
X174145238Y-99026190D01*
X174145238Y-99311904D01*
X174097619Y-99407142D01*
X174050000Y-99454761D01*
X173954761Y-99502380D01*
X173811904Y-99502380D01*
X174716666Y-99502380D02*
X174621428Y-99454761D01*
X174573809Y-99359523D01*
X174573809Y-98502380D01*
X175478571Y-99454761D02*
X175383333Y-99502380D01*
X175192857Y-99502380D01*
X175097619Y-99454761D01*
X175050000Y-99359523D01*
X175050000Y-98978571D01*
X175097619Y-98883333D01*
X175192857Y-98835714D01*
X175383333Y-98835714D01*
X175478571Y-98883333D01*
X175526190Y-98978571D01*
X175526190Y-99073809D01*
X175050000Y-99169047D01*
X173005595Y-96554880D02*
X173005595Y-95554880D01*
X173005595Y-96031071D02*
X173577023Y-96031071D01*
X173577023Y-96554880D02*
X173577023Y-95554880D01*
X174100833Y-96554880D02*
X174291309Y-96554880D01*
X174386547Y-96507261D01*
X174434166Y-96459642D01*
X174529404Y-96316785D01*
X174577023Y-96126309D01*
X174577023Y-95745357D01*
X174529404Y-95650119D01*
X174481785Y-95602500D01*
X174386547Y-95554880D01*
X174196071Y-95554880D01*
X174100833Y-95602500D01*
X174053214Y-95650119D01*
X174005595Y-95745357D01*
X174005595Y-95983452D01*
X174053214Y-96078690D01*
X174100833Y-96126309D01*
X174196071Y-96173928D01*
X174386547Y-96173928D01*
X174481785Y-96126309D01*
X174529404Y-96078690D01*
X174577023Y-95983452D01*
%TO.C,H1*%
X124601428Y-16052380D02*
X124601428Y-15052380D01*
X124601428Y-15528571D02*
X125172857Y-15528571D01*
X125172857Y-16052380D02*
X125172857Y-15052380D01*
X125791904Y-16052380D02*
X125696666Y-16004761D01*
X125649047Y-15957142D01*
X125601428Y-15861904D01*
X125601428Y-15576190D01*
X125649047Y-15480952D01*
X125696666Y-15433333D01*
X125791904Y-15385714D01*
X125934761Y-15385714D01*
X126030000Y-15433333D01*
X126077619Y-15480952D01*
X126125238Y-15576190D01*
X126125238Y-15861904D01*
X126077619Y-15957142D01*
X126030000Y-16004761D01*
X125934761Y-16052380D01*
X125791904Y-16052380D01*
X126696666Y-16052380D02*
X126601428Y-16004761D01*
X126553809Y-15909523D01*
X126553809Y-15052380D01*
X127458571Y-16004761D02*
X127363333Y-16052380D01*
X127172857Y-16052380D01*
X127077619Y-16004761D01*
X127030000Y-15909523D01*
X127030000Y-15528571D01*
X127077619Y-15433333D01*
X127172857Y-15385714D01*
X127363333Y-15385714D01*
X127458571Y-15433333D01*
X127506190Y-15528571D01*
X127506190Y-15623809D01*
X127030000Y-15719047D01*
X125568095Y-12852380D02*
X125568095Y-11852380D01*
X125568095Y-12328571D02*
X126139523Y-12328571D01*
X126139523Y-12852380D02*
X126139523Y-11852380D01*
X127139523Y-12852380D02*
X126568095Y-12852380D01*
X126853809Y-12852380D02*
X126853809Y-11852380D01*
X126758571Y-11995238D01*
X126663333Y-12090476D01*
X126568095Y-12138095D01*
%TO.C,16mhz1*%
X153027739Y-79752439D02*
X153027739Y-79819783D01*
X152960395Y-79954470D01*
X152893052Y-80021813D01*
X152758365Y-80089157D01*
X152623678Y-80089157D01*
X152522663Y-80055485D01*
X152354304Y-79954470D01*
X152253289Y-79853455D01*
X152152273Y-79685096D01*
X152118602Y-79584081D01*
X152118602Y-79449394D01*
X152185945Y-79314707D01*
X152253289Y-79247363D01*
X152387976Y-79180020D01*
X152455319Y-79180020D01*
X153398128Y-79516737D02*
X152926724Y-79045333D01*
X153061411Y-79180020D02*
X153027739Y-79079004D01*
X153027739Y-79011661D01*
X153061411Y-78910646D01*
X153128754Y-78843302D01*
X153297113Y-78674943D02*
X153936876Y-78977989D01*
X153633830Y-78338226D02*
X153936876Y-78977989D01*
X154037892Y-79213691D01*
X154037892Y-79281035D01*
X154004220Y-79382050D01*
X154307266Y-78540256D02*
X154408281Y-78506585D01*
X154542968Y-78371898D01*
X154576640Y-78270882D01*
X154542968Y-78169867D01*
X154509296Y-78136195D01*
X154408281Y-78102523D01*
X154307266Y-78136195D01*
X154206250Y-78237211D01*
X154105235Y-78270882D01*
X154004220Y-78237211D01*
X153970548Y-78203539D01*
X153936876Y-78102523D01*
X153970548Y-78001508D01*
X154071563Y-77900493D01*
X154172579Y-77866821D01*
X154374609Y-77597447D02*
X154643983Y-77328073D01*
X154239922Y-77260730D02*
X154846014Y-77866821D01*
X154947029Y-77900493D01*
X155048044Y-77866821D01*
X155115388Y-77799478D01*
X155654136Y-77260730D02*
X155283746Y-76890340D01*
X155182731Y-76856669D01*
X155081716Y-76890340D01*
X154947029Y-77025027D01*
X154913357Y-77126043D01*
X155620464Y-77227058D02*
X155586792Y-77328073D01*
X155418433Y-77496432D01*
X155317418Y-77530104D01*
X155216403Y-77496432D01*
X155149059Y-77429088D01*
X155115388Y-77328073D01*
X155149059Y-77227058D01*
X155317418Y-77058699D01*
X155351090Y-76957684D01*
X156091868Y-76822997D02*
X155990853Y-76856669D01*
X155889838Y-76822997D01*
X155283746Y-76216905D01*
X150316322Y-77613441D02*
X149912261Y-78017502D01*
X150114291Y-77815471D02*
X149407184Y-77108364D01*
X149440856Y-77276723D01*
X149440856Y-77411410D01*
X149407184Y-77512425D01*
X150215306Y-76300242D02*
X150080619Y-76434929D01*
X150046948Y-76535945D01*
X150046948Y-76603288D01*
X150080619Y-76771647D01*
X150181635Y-76940006D01*
X150451009Y-77209380D01*
X150552024Y-77243051D01*
X150619367Y-77243051D01*
X150720383Y-77209380D01*
X150855070Y-77074693D01*
X150888741Y-76973677D01*
X150888741Y-76906334D01*
X150855070Y-76805319D01*
X150686711Y-76636960D01*
X150585696Y-76603288D01*
X150518352Y-76603288D01*
X150417337Y-76636960D01*
X150282650Y-76771647D01*
X150248978Y-76872662D01*
X150248978Y-76940006D01*
X150282650Y-77041021D01*
X151292802Y-76636960D02*
X150821398Y-76165555D01*
X150888741Y-76232899D02*
X150888741Y-76165555D01*
X150922413Y-76064540D01*
X151023428Y-75963525D01*
X151124444Y-75929853D01*
X151225459Y-75963525D01*
X151595848Y-76333914D01*
X151225459Y-75963525D02*
X151191787Y-75862510D01*
X151225459Y-75761494D01*
X151326474Y-75660479D01*
X151427489Y-75626807D01*
X151528505Y-75660479D01*
X151898894Y-76030868D01*
X152235611Y-75694151D02*
X151528505Y-74987044D01*
X152538657Y-75391105D02*
X152168268Y-75020716D01*
X152067253Y-74987044D01*
X151966237Y-75020716D01*
X151865222Y-75121731D01*
X151831550Y-75222746D01*
X151831550Y-75290090D01*
X152336627Y-74650327D02*
X152707016Y-74279937D01*
X152808031Y-75121731D01*
X153178420Y-74751342D01*
X153818184Y-74111579D02*
X153414123Y-74515640D01*
X153616153Y-74313609D02*
X152909046Y-73606502D01*
X152942718Y-73774861D01*
X152942718Y-73909548D01*
X152909046Y-74010563D01*
%TO.C,C5*%
X132324761Y-76272380D02*
X131753333Y-76272380D01*
X132039047Y-76272380D02*
X132039047Y-75272380D01*
X131943809Y-75415238D01*
X131848571Y-75510476D01*
X131753333Y-75558095D01*
X133181904Y-75605714D02*
X133181904Y-76272380D01*
X132753333Y-75605714D02*
X132753333Y-76129523D01*
X132800952Y-76224761D01*
X132896190Y-76272380D01*
X133039047Y-76272380D01*
X133134285Y-76224761D01*
X133181904Y-76177142D01*
X133991428Y-75748571D02*
X133658095Y-75748571D01*
X133658095Y-76272380D02*
X133658095Y-75272380D01*
X134134285Y-75272380D01*
D15*
X132836666Y-77678571D02*
X132812857Y-77702380D01*
X132741428Y-77726190D01*
X132693809Y-77726190D01*
X132622380Y-77702380D01*
X132574761Y-77654761D01*
X132550952Y-77607142D01*
X132527142Y-77511904D01*
X132527142Y-77440476D01*
X132550952Y-77345238D01*
X132574761Y-77297619D01*
X132622380Y-77250000D01*
X132693809Y-77226190D01*
X132741428Y-77226190D01*
X132812857Y-77250000D01*
X132836666Y-77273809D01*
X133289047Y-77226190D02*
X133050952Y-77226190D01*
X133027142Y-77464285D01*
X133050952Y-77440476D01*
X133098571Y-77416666D01*
X133217619Y-77416666D01*
X133265238Y-77440476D01*
X133289047Y-77464285D01*
X133312857Y-77511904D01*
X133312857Y-77630952D01*
X133289047Y-77678571D01*
X133265238Y-77702380D01*
X133217619Y-77726190D01*
X133098571Y-77726190D01*
X133050952Y-77702380D01*
X133027142Y-77678571D01*
%TO.C,H1*%
D13*
X130571428Y-17202380D02*
X130571428Y-16202380D01*
X130571428Y-16678571D02*
X131142857Y-16678571D01*
X131142857Y-17202380D02*
X131142857Y-16202380D01*
X131761904Y-17202380D02*
X131666666Y-17154761D01*
X131619047Y-17107142D01*
X131571428Y-17011904D01*
X131571428Y-16726190D01*
X131619047Y-16630952D01*
X131666666Y-16583333D01*
X131761904Y-16535714D01*
X131904761Y-16535714D01*
X132000000Y-16583333D01*
X132047619Y-16630952D01*
X132095238Y-16726190D01*
X132095238Y-17011904D01*
X132047619Y-17107142D01*
X132000000Y-17154761D01*
X131904761Y-17202380D01*
X131761904Y-17202380D01*
X132666666Y-17202380D02*
X132571428Y-17154761D01*
X132523809Y-17059523D01*
X132523809Y-16202380D01*
X133428571Y-17154761D02*
X133333333Y-17202380D01*
X133142857Y-17202380D01*
X133047619Y-17154761D01*
X133000000Y-17059523D01*
X133000000Y-16678571D01*
X133047619Y-16583333D01*
X133142857Y-16535714D01*
X133333333Y-16535714D01*
X133428571Y-16583333D01*
X133476190Y-16678571D01*
X133476190Y-16773809D01*
X133000000Y-16869047D01*
X131538095Y-14002380D02*
X131538095Y-13002380D01*
X131538095Y-13478571D02*
X132109523Y-13478571D01*
X132109523Y-14002380D02*
X132109523Y-13002380D01*
X133109523Y-14002380D02*
X132538095Y-14002380D01*
X132823809Y-14002380D02*
X132823809Y-13002380D01*
X132728571Y-13145238D01*
X132633333Y-13240476D01*
X132538095Y-13288095D01*
X154571428Y-23622380D02*
X154571428Y-22622380D01*
X154571428Y-23098571D02*
X155142857Y-23098571D01*
X155142857Y-23622380D02*
X155142857Y-22622380D01*
X155761904Y-23622380D02*
X155666666Y-23574761D01*
X155619047Y-23527142D01*
X155571428Y-23431904D01*
X155571428Y-23146190D01*
X155619047Y-23050952D01*
X155666666Y-23003333D01*
X155761904Y-22955714D01*
X155904761Y-22955714D01*
X156000000Y-23003333D01*
X156047619Y-23050952D01*
X156095238Y-23146190D01*
X156095238Y-23431904D01*
X156047619Y-23527142D01*
X156000000Y-23574761D01*
X155904761Y-23622380D01*
X155761904Y-23622380D01*
X156666666Y-23622380D02*
X156571428Y-23574761D01*
X156523809Y-23479523D01*
X156523809Y-22622380D01*
X157428571Y-23574761D02*
X157333333Y-23622380D01*
X157142857Y-23622380D01*
X157047619Y-23574761D01*
X157000000Y-23479523D01*
X157000000Y-23098571D01*
X157047619Y-23003333D01*
X157142857Y-22955714D01*
X157333333Y-22955714D01*
X157428571Y-23003333D01*
X157476190Y-23098571D01*
X157476190Y-23193809D01*
X157000000Y-23289047D01*
X155538095Y-20422380D02*
X155538095Y-19422380D01*
X155538095Y-19898571D02*
X156109523Y-19898571D01*
X156109523Y-20422380D02*
X156109523Y-19422380D01*
X157109523Y-20422380D02*
X156538095Y-20422380D01*
X156823809Y-20422380D02*
X156823809Y-19422380D01*
X156728571Y-19565238D01*
X156633333Y-19660476D01*
X156538095Y-19708095D01*
X32521428Y-75102380D02*
X32521428Y-74102380D01*
X32521428Y-74578571D02*
X33092857Y-74578571D01*
X33092857Y-75102380D02*
X33092857Y-74102380D01*
X33711904Y-75102380D02*
X33616666Y-75054761D01*
X33569047Y-75007142D01*
X33521428Y-74911904D01*
X33521428Y-74626190D01*
X33569047Y-74530952D01*
X33616666Y-74483333D01*
X33711904Y-74435714D01*
X33854761Y-74435714D01*
X33950000Y-74483333D01*
X33997619Y-74530952D01*
X34045238Y-74626190D01*
X34045238Y-74911904D01*
X33997619Y-75007142D01*
X33950000Y-75054761D01*
X33854761Y-75102380D01*
X33711904Y-75102380D01*
X34616666Y-75102380D02*
X34521428Y-75054761D01*
X34473809Y-74959523D01*
X34473809Y-74102380D01*
X35378571Y-75054761D02*
X35283333Y-75102380D01*
X35092857Y-75102380D01*
X34997619Y-75054761D01*
X34950000Y-74959523D01*
X34950000Y-74578571D01*
X34997619Y-74483333D01*
X35092857Y-74435714D01*
X35283333Y-74435714D01*
X35378571Y-74483333D01*
X35426190Y-74578571D01*
X35426190Y-74673809D01*
X34950000Y-74769047D01*
X33488095Y-71902380D02*
X33488095Y-70902380D01*
X33488095Y-71378571D02*
X34059523Y-71378571D01*
X34059523Y-71902380D02*
X34059523Y-70902380D01*
X35059523Y-71902380D02*
X34488095Y-71902380D01*
X34773809Y-71902380D02*
X34773809Y-70902380D01*
X34678571Y-71045238D01*
X34583333Y-71140476D01*
X34488095Y-71188095D01*
%TO.C,H6*%
X70831428Y-36892380D02*
X70831428Y-35892380D01*
X70831428Y-36368571D02*
X71402857Y-36368571D01*
X71402857Y-36892380D02*
X71402857Y-35892380D01*
X72021904Y-36892380D02*
X71926666Y-36844761D01*
X71879047Y-36797142D01*
X71831428Y-36701904D01*
X71831428Y-36416190D01*
X71879047Y-36320952D01*
X71926666Y-36273333D01*
X72021904Y-36225714D01*
X72164761Y-36225714D01*
X72260000Y-36273333D01*
X72307619Y-36320952D01*
X72355238Y-36416190D01*
X72355238Y-36701904D01*
X72307619Y-36797142D01*
X72260000Y-36844761D01*
X72164761Y-36892380D01*
X72021904Y-36892380D01*
X72926666Y-36892380D02*
X72831428Y-36844761D01*
X72783809Y-36749523D01*
X72783809Y-35892380D01*
X73688571Y-36844761D02*
X73593333Y-36892380D01*
X73402857Y-36892380D01*
X73307619Y-36844761D01*
X73260000Y-36749523D01*
X73260000Y-36368571D01*
X73307619Y-36273333D01*
X73402857Y-36225714D01*
X73593333Y-36225714D01*
X73688571Y-36273333D01*
X73736190Y-36368571D01*
X73736190Y-36463809D01*
X73260000Y-36559047D01*
X71798095Y-33692380D02*
X71798095Y-32692380D01*
X71798095Y-33168571D02*
X72369523Y-33168571D01*
X72369523Y-33692380D02*
X72369523Y-32692380D01*
X73274285Y-32692380D02*
X73083809Y-32692380D01*
X72988571Y-32740000D01*
X72940952Y-32787619D01*
X72845714Y-32930476D01*
X72798095Y-33120952D01*
X72798095Y-33501904D01*
X72845714Y-33597142D01*
X72893333Y-33644761D01*
X72988571Y-33692380D01*
X73179047Y-33692380D01*
X73274285Y-33644761D01*
X73321904Y-33597142D01*
X73369523Y-33501904D01*
X73369523Y-33263809D01*
X73321904Y-33168571D01*
X73274285Y-33120952D01*
X73179047Y-33073333D01*
X72988571Y-33073333D01*
X72893333Y-33120952D01*
X72845714Y-33168571D01*
X72798095Y-33263809D01*
%TO.C,H1*%
X109601428Y-124362380D02*
X109601428Y-123362380D01*
X109601428Y-123838571D02*
X110172857Y-123838571D01*
X110172857Y-124362380D02*
X110172857Y-123362380D01*
X110791904Y-124362380D02*
X110696666Y-124314761D01*
X110649047Y-124267142D01*
X110601428Y-124171904D01*
X110601428Y-123886190D01*
X110649047Y-123790952D01*
X110696666Y-123743333D01*
X110791904Y-123695714D01*
X110934761Y-123695714D01*
X111030000Y-123743333D01*
X111077619Y-123790952D01*
X111125238Y-123886190D01*
X111125238Y-124171904D01*
X111077619Y-124267142D01*
X111030000Y-124314761D01*
X110934761Y-124362380D01*
X110791904Y-124362380D01*
X111696666Y-124362380D02*
X111601428Y-124314761D01*
X111553809Y-124219523D01*
X111553809Y-123362380D01*
X112458571Y-124314761D02*
X112363333Y-124362380D01*
X112172857Y-124362380D01*
X112077619Y-124314761D01*
X112030000Y-124219523D01*
X112030000Y-123838571D01*
X112077619Y-123743333D01*
X112172857Y-123695714D01*
X112363333Y-123695714D01*
X112458571Y-123743333D01*
X112506190Y-123838571D01*
X112506190Y-123933809D01*
X112030000Y-124029047D01*
X110538095Y-121162380D02*
X110538095Y-120162380D01*
X110538095Y-120638571D02*
X111109523Y-120638571D01*
X111109523Y-121162380D02*
X111109523Y-120162380D01*
X112109523Y-121162380D02*
X111538095Y-121162380D01*
X111823809Y-121162380D02*
X111823809Y-120162380D01*
X111728571Y-120305238D01*
X111633333Y-120400476D01*
X111538095Y-120448095D01*
X13446256Y-94568910D02*
X13446256Y-93568910D01*
X13446256Y-94045101D02*
X14017685Y-94045101D01*
X14017685Y-94568910D02*
X14017685Y-93568910D01*
X14636732Y-94568910D02*
X14541494Y-94521291D01*
X14493875Y-94473672D01*
X14446256Y-94378434D01*
X14446256Y-94092720D01*
X14493875Y-93997482D01*
X14541494Y-93949863D01*
X14636732Y-93902244D01*
X14779589Y-93902244D01*
X14874828Y-93949863D01*
X14922447Y-93997482D01*
X14970066Y-94092720D01*
X14970066Y-94378434D01*
X14922447Y-94473672D01*
X14874828Y-94521291D01*
X14779589Y-94568910D01*
X14636732Y-94568910D01*
X15541494Y-94568910D02*
X15446256Y-94521291D01*
X15398637Y-94426053D01*
X15398637Y-93568910D01*
X16303399Y-94521291D02*
X16208161Y-94568910D01*
X16017685Y-94568910D01*
X15922447Y-94521291D01*
X15874828Y-94426053D01*
X15874828Y-94045101D01*
X15922447Y-93949863D01*
X16017685Y-93902244D01*
X16208161Y-93902244D01*
X16303399Y-93949863D01*
X16351018Y-94045101D01*
X16351018Y-94140339D01*
X15874828Y-94235577D01*
X14412923Y-91368910D02*
X14412923Y-90368910D01*
X14412923Y-90845101D02*
X14984351Y-90845101D01*
X14984351Y-91368910D02*
X14984351Y-90368910D01*
X15984351Y-91368910D02*
X15412923Y-91368910D01*
X15698637Y-91368910D02*
X15698637Y-90368910D01*
X15603399Y-90511768D01*
X15508161Y-90607006D01*
X15412923Y-90654625D01*
X12991428Y-17712380D02*
X12991428Y-16712380D01*
X12991428Y-17188571D02*
X13562857Y-17188571D01*
X13562857Y-17712380D02*
X13562857Y-16712380D01*
X14181904Y-17712380D02*
X14086666Y-17664761D01*
X14039047Y-17617142D01*
X13991428Y-17521904D01*
X13991428Y-17236190D01*
X14039047Y-17140952D01*
X14086666Y-17093333D01*
X14181904Y-17045714D01*
X14324761Y-17045714D01*
X14420000Y-17093333D01*
X14467619Y-17140952D01*
X14515238Y-17236190D01*
X14515238Y-17521904D01*
X14467619Y-17617142D01*
X14420000Y-17664761D01*
X14324761Y-17712380D01*
X14181904Y-17712380D01*
X15086666Y-17712380D02*
X14991428Y-17664761D01*
X14943809Y-17569523D01*
X14943809Y-16712380D01*
X15848571Y-17664761D02*
X15753333Y-17712380D01*
X15562857Y-17712380D01*
X15467619Y-17664761D01*
X15420000Y-17569523D01*
X15420000Y-17188571D01*
X15467619Y-17093333D01*
X15562857Y-17045714D01*
X15753333Y-17045714D01*
X15848571Y-17093333D01*
X15896190Y-17188571D01*
X15896190Y-17283809D01*
X15420000Y-17379047D01*
X13958095Y-14512380D02*
X13958095Y-13512380D01*
X13958095Y-13988571D02*
X14529523Y-13988571D01*
X14529523Y-14512380D02*
X14529523Y-13512380D01*
X15529523Y-14512380D02*
X14958095Y-14512380D01*
X15243809Y-14512380D02*
X15243809Y-13512380D01*
X15148571Y-13655238D01*
X15053333Y-13750476D01*
X14958095Y-13798095D01*
X76141428Y-11042380D02*
X76141428Y-10042380D01*
X76141428Y-10518571D02*
X76712857Y-10518571D01*
X76712857Y-11042380D02*
X76712857Y-10042380D01*
X77331904Y-11042380D02*
X77236666Y-10994761D01*
X77189047Y-10947142D01*
X77141428Y-10851904D01*
X77141428Y-10566190D01*
X77189047Y-10470952D01*
X77236666Y-10423333D01*
X77331904Y-10375714D01*
X77474761Y-10375714D01*
X77570000Y-10423333D01*
X77617619Y-10470952D01*
X77665238Y-10566190D01*
X77665238Y-10851904D01*
X77617619Y-10947142D01*
X77570000Y-10994761D01*
X77474761Y-11042380D01*
X77331904Y-11042380D01*
X78236666Y-11042380D02*
X78141428Y-10994761D01*
X78093809Y-10899523D01*
X78093809Y-10042380D01*
X78998571Y-10994761D02*
X78903333Y-11042380D01*
X78712857Y-11042380D01*
X78617619Y-10994761D01*
X78570000Y-10899523D01*
X78570000Y-10518571D01*
X78617619Y-10423333D01*
X78712857Y-10375714D01*
X78903333Y-10375714D01*
X78998571Y-10423333D01*
X79046190Y-10518571D01*
X79046190Y-10613809D01*
X78570000Y-10709047D01*
X77108095Y-7832380D02*
X77108095Y-6832380D01*
X77108095Y-7308571D02*
X77679523Y-7308571D01*
X77679523Y-7832380D02*
X77679523Y-6832380D01*
X78679523Y-7832380D02*
X78108095Y-7832380D01*
X78393809Y-7832380D02*
X78393809Y-6832380D01*
X78298571Y-6975238D01*
X78203333Y-7070476D01*
X78108095Y-7118095D01*
%TO.C,H10*%
X79758062Y-105838790D02*
X79758062Y-104838790D01*
X79758062Y-105314981D02*
X80329491Y-105314981D01*
X80329491Y-105838790D02*
X80329491Y-104838790D01*
X80948538Y-105838790D02*
X80853300Y-105791171D01*
X80805681Y-105743552D01*
X80758062Y-105648314D01*
X80758062Y-105362600D01*
X80805681Y-105267362D01*
X80853300Y-105219743D01*
X80948538Y-105172124D01*
X81091395Y-105172124D01*
X81186634Y-105219743D01*
X81234253Y-105267362D01*
X81281872Y-105362600D01*
X81281872Y-105648314D01*
X81234253Y-105743552D01*
X81186634Y-105791171D01*
X81091395Y-105838790D01*
X80948538Y-105838790D01*
X81853300Y-105838790D02*
X81758062Y-105791171D01*
X81710443Y-105695933D01*
X81710443Y-104838790D01*
X82615205Y-105791171D02*
X82519967Y-105838790D01*
X82329491Y-105838790D01*
X82234253Y-105791171D01*
X82186634Y-105695933D01*
X82186634Y-105314981D01*
X82234253Y-105219743D01*
X82329491Y-105172124D01*
X82519967Y-105172124D01*
X82615205Y-105219743D01*
X82662824Y-105314981D01*
X82662824Y-105410219D01*
X82186634Y-105505457D01*
X79667291Y-102920037D02*
X79667291Y-101920037D01*
X79667291Y-102396228D02*
X80238720Y-102396228D01*
X80238720Y-102920037D02*
X80238720Y-101920037D01*
X81238720Y-102920037D02*
X80667291Y-102920037D01*
X80953006Y-102920037D02*
X80953006Y-101920037D01*
X80857767Y-102062895D01*
X80762529Y-102158133D01*
X80667291Y-102205752D01*
X81857767Y-101920037D02*
X81953006Y-101920037D01*
X82048244Y-101967657D01*
X82095863Y-102015276D01*
X82143482Y-102110514D01*
X82191101Y-102300990D01*
X82191101Y-102539085D01*
X82143482Y-102729561D01*
X82095863Y-102824799D01*
X82048244Y-102872418D01*
X81953006Y-102920037D01*
X81857767Y-102920037D01*
X81762529Y-102872418D01*
X81714910Y-102824799D01*
X81667291Y-102729561D01*
X81619672Y-102539085D01*
X81619672Y-102300990D01*
X81667291Y-102110514D01*
X81714910Y-102015276D01*
X81762529Y-101967657D01*
X81857767Y-101920037D01*
%TO.C,H9*%
X165951428Y-134342380D02*
X165951428Y-133342380D01*
X165951428Y-133818571D02*
X166522857Y-133818571D01*
X166522857Y-134342380D02*
X166522857Y-133342380D01*
X167141904Y-134342380D02*
X167046666Y-134294761D01*
X166999047Y-134247142D01*
X166951428Y-134151904D01*
X166951428Y-133866190D01*
X166999047Y-133770952D01*
X167046666Y-133723333D01*
X167141904Y-133675714D01*
X167284761Y-133675714D01*
X167380000Y-133723333D01*
X167427619Y-133770952D01*
X167475238Y-133866190D01*
X167475238Y-134151904D01*
X167427619Y-134247142D01*
X167380000Y-134294761D01*
X167284761Y-134342380D01*
X167141904Y-134342380D01*
X168046666Y-134342380D02*
X167951428Y-134294761D01*
X167903809Y-134199523D01*
X167903809Y-133342380D01*
X168808571Y-134294761D02*
X168713333Y-134342380D01*
X168522857Y-134342380D01*
X168427619Y-134294761D01*
X168380000Y-134199523D01*
X168380000Y-133818571D01*
X168427619Y-133723333D01*
X168522857Y-133675714D01*
X168713333Y-133675714D01*
X168808571Y-133723333D01*
X168856190Y-133818571D01*
X168856190Y-133913809D01*
X168380000Y-134009047D01*
X166335595Y-131394880D02*
X166335595Y-130394880D01*
X166335595Y-130871071D02*
X166907023Y-130871071D01*
X166907023Y-131394880D02*
X166907023Y-130394880D01*
X167430833Y-131394880D02*
X167621309Y-131394880D01*
X167716547Y-131347261D01*
X167764166Y-131299642D01*
X167859404Y-131156785D01*
X167907023Y-130966309D01*
X167907023Y-130585357D01*
X167859404Y-130490119D01*
X167811785Y-130442500D01*
X167716547Y-130394880D01*
X167526071Y-130394880D01*
X167430833Y-130442500D01*
X167383214Y-130490119D01*
X167335595Y-130585357D01*
X167335595Y-130823452D01*
X167383214Y-130918690D01*
X167430833Y-130966309D01*
X167526071Y-131013928D01*
X167716547Y-131013928D01*
X167811785Y-130966309D01*
X167859404Y-130918690D01*
X167907023Y-130823452D01*
%TO.C,H7*%
X107571428Y-46682380D02*
X107571428Y-45682380D01*
X107571428Y-46158571D02*
X108142857Y-46158571D01*
X108142857Y-46682380D02*
X108142857Y-45682380D01*
X108761904Y-46682380D02*
X108666666Y-46634761D01*
X108619047Y-46587142D01*
X108571428Y-46491904D01*
X108571428Y-46206190D01*
X108619047Y-46110952D01*
X108666666Y-46063333D01*
X108761904Y-46015714D01*
X108904761Y-46015714D01*
X109000000Y-46063333D01*
X109047619Y-46110952D01*
X109095238Y-46206190D01*
X109095238Y-46491904D01*
X109047619Y-46587142D01*
X109000000Y-46634761D01*
X108904761Y-46682380D01*
X108761904Y-46682380D01*
X109666666Y-46682380D02*
X109571428Y-46634761D01*
X109523809Y-46539523D01*
X109523809Y-45682380D01*
X110428571Y-46634761D02*
X110333333Y-46682380D01*
X110142857Y-46682380D01*
X110047619Y-46634761D01*
X110000000Y-46539523D01*
X110000000Y-46158571D01*
X110047619Y-46063333D01*
X110142857Y-46015714D01*
X110333333Y-46015714D01*
X110428571Y-46063333D01*
X110476190Y-46158571D01*
X110476190Y-46253809D01*
X110000000Y-46349047D01*
X107955595Y-43734880D02*
X107955595Y-42734880D01*
X107955595Y-43211071D02*
X108527023Y-43211071D01*
X108527023Y-43734880D02*
X108527023Y-42734880D01*
X108907976Y-42734880D02*
X109574642Y-42734880D01*
X109146071Y-43734880D01*
%TO.C,H2*%
X154571428Y-90242380D02*
X154571428Y-89242380D01*
X154571428Y-89718571D02*
X155142857Y-89718571D01*
X155142857Y-90242380D02*
X155142857Y-89242380D01*
X155761904Y-90242380D02*
X155666666Y-90194761D01*
X155619047Y-90147142D01*
X155571428Y-90051904D01*
X155571428Y-89766190D01*
X155619047Y-89670952D01*
X155666666Y-89623333D01*
X155761904Y-89575714D01*
X155904761Y-89575714D01*
X156000000Y-89623333D01*
X156047619Y-89670952D01*
X156095238Y-89766190D01*
X156095238Y-90051904D01*
X156047619Y-90147142D01*
X156000000Y-90194761D01*
X155904761Y-90242380D01*
X155761904Y-90242380D01*
X156666666Y-90242380D02*
X156571428Y-90194761D01*
X156523809Y-90099523D01*
X156523809Y-89242380D01*
X157428571Y-90194761D02*
X157333333Y-90242380D01*
X157142857Y-90242380D01*
X157047619Y-90194761D01*
X157000000Y-90099523D01*
X157000000Y-89718571D01*
X157047619Y-89623333D01*
X157142857Y-89575714D01*
X157333333Y-89575714D01*
X157428571Y-89623333D01*
X157476190Y-89718571D01*
X157476190Y-89813809D01*
X157000000Y-89909047D01*
X155538095Y-87042380D02*
X155538095Y-86042380D01*
X155538095Y-86518571D02*
X156109523Y-86518571D01*
X156109523Y-87042380D02*
X156109523Y-86042380D01*
X156538095Y-86137619D02*
X156585714Y-86090000D01*
X156680952Y-86042380D01*
X156919047Y-86042380D01*
X157014285Y-86090000D01*
X157061904Y-86137619D01*
X157109523Y-86232857D01*
X157109523Y-86328095D01*
X157061904Y-86470952D01*
X156490476Y-87042380D01*
X157109523Y-87042380D01*
%TO.C,H5*%
X69821428Y-58732380D02*
X69821428Y-57732380D01*
X69821428Y-58208571D02*
X70392857Y-58208571D01*
X70392857Y-58732380D02*
X70392857Y-57732380D01*
X71011904Y-58732380D02*
X70916666Y-58684761D01*
X70869047Y-58637142D01*
X70821428Y-58541904D01*
X70821428Y-58256190D01*
X70869047Y-58160952D01*
X70916666Y-58113333D01*
X71011904Y-58065714D01*
X71154761Y-58065714D01*
X71250000Y-58113333D01*
X71297619Y-58160952D01*
X71345238Y-58256190D01*
X71345238Y-58541904D01*
X71297619Y-58637142D01*
X71250000Y-58684761D01*
X71154761Y-58732380D01*
X71011904Y-58732380D01*
X71916666Y-58732380D02*
X71821428Y-58684761D01*
X71773809Y-58589523D01*
X71773809Y-57732380D01*
X72678571Y-58684761D02*
X72583333Y-58732380D01*
X72392857Y-58732380D01*
X72297619Y-58684761D01*
X72250000Y-58589523D01*
X72250000Y-58208571D01*
X72297619Y-58113333D01*
X72392857Y-58065714D01*
X72583333Y-58065714D01*
X72678571Y-58113333D01*
X72726190Y-58208571D01*
X72726190Y-58303809D01*
X72250000Y-58399047D01*
X70838095Y-55862380D02*
X70838095Y-54862380D01*
X70838095Y-55338571D02*
X71409523Y-55338571D01*
X71409523Y-55862380D02*
X71409523Y-54862380D01*
X72361904Y-54862380D02*
X71885714Y-54862380D01*
X71838095Y-55338571D01*
X71885714Y-55290952D01*
X71980952Y-55243333D01*
X72219047Y-55243333D01*
X72314285Y-55290952D01*
X72361904Y-55338571D01*
X72409523Y-55433809D01*
X72409523Y-55671904D01*
X72361904Y-55767142D01*
X72314285Y-55814761D01*
X72219047Y-55862380D01*
X71980952Y-55862380D01*
X71885714Y-55814761D01*
X71838095Y-55767142D01*
%TO.C,H4*%
X130571428Y-85902380D02*
X130571428Y-84902380D01*
X130571428Y-85378571D02*
X131142857Y-85378571D01*
X131142857Y-85902380D02*
X131142857Y-84902380D01*
X131761904Y-85902380D02*
X131666666Y-85854761D01*
X131619047Y-85807142D01*
X131571428Y-85711904D01*
X131571428Y-85426190D01*
X131619047Y-85330952D01*
X131666666Y-85283333D01*
X131761904Y-85235714D01*
X131904761Y-85235714D01*
X132000000Y-85283333D01*
X132047619Y-85330952D01*
X132095238Y-85426190D01*
X132095238Y-85711904D01*
X132047619Y-85807142D01*
X132000000Y-85854761D01*
X131904761Y-85902380D01*
X131761904Y-85902380D01*
X132666666Y-85902380D02*
X132571428Y-85854761D01*
X132523809Y-85759523D01*
X132523809Y-84902380D01*
X133428571Y-85854761D02*
X133333333Y-85902380D01*
X133142857Y-85902380D01*
X133047619Y-85854761D01*
X133000000Y-85759523D01*
X133000000Y-85378571D01*
X133047619Y-85283333D01*
X133142857Y-85235714D01*
X133333333Y-85235714D01*
X133428571Y-85283333D01*
X133476190Y-85378571D01*
X133476190Y-85473809D01*
X133000000Y-85569047D01*
X130955595Y-82954880D02*
X130955595Y-81954880D01*
X130955595Y-82431071D02*
X131527023Y-82431071D01*
X131527023Y-82954880D02*
X131527023Y-81954880D01*
X132431785Y-82288214D02*
X132431785Y-82954880D01*
X132193690Y-81907261D02*
X131955595Y-82621547D01*
X132574642Y-82621547D01*
%TO.C,H3*%
X32541428Y-55492380D02*
X32541428Y-54492380D01*
X32541428Y-54968571D02*
X33112857Y-54968571D01*
X33112857Y-55492380D02*
X33112857Y-54492380D01*
X33731904Y-55492380D02*
X33636666Y-55444761D01*
X33589047Y-55397142D01*
X33541428Y-55301904D01*
X33541428Y-55016190D01*
X33589047Y-54920952D01*
X33636666Y-54873333D01*
X33731904Y-54825714D01*
X33874761Y-54825714D01*
X33970000Y-54873333D01*
X34017619Y-54920952D01*
X34065238Y-55016190D01*
X34065238Y-55301904D01*
X34017619Y-55397142D01*
X33970000Y-55444761D01*
X33874761Y-55492380D01*
X33731904Y-55492380D01*
X34636666Y-55492380D02*
X34541428Y-55444761D01*
X34493809Y-55349523D01*
X34493809Y-54492380D01*
X35398571Y-55444761D02*
X35303333Y-55492380D01*
X35112857Y-55492380D01*
X35017619Y-55444761D01*
X34970000Y-55349523D01*
X34970000Y-54968571D01*
X35017619Y-54873333D01*
X35112857Y-54825714D01*
X35303333Y-54825714D01*
X35398571Y-54873333D01*
X35446190Y-54968571D01*
X35446190Y-55063809D01*
X34970000Y-55159047D01*
X33998095Y-52422380D02*
X33998095Y-51422380D01*
X33998095Y-51898571D02*
X34569523Y-51898571D01*
X34569523Y-52422380D02*
X34569523Y-51422380D01*
X34950476Y-51422380D02*
X35569523Y-51422380D01*
X35236190Y-51803333D01*
X35379047Y-51803333D01*
X35474285Y-51850952D01*
X35521904Y-51898571D01*
X35569523Y-51993809D01*
X35569523Y-52231904D01*
X35521904Y-52327142D01*
X35474285Y-52374761D01*
X35379047Y-52422380D01*
X35093333Y-52422380D01*
X34998095Y-52374761D01*
X34950476Y-52327142D01*
%TO.C,D27*%
X141801428Y-21556190D02*
X141801428Y-22032380D01*
X141468095Y-21032380D02*
X141801428Y-21556190D01*
X142134761Y-21032380D01*
X142849047Y-21984761D02*
X142753809Y-22032380D01*
X142563333Y-22032380D01*
X142468095Y-21984761D01*
X142420476Y-21889523D01*
X142420476Y-21508571D01*
X142468095Y-21413333D01*
X142563333Y-21365714D01*
X142753809Y-21365714D01*
X142849047Y-21413333D01*
X142896666Y-21508571D01*
X142896666Y-21603809D01*
X142420476Y-21699047D01*
X143468095Y-22032380D02*
X143372857Y-21984761D01*
X143325238Y-21889523D01*
X143325238Y-21032380D01*
X143991904Y-22032380D02*
X143896666Y-21984761D01*
X143849047Y-21889523D01*
X143849047Y-21032380D01*
X144515714Y-22032380D02*
X144420476Y-21984761D01*
X144372857Y-21937142D01*
X144325238Y-21841904D01*
X144325238Y-21556190D01*
X144372857Y-21460952D01*
X144420476Y-21413333D01*
X144515714Y-21365714D01*
X144658571Y-21365714D01*
X144753809Y-21413333D01*
X144801428Y-21460952D01*
X144849047Y-21556190D01*
X144849047Y-21841904D01*
X144801428Y-21937142D01*
X144753809Y-21984761D01*
X144658571Y-22032380D01*
X144515714Y-22032380D01*
X145182380Y-21365714D02*
X145372857Y-22032380D01*
X145563333Y-21556190D01*
X145753809Y-22032380D01*
X145944285Y-21365714D01*
%TO.C,R6*%
X139325888Y-33841607D02*
X139325888Y-33222559D01*
X139706841Y-33555893D01*
X139706841Y-33413035D01*
X139754460Y-33317797D01*
X139802079Y-33270178D01*
X139897317Y-33222559D01*
X140135412Y-33222559D01*
X140230650Y-33270178D01*
X140278269Y-33317797D01*
X140325888Y-33413035D01*
X140325888Y-33698750D01*
X140278269Y-33793988D01*
X140230650Y-33841607D01*
X139325888Y-32889226D02*
X139325888Y-32270178D01*
X139706841Y-32603512D01*
X139706841Y-32460654D01*
X139754460Y-32365416D01*
X139802079Y-32317797D01*
X139897317Y-32270178D01*
X140135412Y-32270178D01*
X140230650Y-32317797D01*
X140278269Y-32365416D01*
X140325888Y-32460654D01*
X140325888Y-32746369D01*
X140278269Y-32841607D01*
X140230650Y-32889226D01*
X139325888Y-31651131D02*
X139325888Y-31555893D01*
X139373508Y-31460654D01*
X139421127Y-31413035D01*
X139516365Y-31365416D01*
X139706841Y-31317797D01*
X139944936Y-31317797D01*
X140135412Y-31365416D01*
X140230650Y-31413035D01*
X140278269Y-31460654D01*
X140325888Y-31555893D01*
X140325888Y-31651131D01*
X140278269Y-31746369D01*
X140230650Y-31793988D01*
X140135412Y-31841607D01*
X139944936Y-31889226D01*
X139706841Y-31889226D01*
X139516365Y-31841607D01*
X139421127Y-31793988D01*
X139373508Y-31746369D01*
X139325888Y-31651131D01*
D15*
X138318467Y-32801734D02*
X138080372Y-32968401D01*
X138318467Y-33087448D02*
X137818467Y-33087448D01*
X137818467Y-32896972D01*
X137842277Y-32849353D01*
X137866086Y-32825543D01*
X137913705Y-32801734D01*
X137985134Y-32801734D01*
X138032753Y-32825543D01*
X138056562Y-32849353D01*
X138080372Y-32896972D01*
X138080372Y-33087448D01*
X137818467Y-32373162D02*
X137818467Y-32468401D01*
X137842277Y-32516020D01*
X137866086Y-32539829D01*
X137937515Y-32587448D01*
X138032753Y-32611258D01*
X138223229Y-32611258D01*
X138270848Y-32587448D01*
X138294657Y-32563639D01*
X138318467Y-32516020D01*
X138318467Y-32420781D01*
X138294657Y-32373162D01*
X138270848Y-32349353D01*
X138223229Y-32325543D01*
X138104181Y-32325543D01*
X138056562Y-32349353D01*
X138032753Y-32373162D01*
X138008943Y-32420781D01*
X138008943Y-32516020D01*
X138032753Y-32563639D01*
X138056562Y-32587448D01*
X138104181Y-32611258D01*
%TO.C,RED1*%
D13*
X149905952Y-22294880D02*
X149429761Y-22294880D01*
X149429761Y-21294880D01*
X150239285Y-21771071D02*
X150572619Y-21771071D01*
X150715476Y-22294880D02*
X150239285Y-22294880D01*
X150239285Y-21294880D01*
X150715476Y-21294880D01*
X151144047Y-22294880D02*
X151144047Y-21294880D01*
X151382142Y-21294880D01*
X151525000Y-21342500D01*
X151620238Y-21437738D01*
X151667857Y-21532976D01*
X151715476Y-21723452D01*
X151715476Y-21866309D01*
X151667857Y-22056785D01*
X151620238Y-22152023D01*
X151525000Y-22247261D01*
X151382142Y-22294880D01*
X151144047Y-22294880D01*
X152667857Y-22294880D02*
X152096428Y-22294880D01*
X152382142Y-22294880D02*
X152382142Y-21294880D01*
X152286904Y-21437738D01*
X152191666Y-21532976D01*
X152096428Y-21580595D01*
%TO.C,D26*%
X134549107Y-21248750D02*
X134453869Y-21201130D01*
X134311011Y-21201130D01*
X134168154Y-21248750D01*
X134072916Y-21343988D01*
X134025297Y-21439226D01*
X133977678Y-21629702D01*
X133977678Y-21772559D01*
X134025297Y-21963035D01*
X134072916Y-22058273D01*
X134168154Y-22153511D01*
X134311011Y-22201130D01*
X134406250Y-22201130D01*
X134549107Y-22153511D01*
X134596726Y-22105892D01*
X134596726Y-21772559D01*
X134406250Y-21772559D01*
X135025297Y-22201130D02*
X135025297Y-21534464D01*
X135025297Y-21724940D02*
X135072916Y-21629702D01*
X135120535Y-21582083D01*
X135215773Y-21534464D01*
X135311011Y-21534464D01*
X136025297Y-22153511D02*
X135930059Y-22201130D01*
X135739583Y-22201130D01*
X135644345Y-22153511D01*
X135596726Y-22058273D01*
X135596726Y-21677321D01*
X135644345Y-21582083D01*
X135739583Y-21534464D01*
X135930059Y-21534464D01*
X136025297Y-21582083D01*
X136072916Y-21677321D01*
X136072916Y-21772559D01*
X135596726Y-21867797D01*
X136882440Y-22153511D02*
X136787202Y-22201130D01*
X136596726Y-22201130D01*
X136501488Y-22153511D01*
X136453869Y-22058273D01*
X136453869Y-21677321D01*
X136501488Y-21582083D01*
X136596726Y-21534464D01*
X136787202Y-21534464D01*
X136882440Y-21582083D01*
X136930059Y-21677321D01*
X136930059Y-21772559D01*
X136453869Y-21867797D01*
X137358630Y-21534464D02*
X137358630Y-22201130D01*
X137358630Y-21629702D02*
X137406250Y-21582083D01*
X137501488Y-21534464D01*
X137644345Y-21534464D01*
X137739583Y-21582083D01*
X137787202Y-21677321D01*
X137787202Y-22201130D01*
%TO.C,R8*%
X135913442Y-33979125D02*
X135913442Y-33360077D01*
X136294395Y-33693411D01*
X136294395Y-33550553D01*
X136342014Y-33455315D01*
X136389633Y-33407696D01*
X136484871Y-33360077D01*
X136722966Y-33360077D01*
X136818204Y-33407696D01*
X136865823Y-33455315D01*
X136913442Y-33550553D01*
X136913442Y-33836268D01*
X136865823Y-33931506D01*
X136818204Y-33979125D01*
X135913442Y-33026744D02*
X135913442Y-32407696D01*
X136294395Y-32741030D01*
X136294395Y-32598172D01*
X136342014Y-32502934D01*
X136389633Y-32455315D01*
X136484871Y-32407696D01*
X136722966Y-32407696D01*
X136818204Y-32455315D01*
X136865823Y-32502934D01*
X136913442Y-32598172D01*
X136913442Y-32883887D01*
X136865823Y-32979125D01*
X136818204Y-33026744D01*
X135913442Y-31788649D02*
X135913442Y-31693411D01*
X135961062Y-31598172D01*
X136008681Y-31550553D01*
X136103919Y-31502934D01*
X136294395Y-31455315D01*
X136532490Y-31455315D01*
X136722966Y-31502934D01*
X136818204Y-31550553D01*
X136865823Y-31598172D01*
X136913442Y-31693411D01*
X136913442Y-31788649D01*
X136865823Y-31883887D01*
X136818204Y-31931506D01*
X136722966Y-31979125D01*
X136532490Y-32026744D01*
X136294395Y-32026744D01*
X136103919Y-31979125D01*
X136008681Y-31931506D01*
X135961062Y-31883887D01*
X135913442Y-31788649D01*
D15*
X135037252Y-32776744D02*
X134799157Y-32943411D01*
X135037252Y-33062458D02*
X134537252Y-33062458D01*
X134537252Y-32871982D01*
X134561062Y-32824363D01*
X134584871Y-32800553D01*
X134632490Y-32776744D01*
X134703919Y-32776744D01*
X134751538Y-32800553D01*
X134775347Y-32824363D01*
X134799157Y-32871982D01*
X134799157Y-33062458D01*
X134751538Y-32491030D02*
X134727728Y-32538649D01*
X134703919Y-32562458D01*
X134656300Y-32586268D01*
X134632490Y-32586268D01*
X134584871Y-32562458D01*
X134561062Y-32538649D01*
X134537252Y-32491030D01*
X134537252Y-32395791D01*
X134561062Y-32348172D01*
X134584871Y-32324363D01*
X134632490Y-32300553D01*
X134656300Y-32300553D01*
X134703919Y-32324363D01*
X134727728Y-32348172D01*
X134751538Y-32395791D01*
X134751538Y-32491030D01*
X134775347Y-32538649D01*
X134799157Y-32562458D01*
X134846776Y-32586268D01*
X134942014Y-32586268D01*
X134989633Y-32562458D01*
X135013442Y-32538649D01*
X135037252Y-32491030D01*
X135037252Y-32395791D01*
X135013442Y-32348172D01*
X134989633Y-32324363D01*
X134942014Y-32300553D01*
X134846776Y-32300553D01*
X134799157Y-32324363D01*
X134775347Y-32348172D01*
X134751538Y-32395791D01*
%TO.C,SW19*%
D13*
X57892380Y-99948571D02*
X57416190Y-100281904D01*
X57892380Y-100520000D02*
X56892380Y-100520000D01*
X56892380Y-100139047D01*
X56940000Y-100043809D01*
X56987619Y-99996190D01*
X57082857Y-99948571D01*
X57225714Y-99948571D01*
X57320952Y-99996190D01*
X57368571Y-100043809D01*
X57416190Y-100139047D01*
X57416190Y-100520000D01*
X57892380Y-99377142D02*
X57844761Y-99472380D01*
X57797142Y-99520000D01*
X57701904Y-99567619D01*
X57416190Y-99567619D01*
X57320952Y-99520000D01*
X57273333Y-99472380D01*
X57225714Y-99377142D01*
X57225714Y-99234285D01*
X57273333Y-99139047D01*
X57320952Y-99091428D01*
X57416190Y-99043809D01*
X57701904Y-99043809D01*
X57797142Y-99091428D01*
X57844761Y-99139047D01*
X57892380Y-99234285D01*
X57892380Y-99377142D01*
X57225714Y-98758095D02*
X57225714Y-98377142D01*
X56892380Y-98615238D02*
X57749523Y-98615238D01*
X57844761Y-98567619D01*
X57892380Y-98472380D01*
X57892380Y-98377142D01*
X57892380Y-97615238D02*
X57368571Y-97615238D01*
X57273333Y-97662857D01*
X57225714Y-97758095D01*
X57225714Y-97948571D01*
X57273333Y-98043809D01*
X57844761Y-97615238D02*
X57892380Y-97710476D01*
X57892380Y-97948571D01*
X57844761Y-98043809D01*
X57749523Y-98091428D01*
X57654285Y-98091428D01*
X57559047Y-98043809D01*
X57511428Y-97948571D01*
X57511428Y-97710476D01*
X57463809Y-97615238D01*
X57892380Y-97139047D02*
X57225714Y-97139047D01*
X57416190Y-97139047D02*
X57320952Y-97091428D01*
X57273333Y-97043809D01*
X57225714Y-96948571D01*
X57225714Y-96853333D01*
X57225714Y-96615238D02*
X57892380Y-96377142D01*
X57225714Y-96139047D02*
X57892380Y-96377142D01*
X58130476Y-96472380D01*
X58178095Y-96520000D01*
X58225714Y-96615238D01*
X57987619Y-95996190D02*
X57987619Y-95234285D01*
X57368571Y-94996190D02*
X57368571Y-94662857D01*
X57892380Y-94520000D02*
X57892380Y-94996190D01*
X56892380Y-94996190D01*
X56892380Y-94520000D01*
X57225714Y-94091428D02*
X57892380Y-94091428D01*
X57320952Y-94091428D02*
X57273333Y-94043809D01*
X57225714Y-93948571D01*
X57225714Y-93805714D01*
X57273333Y-93710476D01*
X57368571Y-93662857D01*
X57892380Y-93662857D01*
X57844761Y-92758095D02*
X57892380Y-92853333D01*
X57892380Y-93043809D01*
X57844761Y-93139047D01*
X57797142Y-93186666D01*
X57701904Y-93234285D01*
X57416190Y-93234285D01*
X57320952Y-93186666D01*
X57273333Y-93139047D01*
X57225714Y-93043809D01*
X57225714Y-92853333D01*
X57273333Y-92758095D01*
X57892380Y-92186666D02*
X57844761Y-92281904D01*
X57797142Y-92329523D01*
X57701904Y-92377142D01*
X57416190Y-92377142D01*
X57320952Y-92329523D01*
X57273333Y-92281904D01*
X57225714Y-92186666D01*
X57225714Y-92043809D01*
X57273333Y-91948571D01*
X57320952Y-91900952D01*
X57416190Y-91853333D01*
X57701904Y-91853333D01*
X57797142Y-91900952D01*
X57844761Y-91948571D01*
X57892380Y-92043809D01*
X57892380Y-92186666D01*
X57892380Y-90996190D02*
X56892380Y-90996190D01*
X57844761Y-90996190D02*
X57892380Y-91091428D01*
X57892380Y-91281904D01*
X57844761Y-91377142D01*
X57797142Y-91424761D01*
X57701904Y-91472380D01*
X57416190Y-91472380D01*
X57320952Y-91424761D01*
X57273333Y-91377142D01*
X57225714Y-91281904D01*
X57225714Y-91091428D01*
X57273333Y-90996190D01*
X57844761Y-90139047D02*
X57892380Y-90234285D01*
X57892380Y-90424761D01*
X57844761Y-90520000D01*
X57749523Y-90567619D01*
X57368571Y-90567619D01*
X57273333Y-90520000D01*
X57225714Y-90424761D01*
X57225714Y-90234285D01*
X57273333Y-90139047D01*
X57368571Y-90091428D01*
X57463809Y-90091428D01*
X57559047Y-90567619D01*
X57892380Y-89662857D02*
X57225714Y-89662857D01*
X57416190Y-89662857D02*
X57320952Y-89615238D01*
X57273333Y-89567619D01*
X57225714Y-89472380D01*
X57225714Y-89377142D01*
X63580476Y-99174761D02*
X63723333Y-99222380D01*
X63961428Y-99222380D01*
X64056666Y-99174761D01*
X64104285Y-99127142D01*
X64151904Y-99031904D01*
X64151904Y-98936666D01*
X64104285Y-98841428D01*
X64056666Y-98793809D01*
X63961428Y-98746190D01*
X63770952Y-98698571D01*
X63675714Y-98650952D01*
X63628095Y-98603333D01*
X63580476Y-98508095D01*
X63580476Y-98412857D01*
X63628095Y-98317619D01*
X63675714Y-98270000D01*
X63770952Y-98222380D01*
X64009047Y-98222380D01*
X64151904Y-98270000D01*
X64485238Y-98222380D02*
X64723333Y-99222380D01*
X64913809Y-98508095D01*
X65104285Y-99222380D01*
X65342380Y-98222380D01*
X66247142Y-99222380D02*
X65675714Y-99222380D01*
X65961428Y-99222380D02*
X65961428Y-98222380D01*
X65866190Y-98365238D01*
X65770952Y-98460476D01*
X65675714Y-98508095D01*
X66723333Y-99222380D02*
X66913809Y-99222380D01*
X67009047Y-99174761D01*
X67056666Y-99127142D01*
X67151904Y-98984285D01*
X67199523Y-98793809D01*
X67199523Y-98412857D01*
X67151904Y-98317619D01*
X67104285Y-98270000D01*
X67009047Y-98222380D01*
X66818571Y-98222380D01*
X66723333Y-98270000D01*
X66675714Y-98317619D01*
X66628095Y-98412857D01*
X66628095Y-98650952D01*
X66675714Y-98746190D01*
X66723333Y-98793809D01*
X66818571Y-98841428D01*
X67009047Y-98841428D01*
X67104285Y-98793809D01*
X67151904Y-98746190D01*
X67199523Y-98650952D01*
%TO.C,R4*%
X39462380Y-21950952D02*
X39462380Y-22427142D01*
X39938571Y-22474761D01*
X39890952Y-22427142D01*
X39843333Y-22331904D01*
X39843333Y-22093809D01*
X39890952Y-21998571D01*
X39938571Y-21950952D01*
X40033809Y-21903333D01*
X40271904Y-21903333D01*
X40367142Y-21950952D01*
X40414761Y-21998571D01*
X40462380Y-22093809D01*
X40462380Y-22331904D01*
X40414761Y-22427142D01*
X40367142Y-22474761D01*
X40367142Y-21474761D02*
X40414761Y-21427142D01*
X40462380Y-21474761D01*
X40414761Y-21522380D01*
X40367142Y-21474761D01*
X40462380Y-21474761D01*
X40462380Y-20474761D02*
X40462380Y-21046190D01*
X40462380Y-20760476D02*
X39462380Y-20760476D01*
X39605238Y-20855714D01*
X39700476Y-20950952D01*
X39748095Y-21046190D01*
X40462380Y-20046190D02*
X39462380Y-20046190D01*
X40081428Y-19950952D02*
X40462380Y-19665238D01*
X39795714Y-19665238D02*
X40176666Y-20046190D01*
D15*
X38586190Y-21153333D02*
X38348095Y-21320000D01*
X38586190Y-21439047D02*
X38086190Y-21439047D01*
X38086190Y-21248571D01*
X38110000Y-21200952D01*
X38133809Y-21177142D01*
X38181428Y-21153333D01*
X38252857Y-21153333D01*
X38300476Y-21177142D01*
X38324285Y-21200952D01*
X38348095Y-21248571D01*
X38348095Y-21439047D01*
X38252857Y-20724761D02*
X38586190Y-20724761D01*
X38062380Y-20843809D02*
X38419523Y-20962857D01*
X38419523Y-20653333D01*
%TO.C,R3*%
D13*
X28383339Y-18293276D02*
X28383339Y-18769466D01*
X28859530Y-18817085D01*
X28811911Y-18769466D01*
X28764292Y-18674228D01*
X28764292Y-18436133D01*
X28811911Y-18340895D01*
X28859530Y-18293276D01*
X28954768Y-18245657D01*
X29192863Y-18245657D01*
X29288101Y-18293276D01*
X29335720Y-18340895D01*
X29383339Y-18436133D01*
X29383339Y-18674228D01*
X29335720Y-18769466D01*
X29288101Y-18817085D01*
X29288101Y-17817085D02*
X29335720Y-17769466D01*
X29383339Y-17817085D01*
X29335720Y-17864704D01*
X29288101Y-17817085D01*
X29383339Y-17817085D01*
X29383339Y-16817085D02*
X29383339Y-17388514D01*
X29383339Y-17102800D02*
X28383339Y-17102800D01*
X28526197Y-17198038D01*
X28621435Y-17293276D01*
X28669054Y-17388514D01*
X29383339Y-16388514D02*
X28383339Y-16388514D01*
X29002387Y-16293276D02*
X29383339Y-16007562D01*
X28716673Y-16007562D02*
X29097625Y-16388514D01*
D15*
X27507149Y-17495657D02*
X27269054Y-17662324D01*
X27507149Y-17781371D02*
X27007149Y-17781371D01*
X27007149Y-17590895D01*
X27030959Y-17543276D01*
X27054768Y-17519466D01*
X27102387Y-17495657D01*
X27173816Y-17495657D01*
X27221435Y-17519466D01*
X27245244Y-17543276D01*
X27269054Y-17590895D01*
X27269054Y-17781371D01*
X27007149Y-17328990D02*
X27007149Y-17019466D01*
X27197625Y-17186133D01*
X27197625Y-17114704D01*
X27221435Y-17067085D01*
X27245244Y-17043276D01*
X27292863Y-17019466D01*
X27411911Y-17019466D01*
X27459530Y-17043276D01*
X27483339Y-17067085D01*
X27507149Y-17114704D01*
X27507149Y-17257562D01*
X27483339Y-17305181D01*
X27459530Y-17328990D01*
%TO.C,U2*%
D16*
X38428571Y-24589285D02*
X38428571Y-25196428D01*
X38464285Y-25267857D01*
X38500000Y-25303571D01*
X38571428Y-25339285D01*
X38714285Y-25339285D01*
X38785714Y-25303571D01*
X38821428Y-25267857D01*
X38857142Y-25196428D01*
X38857142Y-24589285D01*
X39178571Y-24660714D02*
X39214285Y-24625000D01*
X39285714Y-24589285D01*
X39464285Y-24589285D01*
X39535714Y-24625000D01*
X39571428Y-24660714D01*
X39607142Y-24732142D01*
X39607142Y-24803571D01*
X39571428Y-24910714D01*
X39142857Y-25339285D01*
X39607142Y-25339285D01*
%TO.C,R7*%
D13*
X132148095Y-72897619D02*
X132195714Y-72850000D01*
X132290952Y-72802380D01*
X132529047Y-72802380D01*
X132624285Y-72850000D01*
X132671904Y-72897619D01*
X132719523Y-72992857D01*
X132719523Y-73088095D01*
X132671904Y-73230952D01*
X132100476Y-73802380D01*
X132719523Y-73802380D01*
X133100476Y-72897619D02*
X133148095Y-72850000D01*
X133243333Y-72802380D01*
X133481428Y-72802380D01*
X133576666Y-72850000D01*
X133624285Y-72897619D01*
X133671904Y-72992857D01*
X133671904Y-73088095D01*
X133624285Y-73230952D01*
X133052857Y-73802380D01*
X133671904Y-73802380D01*
D15*
X132826666Y-75226190D02*
X132660000Y-74988095D01*
X132540952Y-75226190D02*
X132540952Y-74726190D01*
X132731428Y-74726190D01*
X132779047Y-74750000D01*
X132802857Y-74773809D01*
X132826666Y-74821428D01*
X132826666Y-74892857D01*
X132802857Y-74940476D01*
X132779047Y-74964285D01*
X132731428Y-74988095D01*
X132540952Y-74988095D01*
X132993333Y-74726190D02*
X133326666Y-74726190D01*
X133112380Y-75226190D01*
%TO.C,R5*%
D13*
X132148095Y-70397619D02*
X132195714Y-70350000D01*
X132290952Y-70302380D01*
X132529047Y-70302380D01*
X132624285Y-70350000D01*
X132671904Y-70397619D01*
X132719523Y-70492857D01*
X132719523Y-70588095D01*
X132671904Y-70730952D01*
X132100476Y-71302380D01*
X132719523Y-71302380D01*
X133100476Y-70397619D02*
X133148095Y-70350000D01*
X133243333Y-70302380D01*
X133481428Y-70302380D01*
X133576666Y-70350000D01*
X133624285Y-70397619D01*
X133671904Y-70492857D01*
X133671904Y-70588095D01*
X133624285Y-70730952D01*
X133052857Y-71302380D01*
X133671904Y-71302380D01*
D15*
X132826666Y-72726190D02*
X132660000Y-72488095D01*
X132540952Y-72726190D02*
X132540952Y-72226190D01*
X132731428Y-72226190D01*
X132779047Y-72250000D01*
X132802857Y-72273809D01*
X132826666Y-72321428D01*
X132826666Y-72392857D01*
X132802857Y-72440476D01*
X132779047Y-72464285D01*
X132731428Y-72488095D01*
X132540952Y-72488095D01*
X133279047Y-72226190D02*
X133040952Y-72226190D01*
X133017142Y-72464285D01*
X133040952Y-72440476D01*
X133088571Y-72416666D01*
X133207619Y-72416666D01*
X133255238Y-72440476D01*
X133279047Y-72464285D01*
X133302857Y-72511904D01*
X133302857Y-72630952D01*
X133279047Y-72678571D01*
X133255238Y-72702380D01*
X133207619Y-72726190D01*
X133088571Y-72726190D01*
X133040952Y-72702380D01*
X133017142Y-72678571D01*
%TO.C,R2*%
D13*
X151678127Y-63601724D02*
X151106699Y-63601724D01*
X151392413Y-63601724D02*
X151392413Y-62601724D01*
X151297175Y-62744582D01*
X151201937Y-62839820D01*
X151106699Y-62887439D01*
X152297175Y-62601724D02*
X152392413Y-62601724D01*
X152487651Y-62649344D01*
X152535270Y-62696963D01*
X152582889Y-62792201D01*
X152630508Y-62982677D01*
X152630508Y-63220772D01*
X152582889Y-63411248D01*
X152535270Y-63506486D01*
X152487651Y-63554105D01*
X152392413Y-63601724D01*
X152297175Y-63601724D01*
X152201937Y-63554105D01*
X152154318Y-63506486D01*
X152106699Y-63411248D01*
X152059080Y-63220772D01*
X152059080Y-62982677D01*
X152106699Y-62792201D01*
X152154318Y-62696963D01*
X152201937Y-62649344D01*
X152297175Y-62601724D01*
X153059080Y-63601724D02*
X153059080Y-62601724D01*
X153154318Y-63220772D02*
X153440032Y-63601724D01*
X153440032Y-62935058D02*
X153059080Y-63316010D01*
D15*
X152190032Y-61725534D02*
X152023366Y-61487439D01*
X151904318Y-61725534D02*
X151904318Y-61225534D01*
X152094794Y-61225534D01*
X152142413Y-61249344D01*
X152166223Y-61273153D01*
X152190032Y-61320772D01*
X152190032Y-61392201D01*
X152166223Y-61439820D01*
X152142413Y-61463629D01*
X152094794Y-61487439D01*
X151904318Y-61487439D01*
X152380508Y-61273153D02*
X152404318Y-61249344D01*
X152451937Y-61225534D01*
X152570985Y-61225534D01*
X152618604Y-61249344D01*
X152642413Y-61273153D01*
X152666223Y-61320772D01*
X152666223Y-61368391D01*
X152642413Y-61439820D01*
X152356699Y-61725534D01*
X152666223Y-61725534D01*
%TO.C,R1*%
D13*
X154257007Y-31995196D02*
X154257007Y-32566625D01*
X154257007Y-32280911D02*
X153257007Y-32280911D01*
X153399865Y-32376149D01*
X153495103Y-32471387D01*
X153542722Y-32566625D01*
X154257007Y-31566625D02*
X153257007Y-31566625D01*
X154257007Y-30995196D02*
X153685579Y-31423768D01*
X153257007Y-30995196D02*
X153828436Y-31566625D01*
D15*
X152380817Y-31864244D02*
X152142722Y-32030911D01*
X152380817Y-32149958D02*
X151880817Y-32149958D01*
X151880817Y-31959482D01*
X151904627Y-31911863D01*
X151928436Y-31888053D01*
X151976055Y-31864244D01*
X152047484Y-31864244D01*
X152095103Y-31888053D01*
X152118912Y-31911863D01*
X152142722Y-31959482D01*
X152142722Y-32149958D01*
X152380817Y-31388053D02*
X152380817Y-31673768D01*
X152380817Y-31530911D02*
X151880817Y-31530911D01*
X151952246Y-31578530D01*
X151999865Y-31626149D01*
X152023674Y-31673768D01*
%TO.C,F1*%
D13*
X28417142Y-27172380D02*
X28417142Y-26172380D01*
X28798095Y-26172380D01*
X28893333Y-26220000D01*
X28940952Y-26267619D01*
X28988571Y-26362857D01*
X28988571Y-26505714D01*
X28940952Y-26600952D01*
X28893333Y-26648571D01*
X28798095Y-26696190D01*
X28417142Y-26696190D01*
X29417142Y-27172380D02*
X29417142Y-26172380D01*
X29798095Y-26172380D01*
X29893333Y-26220000D01*
X29940952Y-26267619D01*
X29988571Y-26362857D01*
X29988571Y-26505714D01*
X29940952Y-26600952D01*
X29893333Y-26648571D01*
X29798095Y-26696190D01*
X29417142Y-26696190D01*
X30274285Y-26172380D02*
X30845714Y-26172380D01*
X30560000Y-27172380D02*
X30560000Y-26172380D01*
X31750476Y-27077142D02*
X31702857Y-27124761D01*
X31560000Y-27172380D01*
X31464761Y-27172380D01*
X31321904Y-27124761D01*
X31226666Y-27029523D01*
X31179047Y-26934285D01*
X31131428Y-26743809D01*
X31131428Y-26600952D01*
X31179047Y-26410476D01*
X31226666Y-26315238D01*
X31321904Y-26220000D01*
X31464761Y-26172380D01*
X31560000Y-26172380D01*
X31702857Y-26220000D01*
X31750476Y-26267619D01*
D12*
X29793333Y-24842857D02*
X29526666Y-24842857D01*
X29526666Y-25261904D02*
X29526666Y-24461904D01*
X29907619Y-24461904D01*
X30631428Y-25261904D02*
X30174285Y-25261904D01*
X30402857Y-25261904D02*
X30402857Y-24461904D01*
X30326666Y-24576190D01*
X30250476Y-24652380D01*
X30174285Y-24690476D01*
%TO.C,C19*%
D13*
X28928571Y-32202380D02*
X28357142Y-32202380D01*
X28642857Y-32202380D02*
X28642857Y-31202380D01*
X28547619Y-31345238D01*
X28452380Y-31440476D01*
X28357142Y-31488095D01*
X29547619Y-31202380D02*
X29642857Y-31202380D01*
X29738095Y-31250000D01*
X29785714Y-31297619D01*
X29833333Y-31392857D01*
X29880952Y-31583333D01*
X29880952Y-31821428D01*
X29833333Y-32011904D01*
X29785714Y-32107142D01*
X29738095Y-32154761D01*
X29642857Y-32202380D01*
X29547619Y-32202380D01*
X29452380Y-32154761D01*
X29404761Y-32107142D01*
X29357142Y-32011904D01*
X29309523Y-31821428D01*
X29309523Y-31583333D01*
X29357142Y-31392857D01*
X29404761Y-31297619D01*
X29452380Y-31250000D01*
X29547619Y-31202380D01*
X30738095Y-31535714D02*
X30738095Y-32202380D01*
X30309523Y-31535714D02*
X30309523Y-32059523D01*
X30357142Y-32154761D01*
X30452380Y-32202380D01*
X30595238Y-32202380D01*
X30690476Y-32154761D01*
X30738095Y-32107142D01*
X31547619Y-31678571D02*
X31214285Y-31678571D01*
X31214285Y-32202380D02*
X31214285Y-31202380D01*
X31690476Y-31202380D01*
D12*
X29485714Y-30285714D02*
X29447619Y-30323809D01*
X29333333Y-30361904D01*
X29257142Y-30361904D01*
X29142857Y-30323809D01*
X29066666Y-30247619D01*
X29028571Y-30171428D01*
X28990476Y-30019047D01*
X28990476Y-29904761D01*
X29028571Y-29752380D01*
X29066666Y-29676190D01*
X29142857Y-29600000D01*
X29257142Y-29561904D01*
X29333333Y-29561904D01*
X29447619Y-29600000D01*
X29485714Y-29638095D01*
X30247619Y-30361904D02*
X29790476Y-30361904D01*
X30019047Y-30361904D02*
X30019047Y-29561904D01*
X29942857Y-29676190D01*
X29866666Y-29752380D01*
X29790476Y-29790476D01*
X30628571Y-30361904D02*
X30780952Y-30361904D01*
X30857142Y-30323809D01*
X30895238Y-30285714D01*
X30971428Y-30171428D01*
X31009523Y-30019047D01*
X31009523Y-29714285D01*
X30971428Y-29638095D01*
X30933333Y-29600000D01*
X30857142Y-29561904D01*
X30704761Y-29561904D01*
X30628571Y-29600000D01*
X30590476Y-29638095D01*
X30552380Y-29714285D01*
X30552380Y-29904761D01*
X30590476Y-29980952D01*
X30628571Y-30019047D01*
X30704761Y-30057142D01*
X30857142Y-30057142D01*
X30933333Y-30019047D01*
X30971428Y-29980952D01*
X31009523Y-29904761D01*
%TO.C,C8*%
D13*
X47404761Y-27132380D02*
X46833333Y-27132380D01*
X47119047Y-27132380D02*
X47119047Y-26132380D01*
X47023809Y-26275238D01*
X46928571Y-26370476D01*
X46833333Y-26418095D01*
X48261904Y-26465714D02*
X48261904Y-27132380D01*
X47833333Y-26465714D02*
X47833333Y-26989523D01*
X47880952Y-27084761D01*
X47976190Y-27132380D01*
X48119047Y-27132380D01*
X48214285Y-27084761D01*
X48261904Y-27037142D01*
X49071428Y-26608571D02*
X48738095Y-26608571D01*
X48738095Y-27132380D02*
X48738095Y-26132380D01*
X49214285Y-26132380D01*
D15*
X47916666Y-25178571D02*
X47892857Y-25202380D01*
X47821428Y-25226190D01*
X47773809Y-25226190D01*
X47702380Y-25202380D01*
X47654761Y-25154761D01*
X47630952Y-25107142D01*
X47607142Y-25011904D01*
X47607142Y-24940476D01*
X47630952Y-24845238D01*
X47654761Y-24797619D01*
X47702380Y-24750000D01*
X47773809Y-24726190D01*
X47821428Y-24726190D01*
X47892857Y-24750000D01*
X47916666Y-24773809D01*
X48202380Y-24940476D02*
X48154761Y-24916666D01*
X48130952Y-24892857D01*
X48107142Y-24845238D01*
X48107142Y-24821428D01*
X48130952Y-24773809D01*
X48154761Y-24750000D01*
X48202380Y-24726190D01*
X48297619Y-24726190D01*
X48345238Y-24750000D01*
X48369047Y-24773809D01*
X48392857Y-24821428D01*
X48392857Y-24845238D01*
X48369047Y-24892857D01*
X48345238Y-24916666D01*
X48297619Y-24940476D01*
X48202380Y-24940476D01*
X48154761Y-24964285D01*
X48130952Y-24988095D01*
X48107142Y-25035714D01*
X48107142Y-25130952D01*
X48130952Y-25178571D01*
X48154761Y-25202380D01*
X48202380Y-25226190D01*
X48297619Y-25226190D01*
X48345238Y-25202380D01*
X48369047Y-25178571D01*
X48392857Y-25130952D01*
X48392857Y-25035714D01*
X48369047Y-24988095D01*
X48345238Y-24964285D01*
X48297619Y-24940476D01*
%TO.C,C7*%
D13*
X47404761Y-32132380D02*
X46833333Y-32132380D01*
X47119047Y-32132380D02*
X47119047Y-31132380D01*
X47023809Y-31275238D01*
X46928571Y-31370476D01*
X46833333Y-31418095D01*
X48261904Y-31465714D02*
X48261904Y-32132380D01*
X47833333Y-31465714D02*
X47833333Y-31989523D01*
X47880952Y-32084761D01*
X47976190Y-32132380D01*
X48119047Y-32132380D01*
X48214285Y-32084761D01*
X48261904Y-32037142D01*
X49071428Y-31608571D02*
X48738095Y-31608571D01*
X48738095Y-32132380D02*
X48738095Y-31132380D01*
X49214285Y-31132380D01*
D15*
X47916666Y-30178571D02*
X47892857Y-30202380D01*
X47821428Y-30226190D01*
X47773809Y-30226190D01*
X47702380Y-30202380D01*
X47654761Y-30154761D01*
X47630952Y-30107142D01*
X47607142Y-30011904D01*
X47607142Y-29940476D01*
X47630952Y-29845238D01*
X47654761Y-29797619D01*
X47702380Y-29750000D01*
X47773809Y-29726190D01*
X47821428Y-29726190D01*
X47892857Y-29750000D01*
X47916666Y-29773809D01*
X48083333Y-29726190D02*
X48416666Y-29726190D01*
X48202380Y-30226190D01*
%TO.C,C6*%
D13*
X37928571Y-32202380D02*
X37357142Y-32202380D01*
X37642857Y-32202380D02*
X37642857Y-31202380D01*
X37547619Y-31345238D01*
X37452380Y-31440476D01*
X37357142Y-31488095D01*
X38547619Y-31202380D02*
X38642857Y-31202380D01*
X38738095Y-31250000D01*
X38785714Y-31297619D01*
X38833333Y-31392857D01*
X38880952Y-31583333D01*
X38880952Y-31821428D01*
X38833333Y-32011904D01*
X38785714Y-32107142D01*
X38738095Y-32154761D01*
X38642857Y-32202380D01*
X38547619Y-32202380D01*
X38452380Y-32154761D01*
X38404761Y-32107142D01*
X38357142Y-32011904D01*
X38309523Y-31821428D01*
X38309523Y-31583333D01*
X38357142Y-31392857D01*
X38404761Y-31297619D01*
X38452380Y-31250000D01*
X38547619Y-31202380D01*
X39738095Y-31535714D02*
X39738095Y-32202380D01*
X39309523Y-31535714D02*
X39309523Y-32059523D01*
X39357142Y-32154761D01*
X39452380Y-32202380D01*
X39595238Y-32202380D01*
X39690476Y-32154761D01*
X39738095Y-32107142D01*
X40547619Y-31678571D02*
X40214285Y-31678571D01*
X40214285Y-32202380D02*
X40214285Y-31202380D01*
X40690476Y-31202380D01*
D12*
X38866666Y-30285714D02*
X38828571Y-30323809D01*
X38714285Y-30361904D01*
X38638095Y-30361904D01*
X38523809Y-30323809D01*
X38447619Y-30247619D01*
X38409523Y-30171428D01*
X38371428Y-30019047D01*
X38371428Y-29904761D01*
X38409523Y-29752380D01*
X38447619Y-29676190D01*
X38523809Y-29600000D01*
X38638095Y-29561904D01*
X38714285Y-29561904D01*
X38828571Y-29600000D01*
X38866666Y-29638095D01*
X39552380Y-29561904D02*
X39400000Y-29561904D01*
X39323809Y-29600000D01*
X39285714Y-29638095D01*
X39209523Y-29752380D01*
X39171428Y-29904761D01*
X39171428Y-30209523D01*
X39209523Y-30285714D01*
X39247619Y-30323809D01*
X39323809Y-30361904D01*
X39476190Y-30361904D01*
X39552380Y-30323809D01*
X39590476Y-30285714D01*
X39628571Y-30209523D01*
X39628571Y-30019047D01*
X39590476Y-29942857D01*
X39552380Y-29904761D01*
X39476190Y-29866666D01*
X39323809Y-29866666D01*
X39247619Y-29904761D01*
X39209523Y-29942857D01*
X39171428Y-30019047D01*
%TO.C,C3*%
D13*
X19935792Y-32788303D02*
X19364364Y-32788303D01*
X19650078Y-32788303D02*
X19650078Y-31788303D01*
X19554840Y-31931161D01*
X19459602Y-32026399D01*
X19364364Y-32074018D01*
X20792935Y-32121637D02*
X20792935Y-32788303D01*
X20364364Y-32121637D02*
X20364364Y-32645446D01*
X20411983Y-32740684D01*
X20507221Y-32788303D01*
X20650078Y-32788303D01*
X20745316Y-32740684D01*
X20792935Y-32693065D01*
X21602459Y-32264494D02*
X21269126Y-32264494D01*
X21269126Y-32788303D02*
X21269126Y-31788303D01*
X21745316Y-31788303D01*
D15*
X20447697Y-30834494D02*
X20423888Y-30858303D01*
X20352459Y-30882113D01*
X20304840Y-30882113D01*
X20233411Y-30858303D01*
X20185792Y-30810684D01*
X20161983Y-30763065D01*
X20138173Y-30667827D01*
X20138173Y-30596399D01*
X20161983Y-30501161D01*
X20185792Y-30453542D01*
X20233411Y-30405923D01*
X20304840Y-30382113D01*
X20352459Y-30382113D01*
X20423888Y-30405923D01*
X20447697Y-30429732D01*
X20614364Y-30382113D02*
X20923888Y-30382113D01*
X20757221Y-30572589D01*
X20828650Y-30572589D01*
X20876269Y-30596399D01*
X20900078Y-30620208D01*
X20923888Y-30667827D01*
X20923888Y-30786875D01*
X20900078Y-30834494D01*
X20876269Y-30858303D01*
X20828650Y-30882113D01*
X20685792Y-30882113D01*
X20638173Y-30858303D01*
X20614364Y-30834494D01*
%TO.C,C1*%
D13*
X131267142Y-71132380D02*
X131362380Y-71132380D01*
X131457619Y-71180000D01*
X131505238Y-71227619D01*
X131552857Y-71322857D01*
X131600476Y-71513333D01*
X131600476Y-71751428D01*
X131552857Y-71941904D01*
X131505238Y-72037142D01*
X131457619Y-72084761D01*
X131362380Y-72132380D01*
X131267142Y-72132380D01*
X131171904Y-72084761D01*
X131124285Y-72037142D01*
X131076666Y-71941904D01*
X131029047Y-71751428D01*
X131029047Y-71513333D01*
X131076666Y-71322857D01*
X131124285Y-71227619D01*
X131171904Y-71180000D01*
X131267142Y-71132380D01*
X132029047Y-72037142D02*
X132076666Y-72084761D01*
X132029047Y-72132380D01*
X131981428Y-72084761D01*
X132029047Y-72037142D01*
X132029047Y-72132380D01*
X133029047Y-72132380D02*
X132457619Y-72132380D01*
X132743333Y-72132380D02*
X132743333Y-71132380D01*
X132648095Y-71275238D01*
X132552857Y-71370476D01*
X132457619Y-71418095D01*
X133886190Y-71465714D02*
X133886190Y-72132380D01*
X133457619Y-71465714D02*
X133457619Y-71989523D01*
X133505238Y-72084761D01*
X133600476Y-72132380D01*
X133743333Y-72132380D01*
X133838571Y-72084761D01*
X133886190Y-72037142D01*
X134695714Y-71608571D02*
X134362380Y-71608571D01*
X134362380Y-72132380D02*
X134362380Y-71132380D01*
X134838571Y-71132380D01*
D15*
X132826666Y-70178571D02*
X132802857Y-70202380D01*
X132731428Y-70226190D01*
X132683809Y-70226190D01*
X132612380Y-70202380D01*
X132564761Y-70154761D01*
X132540952Y-70107142D01*
X132517142Y-70011904D01*
X132517142Y-69940476D01*
X132540952Y-69845238D01*
X132564761Y-69797619D01*
X132612380Y-69750000D01*
X132683809Y-69726190D01*
X132731428Y-69726190D01*
X132802857Y-69750000D01*
X132826666Y-69773809D01*
X133302857Y-70226190D02*
X133017142Y-70226190D01*
X133160000Y-70226190D02*
X133160000Y-69726190D01*
X133112380Y-69797619D01*
X133064761Y-69845238D01*
X133017142Y-69869047D01*
%TD*%
M02*
