%TF.GenerationSoftware,KiCad,Pcbnew,5.1.10*%
%TF.CreationDate,2021-05-25T13:28:19-05:00*%
%TF.ProjectId,nightwing,6e696768-7477-4696-9e67-2e6b69636164,rev?*%
%TF.SameCoordinates,Original*%
%TF.FileFunction,Legend,Top*%
%TF.FilePolarity,Positive*%
%FSLAX46Y46*%
G04 Gerber Fmt 4.6, Leading zero omitted, Abs format (unit mm)*
G04 Created by KiCad (PCBNEW 5.1.10) date 2021-05-25 13:28:19*
%MOMM*%
%LPD*%
G01*
G04 APERTURE LIST*
%ADD10C,0.150000*%
%ADD11C,0.010000*%
%ADD12C,0.120000*%
%ADD13C,0.160000*%
%ADD14C,0.152400*%
G04 APERTURE END LIST*
D10*
X41938666Y-39679380D02*
X41938666Y-38679380D01*
X42510095Y-39679380D01*
X42510095Y-38679380D01*
X42986285Y-39679380D02*
X42986285Y-39012714D01*
X42986285Y-38679380D02*
X42938666Y-38727000D01*
X42986285Y-38774619D01*
X43033904Y-38727000D01*
X42986285Y-38679380D01*
X42986285Y-38774619D01*
X43891047Y-39012714D02*
X43891047Y-39822238D01*
X43843428Y-39917476D01*
X43795809Y-39965095D01*
X43700571Y-40012714D01*
X43557714Y-40012714D01*
X43462476Y-39965095D01*
X43891047Y-39631761D02*
X43795809Y-39679380D01*
X43605333Y-39679380D01*
X43510095Y-39631761D01*
X43462476Y-39584142D01*
X43414857Y-39488904D01*
X43414857Y-39203190D01*
X43462476Y-39107952D01*
X43510095Y-39060333D01*
X43605333Y-39012714D01*
X43795809Y-39012714D01*
X43891047Y-39060333D01*
X44367238Y-39679380D02*
X44367238Y-38679380D01*
X44795809Y-39679380D02*
X44795809Y-39155571D01*
X44748190Y-39060333D01*
X44652952Y-39012714D01*
X44510095Y-39012714D01*
X44414857Y-39060333D01*
X44367238Y-39107952D01*
X45129142Y-39012714D02*
X45510095Y-39012714D01*
X45272000Y-38679380D02*
X45272000Y-39536523D01*
X45319619Y-39631761D01*
X45414857Y-39679380D01*
X45510095Y-39679380D01*
X45748190Y-39012714D02*
X45938666Y-39679380D01*
X46129142Y-39203190D01*
X46319619Y-39679380D01*
X46510095Y-39012714D01*
X46891047Y-39679380D02*
X46891047Y-39012714D01*
X46891047Y-38679380D02*
X46843428Y-38727000D01*
X46891047Y-38774619D01*
X46938666Y-38727000D01*
X46891047Y-38679380D01*
X46891047Y-38774619D01*
X47367238Y-39012714D02*
X47367238Y-39679380D01*
X47367238Y-39107952D02*
X47414857Y-39060333D01*
X47510095Y-39012714D01*
X47652952Y-39012714D01*
X47748190Y-39060333D01*
X47795809Y-39155571D01*
X47795809Y-39679380D01*
X48700571Y-39012714D02*
X48700571Y-39822238D01*
X48652952Y-39917476D01*
X48605333Y-39965095D01*
X48510095Y-40012714D01*
X48367238Y-40012714D01*
X48272000Y-39965095D01*
X48700571Y-39631761D02*
X48605333Y-39679380D01*
X48414857Y-39679380D01*
X48319619Y-39631761D01*
X48272000Y-39584142D01*
X48224380Y-39488904D01*
X48224380Y-39203190D01*
X48272000Y-39107952D01*
X48319619Y-39060333D01*
X48414857Y-39012714D01*
X48605333Y-39012714D01*
X48700571Y-39060333D01*
X49843428Y-39012714D02*
X50081523Y-39679380D01*
X50319619Y-39012714D01*
X51224380Y-39679380D02*
X50652952Y-39679380D01*
X50938666Y-39679380D02*
X50938666Y-38679380D01*
X50843428Y-38822238D01*
X50748190Y-38917476D01*
X50652952Y-38965095D01*
X51652952Y-39584142D02*
X51700571Y-39631761D01*
X51652952Y-39679380D01*
X51605333Y-39631761D01*
X51652952Y-39584142D01*
X51652952Y-39679380D01*
X52319619Y-38679380D02*
X52414857Y-38679380D01*
X52510095Y-38727000D01*
X52557714Y-38774619D01*
X52605333Y-38869857D01*
X52652952Y-39060333D01*
X52652952Y-39298428D01*
X52605333Y-39488904D01*
X52557714Y-39584142D01*
X52510095Y-39631761D01*
X52414857Y-39679380D01*
X52319619Y-39679380D01*
X52224380Y-39631761D01*
X52176761Y-39584142D01*
X52129142Y-39488904D01*
X52081523Y-39298428D01*
X52081523Y-39060333D01*
X52129142Y-38869857D01*
X52176761Y-38774619D01*
X52224380Y-38727000D01*
X52319619Y-38679380D01*
D11*
%TO.C,G\u002A\u002A\u002A*%
G36*
X31093010Y-33779878D02*
G01*
X31111356Y-33791873D01*
X31149459Y-33819982D01*
X31202328Y-33860424D01*
X31264976Y-33909418D01*
X31288036Y-33927685D01*
X31357838Y-33983122D01*
X31424207Y-34035766D01*
X31480487Y-34080339D01*
X31520020Y-34111567D01*
X31525733Y-34116062D01*
X31548768Y-34134236D01*
X31594365Y-34170274D01*
X31660191Y-34222330D01*
X31743915Y-34288561D01*
X31843207Y-34367120D01*
X31955733Y-34456164D01*
X32079163Y-34553848D01*
X32211165Y-34658327D01*
X32349408Y-34767756D01*
X32364633Y-34779809D01*
X32519861Y-34902690D01*
X32682046Y-35031078D01*
X32846965Y-35161629D01*
X33010395Y-35291000D01*
X33168112Y-35415848D01*
X33315894Y-35532831D01*
X33449517Y-35638605D01*
X33564758Y-35729826D01*
X33618034Y-35771997D01*
X33735643Y-35865110D01*
X33855057Y-35959686D01*
X33971678Y-36052081D01*
X34080905Y-36138650D01*
X34178141Y-36215747D01*
X34258785Y-36279729D01*
X34308596Y-36319285D01*
X34396048Y-36388747D01*
X34490644Y-36463832D01*
X34582983Y-36537080D01*
X34663662Y-36601031D01*
X34690750Y-36622485D01*
X34756325Y-36674430D01*
X34839650Y-36740472D01*
X34933605Y-36814968D01*
X35031073Y-36892272D01*
X35124936Y-36966742D01*
X35130515Y-36971169D01*
X35210762Y-37034380D01*
X35282923Y-37090328D01*
X35343229Y-37136163D01*
X35387914Y-37169038D01*
X35413209Y-37186105D01*
X35417172Y-37187875D01*
X35432132Y-37175883D01*
X35460122Y-37143950D01*
X35495954Y-37098140D01*
X35508828Y-37080718D01*
X35540925Y-37036884D01*
X35588577Y-36972088D01*
X35648427Y-36890875D01*
X35717121Y-36797785D01*
X35791300Y-36697362D01*
X35867609Y-36594147D01*
X35942690Y-36492682D01*
X36013188Y-36397511D01*
X36075746Y-36313175D01*
X36121771Y-36251250D01*
X36157520Y-36201864D01*
X36184444Y-36162095D01*
X36197963Y-36138795D01*
X36198722Y-36136156D01*
X36183457Y-36133494D01*
X36139888Y-36131039D01*
X36071463Y-36128860D01*
X35981628Y-36127024D01*
X35873830Y-36125600D01*
X35751515Y-36124655D01*
X35618130Y-36124258D01*
X35595625Y-36124250D01*
X35460757Y-36123943D01*
X35336393Y-36123071D01*
X35225980Y-36121701D01*
X35132965Y-36119903D01*
X35060797Y-36117745D01*
X35012923Y-36115297D01*
X34992791Y-36112628D01*
X34992375Y-36112178D01*
X35003156Y-36098109D01*
X35033487Y-36064857D01*
X35080343Y-36015572D01*
X35140705Y-35953400D01*
X35211549Y-35881490D01*
X35274458Y-35818349D01*
X35556541Y-35536593D01*
X36404560Y-35540702D01*
X37252580Y-35544812D01*
X37363046Y-35719437D01*
X37400079Y-35778064D01*
X37450750Y-35858401D01*
X37511802Y-35955278D01*
X37579976Y-36063525D01*
X37652015Y-36177970D01*
X37724663Y-36293443D01*
X37743055Y-36322687D01*
X37837392Y-36472693D01*
X37916310Y-36598148D01*
X37981291Y-36701378D01*
X38033817Y-36784712D01*
X38075368Y-36850475D01*
X38107427Y-36900996D01*
X38131475Y-36938600D01*
X38148994Y-36965617D01*
X38161464Y-36984371D01*
X38170368Y-36997192D01*
X38177186Y-37006405D01*
X38183250Y-37014147D01*
X38188983Y-37019250D01*
X38197285Y-37020960D01*
X38209953Y-37017957D01*
X38228782Y-37008920D01*
X38255570Y-36992528D01*
X38292113Y-36967460D01*
X38340207Y-36932396D01*
X38401649Y-36886013D01*
X38478234Y-36826992D01*
X38571760Y-36754011D01*
X38684022Y-36665750D01*
X38816818Y-36560886D01*
X38971944Y-36438101D01*
X39040500Y-36383790D01*
X39195114Y-36261294D01*
X39352266Y-36136804D01*
X39508544Y-36013021D01*
X39660534Y-35892648D01*
X39804824Y-35778389D01*
X39938001Y-35672945D01*
X40056652Y-35579019D01*
X40157363Y-35499313D01*
X40236723Y-35436530D01*
X40239062Y-35434681D01*
X40317130Y-35372923D01*
X40416715Y-35294115D01*
X40534447Y-35200925D01*
X40666957Y-35096020D01*
X40810876Y-34982068D01*
X40962834Y-34861736D01*
X41119464Y-34737693D01*
X41277396Y-34612605D01*
X41433260Y-34489140D01*
X41448959Y-34476704D01*
X41592368Y-34363166D01*
X41728958Y-34255165D01*
X41856615Y-34154361D01*
X41973225Y-34062418D01*
X42076675Y-33980998D01*
X42164849Y-33911766D01*
X42235634Y-33856382D01*
X42286916Y-33816511D01*
X42316582Y-33793815D01*
X42322867Y-33789287D01*
X42328023Y-33785753D01*
X42333089Y-33782843D01*
X42340011Y-33781141D01*
X42350731Y-33781229D01*
X42367195Y-33783690D01*
X42391347Y-33789107D01*
X42425131Y-33798062D01*
X42470492Y-33811138D01*
X42529373Y-33828918D01*
X42603718Y-33851984D01*
X42695473Y-33880920D01*
X42806582Y-33916308D01*
X42938988Y-33958731D01*
X43094636Y-34008771D01*
X43275470Y-34067011D01*
X43483435Y-34134034D01*
X43620437Y-34178188D01*
X43772317Y-34227485D01*
X43913260Y-34273918D01*
X44040567Y-34316553D01*
X44151539Y-34354455D01*
X44243479Y-34386688D01*
X44313688Y-34412320D01*
X44359469Y-34430414D01*
X44378123Y-34440037D01*
X44378405Y-34440753D01*
X44367686Y-34458254D01*
X44340472Y-34496206D01*
X44300043Y-34550216D01*
X44249676Y-34615893D01*
X44202887Y-34675847D01*
X44083794Y-34827507D01*
X43950168Y-34998057D01*
X43800898Y-35188920D01*
X43634872Y-35401514D01*
X43450980Y-35637263D01*
X43374551Y-35735312D01*
X43243344Y-35903649D01*
X43130289Y-36048666D01*
X43034029Y-36172097D01*
X42953209Y-36275673D01*
X42886472Y-36361126D01*
X42832464Y-36430188D01*
X42789828Y-36484592D01*
X42757210Y-36526068D01*
X42733253Y-36556350D01*
X42716601Y-36577170D01*
X42705899Y-36590258D01*
X42700061Y-36597051D01*
X42688610Y-36601244D01*
X42665951Y-36597734D01*
X42628930Y-36585264D01*
X42574391Y-36562578D01*
X42499181Y-36528420D01*
X42400144Y-36481534D01*
X42352878Y-36458802D01*
X42252413Y-36411102D01*
X42168662Y-36372897D01*
X42104257Y-36345295D01*
X42061828Y-36329404D01*
X42044007Y-36326329D01*
X42044403Y-36329001D01*
X42061075Y-36349914D01*
X42094902Y-36390282D01*
X42142119Y-36445680D01*
X42198955Y-36511685D01*
X42254918Y-36576156D01*
X42317285Y-36648060D01*
X42373504Y-36713480D01*
X42419777Y-36767946D01*
X42452305Y-36806989D01*
X42466623Y-36825157D01*
X42473553Y-36836070D01*
X42476156Y-36847275D01*
X42472090Y-36862088D01*
X42459013Y-36883821D01*
X42434585Y-36915787D01*
X42396463Y-36961301D01*
X42342306Y-37023676D01*
X42269773Y-37106225D01*
X42260841Y-37116374D01*
X42235738Y-37145032D01*
X42192188Y-37194901D01*
X42132583Y-37263235D01*
X42059313Y-37347288D01*
X41974767Y-37444316D01*
X41881338Y-37551573D01*
X41781414Y-37666312D01*
X41677386Y-37785790D01*
X41571646Y-37907259D01*
X41466583Y-38027976D01*
X41364588Y-38145193D01*
X41268050Y-38256167D01*
X41179362Y-38358151D01*
X41100913Y-38448399D01*
X41035093Y-38524167D01*
X41033310Y-38526221D01*
X40958126Y-38612328D01*
X40889501Y-38690002D01*
X40830225Y-38756159D01*
X40783086Y-38807715D01*
X40750876Y-38841587D01*
X40736384Y-38854690D01*
X40736103Y-38854750D01*
X40719764Y-38846864D01*
X40680116Y-38824691D01*
X40620972Y-38790452D01*
X40546140Y-38746372D01*
X40459432Y-38694673D01*
X40386355Y-38650700D01*
X40291249Y-38593364D01*
X40203464Y-38540659D01*
X40127198Y-38495086D01*
X40066647Y-38459150D01*
X40026012Y-38435352D01*
X40011395Y-38427116D01*
X40003061Y-38429008D01*
X40015569Y-38454205D01*
X40048660Y-38502289D01*
X40094987Y-38563697D01*
X40148664Y-38633229D01*
X40214599Y-38718856D01*
X40285771Y-38811447D01*
X40355158Y-38901870D01*
X40381314Y-38936007D01*
X40546882Y-39152202D01*
X40259512Y-39467819D01*
X40172772Y-39562999D01*
X40083566Y-39660730D01*
X39997009Y-39755421D01*
X39918215Y-39841480D01*
X39852296Y-39913315D01*
X39818415Y-39950125D01*
X39756185Y-40017678D01*
X39679508Y-40101032D01*
X39595381Y-40192574D01*
X39510801Y-40284689D01*
X39446360Y-40354937D01*
X39379799Y-40427163D01*
X39320329Y-40490992D01*
X39271332Y-40542851D01*
X39236190Y-40579168D01*
X39218283Y-40596371D01*
X39216984Y-40597239D01*
X39202705Y-40587980D01*
X39167613Y-40559384D01*
X39114202Y-40513673D01*
X39044967Y-40453070D01*
X38962403Y-40379796D01*
X38869006Y-40296072D01*
X38767270Y-40204122D01*
X38659691Y-40106167D01*
X38548763Y-40004428D01*
X38478266Y-39939376D01*
X38426189Y-39892022D01*
X38382649Y-39853965D01*
X38352857Y-39829664D01*
X38342436Y-39823125D01*
X38340510Y-39825947D01*
X38340110Y-39836031D01*
X38341588Y-39855801D01*
X38345295Y-39887681D01*
X38351585Y-39934097D01*
X38360809Y-39997472D01*
X38373319Y-40080232D01*
X38389469Y-40184800D01*
X38409609Y-40313602D01*
X38434094Y-40469062D01*
X38461229Y-40640687D01*
X38476984Y-40740935D01*
X38495808Y-40861849D01*
X38516041Y-40992697D01*
X38536024Y-41122750D01*
X38551643Y-41225120D01*
X38601851Y-41555553D01*
X37658298Y-42499105D01*
X36714745Y-43442658D01*
X34827735Y-41555448D01*
X34903023Y-41066317D01*
X34925480Y-40920734D01*
X34949863Y-40763207D01*
X34974800Y-40602569D01*
X34998917Y-40447654D01*
X35020842Y-40307294D01*
X35037653Y-40200156D01*
X35053809Y-40095201D01*
X35067539Y-40001486D01*
X35078274Y-39923288D01*
X35085444Y-39864883D01*
X35088481Y-39830548D01*
X35087843Y-39823125D01*
X35074269Y-39833433D01*
X35040294Y-39862598D01*
X34988881Y-39907977D01*
X34922993Y-39966929D01*
X34845596Y-40036812D01*
X34759651Y-40114986D01*
X34729939Y-40142134D01*
X34637112Y-40226894D01*
X34547676Y-40308277D01*
X34465500Y-40382785D01*
X34394449Y-40446921D01*
X34338392Y-40497186D01*
X34301195Y-40530084D01*
X34296981Y-40533736D01*
X34252620Y-40571250D01*
X34225097Y-40590485D01*
X34207351Y-40594066D01*
X34192323Y-40584619D01*
X34183673Y-40575884D01*
X34165241Y-40556039D01*
X34128720Y-40516255D01*
X34077367Y-40460097D01*
X34014441Y-40391131D01*
X33943197Y-40312921D01*
X33883712Y-40247534D01*
X33796433Y-40151688D01*
X33694190Y-40039649D01*
X33583528Y-39918577D01*
X33470995Y-39795629D01*
X33363138Y-39677965D01*
X33288487Y-39596659D01*
X33205029Y-39505692D01*
X33126831Y-39420178D01*
X33056966Y-39343500D01*
X32998506Y-39279037D01*
X32954523Y-39230172D01*
X32928089Y-39200286D01*
X32924126Y-39195630D01*
X32884129Y-39147573D01*
X33159105Y-38790869D01*
X33229665Y-38698852D01*
X33293090Y-38615203D01*
X33346998Y-38543141D01*
X33389007Y-38485882D01*
X33416734Y-38446647D01*
X33427796Y-38428653D01*
X33427822Y-38427906D01*
X33413145Y-38434103D01*
X33374987Y-38454773D01*
X33316956Y-38487829D01*
X33242664Y-38531189D01*
X33155720Y-38582768D01*
X33063514Y-38638198D01*
X32967381Y-38696068D01*
X32880076Y-38748107D01*
X32805294Y-38792152D01*
X32746729Y-38826044D01*
X32708076Y-38847623D01*
X32693170Y-38854750D01*
X32679658Y-38843253D01*
X32648666Y-38811061D01*
X32603333Y-38761620D01*
X32546798Y-38698379D01*
X32482201Y-38624783D01*
X32451531Y-38589429D01*
X32379283Y-38505967D01*
X32291520Y-38404770D01*
X32193609Y-38292019D01*
X32090920Y-38173891D01*
X31988822Y-38056567D01*
X31892683Y-37946226D01*
X31889454Y-37942523D01*
X31794779Y-37833936D01*
X31694959Y-37719428D01*
X31595121Y-37604882D01*
X31500394Y-37496183D01*
X31415905Y-37399212D01*
X31346780Y-37319854D01*
X31342444Y-37314875D01*
X31270182Y-37231910D01*
X31198106Y-37149189D01*
X31131375Y-37072630D01*
X31075147Y-37008149D01*
X31034580Y-36961666D01*
X31034414Y-36961476D01*
X30989960Y-36909357D01*
X30964196Y-36874718D01*
X30954088Y-36851886D01*
X30956605Y-36835186D01*
X30962286Y-36826538D01*
X30979255Y-36805978D01*
X31013177Y-36765731D01*
X31060319Y-36710195D01*
X31116947Y-36643769D01*
X31174424Y-36576577D01*
X31236654Y-36503823D01*
X31292995Y-36437726D01*
X31339669Y-36382736D01*
X31372901Y-36343300D01*
X31388341Y-36324599D01*
X31387934Y-36316165D01*
X31360638Y-36324043D01*
X31306740Y-36348128D01*
X31267292Y-36367528D01*
X31192831Y-36404501D01*
X31102047Y-36448945D01*
X31007347Y-36494816D01*
X30934326Y-36529798D01*
X30745812Y-36619520D01*
X30710551Y-36574291D01*
X30688602Y-36546172D01*
X30651454Y-36498617D01*
X30603465Y-36437204D01*
X30548992Y-36367510D01*
X30520051Y-36330488D01*
X30463172Y-36257661D01*
X30409824Y-36189230D01*
X30364612Y-36131107D01*
X30332136Y-36089205D01*
X30322345Y-36076488D01*
X30296660Y-36043292D01*
X30256455Y-35991712D01*
X30206857Y-35928310D01*
X30152990Y-35859645D01*
X30142611Y-35846437D01*
X30077933Y-35763921D01*
X30003118Y-35668105D01*
X29927405Y-35570841D01*
X29860034Y-35483979D01*
X29859641Y-35483470D01*
X29793877Y-35398723D01*
X29721154Y-35305432D01*
X29650112Y-35214659D01*
X29589392Y-35137464D01*
X29586937Y-35134355D01*
X29450576Y-34961266D01*
X29334239Y-34812590D01*
X29237821Y-34688188D01*
X29161214Y-34587921D01*
X29104315Y-34511650D01*
X29067015Y-34459235D01*
X29049211Y-34430537D01*
X29047680Y-34424826D01*
X29067121Y-34412967D01*
X29090609Y-34405923D01*
X29113122Y-34399519D01*
X29162457Y-34384401D01*
X29235233Y-34361638D01*
X29328067Y-34332303D01*
X29437577Y-34297465D01*
X29560381Y-34258194D01*
X29693096Y-34215562D01*
X29753625Y-34196058D01*
X29988760Y-34120269D01*
X30195455Y-34053766D01*
X30375459Y-33996006D01*
X30530520Y-33946445D01*
X30662389Y-33904539D01*
X30772813Y-33869745D01*
X30863544Y-33841519D01*
X30936329Y-33819318D01*
X30992918Y-33802599D01*
X31035061Y-33790817D01*
X31064507Y-33783429D01*
X31083004Y-33779892D01*
X31092303Y-33779662D01*
X31093010Y-33779878D01*
G37*
X31093010Y-33779878D02*
X31111356Y-33791873D01*
X31149459Y-33819982D01*
X31202328Y-33860424D01*
X31264976Y-33909418D01*
X31288036Y-33927685D01*
X31357838Y-33983122D01*
X31424207Y-34035766D01*
X31480487Y-34080339D01*
X31520020Y-34111567D01*
X31525733Y-34116062D01*
X31548768Y-34134236D01*
X31594365Y-34170274D01*
X31660191Y-34222330D01*
X31743915Y-34288561D01*
X31843207Y-34367120D01*
X31955733Y-34456164D01*
X32079163Y-34553848D01*
X32211165Y-34658327D01*
X32349408Y-34767756D01*
X32364633Y-34779809D01*
X32519861Y-34902690D01*
X32682046Y-35031078D01*
X32846965Y-35161629D01*
X33010395Y-35291000D01*
X33168112Y-35415848D01*
X33315894Y-35532831D01*
X33449517Y-35638605D01*
X33564758Y-35729826D01*
X33618034Y-35771997D01*
X33735643Y-35865110D01*
X33855057Y-35959686D01*
X33971678Y-36052081D01*
X34080905Y-36138650D01*
X34178141Y-36215747D01*
X34258785Y-36279729D01*
X34308596Y-36319285D01*
X34396048Y-36388747D01*
X34490644Y-36463832D01*
X34582983Y-36537080D01*
X34663662Y-36601031D01*
X34690750Y-36622485D01*
X34756325Y-36674430D01*
X34839650Y-36740472D01*
X34933605Y-36814968D01*
X35031073Y-36892272D01*
X35124936Y-36966742D01*
X35130515Y-36971169D01*
X35210762Y-37034380D01*
X35282923Y-37090328D01*
X35343229Y-37136163D01*
X35387914Y-37169038D01*
X35413209Y-37186105D01*
X35417172Y-37187875D01*
X35432132Y-37175883D01*
X35460122Y-37143950D01*
X35495954Y-37098140D01*
X35508828Y-37080718D01*
X35540925Y-37036884D01*
X35588577Y-36972088D01*
X35648427Y-36890875D01*
X35717121Y-36797785D01*
X35791300Y-36697362D01*
X35867609Y-36594147D01*
X35942690Y-36492682D01*
X36013188Y-36397511D01*
X36075746Y-36313175D01*
X36121771Y-36251250D01*
X36157520Y-36201864D01*
X36184444Y-36162095D01*
X36197963Y-36138795D01*
X36198722Y-36136156D01*
X36183457Y-36133494D01*
X36139888Y-36131039D01*
X36071463Y-36128860D01*
X35981628Y-36127024D01*
X35873830Y-36125600D01*
X35751515Y-36124655D01*
X35618130Y-36124258D01*
X35595625Y-36124250D01*
X35460757Y-36123943D01*
X35336393Y-36123071D01*
X35225980Y-36121701D01*
X35132965Y-36119903D01*
X35060797Y-36117745D01*
X35012923Y-36115297D01*
X34992791Y-36112628D01*
X34992375Y-36112178D01*
X35003156Y-36098109D01*
X35033487Y-36064857D01*
X35080343Y-36015572D01*
X35140705Y-35953400D01*
X35211549Y-35881490D01*
X35274458Y-35818349D01*
X35556541Y-35536593D01*
X36404560Y-35540702D01*
X37252580Y-35544812D01*
X37363046Y-35719437D01*
X37400079Y-35778064D01*
X37450750Y-35858401D01*
X37511802Y-35955278D01*
X37579976Y-36063525D01*
X37652015Y-36177970D01*
X37724663Y-36293443D01*
X37743055Y-36322687D01*
X37837392Y-36472693D01*
X37916310Y-36598148D01*
X37981291Y-36701378D01*
X38033817Y-36784712D01*
X38075368Y-36850475D01*
X38107427Y-36900996D01*
X38131475Y-36938600D01*
X38148994Y-36965617D01*
X38161464Y-36984371D01*
X38170368Y-36997192D01*
X38177186Y-37006405D01*
X38183250Y-37014147D01*
X38188983Y-37019250D01*
X38197285Y-37020960D01*
X38209953Y-37017957D01*
X38228782Y-37008920D01*
X38255570Y-36992528D01*
X38292113Y-36967460D01*
X38340207Y-36932396D01*
X38401649Y-36886013D01*
X38478234Y-36826992D01*
X38571760Y-36754011D01*
X38684022Y-36665750D01*
X38816818Y-36560886D01*
X38971944Y-36438101D01*
X39040500Y-36383790D01*
X39195114Y-36261294D01*
X39352266Y-36136804D01*
X39508544Y-36013021D01*
X39660534Y-35892648D01*
X39804824Y-35778389D01*
X39938001Y-35672945D01*
X40056652Y-35579019D01*
X40157363Y-35499313D01*
X40236723Y-35436530D01*
X40239062Y-35434681D01*
X40317130Y-35372923D01*
X40416715Y-35294115D01*
X40534447Y-35200925D01*
X40666957Y-35096020D01*
X40810876Y-34982068D01*
X40962834Y-34861736D01*
X41119464Y-34737693D01*
X41277396Y-34612605D01*
X41433260Y-34489140D01*
X41448959Y-34476704D01*
X41592368Y-34363166D01*
X41728958Y-34255165D01*
X41856615Y-34154361D01*
X41973225Y-34062418D01*
X42076675Y-33980998D01*
X42164849Y-33911766D01*
X42235634Y-33856382D01*
X42286916Y-33816511D01*
X42316582Y-33793815D01*
X42322867Y-33789287D01*
X42328023Y-33785753D01*
X42333089Y-33782843D01*
X42340011Y-33781141D01*
X42350731Y-33781229D01*
X42367195Y-33783690D01*
X42391347Y-33789107D01*
X42425131Y-33798062D01*
X42470492Y-33811138D01*
X42529373Y-33828918D01*
X42603718Y-33851984D01*
X42695473Y-33880920D01*
X42806582Y-33916308D01*
X42938988Y-33958731D01*
X43094636Y-34008771D01*
X43275470Y-34067011D01*
X43483435Y-34134034D01*
X43620437Y-34178188D01*
X43772317Y-34227485D01*
X43913260Y-34273918D01*
X44040567Y-34316553D01*
X44151539Y-34354455D01*
X44243479Y-34386688D01*
X44313688Y-34412320D01*
X44359469Y-34430414D01*
X44378123Y-34440037D01*
X44378405Y-34440753D01*
X44367686Y-34458254D01*
X44340472Y-34496206D01*
X44300043Y-34550216D01*
X44249676Y-34615893D01*
X44202887Y-34675847D01*
X44083794Y-34827507D01*
X43950168Y-34998057D01*
X43800898Y-35188920D01*
X43634872Y-35401514D01*
X43450980Y-35637263D01*
X43374551Y-35735312D01*
X43243344Y-35903649D01*
X43130289Y-36048666D01*
X43034029Y-36172097D01*
X42953209Y-36275673D01*
X42886472Y-36361126D01*
X42832464Y-36430188D01*
X42789828Y-36484592D01*
X42757210Y-36526068D01*
X42733253Y-36556350D01*
X42716601Y-36577170D01*
X42705899Y-36590258D01*
X42700061Y-36597051D01*
X42688610Y-36601244D01*
X42665951Y-36597734D01*
X42628930Y-36585264D01*
X42574391Y-36562578D01*
X42499181Y-36528420D01*
X42400144Y-36481534D01*
X42352878Y-36458802D01*
X42252413Y-36411102D01*
X42168662Y-36372897D01*
X42104257Y-36345295D01*
X42061828Y-36329404D01*
X42044007Y-36326329D01*
X42044403Y-36329001D01*
X42061075Y-36349914D01*
X42094902Y-36390282D01*
X42142119Y-36445680D01*
X42198955Y-36511685D01*
X42254918Y-36576156D01*
X42317285Y-36648060D01*
X42373504Y-36713480D01*
X42419777Y-36767946D01*
X42452305Y-36806989D01*
X42466623Y-36825157D01*
X42473553Y-36836070D01*
X42476156Y-36847275D01*
X42472090Y-36862088D01*
X42459013Y-36883821D01*
X42434585Y-36915787D01*
X42396463Y-36961301D01*
X42342306Y-37023676D01*
X42269773Y-37106225D01*
X42260841Y-37116374D01*
X42235738Y-37145032D01*
X42192188Y-37194901D01*
X42132583Y-37263235D01*
X42059313Y-37347288D01*
X41974767Y-37444316D01*
X41881338Y-37551573D01*
X41781414Y-37666312D01*
X41677386Y-37785790D01*
X41571646Y-37907259D01*
X41466583Y-38027976D01*
X41364588Y-38145193D01*
X41268050Y-38256167D01*
X41179362Y-38358151D01*
X41100913Y-38448399D01*
X41035093Y-38524167D01*
X41033310Y-38526221D01*
X40958126Y-38612328D01*
X40889501Y-38690002D01*
X40830225Y-38756159D01*
X40783086Y-38807715D01*
X40750876Y-38841587D01*
X40736384Y-38854690D01*
X40736103Y-38854750D01*
X40719764Y-38846864D01*
X40680116Y-38824691D01*
X40620972Y-38790452D01*
X40546140Y-38746372D01*
X40459432Y-38694673D01*
X40386355Y-38650700D01*
X40291249Y-38593364D01*
X40203464Y-38540659D01*
X40127198Y-38495086D01*
X40066647Y-38459150D01*
X40026012Y-38435352D01*
X40011395Y-38427116D01*
X40003061Y-38429008D01*
X40015569Y-38454205D01*
X40048660Y-38502289D01*
X40094987Y-38563697D01*
X40148664Y-38633229D01*
X40214599Y-38718856D01*
X40285771Y-38811447D01*
X40355158Y-38901870D01*
X40381314Y-38936007D01*
X40546882Y-39152202D01*
X40259512Y-39467819D01*
X40172772Y-39562999D01*
X40083566Y-39660730D01*
X39997009Y-39755421D01*
X39918215Y-39841480D01*
X39852296Y-39913315D01*
X39818415Y-39950125D01*
X39756185Y-40017678D01*
X39679508Y-40101032D01*
X39595381Y-40192574D01*
X39510801Y-40284689D01*
X39446360Y-40354937D01*
X39379799Y-40427163D01*
X39320329Y-40490992D01*
X39271332Y-40542851D01*
X39236190Y-40579168D01*
X39218283Y-40596371D01*
X39216984Y-40597239D01*
X39202705Y-40587980D01*
X39167613Y-40559384D01*
X39114202Y-40513673D01*
X39044967Y-40453070D01*
X38962403Y-40379796D01*
X38869006Y-40296072D01*
X38767270Y-40204122D01*
X38659691Y-40106167D01*
X38548763Y-40004428D01*
X38478266Y-39939376D01*
X38426189Y-39892022D01*
X38382649Y-39853965D01*
X38352857Y-39829664D01*
X38342436Y-39823125D01*
X38340510Y-39825947D01*
X38340110Y-39836031D01*
X38341588Y-39855801D01*
X38345295Y-39887681D01*
X38351585Y-39934097D01*
X38360809Y-39997472D01*
X38373319Y-40080232D01*
X38389469Y-40184800D01*
X38409609Y-40313602D01*
X38434094Y-40469062D01*
X38461229Y-40640687D01*
X38476984Y-40740935D01*
X38495808Y-40861849D01*
X38516041Y-40992697D01*
X38536024Y-41122750D01*
X38551643Y-41225120D01*
X38601851Y-41555553D01*
X37658298Y-42499105D01*
X36714745Y-43442658D01*
X34827735Y-41555448D01*
X34903023Y-41066317D01*
X34925480Y-40920734D01*
X34949863Y-40763207D01*
X34974800Y-40602569D01*
X34998917Y-40447654D01*
X35020842Y-40307294D01*
X35037653Y-40200156D01*
X35053809Y-40095201D01*
X35067539Y-40001486D01*
X35078274Y-39923288D01*
X35085444Y-39864883D01*
X35088481Y-39830548D01*
X35087843Y-39823125D01*
X35074269Y-39833433D01*
X35040294Y-39862598D01*
X34988881Y-39907977D01*
X34922993Y-39966929D01*
X34845596Y-40036812D01*
X34759651Y-40114986D01*
X34729939Y-40142134D01*
X34637112Y-40226894D01*
X34547676Y-40308277D01*
X34465500Y-40382785D01*
X34394449Y-40446921D01*
X34338392Y-40497186D01*
X34301195Y-40530084D01*
X34296981Y-40533736D01*
X34252620Y-40571250D01*
X34225097Y-40590485D01*
X34207351Y-40594066D01*
X34192323Y-40584619D01*
X34183673Y-40575884D01*
X34165241Y-40556039D01*
X34128720Y-40516255D01*
X34077367Y-40460097D01*
X34014441Y-40391131D01*
X33943197Y-40312921D01*
X33883712Y-40247534D01*
X33796433Y-40151688D01*
X33694190Y-40039649D01*
X33583528Y-39918577D01*
X33470995Y-39795629D01*
X33363138Y-39677965D01*
X33288487Y-39596659D01*
X33205029Y-39505692D01*
X33126831Y-39420178D01*
X33056966Y-39343500D01*
X32998506Y-39279037D01*
X32954523Y-39230172D01*
X32928089Y-39200286D01*
X32924126Y-39195630D01*
X32884129Y-39147573D01*
X33159105Y-38790869D01*
X33229665Y-38698852D01*
X33293090Y-38615203D01*
X33346998Y-38543141D01*
X33389007Y-38485882D01*
X33416734Y-38446647D01*
X33427796Y-38428653D01*
X33427822Y-38427906D01*
X33413145Y-38434103D01*
X33374987Y-38454773D01*
X33316956Y-38487829D01*
X33242664Y-38531189D01*
X33155720Y-38582768D01*
X33063514Y-38638198D01*
X32967381Y-38696068D01*
X32880076Y-38748107D01*
X32805294Y-38792152D01*
X32746729Y-38826044D01*
X32708076Y-38847623D01*
X32693170Y-38854750D01*
X32679658Y-38843253D01*
X32648666Y-38811061D01*
X32603333Y-38761620D01*
X32546798Y-38698379D01*
X32482201Y-38624783D01*
X32451531Y-38589429D01*
X32379283Y-38505967D01*
X32291520Y-38404770D01*
X32193609Y-38292019D01*
X32090920Y-38173891D01*
X31988822Y-38056567D01*
X31892683Y-37946226D01*
X31889454Y-37942523D01*
X31794779Y-37833936D01*
X31694959Y-37719428D01*
X31595121Y-37604882D01*
X31500394Y-37496183D01*
X31415905Y-37399212D01*
X31346780Y-37319854D01*
X31342444Y-37314875D01*
X31270182Y-37231910D01*
X31198106Y-37149189D01*
X31131375Y-37072630D01*
X31075147Y-37008149D01*
X31034580Y-36961666D01*
X31034414Y-36961476D01*
X30989960Y-36909357D01*
X30964196Y-36874718D01*
X30954088Y-36851886D01*
X30956605Y-36835186D01*
X30962286Y-36826538D01*
X30979255Y-36805978D01*
X31013177Y-36765731D01*
X31060319Y-36710195D01*
X31116947Y-36643769D01*
X31174424Y-36576577D01*
X31236654Y-36503823D01*
X31292995Y-36437726D01*
X31339669Y-36382736D01*
X31372901Y-36343300D01*
X31388341Y-36324599D01*
X31387934Y-36316165D01*
X31360638Y-36324043D01*
X31306740Y-36348128D01*
X31267292Y-36367528D01*
X31192831Y-36404501D01*
X31102047Y-36448945D01*
X31007347Y-36494816D01*
X30934326Y-36529798D01*
X30745812Y-36619520D01*
X30710551Y-36574291D01*
X30688602Y-36546172D01*
X30651454Y-36498617D01*
X30603465Y-36437204D01*
X30548992Y-36367510D01*
X30520051Y-36330488D01*
X30463172Y-36257661D01*
X30409824Y-36189230D01*
X30364612Y-36131107D01*
X30332136Y-36089205D01*
X30322345Y-36076488D01*
X30296660Y-36043292D01*
X30256455Y-35991712D01*
X30206857Y-35928310D01*
X30152990Y-35859645D01*
X30142611Y-35846437D01*
X30077933Y-35763921D01*
X30003118Y-35668105D01*
X29927405Y-35570841D01*
X29860034Y-35483979D01*
X29859641Y-35483470D01*
X29793877Y-35398723D01*
X29721154Y-35305432D01*
X29650112Y-35214659D01*
X29589392Y-35137464D01*
X29586937Y-35134355D01*
X29450576Y-34961266D01*
X29334239Y-34812590D01*
X29237821Y-34688188D01*
X29161214Y-34587921D01*
X29104315Y-34511650D01*
X29067015Y-34459235D01*
X29049211Y-34430537D01*
X29047680Y-34424826D01*
X29067121Y-34412967D01*
X29090609Y-34405923D01*
X29113122Y-34399519D01*
X29162457Y-34384401D01*
X29235233Y-34361638D01*
X29328067Y-34332303D01*
X29437577Y-34297465D01*
X29560381Y-34258194D01*
X29693096Y-34215562D01*
X29753625Y-34196058D01*
X29988760Y-34120269D01*
X30195455Y-34053766D01*
X30375459Y-33996006D01*
X30530520Y-33946445D01*
X30662389Y-33904539D01*
X30772813Y-33869745D01*
X30863544Y-33841519D01*
X30936329Y-33819318D01*
X30992918Y-33802599D01*
X31035061Y-33790817D01*
X31064507Y-33783429D01*
X31083004Y-33779892D01*
X31092303Y-33779662D01*
X31093010Y-33779878D01*
D12*
%TO.C,L39*%
X130883000Y-34355000D02*
X138183000Y-34355000D01*
X138183000Y-34355000D02*
X138183000Y-33205000D01*
X130883000Y-28855000D02*
X138183000Y-28855000D01*
%TO.C,R7*%
X159272936Y-79265000D02*
X159727064Y-79265000D01*
X159272936Y-80735000D02*
X159727064Y-80735000D01*
%TO.C,R8*%
X159727064Y-76235000D02*
X159272936Y-76235000D01*
X159727064Y-74765000D02*
X159272936Y-74765000D01*
%TO.C,R6*%
X155085000Y-82822936D02*
X155085000Y-83277064D01*
X156555000Y-82822936D02*
X156555000Y-83277064D01*
%TO.C,R1*%
X154555000Y-83277064D02*
X154555000Y-82822936D01*
X153085000Y-83277064D02*
X153085000Y-82822936D01*
%TO.C,J2*%
X176764893Y-105018531D02*
X177094824Y-103147396D01*
X176087665Y-108859281D02*
X176434961Y-106889666D01*
X167507700Y-103386238D02*
X167837631Y-101515103D01*
X166830472Y-107226988D02*
X167177768Y-105257373D01*
X177094824Y-103147396D02*
X167837631Y-101515103D01*
%TO.C,RESET*%
X142853000Y-85968000D02*
X142853000Y-85998000D01*
X142853000Y-92428000D02*
X142853000Y-92398000D01*
X136393000Y-92428000D02*
X136393000Y-92398000D01*
X136393000Y-85998000D02*
X136393000Y-85968000D01*
X142853000Y-87898000D02*
X142853000Y-90498000D01*
X136393000Y-85968000D02*
X142853000Y-85968000D01*
X136393000Y-87898000D02*
X136393000Y-90498000D01*
X136393000Y-92428000D02*
X142853000Y-92428000D01*
D13*
%TO.C,J3*%
X143781551Y-35774988D02*
X144087732Y-37953578D01*
X141740797Y-38283418D02*
X141434616Y-36104828D01*
X151465229Y-36916738D02*
X141740797Y-38283418D01*
X151159049Y-34738148D02*
X151465229Y-36916738D01*
X141434616Y-36104828D02*
X151159049Y-34738148D01*
D10*
%TO.C,U3*%
X148138000Y-81898555D02*
X148544586Y-81491969D01*
X140819445Y-74580000D02*
X141296742Y-74102703D01*
X148138000Y-67261445D02*
X147660703Y-67738742D01*
X155456555Y-74580000D02*
X154979258Y-75057297D01*
X148138000Y-81898555D02*
X147660703Y-81421258D01*
X155456555Y-74580000D02*
X154979258Y-74102703D01*
X148138000Y-67261445D02*
X148615297Y-67738742D01*
X140819445Y-74580000D02*
X141296742Y-75057297D01*
X148544586Y-81491969D02*
X149446148Y-82393530D01*
D12*
%TO.C,R2*%
X136002936Y-71845000D02*
X136457064Y-71845000D01*
X136002936Y-73315000D02*
X136457064Y-73315000D01*
%TO.C,L42*%
X62326000Y-22371000D02*
X69626000Y-22371000D01*
X69626000Y-27871000D02*
X69626000Y-26721000D01*
X62326000Y-27871000D02*
X69626000Y-27871000D01*
%TO.C,L41*%
X98471000Y-28283000D02*
X105771000Y-28283000D01*
X105771000Y-33783000D02*
X105771000Y-32633000D01*
X98471000Y-33783000D02*
X105771000Y-33783000D01*
%TO.C,L40*%
X83224000Y-83638000D02*
X90524000Y-83638000D01*
X90524000Y-89138000D02*
X90524000Y-87988000D01*
X83224000Y-89138000D02*
X90524000Y-89138000D01*
%TO.C,C10*%
X159238748Y-77265000D02*
X159761252Y-77265000D01*
X159238748Y-78735000D02*
X159761252Y-78735000D01*
%TO.C,C9*%
X148381252Y-64465000D02*
X147858748Y-64465000D01*
X148381252Y-62995000D02*
X147858748Y-62995000D01*
%TO.C,C5*%
X136491252Y-77445000D02*
X135968748Y-77445000D01*
X136491252Y-75975000D02*
X135968748Y-75975000D01*
%TO.C,C4*%
X136491252Y-75345000D02*
X135968748Y-75345000D01*
X136491252Y-73875000D02*
X135968748Y-73875000D01*
%TO.C,C2*%
X146645252Y-85888000D02*
X146122748Y-85888000D01*
X146645252Y-84418000D02*
X146122748Y-84418000D01*
%TO.C,C1*%
X149624748Y-84418000D02*
X150147252Y-84418000D01*
X149624748Y-85888000D02*
X150147252Y-85888000D01*
%TO.C,L35*%
X64044324Y-110111721D02*
X71344324Y-110111721D01*
X71344324Y-110111721D02*
X71344324Y-108961721D01*
X64044324Y-104611721D02*
X71344324Y-104611721D01*
%TO.C,L29*%
X59555000Y-19902641D02*
X66855000Y-19902641D01*
X59555000Y-25402641D02*
X66855000Y-25402641D01*
X66855000Y-25402641D02*
X66855000Y-24252641D01*
%TO.C,L30*%
X46895000Y-25002641D02*
X54195000Y-25002641D01*
X46895000Y-30502641D02*
X54195000Y-30502641D01*
X54195000Y-30502641D02*
X54195000Y-29352641D01*
D11*
%TO.C,G\u002A\u002A\u002A*%
G36*
X144196608Y-87777302D02*
G01*
X144211285Y-87786899D01*
X144241767Y-87809386D01*
X144284062Y-87841739D01*
X144334181Y-87880934D01*
X144352629Y-87895548D01*
X144408470Y-87939898D01*
X144461566Y-87982013D01*
X144506590Y-88017671D01*
X144538216Y-88042654D01*
X144542786Y-88046250D01*
X144561214Y-88060789D01*
X144597692Y-88089619D01*
X144650353Y-88131264D01*
X144717332Y-88184248D01*
X144796765Y-88247096D01*
X144886786Y-88318331D01*
X144985530Y-88396478D01*
X145091132Y-88480062D01*
X145201726Y-88567605D01*
X145213906Y-88577247D01*
X145338089Y-88675552D01*
X145467837Y-88778262D01*
X145599772Y-88882703D01*
X145730516Y-88986200D01*
X145856690Y-89086079D01*
X145974915Y-89179665D01*
X146081814Y-89264284D01*
X146174006Y-89337261D01*
X146216627Y-89370997D01*
X146310714Y-89445488D01*
X146406246Y-89521149D01*
X146499542Y-89595065D01*
X146586924Y-89664320D01*
X146664713Y-89725998D01*
X146729228Y-89777183D01*
X146769077Y-89808828D01*
X146839038Y-89864398D01*
X146914715Y-89924466D01*
X146988586Y-89983064D01*
X147053130Y-90034225D01*
X147074800Y-90051388D01*
X147127260Y-90092944D01*
X147193920Y-90145778D01*
X147269084Y-90205374D01*
X147347059Y-90267218D01*
X147422149Y-90326794D01*
X147426612Y-90330335D01*
X147490810Y-90380904D01*
X147548538Y-90425662D01*
X147596783Y-90462330D01*
X147632531Y-90488630D01*
X147652767Y-90502284D01*
X147655937Y-90503700D01*
X147667906Y-90494106D01*
X147690297Y-90468560D01*
X147718963Y-90431912D01*
X147729263Y-90417975D01*
X147754940Y-90382907D01*
X147793061Y-90331071D01*
X147840942Y-90266100D01*
X147895897Y-90191628D01*
X147955240Y-90111289D01*
X148016287Y-90028717D01*
X148076352Y-89947546D01*
X148132751Y-89871409D01*
X148182797Y-89803940D01*
X148219617Y-89754400D01*
X148248216Y-89714891D01*
X148269755Y-89683076D01*
X148280570Y-89664436D01*
X148281177Y-89662325D01*
X148268965Y-89660195D01*
X148234110Y-89658231D01*
X148179371Y-89656488D01*
X148107503Y-89655019D01*
X148021264Y-89653880D01*
X147923412Y-89653124D01*
X147816704Y-89652806D01*
X147798700Y-89652800D01*
X147690806Y-89652555D01*
X147591314Y-89651857D01*
X147502984Y-89650761D01*
X147428572Y-89649322D01*
X147370837Y-89647596D01*
X147332538Y-89645638D01*
X147316433Y-89643502D01*
X147316100Y-89643142D01*
X147324725Y-89631887D01*
X147348989Y-89605286D01*
X147386475Y-89565858D01*
X147434764Y-89516120D01*
X147491439Y-89458592D01*
X147541766Y-89408079D01*
X147767433Y-89182674D01*
X148445848Y-89185962D01*
X149124264Y-89189250D01*
X149212636Y-89328950D01*
X149242263Y-89375851D01*
X149282800Y-89440121D01*
X149331641Y-89517623D01*
X149386180Y-89604220D01*
X149443812Y-89695776D01*
X149501930Y-89788154D01*
X149516644Y-89811550D01*
X149592113Y-89931554D01*
X149655248Y-90031918D01*
X149707233Y-90114503D01*
X149749253Y-90181169D01*
X149782495Y-90233780D01*
X149808142Y-90274196D01*
X149827380Y-90304280D01*
X149841395Y-90325893D01*
X149851371Y-90340897D01*
X149858494Y-90351153D01*
X149863949Y-90358524D01*
X149868800Y-90364718D01*
X149873386Y-90368800D01*
X149880028Y-90370168D01*
X149890162Y-90367765D01*
X149905226Y-90360536D01*
X149926656Y-90347422D01*
X149955890Y-90327368D01*
X149994366Y-90299316D01*
X150043519Y-90262210D01*
X150104787Y-90214994D01*
X150179608Y-90156609D01*
X150269418Y-90086000D01*
X150375654Y-90002109D01*
X150499755Y-89903880D01*
X150554600Y-89860432D01*
X150678291Y-89762435D01*
X150804013Y-89662843D01*
X150929035Y-89563817D01*
X151050627Y-89467519D01*
X151166059Y-89376111D01*
X151272601Y-89291756D01*
X151367521Y-89216615D01*
X151448091Y-89152850D01*
X151511579Y-89102624D01*
X151513450Y-89101145D01*
X151575904Y-89051738D01*
X151655572Y-88988692D01*
X151749757Y-88914140D01*
X151855765Y-88830216D01*
X151970900Y-88739054D01*
X152092467Y-88642789D01*
X152217771Y-88543554D01*
X152344117Y-88443484D01*
X152468808Y-88344712D01*
X152481367Y-88334763D01*
X152596094Y-88243933D01*
X152705367Y-88157532D01*
X152807492Y-88076888D01*
X152900780Y-88003334D01*
X152983540Y-87938199D01*
X153054079Y-87882812D01*
X153110707Y-87838506D01*
X153151733Y-87806609D01*
X153175465Y-87788452D01*
X153180493Y-87784830D01*
X153184618Y-87782002D01*
X153188671Y-87779674D01*
X153194208Y-87778313D01*
X153202785Y-87778383D01*
X153215956Y-87780352D01*
X153235278Y-87784685D01*
X153262305Y-87791849D01*
X153298593Y-87802310D01*
X153345698Y-87816534D01*
X153405175Y-87834987D01*
X153478579Y-87858136D01*
X153567465Y-87886446D01*
X153673390Y-87920384D01*
X153797909Y-87960416D01*
X153942576Y-88007009D01*
X154108948Y-88060627D01*
X154218550Y-88095950D01*
X154340054Y-88135388D01*
X154452808Y-88172534D01*
X154554653Y-88206642D01*
X154643431Y-88236964D01*
X154716983Y-88262751D01*
X154773151Y-88283256D01*
X154809775Y-88297731D01*
X154824698Y-88305429D01*
X154824924Y-88306002D01*
X154816349Y-88320003D01*
X154794578Y-88350365D01*
X154762234Y-88393573D01*
X154721941Y-88446114D01*
X154684509Y-88494077D01*
X154589235Y-88615405D01*
X154482334Y-88751846D01*
X154362918Y-88904536D01*
X154230098Y-89074611D01*
X154082984Y-89263211D01*
X154021841Y-89341650D01*
X153916875Y-89476319D01*
X153826431Y-89592333D01*
X153749423Y-89691078D01*
X153684767Y-89773938D01*
X153631378Y-89842301D01*
X153588171Y-89897550D01*
X153554063Y-89941073D01*
X153527968Y-89974255D01*
X153508802Y-89998480D01*
X153495481Y-90015136D01*
X153486919Y-90025607D01*
X153482249Y-90031041D01*
X153473088Y-90034395D01*
X153454961Y-90031587D01*
X153425344Y-90021611D01*
X153381713Y-90003462D01*
X153321545Y-89976136D01*
X153242315Y-89938627D01*
X153204503Y-89920442D01*
X153124130Y-89882281D01*
X153057130Y-89851717D01*
X153005605Y-89829636D01*
X152971662Y-89816923D01*
X152957406Y-89814463D01*
X152957723Y-89816601D01*
X152971060Y-89833331D01*
X152998122Y-89865625D01*
X153035895Y-89909944D01*
X153081364Y-89962748D01*
X153126134Y-90014325D01*
X153176028Y-90071848D01*
X153221003Y-90124184D01*
X153258022Y-90167756D01*
X153284044Y-90198991D01*
X153295498Y-90213526D01*
X153301043Y-90222256D01*
X153303125Y-90231220D01*
X153299872Y-90243070D01*
X153289411Y-90260456D01*
X153269868Y-90286030D01*
X153239370Y-90322441D01*
X153196045Y-90372341D01*
X153138019Y-90438380D01*
X153130873Y-90446499D01*
X153110790Y-90469426D01*
X153075951Y-90509321D01*
X153028267Y-90563988D01*
X152969650Y-90631231D01*
X152902014Y-90708853D01*
X152827270Y-90794658D01*
X152747331Y-90886450D01*
X152664109Y-90982032D01*
X152579517Y-91079207D01*
X152495466Y-91175781D01*
X152413870Y-91269555D01*
X152336640Y-91358333D01*
X152265690Y-91439921D01*
X152202930Y-91512119D01*
X152150274Y-91572734D01*
X152148848Y-91574377D01*
X152088701Y-91643262D01*
X152033801Y-91705401D01*
X151986380Y-91758327D01*
X151948669Y-91799572D01*
X151922901Y-91826669D01*
X151911307Y-91837152D01*
X151911082Y-91837200D01*
X151898011Y-91830891D01*
X151866293Y-91813153D01*
X151818977Y-91785762D01*
X151759112Y-91750498D01*
X151689746Y-91709139D01*
X151631284Y-91673960D01*
X151555199Y-91628091D01*
X151484971Y-91585927D01*
X151423958Y-91549469D01*
X151375518Y-91520720D01*
X151343009Y-91501682D01*
X151331316Y-91495093D01*
X151324649Y-91496606D01*
X151334655Y-91516764D01*
X151361128Y-91555231D01*
X151398190Y-91604358D01*
X151441131Y-91659983D01*
X151493879Y-91728485D01*
X151550817Y-91802557D01*
X151606326Y-91874896D01*
X151627251Y-91902205D01*
X151759706Y-92075161D01*
X151529809Y-92327655D01*
X151460417Y-92403799D01*
X151389053Y-92481984D01*
X151319807Y-92557737D01*
X151256772Y-92626584D01*
X151204037Y-92684052D01*
X151176932Y-92713500D01*
X151127148Y-92767542D01*
X151065806Y-92834226D01*
X150998504Y-92907459D01*
X150930841Y-92981151D01*
X150879288Y-93037350D01*
X150826039Y-93095130D01*
X150778463Y-93146193D01*
X150739266Y-93187681D01*
X150711152Y-93216734D01*
X150696827Y-93230497D01*
X150695787Y-93231191D01*
X150684364Y-93223784D01*
X150656290Y-93200907D01*
X150613561Y-93164338D01*
X150558173Y-93115856D01*
X150492123Y-93057236D01*
X150417405Y-92990258D01*
X150336016Y-92916698D01*
X150249953Y-92838333D01*
X150161210Y-92756942D01*
X150104813Y-92704901D01*
X150063151Y-92667017D01*
X150028319Y-92636572D01*
X150004485Y-92617131D01*
X149996148Y-92611900D01*
X149994608Y-92614157D01*
X149994288Y-92622225D01*
X149995470Y-92638040D01*
X149998436Y-92663545D01*
X150003468Y-92700677D01*
X150010847Y-92751377D01*
X150020855Y-92817585D01*
X150033775Y-92901240D01*
X150049887Y-93004282D01*
X150069475Y-93128650D01*
X150091183Y-93265950D01*
X150103787Y-93346148D01*
X150118846Y-93442879D01*
X150135033Y-93547558D01*
X150151019Y-93651600D01*
X150163514Y-93733496D01*
X150203680Y-93997842D01*
X148693996Y-95507526D01*
X147184388Y-93997758D01*
X147244618Y-93606454D01*
X147262584Y-93489987D01*
X147282090Y-93363965D01*
X147302040Y-93235455D01*
X147321333Y-93111523D01*
X147338873Y-92999235D01*
X147352322Y-92913525D01*
X147365247Y-92829560D01*
X147376231Y-92754589D01*
X147384819Y-92692030D01*
X147390555Y-92645306D01*
X147392984Y-92617838D01*
X147392474Y-92611900D01*
X147381615Y-92620146D01*
X147354435Y-92643478D01*
X147313304Y-92679781D01*
X147260595Y-92726943D01*
X147198677Y-92782850D01*
X147129921Y-92845388D01*
X147106151Y-92867107D01*
X147031889Y-92934915D01*
X146960341Y-93000021D01*
X146894600Y-93059628D01*
X146837759Y-93110937D01*
X146792914Y-93151149D01*
X146763156Y-93177467D01*
X146759784Y-93180389D01*
X146724296Y-93210400D01*
X146702277Y-93225788D01*
X146688080Y-93228653D01*
X146676059Y-93221095D01*
X146669139Y-93214107D01*
X146654392Y-93198231D01*
X146625176Y-93166404D01*
X146584094Y-93121478D01*
X146533753Y-93066305D01*
X146476758Y-93003737D01*
X146429169Y-92951427D01*
X146359346Y-92874750D01*
X146277552Y-92785119D01*
X146189022Y-92688261D01*
X146098996Y-92589903D01*
X146012711Y-92495772D01*
X145952990Y-92430727D01*
X145886223Y-92357953D01*
X145823665Y-92289543D01*
X145767773Y-92228200D01*
X145721005Y-92176630D01*
X145685818Y-92137538D01*
X145664671Y-92113629D01*
X145661501Y-92109904D01*
X145629503Y-92071458D01*
X145849484Y-91786095D01*
X145905932Y-91712482D01*
X145956672Y-91645563D01*
X145999799Y-91587912D01*
X146033406Y-91542106D01*
X146055587Y-91510717D01*
X146064437Y-91496322D01*
X146064458Y-91495724D01*
X146052716Y-91500683D01*
X146022189Y-91517218D01*
X145975765Y-91543663D01*
X145916331Y-91578351D01*
X145846776Y-91619615D01*
X145773011Y-91663958D01*
X145696105Y-91710255D01*
X145626261Y-91751885D01*
X145566435Y-91787122D01*
X145519583Y-91814235D01*
X145488661Y-91831498D01*
X145476736Y-91837200D01*
X145465927Y-91828002D01*
X145441133Y-91802248D01*
X145404866Y-91762696D01*
X145359638Y-91712103D01*
X145307960Y-91653226D01*
X145283424Y-91624943D01*
X145225627Y-91558173D01*
X145155416Y-91477216D01*
X145077087Y-91387015D01*
X144994936Y-91292513D01*
X144913257Y-91198654D01*
X144836346Y-91110381D01*
X144833763Y-91107418D01*
X144758023Y-91020548D01*
X144678167Y-90928942D01*
X144598297Y-90837306D01*
X144522515Y-90750346D01*
X144454924Y-90672770D01*
X144399624Y-90609283D01*
X144396155Y-90605300D01*
X144338345Y-90538928D01*
X144280685Y-90472751D01*
X144227300Y-90411504D01*
X144182318Y-90359919D01*
X144149864Y-90322733D01*
X144149731Y-90322581D01*
X144114168Y-90280885D01*
X144093556Y-90253174D01*
X144085471Y-90234909D01*
X144087484Y-90221548D01*
X144092029Y-90214631D01*
X144105604Y-90198182D01*
X144132741Y-90165984D01*
X144170455Y-90121556D01*
X144215758Y-90068415D01*
X144261739Y-90014662D01*
X144311523Y-89956458D01*
X144356596Y-89903581D01*
X144393935Y-89859588D01*
X144420520Y-89828040D01*
X144432872Y-89813079D01*
X144432547Y-89806332D01*
X144410710Y-89812634D01*
X144367592Y-89831903D01*
X144336034Y-89847422D01*
X144276465Y-89877000D01*
X144203838Y-89912556D01*
X144128078Y-89949252D01*
X144069661Y-89977239D01*
X143918850Y-90049016D01*
X143890641Y-90012833D01*
X143873082Y-89990337D01*
X143843363Y-89952293D01*
X143804972Y-89903163D01*
X143761393Y-89847408D01*
X143738241Y-89817790D01*
X143692737Y-89759529D01*
X143650059Y-89704784D01*
X143613889Y-89658285D01*
X143587908Y-89624764D01*
X143580076Y-89614590D01*
X143559528Y-89588033D01*
X143527364Y-89546770D01*
X143487686Y-89496048D01*
X143444592Y-89441116D01*
X143436289Y-89430550D01*
X143384546Y-89364537D01*
X143324694Y-89287884D01*
X143264124Y-89210072D01*
X143210227Y-89140583D01*
X143209913Y-89140176D01*
X143157301Y-89072378D01*
X143099123Y-88997746D01*
X143042290Y-88925127D01*
X142993713Y-88863371D01*
X142991750Y-88860884D01*
X142882661Y-88722412D01*
X142789591Y-88603472D01*
X142712456Y-88503950D01*
X142651171Y-88423737D01*
X142605652Y-88362720D01*
X142575812Y-88320788D01*
X142561568Y-88297829D01*
X142560344Y-88293261D01*
X142575897Y-88283773D01*
X142594687Y-88278138D01*
X142612697Y-88273015D01*
X142652166Y-88260920D01*
X142710386Y-88242711D01*
X142784654Y-88219242D01*
X142872261Y-88191372D01*
X142970504Y-88159955D01*
X143076677Y-88125849D01*
X143125100Y-88110246D01*
X143313208Y-88049615D01*
X143478564Y-87996413D01*
X143622567Y-87950205D01*
X143746616Y-87910556D01*
X143852111Y-87877031D01*
X143940451Y-87849196D01*
X144013035Y-87826615D01*
X144071263Y-87808855D01*
X144116535Y-87795479D01*
X144150249Y-87786054D01*
X144173805Y-87780143D01*
X144188603Y-87777314D01*
X144196042Y-87777130D01*
X144196608Y-87777302D01*
G37*
X144196608Y-87777302D02*
X144211285Y-87786899D01*
X144241767Y-87809386D01*
X144284062Y-87841739D01*
X144334181Y-87880934D01*
X144352629Y-87895548D01*
X144408470Y-87939898D01*
X144461566Y-87982013D01*
X144506590Y-88017671D01*
X144538216Y-88042654D01*
X144542786Y-88046250D01*
X144561214Y-88060789D01*
X144597692Y-88089619D01*
X144650353Y-88131264D01*
X144717332Y-88184248D01*
X144796765Y-88247096D01*
X144886786Y-88318331D01*
X144985530Y-88396478D01*
X145091132Y-88480062D01*
X145201726Y-88567605D01*
X145213906Y-88577247D01*
X145338089Y-88675552D01*
X145467837Y-88778262D01*
X145599772Y-88882703D01*
X145730516Y-88986200D01*
X145856690Y-89086079D01*
X145974915Y-89179665D01*
X146081814Y-89264284D01*
X146174006Y-89337261D01*
X146216627Y-89370997D01*
X146310714Y-89445488D01*
X146406246Y-89521149D01*
X146499542Y-89595065D01*
X146586924Y-89664320D01*
X146664713Y-89725998D01*
X146729228Y-89777183D01*
X146769077Y-89808828D01*
X146839038Y-89864398D01*
X146914715Y-89924466D01*
X146988586Y-89983064D01*
X147053130Y-90034225D01*
X147074800Y-90051388D01*
X147127260Y-90092944D01*
X147193920Y-90145778D01*
X147269084Y-90205374D01*
X147347059Y-90267218D01*
X147422149Y-90326794D01*
X147426612Y-90330335D01*
X147490810Y-90380904D01*
X147548538Y-90425662D01*
X147596783Y-90462330D01*
X147632531Y-90488630D01*
X147652767Y-90502284D01*
X147655937Y-90503700D01*
X147667906Y-90494106D01*
X147690297Y-90468560D01*
X147718963Y-90431912D01*
X147729263Y-90417975D01*
X147754940Y-90382907D01*
X147793061Y-90331071D01*
X147840942Y-90266100D01*
X147895897Y-90191628D01*
X147955240Y-90111289D01*
X148016287Y-90028717D01*
X148076352Y-89947546D01*
X148132751Y-89871409D01*
X148182797Y-89803940D01*
X148219617Y-89754400D01*
X148248216Y-89714891D01*
X148269755Y-89683076D01*
X148280570Y-89664436D01*
X148281177Y-89662325D01*
X148268965Y-89660195D01*
X148234110Y-89658231D01*
X148179371Y-89656488D01*
X148107503Y-89655019D01*
X148021264Y-89653880D01*
X147923412Y-89653124D01*
X147816704Y-89652806D01*
X147798700Y-89652800D01*
X147690806Y-89652555D01*
X147591314Y-89651857D01*
X147502984Y-89650761D01*
X147428572Y-89649322D01*
X147370837Y-89647596D01*
X147332538Y-89645638D01*
X147316433Y-89643502D01*
X147316100Y-89643142D01*
X147324725Y-89631887D01*
X147348989Y-89605286D01*
X147386475Y-89565858D01*
X147434764Y-89516120D01*
X147491439Y-89458592D01*
X147541766Y-89408079D01*
X147767433Y-89182674D01*
X148445848Y-89185962D01*
X149124264Y-89189250D01*
X149212636Y-89328950D01*
X149242263Y-89375851D01*
X149282800Y-89440121D01*
X149331641Y-89517623D01*
X149386180Y-89604220D01*
X149443812Y-89695776D01*
X149501930Y-89788154D01*
X149516644Y-89811550D01*
X149592113Y-89931554D01*
X149655248Y-90031918D01*
X149707233Y-90114503D01*
X149749253Y-90181169D01*
X149782495Y-90233780D01*
X149808142Y-90274196D01*
X149827380Y-90304280D01*
X149841395Y-90325893D01*
X149851371Y-90340897D01*
X149858494Y-90351153D01*
X149863949Y-90358524D01*
X149868800Y-90364718D01*
X149873386Y-90368800D01*
X149880028Y-90370168D01*
X149890162Y-90367765D01*
X149905226Y-90360536D01*
X149926656Y-90347422D01*
X149955890Y-90327368D01*
X149994366Y-90299316D01*
X150043519Y-90262210D01*
X150104787Y-90214994D01*
X150179608Y-90156609D01*
X150269418Y-90086000D01*
X150375654Y-90002109D01*
X150499755Y-89903880D01*
X150554600Y-89860432D01*
X150678291Y-89762435D01*
X150804013Y-89662843D01*
X150929035Y-89563817D01*
X151050627Y-89467519D01*
X151166059Y-89376111D01*
X151272601Y-89291756D01*
X151367521Y-89216615D01*
X151448091Y-89152850D01*
X151511579Y-89102624D01*
X151513450Y-89101145D01*
X151575904Y-89051738D01*
X151655572Y-88988692D01*
X151749757Y-88914140D01*
X151855765Y-88830216D01*
X151970900Y-88739054D01*
X152092467Y-88642789D01*
X152217771Y-88543554D01*
X152344117Y-88443484D01*
X152468808Y-88344712D01*
X152481367Y-88334763D01*
X152596094Y-88243933D01*
X152705367Y-88157532D01*
X152807492Y-88076888D01*
X152900780Y-88003334D01*
X152983540Y-87938199D01*
X153054079Y-87882812D01*
X153110707Y-87838506D01*
X153151733Y-87806609D01*
X153175465Y-87788452D01*
X153180493Y-87784830D01*
X153184618Y-87782002D01*
X153188671Y-87779674D01*
X153194208Y-87778313D01*
X153202785Y-87778383D01*
X153215956Y-87780352D01*
X153235278Y-87784685D01*
X153262305Y-87791849D01*
X153298593Y-87802310D01*
X153345698Y-87816534D01*
X153405175Y-87834987D01*
X153478579Y-87858136D01*
X153567465Y-87886446D01*
X153673390Y-87920384D01*
X153797909Y-87960416D01*
X153942576Y-88007009D01*
X154108948Y-88060627D01*
X154218550Y-88095950D01*
X154340054Y-88135388D01*
X154452808Y-88172534D01*
X154554653Y-88206642D01*
X154643431Y-88236964D01*
X154716983Y-88262751D01*
X154773151Y-88283256D01*
X154809775Y-88297731D01*
X154824698Y-88305429D01*
X154824924Y-88306002D01*
X154816349Y-88320003D01*
X154794578Y-88350365D01*
X154762234Y-88393573D01*
X154721941Y-88446114D01*
X154684509Y-88494077D01*
X154589235Y-88615405D01*
X154482334Y-88751846D01*
X154362918Y-88904536D01*
X154230098Y-89074611D01*
X154082984Y-89263211D01*
X154021841Y-89341650D01*
X153916875Y-89476319D01*
X153826431Y-89592333D01*
X153749423Y-89691078D01*
X153684767Y-89773938D01*
X153631378Y-89842301D01*
X153588171Y-89897550D01*
X153554063Y-89941073D01*
X153527968Y-89974255D01*
X153508802Y-89998480D01*
X153495481Y-90015136D01*
X153486919Y-90025607D01*
X153482249Y-90031041D01*
X153473088Y-90034395D01*
X153454961Y-90031587D01*
X153425344Y-90021611D01*
X153381713Y-90003462D01*
X153321545Y-89976136D01*
X153242315Y-89938627D01*
X153204503Y-89920442D01*
X153124130Y-89882281D01*
X153057130Y-89851717D01*
X153005605Y-89829636D01*
X152971662Y-89816923D01*
X152957406Y-89814463D01*
X152957723Y-89816601D01*
X152971060Y-89833331D01*
X152998122Y-89865625D01*
X153035895Y-89909944D01*
X153081364Y-89962748D01*
X153126134Y-90014325D01*
X153176028Y-90071848D01*
X153221003Y-90124184D01*
X153258022Y-90167756D01*
X153284044Y-90198991D01*
X153295498Y-90213526D01*
X153301043Y-90222256D01*
X153303125Y-90231220D01*
X153299872Y-90243070D01*
X153289411Y-90260456D01*
X153269868Y-90286030D01*
X153239370Y-90322441D01*
X153196045Y-90372341D01*
X153138019Y-90438380D01*
X153130873Y-90446499D01*
X153110790Y-90469426D01*
X153075951Y-90509321D01*
X153028267Y-90563988D01*
X152969650Y-90631231D01*
X152902014Y-90708853D01*
X152827270Y-90794658D01*
X152747331Y-90886450D01*
X152664109Y-90982032D01*
X152579517Y-91079207D01*
X152495466Y-91175781D01*
X152413870Y-91269555D01*
X152336640Y-91358333D01*
X152265690Y-91439921D01*
X152202930Y-91512119D01*
X152150274Y-91572734D01*
X152148848Y-91574377D01*
X152088701Y-91643262D01*
X152033801Y-91705401D01*
X151986380Y-91758327D01*
X151948669Y-91799572D01*
X151922901Y-91826669D01*
X151911307Y-91837152D01*
X151911082Y-91837200D01*
X151898011Y-91830891D01*
X151866293Y-91813153D01*
X151818977Y-91785762D01*
X151759112Y-91750498D01*
X151689746Y-91709139D01*
X151631284Y-91673960D01*
X151555199Y-91628091D01*
X151484971Y-91585927D01*
X151423958Y-91549469D01*
X151375518Y-91520720D01*
X151343009Y-91501682D01*
X151331316Y-91495093D01*
X151324649Y-91496606D01*
X151334655Y-91516764D01*
X151361128Y-91555231D01*
X151398190Y-91604358D01*
X151441131Y-91659983D01*
X151493879Y-91728485D01*
X151550817Y-91802557D01*
X151606326Y-91874896D01*
X151627251Y-91902205D01*
X151759706Y-92075161D01*
X151529809Y-92327655D01*
X151460417Y-92403799D01*
X151389053Y-92481984D01*
X151319807Y-92557737D01*
X151256772Y-92626584D01*
X151204037Y-92684052D01*
X151176932Y-92713500D01*
X151127148Y-92767542D01*
X151065806Y-92834226D01*
X150998504Y-92907459D01*
X150930841Y-92981151D01*
X150879288Y-93037350D01*
X150826039Y-93095130D01*
X150778463Y-93146193D01*
X150739266Y-93187681D01*
X150711152Y-93216734D01*
X150696827Y-93230497D01*
X150695787Y-93231191D01*
X150684364Y-93223784D01*
X150656290Y-93200907D01*
X150613561Y-93164338D01*
X150558173Y-93115856D01*
X150492123Y-93057236D01*
X150417405Y-92990258D01*
X150336016Y-92916698D01*
X150249953Y-92838333D01*
X150161210Y-92756942D01*
X150104813Y-92704901D01*
X150063151Y-92667017D01*
X150028319Y-92636572D01*
X150004485Y-92617131D01*
X149996148Y-92611900D01*
X149994608Y-92614157D01*
X149994288Y-92622225D01*
X149995470Y-92638040D01*
X149998436Y-92663545D01*
X150003468Y-92700677D01*
X150010847Y-92751377D01*
X150020855Y-92817585D01*
X150033775Y-92901240D01*
X150049887Y-93004282D01*
X150069475Y-93128650D01*
X150091183Y-93265950D01*
X150103787Y-93346148D01*
X150118846Y-93442879D01*
X150135033Y-93547558D01*
X150151019Y-93651600D01*
X150163514Y-93733496D01*
X150203680Y-93997842D01*
X148693996Y-95507526D01*
X147184388Y-93997758D01*
X147244618Y-93606454D01*
X147262584Y-93489987D01*
X147282090Y-93363965D01*
X147302040Y-93235455D01*
X147321333Y-93111523D01*
X147338873Y-92999235D01*
X147352322Y-92913525D01*
X147365247Y-92829560D01*
X147376231Y-92754589D01*
X147384819Y-92692030D01*
X147390555Y-92645306D01*
X147392984Y-92617838D01*
X147392474Y-92611900D01*
X147381615Y-92620146D01*
X147354435Y-92643478D01*
X147313304Y-92679781D01*
X147260595Y-92726943D01*
X147198677Y-92782850D01*
X147129921Y-92845388D01*
X147106151Y-92867107D01*
X147031889Y-92934915D01*
X146960341Y-93000021D01*
X146894600Y-93059628D01*
X146837759Y-93110937D01*
X146792914Y-93151149D01*
X146763156Y-93177467D01*
X146759784Y-93180389D01*
X146724296Y-93210400D01*
X146702277Y-93225788D01*
X146688080Y-93228653D01*
X146676059Y-93221095D01*
X146669139Y-93214107D01*
X146654392Y-93198231D01*
X146625176Y-93166404D01*
X146584094Y-93121478D01*
X146533753Y-93066305D01*
X146476758Y-93003737D01*
X146429169Y-92951427D01*
X146359346Y-92874750D01*
X146277552Y-92785119D01*
X146189022Y-92688261D01*
X146098996Y-92589903D01*
X146012711Y-92495772D01*
X145952990Y-92430727D01*
X145886223Y-92357953D01*
X145823665Y-92289543D01*
X145767773Y-92228200D01*
X145721005Y-92176630D01*
X145685818Y-92137538D01*
X145664671Y-92113629D01*
X145661501Y-92109904D01*
X145629503Y-92071458D01*
X145849484Y-91786095D01*
X145905932Y-91712482D01*
X145956672Y-91645563D01*
X145999799Y-91587912D01*
X146033406Y-91542106D01*
X146055587Y-91510717D01*
X146064437Y-91496322D01*
X146064458Y-91495724D01*
X146052716Y-91500683D01*
X146022189Y-91517218D01*
X145975765Y-91543663D01*
X145916331Y-91578351D01*
X145846776Y-91619615D01*
X145773011Y-91663958D01*
X145696105Y-91710255D01*
X145626261Y-91751885D01*
X145566435Y-91787122D01*
X145519583Y-91814235D01*
X145488661Y-91831498D01*
X145476736Y-91837200D01*
X145465927Y-91828002D01*
X145441133Y-91802248D01*
X145404866Y-91762696D01*
X145359638Y-91712103D01*
X145307960Y-91653226D01*
X145283424Y-91624943D01*
X145225627Y-91558173D01*
X145155416Y-91477216D01*
X145077087Y-91387015D01*
X144994936Y-91292513D01*
X144913257Y-91198654D01*
X144836346Y-91110381D01*
X144833763Y-91107418D01*
X144758023Y-91020548D01*
X144678167Y-90928942D01*
X144598297Y-90837306D01*
X144522515Y-90750346D01*
X144454924Y-90672770D01*
X144399624Y-90609283D01*
X144396155Y-90605300D01*
X144338345Y-90538928D01*
X144280685Y-90472751D01*
X144227300Y-90411504D01*
X144182318Y-90359919D01*
X144149864Y-90322733D01*
X144149731Y-90322581D01*
X144114168Y-90280885D01*
X144093556Y-90253174D01*
X144085471Y-90234909D01*
X144087484Y-90221548D01*
X144092029Y-90214631D01*
X144105604Y-90198182D01*
X144132741Y-90165984D01*
X144170455Y-90121556D01*
X144215758Y-90068415D01*
X144261739Y-90014662D01*
X144311523Y-89956458D01*
X144356596Y-89903581D01*
X144393935Y-89859588D01*
X144420520Y-89828040D01*
X144432872Y-89813079D01*
X144432547Y-89806332D01*
X144410710Y-89812634D01*
X144367592Y-89831903D01*
X144336034Y-89847422D01*
X144276465Y-89877000D01*
X144203838Y-89912556D01*
X144128078Y-89949252D01*
X144069661Y-89977239D01*
X143918850Y-90049016D01*
X143890641Y-90012833D01*
X143873082Y-89990337D01*
X143843363Y-89952293D01*
X143804972Y-89903163D01*
X143761393Y-89847408D01*
X143738241Y-89817790D01*
X143692737Y-89759529D01*
X143650059Y-89704784D01*
X143613889Y-89658285D01*
X143587908Y-89624764D01*
X143580076Y-89614590D01*
X143559528Y-89588033D01*
X143527364Y-89546770D01*
X143487686Y-89496048D01*
X143444592Y-89441116D01*
X143436289Y-89430550D01*
X143384546Y-89364537D01*
X143324694Y-89287884D01*
X143264124Y-89210072D01*
X143210227Y-89140583D01*
X143209913Y-89140176D01*
X143157301Y-89072378D01*
X143099123Y-88997746D01*
X143042290Y-88925127D01*
X142993713Y-88863371D01*
X142991750Y-88860884D01*
X142882661Y-88722412D01*
X142789591Y-88603472D01*
X142712456Y-88503950D01*
X142651171Y-88423737D01*
X142605652Y-88362720D01*
X142575812Y-88320788D01*
X142561568Y-88297829D01*
X142560344Y-88293261D01*
X142575897Y-88283773D01*
X142594687Y-88278138D01*
X142612697Y-88273015D01*
X142652166Y-88260920D01*
X142710386Y-88242711D01*
X142784654Y-88219242D01*
X142872261Y-88191372D01*
X142970504Y-88159955D01*
X143076677Y-88125849D01*
X143125100Y-88110246D01*
X143313208Y-88049615D01*
X143478564Y-87996413D01*
X143622567Y-87950205D01*
X143746616Y-87910556D01*
X143852111Y-87877031D01*
X143940451Y-87849196D01*
X144013035Y-87826615D01*
X144071263Y-87808855D01*
X144116535Y-87795479D01*
X144150249Y-87786054D01*
X144173805Y-87780143D01*
X144188603Y-87777314D01*
X144196042Y-87777130D01*
X144196608Y-87777302D01*
D12*
%TO.C,J1*%
X43794485Y-14425841D02*
X34485965Y-15734068D01*
X35293169Y-21477623D02*
X35014823Y-19497087D01*
X34750394Y-17615577D02*
X34485965Y-15734068D01*
X44601689Y-20169396D02*
X44323343Y-18188860D01*
X44058914Y-16307350D02*
X43794485Y-14425841D01*
%TO.C,SW19*%
X65610000Y-105864000D02*
X66610000Y-105864000D01*
X66110000Y-105364000D02*
X66110000Y-106364000D01*
X72210000Y-109364000D02*
X72210000Y-111764000D01*
X72210000Y-104564000D02*
X72210000Y-107164000D01*
X72210000Y-99964000D02*
X72210000Y-102364000D01*
X58910000Y-101764000D02*
X58610000Y-102064000D01*
X58310000Y-101764000D02*
X58910000Y-101764000D01*
X58610000Y-102064000D02*
X58310000Y-101764000D01*
X60010000Y-99964000D02*
X60010000Y-111764000D01*
X64110000Y-99964000D02*
X60010000Y-99964000D01*
X64110000Y-111764000D02*
X60010000Y-111764000D01*
X72210000Y-111764000D02*
X68110000Y-111764000D01*
X68110000Y-99964000D02*
X72210000Y-99964000D01*
X69110000Y-105864000D02*
G75*
G03*
X69110000Y-105864000I-3000000J0D01*
G01*
%TO.C,L38*%
X151100000Y-53704000D02*
X158400000Y-53704000D01*
X158400000Y-53704000D02*
X158400000Y-52554000D01*
X151100000Y-48204000D02*
X158400000Y-48204000D01*
%TO.C,L37*%
X153656000Y-100478000D02*
X146356000Y-100478000D01*
X146356000Y-100478000D02*
X146356000Y-101628000D01*
X153656000Y-105978000D02*
X146356000Y-105978000D01*
%TO.C,L36*%
X120902882Y-128092177D02*
X128091979Y-129359809D01*
X128091979Y-129359809D02*
X128291674Y-128227280D01*
X121857947Y-122675735D02*
X129047044Y-123943367D01*
%TO.C,L34*%
X23638505Y-85174487D02*
X30938505Y-85174487D01*
X30938505Y-85174487D02*
X30938505Y-84024487D01*
X23638505Y-79674487D02*
X30938505Y-79674487D01*
%TO.C,L33*%
X20544788Y-44581170D02*
X27844788Y-44581170D01*
X27844788Y-44581170D02*
X27844788Y-43431170D01*
X20544788Y-39081170D02*
X27844788Y-39081170D01*
%TO.C,L32*%
X21555000Y-32502641D02*
X28855000Y-32502641D01*
X21555000Y-38002641D02*
X28855000Y-38002641D01*
X28855000Y-38002641D02*
X28855000Y-36852641D01*
%TO.C,L31*%
X34225000Y-28502641D02*
X41525000Y-28502641D01*
X34225000Y-34002641D02*
X41525000Y-34002641D01*
X41525000Y-34002641D02*
X41525000Y-32852641D01*
%TO.C,L28*%
X72225000Y-18174000D02*
X79525000Y-18174000D01*
X72225000Y-23674000D02*
X79525000Y-23674000D01*
X79525000Y-23674000D02*
X79525000Y-22524000D01*
%TO.C,L27*%
X84895000Y-18514000D02*
X92195000Y-18514000D01*
X84895000Y-24014000D02*
X92195000Y-24014000D01*
X92195000Y-24014000D02*
X92195000Y-22864000D01*
%TO.C,L26*%
X97555000Y-22144000D02*
X104855000Y-22144000D01*
X97555000Y-27644000D02*
X104855000Y-27644000D01*
X104855000Y-27644000D02*
X104855000Y-26494000D01*
%TO.C,L25*%
X110225000Y-24144000D02*
X117525000Y-24144000D01*
X110225000Y-29644000D02*
X117525000Y-29644000D01*
X117525000Y-29644000D02*
X117525000Y-28494000D01*
%TO.C,L24*%
X122895000Y-25644000D02*
X130195000Y-25644000D01*
X122895000Y-31144000D02*
X130195000Y-31144000D01*
X130195000Y-31144000D02*
X130195000Y-29994000D01*
%TO.C,R5*%
X159272936Y-81265000D02*
X159727064Y-81265000D01*
X159272936Y-82735000D02*
X159727064Y-82735000D01*
%TO.C,R3*%
X46767544Y-32684562D02*
X46767544Y-32230434D01*
X48237544Y-32684562D02*
X48237544Y-32230434D01*
%TO.C,R4*%
X45893819Y-32684562D02*
X45893819Y-32230434D01*
X44423819Y-32684562D02*
X44423819Y-32230434D01*
D13*
%TO.C,D1*%
X21245000Y-46135000D02*
X22845000Y-46135000D01*
X21245000Y-48168200D02*
X21245000Y-46135000D01*
X22845000Y-48168200D02*
X21245000Y-48168200D01*
X22845000Y-46135000D02*
X22845000Y-48168200D01*
G36*
X21664000Y-49489000D02*
G01*
X22045000Y-48854000D01*
X22426000Y-49489000D01*
X21664000Y-49489000D01*
G37*
X21664000Y-49489000D02*
X22045000Y-48854000D01*
X22426000Y-49489000D01*
X21664000Y-49489000D01*
X22045000Y-48193600D02*
X22045000Y-48854000D01*
X22045000Y-48854000D02*
X22426000Y-49489000D01*
X22426000Y-49489000D02*
X21664000Y-49489000D01*
X21664000Y-49489000D02*
X22045000Y-48854000D01*
X22451400Y-48854000D02*
X21638600Y-48854000D01*
X22045000Y-49489000D02*
X22045000Y-50352600D01*
%TO.C,D2*%
X38545000Y-46335000D02*
X40145000Y-46335000D01*
X38545000Y-48368200D02*
X38545000Y-46335000D01*
X40145000Y-48368200D02*
X38545000Y-48368200D01*
X40145000Y-46335000D02*
X40145000Y-48368200D01*
G36*
X38964000Y-49689000D02*
G01*
X39345000Y-49054000D01*
X39726000Y-49689000D01*
X38964000Y-49689000D01*
G37*
X38964000Y-49689000D02*
X39345000Y-49054000D01*
X39726000Y-49689000D01*
X38964000Y-49689000D01*
X39345000Y-48393600D02*
X39345000Y-49054000D01*
X39345000Y-49054000D02*
X39726000Y-49689000D01*
X39726000Y-49689000D02*
X38964000Y-49689000D01*
X38964000Y-49689000D02*
X39345000Y-49054000D01*
X39751400Y-49054000D02*
X38938600Y-49054000D01*
X39345000Y-49689000D02*
X39345000Y-50552600D01*
%TO.C,D3*%
X57545000Y-30785000D02*
X59145000Y-30785000D01*
X57545000Y-32818200D02*
X57545000Y-30785000D01*
X59145000Y-32818200D02*
X57545000Y-32818200D01*
X59145000Y-30785000D02*
X59145000Y-32818200D01*
G36*
X57964000Y-34139000D02*
G01*
X58345000Y-33504000D01*
X58726000Y-34139000D01*
X57964000Y-34139000D01*
G37*
X57964000Y-34139000D02*
X58345000Y-33504000D01*
X58726000Y-34139000D01*
X57964000Y-34139000D01*
X58345000Y-32843600D02*
X58345000Y-33504000D01*
X58345000Y-33504000D02*
X58726000Y-34139000D01*
X58726000Y-34139000D02*
X57964000Y-34139000D01*
X57964000Y-34139000D02*
X58345000Y-33504000D01*
X58751400Y-33504000D02*
X57938600Y-33504000D01*
X58345000Y-34139000D02*
X58345000Y-35002600D01*
%TO.C,D4*%
X76545000Y-27785000D02*
X78145000Y-27785000D01*
X76545000Y-29818200D02*
X76545000Y-27785000D01*
X78145000Y-29818200D02*
X76545000Y-29818200D01*
X78145000Y-27785000D02*
X78145000Y-29818200D01*
G36*
X76964000Y-31139000D02*
G01*
X77345000Y-30504000D01*
X77726000Y-31139000D01*
X76964000Y-31139000D01*
G37*
X76964000Y-31139000D02*
X77345000Y-30504000D01*
X77726000Y-31139000D01*
X76964000Y-31139000D01*
X77345000Y-29843600D02*
X77345000Y-30504000D01*
X77345000Y-30504000D02*
X77726000Y-31139000D01*
X77726000Y-31139000D02*
X76964000Y-31139000D01*
X76964000Y-31139000D02*
X77345000Y-30504000D01*
X77751400Y-30504000D02*
X76938600Y-30504000D01*
X77345000Y-31139000D02*
X77345000Y-32002600D01*
%TO.C,D5*%
X95545000Y-37785000D02*
X97145000Y-37785000D01*
X95545000Y-39818200D02*
X95545000Y-37785000D01*
X97145000Y-39818200D02*
X95545000Y-39818200D01*
X97145000Y-37785000D02*
X97145000Y-39818200D01*
G36*
X95964000Y-41139000D02*
G01*
X96345000Y-40504000D01*
X96726000Y-41139000D01*
X95964000Y-41139000D01*
G37*
X95964000Y-41139000D02*
X96345000Y-40504000D01*
X96726000Y-41139000D01*
X95964000Y-41139000D01*
X96345000Y-39843600D02*
X96345000Y-40504000D01*
X96345000Y-40504000D02*
X96726000Y-41139000D01*
X96726000Y-41139000D02*
X95964000Y-41139000D01*
X95964000Y-41139000D02*
X96345000Y-40504000D01*
X96751400Y-40504000D02*
X95938600Y-40504000D01*
X96345000Y-41139000D02*
X96345000Y-42002600D01*
%TO.C,D6*%
X114545000Y-39785000D02*
X116145000Y-39785000D01*
X114545000Y-41818200D02*
X114545000Y-39785000D01*
X116145000Y-41818200D02*
X114545000Y-41818200D01*
X116145000Y-39785000D02*
X116145000Y-41818200D01*
G36*
X114964000Y-43139000D02*
G01*
X115345000Y-42504000D01*
X115726000Y-43139000D01*
X114964000Y-43139000D01*
G37*
X114964000Y-43139000D02*
X115345000Y-42504000D01*
X115726000Y-43139000D01*
X114964000Y-43139000D01*
X115345000Y-41843600D02*
X115345000Y-42504000D01*
X115345000Y-42504000D02*
X115726000Y-43139000D01*
X115726000Y-43139000D02*
X114964000Y-43139000D01*
X114964000Y-43139000D02*
X115345000Y-42504000D01*
X115751400Y-42504000D02*
X114938600Y-42504000D01*
X115345000Y-43139000D02*
X115345000Y-44002600D01*
%TO.C,D7*%
X21245000Y-65135000D02*
X22845000Y-65135000D01*
X21245000Y-67168200D02*
X21245000Y-65135000D01*
X22845000Y-67168200D02*
X21245000Y-67168200D01*
X22845000Y-65135000D02*
X22845000Y-67168200D01*
G36*
X21664000Y-68489000D02*
G01*
X22045000Y-67854000D01*
X22426000Y-68489000D01*
X21664000Y-68489000D01*
G37*
X21664000Y-68489000D02*
X22045000Y-67854000D01*
X22426000Y-68489000D01*
X21664000Y-68489000D01*
X22045000Y-67193600D02*
X22045000Y-67854000D01*
X22045000Y-67854000D02*
X22426000Y-68489000D01*
X22426000Y-68489000D02*
X21664000Y-68489000D01*
X21664000Y-68489000D02*
X22045000Y-67854000D01*
X22451400Y-67854000D02*
X21638600Y-67854000D01*
X22045000Y-68489000D02*
X22045000Y-69352600D01*
%TO.C,D8*%
X38545000Y-65335000D02*
X40145000Y-65335000D01*
X38545000Y-67368200D02*
X38545000Y-65335000D01*
X40145000Y-67368200D02*
X38545000Y-67368200D01*
X40145000Y-65335000D02*
X40145000Y-67368200D01*
G36*
X38964000Y-68689000D02*
G01*
X39345000Y-68054000D01*
X39726000Y-68689000D01*
X38964000Y-68689000D01*
G37*
X38964000Y-68689000D02*
X39345000Y-68054000D01*
X39726000Y-68689000D01*
X38964000Y-68689000D01*
X39345000Y-67393600D02*
X39345000Y-68054000D01*
X39345000Y-68054000D02*
X39726000Y-68689000D01*
X39726000Y-68689000D02*
X38964000Y-68689000D01*
X38964000Y-68689000D02*
X39345000Y-68054000D01*
X39751400Y-68054000D02*
X38938600Y-68054000D01*
X39345000Y-68689000D02*
X39345000Y-69552600D01*
%TO.C,D9*%
X57545000Y-49785000D02*
X59145000Y-49785000D01*
X57545000Y-51818200D02*
X57545000Y-49785000D01*
X59145000Y-51818200D02*
X57545000Y-51818200D01*
X59145000Y-49785000D02*
X59145000Y-51818200D01*
G36*
X57964000Y-53139000D02*
G01*
X58345000Y-52504000D01*
X58726000Y-53139000D01*
X57964000Y-53139000D01*
G37*
X57964000Y-53139000D02*
X58345000Y-52504000D01*
X58726000Y-53139000D01*
X57964000Y-53139000D01*
X58345000Y-51843600D02*
X58345000Y-52504000D01*
X58345000Y-52504000D02*
X58726000Y-53139000D01*
X58726000Y-53139000D02*
X57964000Y-53139000D01*
X57964000Y-53139000D02*
X58345000Y-52504000D01*
X58751400Y-52504000D02*
X57938600Y-52504000D01*
X58345000Y-53139000D02*
X58345000Y-54002600D01*
%TO.C,D10*%
X76545000Y-46785000D02*
X78145000Y-46785000D01*
X76545000Y-48818200D02*
X76545000Y-46785000D01*
X78145000Y-48818200D02*
X76545000Y-48818200D01*
X78145000Y-46785000D02*
X78145000Y-48818200D01*
G36*
X76964000Y-50139000D02*
G01*
X77345000Y-49504000D01*
X77726000Y-50139000D01*
X76964000Y-50139000D01*
G37*
X76964000Y-50139000D02*
X77345000Y-49504000D01*
X77726000Y-50139000D01*
X76964000Y-50139000D01*
X77345000Y-48843600D02*
X77345000Y-49504000D01*
X77345000Y-49504000D02*
X77726000Y-50139000D01*
X77726000Y-50139000D02*
X76964000Y-50139000D01*
X76964000Y-50139000D02*
X77345000Y-49504000D01*
X77751400Y-49504000D02*
X76938600Y-49504000D01*
X77345000Y-50139000D02*
X77345000Y-51002600D01*
%TO.C,D11*%
X95545000Y-56785000D02*
X97145000Y-56785000D01*
X95545000Y-58818200D02*
X95545000Y-56785000D01*
X97145000Y-58818200D02*
X95545000Y-58818200D01*
X97145000Y-56785000D02*
X97145000Y-58818200D01*
G36*
X95964000Y-60139000D02*
G01*
X96345000Y-59504000D01*
X96726000Y-60139000D01*
X95964000Y-60139000D01*
G37*
X95964000Y-60139000D02*
X96345000Y-59504000D01*
X96726000Y-60139000D01*
X95964000Y-60139000D01*
X96345000Y-58843600D02*
X96345000Y-59504000D01*
X96345000Y-59504000D02*
X96726000Y-60139000D01*
X96726000Y-60139000D02*
X95964000Y-60139000D01*
X95964000Y-60139000D02*
X96345000Y-59504000D01*
X96751400Y-59504000D02*
X95938600Y-59504000D01*
X96345000Y-60139000D02*
X96345000Y-61002600D01*
%TO.C,D12*%
X114545000Y-58785000D02*
X116145000Y-58785000D01*
X114545000Y-60818200D02*
X114545000Y-58785000D01*
X116145000Y-60818200D02*
X114545000Y-60818200D01*
X116145000Y-58785000D02*
X116145000Y-60818200D01*
G36*
X114964000Y-62139000D02*
G01*
X115345000Y-61504000D01*
X115726000Y-62139000D01*
X114964000Y-62139000D01*
G37*
X114964000Y-62139000D02*
X115345000Y-61504000D01*
X115726000Y-62139000D01*
X114964000Y-62139000D01*
X115345000Y-60843600D02*
X115345000Y-61504000D01*
X115345000Y-61504000D02*
X115726000Y-62139000D01*
X115726000Y-62139000D02*
X114964000Y-62139000D01*
X114964000Y-62139000D02*
X115345000Y-61504000D01*
X115751400Y-61504000D02*
X114938600Y-61504000D01*
X115345000Y-62139000D02*
X115345000Y-63002600D01*
%TO.C,D13*%
X21051063Y-83074447D02*
X22651063Y-83074447D01*
X21051063Y-85107647D02*
X21051063Y-83074447D01*
X22651063Y-85107647D02*
X21051063Y-85107647D01*
X22651063Y-83074447D02*
X22651063Y-85107647D01*
G36*
X21470063Y-86428447D02*
G01*
X21851063Y-85793447D01*
X22232063Y-86428447D01*
X21470063Y-86428447D01*
G37*
X21470063Y-86428447D02*
X21851063Y-85793447D01*
X22232063Y-86428447D01*
X21470063Y-86428447D01*
X21851063Y-85133047D02*
X21851063Y-85793447D01*
X21851063Y-85793447D02*
X22232063Y-86428447D01*
X22232063Y-86428447D02*
X21470063Y-86428447D01*
X21470063Y-86428447D02*
X21851063Y-85793447D01*
X22257463Y-85793447D02*
X21444663Y-85793447D01*
X21851063Y-86428447D02*
X21851063Y-87292047D01*
%TO.C,D14*%
X38545000Y-84335000D02*
X40145000Y-84335000D01*
X38545000Y-86368200D02*
X38545000Y-84335000D01*
X40145000Y-86368200D02*
X38545000Y-86368200D01*
X40145000Y-84335000D02*
X40145000Y-86368200D01*
G36*
X38964000Y-87689000D02*
G01*
X39345000Y-87054000D01*
X39726000Y-87689000D01*
X38964000Y-87689000D01*
G37*
X38964000Y-87689000D02*
X39345000Y-87054000D01*
X39726000Y-87689000D01*
X38964000Y-87689000D01*
X39345000Y-86393600D02*
X39345000Y-87054000D01*
X39345000Y-87054000D02*
X39726000Y-87689000D01*
X39726000Y-87689000D02*
X38964000Y-87689000D01*
X38964000Y-87689000D02*
X39345000Y-87054000D01*
X39751400Y-87054000D02*
X38938600Y-87054000D01*
X39345000Y-87689000D02*
X39345000Y-88552600D01*
%TO.C,D15*%
X57545000Y-68785000D02*
X59145000Y-68785000D01*
X57545000Y-70818200D02*
X57545000Y-68785000D01*
X59145000Y-70818200D02*
X57545000Y-70818200D01*
X59145000Y-68785000D02*
X59145000Y-70818200D01*
G36*
X57964000Y-72139000D02*
G01*
X58345000Y-71504000D01*
X58726000Y-72139000D01*
X57964000Y-72139000D01*
G37*
X57964000Y-72139000D02*
X58345000Y-71504000D01*
X58726000Y-72139000D01*
X57964000Y-72139000D01*
X58345000Y-70843600D02*
X58345000Y-71504000D01*
X58345000Y-71504000D02*
X58726000Y-72139000D01*
X58726000Y-72139000D02*
X57964000Y-72139000D01*
X57964000Y-72139000D02*
X58345000Y-71504000D01*
X58751400Y-71504000D02*
X57938600Y-71504000D01*
X58345000Y-72139000D02*
X58345000Y-73002600D01*
%TO.C,D16*%
X75050487Y-66304854D02*
X76650487Y-66304854D01*
X75050487Y-68338054D02*
X75050487Y-66304854D01*
X76650487Y-68338054D02*
X75050487Y-68338054D01*
X76650487Y-66304854D02*
X76650487Y-68338054D01*
G36*
X75469487Y-69658854D02*
G01*
X75850487Y-69023854D01*
X76231487Y-69658854D01*
X75469487Y-69658854D01*
G37*
X75469487Y-69658854D02*
X75850487Y-69023854D01*
X76231487Y-69658854D01*
X75469487Y-69658854D01*
X75850487Y-68363454D02*
X75850487Y-69023854D01*
X75850487Y-69023854D02*
X76231487Y-69658854D01*
X76231487Y-69658854D02*
X75469487Y-69658854D01*
X75469487Y-69658854D02*
X75850487Y-69023854D01*
X76256887Y-69023854D02*
X75444087Y-69023854D01*
X75850487Y-69658854D02*
X75850487Y-70522454D01*
%TO.C,D17*%
X95545000Y-75785000D02*
X97145000Y-75785000D01*
X95545000Y-77818200D02*
X95545000Y-75785000D01*
X97145000Y-77818200D02*
X95545000Y-77818200D01*
X97145000Y-75785000D02*
X97145000Y-77818200D01*
G36*
X95964000Y-79139000D02*
G01*
X96345000Y-78504000D01*
X96726000Y-79139000D01*
X95964000Y-79139000D01*
G37*
X95964000Y-79139000D02*
X96345000Y-78504000D01*
X96726000Y-79139000D01*
X95964000Y-79139000D01*
X96345000Y-77843600D02*
X96345000Y-78504000D01*
X96345000Y-78504000D02*
X96726000Y-79139000D01*
X96726000Y-79139000D02*
X95964000Y-79139000D01*
X95964000Y-79139000D02*
X96345000Y-78504000D01*
X96751400Y-78504000D02*
X95938600Y-78504000D01*
X96345000Y-79139000D02*
X96345000Y-80002600D01*
%TO.C,D18*%
X114545000Y-77785000D02*
X116145000Y-77785000D01*
X114545000Y-79818200D02*
X114545000Y-77785000D01*
X116145000Y-79818200D02*
X114545000Y-79818200D01*
X116145000Y-77785000D02*
X116145000Y-79818200D01*
G36*
X114964000Y-81139000D02*
G01*
X115345000Y-80504000D01*
X115726000Y-81139000D01*
X114964000Y-81139000D01*
G37*
X114964000Y-81139000D02*
X115345000Y-80504000D01*
X115726000Y-81139000D01*
X114964000Y-81139000D01*
X115345000Y-79843600D02*
X115345000Y-80504000D01*
X115345000Y-80504000D02*
X115726000Y-81139000D01*
X115726000Y-81139000D02*
X114964000Y-81139000D01*
X114964000Y-81139000D02*
X115345000Y-80504000D01*
X115751400Y-80504000D02*
X114938600Y-80504000D01*
X115345000Y-81139000D02*
X115345000Y-82002600D01*
%TO.C,D19*%
X77581710Y-101730498D02*
X79181710Y-101730498D01*
X77581710Y-103763698D02*
X77581710Y-101730498D01*
X79181710Y-103763698D02*
X77581710Y-103763698D01*
X79181710Y-101730498D02*
X79181710Y-103763698D01*
G36*
X78000710Y-105084498D02*
G01*
X78381710Y-104449498D01*
X78762710Y-105084498D01*
X78000710Y-105084498D01*
G37*
X78000710Y-105084498D02*
X78381710Y-104449498D01*
X78762710Y-105084498D01*
X78000710Y-105084498D01*
X78381710Y-103789098D02*
X78381710Y-104449498D01*
X78381710Y-104449498D02*
X78762710Y-105084498D01*
X78762710Y-105084498D02*
X78000710Y-105084498D01*
X78000710Y-105084498D02*
X78381710Y-104449498D01*
X78788110Y-104449498D02*
X77975310Y-104449498D01*
X78381710Y-105084498D02*
X78381710Y-105948098D01*
%TO.C,D20*%
X81157500Y-94794000D02*
X82757500Y-94794000D01*
X81157500Y-96827200D02*
X81157500Y-94794000D01*
X82757500Y-96827200D02*
X81157500Y-96827200D01*
X82757500Y-94794000D02*
X82757500Y-96827200D01*
G36*
X81576500Y-98148000D02*
G01*
X81957500Y-97513000D01*
X82338500Y-98148000D01*
X81576500Y-98148000D01*
G37*
X81576500Y-98148000D02*
X81957500Y-97513000D01*
X82338500Y-98148000D01*
X81576500Y-98148000D01*
X81957500Y-96852600D02*
X81957500Y-97513000D01*
X81957500Y-97513000D02*
X82338500Y-98148000D01*
X82338500Y-98148000D02*
X81576500Y-98148000D01*
X81576500Y-98148000D02*
X81957500Y-97513000D01*
X82363900Y-97513000D02*
X81551100Y-97513000D01*
X81957500Y-98148000D02*
X81957500Y-99011600D01*
%TO.C,D21*%
X100157500Y-96794000D02*
X101757500Y-96794000D01*
X100157500Y-98827200D02*
X100157500Y-96794000D01*
X101757500Y-98827200D02*
X100157500Y-98827200D01*
X101757500Y-96794000D02*
X101757500Y-98827200D01*
G36*
X100576500Y-100148000D02*
G01*
X100957500Y-99513000D01*
X101338500Y-100148000D01*
X100576500Y-100148000D01*
G37*
X100576500Y-100148000D02*
X100957500Y-99513000D01*
X101338500Y-100148000D01*
X100576500Y-100148000D01*
X100957500Y-98852600D02*
X100957500Y-99513000D01*
X100957500Y-99513000D02*
X101338500Y-100148000D01*
X101338500Y-100148000D02*
X100576500Y-100148000D01*
X100576500Y-100148000D02*
X100957500Y-99513000D01*
X101363900Y-99513000D02*
X100551100Y-99513000D01*
X100957500Y-100148000D02*
X100957500Y-101011600D01*
%TO.C,D22*%
X159748018Y-117449689D02*
X160025856Y-115873996D01*
X161750330Y-117802750D02*
X159748018Y-117449689D01*
X162028167Y-116227058D02*
X161750330Y-117802750D01*
X160025856Y-115873996D02*
X162028167Y-116227058D01*
G36*
X163123822Y-117619470D02*
G01*
X162564629Y-117133992D01*
X163256142Y-116869047D01*
X163123822Y-117619470D01*
G37*
X163123822Y-117619470D02*
X162564629Y-117133992D01*
X163256142Y-116869047D01*
X163123822Y-117619470D01*
X161914262Y-117019315D02*
X162564629Y-117133992D01*
X162564629Y-117133992D02*
X163256142Y-116869047D01*
X163256142Y-116869047D02*
X163123822Y-117619470D01*
X163123822Y-117619470D02*
X162564629Y-117133992D01*
X162635200Y-116733766D02*
X162494059Y-117534218D01*
X163189982Y-117244259D02*
X164040462Y-117394221D01*
%TO.C,D23*%
X136494311Y-109602018D02*
X138070004Y-109879856D01*
X136141250Y-111604330D02*
X136494311Y-109602018D01*
X137716942Y-111882167D02*
X136141250Y-111604330D01*
X138070004Y-109879856D02*
X137716942Y-111882167D01*
G36*
X136324530Y-112977822D02*
G01*
X136810008Y-112418629D01*
X137074953Y-113110142D01*
X136324530Y-112977822D01*
G37*
X136324530Y-112977822D02*
X136810008Y-112418629D01*
X137074953Y-113110142D01*
X136324530Y-112977822D01*
X136924685Y-111768262D02*
X136810008Y-112418629D01*
X136810008Y-112418629D02*
X137074953Y-113110142D01*
X137074953Y-113110142D02*
X136324530Y-112977822D01*
X136324530Y-112977822D02*
X136810008Y-112418629D01*
X137210234Y-112489200D02*
X136409782Y-112348059D01*
X136699741Y-113043982D02*
X136549779Y-113894462D01*
%TO.C,D24*%
X155374311Y-112012018D02*
X156950004Y-112289856D01*
X155021250Y-114014330D02*
X155374311Y-112012018D01*
X156596942Y-114292167D02*
X155021250Y-114014330D01*
X156950004Y-112289856D02*
X156596942Y-114292167D01*
G36*
X155204530Y-115387822D02*
G01*
X155690008Y-114828629D01*
X155954953Y-115520142D01*
X155204530Y-115387822D01*
G37*
X155204530Y-115387822D02*
X155690008Y-114828629D01*
X155954953Y-115520142D01*
X155204530Y-115387822D01*
X155804685Y-114178262D02*
X155690008Y-114828629D01*
X155690008Y-114828629D02*
X155954953Y-115520142D01*
X155954953Y-115520142D02*
X155204530Y-115387822D01*
X155204530Y-115387822D02*
X155690008Y-114828629D01*
X156090234Y-114899200D02*
X155289782Y-114758059D01*
X155579741Y-115453982D02*
X155429779Y-116304462D01*
D12*
%TO.C,BZ1*%
X60819312Y-98768148D02*
X60819312Y-82768148D01*
X60819312Y-82768148D02*
X76819312Y-82768148D01*
X76819312Y-82768148D02*
X76819312Y-98768148D01*
X76819312Y-98768148D02*
X60819312Y-98768148D01*
%TO.C,F2*%
X27996936Y-28974000D02*
X29201064Y-28974000D01*
X27996936Y-30794000D02*
X29201064Y-30794000D01*
%TO.C,U1*%
X27243000Y-25295000D02*
X29743000Y-25295000D01*
X27243000Y-28395000D02*
X31643000Y-28395000D01*
%TO.C,X1*%
X155637043Y-63698154D02*
X160162527Y-68223638D01*
X152066154Y-67269043D02*
X156591638Y-71794527D01*
X152066155Y-67269044D02*
G75*
G02*
X155637043Y-63698154I1785444J1785445D01*
G01*
X156591637Y-71794526D02*
G75*
G03*
X160162527Y-68223638I1785445J1785444D01*
G01*
D13*
%TO.C,L1*%
G36*
X24227000Y-49116000D02*
G01*
X24862000Y-49116000D01*
X24862000Y-49751000D01*
X24227000Y-49116000D01*
G37*
X24227000Y-49116000D02*
X24862000Y-49116000D01*
X24862000Y-49751000D01*
X24227000Y-49116000D01*
%TO.C,L2*%
G36*
X43227000Y-47816000D02*
G01*
X43862000Y-47816000D01*
X43862000Y-48451000D01*
X43227000Y-47816000D01*
G37*
X43227000Y-47816000D02*
X43862000Y-47816000D01*
X43862000Y-48451000D01*
X43227000Y-47816000D01*
%TO.C,L3*%
G36*
X62227000Y-32266000D02*
G01*
X62862000Y-32266000D01*
X62862000Y-32901000D01*
X62227000Y-32266000D01*
G37*
X62227000Y-32266000D02*
X62862000Y-32266000D01*
X62862000Y-32901000D01*
X62227000Y-32266000D01*
%TO.C,L4*%
G36*
X81227000Y-29266000D02*
G01*
X81862000Y-29266000D01*
X81862000Y-29901000D01*
X81227000Y-29266000D01*
G37*
X81227000Y-29266000D02*
X81862000Y-29266000D01*
X81862000Y-29901000D01*
X81227000Y-29266000D01*
%TO.C,L5*%
G36*
X100227000Y-39266000D02*
G01*
X100862000Y-39266000D01*
X100862000Y-39901000D01*
X100227000Y-39266000D01*
G37*
X100227000Y-39266000D02*
X100862000Y-39266000D01*
X100862000Y-39901000D01*
X100227000Y-39266000D01*
%TO.C,L6*%
G36*
X119227000Y-41266000D02*
G01*
X119862000Y-41266000D01*
X119862000Y-41901000D01*
X119227000Y-41266000D01*
G37*
X119227000Y-41266000D02*
X119862000Y-41266000D01*
X119862000Y-41901000D01*
X119227000Y-41266000D01*
%TO.C,L7*%
G36*
X32863000Y-67354000D02*
G01*
X32228000Y-67354000D01*
X32228000Y-66719000D01*
X32863000Y-67354000D01*
G37*
X32863000Y-67354000D02*
X32228000Y-67354000D01*
X32228000Y-66719000D01*
X32863000Y-67354000D01*
%TO.C,L8*%
G36*
X51863000Y-66054000D02*
G01*
X51228000Y-66054000D01*
X51228000Y-65419000D01*
X51863000Y-66054000D01*
G37*
X51863000Y-66054000D02*
X51228000Y-66054000D01*
X51228000Y-65419000D01*
X51863000Y-66054000D01*
%TO.C,L9*%
G36*
X70863000Y-50504000D02*
G01*
X70228000Y-50504000D01*
X70228000Y-49869000D01*
X70863000Y-50504000D01*
G37*
X70863000Y-50504000D02*
X70228000Y-50504000D01*
X70228000Y-49869000D01*
X70863000Y-50504000D01*
%TO.C,L10*%
G36*
X89863000Y-47504000D02*
G01*
X89228000Y-47504000D01*
X89228000Y-46869000D01*
X89863000Y-47504000D01*
G37*
X89863000Y-47504000D02*
X89228000Y-47504000D01*
X89228000Y-46869000D01*
X89863000Y-47504000D01*
%TO.C,L11*%
G36*
X108863000Y-57504000D02*
G01*
X108228000Y-57504000D01*
X108228000Y-56869000D01*
X108863000Y-57504000D01*
G37*
X108863000Y-57504000D02*
X108228000Y-57504000D01*
X108228000Y-56869000D01*
X108863000Y-57504000D01*
%TO.C,L12*%
G36*
X127863000Y-59504000D02*
G01*
X127228000Y-59504000D01*
X127228000Y-58869000D01*
X127863000Y-59504000D01*
G37*
X127863000Y-59504000D02*
X127228000Y-59504000D01*
X127228000Y-58869000D01*
X127863000Y-59504000D01*
%TO.C,L13*%
G36*
X24227000Y-87116000D02*
G01*
X24862000Y-87116000D01*
X24862000Y-87751000D01*
X24227000Y-87116000D01*
G37*
X24227000Y-87116000D02*
X24862000Y-87116000D01*
X24862000Y-87751000D01*
X24227000Y-87116000D01*
%TO.C,L14*%
G36*
X43227000Y-85816000D02*
G01*
X43862000Y-85816000D01*
X43862000Y-86451000D01*
X43227000Y-85816000D01*
G37*
X43227000Y-85816000D02*
X43862000Y-85816000D01*
X43862000Y-86451000D01*
X43227000Y-85816000D01*
%TO.C,L15*%
G36*
X62227000Y-70266000D02*
G01*
X62862000Y-70266000D01*
X62862000Y-70901000D01*
X62227000Y-70266000D01*
G37*
X62227000Y-70266000D02*
X62862000Y-70266000D01*
X62862000Y-70901000D01*
X62227000Y-70266000D01*
%TO.C,L16*%
G36*
X81227000Y-67266000D02*
G01*
X81862000Y-67266000D01*
X81862000Y-67901000D01*
X81227000Y-67266000D01*
G37*
X81227000Y-67266000D02*
X81862000Y-67266000D01*
X81862000Y-67901000D01*
X81227000Y-67266000D01*
%TO.C,L17*%
G36*
X100227000Y-77266000D02*
G01*
X100862000Y-77266000D01*
X100862000Y-77901000D01*
X100227000Y-77266000D01*
G37*
X100227000Y-77266000D02*
X100862000Y-77266000D01*
X100862000Y-77901000D01*
X100227000Y-77266000D01*
%TO.C,L18*%
G36*
X119227000Y-79266000D02*
G01*
X119862000Y-79266000D01*
X119862000Y-79901000D01*
X119227000Y-79266000D01*
G37*
X119227000Y-79266000D02*
X119862000Y-79266000D01*
X119862000Y-79901000D01*
X119227000Y-79266000D01*
%TO.C,L19*%
G36*
X94475500Y-95513000D02*
G01*
X93840500Y-95513000D01*
X93840500Y-94878000D01*
X94475500Y-95513000D01*
G37*
X94475500Y-95513000D02*
X93840500Y-95513000D01*
X93840500Y-94878000D01*
X94475500Y-95513000D01*
%TO.C,L20*%
G36*
X113475500Y-97513000D02*
G01*
X112840500Y-97513000D01*
X112840500Y-96878000D01*
X113475500Y-97513000D01*
G37*
X113475500Y-97513000D02*
X112840500Y-97513000D01*
X112840500Y-96878000D01*
X113475500Y-97513000D01*
%TO.C,L21*%
G36*
X133447064Y-109514404D02*
G01*
X132821711Y-109404137D01*
X132931978Y-108778785D01*
X133447064Y-109514404D01*
G37*
X133447064Y-109514404D02*
X132821711Y-109404137D01*
X132931978Y-108778785D01*
X133447064Y-109514404D01*
%TO.C,L22*%
G36*
X152388560Y-112968601D02*
G01*
X151763207Y-112858334D01*
X151873474Y-112232982D01*
X152388560Y-112968601D01*
G37*
X152388560Y-112968601D02*
X151763207Y-112858334D01*
X151873474Y-112232982D01*
X152388560Y-112968601D01*
%TO.C,L23*%
G36*
X159035399Y-129192560D02*
G01*
X159145666Y-128567207D01*
X159771018Y-128677474D01*
X159035399Y-129192560D01*
G37*
X159035399Y-129192560D02*
X159145666Y-128567207D01*
X159771018Y-128677474D01*
X159035399Y-129192560D01*
%TO.C,L39*%
D10*
X130668714Y-30457380D02*
X130097285Y-30457380D01*
X130383000Y-30457380D02*
X130383000Y-29457380D01*
X130287761Y-29600238D01*
X130192523Y-29695476D01*
X130097285Y-29743095D01*
X133890142Y-35807380D02*
X133413952Y-35807380D01*
X133413952Y-34807380D01*
X134128238Y-34807380D02*
X134747285Y-34807380D01*
X134413952Y-35188333D01*
X134556809Y-35188333D01*
X134652047Y-35235952D01*
X134699666Y-35283571D01*
X134747285Y-35378809D01*
X134747285Y-35616904D01*
X134699666Y-35712142D01*
X134652047Y-35759761D01*
X134556809Y-35807380D01*
X134271095Y-35807380D01*
X134175857Y-35759761D01*
X134128238Y-35712142D01*
X135223476Y-35807380D02*
X135413952Y-35807380D01*
X135509190Y-35759761D01*
X135556809Y-35712142D01*
X135652047Y-35569285D01*
X135699666Y-35378809D01*
X135699666Y-34997857D01*
X135652047Y-34902619D01*
X135604428Y-34855000D01*
X135509190Y-34807380D01*
X135318714Y-34807380D01*
X135223476Y-34855000D01*
X135175857Y-34902619D01*
X135128238Y-34997857D01*
X135128238Y-35235952D01*
X135175857Y-35331190D01*
X135223476Y-35378809D01*
X135318714Y-35426428D01*
X135509190Y-35426428D01*
X135604428Y-35378809D01*
X135652047Y-35331190D01*
X135699666Y-35235952D01*
%TO.C,R7*%
X159333333Y-78802380D02*
X159000000Y-78326190D01*
X158761904Y-78802380D02*
X158761904Y-77802380D01*
X159142857Y-77802380D01*
X159238095Y-77850000D01*
X159285714Y-77897619D01*
X159333333Y-77992857D01*
X159333333Y-78135714D01*
X159285714Y-78230952D01*
X159238095Y-78278571D01*
X159142857Y-78326190D01*
X158761904Y-78326190D01*
X159666666Y-77802380D02*
X160333333Y-77802380D01*
X159904761Y-78802380D01*
%TO.C,R8*%
X159333333Y-77602380D02*
X159000000Y-77126190D01*
X158761904Y-77602380D02*
X158761904Y-76602380D01*
X159142857Y-76602380D01*
X159238095Y-76650000D01*
X159285714Y-76697619D01*
X159333333Y-76792857D01*
X159333333Y-76935714D01*
X159285714Y-77030952D01*
X159238095Y-77078571D01*
X159142857Y-77126190D01*
X158761904Y-77126190D01*
X159904761Y-77030952D02*
X159809523Y-76983333D01*
X159761904Y-76935714D01*
X159714285Y-76840476D01*
X159714285Y-76792857D01*
X159761904Y-76697619D01*
X159809523Y-76650000D01*
X159904761Y-76602380D01*
X160095238Y-76602380D01*
X160190476Y-76650000D01*
X160238095Y-76697619D01*
X160285714Y-76792857D01*
X160285714Y-76840476D01*
X160238095Y-76935714D01*
X160190476Y-76983333D01*
X160095238Y-77030952D01*
X159904761Y-77030952D01*
X159809523Y-77078571D01*
X159761904Y-77126190D01*
X159714285Y-77221428D01*
X159714285Y-77411904D01*
X159761904Y-77507142D01*
X159809523Y-77554761D01*
X159904761Y-77602380D01*
X160095238Y-77602380D01*
X160190476Y-77554761D01*
X160238095Y-77507142D01*
X160285714Y-77411904D01*
X160285714Y-77221428D01*
X160238095Y-77126190D01*
X160190476Y-77078571D01*
X160095238Y-77030952D01*
%TO.C,R6*%
X157922380Y-83216666D02*
X157446190Y-83550000D01*
X157922380Y-83788095D02*
X156922380Y-83788095D01*
X156922380Y-83407142D01*
X156970000Y-83311904D01*
X157017619Y-83264285D01*
X157112857Y-83216666D01*
X157255714Y-83216666D01*
X157350952Y-83264285D01*
X157398571Y-83311904D01*
X157446190Y-83407142D01*
X157446190Y-83788095D01*
X156922380Y-82359523D02*
X156922380Y-82550000D01*
X156970000Y-82645238D01*
X157017619Y-82692857D01*
X157160476Y-82788095D01*
X157350952Y-82835714D01*
X157731904Y-82835714D01*
X157827142Y-82788095D01*
X157874761Y-82740476D01*
X157922380Y-82645238D01*
X157922380Y-82454761D01*
X157874761Y-82359523D01*
X157827142Y-82311904D01*
X157731904Y-82264285D01*
X157493809Y-82264285D01*
X157398571Y-82311904D01*
X157350952Y-82359523D01*
X157303333Y-82454761D01*
X157303333Y-82645238D01*
X157350952Y-82740476D01*
X157398571Y-82788095D01*
X157493809Y-82835714D01*
%TO.C,R1*%
X152622380Y-83216666D02*
X152146190Y-83550000D01*
X152622380Y-83788095D02*
X151622380Y-83788095D01*
X151622380Y-83407142D01*
X151670000Y-83311904D01*
X151717619Y-83264285D01*
X151812857Y-83216666D01*
X151955714Y-83216666D01*
X152050952Y-83264285D01*
X152098571Y-83311904D01*
X152146190Y-83407142D01*
X152146190Y-83788095D01*
X152622380Y-82264285D02*
X152622380Y-82835714D01*
X152622380Y-82550000D02*
X151622380Y-82550000D01*
X151765238Y-82645238D01*
X151860476Y-82740476D01*
X151908095Y-82835714D01*
%TO.C,H10*%
X56041904Y-83532380D02*
X56041904Y-82532380D01*
X56041904Y-83008571D02*
X56613333Y-83008571D01*
X56613333Y-83532380D02*
X56613333Y-82532380D01*
X57613333Y-83532380D02*
X57041904Y-83532380D01*
X57327619Y-83532380D02*
X57327619Y-82532380D01*
X57232380Y-82675238D01*
X57137142Y-82770476D01*
X57041904Y-82818095D01*
X58232380Y-82532380D02*
X58327619Y-82532380D01*
X58422857Y-82580000D01*
X58470476Y-82627619D01*
X58518095Y-82722857D01*
X58565714Y-82913333D01*
X58565714Y-83151428D01*
X58518095Y-83341904D01*
X58470476Y-83437142D01*
X58422857Y-83484761D01*
X58327619Y-83532380D01*
X58232380Y-83532380D01*
X58137142Y-83484761D01*
X58089523Y-83437142D01*
X58041904Y-83341904D01*
X57994285Y-83151428D01*
X57994285Y-82913333D01*
X58041904Y-82722857D01*
X58089523Y-82627619D01*
X58137142Y-82580000D01*
X58232380Y-82532380D01*
%TO.C,H9*%
X146488095Y-128212380D02*
X146488095Y-127212380D01*
X146488095Y-127688571D02*
X147059523Y-127688571D01*
X147059523Y-128212380D02*
X147059523Y-127212380D01*
X147583333Y-128212380D02*
X147773809Y-128212380D01*
X147869047Y-128164761D01*
X147916666Y-128117142D01*
X148011904Y-127974285D01*
X148059523Y-127783809D01*
X148059523Y-127402857D01*
X148011904Y-127307619D01*
X147964285Y-127260000D01*
X147869047Y-127212380D01*
X147678571Y-127212380D01*
X147583333Y-127260000D01*
X147535714Y-127307619D01*
X147488095Y-127402857D01*
X147488095Y-127640952D01*
X147535714Y-127736190D01*
X147583333Y-127783809D01*
X147678571Y-127831428D01*
X147869047Y-127831428D01*
X147964285Y-127783809D01*
X148011904Y-127736190D01*
X148059523Y-127640952D01*
%TO.C,H8*%
X130408095Y-98492380D02*
X130408095Y-97492380D01*
X130408095Y-97968571D02*
X130979523Y-97968571D01*
X130979523Y-98492380D02*
X130979523Y-97492380D01*
X131598571Y-97920952D02*
X131503333Y-97873333D01*
X131455714Y-97825714D01*
X131408095Y-97730476D01*
X131408095Y-97682857D01*
X131455714Y-97587619D01*
X131503333Y-97540000D01*
X131598571Y-97492380D01*
X131789047Y-97492380D01*
X131884285Y-97540000D01*
X131931904Y-97587619D01*
X131979523Y-97682857D01*
X131979523Y-97730476D01*
X131931904Y-97825714D01*
X131884285Y-97873333D01*
X131789047Y-97920952D01*
X131598571Y-97920952D01*
X131503333Y-97968571D01*
X131455714Y-98016190D01*
X131408095Y-98111428D01*
X131408095Y-98301904D01*
X131455714Y-98397142D01*
X131503333Y-98444761D01*
X131598571Y-98492380D01*
X131789047Y-98492380D01*
X131884285Y-98444761D01*
X131931904Y-98397142D01*
X131979523Y-98301904D01*
X131979523Y-98111428D01*
X131931904Y-98016190D01*
X131884285Y-97968571D01*
X131789047Y-97920952D01*
%TO.C,H7*%
X92328095Y-86902380D02*
X92328095Y-85902380D01*
X92328095Y-86378571D02*
X92899523Y-86378571D01*
X92899523Y-86902380D02*
X92899523Y-85902380D01*
X93280476Y-85902380D02*
X93947142Y-85902380D01*
X93518571Y-86902380D01*
%TO.C,H6*%
X113698095Y-71792380D02*
X113698095Y-70792380D01*
X113698095Y-71268571D02*
X114269523Y-71268571D01*
X114269523Y-71792380D02*
X114269523Y-70792380D01*
X115174285Y-70792380D02*
X114983809Y-70792380D01*
X114888571Y-70840000D01*
X114840952Y-70887619D01*
X114745714Y-71030476D01*
X114698095Y-71220952D01*
X114698095Y-71601904D01*
X114745714Y-71697142D01*
X114793333Y-71744761D01*
X114888571Y-71792380D01*
X115079047Y-71792380D01*
X115174285Y-71744761D01*
X115221904Y-71697142D01*
X115269523Y-71601904D01*
X115269523Y-71363809D01*
X115221904Y-71268571D01*
X115174285Y-71220952D01*
X115079047Y-71173333D01*
X114888571Y-71173333D01*
X114793333Y-71220952D01*
X114745714Y-71268571D01*
X114698095Y-71363809D01*
%TO.C,H5*%
X113458095Y-52582380D02*
X113458095Y-51582380D01*
X113458095Y-52058571D02*
X114029523Y-52058571D01*
X114029523Y-52582380D02*
X114029523Y-51582380D01*
X114981904Y-51582380D02*
X114505714Y-51582380D01*
X114458095Y-52058571D01*
X114505714Y-52010952D01*
X114600952Y-51963333D01*
X114839047Y-51963333D01*
X114934285Y-52010952D01*
X114981904Y-52058571D01*
X115029523Y-52153809D01*
X115029523Y-52391904D01*
X114981904Y-52487142D01*
X114934285Y-52534761D01*
X114839047Y-52582380D01*
X114600952Y-52582380D01*
X114505714Y-52534761D01*
X114458095Y-52487142D01*
%TO.C,H4*%
X76038095Y-60462380D02*
X76038095Y-59462380D01*
X76038095Y-59938571D02*
X76609523Y-59938571D01*
X76609523Y-60462380D02*
X76609523Y-59462380D01*
X77514285Y-59795714D02*
X77514285Y-60462380D01*
X77276190Y-59414761D02*
X77038095Y-60129047D01*
X77657142Y-60129047D01*
%TO.C,H3*%
X76018095Y-41802380D02*
X76018095Y-40802380D01*
X76018095Y-41278571D02*
X76589523Y-41278571D01*
X76589523Y-41802380D02*
X76589523Y-40802380D01*
X76970476Y-40802380D02*
X77589523Y-40802380D01*
X77256190Y-41183333D01*
X77399047Y-41183333D01*
X77494285Y-41230952D01*
X77541904Y-41278571D01*
X77589523Y-41373809D01*
X77589523Y-41611904D01*
X77541904Y-41707142D01*
X77494285Y-41754761D01*
X77399047Y-41802380D01*
X77113333Y-41802380D01*
X77018095Y-41754761D01*
X76970476Y-41707142D01*
%TO.C,H2*%
X38228095Y-79042380D02*
X38228095Y-78042380D01*
X38228095Y-78518571D02*
X38799523Y-78518571D01*
X38799523Y-79042380D02*
X38799523Y-78042380D01*
X39228095Y-78137619D02*
X39275714Y-78090000D01*
X39370952Y-78042380D01*
X39609047Y-78042380D01*
X39704285Y-78090000D01*
X39751904Y-78137619D01*
X39799523Y-78232857D01*
X39799523Y-78328095D01*
X39751904Y-78470952D01*
X39180476Y-79042380D01*
X39799523Y-79042380D01*
%TO.C,H1*%
X37698095Y-60082380D02*
X37698095Y-59082380D01*
X37698095Y-59558571D02*
X38269523Y-59558571D01*
X38269523Y-60082380D02*
X38269523Y-59082380D01*
X39269523Y-60082380D02*
X38698095Y-60082380D01*
X38983809Y-60082380D02*
X38983809Y-59082380D01*
X38888571Y-59225238D01*
X38793333Y-59320476D01*
X38698095Y-59368095D01*
%TO.C,J2*%
X170575579Y-111134057D02*
X170451545Y-111837491D01*
X170379842Y-111969909D01*
X170269513Y-112047163D01*
X170120557Y-112069251D01*
X170026766Y-112052713D01*
X170981102Y-111302269D02*
X171036266Y-111263643D01*
X171138327Y-111233285D01*
X171372805Y-111274630D01*
X171458327Y-111338063D01*
X171496954Y-111393228D01*
X171527311Y-111495288D01*
X171510773Y-111589079D01*
X171439071Y-111721497D01*
X170777096Y-112185017D01*
X171386739Y-112292513D01*
%TO.C,RESET*%
X138170619Y-85600380D02*
X137837285Y-85124190D01*
X137599190Y-85600380D02*
X137599190Y-84600380D01*
X137980142Y-84600380D01*
X138075380Y-84648000D01*
X138123000Y-84695619D01*
X138170619Y-84790857D01*
X138170619Y-84933714D01*
X138123000Y-85028952D01*
X138075380Y-85076571D01*
X137980142Y-85124190D01*
X137599190Y-85124190D01*
X138599190Y-85076571D02*
X138932523Y-85076571D01*
X139075380Y-85600380D02*
X138599190Y-85600380D01*
X138599190Y-84600380D01*
X139075380Y-84600380D01*
X139456333Y-85552761D02*
X139599190Y-85600380D01*
X139837285Y-85600380D01*
X139932523Y-85552761D01*
X139980142Y-85505142D01*
X140027761Y-85409904D01*
X140027761Y-85314666D01*
X139980142Y-85219428D01*
X139932523Y-85171809D01*
X139837285Y-85124190D01*
X139646809Y-85076571D01*
X139551571Y-85028952D01*
X139503952Y-84981333D01*
X139456333Y-84886095D01*
X139456333Y-84790857D01*
X139503952Y-84695619D01*
X139551571Y-84648000D01*
X139646809Y-84600380D01*
X139884904Y-84600380D01*
X140027761Y-84648000D01*
X140456333Y-85076571D02*
X140789666Y-85076571D01*
X140932523Y-85600380D02*
X140456333Y-85600380D01*
X140456333Y-84600380D01*
X140932523Y-84600380D01*
X141218238Y-84600380D02*
X141789666Y-84600380D01*
X141503952Y-85600380D02*
X141503952Y-84600380D01*
%TO.C,J3*%
D14*
X145760365Y-38278852D02*
X145841165Y-38853774D01*
X145818997Y-38974145D01*
X145753114Y-39061574D01*
X145643516Y-39116062D01*
X145566860Y-39126836D01*
X146066989Y-38235759D02*
X146565255Y-38165732D01*
X146340051Y-38510064D01*
X146455036Y-38493904D01*
X146537078Y-38521459D01*
X146580793Y-38554400D01*
X146629895Y-38625670D01*
X146656828Y-38817310D01*
X146629273Y-38899353D01*
X146596332Y-38943068D01*
X146525062Y-38992169D01*
X146295094Y-39024489D01*
X146213051Y-38996934D01*
X146169336Y-38963993D01*
X147845620Y-38376640D02*
X147577323Y-38414347D01*
X147636577Y-38835956D02*
X147523457Y-38031066D01*
X147906738Y-37977199D01*
X148458501Y-57894240D02*
X148539301Y-58469162D01*
X148517132Y-58589533D01*
X148451250Y-58676962D01*
X148341652Y-58731450D01*
X148264996Y-58742224D01*
X148765125Y-57851147D02*
X149263390Y-57781120D01*
X149038187Y-58125452D01*
X149153171Y-58109292D01*
X149235214Y-58136847D01*
X149278929Y-58169788D01*
X149328030Y-58241058D01*
X149354964Y-58432698D01*
X149327409Y-58514741D01*
X149294468Y-58558456D01*
X149223198Y-58607557D01*
X148993229Y-58639877D01*
X148911187Y-58612322D01*
X148867472Y-58579381D01*
X150543756Y-57992028D02*
X150664127Y-58014196D01*
X150707842Y-58047138D01*
X150756943Y-58118407D01*
X150773103Y-58233391D01*
X150745548Y-58315434D01*
X150712607Y-58359149D01*
X150641337Y-58408250D01*
X150334713Y-58451344D01*
X150221593Y-57646454D01*
X150489889Y-57608747D01*
X150571932Y-57636302D01*
X150615647Y-57669243D01*
X150664748Y-57740513D01*
X150675522Y-57817169D01*
X150647967Y-57899212D01*
X150615025Y-57942927D01*
X150543756Y-57992028D01*
X150275459Y-58029735D01*
%TO.C,U3*%
D10*
X142718531Y-78921972D02*
X142146111Y-79494392D01*
X142112439Y-79595407D01*
X142112439Y-79662751D01*
X142146111Y-79763766D01*
X142280798Y-79898453D01*
X142381813Y-79932125D01*
X142449157Y-79932125D01*
X142550172Y-79898453D01*
X143122592Y-79326033D01*
X143391966Y-79595407D02*
X143829698Y-80033140D01*
X143324622Y-80066812D01*
X143425637Y-80167827D01*
X143459309Y-80268842D01*
X143459309Y-80336186D01*
X143425637Y-80437201D01*
X143257279Y-80605560D01*
X143156263Y-80639232D01*
X143088920Y-80639232D01*
X142987905Y-80605560D01*
X142785874Y-80403529D01*
X142752202Y-80302514D01*
X142752202Y-80235171D01*
%TO.C,R2*%
X136063333Y-71382380D02*
X135730000Y-70906190D01*
X135491904Y-71382380D02*
X135491904Y-70382380D01*
X135872857Y-70382380D01*
X135968095Y-70430000D01*
X136015714Y-70477619D01*
X136063333Y-70572857D01*
X136063333Y-70715714D01*
X136015714Y-70810952D01*
X135968095Y-70858571D01*
X135872857Y-70906190D01*
X135491904Y-70906190D01*
X136444285Y-70477619D02*
X136491904Y-70430000D01*
X136587142Y-70382380D01*
X136825238Y-70382380D01*
X136920476Y-70430000D01*
X136968095Y-70477619D01*
X137015714Y-70572857D01*
X137015714Y-70668095D01*
X136968095Y-70810952D01*
X136396666Y-71382380D01*
X137015714Y-71382380D01*
%TO.C,L42*%
X62111714Y-23973380D02*
X61540285Y-23973380D01*
X61826000Y-23973380D02*
X61826000Y-22973380D01*
X61730761Y-23116238D01*
X61635523Y-23211476D01*
X61540285Y-23259095D01*
X65333142Y-29323380D02*
X64856952Y-29323380D01*
X64856952Y-28323380D01*
X66095047Y-28656714D02*
X66095047Y-29323380D01*
X65856952Y-28275761D02*
X65618857Y-28990047D01*
X66237904Y-28990047D01*
X66571238Y-28418619D02*
X66618857Y-28371000D01*
X66714095Y-28323380D01*
X66952190Y-28323380D01*
X67047428Y-28371000D01*
X67095047Y-28418619D01*
X67142666Y-28513857D01*
X67142666Y-28609095D01*
X67095047Y-28751952D01*
X66523619Y-29323380D01*
X67142666Y-29323380D01*
%TO.C,L41*%
X98256714Y-29885380D02*
X97685285Y-29885380D01*
X97971000Y-29885380D02*
X97971000Y-28885380D01*
X97875761Y-29028238D01*
X97780523Y-29123476D01*
X97685285Y-29171095D01*
X101478142Y-35235380D02*
X101001952Y-35235380D01*
X101001952Y-34235380D01*
X102240047Y-34568714D02*
X102240047Y-35235380D01*
X102001952Y-34187761D02*
X101763857Y-34902047D01*
X102382904Y-34902047D01*
X103287666Y-35235380D02*
X102716238Y-35235380D01*
X103001952Y-35235380D02*
X103001952Y-34235380D01*
X102906714Y-34378238D01*
X102811476Y-34473476D01*
X102716238Y-34521095D01*
%TO.C,L40*%
X83009714Y-85240380D02*
X82438285Y-85240380D01*
X82724000Y-85240380D02*
X82724000Y-84240380D01*
X82628761Y-84383238D01*
X82533523Y-84478476D01*
X82438285Y-84526095D01*
X86231142Y-90590380D02*
X85754952Y-90590380D01*
X85754952Y-89590380D01*
X86993047Y-89923714D02*
X86993047Y-90590380D01*
X86754952Y-89542761D02*
X86516857Y-90257047D01*
X87135904Y-90257047D01*
X87707333Y-89590380D02*
X87802571Y-89590380D01*
X87897809Y-89638000D01*
X87945428Y-89685619D01*
X87993047Y-89780857D01*
X88040666Y-89971333D01*
X88040666Y-90209428D01*
X87993047Y-90399904D01*
X87945428Y-90495142D01*
X87897809Y-90542761D01*
X87802571Y-90590380D01*
X87707333Y-90590380D01*
X87612095Y-90542761D01*
X87564476Y-90495142D01*
X87516857Y-90399904D01*
X87469238Y-90209428D01*
X87469238Y-89971333D01*
X87516857Y-89780857D01*
X87564476Y-89685619D01*
X87612095Y-89638000D01*
X87707333Y-89590380D01*
%TO.C,C10*%
X158857142Y-76677142D02*
X158809523Y-76724761D01*
X158666666Y-76772380D01*
X158571428Y-76772380D01*
X158428571Y-76724761D01*
X158333333Y-76629523D01*
X158285714Y-76534285D01*
X158238095Y-76343809D01*
X158238095Y-76200952D01*
X158285714Y-76010476D01*
X158333333Y-75915238D01*
X158428571Y-75820000D01*
X158571428Y-75772380D01*
X158666666Y-75772380D01*
X158809523Y-75820000D01*
X158857142Y-75867619D01*
X159809523Y-76772380D02*
X159238095Y-76772380D01*
X159523809Y-76772380D02*
X159523809Y-75772380D01*
X159428571Y-75915238D01*
X159333333Y-76010476D01*
X159238095Y-76058095D01*
X160428571Y-75772380D02*
X160523809Y-75772380D01*
X160619047Y-75820000D01*
X160666666Y-75867619D01*
X160714285Y-75962857D01*
X160761904Y-76153333D01*
X160761904Y-76391428D01*
X160714285Y-76581904D01*
X160666666Y-76677142D01*
X160619047Y-76724761D01*
X160523809Y-76772380D01*
X160428571Y-76772380D01*
X160333333Y-76724761D01*
X160285714Y-76677142D01*
X160238095Y-76581904D01*
X160190476Y-76391428D01*
X160190476Y-76153333D01*
X160238095Y-75962857D01*
X160285714Y-75867619D01*
X160333333Y-75820000D01*
X160428571Y-75772380D01*
%TO.C,C9*%
X147953333Y-65767142D02*
X147905714Y-65814761D01*
X147762857Y-65862380D01*
X147667619Y-65862380D01*
X147524761Y-65814761D01*
X147429523Y-65719523D01*
X147381904Y-65624285D01*
X147334285Y-65433809D01*
X147334285Y-65290952D01*
X147381904Y-65100476D01*
X147429523Y-65005238D01*
X147524761Y-64910000D01*
X147667619Y-64862380D01*
X147762857Y-64862380D01*
X147905714Y-64910000D01*
X147953333Y-64957619D01*
X148429523Y-65862380D02*
X148620000Y-65862380D01*
X148715238Y-65814761D01*
X148762857Y-65767142D01*
X148858095Y-65624285D01*
X148905714Y-65433809D01*
X148905714Y-65052857D01*
X148858095Y-64957619D01*
X148810476Y-64910000D01*
X148715238Y-64862380D01*
X148524761Y-64862380D01*
X148429523Y-64910000D01*
X148381904Y-64957619D01*
X148334285Y-65052857D01*
X148334285Y-65290952D01*
X148381904Y-65386190D01*
X148429523Y-65433809D01*
X148524761Y-65481428D01*
X148715238Y-65481428D01*
X148810476Y-65433809D01*
X148858095Y-65386190D01*
X148905714Y-65290952D01*
%TO.C,C5*%
X136063333Y-78747142D02*
X136015714Y-78794761D01*
X135872857Y-78842380D01*
X135777619Y-78842380D01*
X135634761Y-78794761D01*
X135539523Y-78699523D01*
X135491904Y-78604285D01*
X135444285Y-78413809D01*
X135444285Y-78270952D01*
X135491904Y-78080476D01*
X135539523Y-77985238D01*
X135634761Y-77890000D01*
X135777619Y-77842380D01*
X135872857Y-77842380D01*
X136015714Y-77890000D01*
X136063333Y-77937619D01*
X136968095Y-77842380D02*
X136491904Y-77842380D01*
X136444285Y-78318571D01*
X136491904Y-78270952D01*
X136587142Y-78223333D01*
X136825238Y-78223333D01*
X136920476Y-78270952D01*
X136968095Y-78318571D01*
X137015714Y-78413809D01*
X137015714Y-78651904D01*
X136968095Y-78747142D01*
X136920476Y-78794761D01*
X136825238Y-78842380D01*
X136587142Y-78842380D01*
X136491904Y-78794761D01*
X136444285Y-78747142D01*
%TO.C,C4*%
X136063333Y-76647142D02*
X136015714Y-76694761D01*
X135872857Y-76742380D01*
X135777619Y-76742380D01*
X135634761Y-76694761D01*
X135539523Y-76599523D01*
X135491904Y-76504285D01*
X135444285Y-76313809D01*
X135444285Y-76170952D01*
X135491904Y-75980476D01*
X135539523Y-75885238D01*
X135634761Y-75790000D01*
X135777619Y-75742380D01*
X135872857Y-75742380D01*
X136015714Y-75790000D01*
X136063333Y-75837619D01*
X136920476Y-76075714D02*
X136920476Y-76742380D01*
X136682380Y-75694761D02*
X136444285Y-76409047D01*
X137063333Y-76409047D01*
%TO.C,C2*%
X146191333Y-83935142D02*
X146143714Y-83982761D01*
X146000857Y-84030380D01*
X145905619Y-84030380D01*
X145762761Y-83982761D01*
X145667523Y-83887523D01*
X145619904Y-83792285D01*
X145572285Y-83601809D01*
X145572285Y-83458952D01*
X145619904Y-83268476D01*
X145667523Y-83173238D01*
X145762761Y-83078000D01*
X145905619Y-83030380D01*
X146000857Y-83030380D01*
X146143714Y-83078000D01*
X146191333Y-83125619D01*
X146572285Y-83125619D02*
X146619904Y-83078000D01*
X146715142Y-83030380D01*
X146953238Y-83030380D01*
X147048476Y-83078000D01*
X147096095Y-83125619D01*
X147143714Y-83220857D01*
X147143714Y-83316095D01*
X147096095Y-83458952D01*
X146524666Y-84030380D01*
X147143714Y-84030380D01*
%TO.C,C1*%
X149719333Y-83830142D02*
X149671714Y-83877761D01*
X149528857Y-83925380D01*
X149433619Y-83925380D01*
X149290761Y-83877761D01*
X149195523Y-83782523D01*
X149147904Y-83687285D01*
X149100285Y-83496809D01*
X149100285Y-83353952D01*
X149147904Y-83163476D01*
X149195523Y-83068238D01*
X149290761Y-82973000D01*
X149433619Y-82925380D01*
X149528857Y-82925380D01*
X149671714Y-82973000D01*
X149719333Y-83020619D01*
X150671714Y-83925380D02*
X150100285Y-83925380D01*
X150386000Y-83925380D02*
X150386000Y-82925380D01*
X150290761Y-83068238D01*
X150195523Y-83163476D01*
X150100285Y-83211095D01*
%TO.C,L35*%
X63830038Y-106214101D02*
X63258609Y-106214101D01*
X63544324Y-106214101D02*
X63544324Y-105214101D01*
X63449085Y-105356959D01*
X63353847Y-105452197D01*
X63258609Y-105499816D01*
X67051466Y-111564101D02*
X66575276Y-111564101D01*
X66575276Y-110564101D01*
X67289562Y-110564101D02*
X67908609Y-110564101D01*
X67575276Y-110945054D01*
X67718133Y-110945054D01*
X67813371Y-110992673D01*
X67860990Y-111040292D01*
X67908609Y-111135530D01*
X67908609Y-111373625D01*
X67860990Y-111468863D01*
X67813371Y-111516482D01*
X67718133Y-111564101D01*
X67432419Y-111564101D01*
X67337181Y-111516482D01*
X67289562Y-111468863D01*
X68813371Y-110564101D02*
X68337181Y-110564101D01*
X68289562Y-111040292D01*
X68337181Y-110992673D01*
X68432419Y-110945054D01*
X68670514Y-110945054D01*
X68765752Y-110992673D01*
X68813371Y-111040292D01*
X68860990Y-111135530D01*
X68860990Y-111373625D01*
X68813371Y-111468863D01*
X68765752Y-111516482D01*
X68670514Y-111564101D01*
X68432419Y-111564101D01*
X68337181Y-111516482D01*
X68289562Y-111468863D01*
%TO.C,L29*%
X62562142Y-19355021D02*
X62085952Y-19355021D01*
X62085952Y-18355021D01*
X62847857Y-18450260D02*
X62895476Y-18402641D01*
X62990714Y-18355021D01*
X63228809Y-18355021D01*
X63324047Y-18402641D01*
X63371666Y-18450260D01*
X63419285Y-18545498D01*
X63419285Y-18640736D01*
X63371666Y-18783593D01*
X62800238Y-19355021D01*
X63419285Y-19355021D01*
X63895476Y-19355021D02*
X64085952Y-19355021D01*
X64181190Y-19307402D01*
X64228809Y-19259783D01*
X64324047Y-19116926D01*
X64371666Y-18926450D01*
X64371666Y-18545498D01*
X64324047Y-18450260D01*
X64276428Y-18402641D01*
X64181190Y-18355021D01*
X63990714Y-18355021D01*
X63895476Y-18402641D01*
X63847857Y-18450260D01*
X63800238Y-18545498D01*
X63800238Y-18783593D01*
X63847857Y-18878831D01*
X63895476Y-18926450D01*
X63990714Y-18974069D01*
X64181190Y-18974069D01*
X64276428Y-18926450D01*
X64324047Y-18878831D01*
X64371666Y-18783593D01*
X59340714Y-21505021D02*
X58769285Y-21505021D01*
X59055000Y-21505021D02*
X59055000Y-20505021D01*
X58959761Y-20647879D01*
X58864523Y-20743117D01*
X58769285Y-20790736D01*
%TO.C,L30*%
X49902142Y-24455021D02*
X49425952Y-24455021D01*
X49425952Y-23455021D01*
X50140238Y-23455021D02*
X50759285Y-23455021D01*
X50425952Y-23835974D01*
X50568809Y-23835974D01*
X50664047Y-23883593D01*
X50711666Y-23931212D01*
X50759285Y-24026450D01*
X50759285Y-24264545D01*
X50711666Y-24359783D01*
X50664047Y-24407402D01*
X50568809Y-24455021D01*
X50283095Y-24455021D01*
X50187857Y-24407402D01*
X50140238Y-24359783D01*
X51378333Y-23455021D02*
X51473571Y-23455021D01*
X51568809Y-23502641D01*
X51616428Y-23550260D01*
X51664047Y-23645498D01*
X51711666Y-23835974D01*
X51711666Y-24074069D01*
X51664047Y-24264545D01*
X51616428Y-24359783D01*
X51568809Y-24407402D01*
X51473571Y-24455021D01*
X51378333Y-24455021D01*
X51283095Y-24407402D01*
X51235476Y-24359783D01*
X51187857Y-24264545D01*
X51140238Y-24074069D01*
X51140238Y-23835974D01*
X51187857Y-23645498D01*
X51235476Y-23550260D01*
X51283095Y-23502641D01*
X51378333Y-23455021D01*
X46680714Y-26605021D02*
X46109285Y-26605021D01*
X46395000Y-26605021D02*
X46395000Y-25605021D01*
X46299761Y-25747879D01*
X46204523Y-25843117D01*
X46109285Y-25890736D01*
%TO.C,J1*%
X40062328Y-24036164D02*
X40161738Y-24743498D01*
X40134464Y-24891592D01*
X40053407Y-24999158D01*
X39918568Y-25066196D01*
X39824256Y-25079450D01*
X41191769Y-24887259D02*
X40625902Y-24966786D01*
X40908836Y-24927023D02*
X40769663Y-23936755D01*
X40695233Y-24091476D01*
X40614177Y-24199042D01*
X40526493Y-24259452D01*
%TO.C,L38*%
X150885714Y-49806380D02*
X150314285Y-49806380D01*
X150600000Y-49806380D02*
X150600000Y-48806380D01*
X150504761Y-48949238D01*
X150409523Y-49044476D01*
X150314285Y-49092095D01*
X154107142Y-55156380D02*
X153630952Y-55156380D01*
X153630952Y-54156380D01*
X154345238Y-54156380D02*
X154964285Y-54156380D01*
X154630952Y-54537333D01*
X154773809Y-54537333D01*
X154869047Y-54584952D01*
X154916666Y-54632571D01*
X154964285Y-54727809D01*
X154964285Y-54965904D01*
X154916666Y-55061142D01*
X154869047Y-55108761D01*
X154773809Y-55156380D01*
X154488095Y-55156380D01*
X154392857Y-55108761D01*
X154345238Y-55061142D01*
X155535714Y-54584952D02*
X155440476Y-54537333D01*
X155392857Y-54489714D01*
X155345238Y-54394476D01*
X155345238Y-54346857D01*
X155392857Y-54251619D01*
X155440476Y-54204000D01*
X155535714Y-54156380D01*
X155726190Y-54156380D01*
X155821428Y-54204000D01*
X155869047Y-54251619D01*
X155916666Y-54346857D01*
X155916666Y-54394476D01*
X155869047Y-54489714D01*
X155821428Y-54537333D01*
X155726190Y-54584952D01*
X155535714Y-54584952D01*
X155440476Y-54632571D01*
X155392857Y-54680190D01*
X155345238Y-54775428D01*
X155345238Y-54965904D01*
X155392857Y-55061142D01*
X155440476Y-55108761D01*
X155535714Y-55156380D01*
X155726190Y-55156380D01*
X155821428Y-55108761D01*
X155869047Y-55061142D01*
X155916666Y-54965904D01*
X155916666Y-54775428D01*
X155869047Y-54680190D01*
X155821428Y-54632571D01*
X155726190Y-54584952D01*
%TO.C,L37*%
X154441714Y-105280380D02*
X153870285Y-105280380D01*
X154156000Y-105280380D02*
X154156000Y-104280380D01*
X154060761Y-104423238D01*
X153965523Y-104518476D01*
X153870285Y-104566095D01*
X149363142Y-99930380D02*
X148886952Y-99930380D01*
X148886952Y-98930380D01*
X149601238Y-98930380D02*
X150220285Y-98930380D01*
X149886952Y-99311333D01*
X150029809Y-99311333D01*
X150125047Y-99358952D01*
X150172666Y-99406571D01*
X150220285Y-99501809D01*
X150220285Y-99739904D01*
X150172666Y-99835142D01*
X150125047Y-99882761D01*
X150029809Y-99930380D01*
X149744095Y-99930380D01*
X149648857Y-99882761D01*
X149601238Y-99835142D01*
X150553619Y-98930380D02*
X151220285Y-98930380D01*
X150791714Y-99930380D01*
%TO.C,L36*%
X121368666Y-124216562D02*
X120805919Y-124117334D01*
X121087292Y-124166948D02*
X121260941Y-123182140D01*
X121142342Y-123306289D01*
X121032013Y-123383542D01*
X120929953Y-123413900D01*
X123612136Y-130044678D02*
X123143180Y-129961988D01*
X123316828Y-128977180D01*
X124020262Y-129101215D02*
X124629905Y-129208711D01*
X124235484Y-129525993D01*
X124376171Y-129550800D01*
X124461693Y-129614234D01*
X124500320Y-129669398D01*
X124530677Y-129771459D01*
X124489332Y-130005937D01*
X124425899Y-130091459D01*
X124370734Y-130130086D01*
X124268674Y-130160443D01*
X123987301Y-130110829D01*
X123901778Y-130047396D01*
X123863152Y-129992231D01*
X125474026Y-129357553D02*
X125286443Y-129324477D01*
X125184383Y-129354834D01*
X125129219Y-129393461D01*
X125010620Y-129517610D01*
X124930649Y-129696923D01*
X124864497Y-130072088D01*
X124894855Y-130174149D01*
X124933482Y-130229313D01*
X125019004Y-130292747D01*
X125206586Y-130325822D01*
X125308646Y-130295465D01*
X125363811Y-130256838D01*
X125427245Y-130171316D01*
X125468589Y-129936838D01*
X125438232Y-129834778D01*
X125399605Y-129779613D01*
X125314083Y-129716180D01*
X125126500Y-129683104D01*
X125024440Y-129713461D01*
X124969276Y-129752088D01*
X124905842Y-129837610D01*
%TO.C,L34*%
X23424219Y-81276867D02*
X22852790Y-81276867D01*
X23138505Y-81276867D02*
X23138505Y-80276867D01*
X23043266Y-80419725D01*
X22948028Y-80514963D01*
X22852790Y-80562582D01*
X26645647Y-86626867D02*
X26169457Y-86626867D01*
X26169457Y-85626867D01*
X26883743Y-85626867D02*
X27502790Y-85626867D01*
X27169457Y-86007820D01*
X27312314Y-86007820D01*
X27407552Y-86055439D01*
X27455171Y-86103058D01*
X27502790Y-86198296D01*
X27502790Y-86436391D01*
X27455171Y-86531629D01*
X27407552Y-86579248D01*
X27312314Y-86626867D01*
X27026600Y-86626867D01*
X26931362Y-86579248D01*
X26883743Y-86531629D01*
X28359933Y-85960201D02*
X28359933Y-86626867D01*
X28121838Y-85579248D02*
X27883743Y-86293534D01*
X28502790Y-86293534D01*
%TO.C,L33*%
X20330502Y-40683550D02*
X19759073Y-40683550D01*
X20044788Y-40683550D02*
X20044788Y-39683550D01*
X19949549Y-39826408D01*
X19854311Y-39921646D01*
X19759073Y-39969265D01*
X23551930Y-46033550D02*
X23075740Y-46033550D01*
X23075740Y-45033550D01*
X23790026Y-45033550D02*
X24409073Y-45033550D01*
X24075740Y-45414503D01*
X24218597Y-45414503D01*
X24313835Y-45462122D01*
X24361454Y-45509741D01*
X24409073Y-45604979D01*
X24409073Y-45843074D01*
X24361454Y-45938312D01*
X24313835Y-45985931D01*
X24218597Y-46033550D01*
X23932883Y-46033550D01*
X23837645Y-45985931D01*
X23790026Y-45938312D01*
X24742407Y-45033550D02*
X25361454Y-45033550D01*
X25028121Y-45414503D01*
X25170978Y-45414503D01*
X25266216Y-45462122D01*
X25313835Y-45509741D01*
X25361454Y-45604979D01*
X25361454Y-45843074D01*
X25313835Y-45938312D01*
X25266216Y-45985931D01*
X25170978Y-46033550D01*
X24885264Y-46033550D01*
X24790026Y-45985931D01*
X24742407Y-45938312D01*
%TO.C,L32*%
X29564142Y-34984380D02*
X29087952Y-34984380D01*
X29087952Y-33984380D01*
X29802238Y-33984380D02*
X30421285Y-33984380D01*
X30087952Y-34365333D01*
X30230809Y-34365333D01*
X30326047Y-34412952D01*
X30373666Y-34460571D01*
X30421285Y-34555809D01*
X30421285Y-34793904D01*
X30373666Y-34889142D01*
X30326047Y-34936761D01*
X30230809Y-34984380D01*
X29945095Y-34984380D01*
X29849857Y-34936761D01*
X29802238Y-34889142D01*
X30802238Y-34079619D02*
X30849857Y-34032000D01*
X30945095Y-33984380D01*
X31183190Y-33984380D01*
X31278428Y-34032000D01*
X31326047Y-34079619D01*
X31373666Y-34174857D01*
X31373666Y-34270095D01*
X31326047Y-34412952D01*
X30754619Y-34984380D01*
X31373666Y-34984380D01*
X21340714Y-34105021D02*
X20769285Y-34105021D01*
X21055000Y-34105021D02*
X21055000Y-33105021D01*
X20959761Y-33247879D01*
X20864523Y-33343117D01*
X20769285Y-33390736D01*
%TO.C,L31*%
X37232142Y-27955021D02*
X36755952Y-27955021D01*
X36755952Y-26955021D01*
X37470238Y-26955021D02*
X38089285Y-26955021D01*
X37755952Y-27335974D01*
X37898809Y-27335974D01*
X37994047Y-27383593D01*
X38041666Y-27431212D01*
X38089285Y-27526450D01*
X38089285Y-27764545D01*
X38041666Y-27859783D01*
X37994047Y-27907402D01*
X37898809Y-27955021D01*
X37613095Y-27955021D01*
X37517857Y-27907402D01*
X37470238Y-27859783D01*
X39041666Y-27955021D02*
X38470238Y-27955021D01*
X38755952Y-27955021D02*
X38755952Y-26955021D01*
X38660714Y-27097879D01*
X38565476Y-27193117D01*
X38470238Y-27240736D01*
X34010714Y-30105021D02*
X33439285Y-30105021D01*
X33725000Y-30105021D02*
X33725000Y-29105021D01*
X33629761Y-29247879D01*
X33534523Y-29343117D01*
X33439285Y-29390736D01*
%TO.C,L28*%
X75232142Y-17626380D02*
X74755952Y-17626380D01*
X74755952Y-16626380D01*
X75517857Y-16721619D02*
X75565476Y-16674000D01*
X75660714Y-16626380D01*
X75898809Y-16626380D01*
X75994047Y-16674000D01*
X76041666Y-16721619D01*
X76089285Y-16816857D01*
X76089285Y-16912095D01*
X76041666Y-17054952D01*
X75470238Y-17626380D01*
X76089285Y-17626380D01*
X76660714Y-17054952D02*
X76565476Y-17007333D01*
X76517857Y-16959714D01*
X76470238Y-16864476D01*
X76470238Y-16816857D01*
X76517857Y-16721619D01*
X76565476Y-16674000D01*
X76660714Y-16626380D01*
X76851190Y-16626380D01*
X76946428Y-16674000D01*
X76994047Y-16721619D01*
X77041666Y-16816857D01*
X77041666Y-16864476D01*
X76994047Y-16959714D01*
X76946428Y-17007333D01*
X76851190Y-17054952D01*
X76660714Y-17054952D01*
X76565476Y-17102571D01*
X76517857Y-17150190D01*
X76470238Y-17245428D01*
X76470238Y-17435904D01*
X76517857Y-17531142D01*
X76565476Y-17578761D01*
X76660714Y-17626380D01*
X76851190Y-17626380D01*
X76946428Y-17578761D01*
X76994047Y-17531142D01*
X77041666Y-17435904D01*
X77041666Y-17245428D01*
X76994047Y-17150190D01*
X76946428Y-17102571D01*
X76851190Y-17054952D01*
X72010714Y-19776380D02*
X71439285Y-19776380D01*
X71725000Y-19776380D02*
X71725000Y-18776380D01*
X71629761Y-18919238D01*
X71534523Y-19014476D01*
X71439285Y-19062095D01*
%TO.C,L27*%
X87902142Y-17966380D02*
X87425952Y-17966380D01*
X87425952Y-16966380D01*
X88187857Y-17061619D02*
X88235476Y-17014000D01*
X88330714Y-16966380D01*
X88568809Y-16966380D01*
X88664047Y-17014000D01*
X88711666Y-17061619D01*
X88759285Y-17156857D01*
X88759285Y-17252095D01*
X88711666Y-17394952D01*
X88140238Y-17966380D01*
X88759285Y-17966380D01*
X89092619Y-16966380D02*
X89759285Y-16966380D01*
X89330714Y-17966380D01*
X84680714Y-20116380D02*
X84109285Y-20116380D01*
X84395000Y-20116380D02*
X84395000Y-19116380D01*
X84299761Y-19259238D01*
X84204523Y-19354476D01*
X84109285Y-19402095D01*
%TO.C,L26*%
X100562142Y-21596380D02*
X100085952Y-21596380D01*
X100085952Y-20596380D01*
X100847857Y-20691619D02*
X100895476Y-20644000D01*
X100990714Y-20596380D01*
X101228809Y-20596380D01*
X101324047Y-20644000D01*
X101371666Y-20691619D01*
X101419285Y-20786857D01*
X101419285Y-20882095D01*
X101371666Y-21024952D01*
X100800238Y-21596380D01*
X101419285Y-21596380D01*
X102276428Y-20596380D02*
X102085952Y-20596380D01*
X101990714Y-20644000D01*
X101943095Y-20691619D01*
X101847857Y-20834476D01*
X101800238Y-21024952D01*
X101800238Y-21405904D01*
X101847857Y-21501142D01*
X101895476Y-21548761D01*
X101990714Y-21596380D01*
X102181190Y-21596380D01*
X102276428Y-21548761D01*
X102324047Y-21501142D01*
X102371666Y-21405904D01*
X102371666Y-21167809D01*
X102324047Y-21072571D01*
X102276428Y-21024952D01*
X102181190Y-20977333D01*
X101990714Y-20977333D01*
X101895476Y-21024952D01*
X101847857Y-21072571D01*
X101800238Y-21167809D01*
X97340714Y-23746380D02*
X96769285Y-23746380D01*
X97055000Y-23746380D02*
X97055000Y-22746380D01*
X96959761Y-22889238D01*
X96864523Y-22984476D01*
X96769285Y-23032095D01*
%TO.C,L25*%
X113232142Y-23596380D02*
X112755952Y-23596380D01*
X112755952Y-22596380D01*
X113517857Y-22691619D02*
X113565476Y-22644000D01*
X113660714Y-22596380D01*
X113898809Y-22596380D01*
X113994047Y-22644000D01*
X114041666Y-22691619D01*
X114089285Y-22786857D01*
X114089285Y-22882095D01*
X114041666Y-23024952D01*
X113470238Y-23596380D01*
X114089285Y-23596380D01*
X114994047Y-22596380D02*
X114517857Y-22596380D01*
X114470238Y-23072571D01*
X114517857Y-23024952D01*
X114613095Y-22977333D01*
X114851190Y-22977333D01*
X114946428Y-23024952D01*
X114994047Y-23072571D01*
X115041666Y-23167809D01*
X115041666Y-23405904D01*
X114994047Y-23501142D01*
X114946428Y-23548761D01*
X114851190Y-23596380D01*
X114613095Y-23596380D01*
X114517857Y-23548761D01*
X114470238Y-23501142D01*
X110010714Y-25746380D02*
X109439285Y-25746380D01*
X109725000Y-25746380D02*
X109725000Y-24746380D01*
X109629761Y-24889238D01*
X109534523Y-24984476D01*
X109439285Y-25032095D01*
%TO.C,L24*%
X125902142Y-25096380D02*
X125425952Y-25096380D01*
X125425952Y-24096380D01*
X126187857Y-24191619D02*
X126235476Y-24144000D01*
X126330714Y-24096380D01*
X126568809Y-24096380D01*
X126664047Y-24144000D01*
X126711666Y-24191619D01*
X126759285Y-24286857D01*
X126759285Y-24382095D01*
X126711666Y-24524952D01*
X126140238Y-25096380D01*
X126759285Y-25096380D01*
X127616428Y-24429714D02*
X127616428Y-25096380D01*
X127378333Y-24048761D02*
X127140238Y-24763047D01*
X127759285Y-24763047D01*
X122680714Y-27246380D02*
X122109285Y-27246380D01*
X122395000Y-27246380D02*
X122395000Y-26246380D01*
X122299761Y-26389238D01*
X122204523Y-26484476D01*
X122109285Y-26532095D01*
%TO.C,R5*%
X159333333Y-80802380D02*
X159000000Y-80326190D01*
X158761904Y-80802380D02*
X158761904Y-79802380D01*
X159142857Y-79802380D01*
X159238095Y-79850000D01*
X159285714Y-79897619D01*
X159333333Y-79992857D01*
X159333333Y-80135714D01*
X159285714Y-80230952D01*
X159238095Y-80278571D01*
X159142857Y-80326190D01*
X158761904Y-80326190D01*
X160238095Y-79802380D02*
X159761904Y-79802380D01*
X159714285Y-80278571D01*
X159761904Y-80230952D01*
X159857142Y-80183333D01*
X160095238Y-80183333D01*
X160190476Y-80230952D01*
X160238095Y-80278571D01*
X160285714Y-80373809D01*
X160285714Y-80611904D01*
X160238095Y-80707142D01*
X160190476Y-80754761D01*
X160095238Y-80802380D01*
X159857142Y-80802380D01*
X159761904Y-80754761D01*
X159714285Y-80707142D01*
%TO.C,R3*%
X46304924Y-32624164D02*
X45828734Y-32957498D01*
X46304924Y-33195593D02*
X45304924Y-33195593D01*
X45304924Y-32814640D01*
X45352544Y-32719402D01*
X45400163Y-32671783D01*
X45495401Y-32624164D01*
X45638258Y-32624164D01*
X45733496Y-32671783D01*
X45781115Y-32719402D01*
X45828734Y-32814640D01*
X45828734Y-33195593D01*
X45304924Y-32290831D02*
X45304924Y-31671783D01*
X45685877Y-32005117D01*
X45685877Y-31862259D01*
X45733496Y-31767021D01*
X45781115Y-31719402D01*
X45876353Y-31671783D01*
X46114448Y-31671783D01*
X46209686Y-31719402D01*
X46257305Y-31767021D01*
X46304924Y-31862259D01*
X46304924Y-32147974D01*
X46257305Y-32243212D01*
X46209686Y-32290831D01*
%TO.C,R4*%
X43961199Y-32624164D02*
X43485009Y-32957498D01*
X43961199Y-33195593D02*
X42961199Y-33195593D01*
X42961199Y-32814640D01*
X43008819Y-32719402D01*
X43056438Y-32671783D01*
X43151676Y-32624164D01*
X43294533Y-32624164D01*
X43389771Y-32671783D01*
X43437390Y-32719402D01*
X43485009Y-32814640D01*
X43485009Y-33195593D01*
X43294533Y-31767021D02*
X43961199Y-31767021D01*
X42913580Y-32005117D02*
X43627866Y-32243212D01*
X43627866Y-31624164D01*
%TO.C,D1*%
D14*
X22412695Y-53609431D02*
X21599895Y-53609431D01*
X21599895Y-53415907D01*
X21638600Y-53299793D01*
X21716009Y-53222383D01*
X21793419Y-53183679D01*
X21948238Y-53144974D01*
X22064352Y-53144974D01*
X22219171Y-53183679D01*
X22296580Y-53222383D01*
X22373990Y-53299793D01*
X22412695Y-53415907D01*
X22412695Y-53609431D01*
X22412695Y-52370879D02*
X22412695Y-52835336D01*
X22412695Y-52603107D02*
X21599895Y-52603107D01*
X21716009Y-52680517D01*
X21793419Y-52757926D01*
X21832123Y-52835336D01*
%TO.C,D2*%
X39712695Y-53809431D02*
X38899895Y-53809431D01*
X38899895Y-53615907D01*
X38938600Y-53499793D01*
X39016009Y-53422383D01*
X39093419Y-53383679D01*
X39248238Y-53344974D01*
X39364352Y-53344974D01*
X39519171Y-53383679D01*
X39596580Y-53422383D01*
X39673990Y-53499793D01*
X39712695Y-53615907D01*
X39712695Y-53809431D01*
X38977304Y-53035336D02*
X38938600Y-52996631D01*
X38899895Y-52919221D01*
X38899895Y-52725698D01*
X38938600Y-52648288D01*
X38977304Y-52609583D01*
X39054714Y-52570879D01*
X39132123Y-52570879D01*
X39248238Y-52609583D01*
X39712695Y-53074040D01*
X39712695Y-52570879D01*
%TO.C,D3*%
X58712695Y-38259431D02*
X57899895Y-38259431D01*
X57899895Y-38065907D01*
X57938600Y-37949793D01*
X58016009Y-37872383D01*
X58093419Y-37833679D01*
X58248238Y-37794974D01*
X58364352Y-37794974D01*
X58519171Y-37833679D01*
X58596580Y-37872383D01*
X58673990Y-37949793D01*
X58712695Y-38065907D01*
X58712695Y-38259431D01*
X57899895Y-37524040D02*
X57899895Y-37020879D01*
X58209533Y-37291812D01*
X58209533Y-37175698D01*
X58248238Y-37098288D01*
X58286942Y-37059583D01*
X58364352Y-37020879D01*
X58557876Y-37020879D01*
X58635285Y-37059583D01*
X58673990Y-37098288D01*
X58712695Y-37175698D01*
X58712695Y-37407926D01*
X58673990Y-37485336D01*
X58635285Y-37524040D01*
%TO.C,D4*%
X77712695Y-35259431D02*
X76899895Y-35259431D01*
X76899895Y-35065907D01*
X76938600Y-34949793D01*
X77016009Y-34872383D01*
X77093419Y-34833679D01*
X77248238Y-34794974D01*
X77364352Y-34794974D01*
X77519171Y-34833679D01*
X77596580Y-34872383D01*
X77673990Y-34949793D01*
X77712695Y-35065907D01*
X77712695Y-35259431D01*
X77170828Y-34098288D02*
X77712695Y-34098288D01*
X76861190Y-34291812D02*
X77441761Y-34485336D01*
X77441761Y-33982174D01*
%TO.C,D5*%
X96712695Y-45259431D02*
X95899895Y-45259431D01*
X95899895Y-45065907D01*
X95938600Y-44949793D01*
X96016009Y-44872383D01*
X96093419Y-44833679D01*
X96248238Y-44794974D01*
X96364352Y-44794974D01*
X96519171Y-44833679D01*
X96596580Y-44872383D01*
X96673990Y-44949793D01*
X96712695Y-45065907D01*
X96712695Y-45259431D01*
X95899895Y-44059583D02*
X95899895Y-44446631D01*
X96286942Y-44485336D01*
X96248238Y-44446631D01*
X96209533Y-44369221D01*
X96209533Y-44175698D01*
X96248238Y-44098288D01*
X96286942Y-44059583D01*
X96364352Y-44020879D01*
X96557876Y-44020879D01*
X96635285Y-44059583D01*
X96673990Y-44098288D01*
X96712695Y-44175698D01*
X96712695Y-44369221D01*
X96673990Y-44446631D01*
X96635285Y-44485336D01*
%TO.C,D6*%
X115712695Y-47259431D02*
X114899895Y-47259431D01*
X114899895Y-47065907D01*
X114938600Y-46949793D01*
X115016009Y-46872383D01*
X115093419Y-46833679D01*
X115248238Y-46794974D01*
X115364352Y-46794974D01*
X115519171Y-46833679D01*
X115596580Y-46872383D01*
X115673990Y-46949793D01*
X115712695Y-47065907D01*
X115712695Y-47259431D01*
X114899895Y-46098288D02*
X114899895Y-46253107D01*
X114938600Y-46330517D01*
X114977304Y-46369221D01*
X115093419Y-46446631D01*
X115248238Y-46485336D01*
X115557876Y-46485336D01*
X115635285Y-46446631D01*
X115673990Y-46407926D01*
X115712695Y-46330517D01*
X115712695Y-46175698D01*
X115673990Y-46098288D01*
X115635285Y-46059583D01*
X115557876Y-46020879D01*
X115364352Y-46020879D01*
X115286942Y-46059583D01*
X115248238Y-46098288D01*
X115209533Y-46175698D01*
X115209533Y-46330517D01*
X115248238Y-46407926D01*
X115286942Y-46446631D01*
X115364352Y-46485336D01*
%TO.C,D7*%
X22412695Y-72609431D02*
X21599895Y-72609431D01*
X21599895Y-72415907D01*
X21638600Y-72299793D01*
X21716009Y-72222383D01*
X21793419Y-72183679D01*
X21948238Y-72144974D01*
X22064352Y-72144974D01*
X22219171Y-72183679D01*
X22296580Y-72222383D01*
X22373990Y-72299793D01*
X22412695Y-72415907D01*
X22412695Y-72609431D01*
X21599895Y-71874040D02*
X21599895Y-71332174D01*
X22412695Y-71680517D01*
%TO.C,D8*%
X39712695Y-72809431D02*
X38899895Y-72809431D01*
X38899895Y-72615907D01*
X38938600Y-72499793D01*
X39016009Y-72422383D01*
X39093419Y-72383679D01*
X39248238Y-72344974D01*
X39364352Y-72344974D01*
X39519171Y-72383679D01*
X39596580Y-72422383D01*
X39673990Y-72499793D01*
X39712695Y-72615907D01*
X39712695Y-72809431D01*
X39248238Y-71880517D02*
X39209533Y-71957926D01*
X39170828Y-71996631D01*
X39093419Y-72035336D01*
X39054714Y-72035336D01*
X38977304Y-71996631D01*
X38938600Y-71957926D01*
X38899895Y-71880517D01*
X38899895Y-71725698D01*
X38938600Y-71648288D01*
X38977304Y-71609583D01*
X39054714Y-71570879D01*
X39093419Y-71570879D01*
X39170828Y-71609583D01*
X39209533Y-71648288D01*
X39248238Y-71725698D01*
X39248238Y-71880517D01*
X39286942Y-71957926D01*
X39325647Y-71996631D01*
X39403057Y-72035336D01*
X39557876Y-72035336D01*
X39635285Y-71996631D01*
X39673990Y-71957926D01*
X39712695Y-71880517D01*
X39712695Y-71725698D01*
X39673990Y-71648288D01*
X39635285Y-71609583D01*
X39557876Y-71570879D01*
X39403057Y-71570879D01*
X39325647Y-71609583D01*
X39286942Y-71648288D01*
X39248238Y-71725698D01*
%TO.C,D9*%
X58712695Y-57259431D02*
X57899895Y-57259431D01*
X57899895Y-57065907D01*
X57938600Y-56949793D01*
X58016009Y-56872383D01*
X58093419Y-56833679D01*
X58248238Y-56794974D01*
X58364352Y-56794974D01*
X58519171Y-56833679D01*
X58596580Y-56872383D01*
X58673990Y-56949793D01*
X58712695Y-57065907D01*
X58712695Y-57259431D01*
X58712695Y-56407926D02*
X58712695Y-56253107D01*
X58673990Y-56175698D01*
X58635285Y-56136993D01*
X58519171Y-56059583D01*
X58364352Y-56020879D01*
X58054714Y-56020879D01*
X57977304Y-56059583D01*
X57938600Y-56098288D01*
X57899895Y-56175698D01*
X57899895Y-56330517D01*
X57938600Y-56407926D01*
X57977304Y-56446631D01*
X58054714Y-56485336D01*
X58248238Y-56485336D01*
X58325647Y-56446631D01*
X58364352Y-56407926D01*
X58403057Y-56330517D01*
X58403057Y-56175698D01*
X58364352Y-56098288D01*
X58325647Y-56059583D01*
X58248238Y-56020879D01*
%TO.C,D10*%
X77712695Y-55033526D02*
X76899895Y-55033526D01*
X76899895Y-54840002D01*
X76938600Y-54723888D01*
X77016009Y-54646479D01*
X77093419Y-54607774D01*
X77248238Y-54569069D01*
X77364352Y-54569069D01*
X77519171Y-54607774D01*
X77596580Y-54646479D01*
X77673990Y-54723888D01*
X77712695Y-54840002D01*
X77712695Y-55033526D01*
X77712695Y-53794974D02*
X77712695Y-54259431D01*
X77712695Y-54027202D02*
X76899895Y-54027202D01*
X77016009Y-54104612D01*
X77093419Y-54182021D01*
X77132123Y-54259431D01*
X76899895Y-53291812D02*
X76899895Y-53214402D01*
X76938600Y-53136993D01*
X76977304Y-53098288D01*
X77054714Y-53059583D01*
X77209533Y-53020879D01*
X77403057Y-53020879D01*
X77557876Y-53059583D01*
X77635285Y-53098288D01*
X77673990Y-53136993D01*
X77712695Y-53214402D01*
X77712695Y-53291812D01*
X77673990Y-53369221D01*
X77635285Y-53407926D01*
X77557876Y-53446631D01*
X77403057Y-53485336D01*
X77209533Y-53485336D01*
X77054714Y-53446631D01*
X76977304Y-53407926D01*
X76938600Y-53369221D01*
X76899895Y-53291812D01*
%TO.C,D11*%
X96712695Y-65033526D02*
X95899895Y-65033526D01*
X95899895Y-64840002D01*
X95938600Y-64723888D01*
X96016009Y-64646479D01*
X96093419Y-64607774D01*
X96248238Y-64569069D01*
X96364352Y-64569069D01*
X96519171Y-64607774D01*
X96596580Y-64646479D01*
X96673990Y-64723888D01*
X96712695Y-64840002D01*
X96712695Y-65033526D01*
X96712695Y-63794974D02*
X96712695Y-64259431D01*
X96712695Y-64027202D02*
X95899895Y-64027202D01*
X96016009Y-64104612D01*
X96093419Y-64182021D01*
X96132123Y-64259431D01*
X96712695Y-63020879D02*
X96712695Y-63485336D01*
X96712695Y-63253107D02*
X95899895Y-63253107D01*
X96016009Y-63330517D01*
X96093419Y-63407926D01*
X96132123Y-63485336D01*
%TO.C,D12*%
X115712695Y-67033526D02*
X114899895Y-67033526D01*
X114899895Y-66840002D01*
X114938600Y-66723888D01*
X115016009Y-66646479D01*
X115093419Y-66607774D01*
X115248238Y-66569069D01*
X115364352Y-66569069D01*
X115519171Y-66607774D01*
X115596580Y-66646479D01*
X115673990Y-66723888D01*
X115712695Y-66840002D01*
X115712695Y-67033526D01*
X115712695Y-65794974D02*
X115712695Y-66259431D01*
X115712695Y-66027202D02*
X114899895Y-66027202D01*
X115016009Y-66104612D01*
X115093419Y-66182021D01*
X115132123Y-66259431D01*
X114977304Y-65485336D02*
X114938600Y-65446631D01*
X114899895Y-65369221D01*
X114899895Y-65175698D01*
X114938600Y-65098288D01*
X114977304Y-65059583D01*
X115054714Y-65020879D01*
X115132123Y-65020879D01*
X115248238Y-65059583D01*
X115712695Y-65524040D01*
X115712695Y-65020879D01*
%TO.C,D13*%
X22218758Y-91322973D02*
X21405958Y-91322973D01*
X21405958Y-91129449D01*
X21444663Y-91013335D01*
X21522072Y-90935926D01*
X21599482Y-90897221D01*
X21754301Y-90858516D01*
X21870415Y-90858516D01*
X22025234Y-90897221D01*
X22102643Y-90935926D01*
X22180053Y-91013335D01*
X22218758Y-91129449D01*
X22218758Y-91322973D01*
X22218758Y-90084421D02*
X22218758Y-90548878D01*
X22218758Y-90316649D02*
X21405958Y-90316649D01*
X21522072Y-90394059D01*
X21599482Y-90471468D01*
X21638186Y-90548878D01*
X21405958Y-89813487D02*
X21405958Y-89310326D01*
X21715596Y-89581259D01*
X21715596Y-89465145D01*
X21754301Y-89387735D01*
X21793005Y-89349030D01*
X21870415Y-89310326D01*
X22063939Y-89310326D01*
X22141348Y-89349030D01*
X22180053Y-89387735D01*
X22218758Y-89465145D01*
X22218758Y-89697373D01*
X22180053Y-89774783D01*
X22141348Y-89813487D01*
%TO.C,D14*%
X39712695Y-92583526D02*
X38899895Y-92583526D01*
X38899895Y-92390002D01*
X38938600Y-92273888D01*
X39016009Y-92196479D01*
X39093419Y-92157774D01*
X39248238Y-92119069D01*
X39364352Y-92119069D01*
X39519171Y-92157774D01*
X39596580Y-92196479D01*
X39673990Y-92273888D01*
X39712695Y-92390002D01*
X39712695Y-92583526D01*
X39712695Y-91344974D02*
X39712695Y-91809431D01*
X39712695Y-91577202D02*
X38899895Y-91577202D01*
X39016009Y-91654612D01*
X39093419Y-91732021D01*
X39132123Y-91809431D01*
X39170828Y-90648288D02*
X39712695Y-90648288D01*
X38861190Y-90841812D02*
X39441761Y-91035336D01*
X39441761Y-90532174D01*
%TO.C,D15*%
X58712695Y-77033526D02*
X57899895Y-77033526D01*
X57899895Y-76840002D01*
X57938600Y-76723888D01*
X58016009Y-76646479D01*
X58093419Y-76607774D01*
X58248238Y-76569069D01*
X58364352Y-76569069D01*
X58519171Y-76607774D01*
X58596580Y-76646479D01*
X58673990Y-76723888D01*
X58712695Y-76840002D01*
X58712695Y-77033526D01*
X58712695Y-75794974D02*
X58712695Y-76259431D01*
X58712695Y-76027202D02*
X57899895Y-76027202D01*
X58016009Y-76104612D01*
X58093419Y-76182021D01*
X58132123Y-76259431D01*
X57899895Y-75059583D02*
X57899895Y-75446631D01*
X58286942Y-75485336D01*
X58248238Y-75446631D01*
X58209533Y-75369221D01*
X58209533Y-75175698D01*
X58248238Y-75098288D01*
X58286942Y-75059583D01*
X58364352Y-75020879D01*
X58557876Y-75020879D01*
X58635285Y-75059583D01*
X58673990Y-75098288D01*
X58712695Y-75175698D01*
X58712695Y-75369221D01*
X58673990Y-75446631D01*
X58635285Y-75485336D01*
%TO.C,D16*%
X76218182Y-74553380D02*
X75405382Y-74553380D01*
X75405382Y-74359856D01*
X75444087Y-74243742D01*
X75521496Y-74166333D01*
X75598906Y-74127628D01*
X75753725Y-74088923D01*
X75869839Y-74088923D01*
X76024658Y-74127628D01*
X76102067Y-74166333D01*
X76179477Y-74243742D01*
X76218182Y-74359856D01*
X76218182Y-74553380D01*
X76218182Y-73314828D02*
X76218182Y-73779285D01*
X76218182Y-73547056D02*
X75405382Y-73547056D01*
X75521496Y-73624466D01*
X75598906Y-73701875D01*
X75637610Y-73779285D01*
X75405382Y-72618142D02*
X75405382Y-72772961D01*
X75444087Y-72850371D01*
X75482791Y-72889075D01*
X75598906Y-72966485D01*
X75753725Y-73005190D01*
X76063363Y-73005190D01*
X76140772Y-72966485D01*
X76179477Y-72927780D01*
X76218182Y-72850371D01*
X76218182Y-72695552D01*
X76179477Y-72618142D01*
X76140772Y-72579437D01*
X76063363Y-72540733D01*
X75869839Y-72540733D01*
X75792429Y-72579437D01*
X75753725Y-72618142D01*
X75715020Y-72695552D01*
X75715020Y-72850371D01*
X75753725Y-72927780D01*
X75792429Y-72966485D01*
X75869839Y-73005190D01*
%TO.C,D17*%
X96712695Y-84033526D02*
X95899895Y-84033526D01*
X95899895Y-83840002D01*
X95938600Y-83723888D01*
X96016009Y-83646479D01*
X96093419Y-83607774D01*
X96248238Y-83569069D01*
X96364352Y-83569069D01*
X96519171Y-83607774D01*
X96596580Y-83646479D01*
X96673990Y-83723888D01*
X96712695Y-83840002D01*
X96712695Y-84033526D01*
X96712695Y-82794974D02*
X96712695Y-83259431D01*
X96712695Y-83027202D02*
X95899895Y-83027202D01*
X96016009Y-83104612D01*
X96093419Y-83182021D01*
X96132123Y-83259431D01*
X95899895Y-82524040D02*
X95899895Y-81982174D01*
X96712695Y-82330517D01*
%TO.C,D18*%
X115712695Y-86033526D02*
X114899895Y-86033526D01*
X114899895Y-85840002D01*
X114938600Y-85723888D01*
X115016009Y-85646479D01*
X115093419Y-85607774D01*
X115248238Y-85569069D01*
X115364352Y-85569069D01*
X115519171Y-85607774D01*
X115596580Y-85646479D01*
X115673990Y-85723888D01*
X115712695Y-85840002D01*
X115712695Y-86033526D01*
X115712695Y-84794974D02*
X115712695Y-85259431D01*
X115712695Y-85027202D02*
X114899895Y-85027202D01*
X115016009Y-85104612D01*
X115093419Y-85182021D01*
X115132123Y-85259431D01*
X115248238Y-84330517D02*
X115209533Y-84407926D01*
X115170828Y-84446631D01*
X115093419Y-84485336D01*
X115054714Y-84485336D01*
X114977304Y-84446631D01*
X114938600Y-84407926D01*
X114899895Y-84330517D01*
X114899895Y-84175698D01*
X114938600Y-84098288D01*
X114977304Y-84059583D01*
X115054714Y-84020879D01*
X115093419Y-84020879D01*
X115170828Y-84059583D01*
X115209533Y-84098288D01*
X115248238Y-84175698D01*
X115248238Y-84330517D01*
X115286942Y-84407926D01*
X115325647Y-84446631D01*
X115403057Y-84485336D01*
X115557876Y-84485336D01*
X115635285Y-84446631D01*
X115673990Y-84407926D01*
X115712695Y-84330517D01*
X115712695Y-84175698D01*
X115673990Y-84098288D01*
X115635285Y-84059583D01*
X115557876Y-84020879D01*
X115403057Y-84020879D01*
X115325647Y-84059583D01*
X115286942Y-84098288D01*
X115248238Y-84175698D01*
%TO.C,D19*%
X78749405Y-109979024D02*
X77936605Y-109979024D01*
X77936605Y-109785500D01*
X77975310Y-109669386D01*
X78052719Y-109591977D01*
X78130129Y-109553272D01*
X78284948Y-109514567D01*
X78401062Y-109514567D01*
X78555881Y-109553272D01*
X78633290Y-109591977D01*
X78710700Y-109669386D01*
X78749405Y-109785500D01*
X78749405Y-109979024D01*
X78749405Y-108740472D02*
X78749405Y-109204929D01*
X78749405Y-108972700D02*
X77936605Y-108972700D01*
X78052719Y-109050110D01*
X78130129Y-109127519D01*
X78168833Y-109204929D01*
X78749405Y-108353424D02*
X78749405Y-108198605D01*
X78710700Y-108121196D01*
X78671995Y-108082491D01*
X78555881Y-108005081D01*
X78401062Y-107966377D01*
X78091424Y-107966377D01*
X78014014Y-108005081D01*
X77975310Y-108043786D01*
X77936605Y-108121196D01*
X77936605Y-108276015D01*
X77975310Y-108353424D01*
X78014014Y-108392129D01*
X78091424Y-108430834D01*
X78284948Y-108430834D01*
X78362357Y-108392129D01*
X78401062Y-108353424D01*
X78439767Y-108276015D01*
X78439767Y-108121196D01*
X78401062Y-108043786D01*
X78362357Y-108005081D01*
X78284948Y-107966377D01*
%TO.C,D20*%
X82325195Y-103042526D02*
X81512395Y-103042526D01*
X81512395Y-102849002D01*
X81551100Y-102732888D01*
X81628509Y-102655479D01*
X81705919Y-102616774D01*
X81860738Y-102578069D01*
X81976852Y-102578069D01*
X82131671Y-102616774D01*
X82209080Y-102655479D01*
X82286490Y-102732888D01*
X82325195Y-102849002D01*
X82325195Y-103042526D01*
X81589804Y-102268431D02*
X81551100Y-102229726D01*
X81512395Y-102152317D01*
X81512395Y-101958793D01*
X81551100Y-101881383D01*
X81589804Y-101842679D01*
X81667214Y-101803974D01*
X81744623Y-101803974D01*
X81860738Y-101842679D01*
X82325195Y-102307136D01*
X82325195Y-101803974D01*
X81512395Y-101300812D02*
X81512395Y-101223402D01*
X81551100Y-101145993D01*
X81589804Y-101107288D01*
X81667214Y-101068583D01*
X81822033Y-101029879D01*
X82015557Y-101029879D01*
X82170376Y-101068583D01*
X82247785Y-101107288D01*
X82286490Y-101145993D01*
X82325195Y-101223402D01*
X82325195Y-101300812D01*
X82286490Y-101378221D01*
X82247785Y-101416926D01*
X82170376Y-101455631D01*
X82015557Y-101494336D01*
X81822033Y-101494336D01*
X81667214Y-101455631D01*
X81589804Y-101416926D01*
X81551100Y-101378221D01*
X81512395Y-101300812D01*
%TO.C,D21*%
X101325195Y-105042526D02*
X100512395Y-105042526D01*
X100512395Y-104849002D01*
X100551100Y-104732888D01*
X100628509Y-104655479D01*
X100705919Y-104616774D01*
X100860738Y-104578069D01*
X100976852Y-104578069D01*
X101131671Y-104616774D01*
X101209080Y-104655479D01*
X101286490Y-104732888D01*
X101325195Y-104849002D01*
X101325195Y-105042526D01*
X100589804Y-104268431D02*
X100551100Y-104229726D01*
X100512395Y-104152317D01*
X100512395Y-103958793D01*
X100551100Y-103881383D01*
X100589804Y-103842679D01*
X100667214Y-103803974D01*
X100744623Y-103803974D01*
X100860738Y-103842679D01*
X101325195Y-104307136D01*
X101325195Y-103803974D01*
X101325195Y-103029879D02*
X101325195Y-103494336D01*
X101325195Y-103262107D02*
X100512395Y-103262107D01*
X100628509Y-103339517D01*
X100705919Y-103416926D01*
X100744623Y-103494336D01*
%TO.C,D22*%
X163482114Y-117669136D02*
X163623255Y-116868685D01*
X163813839Y-116902290D01*
X163921468Y-116960569D01*
X163984260Y-117050245D01*
X164008934Y-117133200D01*
X164020167Y-117292388D01*
X164000004Y-117406738D01*
X163935003Y-117552484D01*
X163883444Y-117621996D01*
X163793769Y-117684788D01*
X163672698Y-117702741D01*
X163482114Y-117669136D01*
X164372148Y-117079338D02*
X164416986Y-117047943D01*
X164499940Y-117023268D01*
X164690524Y-117056873D01*
X164760037Y-117108432D01*
X164791432Y-117153270D01*
X164816107Y-117236224D01*
X164802665Y-117312458D01*
X164744385Y-117420087D01*
X164206332Y-117796836D01*
X164701850Y-117884209D01*
X165134483Y-117213759D02*
X165179321Y-117182363D01*
X165262275Y-117157688D01*
X165452859Y-117191293D01*
X165522372Y-117242852D01*
X165553767Y-117287690D01*
X165578442Y-117370644D01*
X165565000Y-117446878D01*
X165506720Y-117554507D01*
X164968667Y-117931256D01*
X165464185Y-118018629D01*
%TO.C,D23*%
X136211924Y-117927999D02*
X135411473Y-117786858D01*
X135445078Y-117596274D01*
X135503357Y-117488645D01*
X135593033Y-117425853D01*
X135675988Y-117401179D01*
X135835176Y-117389946D01*
X135949526Y-117410109D01*
X136095272Y-117475110D01*
X136164784Y-117526669D01*
X136227576Y-117616344D01*
X136245529Y-117737415D01*
X136211924Y-117927999D01*
X135622126Y-117037965D02*
X135590731Y-116993127D01*
X135566056Y-116910173D01*
X135599661Y-116719589D01*
X135651220Y-116650076D01*
X135696058Y-116618681D01*
X135779012Y-116594006D01*
X135855246Y-116607448D01*
X135962875Y-116665728D01*
X136339624Y-117203781D01*
X136426997Y-116708263D01*
X135673592Y-116300305D02*
X135760965Y-115804787D01*
X136018852Y-116125372D01*
X136039015Y-116011022D01*
X136090574Y-115941510D01*
X136135412Y-115910114D01*
X136218366Y-115885439D01*
X136408950Y-115919044D01*
X136478462Y-115970603D01*
X136509858Y-116015441D01*
X136534533Y-116098395D01*
X136494207Y-116327096D01*
X136442648Y-116396608D01*
X136397810Y-116428004D01*
%TO.C,D24*%
X155091924Y-120337999D02*
X154291473Y-120196858D01*
X154325078Y-120006274D01*
X154383357Y-119898645D01*
X154473033Y-119835853D01*
X154555988Y-119811179D01*
X154715176Y-119799946D01*
X154829526Y-119820109D01*
X154975272Y-119885110D01*
X155044784Y-119936669D01*
X155107576Y-120026344D01*
X155125529Y-120147415D01*
X155091924Y-120337999D01*
X154502126Y-119447965D02*
X154470731Y-119403127D01*
X154446056Y-119320173D01*
X154479661Y-119129589D01*
X154531220Y-119060076D01*
X154576058Y-119028681D01*
X154659012Y-119004006D01*
X154735246Y-119017448D01*
X154842875Y-119075728D01*
X155219624Y-119613781D01*
X155306997Y-119118263D01*
X154894340Y-118338068D02*
X155427975Y-118432162D01*
X154555801Y-118474883D02*
X155093948Y-118766282D01*
X155181321Y-118270764D01*
%TO.C,BZ1*%
D10*
X68187279Y-90262759D02*
X68330136Y-90310378D01*
X68377755Y-90357997D01*
X68425374Y-90453235D01*
X68425374Y-90596092D01*
X68377755Y-90691330D01*
X68330136Y-90738949D01*
X68234898Y-90786568D01*
X67853946Y-90786568D01*
X67853946Y-89786568D01*
X68187279Y-89786568D01*
X68282517Y-89834188D01*
X68330136Y-89881807D01*
X68377755Y-89977045D01*
X68377755Y-90072283D01*
X68330136Y-90167521D01*
X68282517Y-90215140D01*
X68187279Y-90262759D01*
X67853946Y-90262759D01*
X68758708Y-89786568D02*
X69425374Y-89786568D01*
X68758708Y-90786568D01*
X69425374Y-90786568D01*
X70330136Y-90786568D02*
X69758708Y-90786568D01*
X70044422Y-90786568D02*
X70044422Y-89786568D01*
X69949184Y-89929426D01*
X69853946Y-90024664D01*
X69758708Y-90072283D01*
%TO.C,F2*%
X28265666Y-27992571D02*
X27932333Y-27992571D01*
X27932333Y-28516380D02*
X27932333Y-27516380D01*
X28408523Y-27516380D01*
X28741857Y-27611619D02*
X28789476Y-27564000D01*
X28884714Y-27516380D01*
X29122809Y-27516380D01*
X29218047Y-27564000D01*
X29265666Y-27611619D01*
X29313285Y-27706857D01*
X29313285Y-27802095D01*
X29265666Y-27944952D01*
X28694238Y-28516380D01*
X29313285Y-28516380D01*
%TO.C,U1*%
X27751095Y-28677380D02*
X27751095Y-29486904D01*
X27798714Y-29582142D01*
X27846333Y-29629761D01*
X27941571Y-29677380D01*
X28132047Y-29677380D01*
X28227285Y-29629761D01*
X28274904Y-29582142D01*
X28322523Y-29486904D01*
X28322523Y-28677380D01*
X29322523Y-29677380D02*
X28751095Y-29677380D01*
X29036809Y-29677380D02*
X29036809Y-28677380D01*
X28941571Y-28820238D01*
X28846333Y-28915476D01*
X28751095Y-28963095D01*
%TO.C,X1*%
X158421697Y-64294144D02*
X158185995Y-65472655D01*
X158893101Y-64765548D02*
X157714590Y-65001250D01*
X158825758Y-66112418D02*
X158421697Y-65708357D01*
X158623727Y-65910388D02*
X159330834Y-65203281D01*
X159162475Y-65236953D01*
X159027788Y-65236953D01*
X158926773Y-65203281D01*
%TO.C,L1*%
X27211666Y-49858904D02*
X27211666Y-49058904D01*
X27211666Y-49439857D02*
X27668809Y-49439857D01*
X27668809Y-49858904D02*
X27668809Y-49058904D01*
X28202142Y-49058904D02*
X28354523Y-49058904D01*
X28430714Y-49097000D01*
X28506904Y-49173190D01*
X28545000Y-49325571D01*
X28545000Y-49592238D01*
X28506904Y-49744619D01*
X28430714Y-49820809D01*
X28354523Y-49858904D01*
X28202142Y-49858904D01*
X28125952Y-49820809D01*
X28049761Y-49744619D01*
X28011666Y-49592238D01*
X28011666Y-49325571D01*
X28049761Y-49173190D01*
X28125952Y-49097000D01*
X28202142Y-49058904D01*
X29268809Y-49858904D02*
X28887857Y-49858904D01*
X28887857Y-49058904D01*
X29535476Y-49439857D02*
X29802142Y-49439857D01*
X29916428Y-49858904D02*
X29535476Y-49858904D01*
X29535476Y-49058904D01*
X29916428Y-49058904D01*
D14*
X28409533Y-51883695D02*
X28022485Y-51883695D01*
X28022485Y-51070895D01*
X29106219Y-51883695D02*
X28641761Y-51883695D01*
X28873990Y-51883695D02*
X28873990Y-51070895D01*
X28796580Y-51187009D01*
X28719171Y-51264419D01*
X28641761Y-51303123D01*
%TO.C,L2*%
D10*
X46211666Y-48558904D02*
X46211666Y-47758904D01*
X46211666Y-48139857D02*
X46668809Y-48139857D01*
X46668809Y-48558904D02*
X46668809Y-47758904D01*
X47202142Y-47758904D02*
X47354523Y-47758904D01*
X47430714Y-47797000D01*
X47506904Y-47873190D01*
X47545000Y-48025571D01*
X47545000Y-48292238D01*
X47506904Y-48444619D01*
X47430714Y-48520809D01*
X47354523Y-48558904D01*
X47202142Y-48558904D01*
X47125952Y-48520809D01*
X47049761Y-48444619D01*
X47011666Y-48292238D01*
X47011666Y-48025571D01*
X47049761Y-47873190D01*
X47125952Y-47797000D01*
X47202142Y-47758904D01*
X48268809Y-48558904D02*
X47887857Y-48558904D01*
X47887857Y-47758904D01*
X48535476Y-48139857D02*
X48802142Y-48139857D01*
X48916428Y-48558904D02*
X48535476Y-48558904D01*
X48535476Y-47758904D01*
X48916428Y-47758904D01*
D14*
X47409533Y-50583695D02*
X47022485Y-50583695D01*
X47022485Y-49770895D01*
X47641761Y-49848304D02*
X47680466Y-49809600D01*
X47757876Y-49770895D01*
X47951400Y-49770895D01*
X48028809Y-49809600D01*
X48067514Y-49848304D01*
X48106219Y-49925714D01*
X48106219Y-50003123D01*
X48067514Y-50119238D01*
X47603057Y-50583695D01*
X48106219Y-50583695D01*
%TO.C,L3*%
D10*
X65211666Y-33008904D02*
X65211666Y-32208904D01*
X65211666Y-32589857D02*
X65668809Y-32589857D01*
X65668809Y-33008904D02*
X65668809Y-32208904D01*
X66202142Y-32208904D02*
X66354523Y-32208904D01*
X66430714Y-32247000D01*
X66506904Y-32323190D01*
X66545000Y-32475571D01*
X66545000Y-32742238D01*
X66506904Y-32894619D01*
X66430714Y-32970809D01*
X66354523Y-33008904D01*
X66202142Y-33008904D01*
X66125952Y-32970809D01*
X66049761Y-32894619D01*
X66011666Y-32742238D01*
X66011666Y-32475571D01*
X66049761Y-32323190D01*
X66125952Y-32247000D01*
X66202142Y-32208904D01*
X67268809Y-33008904D02*
X66887857Y-33008904D01*
X66887857Y-32208904D01*
X67535476Y-32589857D02*
X67802142Y-32589857D01*
X67916428Y-33008904D02*
X67535476Y-33008904D01*
X67535476Y-32208904D01*
X67916428Y-32208904D01*
D14*
X66409533Y-35033695D02*
X66022485Y-35033695D01*
X66022485Y-34220895D01*
X66603057Y-34220895D02*
X67106219Y-34220895D01*
X66835285Y-34530533D01*
X66951400Y-34530533D01*
X67028809Y-34569238D01*
X67067514Y-34607942D01*
X67106219Y-34685352D01*
X67106219Y-34878876D01*
X67067514Y-34956285D01*
X67028809Y-34994990D01*
X66951400Y-35033695D01*
X66719171Y-35033695D01*
X66641761Y-34994990D01*
X66603057Y-34956285D01*
%TO.C,L4*%
D10*
X84211666Y-30008904D02*
X84211666Y-29208904D01*
X84211666Y-29589857D02*
X84668809Y-29589857D01*
X84668809Y-30008904D02*
X84668809Y-29208904D01*
X85202142Y-29208904D02*
X85354523Y-29208904D01*
X85430714Y-29247000D01*
X85506904Y-29323190D01*
X85545000Y-29475571D01*
X85545000Y-29742238D01*
X85506904Y-29894619D01*
X85430714Y-29970809D01*
X85354523Y-30008904D01*
X85202142Y-30008904D01*
X85125952Y-29970809D01*
X85049761Y-29894619D01*
X85011666Y-29742238D01*
X85011666Y-29475571D01*
X85049761Y-29323190D01*
X85125952Y-29247000D01*
X85202142Y-29208904D01*
X86268809Y-30008904D02*
X85887857Y-30008904D01*
X85887857Y-29208904D01*
X86535476Y-29589857D02*
X86802142Y-29589857D01*
X86916428Y-30008904D02*
X86535476Y-30008904D01*
X86535476Y-29208904D01*
X86916428Y-29208904D01*
D14*
X85409533Y-32033695D02*
X85022485Y-32033695D01*
X85022485Y-31220895D01*
X86028809Y-31491828D02*
X86028809Y-32033695D01*
X85835285Y-31182190D02*
X85641761Y-31762761D01*
X86144923Y-31762761D01*
%TO.C,L5*%
D10*
X103211666Y-40008904D02*
X103211666Y-39208904D01*
X103211666Y-39589857D02*
X103668809Y-39589857D01*
X103668809Y-40008904D02*
X103668809Y-39208904D01*
X104202142Y-39208904D02*
X104354523Y-39208904D01*
X104430714Y-39247000D01*
X104506904Y-39323190D01*
X104545000Y-39475571D01*
X104545000Y-39742238D01*
X104506904Y-39894619D01*
X104430714Y-39970809D01*
X104354523Y-40008904D01*
X104202142Y-40008904D01*
X104125952Y-39970809D01*
X104049761Y-39894619D01*
X104011666Y-39742238D01*
X104011666Y-39475571D01*
X104049761Y-39323190D01*
X104125952Y-39247000D01*
X104202142Y-39208904D01*
X105268809Y-40008904D02*
X104887857Y-40008904D01*
X104887857Y-39208904D01*
X105535476Y-39589857D02*
X105802142Y-39589857D01*
X105916428Y-40008904D02*
X105535476Y-40008904D01*
X105535476Y-39208904D01*
X105916428Y-39208904D01*
D14*
X104409533Y-42033695D02*
X104022485Y-42033695D01*
X104022485Y-41220895D01*
X105067514Y-41220895D02*
X104680466Y-41220895D01*
X104641761Y-41607942D01*
X104680466Y-41569238D01*
X104757876Y-41530533D01*
X104951400Y-41530533D01*
X105028809Y-41569238D01*
X105067514Y-41607942D01*
X105106219Y-41685352D01*
X105106219Y-41878876D01*
X105067514Y-41956285D01*
X105028809Y-41994990D01*
X104951400Y-42033695D01*
X104757876Y-42033695D01*
X104680466Y-41994990D01*
X104641761Y-41956285D01*
%TO.C,L6*%
D10*
X122211666Y-42008904D02*
X122211666Y-41208904D01*
X122211666Y-41589857D02*
X122668809Y-41589857D01*
X122668809Y-42008904D02*
X122668809Y-41208904D01*
X123202142Y-41208904D02*
X123354523Y-41208904D01*
X123430714Y-41247000D01*
X123506904Y-41323190D01*
X123545000Y-41475571D01*
X123545000Y-41742238D01*
X123506904Y-41894619D01*
X123430714Y-41970809D01*
X123354523Y-42008904D01*
X123202142Y-42008904D01*
X123125952Y-41970809D01*
X123049761Y-41894619D01*
X123011666Y-41742238D01*
X123011666Y-41475571D01*
X123049761Y-41323190D01*
X123125952Y-41247000D01*
X123202142Y-41208904D01*
X124268809Y-42008904D02*
X123887857Y-42008904D01*
X123887857Y-41208904D01*
X124535476Y-41589857D02*
X124802142Y-41589857D01*
X124916428Y-42008904D02*
X124535476Y-42008904D01*
X124535476Y-41208904D01*
X124916428Y-41208904D01*
D14*
X123409533Y-44033695D02*
X123022485Y-44033695D01*
X123022485Y-43220895D01*
X124028809Y-43220895D02*
X123873990Y-43220895D01*
X123796580Y-43259600D01*
X123757876Y-43298304D01*
X123680466Y-43414419D01*
X123641761Y-43569238D01*
X123641761Y-43878876D01*
X123680466Y-43956285D01*
X123719171Y-43994990D01*
X123796580Y-44033695D01*
X123951400Y-44033695D01*
X124028809Y-43994990D01*
X124067514Y-43956285D01*
X124106219Y-43878876D01*
X124106219Y-43685352D01*
X124067514Y-43607942D01*
X124028809Y-43569238D01*
X123951400Y-43530533D01*
X123796580Y-43530533D01*
X123719171Y-43569238D01*
X123680466Y-43607942D01*
X123641761Y-43685352D01*
%TO.C,L7*%
D10*
X27211666Y-67334904D02*
X27211666Y-66534904D01*
X27211666Y-66915857D02*
X27668809Y-66915857D01*
X27668809Y-67334904D02*
X27668809Y-66534904D01*
X28202142Y-66534904D02*
X28354523Y-66534904D01*
X28430714Y-66573000D01*
X28506904Y-66649190D01*
X28545000Y-66801571D01*
X28545000Y-67068238D01*
X28506904Y-67220619D01*
X28430714Y-67296809D01*
X28354523Y-67334904D01*
X28202142Y-67334904D01*
X28125952Y-67296809D01*
X28049761Y-67220619D01*
X28011666Y-67068238D01*
X28011666Y-66801571D01*
X28049761Y-66649190D01*
X28125952Y-66573000D01*
X28202142Y-66534904D01*
X29268809Y-67334904D02*
X28887857Y-67334904D01*
X28887857Y-66534904D01*
X29535476Y-66915857D02*
X29802142Y-66915857D01*
X29916428Y-67334904D02*
X29535476Y-67334904D01*
X29535476Y-66534904D01*
X29916428Y-66534904D01*
D14*
X28409533Y-65321695D02*
X28022485Y-65321695D01*
X28022485Y-64508895D01*
X28603057Y-64508895D02*
X29144923Y-64508895D01*
X28796580Y-65321695D01*
%TO.C,L8*%
D10*
X46211666Y-66034904D02*
X46211666Y-65234904D01*
X46211666Y-65615857D02*
X46668809Y-65615857D01*
X46668809Y-66034904D02*
X46668809Y-65234904D01*
X47202142Y-65234904D02*
X47354523Y-65234904D01*
X47430714Y-65273000D01*
X47506904Y-65349190D01*
X47545000Y-65501571D01*
X47545000Y-65768238D01*
X47506904Y-65920619D01*
X47430714Y-65996809D01*
X47354523Y-66034904D01*
X47202142Y-66034904D01*
X47125952Y-65996809D01*
X47049761Y-65920619D01*
X47011666Y-65768238D01*
X47011666Y-65501571D01*
X47049761Y-65349190D01*
X47125952Y-65273000D01*
X47202142Y-65234904D01*
X48268809Y-66034904D02*
X47887857Y-66034904D01*
X47887857Y-65234904D01*
X48535476Y-65615857D02*
X48802142Y-65615857D01*
X48916428Y-66034904D02*
X48535476Y-66034904D01*
X48535476Y-65234904D01*
X48916428Y-65234904D01*
D14*
X47409533Y-64021695D02*
X47022485Y-64021695D01*
X47022485Y-63208895D01*
X47796580Y-63557238D02*
X47719171Y-63518533D01*
X47680466Y-63479828D01*
X47641761Y-63402419D01*
X47641761Y-63363714D01*
X47680466Y-63286304D01*
X47719171Y-63247600D01*
X47796580Y-63208895D01*
X47951400Y-63208895D01*
X48028809Y-63247600D01*
X48067514Y-63286304D01*
X48106219Y-63363714D01*
X48106219Y-63402419D01*
X48067514Y-63479828D01*
X48028809Y-63518533D01*
X47951400Y-63557238D01*
X47796580Y-63557238D01*
X47719171Y-63595942D01*
X47680466Y-63634647D01*
X47641761Y-63712057D01*
X47641761Y-63866876D01*
X47680466Y-63944285D01*
X47719171Y-63982990D01*
X47796580Y-64021695D01*
X47951400Y-64021695D01*
X48028809Y-63982990D01*
X48067514Y-63944285D01*
X48106219Y-63866876D01*
X48106219Y-63712057D01*
X48067514Y-63634647D01*
X48028809Y-63595942D01*
X47951400Y-63557238D01*
%TO.C,L9*%
D10*
X65211666Y-50484904D02*
X65211666Y-49684904D01*
X65211666Y-50065857D02*
X65668809Y-50065857D01*
X65668809Y-50484904D02*
X65668809Y-49684904D01*
X66202142Y-49684904D02*
X66354523Y-49684904D01*
X66430714Y-49723000D01*
X66506904Y-49799190D01*
X66545000Y-49951571D01*
X66545000Y-50218238D01*
X66506904Y-50370619D01*
X66430714Y-50446809D01*
X66354523Y-50484904D01*
X66202142Y-50484904D01*
X66125952Y-50446809D01*
X66049761Y-50370619D01*
X66011666Y-50218238D01*
X66011666Y-49951571D01*
X66049761Y-49799190D01*
X66125952Y-49723000D01*
X66202142Y-49684904D01*
X67268809Y-50484904D02*
X66887857Y-50484904D01*
X66887857Y-49684904D01*
X67535476Y-50065857D02*
X67802142Y-50065857D01*
X67916428Y-50484904D02*
X67535476Y-50484904D01*
X67535476Y-49684904D01*
X67916428Y-49684904D01*
D14*
X66409533Y-48471695D02*
X66022485Y-48471695D01*
X66022485Y-47658895D01*
X66719171Y-48471695D02*
X66873990Y-48471695D01*
X66951400Y-48432990D01*
X66990104Y-48394285D01*
X67067514Y-48278171D01*
X67106219Y-48123352D01*
X67106219Y-47813714D01*
X67067514Y-47736304D01*
X67028809Y-47697600D01*
X66951400Y-47658895D01*
X66796580Y-47658895D01*
X66719171Y-47697600D01*
X66680466Y-47736304D01*
X66641761Y-47813714D01*
X66641761Y-48007238D01*
X66680466Y-48084647D01*
X66719171Y-48123352D01*
X66796580Y-48162057D01*
X66951400Y-48162057D01*
X67028809Y-48123352D01*
X67067514Y-48084647D01*
X67106219Y-48007238D01*
%TO.C,L10*%
D10*
X84211666Y-47484904D02*
X84211666Y-46684904D01*
X84211666Y-47065857D02*
X84668809Y-47065857D01*
X84668809Y-47484904D02*
X84668809Y-46684904D01*
X85202142Y-46684904D02*
X85354523Y-46684904D01*
X85430714Y-46723000D01*
X85506904Y-46799190D01*
X85545000Y-46951571D01*
X85545000Y-47218238D01*
X85506904Y-47370619D01*
X85430714Y-47446809D01*
X85354523Y-47484904D01*
X85202142Y-47484904D01*
X85125952Y-47446809D01*
X85049761Y-47370619D01*
X85011666Y-47218238D01*
X85011666Y-46951571D01*
X85049761Y-46799190D01*
X85125952Y-46723000D01*
X85202142Y-46684904D01*
X86268809Y-47484904D02*
X85887857Y-47484904D01*
X85887857Y-46684904D01*
X86535476Y-47065857D02*
X86802142Y-47065857D01*
X86916428Y-47484904D02*
X86535476Y-47484904D01*
X86535476Y-46684904D01*
X86916428Y-46684904D01*
D14*
X85022485Y-45471695D02*
X84635438Y-45471695D01*
X84635438Y-44658895D01*
X85719171Y-45471695D02*
X85254714Y-45471695D01*
X85486942Y-45471695D02*
X85486942Y-44658895D01*
X85409533Y-44775009D01*
X85332123Y-44852419D01*
X85254714Y-44891123D01*
X86222333Y-44658895D02*
X86299742Y-44658895D01*
X86377152Y-44697600D01*
X86415857Y-44736304D01*
X86454561Y-44813714D01*
X86493266Y-44968533D01*
X86493266Y-45162057D01*
X86454561Y-45316876D01*
X86415857Y-45394285D01*
X86377152Y-45432990D01*
X86299742Y-45471695D01*
X86222333Y-45471695D01*
X86144923Y-45432990D01*
X86106219Y-45394285D01*
X86067514Y-45316876D01*
X86028809Y-45162057D01*
X86028809Y-44968533D01*
X86067514Y-44813714D01*
X86106219Y-44736304D01*
X86144923Y-44697600D01*
X86222333Y-44658895D01*
%TO.C,L11*%
D10*
X103211666Y-57484904D02*
X103211666Y-56684904D01*
X103211666Y-57065857D02*
X103668809Y-57065857D01*
X103668809Y-57484904D02*
X103668809Y-56684904D01*
X104202142Y-56684904D02*
X104354523Y-56684904D01*
X104430714Y-56723000D01*
X104506904Y-56799190D01*
X104545000Y-56951571D01*
X104545000Y-57218238D01*
X104506904Y-57370619D01*
X104430714Y-57446809D01*
X104354523Y-57484904D01*
X104202142Y-57484904D01*
X104125952Y-57446809D01*
X104049761Y-57370619D01*
X104011666Y-57218238D01*
X104011666Y-56951571D01*
X104049761Y-56799190D01*
X104125952Y-56723000D01*
X104202142Y-56684904D01*
X105268809Y-57484904D02*
X104887857Y-57484904D01*
X104887857Y-56684904D01*
X105535476Y-57065857D02*
X105802142Y-57065857D01*
X105916428Y-57484904D02*
X105535476Y-57484904D01*
X105535476Y-56684904D01*
X105916428Y-56684904D01*
D14*
X104022485Y-55471695D02*
X103635438Y-55471695D01*
X103635438Y-54658895D01*
X104719171Y-55471695D02*
X104254714Y-55471695D01*
X104486942Y-55471695D02*
X104486942Y-54658895D01*
X104409533Y-54775009D01*
X104332123Y-54852419D01*
X104254714Y-54891123D01*
X105493266Y-55471695D02*
X105028809Y-55471695D01*
X105261038Y-55471695D02*
X105261038Y-54658895D01*
X105183628Y-54775009D01*
X105106219Y-54852419D01*
X105028809Y-54891123D01*
%TO.C,L12*%
D10*
X122211666Y-59484904D02*
X122211666Y-58684904D01*
X122211666Y-59065857D02*
X122668809Y-59065857D01*
X122668809Y-59484904D02*
X122668809Y-58684904D01*
X123202142Y-58684904D02*
X123354523Y-58684904D01*
X123430714Y-58723000D01*
X123506904Y-58799190D01*
X123545000Y-58951571D01*
X123545000Y-59218238D01*
X123506904Y-59370619D01*
X123430714Y-59446809D01*
X123354523Y-59484904D01*
X123202142Y-59484904D01*
X123125952Y-59446809D01*
X123049761Y-59370619D01*
X123011666Y-59218238D01*
X123011666Y-58951571D01*
X123049761Y-58799190D01*
X123125952Y-58723000D01*
X123202142Y-58684904D01*
X124268809Y-59484904D02*
X123887857Y-59484904D01*
X123887857Y-58684904D01*
X124535476Y-59065857D02*
X124802142Y-59065857D01*
X124916428Y-59484904D02*
X124535476Y-59484904D01*
X124535476Y-58684904D01*
X124916428Y-58684904D01*
D14*
X123022485Y-57471695D02*
X122635438Y-57471695D01*
X122635438Y-56658895D01*
X123719171Y-57471695D02*
X123254714Y-57471695D01*
X123486942Y-57471695D02*
X123486942Y-56658895D01*
X123409533Y-56775009D01*
X123332123Y-56852419D01*
X123254714Y-56891123D01*
X124028809Y-56736304D02*
X124067514Y-56697600D01*
X124144923Y-56658895D01*
X124338447Y-56658895D01*
X124415857Y-56697600D01*
X124454561Y-56736304D01*
X124493266Y-56813714D01*
X124493266Y-56891123D01*
X124454561Y-57007238D01*
X123990104Y-57471695D01*
X124493266Y-57471695D01*
%TO.C,L13*%
D10*
X27211666Y-87858904D02*
X27211666Y-87058904D01*
X27211666Y-87439857D02*
X27668809Y-87439857D01*
X27668809Y-87858904D02*
X27668809Y-87058904D01*
X28202142Y-87058904D02*
X28354523Y-87058904D01*
X28430714Y-87097000D01*
X28506904Y-87173190D01*
X28545000Y-87325571D01*
X28545000Y-87592238D01*
X28506904Y-87744619D01*
X28430714Y-87820809D01*
X28354523Y-87858904D01*
X28202142Y-87858904D01*
X28125952Y-87820809D01*
X28049761Y-87744619D01*
X28011666Y-87592238D01*
X28011666Y-87325571D01*
X28049761Y-87173190D01*
X28125952Y-87097000D01*
X28202142Y-87058904D01*
X29268809Y-87858904D02*
X28887857Y-87858904D01*
X28887857Y-87058904D01*
X29535476Y-87439857D02*
X29802142Y-87439857D01*
X29916428Y-87858904D02*
X29535476Y-87858904D01*
X29535476Y-87058904D01*
X29916428Y-87058904D01*
D14*
X28022485Y-89883695D02*
X27635438Y-89883695D01*
X27635438Y-89070895D01*
X28719171Y-89883695D02*
X28254714Y-89883695D01*
X28486942Y-89883695D02*
X28486942Y-89070895D01*
X28409533Y-89187009D01*
X28332123Y-89264419D01*
X28254714Y-89303123D01*
X28990104Y-89070895D02*
X29493266Y-89070895D01*
X29222333Y-89380533D01*
X29338447Y-89380533D01*
X29415857Y-89419238D01*
X29454561Y-89457942D01*
X29493266Y-89535352D01*
X29493266Y-89728876D01*
X29454561Y-89806285D01*
X29415857Y-89844990D01*
X29338447Y-89883695D01*
X29106219Y-89883695D01*
X29028809Y-89844990D01*
X28990104Y-89806285D01*
%TO.C,L14*%
D10*
X46211666Y-86558904D02*
X46211666Y-85758904D01*
X46211666Y-86139857D02*
X46668809Y-86139857D01*
X46668809Y-86558904D02*
X46668809Y-85758904D01*
X47202142Y-85758904D02*
X47354523Y-85758904D01*
X47430714Y-85797000D01*
X47506904Y-85873190D01*
X47545000Y-86025571D01*
X47545000Y-86292238D01*
X47506904Y-86444619D01*
X47430714Y-86520809D01*
X47354523Y-86558904D01*
X47202142Y-86558904D01*
X47125952Y-86520809D01*
X47049761Y-86444619D01*
X47011666Y-86292238D01*
X47011666Y-86025571D01*
X47049761Y-85873190D01*
X47125952Y-85797000D01*
X47202142Y-85758904D01*
X48268809Y-86558904D02*
X47887857Y-86558904D01*
X47887857Y-85758904D01*
X48535476Y-86139857D02*
X48802142Y-86139857D01*
X48916428Y-86558904D02*
X48535476Y-86558904D01*
X48535476Y-85758904D01*
X48916428Y-85758904D01*
D14*
X47022485Y-88583695D02*
X46635438Y-88583695D01*
X46635438Y-87770895D01*
X47719171Y-88583695D02*
X47254714Y-88583695D01*
X47486942Y-88583695D02*
X47486942Y-87770895D01*
X47409533Y-87887009D01*
X47332123Y-87964419D01*
X47254714Y-88003123D01*
X48415857Y-88041828D02*
X48415857Y-88583695D01*
X48222333Y-87732190D02*
X48028809Y-88312761D01*
X48531971Y-88312761D01*
%TO.C,L15*%
D10*
X65211666Y-71008904D02*
X65211666Y-70208904D01*
X65211666Y-70589857D02*
X65668809Y-70589857D01*
X65668809Y-71008904D02*
X65668809Y-70208904D01*
X66202142Y-70208904D02*
X66354523Y-70208904D01*
X66430714Y-70247000D01*
X66506904Y-70323190D01*
X66545000Y-70475571D01*
X66545000Y-70742238D01*
X66506904Y-70894619D01*
X66430714Y-70970809D01*
X66354523Y-71008904D01*
X66202142Y-71008904D01*
X66125952Y-70970809D01*
X66049761Y-70894619D01*
X66011666Y-70742238D01*
X66011666Y-70475571D01*
X66049761Y-70323190D01*
X66125952Y-70247000D01*
X66202142Y-70208904D01*
X67268809Y-71008904D02*
X66887857Y-71008904D01*
X66887857Y-70208904D01*
X67535476Y-70589857D02*
X67802142Y-70589857D01*
X67916428Y-71008904D02*
X67535476Y-71008904D01*
X67535476Y-70208904D01*
X67916428Y-70208904D01*
D14*
X66022485Y-73033695D02*
X65635438Y-73033695D01*
X65635438Y-72220895D01*
X66719171Y-73033695D02*
X66254714Y-73033695D01*
X66486942Y-73033695D02*
X66486942Y-72220895D01*
X66409533Y-72337009D01*
X66332123Y-72414419D01*
X66254714Y-72453123D01*
X67454561Y-72220895D02*
X67067514Y-72220895D01*
X67028809Y-72607942D01*
X67067514Y-72569238D01*
X67144923Y-72530533D01*
X67338447Y-72530533D01*
X67415857Y-72569238D01*
X67454561Y-72607942D01*
X67493266Y-72685352D01*
X67493266Y-72878876D01*
X67454561Y-72956285D01*
X67415857Y-72994990D01*
X67338447Y-73033695D01*
X67144923Y-73033695D01*
X67067514Y-72994990D01*
X67028809Y-72956285D01*
%TO.C,L16*%
D10*
X84211666Y-68008904D02*
X84211666Y-67208904D01*
X84211666Y-67589857D02*
X84668809Y-67589857D01*
X84668809Y-68008904D02*
X84668809Y-67208904D01*
X85202142Y-67208904D02*
X85354523Y-67208904D01*
X85430714Y-67247000D01*
X85506904Y-67323190D01*
X85545000Y-67475571D01*
X85545000Y-67742238D01*
X85506904Y-67894619D01*
X85430714Y-67970809D01*
X85354523Y-68008904D01*
X85202142Y-68008904D01*
X85125952Y-67970809D01*
X85049761Y-67894619D01*
X85011666Y-67742238D01*
X85011666Y-67475571D01*
X85049761Y-67323190D01*
X85125952Y-67247000D01*
X85202142Y-67208904D01*
X86268809Y-68008904D02*
X85887857Y-68008904D01*
X85887857Y-67208904D01*
X86535476Y-67589857D02*
X86802142Y-67589857D01*
X86916428Y-68008904D02*
X86535476Y-68008904D01*
X86535476Y-67208904D01*
X86916428Y-67208904D01*
D14*
X85022485Y-70033695D02*
X84635438Y-70033695D01*
X84635438Y-69220895D01*
X85719171Y-70033695D02*
X85254714Y-70033695D01*
X85486942Y-70033695D02*
X85486942Y-69220895D01*
X85409533Y-69337009D01*
X85332123Y-69414419D01*
X85254714Y-69453123D01*
X86415857Y-69220895D02*
X86261038Y-69220895D01*
X86183628Y-69259600D01*
X86144923Y-69298304D01*
X86067514Y-69414419D01*
X86028809Y-69569238D01*
X86028809Y-69878876D01*
X86067514Y-69956285D01*
X86106219Y-69994990D01*
X86183628Y-70033695D01*
X86338447Y-70033695D01*
X86415857Y-69994990D01*
X86454561Y-69956285D01*
X86493266Y-69878876D01*
X86493266Y-69685352D01*
X86454561Y-69607942D01*
X86415857Y-69569238D01*
X86338447Y-69530533D01*
X86183628Y-69530533D01*
X86106219Y-69569238D01*
X86067514Y-69607942D01*
X86028809Y-69685352D01*
%TO.C,L17*%
D10*
X103211666Y-78008904D02*
X103211666Y-77208904D01*
X103211666Y-77589857D02*
X103668809Y-77589857D01*
X103668809Y-78008904D02*
X103668809Y-77208904D01*
X104202142Y-77208904D02*
X104354523Y-77208904D01*
X104430714Y-77247000D01*
X104506904Y-77323190D01*
X104545000Y-77475571D01*
X104545000Y-77742238D01*
X104506904Y-77894619D01*
X104430714Y-77970809D01*
X104354523Y-78008904D01*
X104202142Y-78008904D01*
X104125952Y-77970809D01*
X104049761Y-77894619D01*
X104011666Y-77742238D01*
X104011666Y-77475571D01*
X104049761Y-77323190D01*
X104125952Y-77247000D01*
X104202142Y-77208904D01*
X105268809Y-78008904D02*
X104887857Y-78008904D01*
X104887857Y-77208904D01*
X105535476Y-77589857D02*
X105802142Y-77589857D01*
X105916428Y-78008904D02*
X105535476Y-78008904D01*
X105535476Y-77208904D01*
X105916428Y-77208904D01*
D14*
X104022485Y-80033695D02*
X103635438Y-80033695D01*
X103635438Y-79220895D01*
X104719171Y-80033695D02*
X104254714Y-80033695D01*
X104486942Y-80033695D02*
X104486942Y-79220895D01*
X104409533Y-79337009D01*
X104332123Y-79414419D01*
X104254714Y-79453123D01*
X104990104Y-79220895D02*
X105531971Y-79220895D01*
X105183628Y-80033695D01*
%TO.C,L18*%
X123022485Y-82033695D02*
X122635438Y-82033695D01*
X122635438Y-81220895D01*
X123719171Y-82033695D02*
X123254714Y-82033695D01*
X123486942Y-82033695D02*
X123486942Y-81220895D01*
X123409533Y-81337009D01*
X123332123Y-81414419D01*
X123254714Y-81453123D01*
X124183628Y-81569238D02*
X124106219Y-81530533D01*
X124067514Y-81491828D01*
X124028809Y-81414419D01*
X124028809Y-81375714D01*
X124067514Y-81298304D01*
X124106219Y-81259600D01*
X124183628Y-81220895D01*
X124338447Y-81220895D01*
X124415857Y-81259600D01*
X124454561Y-81298304D01*
X124493266Y-81375714D01*
X124493266Y-81414419D01*
X124454561Y-81491828D01*
X124415857Y-81530533D01*
X124338447Y-81569238D01*
X124183628Y-81569238D01*
X124106219Y-81607942D01*
X124067514Y-81646647D01*
X124028809Y-81724057D01*
X124028809Y-81878876D01*
X124067514Y-81956285D01*
X124106219Y-81994990D01*
X124183628Y-82033695D01*
X124338447Y-82033695D01*
X124415857Y-81994990D01*
X124454561Y-81956285D01*
X124493266Y-81878876D01*
X124493266Y-81724057D01*
X124454561Y-81646647D01*
X124415857Y-81607942D01*
X124338447Y-81569238D01*
D10*
X122211666Y-80008904D02*
X122211666Y-79208904D01*
X122211666Y-79589857D02*
X122668809Y-79589857D01*
X122668809Y-80008904D02*
X122668809Y-79208904D01*
X123202142Y-79208904D02*
X123354523Y-79208904D01*
X123430714Y-79247000D01*
X123506904Y-79323190D01*
X123545000Y-79475571D01*
X123545000Y-79742238D01*
X123506904Y-79894619D01*
X123430714Y-79970809D01*
X123354523Y-80008904D01*
X123202142Y-80008904D01*
X123125952Y-79970809D01*
X123049761Y-79894619D01*
X123011666Y-79742238D01*
X123011666Y-79475571D01*
X123049761Y-79323190D01*
X123125952Y-79247000D01*
X123202142Y-79208904D01*
X124268809Y-80008904D02*
X123887857Y-80008904D01*
X123887857Y-79208904D01*
X124535476Y-79589857D02*
X124802142Y-79589857D01*
X124916428Y-80008904D02*
X124535476Y-80008904D01*
X124535476Y-79208904D01*
X124916428Y-79208904D01*
%TO.C,L19*%
X88824166Y-95493904D02*
X88824166Y-94693904D01*
X88824166Y-95074857D02*
X89281309Y-95074857D01*
X89281309Y-95493904D02*
X89281309Y-94693904D01*
X89814642Y-94693904D02*
X89967023Y-94693904D01*
X90043214Y-94732000D01*
X90119404Y-94808190D01*
X90157500Y-94960571D01*
X90157500Y-95227238D01*
X90119404Y-95379619D01*
X90043214Y-95455809D01*
X89967023Y-95493904D01*
X89814642Y-95493904D01*
X89738452Y-95455809D01*
X89662261Y-95379619D01*
X89624166Y-95227238D01*
X89624166Y-94960571D01*
X89662261Y-94808190D01*
X89738452Y-94732000D01*
X89814642Y-94693904D01*
X90881309Y-95493904D02*
X90500357Y-95493904D01*
X90500357Y-94693904D01*
X91147976Y-95074857D02*
X91414642Y-95074857D01*
X91528928Y-95493904D02*
X91147976Y-95493904D01*
X91147976Y-94693904D01*
X91528928Y-94693904D01*
D14*
X89634985Y-93480695D02*
X89247938Y-93480695D01*
X89247938Y-92667895D01*
X90331671Y-93480695D02*
X89867214Y-93480695D01*
X90099442Y-93480695D02*
X90099442Y-92667895D01*
X90022033Y-92784009D01*
X89944623Y-92861419D01*
X89867214Y-92900123D01*
X90718719Y-93480695D02*
X90873538Y-93480695D01*
X90950947Y-93441990D01*
X90989652Y-93403285D01*
X91067061Y-93287171D01*
X91105766Y-93132352D01*
X91105766Y-92822714D01*
X91067061Y-92745304D01*
X91028357Y-92706600D01*
X90950947Y-92667895D01*
X90796128Y-92667895D01*
X90718719Y-92706600D01*
X90680014Y-92745304D01*
X90641309Y-92822714D01*
X90641309Y-93016238D01*
X90680014Y-93093647D01*
X90718719Y-93132352D01*
X90796128Y-93171057D01*
X90950947Y-93171057D01*
X91028357Y-93132352D01*
X91067061Y-93093647D01*
X91105766Y-93016238D01*
%TO.C,L20*%
D10*
X107824166Y-97493904D02*
X107824166Y-96693904D01*
X107824166Y-97074857D02*
X108281309Y-97074857D01*
X108281309Y-97493904D02*
X108281309Y-96693904D01*
X108814642Y-96693904D02*
X108967023Y-96693904D01*
X109043214Y-96732000D01*
X109119404Y-96808190D01*
X109157500Y-96960571D01*
X109157500Y-97227238D01*
X109119404Y-97379619D01*
X109043214Y-97455809D01*
X108967023Y-97493904D01*
X108814642Y-97493904D01*
X108738452Y-97455809D01*
X108662261Y-97379619D01*
X108624166Y-97227238D01*
X108624166Y-96960571D01*
X108662261Y-96808190D01*
X108738452Y-96732000D01*
X108814642Y-96693904D01*
X109881309Y-97493904D02*
X109500357Y-97493904D01*
X109500357Y-96693904D01*
X110147976Y-97074857D02*
X110414642Y-97074857D01*
X110528928Y-97493904D02*
X110147976Y-97493904D01*
X110147976Y-96693904D01*
X110528928Y-96693904D01*
D14*
X108634985Y-95480695D02*
X108247938Y-95480695D01*
X108247938Y-94667895D01*
X108867214Y-94745304D02*
X108905919Y-94706600D01*
X108983328Y-94667895D01*
X109176852Y-94667895D01*
X109254261Y-94706600D01*
X109292966Y-94745304D01*
X109331671Y-94822714D01*
X109331671Y-94900123D01*
X109292966Y-95016238D01*
X108828509Y-95480695D01*
X109331671Y-95480695D01*
X109834833Y-94667895D02*
X109912242Y-94667895D01*
X109989652Y-94706600D01*
X110028357Y-94745304D01*
X110067061Y-94822714D01*
X110105766Y-94977533D01*
X110105766Y-95171057D01*
X110067061Y-95325876D01*
X110028357Y-95403285D01*
X109989652Y-95441990D01*
X109912242Y-95480695D01*
X109834833Y-95480695D01*
X109757423Y-95441990D01*
X109718719Y-95403285D01*
X109680014Y-95325876D01*
X109641309Y-95171057D01*
X109641309Y-94977533D01*
X109680014Y-94822714D01*
X109718719Y-94745304D01*
X109757423Y-94706600D01*
X109834833Y-94667895D01*
%TO.C,L21*%
D10*
X127884902Y-108514254D02*
X128023821Y-107726408D01*
X127957669Y-108101573D02*
X128407867Y-108180955D01*
X128335100Y-108593636D02*
X128474019Y-107805790D01*
X128999250Y-107898402D02*
X129149316Y-107924863D01*
X129217733Y-107975610D01*
X129279536Y-108063873D01*
X129290592Y-108220554D01*
X129244286Y-108483170D01*
X129180308Y-108626620D01*
X129092045Y-108688423D01*
X129010397Y-108712709D01*
X128860331Y-108686249D01*
X128791913Y-108635502D01*
X128730111Y-108547238D01*
X128719055Y-108390557D01*
X128765361Y-108127942D01*
X128829338Y-107984491D01*
X128917601Y-107922689D01*
X128999250Y-107898402D01*
X129910793Y-108871473D02*
X129535628Y-108805322D01*
X129674546Y-108017475D01*
X130246175Y-108505098D02*
X130508790Y-108551404D01*
X130548573Y-108983931D02*
X130173408Y-108917780D01*
X130312327Y-108129933D01*
X130687491Y-108196085D01*
D14*
X129032994Y-106672428D02*
X128651826Y-106605218D01*
X128792968Y-105804766D01*
X129389393Y-105988536D02*
X129434231Y-105957140D01*
X129517186Y-105932465D01*
X129707770Y-105966070D01*
X129777282Y-106017629D01*
X129808678Y-106062467D01*
X129833352Y-106145421D01*
X129819910Y-106221655D01*
X129761631Y-106329284D01*
X129223578Y-106706033D01*
X129719095Y-106793406D01*
X130481430Y-106927826D02*
X130024029Y-106847174D01*
X130252730Y-106887500D02*
X130393871Y-106087049D01*
X130297474Y-106187957D01*
X130207799Y-106250748D01*
X130124844Y-106275423D01*
%TO.C,L22*%
D10*
X146826398Y-111968451D02*
X146965317Y-111180605D01*
X146899165Y-111555770D02*
X147349363Y-111635152D01*
X147276596Y-112047833D02*
X147415515Y-111259987D01*
X147940746Y-111352599D02*
X148090812Y-111379060D01*
X148159229Y-111429807D01*
X148221032Y-111518070D01*
X148232088Y-111674751D01*
X148185782Y-111937367D01*
X148121804Y-112080817D01*
X148033541Y-112142620D01*
X147951893Y-112166906D01*
X147801827Y-112140446D01*
X147733409Y-112089699D01*
X147671607Y-112001435D01*
X147660551Y-111844754D01*
X147706857Y-111582139D01*
X147770834Y-111438688D01*
X147859097Y-111376886D01*
X147940746Y-111352599D01*
X148852289Y-112325670D02*
X148477124Y-112259519D01*
X148616042Y-111471672D01*
X149187671Y-111959295D02*
X149450286Y-112005601D01*
X149490069Y-112438128D02*
X149114904Y-112371977D01*
X149253823Y-111584130D01*
X149628987Y-111650282D01*
D14*
X147974490Y-110126625D02*
X147593322Y-110059415D01*
X147734464Y-109258963D01*
X148330889Y-109442733D02*
X148375727Y-109411337D01*
X148458682Y-109386662D01*
X148649266Y-109420267D01*
X148718778Y-109471826D01*
X148750174Y-109516664D01*
X148774848Y-109599618D01*
X148761406Y-109675852D01*
X148703127Y-109783481D01*
X148165074Y-110160230D01*
X148660591Y-110247603D01*
X149093224Y-109577153D02*
X149138062Y-109545757D01*
X149221017Y-109521083D01*
X149411600Y-109554688D01*
X149481113Y-109606246D01*
X149512509Y-109651084D01*
X149537183Y-109734039D01*
X149523741Y-109810272D01*
X149465462Y-109917901D01*
X148927409Y-110294650D01*
X149422926Y-110382023D01*
%TO.C,L23*%
D10*
X160285299Y-126382241D02*
X159497453Y-126243322D01*
X159872618Y-126309474D02*
X159952000Y-125859276D01*
X160364681Y-125932043D02*
X159576835Y-125793124D01*
X159669447Y-125267893D02*
X159695908Y-125117827D01*
X159746655Y-125049410D01*
X159834918Y-124987607D01*
X159991599Y-124976551D01*
X160254215Y-125022857D01*
X160397665Y-125086835D01*
X160459468Y-125175098D01*
X160483754Y-125256746D01*
X160457294Y-125406812D01*
X160406547Y-125475230D01*
X160318283Y-125537032D01*
X160161602Y-125548088D01*
X159898987Y-125501782D01*
X159755536Y-125437805D01*
X159693734Y-125349542D01*
X159669447Y-125267893D01*
X160642518Y-124356350D02*
X160576367Y-124731515D01*
X159788520Y-124592597D01*
X160276143Y-124020968D02*
X160322449Y-123758353D01*
X160754976Y-123718570D02*
X160688825Y-124093735D01*
X159900978Y-123954816D01*
X159967130Y-123579652D01*
D14*
X162420125Y-125935341D02*
X162352915Y-126316509D01*
X161552463Y-126175367D01*
X161736233Y-125578942D02*
X161704837Y-125534104D01*
X161680162Y-125451149D01*
X161713767Y-125260565D01*
X161765326Y-125191053D01*
X161810164Y-125159657D01*
X161893118Y-125134983D01*
X161969352Y-125148425D01*
X162076981Y-125206704D01*
X162453730Y-125744757D01*
X162541103Y-125249240D01*
X161787699Y-124841281D02*
X161875072Y-124345764D01*
X162132959Y-124666349D01*
X162153122Y-124551999D01*
X162204680Y-124482486D01*
X162249518Y-124451090D01*
X162332473Y-124426416D01*
X162523056Y-124460021D01*
X162592569Y-124511579D01*
X162623965Y-124556417D01*
X162648639Y-124639372D01*
X162608313Y-124868072D01*
X162556755Y-124937585D01*
X162511917Y-124968980D01*
%TD*%
M02*
