%TF.GenerationSoftware,KiCad,Pcbnew,5.1.9*%
%TF.CreationDate,2021-05-10T09:53:42-05:00*%
%TF.ProjectId,nightwing,6e696768-7477-4696-9e67-2e6b69636164,rev?*%
%TF.SameCoordinates,Original*%
%TF.FileFunction,Profile,NP*%
%FSLAX46Y46*%
G04 Gerber Fmt 4.6, Leading zero omitted, Abs format (unit mm)*
G04 Created by KiCad (PCBNEW 5.1.9) date 2021-05-10 09:53:42*
%MOMM*%
%LPD*%
G01*
G04 APERTURE LIST*
%TA.AperFunction,Profile*%
%ADD10C,0.100000*%
%TD*%
%TA.AperFunction,Profile*%
%ADD11C,0.050000*%
%TD*%
G04 APERTURE END LIST*
D10*
X108000000Y-105000000D02*
X49750000Y-105000000D01*
X108000000Y-123270000D02*
X108000000Y-105000000D01*
D11*
X49750000Y-105000000D02*
X49750000Y-93950000D01*
X49750000Y-93950000D02*
X11660000Y-93950000D01*
X158790122Y-17985593D02*
X158790000Y-90450000D01*
X158790000Y-90450000D02*
X177070000Y-93680000D01*
X177070000Y-93680000D02*
X169900000Y-134360000D01*
X158790122Y-17985593D02*
G75*
G03*
X11660000Y-11930000I-84480762J-262186278D01*
G01*
X11660000Y-93950000D02*
X11660000Y-11930000D01*
X169900000Y-134360000D02*
X108000000Y-123270000D01*
D10*
%TO.C,SW24*%
X137648866Y-110162102D02*
G75*
G02*
X139672877Y-109559274I707950J1322290D01*
G01*
X137850274Y-110842519D02*
G75*
G03*
X137648867Y-110162102I-438894J240102D01*
G01*
X139875854Y-110240244D02*
G75*
G02*
X139672877Y-109559274I236038J441092D01*
G01*
X139875852Y-110240245D02*
G75*
G02*
X137850274Y-110842519I-709396J-1321512D01*
G01*
X146074057Y-111647689D02*
G75*
G03*
X144378288Y-110388965I-213006J1484678D01*
G01*
X143954648Y-110959445D02*
G75*
G03*
X144378288Y-110388965I-70942J495220D01*
G01*
X145652079Y-112218187D02*
G75*
G02*
X146074056Y-111647690I494545J75511D01*
G01*
X143954648Y-110959447D02*
G75*
G03*
X145652079Y-112218187I214631J-1484443D01*
G01*
%TO.C,SW23*%
X118848866Y-106812102D02*
G75*
G02*
X120872877Y-106209274I707950J1322290D01*
G01*
X119050274Y-107492519D02*
G75*
G03*
X118848867Y-106812102I-438894J240102D01*
G01*
X121075854Y-106890244D02*
G75*
G02*
X120872877Y-106209274I236038J441092D01*
G01*
X121075852Y-106890245D02*
G75*
G02*
X119050274Y-107492519I-709396J-1321512D01*
G01*
X127274057Y-108297689D02*
G75*
G03*
X125578288Y-107038965I-213006J1484678D01*
G01*
X125154648Y-107609445D02*
G75*
G03*
X125578288Y-107038965I-70942J495220D01*
G01*
X126852079Y-108868187D02*
G75*
G02*
X127274056Y-108297690I494545J75511D01*
G01*
X125154648Y-107609447D02*
G75*
G03*
X126852079Y-108868187I214631J-1484443D01*
G01*
%TO.C,SW22*%
X163682102Y-119901134D02*
G75*
G02*
X163079274Y-117877123I-1322290J707950D01*
G01*
X164362519Y-119699726D02*
G75*
G03*
X163682102Y-119901133I-240102J-438894D01*
G01*
X163760244Y-117674146D02*
G75*
G02*
X163079274Y-117877123I-441092J236038D01*
G01*
X163760245Y-117674148D02*
G75*
G02*
X164362519Y-119699726I1321512J-709396D01*
G01*
X165167689Y-111475943D02*
G75*
G03*
X163908965Y-113171712I-1484678J-213006D01*
G01*
X164479445Y-113595352D02*
G75*
G03*
X163908965Y-113171712I-495220J-70942D01*
G01*
X165738187Y-111897921D02*
G75*
G02*
X165167690Y-111475944I-75511J494545D01*
G01*
X164479447Y-113595352D02*
G75*
G03*
X165738187Y-111897921I1484443J214631D01*
G01*
%TO.C,SW21*%
X100559919Y-96465134D02*
G75*
G02*
X102448500Y-95520000I467581J1425134D01*
G01*
X100876420Y-97100241D02*
G75*
G03*
X100559919Y-96465135I-473920J160241D01*
G01*
X102766642Y-96155378D02*
G75*
G02*
X102448500Y-95520000I155858J475378D01*
G01*
X102766641Y-96155379D02*
G75*
G02*
X100876420Y-97100241I-469141J-1424621D01*
G01*
X109115081Y-96465134D02*
G75*
G03*
X107226500Y-95520000I-467581J1425134D01*
G01*
X106908358Y-96155378D02*
G75*
G03*
X107226500Y-95520000I-155858J475378D01*
G01*
X108798580Y-97100241D02*
G75*
G02*
X109115081Y-96465135I473920J160241D01*
G01*
X106908359Y-96155379D02*
G75*
G03*
X108798580Y-97100241I469141J-1424621D01*
G01*
%TO.C,SW20*%
X81559919Y-94465134D02*
G75*
G02*
X83448500Y-93520000I467581J1425134D01*
G01*
X81876420Y-95100241D02*
G75*
G03*
X81559919Y-94465135I-473920J160241D01*
G01*
X83766642Y-94155378D02*
G75*
G02*
X83448500Y-93520000I155858J475378D01*
G01*
X83766641Y-94155379D02*
G75*
G02*
X81876420Y-95100241I-469141J-1424621D01*
G01*
X90115081Y-94465134D02*
G75*
G03*
X88226500Y-93520000I-467581J1425134D01*
G01*
X87908358Y-94155378D02*
G75*
G03*
X88226500Y-93520000I-155858J475378D01*
G01*
X89798580Y-95100241D02*
G75*
G02*
X90115081Y-94465135I473920J160241D01*
G01*
X87908359Y-94155379D02*
G75*
G03*
X89798580Y-95100241I469141J-1424621D01*
G01*
%TO.C,SW18*%
X114947419Y-77456134D02*
G75*
G02*
X116836000Y-76511000I467581J1425134D01*
G01*
X115263920Y-78091241D02*
G75*
G03*
X114947419Y-77456135I-473920J160241D01*
G01*
X117154142Y-77146378D02*
G75*
G02*
X116836000Y-76511000I155858J475378D01*
G01*
X117154141Y-77146379D02*
G75*
G02*
X115263920Y-78091241I-469141J-1424621D01*
G01*
X123502581Y-77456134D02*
G75*
G03*
X121614000Y-76511000I-467581J1425134D01*
G01*
X121295858Y-77146378D02*
G75*
G03*
X121614000Y-76511000I-155858J475378D01*
G01*
X123186080Y-78091241D02*
G75*
G02*
X123502581Y-77456135I473920J160241D01*
G01*
X121295859Y-77146379D02*
G75*
G03*
X123186080Y-78091241I469141J-1424621D01*
G01*
%TO.C,SW17*%
X95947419Y-75456134D02*
G75*
G02*
X97836000Y-74511000I467581J1425134D01*
G01*
X96263920Y-76091241D02*
G75*
G03*
X95947419Y-75456135I-473920J160241D01*
G01*
X98154142Y-75146378D02*
G75*
G02*
X97836000Y-74511000I155858J475378D01*
G01*
X98154141Y-75146379D02*
G75*
G02*
X96263920Y-76091241I-469141J-1424621D01*
G01*
X104502581Y-75456134D02*
G75*
G03*
X102614000Y-74511000I-467581J1425134D01*
G01*
X102295858Y-75146378D02*
G75*
G03*
X102614000Y-74511000I-155858J475378D01*
G01*
X104186080Y-76091241D02*
G75*
G02*
X104502581Y-75456135I473920J160241D01*
G01*
X102295859Y-75146379D02*
G75*
G03*
X104186080Y-76091241I469141J-1424621D01*
G01*
%TO.C,SW16*%
X76947419Y-65456134D02*
G75*
G02*
X78836000Y-64511000I467581J1425134D01*
G01*
X77263920Y-66091241D02*
G75*
G03*
X76947419Y-65456135I-473920J160241D01*
G01*
X79154142Y-65146378D02*
G75*
G02*
X78836000Y-64511000I155858J475378D01*
G01*
X79154141Y-65146379D02*
G75*
G02*
X77263920Y-66091241I-469141J-1424621D01*
G01*
X85502581Y-65456134D02*
G75*
G03*
X83614000Y-64511000I-467581J1425134D01*
G01*
X83295858Y-65146378D02*
G75*
G03*
X83614000Y-64511000I-155858J475378D01*
G01*
X85186080Y-66091241D02*
G75*
G02*
X85502581Y-65456135I473920J160241D01*
G01*
X83295859Y-65146379D02*
G75*
G03*
X85186080Y-66091241I469141J-1424621D01*
G01*
%TO.C,SW15*%
X57947419Y-68456134D02*
G75*
G02*
X59836000Y-67511000I467581J1425134D01*
G01*
X58263920Y-69091241D02*
G75*
G03*
X57947419Y-68456135I-473920J160241D01*
G01*
X60154142Y-68146378D02*
G75*
G02*
X59836000Y-67511000I155858J475378D01*
G01*
X60154141Y-68146379D02*
G75*
G02*
X58263920Y-69091241I-469141J-1424621D01*
G01*
X66502581Y-68456134D02*
G75*
G03*
X64614000Y-67511000I-467581J1425134D01*
G01*
X64295858Y-68146378D02*
G75*
G03*
X64614000Y-67511000I-155858J475378D01*
G01*
X66186080Y-69091241D02*
G75*
G02*
X66502581Y-68456135I473920J160241D01*
G01*
X64295859Y-68146379D02*
G75*
G03*
X66186080Y-69091241I469141J-1424621D01*
G01*
%TO.C,SW14*%
X38947419Y-84006134D02*
G75*
G02*
X40836000Y-83061000I467581J1425134D01*
G01*
X39263920Y-84641241D02*
G75*
G03*
X38947419Y-84006135I-473920J160241D01*
G01*
X41154142Y-83696378D02*
G75*
G02*
X40836000Y-83061000I155858J475378D01*
G01*
X41154141Y-83696379D02*
G75*
G02*
X39263920Y-84641241I-469141J-1424621D01*
G01*
X47502581Y-84006134D02*
G75*
G03*
X45614000Y-83061000I-467581J1425134D01*
G01*
X45295858Y-83696378D02*
G75*
G03*
X45614000Y-83061000I-155858J475378D01*
G01*
X47186080Y-84641241D02*
G75*
G02*
X47502581Y-84006135I473920J160241D01*
G01*
X45295859Y-83696379D02*
G75*
G03*
X47186080Y-84641241I469141J-1424621D01*
G01*
%TO.C,SW13*%
X19947419Y-85306134D02*
G75*
G02*
X21836000Y-84361000I467581J1425134D01*
G01*
X20263920Y-85941241D02*
G75*
G03*
X19947419Y-85306135I-473920J160241D01*
G01*
X22154142Y-84996378D02*
G75*
G02*
X21836000Y-84361000I155858J475378D01*
G01*
X22154141Y-84996379D02*
G75*
G02*
X20263920Y-85941241I-469141J-1424621D01*
G01*
X28502581Y-85306134D02*
G75*
G03*
X26614000Y-84361000I-467581J1425134D01*
G01*
X26295858Y-84996378D02*
G75*
G03*
X26614000Y-84361000I-155858J475378D01*
G01*
X28186080Y-85941241D02*
G75*
G02*
X28502581Y-85306135I473920J160241D01*
G01*
X26295859Y-84996379D02*
G75*
G03*
X28186080Y-85941241I469141J-1424621D01*
G01*
%TO.C,SW12*%
X114947419Y-58456134D02*
G75*
G02*
X116836000Y-57511000I467581J1425134D01*
G01*
X115263920Y-59091241D02*
G75*
G03*
X114947419Y-58456135I-473920J160241D01*
G01*
X117154142Y-58146378D02*
G75*
G02*
X116836000Y-57511000I155858J475378D01*
G01*
X117154141Y-58146379D02*
G75*
G02*
X115263920Y-59091241I-469141J-1424621D01*
G01*
X123502581Y-58456134D02*
G75*
G03*
X121614000Y-57511000I-467581J1425134D01*
G01*
X121295858Y-58146378D02*
G75*
G03*
X121614000Y-57511000I-155858J475378D01*
G01*
X123186080Y-59091241D02*
G75*
G02*
X123502581Y-58456135I473920J160241D01*
G01*
X121295859Y-58146379D02*
G75*
G03*
X123186080Y-59091241I469141J-1424621D01*
G01*
%TO.C,SW11*%
X95947419Y-56456134D02*
G75*
G02*
X97836000Y-55511000I467581J1425134D01*
G01*
X96263920Y-57091241D02*
G75*
G03*
X95947419Y-56456135I-473920J160241D01*
G01*
X98154142Y-56146378D02*
G75*
G02*
X97836000Y-55511000I155858J475378D01*
G01*
X98154141Y-56146379D02*
G75*
G02*
X96263920Y-57091241I-469141J-1424621D01*
G01*
X104502581Y-56456134D02*
G75*
G03*
X102614000Y-55511000I-467581J1425134D01*
G01*
X102295858Y-56146378D02*
G75*
G03*
X102614000Y-55511000I-155858J475378D01*
G01*
X104186080Y-57091241D02*
G75*
G02*
X104502581Y-56456135I473920J160241D01*
G01*
X102295859Y-56146379D02*
G75*
G03*
X104186080Y-57091241I469141J-1424621D01*
G01*
%TO.C,SW10*%
X76947419Y-46456134D02*
G75*
G02*
X78836000Y-45511000I467581J1425134D01*
G01*
X77263920Y-47091241D02*
G75*
G03*
X76947419Y-46456135I-473920J160241D01*
G01*
X79154142Y-46146378D02*
G75*
G02*
X78836000Y-45511000I155858J475378D01*
G01*
X79154141Y-46146379D02*
G75*
G02*
X77263920Y-47091241I-469141J-1424621D01*
G01*
X85502581Y-46456134D02*
G75*
G03*
X83614000Y-45511000I-467581J1425134D01*
G01*
X83295858Y-46146378D02*
G75*
G03*
X83614000Y-45511000I-155858J475378D01*
G01*
X85186080Y-47091241D02*
G75*
G02*
X85502581Y-46456135I473920J160241D01*
G01*
X83295859Y-46146379D02*
G75*
G03*
X85186080Y-47091241I469141J-1424621D01*
G01*
%TO.C,SW9*%
X57947419Y-49456134D02*
G75*
G02*
X59836000Y-48511000I467581J1425134D01*
G01*
X58263920Y-50091241D02*
G75*
G03*
X57947419Y-49456135I-473920J160241D01*
G01*
X60154142Y-49146378D02*
G75*
G02*
X59836000Y-48511000I155858J475378D01*
G01*
X60154141Y-49146379D02*
G75*
G02*
X58263920Y-50091241I-469141J-1424621D01*
G01*
X66502581Y-49456134D02*
G75*
G03*
X64614000Y-48511000I-467581J1425134D01*
G01*
X64295858Y-49146378D02*
G75*
G03*
X64614000Y-48511000I-155858J475378D01*
G01*
X66186080Y-50091241D02*
G75*
G02*
X66502581Y-49456135I473920J160241D01*
G01*
X64295859Y-49146379D02*
G75*
G03*
X66186080Y-50091241I469141J-1424621D01*
G01*
%TO.C,SW8*%
X38947419Y-65006134D02*
G75*
G02*
X40836000Y-64061000I467581J1425134D01*
G01*
X39263920Y-65641241D02*
G75*
G03*
X38947419Y-65006135I-473920J160241D01*
G01*
X41154142Y-64696378D02*
G75*
G02*
X40836000Y-64061000I155858J475378D01*
G01*
X41154141Y-64696379D02*
G75*
G02*
X39263920Y-65641241I-469141J-1424621D01*
G01*
X47502581Y-65006134D02*
G75*
G03*
X45614000Y-64061000I-467581J1425134D01*
G01*
X45295858Y-64696378D02*
G75*
G03*
X45614000Y-64061000I-155858J475378D01*
G01*
X47186080Y-65641241D02*
G75*
G02*
X47502581Y-65006135I473920J160241D01*
G01*
X45295859Y-64696379D02*
G75*
G03*
X47186080Y-65641241I469141J-1424621D01*
G01*
%TO.C,SW7*%
X19947419Y-66306134D02*
G75*
G02*
X21836000Y-65361000I467581J1425134D01*
G01*
X20263920Y-66941241D02*
G75*
G03*
X19947419Y-66306135I-473920J160241D01*
G01*
X22154142Y-65996378D02*
G75*
G02*
X21836000Y-65361000I155858J475378D01*
G01*
X22154141Y-65996379D02*
G75*
G02*
X20263920Y-66941241I-469141J-1424621D01*
G01*
X28502581Y-66306134D02*
G75*
G03*
X26614000Y-65361000I-467581J1425134D01*
G01*
X26295858Y-65996378D02*
G75*
G03*
X26614000Y-65361000I-155858J475378D01*
G01*
X28186080Y-66941241D02*
G75*
G02*
X28502581Y-66306135I473920J160241D01*
G01*
X26295859Y-65996379D02*
G75*
G03*
X28186080Y-66941241I469141J-1424621D01*
G01*
%TO.C,SW6*%
X114947419Y-39456134D02*
G75*
G02*
X116836000Y-38511000I467581J1425134D01*
G01*
X115263920Y-40091241D02*
G75*
G03*
X114947419Y-39456135I-473920J160241D01*
G01*
X117154142Y-39146378D02*
G75*
G02*
X116836000Y-38511000I155858J475378D01*
G01*
X117154141Y-39146379D02*
G75*
G02*
X115263920Y-40091241I-469141J-1424621D01*
G01*
X123502581Y-39456134D02*
G75*
G03*
X121614000Y-38511000I-467581J1425134D01*
G01*
X121295858Y-39146378D02*
G75*
G03*
X121614000Y-38511000I-155858J475378D01*
G01*
X123186080Y-40091241D02*
G75*
G02*
X123502581Y-39456135I473920J160241D01*
G01*
X121295859Y-39146379D02*
G75*
G03*
X123186080Y-40091241I469141J-1424621D01*
G01*
%TO.C,SW5*%
X95947419Y-37456134D02*
G75*
G02*
X97836000Y-36511000I467581J1425134D01*
G01*
X96263920Y-38091241D02*
G75*
G03*
X95947419Y-37456135I-473920J160241D01*
G01*
X98154142Y-37146378D02*
G75*
G02*
X97836000Y-36511000I155858J475378D01*
G01*
X98154141Y-37146379D02*
G75*
G02*
X96263920Y-38091241I-469141J-1424621D01*
G01*
X104502581Y-37456134D02*
G75*
G03*
X102614000Y-36511000I-467581J1425134D01*
G01*
X102295858Y-37146378D02*
G75*
G03*
X102614000Y-36511000I-155858J475378D01*
G01*
X104186080Y-38091241D02*
G75*
G02*
X104502581Y-37456135I473920J160241D01*
G01*
X102295859Y-37146379D02*
G75*
G03*
X104186080Y-38091241I469141J-1424621D01*
G01*
%TO.C,SW4*%
X76947419Y-27456134D02*
G75*
G02*
X78836000Y-26511000I467581J1425134D01*
G01*
X77263920Y-28091241D02*
G75*
G03*
X76947419Y-27456135I-473920J160241D01*
G01*
X79154142Y-27146378D02*
G75*
G02*
X78836000Y-26511000I155858J475378D01*
G01*
X79154141Y-27146379D02*
G75*
G02*
X77263920Y-28091241I-469141J-1424621D01*
G01*
X85502581Y-27456134D02*
G75*
G03*
X83614000Y-26511000I-467581J1425134D01*
G01*
X83295858Y-27146378D02*
G75*
G03*
X83614000Y-26511000I-155858J475378D01*
G01*
X85186080Y-28091241D02*
G75*
G02*
X85502581Y-27456135I473920J160241D01*
G01*
X83295859Y-27146379D02*
G75*
G03*
X85186080Y-28091241I469141J-1424621D01*
G01*
%TO.C,SW3*%
X57947419Y-30456134D02*
G75*
G02*
X59836000Y-29511000I467581J1425134D01*
G01*
X58263920Y-31091241D02*
G75*
G03*
X57947419Y-30456135I-473920J160241D01*
G01*
X60154142Y-30146378D02*
G75*
G02*
X59836000Y-29511000I155858J475378D01*
G01*
X60154141Y-30146379D02*
G75*
G02*
X58263920Y-31091241I-469141J-1424621D01*
G01*
X66502581Y-30456134D02*
G75*
G03*
X64614000Y-29511000I-467581J1425134D01*
G01*
X64295858Y-30146378D02*
G75*
G03*
X64614000Y-29511000I-155858J475378D01*
G01*
X66186080Y-31091241D02*
G75*
G02*
X66502581Y-30456135I473920J160241D01*
G01*
X64295859Y-30146379D02*
G75*
G03*
X66186080Y-31091241I469141J-1424621D01*
G01*
%TO.C,SW2*%
X38947419Y-46006134D02*
G75*
G02*
X40836000Y-45061000I467581J1425134D01*
G01*
X39263920Y-46641241D02*
G75*
G03*
X38947419Y-46006135I-473920J160241D01*
G01*
X41154142Y-45696378D02*
G75*
G02*
X40836000Y-45061000I155858J475378D01*
G01*
X41154141Y-45696379D02*
G75*
G02*
X39263920Y-46641241I-469141J-1424621D01*
G01*
X47502581Y-46006134D02*
G75*
G03*
X45614000Y-45061000I-467581J1425134D01*
G01*
X45295858Y-45696378D02*
G75*
G03*
X45614000Y-45061000I-155858J475378D01*
G01*
X47186080Y-46641241D02*
G75*
G02*
X47502581Y-46006135I473920J160241D01*
G01*
X45295859Y-45696379D02*
G75*
G03*
X47186080Y-46641241I469141J-1424621D01*
G01*
%TO.C,SW1*%
X19947419Y-47306134D02*
G75*
G02*
X21836000Y-46361000I467581J1425134D01*
G01*
X20263920Y-47941241D02*
G75*
G03*
X19947419Y-47306135I-473920J160241D01*
G01*
X22154142Y-46996378D02*
G75*
G02*
X21836000Y-46361000I155858J475378D01*
G01*
X22154141Y-46996379D02*
G75*
G02*
X20263920Y-47941241I-469141J-1424621D01*
G01*
X28502581Y-47306134D02*
G75*
G03*
X26614000Y-46361000I-467581J1425134D01*
G01*
X26295858Y-46996378D02*
G75*
G03*
X26614000Y-46361000I-155858J475378D01*
G01*
X28186080Y-47941241D02*
G75*
G02*
X28502581Y-47306135I473920J160241D01*
G01*
X26295859Y-46996379D02*
G75*
G03*
X28186080Y-47941241I469141J-1424621D01*
G01*
%TO.C,L31*%
X156272010Y-115914645D02*
X153317586Y-115393701D01*
X153907990Y-112045355D02*
X156862414Y-112566299D01*
X156630843Y-113591665D02*
X156405100Y-114871915D01*
X153774900Y-113088085D02*
X153549157Y-114368335D01*
X153491235Y-114408893D02*
G75*
G03*
X153549157Y-114368335I8682J49240D01*
G01*
X153774901Y-113088085D02*
G75*
G03*
X153734342Y-113030162I-49241J8682D01*
G01*
X156405099Y-114871915D02*
G75*
G03*
X156445658Y-114929838I49241J-8682D01*
G01*
X156688765Y-113551107D02*
G75*
G03*
X156630843Y-113591665I-8682J-49240D01*
G01*
X153907990Y-112045354D02*
G75*
G03*
X153734342Y-113030162I-86824J-492404D01*
G01*
X153491236Y-114408893D02*
G75*
G03*
X153317586Y-115393701I-86825J-492404D01*
G01*
X156272010Y-115914646D02*
G75*
G03*
X156445658Y-114929838I86824J492404D01*
G01*
X156688764Y-113551107D02*
G75*
G03*
X156862414Y-112566299I86825J492404D01*
G01*
%TO.C,L30*%
X145684645Y-100517990D02*
X145163701Y-103472414D01*
X141815355Y-102882010D02*
X142336299Y-99927586D01*
X143361665Y-100159157D02*
X144641915Y-100384900D01*
X142858085Y-103015100D02*
X144138335Y-103240843D01*
X144178893Y-103298765D02*
G75*
G03*
X144138335Y-103240843I-49240J8682D01*
G01*
X142858085Y-103015099D02*
G75*
G03*
X142800162Y-103055658I-8682J-49241D01*
G01*
X144641915Y-100384901D02*
G75*
G03*
X144699838Y-100344342I8682J49241D01*
G01*
X143321107Y-100101235D02*
G75*
G03*
X143361665Y-100159157I49240J-8682D01*
G01*
X141815354Y-102882010D02*
G75*
G03*
X142800162Y-103055658I492404J-86824D01*
G01*
X144178893Y-103298764D02*
G75*
G03*
X145163701Y-103472414I492404J-86825D01*
G01*
X145684646Y-100517990D02*
G75*
G03*
X144699838Y-100344342I-492404J86824D01*
G01*
X143321107Y-100101236D02*
G75*
G03*
X142336299Y-99927586I-492404J86825D01*
G01*
%TO.C,L29*%
X126743149Y-97063793D02*
X126222205Y-100018217D01*
X122873859Y-99427813D02*
X123394803Y-96473389D01*
X124420169Y-96704960D02*
X125700419Y-96930703D01*
X123916589Y-99560903D02*
X125196839Y-99786646D01*
X125237397Y-99844568D02*
G75*
G03*
X125196839Y-99786646I-49240J8682D01*
G01*
X123916589Y-99560902D02*
G75*
G03*
X123858666Y-99601461I-8682J-49241D01*
G01*
X125700419Y-96930704D02*
G75*
G03*
X125758342Y-96890145I8682J49241D01*
G01*
X124379611Y-96647038D02*
G75*
G03*
X124420169Y-96704960I49240J-8682D01*
G01*
X122873858Y-99427813D02*
G75*
G03*
X123858666Y-99601461I492404J-86824D01*
G01*
X125237397Y-99844567D02*
G75*
G03*
X126222205Y-100018217I492404J-86825D01*
G01*
X126743150Y-97063793D02*
G75*
G03*
X125758342Y-96890145I-492404J86824D01*
G01*
X124379611Y-96647039D02*
G75*
G03*
X123394803Y-96473389I-492404J86825D01*
G01*
%TO.C,L28*%
X106537500Y-85500000D02*
X106537500Y-88500000D01*
X103137500Y-88500000D02*
X103137500Y-85500000D01*
X104187500Y-85550000D02*
X105487500Y-85550000D01*
X104187500Y-88450000D02*
X105487500Y-88450000D01*
X105537500Y-88500000D02*
G75*
G03*
X105487500Y-88450000I-50000J0D01*
G01*
X104187500Y-88450000D02*
G75*
G03*
X104137500Y-88500000I0J-50000D01*
G01*
X105487500Y-85550000D02*
G75*
G03*
X105537500Y-85500000I0J50000D01*
G01*
X104137500Y-85500000D02*
G75*
G03*
X104187500Y-85550000I50000J0D01*
G01*
X103137500Y-88500000D02*
G75*
G03*
X104137500Y-88500000I500000J0D01*
G01*
X105537500Y-88500000D02*
G75*
G03*
X106537500Y-88500000I500000J0D01*
G01*
X106537500Y-85500000D02*
G75*
G03*
X105537500Y-85500000I-500000J0D01*
G01*
X104137500Y-85500000D02*
G75*
G03*
X103137500Y-85500000I-500000J0D01*
G01*
%TO.C,L27*%
X87537500Y-83500000D02*
X87537500Y-86500000D01*
X84137500Y-86500000D02*
X84137500Y-83500000D01*
X85187500Y-83550000D02*
X86487500Y-83550000D01*
X85187500Y-86450000D02*
X86487500Y-86450000D01*
X86537500Y-86500000D02*
G75*
G03*
X86487500Y-86450000I-50000J0D01*
G01*
X85187500Y-86450000D02*
G75*
G03*
X85137500Y-86500000I0J-50000D01*
G01*
X86487500Y-83550000D02*
G75*
G03*
X86537500Y-83500000I0J50000D01*
G01*
X85137500Y-83500000D02*
G75*
G03*
X85187500Y-83550000I50000J0D01*
G01*
X84137500Y-86500000D02*
G75*
G03*
X85137500Y-86500000I500000J0D01*
G01*
X86537500Y-86500000D02*
G75*
G03*
X87537500Y-86500000I500000J0D01*
G01*
X87537500Y-83500000D02*
G75*
G03*
X86537500Y-83500000I-500000J0D01*
G01*
X85137500Y-83500000D02*
G75*
G03*
X84137500Y-83500000I-500000J0D01*
G01*
%TO.C,L26*%
X120925000Y-66491000D02*
X120925000Y-69491000D01*
X117525000Y-69491000D02*
X117525000Y-66491000D01*
X118575000Y-66541000D02*
X119875000Y-66541000D01*
X118575000Y-69441000D02*
X119875000Y-69441000D01*
X119925000Y-69491000D02*
G75*
G03*
X119875000Y-69441000I-50000J0D01*
G01*
X118575000Y-69441000D02*
G75*
G03*
X118525000Y-69491000I0J-50000D01*
G01*
X119875000Y-66541000D02*
G75*
G03*
X119925000Y-66491000I0J50000D01*
G01*
X118525000Y-66491000D02*
G75*
G03*
X118575000Y-66541000I50000J0D01*
G01*
X117525000Y-69491000D02*
G75*
G03*
X118525000Y-69491000I500000J0D01*
G01*
X119925000Y-69491000D02*
G75*
G03*
X120925000Y-69491000I500000J0D01*
G01*
X120925000Y-66491000D02*
G75*
G03*
X119925000Y-66491000I-500000J0D01*
G01*
X118525000Y-66491000D02*
G75*
G03*
X117525000Y-66491000I-500000J0D01*
G01*
%TO.C,L25*%
X101925000Y-64491000D02*
X101925000Y-67491000D01*
X98525000Y-67491000D02*
X98525000Y-64491000D01*
X99575000Y-64541000D02*
X100875000Y-64541000D01*
X99575000Y-67441000D02*
X100875000Y-67441000D01*
X100925000Y-67491000D02*
G75*
G03*
X100875000Y-67441000I-50000J0D01*
G01*
X99575000Y-67441000D02*
G75*
G03*
X99525000Y-67491000I0J-50000D01*
G01*
X100875000Y-64541000D02*
G75*
G03*
X100925000Y-64491000I0J50000D01*
G01*
X99525000Y-64491000D02*
G75*
G03*
X99575000Y-64541000I50000J0D01*
G01*
X98525000Y-67491000D02*
G75*
G03*
X99525000Y-67491000I500000J0D01*
G01*
X100925000Y-67491000D02*
G75*
G03*
X101925000Y-67491000I500000J0D01*
G01*
X101925000Y-64491000D02*
G75*
G03*
X100925000Y-64491000I-500000J0D01*
G01*
X99525000Y-64491000D02*
G75*
G03*
X98525000Y-64491000I-500000J0D01*
G01*
%TO.C,L24*%
X82925000Y-54491000D02*
X82925000Y-57491000D01*
X79525000Y-57491000D02*
X79525000Y-54491000D01*
X80575000Y-54541000D02*
X81875000Y-54541000D01*
X80575000Y-57441000D02*
X81875000Y-57441000D01*
X81925000Y-57491000D02*
G75*
G03*
X81875000Y-57441000I-50000J0D01*
G01*
X80575000Y-57441000D02*
G75*
G03*
X80525000Y-57491000I0J-50000D01*
G01*
X81875000Y-54541000D02*
G75*
G03*
X81925000Y-54491000I0J50000D01*
G01*
X80525000Y-54491000D02*
G75*
G03*
X80575000Y-54541000I50000J0D01*
G01*
X79525000Y-57491000D02*
G75*
G03*
X80525000Y-57491000I500000J0D01*
G01*
X81925000Y-57491000D02*
G75*
G03*
X82925000Y-57491000I500000J0D01*
G01*
X82925000Y-54491000D02*
G75*
G03*
X81925000Y-54491000I-500000J0D01*
G01*
X80525000Y-54491000D02*
G75*
G03*
X79525000Y-54491000I-500000J0D01*
G01*
%TO.C,L23*%
X63925000Y-57491000D02*
X63925000Y-60491000D01*
X60525000Y-60491000D02*
X60525000Y-57491000D01*
X61575000Y-57541000D02*
X62875000Y-57541000D01*
X61575000Y-60441000D02*
X62875000Y-60441000D01*
X62925000Y-60491000D02*
G75*
G03*
X62875000Y-60441000I-50000J0D01*
G01*
X61575000Y-60441000D02*
G75*
G03*
X61525000Y-60491000I0J-50000D01*
G01*
X62875000Y-57541000D02*
G75*
G03*
X62925000Y-57491000I0J50000D01*
G01*
X61525000Y-57491000D02*
G75*
G03*
X61575000Y-57541000I50000J0D01*
G01*
X60525000Y-60491000D02*
G75*
G03*
X61525000Y-60491000I500000J0D01*
G01*
X62925000Y-60491000D02*
G75*
G03*
X63925000Y-60491000I500000J0D01*
G01*
X63925000Y-57491000D02*
G75*
G03*
X62925000Y-57491000I-500000J0D01*
G01*
X61525000Y-57491000D02*
G75*
G03*
X60525000Y-57491000I-500000J0D01*
G01*
%TO.C,L22*%
X44925000Y-73041000D02*
X44925000Y-76041000D01*
X41525000Y-76041000D02*
X41525000Y-73041000D01*
X42575000Y-73091000D02*
X43875000Y-73091000D01*
X42575000Y-75991000D02*
X43875000Y-75991000D01*
X43925000Y-76041000D02*
G75*
G03*
X43875000Y-75991000I-50000J0D01*
G01*
X42575000Y-75991000D02*
G75*
G03*
X42525000Y-76041000I0J-50000D01*
G01*
X43875000Y-73091000D02*
G75*
G03*
X43925000Y-73041000I0J50000D01*
G01*
X42525000Y-73041000D02*
G75*
G03*
X42575000Y-73091000I50000J0D01*
G01*
X41525000Y-76041000D02*
G75*
G03*
X42525000Y-76041000I500000J0D01*
G01*
X43925000Y-76041000D02*
G75*
G03*
X44925000Y-76041000I500000J0D01*
G01*
X44925000Y-73041000D02*
G75*
G03*
X43925000Y-73041000I-500000J0D01*
G01*
X42525000Y-73041000D02*
G75*
G03*
X41525000Y-73041000I-500000J0D01*
G01*
%TO.C,L21*%
X25925000Y-74341000D02*
X25925000Y-77341000D01*
X22525000Y-77341000D02*
X22525000Y-74341000D01*
X23575000Y-74391000D02*
X24875000Y-74391000D01*
X23575000Y-77291000D02*
X24875000Y-77291000D01*
X24925000Y-77341000D02*
G75*
G03*
X24875000Y-77291000I-50000J0D01*
G01*
X23575000Y-77291000D02*
G75*
G03*
X23525000Y-77341000I0J-50000D01*
G01*
X24875000Y-74391000D02*
G75*
G03*
X24925000Y-74341000I0J50000D01*
G01*
X23525000Y-74341000D02*
G75*
G03*
X23575000Y-74391000I50000J0D01*
G01*
X22525000Y-77341000D02*
G75*
G03*
X23525000Y-77341000I500000J0D01*
G01*
X24925000Y-77341000D02*
G75*
G03*
X25925000Y-77341000I500000J0D01*
G01*
X25925000Y-74341000D02*
G75*
G03*
X24925000Y-74341000I-500000J0D01*
G01*
X23525000Y-74341000D02*
G75*
G03*
X22525000Y-74341000I-500000J0D01*
G01*
%TO.C,L20*%
X22525000Y-58341000D02*
X22525000Y-55341000D01*
X25925000Y-55341000D02*
X25925000Y-58341000D01*
X24875000Y-58291000D02*
X23575000Y-58291000D01*
X24875000Y-55391000D02*
X23575000Y-55391000D01*
X23525000Y-55341000D02*
G75*
G03*
X23575000Y-55391000I50000J0D01*
G01*
X24875000Y-55391000D02*
G75*
G03*
X24925000Y-55341000I0J50000D01*
G01*
X23575000Y-58291000D02*
G75*
G03*
X23525000Y-58341000I0J-50000D01*
G01*
X24925000Y-58341000D02*
G75*
G03*
X24875000Y-58291000I-50000J0D01*
G01*
X25925000Y-55341000D02*
G75*
G03*
X24925000Y-55341000I-500000J0D01*
G01*
X23525000Y-55341000D02*
G75*
G03*
X22525000Y-55341000I-500000J0D01*
G01*
X22525000Y-58341000D02*
G75*
G03*
X23525000Y-58341000I500000J0D01*
G01*
X24925000Y-58341000D02*
G75*
G03*
X25925000Y-58341000I500000J0D01*
G01*
%TO.C,L19*%
X41525000Y-57041000D02*
X41525000Y-54041000D01*
X44925000Y-54041000D02*
X44925000Y-57041000D01*
X43875000Y-56991000D02*
X42575000Y-56991000D01*
X43875000Y-54091000D02*
X42575000Y-54091000D01*
X42525000Y-54041000D02*
G75*
G03*
X42575000Y-54091000I50000J0D01*
G01*
X43875000Y-54091000D02*
G75*
G03*
X43925000Y-54041000I0J50000D01*
G01*
X42575000Y-56991000D02*
G75*
G03*
X42525000Y-57041000I0J-50000D01*
G01*
X43925000Y-57041000D02*
G75*
G03*
X43875000Y-56991000I-50000J0D01*
G01*
X44925000Y-54041000D02*
G75*
G03*
X43925000Y-54041000I-500000J0D01*
G01*
X42525000Y-54041000D02*
G75*
G03*
X41525000Y-54041000I-500000J0D01*
G01*
X41525000Y-57041000D02*
G75*
G03*
X42525000Y-57041000I500000J0D01*
G01*
X43925000Y-57041000D02*
G75*
G03*
X44925000Y-57041000I500000J0D01*
G01*
%TO.C,L18*%
X60525000Y-41491000D02*
X60525000Y-38491000D01*
X63925000Y-38491000D02*
X63925000Y-41491000D01*
X62875000Y-41441000D02*
X61575000Y-41441000D01*
X62875000Y-38541000D02*
X61575000Y-38541000D01*
X61525000Y-38491000D02*
G75*
G03*
X61575000Y-38541000I50000J0D01*
G01*
X62875000Y-38541000D02*
G75*
G03*
X62925000Y-38491000I0J50000D01*
G01*
X61575000Y-41441000D02*
G75*
G03*
X61525000Y-41491000I0J-50000D01*
G01*
X62925000Y-41491000D02*
G75*
G03*
X62875000Y-41441000I-50000J0D01*
G01*
X63925000Y-38491000D02*
G75*
G03*
X62925000Y-38491000I-500000J0D01*
G01*
X61525000Y-38491000D02*
G75*
G03*
X60525000Y-38491000I-500000J0D01*
G01*
X60525000Y-41491000D02*
G75*
G03*
X61525000Y-41491000I500000J0D01*
G01*
X62925000Y-41491000D02*
G75*
G03*
X63925000Y-41491000I500000J0D01*
G01*
%TO.C,L17*%
X79525000Y-38491000D02*
X79525000Y-35491000D01*
X82925000Y-35491000D02*
X82925000Y-38491000D01*
X81875000Y-38441000D02*
X80575000Y-38441000D01*
X81875000Y-35541000D02*
X80575000Y-35541000D01*
X80525000Y-35491000D02*
G75*
G03*
X80575000Y-35541000I50000J0D01*
G01*
X81875000Y-35541000D02*
G75*
G03*
X81925000Y-35491000I0J50000D01*
G01*
X80575000Y-38441000D02*
G75*
G03*
X80525000Y-38491000I0J-50000D01*
G01*
X81925000Y-38491000D02*
G75*
G03*
X81875000Y-38441000I-50000J0D01*
G01*
X82925000Y-35491000D02*
G75*
G03*
X81925000Y-35491000I-500000J0D01*
G01*
X80525000Y-35491000D02*
G75*
G03*
X79525000Y-35491000I-500000J0D01*
G01*
X79525000Y-38491000D02*
G75*
G03*
X80525000Y-38491000I500000J0D01*
G01*
X81925000Y-38491000D02*
G75*
G03*
X82925000Y-38491000I500000J0D01*
G01*
%TO.C,L16*%
X98525000Y-48491000D02*
X98525000Y-45491000D01*
X101925000Y-45491000D02*
X101925000Y-48491000D01*
X100875000Y-48441000D02*
X99575000Y-48441000D01*
X100875000Y-45541000D02*
X99575000Y-45541000D01*
X99525000Y-45491000D02*
G75*
G03*
X99575000Y-45541000I50000J0D01*
G01*
X100875000Y-45541000D02*
G75*
G03*
X100925000Y-45491000I0J50000D01*
G01*
X99575000Y-48441000D02*
G75*
G03*
X99525000Y-48491000I0J-50000D01*
G01*
X100925000Y-48491000D02*
G75*
G03*
X100875000Y-48441000I-50000J0D01*
G01*
X101925000Y-45491000D02*
G75*
G03*
X100925000Y-45491000I-500000J0D01*
G01*
X99525000Y-45491000D02*
G75*
G03*
X98525000Y-45491000I-500000J0D01*
G01*
X98525000Y-48491000D02*
G75*
G03*
X99525000Y-48491000I500000J0D01*
G01*
X100925000Y-48491000D02*
G75*
G03*
X101925000Y-48491000I500000J0D01*
G01*
%TO.C,L15*%
X117525000Y-50491000D02*
X117525000Y-47491000D01*
X120925000Y-47491000D02*
X120925000Y-50491000D01*
X119875000Y-50441000D02*
X118575000Y-50441000D01*
X119875000Y-47541000D02*
X118575000Y-47541000D01*
X118525000Y-47491000D02*
G75*
G03*
X118575000Y-47541000I50000J0D01*
G01*
X119875000Y-47541000D02*
G75*
G03*
X119925000Y-47491000I0J50000D01*
G01*
X118575000Y-50441000D02*
G75*
G03*
X118525000Y-50491000I0J-50000D01*
G01*
X119925000Y-50491000D02*
G75*
G03*
X119875000Y-50441000I-50000J0D01*
G01*
X120925000Y-47491000D02*
G75*
G03*
X119925000Y-47491000I-500000J0D01*
G01*
X118525000Y-47491000D02*
G75*
G03*
X117525000Y-47491000I-500000J0D01*
G01*
X117525000Y-50491000D02*
G75*
G03*
X118525000Y-50491000I500000J0D01*
G01*
X119925000Y-50491000D02*
G75*
G03*
X120925000Y-50491000I500000J0D01*
G01*
%TO.C,L14*%
X120925000Y-28491000D02*
X120925000Y-31491000D01*
X117525000Y-31491000D02*
X117525000Y-28491000D01*
X118575000Y-28541000D02*
X119875000Y-28541000D01*
X118575000Y-31441000D02*
X119875000Y-31441000D01*
X119925000Y-31491000D02*
G75*
G03*
X119875000Y-31441000I-50000J0D01*
G01*
X118575000Y-31441000D02*
G75*
G03*
X118525000Y-31491000I0J-50000D01*
G01*
X119875000Y-28541000D02*
G75*
G03*
X119925000Y-28491000I0J50000D01*
G01*
X118525000Y-28491000D02*
G75*
G03*
X118575000Y-28541000I50000J0D01*
G01*
X117525000Y-31491000D02*
G75*
G03*
X118525000Y-31491000I500000J0D01*
G01*
X119925000Y-31491000D02*
G75*
G03*
X120925000Y-31491000I500000J0D01*
G01*
X120925000Y-28491000D02*
G75*
G03*
X119925000Y-28491000I-500000J0D01*
G01*
X118525000Y-28491000D02*
G75*
G03*
X117525000Y-28491000I-500000J0D01*
G01*
%TO.C,L13*%
X101925000Y-26491000D02*
X101925000Y-29491000D01*
X98525000Y-29491000D02*
X98525000Y-26491000D01*
X99575000Y-26541000D02*
X100875000Y-26541000D01*
X99575000Y-29441000D02*
X100875000Y-29441000D01*
X100925000Y-29491000D02*
G75*
G03*
X100875000Y-29441000I-50000J0D01*
G01*
X99575000Y-29441000D02*
G75*
G03*
X99525000Y-29491000I0J-50000D01*
G01*
X100875000Y-26541000D02*
G75*
G03*
X100925000Y-26491000I0J50000D01*
G01*
X99525000Y-26491000D02*
G75*
G03*
X99575000Y-26541000I50000J0D01*
G01*
X98525000Y-29491000D02*
G75*
G03*
X99525000Y-29491000I500000J0D01*
G01*
X100925000Y-29491000D02*
G75*
G03*
X101925000Y-29491000I500000J0D01*
G01*
X101925000Y-26491000D02*
G75*
G03*
X100925000Y-26491000I-500000J0D01*
G01*
X99525000Y-26491000D02*
G75*
G03*
X98525000Y-26491000I-500000J0D01*
G01*
%TO.C,L12*%
X82925000Y-16491000D02*
X82925000Y-19491000D01*
X79525000Y-19491000D02*
X79525000Y-16491000D01*
X80575000Y-16541000D02*
X81875000Y-16541000D01*
X80575000Y-19441000D02*
X81875000Y-19441000D01*
X81925000Y-19491000D02*
G75*
G03*
X81875000Y-19441000I-50000J0D01*
G01*
X80575000Y-19441000D02*
G75*
G03*
X80525000Y-19491000I0J-50000D01*
G01*
X81875000Y-16541000D02*
G75*
G03*
X81925000Y-16491000I0J50000D01*
G01*
X80525000Y-16491000D02*
G75*
G03*
X80575000Y-16541000I50000J0D01*
G01*
X79525000Y-19491000D02*
G75*
G03*
X80525000Y-19491000I500000J0D01*
G01*
X81925000Y-19491000D02*
G75*
G03*
X82925000Y-19491000I500000J0D01*
G01*
X82925000Y-16491000D02*
G75*
G03*
X81925000Y-16491000I-500000J0D01*
G01*
X80525000Y-16491000D02*
G75*
G03*
X79525000Y-16491000I-500000J0D01*
G01*
%TO.C,L11*%
X63925000Y-19491000D02*
X63925000Y-22491000D01*
X60525000Y-22491000D02*
X60525000Y-19491000D01*
X61575000Y-19541000D02*
X62875000Y-19541000D01*
X61575000Y-22441000D02*
X62875000Y-22441000D01*
X62925000Y-22491000D02*
G75*
G03*
X62875000Y-22441000I-50000J0D01*
G01*
X61575000Y-22441000D02*
G75*
G03*
X61525000Y-22491000I0J-50000D01*
G01*
X62875000Y-19541000D02*
G75*
G03*
X62925000Y-19491000I0J50000D01*
G01*
X61525000Y-19491000D02*
G75*
G03*
X61575000Y-19541000I50000J0D01*
G01*
X60525000Y-22491000D02*
G75*
G03*
X61525000Y-22491000I500000J0D01*
G01*
X62925000Y-22491000D02*
G75*
G03*
X63925000Y-22491000I500000J0D01*
G01*
X63925000Y-19491000D02*
G75*
G03*
X62925000Y-19491000I-500000J0D01*
G01*
X61525000Y-19491000D02*
G75*
G03*
X60525000Y-19491000I-500000J0D01*
G01*
%TO.C,L10*%
X44925000Y-35041000D02*
X44925000Y-38041000D01*
X41525000Y-38041000D02*
X41525000Y-35041000D01*
X42575000Y-35091000D02*
X43875000Y-35091000D01*
X42575000Y-37991000D02*
X43875000Y-37991000D01*
X43925000Y-38041000D02*
G75*
G03*
X43875000Y-37991000I-50000J0D01*
G01*
X42575000Y-37991000D02*
G75*
G03*
X42525000Y-38041000I0J-50000D01*
G01*
X43875000Y-35091000D02*
G75*
G03*
X43925000Y-35041000I0J50000D01*
G01*
X42525000Y-35041000D02*
G75*
G03*
X42575000Y-35091000I50000J0D01*
G01*
X41525000Y-38041000D02*
G75*
G03*
X42525000Y-38041000I500000J0D01*
G01*
X43925000Y-38041000D02*
G75*
G03*
X44925000Y-38041000I500000J0D01*
G01*
X44925000Y-35041000D02*
G75*
G03*
X43925000Y-35041000I-500000J0D01*
G01*
X42525000Y-35041000D02*
G75*
G03*
X41525000Y-35041000I-500000J0D01*
G01*
%TO.C,L9*%
X25925000Y-36341000D02*
X25925000Y-39341000D01*
X22525000Y-39341000D02*
X22525000Y-36341000D01*
X23575000Y-36391000D02*
X24875000Y-36391000D01*
X23575000Y-39291000D02*
X24875000Y-39291000D01*
X24925000Y-39341000D02*
G75*
G03*
X24875000Y-39291000I-50000J0D01*
G01*
X23575000Y-39291000D02*
G75*
G03*
X23525000Y-39341000I0J-50000D01*
G01*
X24875000Y-36391000D02*
G75*
G03*
X24925000Y-36341000I0J50000D01*
G01*
X23525000Y-36341000D02*
G75*
G03*
X23575000Y-36391000I50000J0D01*
G01*
X22525000Y-39341000D02*
G75*
G03*
X23525000Y-39341000I500000J0D01*
G01*
X24925000Y-39341000D02*
G75*
G03*
X25925000Y-39341000I500000J0D01*
G01*
X25925000Y-36341000D02*
G75*
G03*
X24925000Y-36341000I-500000J0D01*
G01*
X23525000Y-36341000D02*
G75*
G03*
X22525000Y-36341000I-500000J0D01*
G01*
%TD*%
M02*
