%TF.GenerationSoftware,KiCad,Pcbnew,5.1.9*%
%TF.CreationDate,2021-05-15T18:24:56-05:00*%
%TF.ProjectId,nightwing,6e696768-7477-4696-9e67-2e6b69636164,rev?*%
%TF.SameCoordinates,Original*%
%TF.FileFunction,Legend,Top*%
%TF.FilePolarity,Positive*%
%FSLAX46Y46*%
G04 Gerber Fmt 4.6, Leading zero omitted, Abs format (unit mm)*
G04 Created by KiCad (PCBNEW 5.1.9) date 2021-05-15 18:24:56*
%MOMM*%
%LPD*%
G01*
G04 APERTURE LIST*
%ADD10C,0.150000*%
%ADD11C,0.120000*%
%ADD12C,0.160000*%
%ADD13C,0.152400*%
G04 APERTURE END LIST*
D10*
X171747619Y-79806666D02*
X172223809Y-79806666D01*
X171652380Y-80092380D02*
X171985714Y-79092380D01*
X172319047Y-80092380D01*
X172795238Y-80092380D02*
X172700000Y-80044761D01*
X172652380Y-79949523D01*
X172652380Y-79092380D01*
X173557142Y-80044761D02*
X173461904Y-80092380D01*
X173271428Y-80092380D01*
X173176190Y-80044761D01*
X173128571Y-79949523D01*
X173128571Y-79568571D01*
X173176190Y-79473333D01*
X173271428Y-79425714D01*
X173461904Y-79425714D01*
X173557142Y-79473333D01*
X173604761Y-79568571D01*
X173604761Y-79663809D01*
X173128571Y-79759047D01*
X173938095Y-80092380D02*
X174461904Y-79425714D01*
X173938095Y-79425714D02*
X174461904Y-80092380D01*
X175271428Y-80092380D02*
X175271428Y-79568571D01*
X175223809Y-79473333D01*
X175128571Y-79425714D01*
X174938095Y-79425714D01*
X174842857Y-79473333D01*
X175271428Y-80044761D02*
X175176190Y-80092380D01*
X174938095Y-80092380D01*
X174842857Y-80044761D01*
X174795238Y-79949523D01*
X174795238Y-79854285D01*
X174842857Y-79759047D01*
X174938095Y-79711428D01*
X175176190Y-79711428D01*
X175271428Y-79663809D01*
X175747619Y-79425714D02*
X175747619Y-80092380D01*
X175747619Y-79520952D02*
X175795238Y-79473333D01*
X175890476Y-79425714D01*
X176033333Y-79425714D01*
X176128571Y-79473333D01*
X176176190Y-79568571D01*
X176176190Y-80092380D01*
X177080952Y-80092380D02*
X177080952Y-79092380D01*
X177080952Y-80044761D02*
X176985714Y-80092380D01*
X176795238Y-80092380D01*
X176700000Y-80044761D01*
X176652380Y-79997142D01*
X176604761Y-79901904D01*
X176604761Y-79616190D01*
X176652380Y-79520952D01*
X176700000Y-79473333D01*
X176795238Y-79425714D01*
X176985714Y-79425714D01*
X177080952Y-79473333D01*
X177938095Y-80044761D02*
X177842857Y-80092380D01*
X177652380Y-80092380D01*
X177557142Y-80044761D01*
X177509523Y-79949523D01*
X177509523Y-79568571D01*
X177557142Y-79473333D01*
X177652380Y-79425714D01*
X177842857Y-79425714D01*
X177938095Y-79473333D01*
X177985714Y-79568571D01*
X177985714Y-79663809D01*
X177509523Y-79759047D01*
X178414285Y-80092380D02*
X178414285Y-79425714D01*
X178414285Y-79616190D02*
X178461904Y-79520952D01*
X178509523Y-79473333D01*
X178604761Y-79425714D01*
X178700000Y-79425714D01*
X179795238Y-80092380D02*
X179795238Y-79092380D01*
X180033333Y-79092380D01*
X180176190Y-79140000D01*
X180271428Y-79235238D01*
X180319047Y-79330476D01*
X180366666Y-79520952D01*
X180366666Y-79663809D01*
X180319047Y-79854285D01*
X180271428Y-79949523D01*
X180176190Y-80044761D01*
X180033333Y-80092380D01*
X179795238Y-80092380D01*
X180795238Y-80092380D02*
X180795238Y-79425714D01*
X180795238Y-79092380D02*
X180747619Y-79140000D01*
X180795238Y-79187619D01*
X180842857Y-79140000D01*
X180795238Y-79092380D01*
X180795238Y-79187619D01*
X181271428Y-79425714D02*
X181271428Y-80092380D01*
X181271428Y-79520952D02*
X181319047Y-79473333D01*
X181414285Y-79425714D01*
X181557142Y-79425714D01*
X181652380Y-79473333D01*
X181700000Y-79568571D01*
X181700000Y-80092380D01*
X182604761Y-79425714D02*
X182604761Y-80235238D01*
X182557142Y-80330476D01*
X182509523Y-80378095D01*
X182414285Y-80425714D01*
X182271428Y-80425714D01*
X182176190Y-80378095D01*
X182604761Y-80044761D02*
X182509523Y-80092380D01*
X182319047Y-80092380D01*
X182223809Y-80044761D01*
X182176190Y-79997142D01*
X182128571Y-79901904D01*
X182128571Y-79616190D01*
X182176190Y-79520952D01*
X182223809Y-79473333D01*
X182319047Y-79425714D01*
X182509523Y-79425714D01*
X182604761Y-79473333D01*
D11*
%TO.C,RESET_SW1*%
X137240000Y-52980000D02*
X137240000Y-53010000D01*
X137240000Y-59440000D02*
X137240000Y-59410000D01*
X130780000Y-59440000D02*
X130780000Y-59410000D01*
X130780000Y-53010000D02*
X130780000Y-52980000D01*
X137240000Y-54910000D02*
X137240000Y-57510000D01*
X130780000Y-52980000D02*
X137240000Y-52980000D01*
X130780000Y-54910000D02*
X130780000Y-57510000D01*
X130780000Y-59440000D02*
X137240000Y-59440000D01*
D12*
%TO.C,J3*%
X137114616Y-25210828D02*
X146839049Y-23844148D01*
X146839049Y-23844148D02*
X147145229Y-26022738D01*
X147145229Y-26022738D02*
X137420797Y-27389418D01*
X137420797Y-27389418D02*
X137114616Y-25210828D01*
X139461551Y-24880988D02*
X139767732Y-27059578D01*
D10*
%TO.C,U3*%
X137018031Y-68216586D02*
X136116470Y-69118148D01*
X143930000Y-60491445D02*
X143452703Y-60968742D01*
X151248555Y-67810000D02*
X150771258Y-68287297D01*
X143930000Y-75128555D02*
X144407297Y-74651258D01*
X136611445Y-67810000D02*
X137088742Y-67332703D01*
X143930000Y-75128555D02*
X143452703Y-74651258D01*
X151248555Y-67810000D02*
X150771258Y-67332703D01*
X143930000Y-60491445D02*
X144407297Y-60968742D01*
X136611445Y-67810000D02*
X137018031Y-68216586D01*
D11*
%TO.C,J1*%
X39825914Y-7095350D02*
X39561485Y-5213841D01*
X40368689Y-10957396D02*
X40090343Y-8976860D01*
X30517394Y-8403577D02*
X30252965Y-6522068D01*
X31060169Y-12265623D02*
X30781823Y-10285087D01*
X39561485Y-5213841D02*
X30252965Y-6522068D01*
%TO.C,SW19*%
X64790000Y-94970000D02*
G75*
G03*
X64790000Y-94970000I-3000000J0D01*
G01*
X63790000Y-89070000D02*
X67890000Y-89070000D01*
X67890000Y-100870000D02*
X63790000Y-100870000D01*
X59790000Y-100870000D02*
X55690000Y-100870000D01*
X59790000Y-89070000D02*
X55690000Y-89070000D01*
X55690000Y-89070000D02*
X55690000Y-100870000D01*
X54290000Y-91170000D02*
X53990000Y-90870000D01*
X53990000Y-90870000D02*
X54590000Y-90870000D01*
X54590000Y-90870000D02*
X54290000Y-91170000D01*
X67890000Y-89070000D02*
X67890000Y-91470000D01*
X67890000Y-93670000D02*
X67890000Y-96270000D01*
X67890000Y-98470000D02*
X67890000Y-100870000D01*
X61790000Y-94470000D02*
X61790000Y-95470000D01*
X61290000Y-94970000D02*
X62290000Y-94970000D01*
%TO.C,L39*%
X128348592Y-18718521D02*
X135648592Y-18718521D01*
X135648592Y-24218521D02*
X135648592Y-23068521D01*
X128348592Y-24218521D02*
X135648592Y-24218521D01*
%TO.C,L38*%
X146780000Y-37310000D02*
X154080000Y-37310000D01*
X154080000Y-42810000D02*
X154080000Y-41660000D01*
X146780000Y-42810000D02*
X154080000Y-42810000D01*
%TO.C,L37*%
X154410000Y-88350000D02*
X147110000Y-88350000D01*
X147110000Y-82850000D02*
X147110000Y-84000000D01*
X154410000Y-82850000D02*
X147110000Y-82850000D01*
%TO.C,L36*%
X117537947Y-111781735D02*
X124727044Y-113049367D01*
X123771979Y-118465809D02*
X123971674Y-117333280D01*
X116582882Y-117198177D02*
X123771979Y-118465809D01*
%TO.C,L35*%
X59724324Y-93717721D02*
X67024324Y-93717721D01*
X67024324Y-99217721D02*
X67024324Y-98067721D01*
X59724324Y-99217721D02*
X67024324Y-99217721D01*
%TO.C,L34*%
X19318505Y-68780487D02*
X26618505Y-68780487D01*
X26618505Y-74280487D02*
X26618505Y-73130487D01*
X19318505Y-74280487D02*
X26618505Y-74280487D01*
%TO.C,L33*%
X16224788Y-28187170D02*
X23524788Y-28187170D01*
X23524788Y-33687170D02*
X23524788Y-32537170D01*
X16224788Y-33687170D02*
X23524788Y-33687170D01*
%TO.C,L32*%
X24535000Y-27108641D02*
X24535000Y-25958641D01*
X17235000Y-27108641D02*
X24535000Y-27108641D01*
X17235000Y-21608641D02*
X24535000Y-21608641D01*
%TO.C,L31*%
X37205000Y-23108641D02*
X37205000Y-21958641D01*
X29905000Y-23108641D02*
X37205000Y-23108641D01*
X29905000Y-17608641D02*
X37205000Y-17608641D01*
%TO.C,L30*%
X49875000Y-19608641D02*
X49875000Y-18458641D01*
X42575000Y-19608641D02*
X49875000Y-19608641D01*
X42575000Y-14108641D02*
X49875000Y-14108641D01*
%TO.C,L29*%
X62535000Y-14508641D02*
X62535000Y-13358641D01*
X55235000Y-14508641D02*
X62535000Y-14508641D01*
X55235000Y-9008641D02*
X62535000Y-9008641D01*
%TO.C,L28*%
X75205000Y-12780000D02*
X75205000Y-11630000D01*
X67905000Y-12780000D02*
X75205000Y-12780000D01*
X67905000Y-7280000D02*
X75205000Y-7280000D01*
%TO.C,L27*%
X87875000Y-13120000D02*
X87875000Y-11970000D01*
X80575000Y-13120000D02*
X87875000Y-13120000D01*
X80575000Y-7620000D02*
X87875000Y-7620000D01*
%TO.C,L26*%
X100535000Y-16750000D02*
X100535000Y-15600000D01*
X93235000Y-16750000D02*
X100535000Y-16750000D01*
X93235000Y-11250000D02*
X100535000Y-11250000D01*
%TO.C,L25*%
X113205000Y-18750000D02*
X113205000Y-17600000D01*
X105905000Y-18750000D02*
X113205000Y-18750000D01*
X105905000Y-13250000D02*
X113205000Y-13250000D01*
%TO.C,L24*%
X125875000Y-20250000D02*
X125875000Y-19100000D01*
X118575000Y-20250000D02*
X125875000Y-20250000D01*
X118575000Y-14750000D02*
X125875000Y-14750000D01*
%TO.C,R5*%
X134227064Y-70882113D02*
X133772936Y-70882113D01*
X134227064Y-72352113D02*
X133772936Y-72352113D01*
%TO.C,R7*%
X134227064Y-72908781D02*
X133772936Y-72908781D01*
X134227064Y-74378781D02*
X133772936Y-74378781D01*
%TO.C,R3*%
X43484544Y-23414562D02*
X43484544Y-22960434D01*
X42014544Y-23414562D02*
X42014544Y-22960434D01*
%TO.C,R4*%
X39670819Y-23414562D02*
X39670819Y-22960434D01*
X41140819Y-23414562D02*
X41140819Y-22960434D01*
D12*
%TO.C,D1*%
X17725000Y-38595000D02*
X17725000Y-39458600D01*
X18131400Y-37960000D02*
X17318600Y-37960000D01*
X17344000Y-38595000D02*
X17725000Y-37960000D01*
X18106000Y-38595000D02*
X17344000Y-38595000D01*
X17725000Y-37960000D02*
X18106000Y-38595000D01*
X17725000Y-37299600D02*
X17725000Y-37960000D01*
G36*
X17344000Y-38595000D02*
G01*
X17725000Y-37960000D01*
X18106000Y-38595000D01*
X17344000Y-38595000D01*
G37*
X17344000Y-38595000D02*
X17725000Y-37960000D01*
X18106000Y-38595000D01*
X17344000Y-38595000D01*
X18525000Y-35241000D02*
X18525000Y-37274200D01*
X18525000Y-37274200D02*
X16925000Y-37274200D01*
X16925000Y-37274200D02*
X16925000Y-35241000D01*
X16925000Y-35241000D02*
X18525000Y-35241000D01*
%TO.C,D2*%
X35025000Y-38795000D02*
X35025000Y-39658600D01*
X35431400Y-38160000D02*
X34618600Y-38160000D01*
X34644000Y-38795000D02*
X35025000Y-38160000D01*
X35406000Y-38795000D02*
X34644000Y-38795000D01*
X35025000Y-38160000D02*
X35406000Y-38795000D01*
X35025000Y-37499600D02*
X35025000Y-38160000D01*
G36*
X34644000Y-38795000D02*
G01*
X35025000Y-38160000D01*
X35406000Y-38795000D01*
X34644000Y-38795000D01*
G37*
X34644000Y-38795000D02*
X35025000Y-38160000D01*
X35406000Y-38795000D01*
X34644000Y-38795000D01*
X35825000Y-35441000D02*
X35825000Y-37474200D01*
X35825000Y-37474200D02*
X34225000Y-37474200D01*
X34225000Y-37474200D02*
X34225000Y-35441000D01*
X34225000Y-35441000D02*
X35825000Y-35441000D01*
%TO.C,D3*%
X54025000Y-23245000D02*
X54025000Y-24108600D01*
X54431400Y-22610000D02*
X53618600Y-22610000D01*
X53644000Y-23245000D02*
X54025000Y-22610000D01*
X54406000Y-23245000D02*
X53644000Y-23245000D01*
X54025000Y-22610000D02*
X54406000Y-23245000D01*
X54025000Y-21949600D02*
X54025000Y-22610000D01*
G36*
X53644000Y-23245000D02*
G01*
X54025000Y-22610000D01*
X54406000Y-23245000D01*
X53644000Y-23245000D01*
G37*
X53644000Y-23245000D02*
X54025000Y-22610000D01*
X54406000Y-23245000D01*
X53644000Y-23245000D01*
X54825000Y-19891000D02*
X54825000Y-21924200D01*
X54825000Y-21924200D02*
X53225000Y-21924200D01*
X53225000Y-21924200D02*
X53225000Y-19891000D01*
X53225000Y-19891000D02*
X54825000Y-19891000D01*
%TO.C,D4*%
X73025000Y-20245000D02*
X73025000Y-21108600D01*
X73431400Y-19610000D02*
X72618600Y-19610000D01*
X72644000Y-20245000D02*
X73025000Y-19610000D01*
X73406000Y-20245000D02*
X72644000Y-20245000D01*
X73025000Y-19610000D02*
X73406000Y-20245000D01*
X73025000Y-18949600D02*
X73025000Y-19610000D01*
G36*
X72644000Y-20245000D02*
G01*
X73025000Y-19610000D01*
X73406000Y-20245000D01*
X72644000Y-20245000D01*
G37*
X72644000Y-20245000D02*
X73025000Y-19610000D01*
X73406000Y-20245000D01*
X72644000Y-20245000D01*
X73825000Y-16891000D02*
X73825000Y-18924200D01*
X73825000Y-18924200D02*
X72225000Y-18924200D01*
X72225000Y-18924200D02*
X72225000Y-16891000D01*
X72225000Y-16891000D02*
X73825000Y-16891000D01*
%TO.C,D5*%
X92025000Y-30245000D02*
X92025000Y-31108600D01*
X92431400Y-29610000D02*
X91618600Y-29610000D01*
X91644000Y-30245000D02*
X92025000Y-29610000D01*
X92406000Y-30245000D02*
X91644000Y-30245000D01*
X92025000Y-29610000D02*
X92406000Y-30245000D01*
X92025000Y-28949600D02*
X92025000Y-29610000D01*
G36*
X91644000Y-30245000D02*
G01*
X92025000Y-29610000D01*
X92406000Y-30245000D01*
X91644000Y-30245000D01*
G37*
X91644000Y-30245000D02*
X92025000Y-29610000D01*
X92406000Y-30245000D01*
X91644000Y-30245000D01*
X92825000Y-26891000D02*
X92825000Y-28924200D01*
X92825000Y-28924200D02*
X91225000Y-28924200D01*
X91225000Y-28924200D02*
X91225000Y-26891000D01*
X91225000Y-26891000D02*
X92825000Y-26891000D01*
%TO.C,D6*%
X111025000Y-32245000D02*
X111025000Y-33108600D01*
X111431400Y-31610000D02*
X110618600Y-31610000D01*
X110644000Y-32245000D02*
X111025000Y-31610000D01*
X111406000Y-32245000D02*
X110644000Y-32245000D01*
X111025000Y-31610000D02*
X111406000Y-32245000D01*
X111025000Y-30949600D02*
X111025000Y-31610000D01*
G36*
X110644000Y-32245000D02*
G01*
X111025000Y-31610000D01*
X111406000Y-32245000D01*
X110644000Y-32245000D01*
G37*
X110644000Y-32245000D02*
X111025000Y-31610000D01*
X111406000Y-32245000D01*
X110644000Y-32245000D01*
X111825000Y-28891000D02*
X111825000Y-30924200D01*
X111825000Y-30924200D02*
X110225000Y-30924200D01*
X110225000Y-30924200D02*
X110225000Y-28891000D01*
X110225000Y-28891000D02*
X111825000Y-28891000D01*
%TO.C,D7*%
X17725000Y-57595000D02*
X17725000Y-58458600D01*
X18131400Y-56960000D02*
X17318600Y-56960000D01*
X17344000Y-57595000D02*
X17725000Y-56960000D01*
X18106000Y-57595000D02*
X17344000Y-57595000D01*
X17725000Y-56960000D02*
X18106000Y-57595000D01*
X17725000Y-56299600D02*
X17725000Y-56960000D01*
G36*
X17344000Y-57595000D02*
G01*
X17725000Y-56960000D01*
X18106000Y-57595000D01*
X17344000Y-57595000D01*
G37*
X17344000Y-57595000D02*
X17725000Y-56960000D01*
X18106000Y-57595000D01*
X17344000Y-57595000D01*
X18525000Y-54241000D02*
X18525000Y-56274200D01*
X18525000Y-56274200D02*
X16925000Y-56274200D01*
X16925000Y-56274200D02*
X16925000Y-54241000D01*
X16925000Y-54241000D02*
X18525000Y-54241000D01*
%TO.C,D8*%
X35025000Y-57795000D02*
X35025000Y-58658600D01*
X35431400Y-57160000D02*
X34618600Y-57160000D01*
X34644000Y-57795000D02*
X35025000Y-57160000D01*
X35406000Y-57795000D02*
X34644000Y-57795000D01*
X35025000Y-57160000D02*
X35406000Y-57795000D01*
X35025000Y-56499600D02*
X35025000Y-57160000D01*
G36*
X34644000Y-57795000D02*
G01*
X35025000Y-57160000D01*
X35406000Y-57795000D01*
X34644000Y-57795000D01*
G37*
X34644000Y-57795000D02*
X35025000Y-57160000D01*
X35406000Y-57795000D01*
X34644000Y-57795000D01*
X35825000Y-54441000D02*
X35825000Y-56474200D01*
X35825000Y-56474200D02*
X34225000Y-56474200D01*
X34225000Y-56474200D02*
X34225000Y-54441000D01*
X34225000Y-54441000D02*
X35825000Y-54441000D01*
%TO.C,D9*%
X54025000Y-42245000D02*
X54025000Y-43108600D01*
X54431400Y-41610000D02*
X53618600Y-41610000D01*
X53644000Y-42245000D02*
X54025000Y-41610000D01*
X54406000Y-42245000D02*
X53644000Y-42245000D01*
X54025000Y-41610000D02*
X54406000Y-42245000D01*
X54025000Y-40949600D02*
X54025000Y-41610000D01*
G36*
X53644000Y-42245000D02*
G01*
X54025000Y-41610000D01*
X54406000Y-42245000D01*
X53644000Y-42245000D01*
G37*
X53644000Y-42245000D02*
X54025000Y-41610000D01*
X54406000Y-42245000D01*
X53644000Y-42245000D01*
X54825000Y-38891000D02*
X54825000Y-40924200D01*
X54825000Y-40924200D02*
X53225000Y-40924200D01*
X53225000Y-40924200D02*
X53225000Y-38891000D01*
X53225000Y-38891000D02*
X54825000Y-38891000D01*
%TO.C,D10*%
X73025000Y-39245000D02*
X73025000Y-40108600D01*
X73431400Y-38610000D02*
X72618600Y-38610000D01*
X72644000Y-39245000D02*
X73025000Y-38610000D01*
X73406000Y-39245000D02*
X72644000Y-39245000D01*
X73025000Y-38610000D02*
X73406000Y-39245000D01*
X73025000Y-37949600D02*
X73025000Y-38610000D01*
G36*
X72644000Y-39245000D02*
G01*
X73025000Y-38610000D01*
X73406000Y-39245000D01*
X72644000Y-39245000D01*
G37*
X72644000Y-39245000D02*
X73025000Y-38610000D01*
X73406000Y-39245000D01*
X72644000Y-39245000D01*
X73825000Y-35891000D02*
X73825000Y-37924200D01*
X73825000Y-37924200D02*
X72225000Y-37924200D01*
X72225000Y-37924200D02*
X72225000Y-35891000D01*
X72225000Y-35891000D02*
X73825000Y-35891000D01*
%TO.C,D11*%
X92025000Y-49245000D02*
X92025000Y-50108600D01*
X92431400Y-48610000D02*
X91618600Y-48610000D01*
X91644000Y-49245000D02*
X92025000Y-48610000D01*
X92406000Y-49245000D02*
X91644000Y-49245000D01*
X92025000Y-48610000D02*
X92406000Y-49245000D01*
X92025000Y-47949600D02*
X92025000Y-48610000D01*
G36*
X91644000Y-49245000D02*
G01*
X92025000Y-48610000D01*
X92406000Y-49245000D01*
X91644000Y-49245000D01*
G37*
X91644000Y-49245000D02*
X92025000Y-48610000D01*
X92406000Y-49245000D01*
X91644000Y-49245000D01*
X92825000Y-45891000D02*
X92825000Y-47924200D01*
X92825000Y-47924200D02*
X91225000Y-47924200D01*
X91225000Y-47924200D02*
X91225000Y-45891000D01*
X91225000Y-45891000D02*
X92825000Y-45891000D01*
%TO.C,D12*%
X111025000Y-51245000D02*
X111025000Y-52108600D01*
X111431400Y-50610000D02*
X110618600Y-50610000D01*
X110644000Y-51245000D02*
X111025000Y-50610000D01*
X111406000Y-51245000D02*
X110644000Y-51245000D01*
X111025000Y-50610000D02*
X111406000Y-51245000D01*
X111025000Y-49949600D02*
X111025000Y-50610000D01*
G36*
X110644000Y-51245000D02*
G01*
X111025000Y-50610000D01*
X111406000Y-51245000D01*
X110644000Y-51245000D01*
G37*
X110644000Y-51245000D02*
X111025000Y-50610000D01*
X111406000Y-51245000D01*
X110644000Y-51245000D01*
X111825000Y-47891000D02*
X111825000Y-49924200D01*
X111825000Y-49924200D02*
X110225000Y-49924200D01*
X110225000Y-49924200D02*
X110225000Y-47891000D01*
X110225000Y-47891000D02*
X111825000Y-47891000D01*
%TO.C,D13*%
X17531063Y-75534447D02*
X17531063Y-76398047D01*
X17937463Y-74899447D02*
X17124663Y-74899447D01*
X17150063Y-75534447D02*
X17531063Y-74899447D01*
X17912063Y-75534447D02*
X17150063Y-75534447D01*
X17531063Y-74899447D02*
X17912063Y-75534447D01*
X17531063Y-74239047D02*
X17531063Y-74899447D01*
G36*
X17150063Y-75534447D02*
G01*
X17531063Y-74899447D01*
X17912063Y-75534447D01*
X17150063Y-75534447D01*
G37*
X17150063Y-75534447D02*
X17531063Y-74899447D01*
X17912063Y-75534447D01*
X17150063Y-75534447D01*
X18331063Y-72180447D02*
X18331063Y-74213647D01*
X18331063Y-74213647D02*
X16731063Y-74213647D01*
X16731063Y-74213647D02*
X16731063Y-72180447D01*
X16731063Y-72180447D02*
X18331063Y-72180447D01*
%TO.C,D14*%
X35025000Y-76795000D02*
X35025000Y-77658600D01*
X35431400Y-76160000D02*
X34618600Y-76160000D01*
X34644000Y-76795000D02*
X35025000Y-76160000D01*
X35406000Y-76795000D02*
X34644000Y-76795000D01*
X35025000Y-76160000D02*
X35406000Y-76795000D01*
X35025000Y-75499600D02*
X35025000Y-76160000D01*
G36*
X34644000Y-76795000D02*
G01*
X35025000Y-76160000D01*
X35406000Y-76795000D01*
X34644000Y-76795000D01*
G37*
X34644000Y-76795000D02*
X35025000Y-76160000D01*
X35406000Y-76795000D01*
X34644000Y-76795000D01*
X35825000Y-73441000D02*
X35825000Y-75474200D01*
X35825000Y-75474200D02*
X34225000Y-75474200D01*
X34225000Y-75474200D02*
X34225000Y-73441000D01*
X34225000Y-73441000D02*
X35825000Y-73441000D01*
%TO.C,D15*%
X54025000Y-61245000D02*
X54025000Y-62108600D01*
X54431400Y-60610000D02*
X53618600Y-60610000D01*
X53644000Y-61245000D02*
X54025000Y-60610000D01*
X54406000Y-61245000D02*
X53644000Y-61245000D01*
X54025000Y-60610000D02*
X54406000Y-61245000D01*
X54025000Y-59949600D02*
X54025000Y-60610000D01*
G36*
X53644000Y-61245000D02*
G01*
X54025000Y-60610000D01*
X54406000Y-61245000D01*
X53644000Y-61245000D01*
G37*
X53644000Y-61245000D02*
X54025000Y-60610000D01*
X54406000Y-61245000D01*
X53644000Y-61245000D01*
X54825000Y-57891000D02*
X54825000Y-59924200D01*
X54825000Y-59924200D02*
X53225000Y-59924200D01*
X53225000Y-59924200D02*
X53225000Y-57891000D01*
X53225000Y-57891000D02*
X54825000Y-57891000D01*
%TO.C,D16*%
X71530487Y-58764854D02*
X71530487Y-59628454D01*
X71936887Y-58129854D02*
X71124087Y-58129854D01*
X71149487Y-58764854D02*
X71530487Y-58129854D01*
X71911487Y-58764854D02*
X71149487Y-58764854D01*
X71530487Y-58129854D02*
X71911487Y-58764854D01*
X71530487Y-57469454D02*
X71530487Y-58129854D01*
G36*
X71149487Y-58764854D02*
G01*
X71530487Y-58129854D01*
X71911487Y-58764854D01*
X71149487Y-58764854D01*
G37*
X71149487Y-58764854D02*
X71530487Y-58129854D01*
X71911487Y-58764854D01*
X71149487Y-58764854D01*
X72330487Y-55410854D02*
X72330487Y-57444054D01*
X72330487Y-57444054D02*
X70730487Y-57444054D01*
X70730487Y-57444054D02*
X70730487Y-55410854D01*
X70730487Y-55410854D02*
X72330487Y-55410854D01*
%TO.C,D17*%
X92025000Y-68245000D02*
X92025000Y-69108600D01*
X92431400Y-67610000D02*
X91618600Y-67610000D01*
X91644000Y-68245000D02*
X92025000Y-67610000D01*
X92406000Y-68245000D02*
X91644000Y-68245000D01*
X92025000Y-67610000D02*
X92406000Y-68245000D01*
X92025000Y-66949600D02*
X92025000Y-67610000D01*
G36*
X91644000Y-68245000D02*
G01*
X92025000Y-67610000D01*
X92406000Y-68245000D01*
X91644000Y-68245000D01*
G37*
X91644000Y-68245000D02*
X92025000Y-67610000D01*
X92406000Y-68245000D01*
X91644000Y-68245000D01*
X92825000Y-64891000D02*
X92825000Y-66924200D01*
X92825000Y-66924200D02*
X91225000Y-66924200D01*
X91225000Y-66924200D02*
X91225000Y-64891000D01*
X91225000Y-64891000D02*
X92825000Y-64891000D01*
%TO.C,D18*%
X111025000Y-70245000D02*
X111025000Y-71108600D01*
X111431400Y-69610000D02*
X110618600Y-69610000D01*
X110644000Y-70245000D02*
X111025000Y-69610000D01*
X111406000Y-70245000D02*
X110644000Y-70245000D01*
X111025000Y-69610000D02*
X111406000Y-70245000D01*
X111025000Y-68949600D02*
X111025000Y-69610000D01*
G36*
X110644000Y-70245000D02*
G01*
X111025000Y-69610000D01*
X111406000Y-70245000D01*
X110644000Y-70245000D01*
G37*
X110644000Y-70245000D02*
X111025000Y-69610000D01*
X111406000Y-70245000D01*
X110644000Y-70245000D01*
X111825000Y-66891000D02*
X111825000Y-68924200D01*
X111825000Y-68924200D02*
X110225000Y-68924200D01*
X110225000Y-68924200D02*
X110225000Y-66891000D01*
X110225000Y-66891000D02*
X111825000Y-66891000D01*
%TO.C,D19*%
X74061710Y-94190498D02*
X74061710Y-95054098D01*
X74468110Y-93555498D02*
X73655310Y-93555498D01*
X73680710Y-94190498D02*
X74061710Y-93555498D01*
X74442710Y-94190498D02*
X73680710Y-94190498D01*
X74061710Y-93555498D02*
X74442710Y-94190498D01*
X74061710Y-92895098D02*
X74061710Y-93555498D01*
G36*
X73680710Y-94190498D02*
G01*
X74061710Y-93555498D01*
X74442710Y-94190498D01*
X73680710Y-94190498D01*
G37*
X73680710Y-94190498D02*
X74061710Y-93555498D01*
X74442710Y-94190498D01*
X73680710Y-94190498D01*
X74861710Y-90836498D02*
X74861710Y-92869698D01*
X74861710Y-92869698D02*
X73261710Y-92869698D01*
X73261710Y-92869698D02*
X73261710Y-90836498D01*
X73261710Y-90836498D02*
X74861710Y-90836498D01*
%TO.C,D20*%
X77637500Y-87254000D02*
X77637500Y-88117600D01*
X78043900Y-86619000D02*
X77231100Y-86619000D01*
X77256500Y-87254000D02*
X77637500Y-86619000D01*
X78018500Y-87254000D02*
X77256500Y-87254000D01*
X77637500Y-86619000D02*
X78018500Y-87254000D01*
X77637500Y-85958600D02*
X77637500Y-86619000D01*
G36*
X77256500Y-87254000D02*
G01*
X77637500Y-86619000D01*
X78018500Y-87254000D01*
X77256500Y-87254000D01*
G37*
X77256500Y-87254000D02*
X77637500Y-86619000D01*
X78018500Y-87254000D01*
X77256500Y-87254000D01*
X78437500Y-83900000D02*
X78437500Y-85933200D01*
X78437500Y-85933200D02*
X76837500Y-85933200D01*
X76837500Y-85933200D02*
X76837500Y-83900000D01*
X76837500Y-83900000D02*
X78437500Y-83900000D01*
%TO.C,D21*%
X96637500Y-89254000D02*
X96637500Y-90117600D01*
X97043900Y-88619000D02*
X96231100Y-88619000D01*
X96256500Y-89254000D02*
X96637500Y-88619000D01*
X97018500Y-89254000D02*
X96256500Y-89254000D01*
X96637500Y-88619000D02*
X97018500Y-89254000D01*
X96637500Y-87958600D02*
X96637500Y-88619000D01*
G36*
X96256500Y-89254000D02*
G01*
X96637500Y-88619000D01*
X97018500Y-89254000D01*
X96256500Y-89254000D01*
G37*
X96256500Y-89254000D02*
X96637500Y-88619000D01*
X97018500Y-89254000D01*
X96256500Y-89254000D01*
X97437500Y-85900000D02*
X97437500Y-87933200D01*
X97437500Y-87933200D02*
X95837500Y-87933200D01*
X95837500Y-87933200D02*
X95837500Y-85900000D01*
X95837500Y-85900000D02*
X97437500Y-85900000D01*
%TO.C,D22*%
X158869982Y-106350259D02*
X159720462Y-106500221D01*
X158315200Y-105839766D02*
X158174059Y-106640218D01*
X158803822Y-106725470D02*
X158244629Y-106239992D01*
X158936142Y-105975047D02*
X158803822Y-106725470D01*
X158244629Y-106239992D02*
X158936142Y-105975047D01*
X157594262Y-106125315D02*
X158244629Y-106239992D01*
G36*
X158803822Y-106725470D02*
G01*
X158244629Y-106239992D01*
X158936142Y-105975047D01*
X158803822Y-106725470D01*
G37*
X158803822Y-106725470D02*
X158244629Y-106239992D01*
X158936142Y-105975047D01*
X158803822Y-106725470D01*
X155705856Y-104979996D02*
X157708167Y-105333058D01*
X157708167Y-105333058D02*
X157430330Y-106908750D01*
X157430330Y-106908750D02*
X155428018Y-106555689D01*
X155428018Y-106555689D02*
X155705856Y-104979996D01*
%TO.C,D23*%
X132379741Y-102149982D02*
X132229779Y-103000462D01*
X132890234Y-101595200D02*
X132089782Y-101454059D01*
X132004530Y-102083822D02*
X132490008Y-101524629D01*
X132754953Y-102216142D02*
X132004530Y-102083822D01*
X132490008Y-101524629D02*
X132754953Y-102216142D01*
X132604685Y-100874262D02*
X132490008Y-101524629D01*
G36*
X132004530Y-102083822D02*
G01*
X132490008Y-101524629D01*
X132754953Y-102216142D01*
X132004530Y-102083822D01*
G37*
X132004530Y-102083822D02*
X132490008Y-101524629D01*
X132754953Y-102216142D01*
X132004530Y-102083822D01*
X133750004Y-98985856D02*
X133396942Y-100988167D01*
X133396942Y-100988167D02*
X131821250Y-100710330D01*
X131821250Y-100710330D02*
X132174311Y-98708018D01*
X132174311Y-98708018D02*
X133750004Y-98985856D01*
%TO.C,D24*%
X151259741Y-104559982D02*
X151109779Y-105410462D01*
X151770234Y-104005200D02*
X150969782Y-103864059D01*
X150884530Y-104493822D02*
X151370008Y-103934629D01*
X151634953Y-104626142D02*
X150884530Y-104493822D01*
X151370008Y-103934629D02*
X151634953Y-104626142D01*
X151484685Y-103284262D02*
X151370008Y-103934629D01*
G36*
X150884530Y-104493822D02*
G01*
X151370008Y-103934629D01*
X151634953Y-104626142D01*
X150884530Y-104493822D01*
G37*
X150884530Y-104493822D02*
X151370008Y-103934629D01*
X151634953Y-104626142D01*
X150884530Y-104493822D01*
X152630004Y-101395856D02*
X152276942Y-103398167D01*
X152276942Y-103398167D02*
X150701250Y-103120330D01*
X150701250Y-103120330D02*
X151054311Y-101118018D01*
X151054311Y-101118018D02*
X152630004Y-101395856D01*
D11*
%TO.C,BZ1*%
X72499312Y-87874148D02*
X56499312Y-87874148D01*
X72499312Y-71874148D02*
X72499312Y-87874148D01*
X56499312Y-71874148D02*
X72499312Y-71874148D01*
X56499312Y-87874148D02*
X56499312Y-71874148D01*
%TO.C,J2*%
X161748179Y-91150736D02*
X162078110Y-89279601D01*
X171335303Y-90911894D02*
X162078110Y-89279601D01*
X171005372Y-92783029D02*
X171335303Y-90911894D01*
%TO.C,C1*%
X142674457Y-59104990D02*
X142304990Y-59474457D01*
X141635010Y-58065543D02*
X141265543Y-58435010D01*
%TO.C,C2*%
X142264990Y-76205543D02*
X142634457Y-76575010D01*
X141225543Y-77244990D02*
X141595010Y-77614457D01*
%TO.C,C4*%
X135542706Y-66176741D02*
X135173239Y-66546208D01*
X134503259Y-65137294D02*
X134133792Y-65506761D01*
%TO.C,C5*%
X146244990Y-58055543D02*
X146614457Y-58425010D01*
X145205543Y-59094990D02*
X145575010Y-59464457D01*
%TO.C,C9*%
X152504990Y-64165543D02*
X152874457Y-64535010D01*
X151465543Y-65204990D02*
X151835010Y-65574457D01*
%TO.C,C10*%
X134261252Y-76485000D02*
X133738748Y-76485000D01*
X134261252Y-75015000D02*
X133738748Y-75015000D01*
%TO.C,F2*%
X29388906Y-29915587D02*
X28184778Y-29915587D01*
X29388906Y-28095587D02*
X28184778Y-28095587D01*
%TO.C,R2*%
X152697064Y-61525000D02*
X152242936Y-61525000D01*
X152697064Y-60055000D02*
X152242936Y-60055000D01*
%TO.C,U1*%
X42105275Y-29536882D02*
X39605275Y-29536882D01*
X42105275Y-26436882D02*
X37705275Y-26436882D01*
%TO.C,X1*%
X155039967Y-74372263D02*
X150514483Y-78897747D01*
X151469078Y-70801374D02*
X146943594Y-75326858D01*
X151469077Y-70801375D02*
G75*
G02*
X155039967Y-74372263I1785445J-1785444D01*
G01*
X146943595Y-75326857D02*
G75*
G03*
X150514483Y-78897747I1785444J-1785445D01*
G01*
D12*
%TO.C,L1*%
G36*
X19907000Y-38222000D02*
G01*
X20542000Y-38222000D01*
X20542000Y-38857000D01*
X19907000Y-38222000D01*
G37*
X19907000Y-38222000D02*
X20542000Y-38222000D01*
X20542000Y-38857000D01*
X19907000Y-38222000D01*
%TO.C,L2*%
G36*
X38907000Y-36922000D02*
G01*
X39542000Y-36922000D01*
X39542000Y-37557000D01*
X38907000Y-36922000D01*
G37*
X38907000Y-36922000D02*
X39542000Y-36922000D01*
X39542000Y-37557000D01*
X38907000Y-36922000D01*
%TO.C,L3*%
G36*
X57907000Y-21372000D02*
G01*
X58542000Y-21372000D01*
X58542000Y-22007000D01*
X57907000Y-21372000D01*
G37*
X57907000Y-21372000D02*
X58542000Y-21372000D01*
X58542000Y-22007000D01*
X57907000Y-21372000D01*
%TO.C,L4*%
G36*
X76907000Y-18372000D02*
G01*
X77542000Y-18372000D01*
X77542000Y-19007000D01*
X76907000Y-18372000D01*
G37*
X76907000Y-18372000D02*
X77542000Y-18372000D01*
X77542000Y-19007000D01*
X76907000Y-18372000D01*
%TO.C,L5*%
G36*
X95907000Y-28372000D02*
G01*
X96542000Y-28372000D01*
X96542000Y-29007000D01*
X95907000Y-28372000D01*
G37*
X95907000Y-28372000D02*
X96542000Y-28372000D01*
X96542000Y-29007000D01*
X95907000Y-28372000D01*
%TO.C,L6*%
G36*
X114907000Y-30372000D02*
G01*
X115542000Y-30372000D01*
X115542000Y-31007000D01*
X114907000Y-30372000D01*
G37*
X114907000Y-30372000D02*
X115542000Y-30372000D01*
X115542000Y-31007000D01*
X114907000Y-30372000D01*
%TO.C,L7*%
G36*
X28543000Y-56460000D02*
G01*
X27908000Y-56460000D01*
X27908000Y-55825000D01*
X28543000Y-56460000D01*
G37*
X28543000Y-56460000D02*
X27908000Y-56460000D01*
X27908000Y-55825000D01*
X28543000Y-56460000D01*
%TO.C,L8*%
G36*
X47543000Y-55160000D02*
G01*
X46908000Y-55160000D01*
X46908000Y-54525000D01*
X47543000Y-55160000D01*
G37*
X47543000Y-55160000D02*
X46908000Y-55160000D01*
X46908000Y-54525000D01*
X47543000Y-55160000D01*
%TO.C,L9*%
G36*
X66543000Y-39610000D02*
G01*
X65908000Y-39610000D01*
X65908000Y-38975000D01*
X66543000Y-39610000D01*
G37*
X66543000Y-39610000D02*
X65908000Y-39610000D01*
X65908000Y-38975000D01*
X66543000Y-39610000D01*
%TO.C,L10*%
G36*
X85543000Y-36610000D02*
G01*
X84908000Y-36610000D01*
X84908000Y-35975000D01*
X85543000Y-36610000D01*
G37*
X85543000Y-36610000D02*
X84908000Y-36610000D01*
X84908000Y-35975000D01*
X85543000Y-36610000D01*
%TO.C,L11*%
G36*
X104543000Y-46610000D02*
G01*
X103908000Y-46610000D01*
X103908000Y-45975000D01*
X104543000Y-46610000D01*
G37*
X104543000Y-46610000D02*
X103908000Y-46610000D01*
X103908000Y-45975000D01*
X104543000Y-46610000D01*
%TO.C,L12*%
G36*
X123543000Y-48610000D02*
G01*
X122908000Y-48610000D01*
X122908000Y-47975000D01*
X123543000Y-48610000D01*
G37*
X123543000Y-48610000D02*
X122908000Y-48610000D01*
X122908000Y-47975000D01*
X123543000Y-48610000D01*
%TO.C,L13*%
G36*
X19907000Y-76222000D02*
G01*
X20542000Y-76222000D01*
X20542000Y-76857000D01*
X19907000Y-76222000D01*
G37*
X19907000Y-76222000D02*
X20542000Y-76222000D01*
X20542000Y-76857000D01*
X19907000Y-76222000D01*
%TO.C,L14*%
G36*
X38907000Y-74922000D02*
G01*
X39542000Y-74922000D01*
X39542000Y-75557000D01*
X38907000Y-74922000D01*
G37*
X38907000Y-74922000D02*
X39542000Y-74922000D01*
X39542000Y-75557000D01*
X38907000Y-74922000D01*
%TO.C,L15*%
G36*
X57907000Y-59372000D02*
G01*
X58542000Y-59372000D01*
X58542000Y-60007000D01*
X57907000Y-59372000D01*
G37*
X57907000Y-59372000D02*
X58542000Y-59372000D01*
X58542000Y-60007000D01*
X57907000Y-59372000D01*
%TO.C,L16*%
G36*
X76907000Y-56372000D02*
G01*
X77542000Y-56372000D01*
X77542000Y-57007000D01*
X76907000Y-56372000D01*
G37*
X76907000Y-56372000D02*
X77542000Y-56372000D01*
X77542000Y-57007000D01*
X76907000Y-56372000D01*
%TO.C,L17*%
G36*
X95907000Y-66372000D02*
G01*
X96542000Y-66372000D01*
X96542000Y-67007000D01*
X95907000Y-66372000D01*
G37*
X95907000Y-66372000D02*
X96542000Y-66372000D01*
X96542000Y-67007000D01*
X95907000Y-66372000D01*
%TO.C,L18*%
G36*
X114907000Y-68372000D02*
G01*
X115542000Y-68372000D01*
X115542000Y-69007000D01*
X114907000Y-68372000D01*
G37*
X114907000Y-68372000D02*
X115542000Y-68372000D01*
X115542000Y-69007000D01*
X114907000Y-68372000D01*
%TO.C,L19*%
G36*
X90155500Y-84619000D02*
G01*
X89520500Y-84619000D01*
X89520500Y-83984000D01*
X90155500Y-84619000D01*
G37*
X90155500Y-84619000D02*
X89520500Y-84619000D01*
X89520500Y-83984000D01*
X90155500Y-84619000D01*
%TO.C,L20*%
G36*
X109155500Y-86619000D02*
G01*
X108520500Y-86619000D01*
X108520500Y-85984000D01*
X109155500Y-86619000D01*
G37*
X109155500Y-86619000D02*
X108520500Y-86619000D01*
X108520500Y-85984000D01*
X109155500Y-86619000D01*
%TO.C,L21*%
G36*
X129127064Y-98620404D02*
G01*
X128501711Y-98510137D01*
X128611978Y-97884785D01*
X129127064Y-98620404D01*
G37*
X129127064Y-98620404D02*
X128501711Y-98510137D01*
X128611978Y-97884785D01*
X129127064Y-98620404D01*
%TO.C,L22*%
G36*
X148068560Y-102074601D02*
G01*
X147443207Y-101964334D01*
X147553474Y-101338982D01*
X148068560Y-102074601D01*
G37*
X148068560Y-102074601D02*
X147443207Y-101964334D01*
X147553474Y-101338982D01*
X148068560Y-102074601D01*
%TO.C,L23*%
G36*
X154715399Y-118298560D02*
G01*
X154825666Y-117673207D01*
X155451018Y-117783474D01*
X154715399Y-118298560D01*
G37*
X154715399Y-118298560D02*
X154825666Y-117673207D01*
X155451018Y-117783474D01*
X154715399Y-118298560D01*
%TO.C,RESET_SW1*%
D10*
X130652857Y-60792380D02*
X130319523Y-60316190D01*
X130081428Y-60792380D02*
X130081428Y-59792380D01*
X130462380Y-59792380D01*
X130557619Y-59840000D01*
X130605238Y-59887619D01*
X130652857Y-59982857D01*
X130652857Y-60125714D01*
X130605238Y-60220952D01*
X130557619Y-60268571D01*
X130462380Y-60316190D01*
X130081428Y-60316190D01*
X131081428Y-60268571D02*
X131414761Y-60268571D01*
X131557619Y-60792380D02*
X131081428Y-60792380D01*
X131081428Y-59792380D01*
X131557619Y-59792380D01*
X131938571Y-60744761D02*
X132081428Y-60792380D01*
X132319523Y-60792380D01*
X132414761Y-60744761D01*
X132462380Y-60697142D01*
X132510000Y-60601904D01*
X132510000Y-60506666D01*
X132462380Y-60411428D01*
X132414761Y-60363809D01*
X132319523Y-60316190D01*
X132129047Y-60268571D01*
X132033809Y-60220952D01*
X131986190Y-60173333D01*
X131938571Y-60078095D01*
X131938571Y-59982857D01*
X131986190Y-59887619D01*
X132033809Y-59840000D01*
X132129047Y-59792380D01*
X132367142Y-59792380D01*
X132510000Y-59840000D01*
X132938571Y-60268571D02*
X133271904Y-60268571D01*
X133414761Y-60792380D02*
X132938571Y-60792380D01*
X132938571Y-59792380D01*
X133414761Y-59792380D01*
X133700476Y-59792380D02*
X134271904Y-59792380D01*
X133986190Y-60792380D02*
X133986190Y-59792380D01*
X134367142Y-60887619D02*
X135129047Y-60887619D01*
X135319523Y-60744761D02*
X135462380Y-60792380D01*
X135700476Y-60792380D01*
X135795714Y-60744761D01*
X135843333Y-60697142D01*
X135890952Y-60601904D01*
X135890952Y-60506666D01*
X135843333Y-60411428D01*
X135795714Y-60363809D01*
X135700476Y-60316190D01*
X135510000Y-60268571D01*
X135414761Y-60220952D01*
X135367142Y-60173333D01*
X135319523Y-60078095D01*
X135319523Y-59982857D01*
X135367142Y-59887619D01*
X135414761Y-59840000D01*
X135510000Y-59792380D01*
X135748095Y-59792380D01*
X135890952Y-59840000D01*
X136224285Y-59792380D02*
X136462380Y-60792380D01*
X136652857Y-60078095D01*
X136843333Y-60792380D01*
X137081428Y-59792380D01*
X137986190Y-60792380D02*
X137414761Y-60792380D01*
X137700476Y-60792380D02*
X137700476Y-59792380D01*
X137605238Y-59935238D01*
X137510000Y-60030476D01*
X137414761Y-60078095D01*
%TO.C,J3*%
D13*
X144138501Y-47000240D02*
X144219301Y-47575162D01*
X144197132Y-47695533D01*
X144131250Y-47782962D01*
X144021652Y-47837450D01*
X143944996Y-47848224D01*
X144445125Y-46957147D02*
X144943390Y-46887120D01*
X144718187Y-47231452D01*
X144833171Y-47215292D01*
X144915214Y-47242847D01*
X144958929Y-47275788D01*
X145008030Y-47347058D01*
X145034964Y-47538698D01*
X145007409Y-47620741D01*
X144974468Y-47664456D01*
X144903198Y-47713557D01*
X144673229Y-47745877D01*
X144591187Y-47718322D01*
X144547472Y-47685381D01*
X146223756Y-47098028D02*
X146344127Y-47120196D01*
X146387842Y-47153138D01*
X146436943Y-47224407D01*
X146453103Y-47339391D01*
X146425548Y-47421434D01*
X146392607Y-47465149D01*
X146321337Y-47514250D01*
X146014713Y-47557344D01*
X145901593Y-46752454D01*
X146169889Y-46714747D01*
X146251932Y-46742302D01*
X146295647Y-46775243D01*
X146344748Y-46846513D01*
X146355522Y-46923169D01*
X146327967Y-47005212D01*
X146295025Y-47048927D01*
X146223756Y-47098028D01*
X145955459Y-47135735D01*
X141440365Y-27384852D02*
X141521165Y-27959774D01*
X141498997Y-28080145D01*
X141433114Y-28167574D01*
X141323516Y-28222062D01*
X141246860Y-28232836D01*
X141746989Y-27341759D02*
X142245255Y-27271732D01*
X142020051Y-27616064D01*
X142135036Y-27599904D01*
X142217078Y-27627459D01*
X142260793Y-27660400D01*
X142309895Y-27731670D01*
X142336828Y-27923310D01*
X142309273Y-28005353D01*
X142276332Y-28049068D01*
X142205062Y-28098169D01*
X141975094Y-28130489D01*
X141893051Y-28102934D01*
X141849336Y-28069993D01*
X143525620Y-27482640D02*
X143257323Y-27520347D01*
X143316577Y-27941956D02*
X143203457Y-27137066D01*
X143586738Y-27083199D01*
%TO.C,U3*%
D10*
X137736080Y-62693576D02*
X138308500Y-63265996D01*
X138409515Y-63299668D01*
X138476859Y-63299668D01*
X138577874Y-63265996D01*
X138712561Y-63131309D01*
X138746233Y-63030294D01*
X138746233Y-62962950D01*
X138712561Y-62861935D01*
X138140141Y-62289515D01*
X138409515Y-62020141D02*
X138847248Y-61582409D01*
X138880920Y-62087485D01*
X138981935Y-61986470D01*
X139082950Y-61952798D01*
X139150294Y-61952798D01*
X139251309Y-61986470D01*
X139419668Y-62154828D01*
X139453340Y-62255844D01*
X139453340Y-62323187D01*
X139419668Y-62424202D01*
X139217637Y-62626233D01*
X139116622Y-62659905D01*
X139049279Y-62659905D01*
%TO.C,J1*%
X35829328Y-14824164D02*
X35928738Y-15531498D01*
X35901464Y-15679592D01*
X35820407Y-15787158D01*
X35685568Y-15854196D01*
X35591256Y-15867450D01*
X36958769Y-15675259D02*
X36392902Y-15754786D01*
X36675836Y-15715023D02*
X36536663Y-14724755D01*
X36462233Y-14879476D01*
X36381177Y-14987042D01*
X36293493Y-15047452D01*
%TO.C,L39*%
X131355734Y-25670901D02*
X130879544Y-25670901D01*
X130879544Y-24670901D01*
X131593830Y-24670901D02*
X132212877Y-24670901D01*
X131879544Y-25051854D01*
X132022401Y-25051854D01*
X132117639Y-25099473D01*
X132165258Y-25147092D01*
X132212877Y-25242330D01*
X132212877Y-25480425D01*
X132165258Y-25575663D01*
X132117639Y-25623282D01*
X132022401Y-25670901D01*
X131736687Y-25670901D01*
X131641449Y-25623282D01*
X131593830Y-25575663D01*
X132689068Y-25670901D02*
X132879544Y-25670901D01*
X132974782Y-25623282D01*
X133022401Y-25575663D01*
X133117639Y-25432806D01*
X133165258Y-25242330D01*
X133165258Y-24861378D01*
X133117639Y-24766140D01*
X133070020Y-24718521D01*
X132974782Y-24670901D01*
X132784306Y-24670901D01*
X132689068Y-24718521D01*
X132641449Y-24766140D01*
X132593830Y-24861378D01*
X132593830Y-25099473D01*
X132641449Y-25194711D01*
X132689068Y-25242330D01*
X132784306Y-25289949D01*
X132974782Y-25289949D01*
X133070020Y-25242330D01*
X133117639Y-25194711D01*
X133165258Y-25099473D01*
X128134306Y-20320901D02*
X127562877Y-20320901D01*
X127848592Y-20320901D02*
X127848592Y-19320901D01*
X127753353Y-19463759D01*
X127658115Y-19558997D01*
X127562877Y-19606616D01*
%TO.C,L38*%
X149787142Y-44262380D02*
X149310952Y-44262380D01*
X149310952Y-43262380D01*
X150025238Y-43262380D02*
X150644285Y-43262380D01*
X150310952Y-43643333D01*
X150453809Y-43643333D01*
X150549047Y-43690952D01*
X150596666Y-43738571D01*
X150644285Y-43833809D01*
X150644285Y-44071904D01*
X150596666Y-44167142D01*
X150549047Y-44214761D01*
X150453809Y-44262380D01*
X150168095Y-44262380D01*
X150072857Y-44214761D01*
X150025238Y-44167142D01*
X151215714Y-43690952D02*
X151120476Y-43643333D01*
X151072857Y-43595714D01*
X151025238Y-43500476D01*
X151025238Y-43452857D01*
X151072857Y-43357619D01*
X151120476Y-43310000D01*
X151215714Y-43262380D01*
X151406190Y-43262380D01*
X151501428Y-43310000D01*
X151549047Y-43357619D01*
X151596666Y-43452857D01*
X151596666Y-43500476D01*
X151549047Y-43595714D01*
X151501428Y-43643333D01*
X151406190Y-43690952D01*
X151215714Y-43690952D01*
X151120476Y-43738571D01*
X151072857Y-43786190D01*
X151025238Y-43881428D01*
X151025238Y-44071904D01*
X151072857Y-44167142D01*
X151120476Y-44214761D01*
X151215714Y-44262380D01*
X151406190Y-44262380D01*
X151501428Y-44214761D01*
X151549047Y-44167142D01*
X151596666Y-44071904D01*
X151596666Y-43881428D01*
X151549047Y-43786190D01*
X151501428Y-43738571D01*
X151406190Y-43690952D01*
X146565714Y-38912380D02*
X145994285Y-38912380D01*
X146280000Y-38912380D02*
X146280000Y-37912380D01*
X146184761Y-38055238D01*
X146089523Y-38150476D01*
X145994285Y-38198095D01*
%TO.C,L37*%
X150117142Y-82302380D02*
X149640952Y-82302380D01*
X149640952Y-81302380D01*
X150355238Y-81302380D02*
X150974285Y-81302380D01*
X150640952Y-81683333D01*
X150783809Y-81683333D01*
X150879047Y-81730952D01*
X150926666Y-81778571D01*
X150974285Y-81873809D01*
X150974285Y-82111904D01*
X150926666Y-82207142D01*
X150879047Y-82254761D01*
X150783809Y-82302380D01*
X150498095Y-82302380D01*
X150402857Y-82254761D01*
X150355238Y-82207142D01*
X151307619Y-81302380D02*
X151974285Y-81302380D01*
X151545714Y-82302380D01*
X155195714Y-87652380D02*
X154624285Y-87652380D01*
X154910000Y-87652380D02*
X154910000Y-86652380D01*
X154814761Y-86795238D01*
X154719523Y-86890476D01*
X154624285Y-86938095D01*
%TO.C,L36*%
X119292136Y-119150678D02*
X118823180Y-119067988D01*
X118996828Y-118083180D01*
X119700262Y-118207215D02*
X120309905Y-118314711D01*
X119915484Y-118631993D01*
X120056171Y-118656800D01*
X120141693Y-118720234D01*
X120180320Y-118775398D01*
X120210677Y-118877459D01*
X120169332Y-119111937D01*
X120105899Y-119197459D01*
X120050734Y-119236086D01*
X119948674Y-119266443D01*
X119667301Y-119216829D01*
X119581778Y-119153396D01*
X119543152Y-119098231D01*
X121154026Y-118463553D02*
X120966443Y-118430477D01*
X120864383Y-118460834D01*
X120809219Y-118499461D01*
X120690620Y-118623610D01*
X120610649Y-118802923D01*
X120544497Y-119178088D01*
X120574855Y-119280149D01*
X120613482Y-119335313D01*
X120699004Y-119398747D01*
X120886586Y-119431822D01*
X120988646Y-119401465D01*
X121043811Y-119362838D01*
X121107245Y-119277316D01*
X121148589Y-119042838D01*
X121118232Y-118940778D01*
X121079605Y-118885613D01*
X120994083Y-118822180D01*
X120806500Y-118789104D01*
X120704440Y-118819461D01*
X120649276Y-118858088D01*
X120585842Y-118943610D01*
X117048666Y-113322562D02*
X116485919Y-113223334D01*
X116767292Y-113272948D02*
X116940941Y-112288140D01*
X116822342Y-112412289D01*
X116712013Y-112489542D01*
X116609953Y-112519900D01*
%TO.C,L35*%
X62731466Y-100670101D02*
X62255276Y-100670101D01*
X62255276Y-99670101D01*
X62969562Y-99670101D02*
X63588609Y-99670101D01*
X63255276Y-100051054D01*
X63398133Y-100051054D01*
X63493371Y-100098673D01*
X63540990Y-100146292D01*
X63588609Y-100241530D01*
X63588609Y-100479625D01*
X63540990Y-100574863D01*
X63493371Y-100622482D01*
X63398133Y-100670101D01*
X63112419Y-100670101D01*
X63017181Y-100622482D01*
X62969562Y-100574863D01*
X64493371Y-99670101D02*
X64017181Y-99670101D01*
X63969562Y-100146292D01*
X64017181Y-100098673D01*
X64112419Y-100051054D01*
X64350514Y-100051054D01*
X64445752Y-100098673D01*
X64493371Y-100146292D01*
X64540990Y-100241530D01*
X64540990Y-100479625D01*
X64493371Y-100574863D01*
X64445752Y-100622482D01*
X64350514Y-100670101D01*
X64112419Y-100670101D01*
X64017181Y-100622482D01*
X63969562Y-100574863D01*
X59510038Y-95320101D02*
X58938609Y-95320101D01*
X59224324Y-95320101D02*
X59224324Y-94320101D01*
X59129085Y-94462959D01*
X59033847Y-94558197D01*
X58938609Y-94605816D01*
%TO.C,L34*%
X22325647Y-75732867D02*
X21849457Y-75732867D01*
X21849457Y-74732867D01*
X22563743Y-74732867D02*
X23182790Y-74732867D01*
X22849457Y-75113820D01*
X22992314Y-75113820D01*
X23087552Y-75161439D01*
X23135171Y-75209058D01*
X23182790Y-75304296D01*
X23182790Y-75542391D01*
X23135171Y-75637629D01*
X23087552Y-75685248D01*
X22992314Y-75732867D01*
X22706600Y-75732867D01*
X22611362Y-75685248D01*
X22563743Y-75637629D01*
X24039933Y-75066201D02*
X24039933Y-75732867D01*
X23801838Y-74685248D02*
X23563743Y-75399534D01*
X24182790Y-75399534D01*
X19104219Y-70382867D02*
X18532790Y-70382867D01*
X18818505Y-70382867D02*
X18818505Y-69382867D01*
X18723266Y-69525725D01*
X18628028Y-69620963D01*
X18532790Y-69668582D01*
%TO.C,L33*%
X19231930Y-35139550D02*
X18755740Y-35139550D01*
X18755740Y-34139550D01*
X19470026Y-34139550D02*
X20089073Y-34139550D01*
X19755740Y-34520503D01*
X19898597Y-34520503D01*
X19993835Y-34568122D01*
X20041454Y-34615741D01*
X20089073Y-34710979D01*
X20089073Y-34949074D01*
X20041454Y-35044312D01*
X19993835Y-35091931D01*
X19898597Y-35139550D01*
X19612883Y-35139550D01*
X19517645Y-35091931D01*
X19470026Y-35044312D01*
X20422407Y-34139550D02*
X21041454Y-34139550D01*
X20708121Y-34520503D01*
X20850978Y-34520503D01*
X20946216Y-34568122D01*
X20993835Y-34615741D01*
X21041454Y-34710979D01*
X21041454Y-34949074D01*
X20993835Y-35044312D01*
X20946216Y-35091931D01*
X20850978Y-35139550D01*
X20565264Y-35139550D01*
X20470026Y-35091931D01*
X20422407Y-35044312D01*
X16010502Y-29789550D02*
X15439073Y-29789550D01*
X15724788Y-29789550D02*
X15724788Y-28789550D01*
X15629549Y-28932408D01*
X15534311Y-29027646D01*
X15439073Y-29075265D01*
%TO.C,L32*%
X20242142Y-21061021D02*
X19765952Y-21061021D01*
X19765952Y-20061021D01*
X20480238Y-20061021D02*
X21099285Y-20061021D01*
X20765952Y-20441974D01*
X20908809Y-20441974D01*
X21004047Y-20489593D01*
X21051666Y-20537212D01*
X21099285Y-20632450D01*
X21099285Y-20870545D01*
X21051666Y-20965783D01*
X21004047Y-21013402D01*
X20908809Y-21061021D01*
X20623095Y-21061021D01*
X20527857Y-21013402D01*
X20480238Y-20965783D01*
X21480238Y-20156260D02*
X21527857Y-20108641D01*
X21623095Y-20061021D01*
X21861190Y-20061021D01*
X21956428Y-20108641D01*
X22004047Y-20156260D01*
X22051666Y-20251498D01*
X22051666Y-20346736D01*
X22004047Y-20489593D01*
X21432619Y-21061021D01*
X22051666Y-21061021D01*
X17020714Y-23211021D02*
X16449285Y-23211021D01*
X16735000Y-23211021D02*
X16735000Y-22211021D01*
X16639761Y-22353879D01*
X16544523Y-22449117D01*
X16449285Y-22496736D01*
%TO.C,L31*%
X32912142Y-17061021D02*
X32435952Y-17061021D01*
X32435952Y-16061021D01*
X33150238Y-16061021D02*
X33769285Y-16061021D01*
X33435952Y-16441974D01*
X33578809Y-16441974D01*
X33674047Y-16489593D01*
X33721666Y-16537212D01*
X33769285Y-16632450D01*
X33769285Y-16870545D01*
X33721666Y-16965783D01*
X33674047Y-17013402D01*
X33578809Y-17061021D01*
X33293095Y-17061021D01*
X33197857Y-17013402D01*
X33150238Y-16965783D01*
X34721666Y-17061021D02*
X34150238Y-17061021D01*
X34435952Y-17061021D02*
X34435952Y-16061021D01*
X34340714Y-16203879D01*
X34245476Y-16299117D01*
X34150238Y-16346736D01*
X29690714Y-19211021D02*
X29119285Y-19211021D01*
X29405000Y-19211021D02*
X29405000Y-18211021D01*
X29309761Y-18353879D01*
X29214523Y-18449117D01*
X29119285Y-18496736D01*
%TO.C,L30*%
X45582142Y-13561021D02*
X45105952Y-13561021D01*
X45105952Y-12561021D01*
X45820238Y-12561021D02*
X46439285Y-12561021D01*
X46105952Y-12941974D01*
X46248809Y-12941974D01*
X46344047Y-12989593D01*
X46391666Y-13037212D01*
X46439285Y-13132450D01*
X46439285Y-13370545D01*
X46391666Y-13465783D01*
X46344047Y-13513402D01*
X46248809Y-13561021D01*
X45963095Y-13561021D01*
X45867857Y-13513402D01*
X45820238Y-13465783D01*
X47058333Y-12561021D02*
X47153571Y-12561021D01*
X47248809Y-12608641D01*
X47296428Y-12656260D01*
X47344047Y-12751498D01*
X47391666Y-12941974D01*
X47391666Y-13180069D01*
X47344047Y-13370545D01*
X47296428Y-13465783D01*
X47248809Y-13513402D01*
X47153571Y-13561021D01*
X47058333Y-13561021D01*
X46963095Y-13513402D01*
X46915476Y-13465783D01*
X46867857Y-13370545D01*
X46820238Y-13180069D01*
X46820238Y-12941974D01*
X46867857Y-12751498D01*
X46915476Y-12656260D01*
X46963095Y-12608641D01*
X47058333Y-12561021D01*
X42360714Y-15711021D02*
X41789285Y-15711021D01*
X42075000Y-15711021D02*
X42075000Y-14711021D01*
X41979761Y-14853879D01*
X41884523Y-14949117D01*
X41789285Y-14996736D01*
%TO.C,L29*%
X58242142Y-8461021D02*
X57765952Y-8461021D01*
X57765952Y-7461021D01*
X58527857Y-7556260D02*
X58575476Y-7508641D01*
X58670714Y-7461021D01*
X58908809Y-7461021D01*
X59004047Y-7508641D01*
X59051666Y-7556260D01*
X59099285Y-7651498D01*
X59099285Y-7746736D01*
X59051666Y-7889593D01*
X58480238Y-8461021D01*
X59099285Y-8461021D01*
X59575476Y-8461021D02*
X59765952Y-8461021D01*
X59861190Y-8413402D01*
X59908809Y-8365783D01*
X60004047Y-8222926D01*
X60051666Y-8032450D01*
X60051666Y-7651498D01*
X60004047Y-7556260D01*
X59956428Y-7508641D01*
X59861190Y-7461021D01*
X59670714Y-7461021D01*
X59575476Y-7508641D01*
X59527857Y-7556260D01*
X59480238Y-7651498D01*
X59480238Y-7889593D01*
X59527857Y-7984831D01*
X59575476Y-8032450D01*
X59670714Y-8080069D01*
X59861190Y-8080069D01*
X59956428Y-8032450D01*
X60004047Y-7984831D01*
X60051666Y-7889593D01*
X55020714Y-10611021D02*
X54449285Y-10611021D01*
X54735000Y-10611021D02*
X54735000Y-9611021D01*
X54639761Y-9753879D01*
X54544523Y-9849117D01*
X54449285Y-9896736D01*
%TO.C,L28*%
X70912142Y-6732380D02*
X70435952Y-6732380D01*
X70435952Y-5732380D01*
X71197857Y-5827619D02*
X71245476Y-5780000D01*
X71340714Y-5732380D01*
X71578809Y-5732380D01*
X71674047Y-5780000D01*
X71721666Y-5827619D01*
X71769285Y-5922857D01*
X71769285Y-6018095D01*
X71721666Y-6160952D01*
X71150238Y-6732380D01*
X71769285Y-6732380D01*
X72340714Y-6160952D02*
X72245476Y-6113333D01*
X72197857Y-6065714D01*
X72150238Y-5970476D01*
X72150238Y-5922857D01*
X72197857Y-5827619D01*
X72245476Y-5780000D01*
X72340714Y-5732380D01*
X72531190Y-5732380D01*
X72626428Y-5780000D01*
X72674047Y-5827619D01*
X72721666Y-5922857D01*
X72721666Y-5970476D01*
X72674047Y-6065714D01*
X72626428Y-6113333D01*
X72531190Y-6160952D01*
X72340714Y-6160952D01*
X72245476Y-6208571D01*
X72197857Y-6256190D01*
X72150238Y-6351428D01*
X72150238Y-6541904D01*
X72197857Y-6637142D01*
X72245476Y-6684761D01*
X72340714Y-6732380D01*
X72531190Y-6732380D01*
X72626428Y-6684761D01*
X72674047Y-6637142D01*
X72721666Y-6541904D01*
X72721666Y-6351428D01*
X72674047Y-6256190D01*
X72626428Y-6208571D01*
X72531190Y-6160952D01*
X67690714Y-8882380D02*
X67119285Y-8882380D01*
X67405000Y-8882380D02*
X67405000Y-7882380D01*
X67309761Y-8025238D01*
X67214523Y-8120476D01*
X67119285Y-8168095D01*
%TO.C,L27*%
X83582142Y-7072380D02*
X83105952Y-7072380D01*
X83105952Y-6072380D01*
X83867857Y-6167619D02*
X83915476Y-6120000D01*
X84010714Y-6072380D01*
X84248809Y-6072380D01*
X84344047Y-6120000D01*
X84391666Y-6167619D01*
X84439285Y-6262857D01*
X84439285Y-6358095D01*
X84391666Y-6500952D01*
X83820238Y-7072380D01*
X84439285Y-7072380D01*
X84772619Y-6072380D02*
X85439285Y-6072380D01*
X85010714Y-7072380D01*
X80360714Y-9222380D02*
X79789285Y-9222380D01*
X80075000Y-9222380D02*
X80075000Y-8222380D01*
X79979761Y-8365238D01*
X79884523Y-8460476D01*
X79789285Y-8508095D01*
%TO.C,L26*%
X96242142Y-10702380D02*
X95765952Y-10702380D01*
X95765952Y-9702380D01*
X96527857Y-9797619D02*
X96575476Y-9750000D01*
X96670714Y-9702380D01*
X96908809Y-9702380D01*
X97004047Y-9750000D01*
X97051666Y-9797619D01*
X97099285Y-9892857D01*
X97099285Y-9988095D01*
X97051666Y-10130952D01*
X96480238Y-10702380D01*
X97099285Y-10702380D01*
X97956428Y-9702380D02*
X97765952Y-9702380D01*
X97670714Y-9750000D01*
X97623095Y-9797619D01*
X97527857Y-9940476D01*
X97480238Y-10130952D01*
X97480238Y-10511904D01*
X97527857Y-10607142D01*
X97575476Y-10654761D01*
X97670714Y-10702380D01*
X97861190Y-10702380D01*
X97956428Y-10654761D01*
X98004047Y-10607142D01*
X98051666Y-10511904D01*
X98051666Y-10273809D01*
X98004047Y-10178571D01*
X97956428Y-10130952D01*
X97861190Y-10083333D01*
X97670714Y-10083333D01*
X97575476Y-10130952D01*
X97527857Y-10178571D01*
X97480238Y-10273809D01*
X93020714Y-12852380D02*
X92449285Y-12852380D01*
X92735000Y-12852380D02*
X92735000Y-11852380D01*
X92639761Y-11995238D01*
X92544523Y-12090476D01*
X92449285Y-12138095D01*
%TO.C,L25*%
X108912142Y-12702380D02*
X108435952Y-12702380D01*
X108435952Y-11702380D01*
X109197857Y-11797619D02*
X109245476Y-11750000D01*
X109340714Y-11702380D01*
X109578809Y-11702380D01*
X109674047Y-11750000D01*
X109721666Y-11797619D01*
X109769285Y-11892857D01*
X109769285Y-11988095D01*
X109721666Y-12130952D01*
X109150238Y-12702380D01*
X109769285Y-12702380D01*
X110674047Y-11702380D02*
X110197857Y-11702380D01*
X110150238Y-12178571D01*
X110197857Y-12130952D01*
X110293095Y-12083333D01*
X110531190Y-12083333D01*
X110626428Y-12130952D01*
X110674047Y-12178571D01*
X110721666Y-12273809D01*
X110721666Y-12511904D01*
X110674047Y-12607142D01*
X110626428Y-12654761D01*
X110531190Y-12702380D01*
X110293095Y-12702380D01*
X110197857Y-12654761D01*
X110150238Y-12607142D01*
X105690714Y-14852380D02*
X105119285Y-14852380D01*
X105405000Y-14852380D02*
X105405000Y-13852380D01*
X105309761Y-13995238D01*
X105214523Y-14090476D01*
X105119285Y-14138095D01*
%TO.C,L24*%
X121582142Y-14202380D02*
X121105952Y-14202380D01*
X121105952Y-13202380D01*
X121867857Y-13297619D02*
X121915476Y-13250000D01*
X122010714Y-13202380D01*
X122248809Y-13202380D01*
X122344047Y-13250000D01*
X122391666Y-13297619D01*
X122439285Y-13392857D01*
X122439285Y-13488095D01*
X122391666Y-13630952D01*
X121820238Y-14202380D01*
X122439285Y-14202380D01*
X123296428Y-13535714D02*
X123296428Y-14202380D01*
X123058333Y-13154761D02*
X122820238Y-13869047D01*
X123439285Y-13869047D01*
X118360714Y-16352380D02*
X117789285Y-16352380D01*
X118075000Y-16352380D02*
X118075000Y-15352380D01*
X117979761Y-15495238D01*
X117884523Y-15590476D01*
X117789285Y-15638095D01*
%TO.C,R5*%
X133833333Y-73719493D02*
X133500000Y-73243303D01*
X133261904Y-73719493D02*
X133261904Y-72719493D01*
X133642857Y-72719493D01*
X133738095Y-72767113D01*
X133785714Y-72814732D01*
X133833333Y-72909970D01*
X133833333Y-73052827D01*
X133785714Y-73148065D01*
X133738095Y-73195684D01*
X133642857Y-73243303D01*
X133261904Y-73243303D01*
X134738095Y-72719493D02*
X134261904Y-72719493D01*
X134214285Y-73195684D01*
X134261904Y-73148065D01*
X134357142Y-73100446D01*
X134595238Y-73100446D01*
X134690476Y-73148065D01*
X134738095Y-73195684D01*
X134785714Y-73290922D01*
X134785714Y-73529017D01*
X134738095Y-73624255D01*
X134690476Y-73671874D01*
X134595238Y-73719493D01*
X134357142Y-73719493D01*
X134261904Y-73671874D01*
X134214285Y-73624255D01*
%TO.C,R7*%
X133833333Y-75746161D02*
X133500000Y-75269971D01*
X133261904Y-75746161D02*
X133261904Y-74746161D01*
X133642857Y-74746161D01*
X133738095Y-74793781D01*
X133785714Y-74841400D01*
X133833333Y-74936638D01*
X133833333Y-75079495D01*
X133785714Y-75174733D01*
X133738095Y-75222352D01*
X133642857Y-75269971D01*
X133261904Y-75269971D01*
X134166666Y-74746161D02*
X134833333Y-74746161D01*
X134404761Y-75746161D01*
%TO.C,R3*%
X41551924Y-23354164D02*
X41075734Y-23687498D01*
X41551924Y-23925593D02*
X40551924Y-23925593D01*
X40551924Y-23544640D01*
X40599544Y-23449402D01*
X40647163Y-23401783D01*
X40742401Y-23354164D01*
X40885258Y-23354164D01*
X40980496Y-23401783D01*
X41028115Y-23449402D01*
X41075734Y-23544640D01*
X41075734Y-23925593D01*
X40551924Y-23020831D02*
X40551924Y-22401783D01*
X40932877Y-22735117D01*
X40932877Y-22592259D01*
X40980496Y-22497021D01*
X41028115Y-22449402D01*
X41123353Y-22401783D01*
X41361448Y-22401783D01*
X41456686Y-22449402D01*
X41504305Y-22497021D01*
X41551924Y-22592259D01*
X41551924Y-22877974D01*
X41504305Y-22973212D01*
X41456686Y-23020831D01*
%TO.C,R4*%
X39208199Y-23354164D02*
X38732009Y-23687498D01*
X39208199Y-23925593D02*
X38208199Y-23925593D01*
X38208199Y-23544640D01*
X38255819Y-23449402D01*
X38303438Y-23401783D01*
X38398676Y-23354164D01*
X38541533Y-23354164D01*
X38636771Y-23401783D01*
X38684390Y-23449402D01*
X38732009Y-23544640D01*
X38732009Y-23925593D01*
X38541533Y-22497021D02*
X39208199Y-22497021D01*
X38160580Y-22735117D02*
X38874866Y-22973212D01*
X38874866Y-22354164D01*
%TO.C,D1*%
D13*
X18092695Y-42715431D02*
X17279895Y-42715431D01*
X17279895Y-42521907D01*
X17318600Y-42405793D01*
X17396009Y-42328383D01*
X17473419Y-42289679D01*
X17628238Y-42250974D01*
X17744352Y-42250974D01*
X17899171Y-42289679D01*
X17976580Y-42328383D01*
X18053990Y-42405793D01*
X18092695Y-42521907D01*
X18092695Y-42715431D01*
X18092695Y-41476879D02*
X18092695Y-41941336D01*
X18092695Y-41709107D02*
X17279895Y-41709107D01*
X17396009Y-41786517D01*
X17473419Y-41863926D01*
X17512123Y-41941336D01*
%TO.C,D2*%
X35392695Y-42915431D02*
X34579895Y-42915431D01*
X34579895Y-42721907D01*
X34618600Y-42605793D01*
X34696009Y-42528383D01*
X34773419Y-42489679D01*
X34928238Y-42450974D01*
X35044352Y-42450974D01*
X35199171Y-42489679D01*
X35276580Y-42528383D01*
X35353990Y-42605793D01*
X35392695Y-42721907D01*
X35392695Y-42915431D01*
X34657304Y-42141336D02*
X34618600Y-42102631D01*
X34579895Y-42025221D01*
X34579895Y-41831698D01*
X34618600Y-41754288D01*
X34657304Y-41715583D01*
X34734714Y-41676879D01*
X34812123Y-41676879D01*
X34928238Y-41715583D01*
X35392695Y-42180040D01*
X35392695Y-41676879D01*
%TO.C,D3*%
X54392695Y-27365431D02*
X53579895Y-27365431D01*
X53579895Y-27171907D01*
X53618600Y-27055793D01*
X53696009Y-26978383D01*
X53773419Y-26939679D01*
X53928238Y-26900974D01*
X54044352Y-26900974D01*
X54199171Y-26939679D01*
X54276580Y-26978383D01*
X54353990Y-27055793D01*
X54392695Y-27171907D01*
X54392695Y-27365431D01*
X53579895Y-26630040D02*
X53579895Y-26126879D01*
X53889533Y-26397812D01*
X53889533Y-26281698D01*
X53928238Y-26204288D01*
X53966942Y-26165583D01*
X54044352Y-26126879D01*
X54237876Y-26126879D01*
X54315285Y-26165583D01*
X54353990Y-26204288D01*
X54392695Y-26281698D01*
X54392695Y-26513926D01*
X54353990Y-26591336D01*
X54315285Y-26630040D01*
%TO.C,D4*%
X73392695Y-24365431D02*
X72579895Y-24365431D01*
X72579895Y-24171907D01*
X72618600Y-24055793D01*
X72696009Y-23978383D01*
X72773419Y-23939679D01*
X72928238Y-23900974D01*
X73044352Y-23900974D01*
X73199171Y-23939679D01*
X73276580Y-23978383D01*
X73353990Y-24055793D01*
X73392695Y-24171907D01*
X73392695Y-24365431D01*
X72850828Y-23204288D02*
X73392695Y-23204288D01*
X72541190Y-23397812D02*
X73121761Y-23591336D01*
X73121761Y-23088174D01*
%TO.C,D5*%
X92392695Y-34365431D02*
X91579895Y-34365431D01*
X91579895Y-34171907D01*
X91618600Y-34055793D01*
X91696009Y-33978383D01*
X91773419Y-33939679D01*
X91928238Y-33900974D01*
X92044352Y-33900974D01*
X92199171Y-33939679D01*
X92276580Y-33978383D01*
X92353990Y-34055793D01*
X92392695Y-34171907D01*
X92392695Y-34365431D01*
X91579895Y-33165583D02*
X91579895Y-33552631D01*
X91966942Y-33591336D01*
X91928238Y-33552631D01*
X91889533Y-33475221D01*
X91889533Y-33281698D01*
X91928238Y-33204288D01*
X91966942Y-33165583D01*
X92044352Y-33126879D01*
X92237876Y-33126879D01*
X92315285Y-33165583D01*
X92353990Y-33204288D01*
X92392695Y-33281698D01*
X92392695Y-33475221D01*
X92353990Y-33552631D01*
X92315285Y-33591336D01*
%TO.C,D6*%
X111392695Y-36365431D02*
X110579895Y-36365431D01*
X110579895Y-36171907D01*
X110618600Y-36055793D01*
X110696009Y-35978383D01*
X110773419Y-35939679D01*
X110928238Y-35900974D01*
X111044352Y-35900974D01*
X111199171Y-35939679D01*
X111276580Y-35978383D01*
X111353990Y-36055793D01*
X111392695Y-36171907D01*
X111392695Y-36365431D01*
X110579895Y-35204288D02*
X110579895Y-35359107D01*
X110618600Y-35436517D01*
X110657304Y-35475221D01*
X110773419Y-35552631D01*
X110928238Y-35591336D01*
X111237876Y-35591336D01*
X111315285Y-35552631D01*
X111353990Y-35513926D01*
X111392695Y-35436517D01*
X111392695Y-35281698D01*
X111353990Y-35204288D01*
X111315285Y-35165583D01*
X111237876Y-35126879D01*
X111044352Y-35126879D01*
X110966942Y-35165583D01*
X110928238Y-35204288D01*
X110889533Y-35281698D01*
X110889533Y-35436517D01*
X110928238Y-35513926D01*
X110966942Y-35552631D01*
X111044352Y-35591336D01*
%TO.C,D7*%
X18092695Y-61715431D02*
X17279895Y-61715431D01*
X17279895Y-61521907D01*
X17318600Y-61405793D01*
X17396009Y-61328383D01*
X17473419Y-61289679D01*
X17628238Y-61250974D01*
X17744352Y-61250974D01*
X17899171Y-61289679D01*
X17976580Y-61328383D01*
X18053990Y-61405793D01*
X18092695Y-61521907D01*
X18092695Y-61715431D01*
X17279895Y-60980040D02*
X17279895Y-60438174D01*
X18092695Y-60786517D01*
%TO.C,D8*%
X35392695Y-61915431D02*
X34579895Y-61915431D01*
X34579895Y-61721907D01*
X34618600Y-61605793D01*
X34696009Y-61528383D01*
X34773419Y-61489679D01*
X34928238Y-61450974D01*
X35044352Y-61450974D01*
X35199171Y-61489679D01*
X35276580Y-61528383D01*
X35353990Y-61605793D01*
X35392695Y-61721907D01*
X35392695Y-61915431D01*
X34928238Y-60986517D02*
X34889533Y-61063926D01*
X34850828Y-61102631D01*
X34773419Y-61141336D01*
X34734714Y-61141336D01*
X34657304Y-61102631D01*
X34618600Y-61063926D01*
X34579895Y-60986517D01*
X34579895Y-60831698D01*
X34618600Y-60754288D01*
X34657304Y-60715583D01*
X34734714Y-60676879D01*
X34773419Y-60676879D01*
X34850828Y-60715583D01*
X34889533Y-60754288D01*
X34928238Y-60831698D01*
X34928238Y-60986517D01*
X34966942Y-61063926D01*
X35005647Y-61102631D01*
X35083057Y-61141336D01*
X35237876Y-61141336D01*
X35315285Y-61102631D01*
X35353990Y-61063926D01*
X35392695Y-60986517D01*
X35392695Y-60831698D01*
X35353990Y-60754288D01*
X35315285Y-60715583D01*
X35237876Y-60676879D01*
X35083057Y-60676879D01*
X35005647Y-60715583D01*
X34966942Y-60754288D01*
X34928238Y-60831698D01*
%TO.C,D9*%
X54392695Y-46365431D02*
X53579895Y-46365431D01*
X53579895Y-46171907D01*
X53618600Y-46055793D01*
X53696009Y-45978383D01*
X53773419Y-45939679D01*
X53928238Y-45900974D01*
X54044352Y-45900974D01*
X54199171Y-45939679D01*
X54276580Y-45978383D01*
X54353990Y-46055793D01*
X54392695Y-46171907D01*
X54392695Y-46365431D01*
X54392695Y-45513926D02*
X54392695Y-45359107D01*
X54353990Y-45281698D01*
X54315285Y-45242993D01*
X54199171Y-45165583D01*
X54044352Y-45126879D01*
X53734714Y-45126879D01*
X53657304Y-45165583D01*
X53618600Y-45204288D01*
X53579895Y-45281698D01*
X53579895Y-45436517D01*
X53618600Y-45513926D01*
X53657304Y-45552631D01*
X53734714Y-45591336D01*
X53928238Y-45591336D01*
X54005647Y-45552631D01*
X54044352Y-45513926D01*
X54083057Y-45436517D01*
X54083057Y-45281698D01*
X54044352Y-45204288D01*
X54005647Y-45165583D01*
X53928238Y-45126879D01*
%TO.C,D10*%
X73392695Y-44139526D02*
X72579895Y-44139526D01*
X72579895Y-43946002D01*
X72618600Y-43829888D01*
X72696009Y-43752479D01*
X72773419Y-43713774D01*
X72928238Y-43675069D01*
X73044352Y-43675069D01*
X73199171Y-43713774D01*
X73276580Y-43752479D01*
X73353990Y-43829888D01*
X73392695Y-43946002D01*
X73392695Y-44139526D01*
X73392695Y-42900974D02*
X73392695Y-43365431D01*
X73392695Y-43133202D02*
X72579895Y-43133202D01*
X72696009Y-43210612D01*
X72773419Y-43288021D01*
X72812123Y-43365431D01*
X72579895Y-42397812D02*
X72579895Y-42320402D01*
X72618600Y-42242993D01*
X72657304Y-42204288D01*
X72734714Y-42165583D01*
X72889533Y-42126879D01*
X73083057Y-42126879D01*
X73237876Y-42165583D01*
X73315285Y-42204288D01*
X73353990Y-42242993D01*
X73392695Y-42320402D01*
X73392695Y-42397812D01*
X73353990Y-42475221D01*
X73315285Y-42513926D01*
X73237876Y-42552631D01*
X73083057Y-42591336D01*
X72889533Y-42591336D01*
X72734714Y-42552631D01*
X72657304Y-42513926D01*
X72618600Y-42475221D01*
X72579895Y-42397812D01*
%TO.C,D11*%
X92392695Y-54139526D02*
X91579895Y-54139526D01*
X91579895Y-53946002D01*
X91618600Y-53829888D01*
X91696009Y-53752479D01*
X91773419Y-53713774D01*
X91928238Y-53675069D01*
X92044352Y-53675069D01*
X92199171Y-53713774D01*
X92276580Y-53752479D01*
X92353990Y-53829888D01*
X92392695Y-53946002D01*
X92392695Y-54139526D01*
X92392695Y-52900974D02*
X92392695Y-53365431D01*
X92392695Y-53133202D02*
X91579895Y-53133202D01*
X91696009Y-53210612D01*
X91773419Y-53288021D01*
X91812123Y-53365431D01*
X92392695Y-52126879D02*
X92392695Y-52591336D01*
X92392695Y-52359107D02*
X91579895Y-52359107D01*
X91696009Y-52436517D01*
X91773419Y-52513926D01*
X91812123Y-52591336D01*
%TO.C,D12*%
X111392695Y-56139526D02*
X110579895Y-56139526D01*
X110579895Y-55946002D01*
X110618600Y-55829888D01*
X110696009Y-55752479D01*
X110773419Y-55713774D01*
X110928238Y-55675069D01*
X111044352Y-55675069D01*
X111199171Y-55713774D01*
X111276580Y-55752479D01*
X111353990Y-55829888D01*
X111392695Y-55946002D01*
X111392695Y-56139526D01*
X111392695Y-54900974D02*
X111392695Y-55365431D01*
X111392695Y-55133202D02*
X110579895Y-55133202D01*
X110696009Y-55210612D01*
X110773419Y-55288021D01*
X110812123Y-55365431D01*
X110657304Y-54591336D02*
X110618600Y-54552631D01*
X110579895Y-54475221D01*
X110579895Y-54281698D01*
X110618600Y-54204288D01*
X110657304Y-54165583D01*
X110734714Y-54126879D01*
X110812123Y-54126879D01*
X110928238Y-54165583D01*
X111392695Y-54630040D01*
X111392695Y-54126879D01*
%TO.C,D13*%
X17898758Y-80428973D02*
X17085958Y-80428973D01*
X17085958Y-80235449D01*
X17124663Y-80119335D01*
X17202072Y-80041926D01*
X17279482Y-80003221D01*
X17434301Y-79964516D01*
X17550415Y-79964516D01*
X17705234Y-80003221D01*
X17782643Y-80041926D01*
X17860053Y-80119335D01*
X17898758Y-80235449D01*
X17898758Y-80428973D01*
X17898758Y-79190421D02*
X17898758Y-79654878D01*
X17898758Y-79422649D02*
X17085958Y-79422649D01*
X17202072Y-79500059D01*
X17279482Y-79577468D01*
X17318186Y-79654878D01*
X17085958Y-78919487D02*
X17085958Y-78416326D01*
X17395596Y-78687259D01*
X17395596Y-78571145D01*
X17434301Y-78493735D01*
X17473005Y-78455030D01*
X17550415Y-78416326D01*
X17743939Y-78416326D01*
X17821348Y-78455030D01*
X17860053Y-78493735D01*
X17898758Y-78571145D01*
X17898758Y-78803373D01*
X17860053Y-78880783D01*
X17821348Y-78919487D01*
%TO.C,D14*%
X35392695Y-81689526D02*
X34579895Y-81689526D01*
X34579895Y-81496002D01*
X34618600Y-81379888D01*
X34696009Y-81302479D01*
X34773419Y-81263774D01*
X34928238Y-81225069D01*
X35044352Y-81225069D01*
X35199171Y-81263774D01*
X35276580Y-81302479D01*
X35353990Y-81379888D01*
X35392695Y-81496002D01*
X35392695Y-81689526D01*
X35392695Y-80450974D02*
X35392695Y-80915431D01*
X35392695Y-80683202D02*
X34579895Y-80683202D01*
X34696009Y-80760612D01*
X34773419Y-80838021D01*
X34812123Y-80915431D01*
X34850828Y-79754288D02*
X35392695Y-79754288D01*
X34541190Y-79947812D02*
X35121761Y-80141336D01*
X35121761Y-79638174D01*
%TO.C,D15*%
X54392695Y-66139526D02*
X53579895Y-66139526D01*
X53579895Y-65946002D01*
X53618600Y-65829888D01*
X53696009Y-65752479D01*
X53773419Y-65713774D01*
X53928238Y-65675069D01*
X54044352Y-65675069D01*
X54199171Y-65713774D01*
X54276580Y-65752479D01*
X54353990Y-65829888D01*
X54392695Y-65946002D01*
X54392695Y-66139526D01*
X54392695Y-64900974D02*
X54392695Y-65365431D01*
X54392695Y-65133202D02*
X53579895Y-65133202D01*
X53696009Y-65210612D01*
X53773419Y-65288021D01*
X53812123Y-65365431D01*
X53579895Y-64165583D02*
X53579895Y-64552631D01*
X53966942Y-64591336D01*
X53928238Y-64552631D01*
X53889533Y-64475221D01*
X53889533Y-64281698D01*
X53928238Y-64204288D01*
X53966942Y-64165583D01*
X54044352Y-64126879D01*
X54237876Y-64126879D01*
X54315285Y-64165583D01*
X54353990Y-64204288D01*
X54392695Y-64281698D01*
X54392695Y-64475221D01*
X54353990Y-64552631D01*
X54315285Y-64591336D01*
%TO.C,D16*%
X71898182Y-63659380D02*
X71085382Y-63659380D01*
X71085382Y-63465856D01*
X71124087Y-63349742D01*
X71201496Y-63272333D01*
X71278906Y-63233628D01*
X71433725Y-63194923D01*
X71549839Y-63194923D01*
X71704658Y-63233628D01*
X71782067Y-63272333D01*
X71859477Y-63349742D01*
X71898182Y-63465856D01*
X71898182Y-63659380D01*
X71898182Y-62420828D02*
X71898182Y-62885285D01*
X71898182Y-62653056D02*
X71085382Y-62653056D01*
X71201496Y-62730466D01*
X71278906Y-62807875D01*
X71317610Y-62885285D01*
X71085382Y-61724142D02*
X71085382Y-61878961D01*
X71124087Y-61956371D01*
X71162791Y-61995075D01*
X71278906Y-62072485D01*
X71433725Y-62111190D01*
X71743363Y-62111190D01*
X71820772Y-62072485D01*
X71859477Y-62033780D01*
X71898182Y-61956371D01*
X71898182Y-61801552D01*
X71859477Y-61724142D01*
X71820772Y-61685437D01*
X71743363Y-61646733D01*
X71549839Y-61646733D01*
X71472429Y-61685437D01*
X71433725Y-61724142D01*
X71395020Y-61801552D01*
X71395020Y-61956371D01*
X71433725Y-62033780D01*
X71472429Y-62072485D01*
X71549839Y-62111190D01*
%TO.C,D17*%
X92392695Y-73139526D02*
X91579895Y-73139526D01*
X91579895Y-72946002D01*
X91618600Y-72829888D01*
X91696009Y-72752479D01*
X91773419Y-72713774D01*
X91928238Y-72675069D01*
X92044352Y-72675069D01*
X92199171Y-72713774D01*
X92276580Y-72752479D01*
X92353990Y-72829888D01*
X92392695Y-72946002D01*
X92392695Y-73139526D01*
X92392695Y-71900974D02*
X92392695Y-72365431D01*
X92392695Y-72133202D02*
X91579895Y-72133202D01*
X91696009Y-72210612D01*
X91773419Y-72288021D01*
X91812123Y-72365431D01*
X91579895Y-71630040D02*
X91579895Y-71088174D01*
X92392695Y-71436517D01*
%TO.C,D18*%
X111392695Y-75139526D02*
X110579895Y-75139526D01*
X110579895Y-74946002D01*
X110618600Y-74829888D01*
X110696009Y-74752479D01*
X110773419Y-74713774D01*
X110928238Y-74675069D01*
X111044352Y-74675069D01*
X111199171Y-74713774D01*
X111276580Y-74752479D01*
X111353990Y-74829888D01*
X111392695Y-74946002D01*
X111392695Y-75139526D01*
X111392695Y-73900974D02*
X111392695Y-74365431D01*
X111392695Y-74133202D02*
X110579895Y-74133202D01*
X110696009Y-74210612D01*
X110773419Y-74288021D01*
X110812123Y-74365431D01*
X110928238Y-73436517D02*
X110889533Y-73513926D01*
X110850828Y-73552631D01*
X110773419Y-73591336D01*
X110734714Y-73591336D01*
X110657304Y-73552631D01*
X110618600Y-73513926D01*
X110579895Y-73436517D01*
X110579895Y-73281698D01*
X110618600Y-73204288D01*
X110657304Y-73165583D01*
X110734714Y-73126879D01*
X110773419Y-73126879D01*
X110850828Y-73165583D01*
X110889533Y-73204288D01*
X110928238Y-73281698D01*
X110928238Y-73436517D01*
X110966942Y-73513926D01*
X111005647Y-73552631D01*
X111083057Y-73591336D01*
X111237876Y-73591336D01*
X111315285Y-73552631D01*
X111353990Y-73513926D01*
X111392695Y-73436517D01*
X111392695Y-73281698D01*
X111353990Y-73204288D01*
X111315285Y-73165583D01*
X111237876Y-73126879D01*
X111083057Y-73126879D01*
X111005647Y-73165583D01*
X110966942Y-73204288D01*
X110928238Y-73281698D01*
%TO.C,D19*%
X74429405Y-99085024D02*
X73616605Y-99085024D01*
X73616605Y-98891500D01*
X73655310Y-98775386D01*
X73732719Y-98697977D01*
X73810129Y-98659272D01*
X73964948Y-98620567D01*
X74081062Y-98620567D01*
X74235881Y-98659272D01*
X74313290Y-98697977D01*
X74390700Y-98775386D01*
X74429405Y-98891500D01*
X74429405Y-99085024D01*
X74429405Y-97846472D02*
X74429405Y-98310929D01*
X74429405Y-98078700D02*
X73616605Y-98078700D01*
X73732719Y-98156110D01*
X73810129Y-98233519D01*
X73848833Y-98310929D01*
X74429405Y-97459424D02*
X74429405Y-97304605D01*
X74390700Y-97227196D01*
X74351995Y-97188491D01*
X74235881Y-97111081D01*
X74081062Y-97072377D01*
X73771424Y-97072377D01*
X73694014Y-97111081D01*
X73655310Y-97149786D01*
X73616605Y-97227196D01*
X73616605Y-97382015D01*
X73655310Y-97459424D01*
X73694014Y-97498129D01*
X73771424Y-97536834D01*
X73964948Y-97536834D01*
X74042357Y-97498129D01*
X74081062Y-97459424D01*
X74119767Y-97382015D01*
X74119767Y-97227196D01*
X74081062Y-97149786D01*
X74042357Y-97111081D01*
X73964948Y-97072377D01*
%TO.C,D20*%
X78005195Y-92148526D02*
X77192395Y-92148526D01*
X77192395Y-91955002D01*
X77231100Y-91838888D01*
X77308509Y-91761479D01*
X77385919Y-91722774D01*
X77540738Y-91684069D01*
X77656852Y-91684069D01*
X77811671Y-91722774D01*
X77889080Y-91761479D01*
X77966490Y-91838888D01*
X78005195Y-91955002D01*
X78005195Y-92148526D01*
X77269804Y-91374431D02*
X77231100Y-91335726D01*
X77192395Y-91258317D01*
X77192395Y-91064793D01*
X77231100Y-90987383D01*
X77269804Y-90948679D01*
X77347214Y-90909974D01*
X77424623Y-90909974D01*
X77540738Y-90948679D01*
X78005195Y-91413136D01*
X78005195Y-90909974D01*
X77192395Y-90406812D02*
X77192395Y-90329402D01*
X77231100Y-90251993D01*
X77269804Y-90213288D01*
X77347214Y-90174583D01*
X77502033Y-90135879D01*
X77695557Y-90135879D01*
X77850376Y-90174583D01*
X77927785Y-90213288D01*
X77966490Y-90251993D01*
X78005195Y-90329402D01*
X78005195Y-90406812D01*
X77966490Y-90484221D01*
X77927785Y-90522926D01*
X77850376Y-90561631D01*
X77695557Y-90600336D01*
X77502033Y-90600336D01*
X77347214Y-90561631D01*
X77269804Y-90522926D01*
X77231100Y-90484221D01*
X77192395Y-90406812D01*
%TO.C,D21*%
X97005195Y-94148526D02*
X96192395Y-94148526D01*
X96192395Y-93955002D01*
X96231100Y-93838888D01*
X96308509Y-93761479D01*
X96385919Y-93722774D01*
X96540738Y-93684069D01*
X96656852Y-93684069D01*
X96811671Y-93722774D01*
X96889080Y-93761479D01*
X96966490Y-93838888D01*
X97005195Y-93955002D01*
X97005195Y-94148526D01*
X96269804Y-93374431D02*
X96231100Y-93335726D01*
X96192395Y-93258317D01*
X96192395Y-93064793D01*
X96231100Y-92987383D01*
X96269804Y-92948679D01*
X96347214Y-92909974D01*
X96424623Y-92909974D01*
X96540738Y-92948679D01*
X97005195Y-93413136D01*
X97005195Y-92909974D01*
X97005195Y-92135879D02*
X97005195Y-92600336D01*
X97005195Y-92368107D02*
X96192395Y-92368107D01*
X96308509Y-92445517D01*
X96385919Y-92522926D01*
X96424623Y-92600336D01*
%TO.C,D22*%
X159162114Y-106775136D02*
X159303255Y-105974685D01*
X159493839Y-106008290D01*
X159601468Y-106066569D01*
X159664260Y-106156245D01*
X159688934Y-106239200D01*
X159700167Y-106398388D01*
X159680004Y-106512738D01*
X159615003Y-106658484D01*
X159563444Y-106727996D01*
X159473769Y-106790788D01*
X159352698Y-106808741D01*
X159162114Y-106775136D01*
X160052148Y-106185338D02*
X160096986Y-106153943D01*
X160179940Y-106129268D01*
X160370524Y-106162873D01*
X160440037Y-106214432D01*
X160471432Y-106259270D01*
X160496107Y-106342224D01*
X160482665Y-106418458D01*
X160424385Y-106526087D01*
X159886332Y-106902836D01*
X160381850Y-106990209D01*
X160814483Y-106319759D02*
X160859321Y-106288363D01*
X160942275Y-106263688D01*
X161132859Y-106297293D01*
X161202372Y-106348852D01*
X161233767Y-106393690D01*
X161258442Y-106476644D01*
X161245000Y-106552878D01*
X161186720Y-106660507D01*
X160648667Y-107037256D01*
X161144185Y-107124629D01*
%TO.C,D23*%
X131891924Y-107033999D02*
X131091473Y-106892858D01*
X131125078Y-106702274D01*
X131183357Y-106594645D01*
X131273033Y-106531853D01*
X131355988Y-106507179D01*
X131515176Y-106495946D01*
X131629526Y-106516109D01*
X131775272Y-106581110D01*
X131844784Y-106632669D01*
X131907576Y-106722344D01*
X131925529Y-106843415D01*
X131891924Y-107033999D01*
X131302126Y-106143965D02*
X131270731Y-106099127D01*
X131246056Y-106016173D01*
X131279661Y-105825589D01*
X131331220Y-105756076D01*
X131376058Y-105724681D01*
X131459012Y-105700006D01*
X131535246Y-105713448D01*
X131642875Y-105771728D01*
X132019624Y-106309781D01*
X132106997Y-105814263D01*
X131353592Y-105406305D02*
X131440965Y-104910787D01*
X131698852Y-105231372D01*
X131719015Y-105117022D01*
X131770574Y-105047510D01*
X131815412Y-105016114D01*
X131898366Y-104991439D01*
X132088950Y-105025044D01*
X132158462Y-105076603D01*
X132189858Y-105121441D01*
X132214533Y-105204395D01*
X132174207Y-105433096D01*
X132122648Y-105502608D01*
X132077810Y-105534004D01*
%TO.C,D24*%
X150771924Y-109443999D02*
X149971473Y-109302858D01*
X150005078Y-109112274D01*
X150063357Y-109004645D01*
X150153033Y-108941853D01*
X150235988Y-108917179D01*
X150395176Y-108905946D01*
X150509526Y-108926109D01*
X150655272Y-108991110D01*
X150724784Y-109042669D01*
X150787576Y-109132344D01*
X150805529Y-109253415D01*
X150771924Y-109443999D01*
X150182126Y-108553965D02*
X150150731Y-108509127D01*
X150126056Y-108426173D01*
X150159661Y-108235589D01*
X150211220Y-108166076D01*
X150256058Y-108134681D01*
X150339012Y-108110006D01*
X150415246Y-108123448D01*
X150522875Y-108181728D01*
X150899624Y-108719781D01*
X150986997Y-108224263D01*
X150574340Y-107444068D02*
X151107975Y-107538162D01*
X150235801Y-107580883D02*
X150773948Y-107872282D01*
X150861321Y-107376764D01*
%TO.C,BZ1*%
D10*
X63867279Y-79368759D02*
X64010136Y-79416378D01*
X64057755Y-79463997D01*
X64105374Y-79559235D01*
X64105374Y-79702092D01*
X64057755Y-79797330D01*
X64010136Y-79844949D01*
X63914898Y-79892568D01*
X63533946Y-79892568D01*
X63533946Y-78892568D01*
X63867279Y-78892568D01*
X63962517Y-78940188D01*
X64010136Y-78987807D01*
X64057755Y-79083045D01*
X64057755Y-79178283D01*
X64010136Y-79273521D01*
X63962517Y-79321140D01*
X63867279Y-79368759D01*
X63533946Y-79368759D01*
X64438708Y-78892568D02*
X65105374Y-78892568D01*
X64438708Y-79892568D01*
X65105374Y-79892568D01*
X66010136Y-79892568D02*
X65438708Y-79892568D01*
X65724422Y-79892568D02*
X65724422Y-78892568D01*
X65629184Y-79035426D01*
X65533946Y-79130664D01*
X65438708Y-79178283D01*
%TO.C,J2*%
X164816058Y-98898555D02*
X164692024Y-99601989D01*
X164620321Y-99734407D01*
X164509992Y-99811661D01*
X164361036Y-99833749D01*
X164267245Y-99817211D01*
X165627218Y-100057011D02*
X165064471Y-99957784D01*
X165345844Y-100007397D02*
X165519492Y-99022590D01*
X165400894Y-99146739D01*
X165290565Y-99223992D01*
X165188505Y-99254350D01*
%TO.C,C1*%
X143292626Y-60328328D02*
X143292626Y-60395671D01*
X143225282Y-60530358D01*
X143157939Y-60597702D01*
X143023251Y-60665045D01*
X142888564Y-60665045D01*
X142787549Y-60631374D01*
X142619190Y-60530358D01*
X142518175Y-60429343D01*
X142417160Y-60260984D01*
X142383488Y-60159969D01*
X142383488Y-60025282D01*
X142450832Y-59890595D01*
X142518175Y-59823251D01*
X142652862Y-59755908D01*
X142720206Y-59755908D01*
X144033404Y-59722236D02*
X143629343Y-60126297D01*
X143831374Y-59924267D02*
X143124267Y-59217160D01*
X143157939Y-59385519D01*
X143157939Y-59520206D01*
X143124267Y-59621221D01*
%TO.C,C2*%
X142747549Y-75856748D02*
X142680206Y-75856748D01*
X142545519Y-75789404D01*
X142478175Y-75722061D01*
X142410832Y-75587373D01*
X142410832Y-75452686D01*
X142444503Y-75351671D01*
X142545519Y-75183312D01*
X142646534Y-75082297D01*
X142814893Y-74981282D01*
X142915908Y-74947610D01*
X143050595Y-74947610D01*
X143185282Y-75014954D01*
X143252626Y-75082297D01*
X143319969Y-75216984D01*
X143319969Y-75284328D01*
X143589343Y-75553702D02*
X143656687Y-75553702D01*
X143757702Y-75587373D01*
X143926061Y-75755732D01*
X143959732Y-75856748D01*
X143959732Y-75924091D01*
X143926061Y-76025106D01*
X143858717Y-76092450D01*
X143724030Y-76159793D01*
X142915908Y-76159793D01*
X143353641Y-76597526D01*
%TO.C,C4*%
X136160875Y-67400079D02*
X136160875Y-67467422D01*
X136093531Y-67602109D01*
X136026188Y-67669453D01*
X135891500Y-67736796D01*
X135756813Y-67736796D01*
X135655798Y-67703125D01*
X135487439Y-67602109D01*
X135386424Y-67501094D01*
X135285409Y-67332735D01*
X135251737Y-67231720D01*
X135251737Y-67097033D01*
X135319081Y-66962346D01*
X135386424Y-66895002D01*
X135521111Y-66827659D01*
X135588455Y-66827659D01*
X136362905Y-66389926D02*
X136834310Y-66861331D01*
X135925172Y-66288911D02*
X136261890Y-66962346D01*
X136699623Y-66524613D01*
%TO.C,C5*%
X146631361Y-57726438D02*
X146564018Y-57726438D01*
X146429331Y-57659094D01*
X146361987Y-57591751D01*
X146294644Y-57457063D01*
X146294644Y-57322376D01*
X146328315Y-57221361D01*
X146429331Y-57053002D01*
X146530346Y-56951987D01*
X146698705Y-56850972D01*
X146799720Y-56817300D01*
X146934407Y-56817300D01*
X147069094Y-56884644D01*
X147136438Y-56951987D01*
X147203781Y-57086674D01*
X147203781Y-57154018D01*
X147910888Y-57726438D02*
X147574170Y-57389720D01*
X147203781Y-57692766D01*
X147271125Y-57692766D01*
X147372140Y-57726438D01*
X147540499Y-57894796D01*
X147574170Y-57995812D01*
X147574170Y-58063155D01*
X147540499Y-58164170D01*
X147372140Y-58332529D01*
X147271125Y-58366201D01*
X147203781Y-58366201D01*
X147102766Y-58332529D01*
X146934407Y-58164170D01*
X146900735Y-58063155D01*
X146900735Y-57995812D01*
%TO.C,C9*%
X152987549Y-63816748D02*
X152920206Y-63816748D01*
X152785519Y-63749404D01*
X152718175Y-63682061D01*
X152650832Y-63547373D01*
X152650832Y-63412686D01*
X152684503Y-63311671D01*
X152785519Y-63143312D01*
X152886534Y-63042297D01*
X153054893Y-62941282D01*
X153155908Y-62907610D01*
X153290595Y-62907610D01*
X153425282Y-62974954D01*
X153492626Y-63042297D01*
X153559969Y-63176984D01*
X153559969Y-63244328D01*
X153256923Y-64220809D02*
X153391610Y-64355496D01*
X153492626Y-64389167D01*
X153559969Y-64389167D01*
X153728328Y-64355496D01*
X153896687Y-64254480D01*
X154166061Y-63985106D01*
X154199732Y-63884091D01*
X154199732Y-63816748D01*
X154166061Y-63715732D01*
X154031374Y-63581045D01*
X153930358Y-63547373D01*
X153863015Y-63547373D01*
X153762000Y-63581045D01*
X153593641Y-63749404D01*
X153559969Y-63850419D01*
X153559969Y-63917763D01*
X153593641Y-64018778D01*
X153728328Y-64153465D01*
X153829343Y-64187137D01*
X153896687Y-64187137D01*
X153997702Y-64153465D01*
%TO.C,C10*%
X133357142Y-77787142D02*
X133309523Y-77834761D01*
X133166666Y-77882380D01*
X133071428Y-77882380D01*
X132928571Y-77834761D01*
X132833333Y-77739523D01*
X132785714Y-77644285D01*
X132738095Y-77453809D01*
X132738095Y-77310952D01*
X132785714Y-77120476D01*
X132833333Y-77025238D01*
X132928571Y-76930000D01*
X133071428Y-76882380D01*
X133166666Y-76882380D01*
X133309523Y-76930000D01*
X133357142Y-76977619D01*
X134309523Y-77882380D02*
X133738095Y-77882380D01*
X134023809Y-77882380D02*
X134023809Y-76882380D01*
X133928571Y-77025238D01*
X133833333Y-77120476D01*
X133738095Y-77168095D01*
X134928571Y-76882380D02*
X135023809Y-76882380D01*
X135119047Y-76930000D01*
X135166666Y-76977619D01*
X135214285Y-77072857D01*
X135261904Y-77263333D01*
X135261904Y-77501428D01*
X135214285Y-77691904D01*
X135166666Y-77787142D01*
X135119047Y-77834761D01*
X135023809Y-77882380D01*
X134928571Y-77882380D01*
X134833333Y-77834761D01*
X134785714Y-77787142D01*
X134738095Y-77691904D01*
X134690476Y-77501428D01*
X134690476Y-77263333D01*
X134738095Y-77072857D01*
X134785714Y-76977619D01*
X134833333Y-76930000D01*
X134928571Y-76882380D01*
%TO.C,F2*%
X28453508Y-30754158D02*
X28120175Y-30754158D01*
X28120175Y-31277967D02*
X28120175Y-30277967D01*
X28596365Y-30277967D01*
X28929699Y-30373206D02*
X28977318Y-30325587D01*
X29072556Y-30277967D01*
X29310651Y-30277967D01*
X29405889Y-30325587D01*
X29453508Y-30373206D01*
X29501127Y-30468444D01*
X29501127Y-30563682D01*
X29453508Y-30706539D01*
X28882080Y-31277967D01*
X29501127Y-31277967D01*
%TO.C,R2*%
X152303333Y-62892380D02*
X151970000Y-62416190D01*
X151731904Y-62892380D02*
X151731904Y-61892380D01*
X152112857Y-61892380D01*
X152208095Y-61940000D01*
X152255714Y-61987619D01*
X152303333Y-62082857D01*
X152303333Y-62225714D01*
X152255714Y-62320952D01*
X152208095Y-62368571D01*
X152112857Y-62416190D01*
X151731904Y-62416190D01*
X152684285Y-61987619D02*
X152731904Y-61940000D01*
X152827142Y-61892380D01*
X153065238Y-61892380D01*
X153160476Y-61940000D01*
X153208095Y-61987619D01*
X153255714Y-62082857D01*
X153255714Y-62178095D01*
X153208095Y-62320952D01*
X152636666Y-62892380D01*
X153255714Y-62892380D01*
%TO.C,U1*%
X40073370Y-25059262D02*
X40073370Y-25868786D01*
X40120989Y-25964024D01*
X40168608Y-26011643D01*
X40263846Y-26059262D01*
X40454322Y-26059262D01*
X40549560Y-26011643D01*
X40597179Y-25964024D01*
X40644798Y-25868786D01*
X40644798Y-25059262D01*
X41644798Y-26059262D02*
X41073370Y-26059262D01*
X41359084Y-26059262D02*
X41359084Y-25059262D01*
X41263846Y-25202120D01*
X41168608Y-25297358D01*
X41073370Y-25344977D01*
%TO.C,X1*%
X152524687Y-77527306D02*
X153703198Y-77763008D01*
X152996091Y-77055902D02*
X153231793Y-78234413D01*
X154342961Y-77123245D02*
X153938900Y-77527306D01*
X154140931Y-77325276D02*
X153433824Y-76618169D01*
X153467496Y-76786528D01*
X153467496Y-76921215D01*
X153433824Y-77022230D01*
%TO.C,L1*%
D13*
X24089533Y-40989695D02*
X23702485Y-40989695D01*
X23702485Y-40176895D01*
X24786219Y-40989695D02*
X24321761Y-40989695D01*
X24553990Y-40989695D02*
X24553990Y-40176895D01*
X24476580Y-40293009D01*
X24399171Y-40370419D01*
X24321761Y-40409123D01*
D10*
X22891666Y-38964904D02*
X22891666Y-38164904D01*
X22891666Y-38545857D02*
X23348809Y-38545857D01*
X23348809Y-38964904D02*
X23348809Y-38164904D01*
X23882142Y-38164904D02*
X24034523Y-38164904D01*
X24110714Y-38203000D01*
X24186904Y-38279190D01*
X24225000Y-38431571D01*
X24225000Y-38698238D01*
X24186904Y-38850619D01*
X24110714Y-38926809D01*
X24034523Y-38964904D01*
X23882142Y-38964904D01*
X23805952Y-38926809D01*
X23729761Y-38850619D01*
X23691666Y-38698238D01*
X23691666Y-38431571D01*
X23729761Y-38279190D01*
X23805952Y-38203000D01*
X23882142Y-38164904D01*
X24948809Y-38964904D02*
X24567857Y-38964904D01*
X24567857Y-38164904D01*
X25215476Y-38545857D02*
X25482142Y-38545857D01*
X25596428Y-38964904D02*
X25215476Y-38964904D01*
X25215476Y-38164904D01*
X25596428Y-38164904D01*
%TO.C,L2*%
D13*
X43089533Y-39689695D02*
X42702485Y-39689695D01*
X42702485Y-38876895D01*
X43321761Y-38954304D02*
X43360466Y-38915600D01*
X43437876Y-38876895D01*
X43631400Y-38876895D01*
X43708809Y-38915600D01*
X43747514Y-38954304D01*
X43786219Y-39031714D01*
X43786219Y-39109123D01*
X43747514Y-39225238D01*
X43283057Y-39689695D01*
X43786219Y-39689695D01*
D10*
X41891666Y-37664904D02*
X41891666Y-36864904D01*
X41891666Y-37245857D02*
X42348809Y-37245857D01*
X42348809Y-37664904D02*
X42348809Y-36864904D01*
X42882142Y-36864904D02*
X43034523Y-36864904D01*
X43110714Y-36903000D01*
X43186904Y-36979190D01*
X43225000Y-37131571D01*
X43225000Y-37398238D01*
X43186904Y-37550619D01*
X43110714Y-37626809D01*
X43034523Y-37664904D01*
X42882142Y-37664904D01*
X42805952Y-37626809D01*
X42729761Y-37550619D01*
X42691666Y-37398238D01*
X42691666Y-37131571D01*
X42729761Y-36979190D01*
X42805952Y-36903000D01*
X42882142Y-36864904D01*
X43948809Y-37664904D02*
X43567857Y-37664904D01*
X43567857Y-36864904D01*
X44215476Y-37245857D02*
X44482142Y-37245857D01*
X44596428Y-37664904D02*
X44215476Y-37664904D01*
X44215476Y-36864904D01*
X44596428Y-36864904D01*
%TO.C,L3*%
D13*
X62089533Y-24139695D02*
X61702485Y-24139695D01*
X61702485Y-23326895D01*
X62283057Y-23326895D02*
X62786219Y-23326895D01*
X62515285Y-23636533D01*
X62631400Y-23636533D01*
X62708809Y-23675238D01*
X62747514Y-23713942D01*
X62786219Y-23791352D01*
X62786219Y-23984876D01*
X62747514Y-24062285D01*
X62708809Y-24100990D01*
X62631400Y-24139695D01*
X62399171Y-24139695D01*
X62321761Y-24100990D01*
X62283057Y-24062285D01*
D10*
X60891666Y-22114904D02*
X60891666Y-21314904D01*
X60891666Y-21695857D02*
X61348809Y-21695857D01*
X61348809Y-22114904D02*
X61348809Y-21314904D01*
X61882142Y-21314904D02*
X62034523Y-21314904D01*
X62110714Y-21353000D01*
X62186904Y-21429190D01*
X62225000Y-21581571D01*
X62225000Y-21848238D01*
X62186904Y-22000619D01*
X62110714Y-22076809D01*
X62034523Y-22114904D01*
X61882142Y-22114904D01*
X61805952Y-22076809D01*
X61729761Y-22000619D01*
X61691666Y-21848238D01*
X61691666Y-21581571D01*
X61729761Y-21429190D01*
X61805952Y-21353000D01*
X61882142Y-21314904D01*
X62948809Y-22114904D02*
X62567857Y-22114904D01*
X62567857Y-21314904D01*
X63215476Y-21695857D02*
X63482142Y-21695857D01*
X63596428Y-22114904D02*
X63215476Y-22114904D01*
X63215476Y-21314904D01*
X63596428Y-21314904D01*
%TO.C,L4*%
D13*
X81089533Y-21139695D02*
X80702485Y-21139695D01*
X80702485Y-20326895D01*
X81708809Y-20597828D02*
X81708809Y-21139695D01*
X81515285Y-20288190D02*
X81321761Y-20868761D01*
X81824923Y-20868761D01*
D10*
X79891666Y-19114904D02*
X79891666Y-18314904D01*
X79891666Y-18695857D02*
X80348809Y-18695857D01*
X80348809Y-19114904D02*
X80348809Y-18314904D01*
X80882142Y-18314904D02*
X81034523Y-18314904D01*
X81110714Y-18353000D01*
X81186904Y-18429190D01*
X81225000Y-18581571D01*
X81225000Y-18848238D01*
X81186904Y-19000619D01*
X81110714Y-19076809D01*
X81034523Y-19114904D01*
X80882142Y-19114904D01*
X80805952Y-19076809D01*
X80729761Y-19000619D01*
X80691666Y-18848238D01*
X80691666Y-18581571D01*
X80729761Y-18429190D01*
X80805952Y-18353000D01*
X80882142Y-18314904D01*
X81948809Y-19114904D02*
X81567857Y-19114904D01*
X81567857Y-18314904D01*
X82215476Y-18695857D02*
X82482142Y-18695857D01*
X82596428Y-19114904D02*
X82215476Y-19114904D01*
X82215476Y-18314904D01*
X82596428Y-18314904D01*
%TO.C,L5*%
D13*
X100089533Y-31139695D02*
X99702485Y-31139695D01*
X99702485Y-30326895D01*
X100747514Y-30326895D02*
X100360466Y-30326895D01*
X100321761Y-30713942D01*
X100360466Y-30675238D01*
X100437876Y-30636533D01*
X100631400Y-30636533D01*
X100708809Y-30675238D01*
X100747514Y-30713942D01*
X100786219Y-30791352D01*
X100786219Y-30984876D01*
X100747514Y-31062285D01*
X100708809Y-31100990D01*
X100631400Y-31139695D01*
X100437876Y-31139695D01*
X100360466Y-31100990D01*
X100321761Y-31062285D01*
D10*
X98891666Y-29114904D02*
X98891666Y-28314904D01*
X98891666Y-28695857D02*
X99348809Y-28695857D01*
X99348809Y-29114904D02*
X99348809Y-28314904D01*
X99882142Y-28314904D02*
X100034523Y-28314904D01*
X100110714Y-28353000D01*
X100186904Y-28429190D01*
X100225000Y-28581571D01*
X100225000Y-28848238D01*
X100186904Y-29000619D01*
X100110714Y-29076809D01*
X100034523Y-29114904D01*
X99882142Y-29114904D01*
X99805952Y-29076809D01*
X99729761Y-29000619D01*
X99691666Y-28848238D01*
X99691666Y-28581571D01*
X99729761Y-28429190D01*
X99805952Y-28353000D01*
X99882142Y-28314904D01*
X100948809Y-29114904D02*
X100567857Y-29114904D01*
X100567857Y-28314904D01*
X101215476Y-28695857D02*
X101482142Y-28695857D01*
X101596428Y-29114904D02*
X101215476Y-29114904D01*
X101215476Y-28314904D01*
X101596428Y-28314904D01*
%TO.C,L6*%
D13*
X119089533Y-33139695D02*
X118702485Y-33139695D01*
X118702485Y-32326895D01*
X119708809Y-32326895D02*
X119553990Y-32326895D01*
X119476580Y-32365600D01*
X119437876Y-32404304D01*
X119360466Y-32520419D01*
X119321761Y-32675238D01*
X119321761Y-32984876D01*
X119360466Y-33062285D01*
X119399171Y-33100990D01*
X119476580Y-33139695D01*
X119631400Y-33139695D01*
X119708809Y-33100990D01*
X119747514Y-33062285D01*
X119786219Y-32984876D01*
X119786219Y-32791352D01*
X119747514Y-32713942D01*
X119708809Y-32675238D01*
X119631400Y-32636533D01*
X119476580Y-32636533D01*
X119399171Y-32675238D01*
X119360466Y-32713942D01*
X119321761Y-32791352D01*
D10*
X117891666Y-31114904D02*
X117891666Y-30314904D01*
X117891666Y-30695857D02*
X118348809Y-30695857D01*
X118348809Y-31114904D02*
X118348809Y-30314904D01*
X118882142Y-30314904D02*
X119034523Y-30314904D01*
X119110714Y-30353000D01*
X119186904Y-30429190D01*
X119225000Y-30581571D01*
X119225000Y-30848238D01*
X119186904Y-31000619D01*
X119110714Y-31076809D01*
X119034523Y-31114904D01*
X118882142Y-31114904D01*
X118805952Y-31076809D01*
X118729761Y-31000619D01*
X118691666Y-30848238D01*
X118691666Y-30581571D01*
X118729761Y-30429190D01*
X118805952Y-30353000D01*
X118882142Y-30314904D01*
X119948809Y-31114904D02*
X119567857Y-31114904D01*
X119567857Y-30314904D01*
X120215476Y-30695857D02*
X120482142Y-30695857D01*
X120596428Y-31114904D02*
X120215476Y-31114904D01*
X120215476Y-30314904D01*
X120596428Y-30314904D01*
%TO.C,L7*%
D13*
X24089533Y-54427695D02*
X23702485Y-54427695D01*
X23702485Y-53614895D01*
X24283057Y-53614895D02*
X24824923Y-53614895D01*
X24476580Y-54427695D01*
D10*
X22891666Y-56440904D02*
X22891666Y-55640904D01*
X22891666Y-56021857D02*
X23348809Y-56021857D01*
X23348809Y-56440904D02*
X23348809Y-55640904D01*
X23882142Y-55640904D02*
X24034523Y-55640904D01*
X24110714Y-55679000D01*
X24186904Y-55755190D01*
X24225000Y-55907571D01*
X24225000Y-56174238D01*
X24186904Y-56326619D01*
X24110714Y-56402809D01*
X24034523Y-56440904D01*
X23882142Y-56440904D01*
X23805952Y-56402809D01*
X23729761Y-56326619D01*
X23691666Y-56174238D01*
X23691666Y-55907571D01*
X23729761Y-55755190D01*
X23805952Y-55679000D01*
X23882142Y-55640904D01*
X24948809Y-56440904D02*
X24567857Y-56440904D01*
X24567857Y-55640904D01*
X25215476Y-56021857D02*
X25482142Y-56021857D01*
X25596428Y-56440904D02*
X25215476Y-56440904D01*
X25215476Y-55640904D01*
X25596428Y-55640904D01*
%TO.C,L8*%
D13*
X43089533Y-53127695D02*
X42702485Y-53127695D01*
X42702485Y-52314895D01*
X43476580Y-52663238D02*
X43399171Y-52624533D01*
X43360466Y-52585828D01*
X43321761Y-52508419D01*
X43321761Y-52469714D01*
X43360466Y-52392304D01*
X43399171Y-52353600D01*
X43476580Y-52314895D01*
X43631400Y-52314895D01*
X43708809Y-52353600D01*
X43747514Y-52392304D01*
X43786219Y-52469714D01*
X43786219Y-52508419D01*
X43747514Y-52585828D01*
X43708809Y-52624533D01*
X43631400Y-52663238D01*
X43476580Y-52663238D01*
X43399171Y-52701942D01*
X43360466Y-52740647D01*
X43321761Y-52818057D01*
X43321761Y-52972876D01*
X43360466Y-53050285D01*
X43399171Y-53088990D01*
X43476580Y-53127695D01*
X43631400Y-53127695D01*
X43708809Y-53088990D01*
X43747514Y-53050285D01*
X43786219Y-52972876D01*
X43786219Y-52818057D01*
X43747514Y-52740647D01*
X43708809Y-52701942D01*
X43631400Y-52663238D01*
D10*
X41891666Y-55140904D02*
X41891666Y-54340904D01*
X41891666Y-54721857D02*
X42348809Y-54721857D01*
X42348809Y-55140904D02*
X42348809Y-54340904D01*
X42882142Y-54340904D02*
X43034523Y-54340904D01*
X43110714Y-54379000D01*
X43186904Y-54455190D01*
X43225000Y-54607571D01*
X43225000Y-54874238D01*
X43186904Y-55026619D01*
X43110714Y-55102809D01*
X43034523Y-55140904D01*
X42882142Y-55140904D01*
X42805952Y-55102809D01*
X42729761Y-55026619D01*
X42691666Y-54874238D01*
X42691666Y-54607571D01*
X42729761Y-54455190D01*
X42805952Y-54379000D01*
X42882142Y-54340904D01*
X43948809Y-55140904D02*
X43567857Y-55140904D01*
X43567857Y-54340904D01*
X44215476Y-54721857D02*
X44482142Y-54721857D01*
X44596428Y-55140904D02*
X44215476Y-55140904D01*
X44215476Y-54340904D01*
X44596428Y-54340904D01*
%TO.C,L9*%
D13*
X62089533Y-37577695D02*
X61702485Y-37577695D01*
X61702485Y-36764895D01*
X62399171Y-37577695D02*
X62553990Y-37577695D01*
X62631400Y-37538990D01*
X62670104Y-37500285D01*
X62747514Y-37384171D01*
X62786219Y-37229352D01*
X62786219Y-36919714D01*
X62747514Y-36842304D01*
X62708809Y-36803600D01*
X62631400Y-36764895D01*
X62476580Y-36764895D01*
X62399171Y-36803600D01*
X62360466Y-36842304D01*
X62321761Y-36919714D01*
X62321761Y-37113238D01*
X62360466Y-37190647D01*
X62399171Y-37229352D01*
X62476580Y-37268057D01*
X62631400Y-37268057D01*
X62708809Y-37229352D01*
X62747514Y-37190647D01*
X62786219Y-37113238D01*
D10*
X60891666Y-39590904D02*
X60891666Y-38790904D01*
X60891666Y-39171857D02*
X61348809Y-39171857D01*
X61348809Y-39590904D02*
X61348809Y-38790904D01*
X61882142Y-38790904D02*
X62034523Y-38790904D01*
X62110714Y-38829000D01*
X62186904Y-38905190D01*
X62225000Y-39057571D01*
X62225000Y-39324238D01*
X62186904Y-39476619D01*
X62110714Y-39552809D01*
X62034523Y-39590904D01*
X61882142Y-39590904D01*
X61805952Y-39552809D01*
X61729761Y-39476619D01*
X61691666Y-39324238D01*
X61691666Y-39057571D01*
X61729761Y-38905190D01*
X61805952Y-38829000D01*
X61882142Y-38790904D01*
X62948809Y-39590904D02*
X62567857Y-39590904D01*
X62567857Y-38790904D01*
X63215476Y-39171857D02*
X63482142Y-39171857D01*
X63596428Y-39590904D02*
X63215476Y-39590904D01*
X63215476Y-38790904D01*
X63596428Y-38790904D01*
%TO.C,L10*%
D13*
X80702485Y-34577695D02*
X80315438Y-34577695D01*
X80315438Y-33764895D01*
X81399171Y-34577695D02*
X80934714Y-34577695D01*
X81166942Y-34577695D02*
X81166942Y-33764895D01*
X81089533Y-33881009D01*
X81012123Y-33958419D01*
X80934714Y-33997123D01*
X81902333Y-33764895D02*
X81979742Y-33764895D01*
X82057152Y-33803600D01*
X82095857Y-33842304D01*
X82134561Y-33919714D01*
X82173266Y-34074533D01*
X82173266Y-34268057D01*
X82134561Y-34422876D01*
X82095857Y-34500285D01*
X82057152Y-34538990D01*
X81979742Y-34577695D01*
X81902333Y-34577695D01*
X81824923Y-34538990D01*
X81786219Y-34500285D01*
X81747514Y-34422876D01*
X81708809Y-34268057D01*
X81708809Y-34074533D01*
X81747514Y-33919714D01*
X81786219Y-33842304D01*
X81824923Y-33803600D01*
X81902333Y-33764895D01*
D10*
X79891666Y-36590904D02*
X79891666Y-35790904D01*
X79891666Y-36171857D02*
X80348809Y-36171857D01*
X80348809Y-36590904D02*
X80348809Y-35790904D01*
X80882142Y-35790904D02*
X81034523Y-35790904D01*
X81110714Y-35829000D01*
X81186904Y-35905190D01*
X81225000Y-36057571D01*
X81225000Y-36324238D01*
X81186904Y-36476619D01*
X81110714Y-36552809D01*
X81034523Y-36590904D01*
X80882142Y-36590904D01*
X80805952Y-36552809D01*
X80729761Y-36476619D01*
X80691666Y-36324238D01*
X80691666Y-36057571D01*
X80729761Y-35905190D01*
X80805952Y-35829000D01*
X80882142Y-35790904D01*
X81948809Y-36590904D02*
X81567857Y-36590904D01*
X81567857Y-35790904D01*
X82215476Y-36171857D02*
X82482142Y-36171857D01*
X82596428Y-36590904D02*
X82215476Y-36590904D01*
X82215476Y-35790904D01*
X82596428Y-35790904D01*
%TO.C,L11*%
D13*
X99702485Y-44577695D02*
X99315438Y-44577695D01*
X99315438Y-43764895D01*
X100399171Y-44577695D02*
X99934714Y-44577695D01*
X100166942Y-44577695D02*
X100166942Y-43764895D01*
X100089533Y-43881009D01*
X100012123Y-43958419D01*
X99934714Y-43997123D01*
X101173266Y-44577695D02*
X100708809Y-44577695D01*
X100941038Y-44577695D02*
X100941038Y-43764895D01*
X100863628Y-43881009D01*
X100786219Y-43958419D01*
X100708809Y-43997123D01*
D10*
X98891666Y-46590904D02*
X98891666Y-45790904D01*
X98891666Y-46171857D02*
X99348809Y-46171857D01*
X99348809Y-46590904D02*
X99348809Y-45790904D01*
X99882142Y-45790904D02*
X100034523Y-45790904D01*
X100110714Y-45829000D01*
X100186904Y-45905190D01*
X100225000Y-46057571D01*
X100225000Y-46324238D01*
X100186904Y-46476619D01*
X100110714Y-46552809D01*
X100034523Y-46590904D01*
X99882142Y-46590904D01*
X99805952Y-46552809D01*
X99729761Y-46476619D01*
X99691666Y-46324238D01*
X99691666Y-46057571D01*
X99729761Y-45905190D01*
X99805952Y-45829000D01*
X99882142Y-45790904D01*
X100948809Y-46590904D02*
X100567857Y-46590904D01*
X100567857Y-45790904D01*
X101215476Y-46171857D02*
X101482142Y-46171857D01*
X101596428Y-46590904D02*
X101215476Y-46590904D01*
X101215476Y-45790904D01*
X101596428Y-45790904D01*
%TO.C,L12*%
D13*
X118702485Y-46577695D02*
X118315438Y-46577695D01*
X118315438Y-45764895D01*
X119399171Y-46577695D02*
X118934714Y-46577695D01*
X119166942Y-46577695D02*
X119166942Y-45764895D01*
X119089533Y-45881009D01*
X119012123Y-45958419D01*
X118934714Y-45997123D01*
X119708809Y-45842304D02*
X119747514Y-45803600D01*
X119824923Y-45764895D01*
X120018447Y-45764895D01*
X120095857Y-45803600D01*
X120134561Y-45842304D01*
X120173266Y-45919714D01*
X120173266Y-45997123D01*
X120134561Y-46113238D01*
X119670104Y-46577695D01*
X120173266Y-46577695D01*
D10*
X117891666Y-48590904D02*
X117891666Y-47790904D01*
X117891666Y-48171857D02*
X118348809Y-48171857D01*
X118348809Y-48590904D02*
X118348809Y-47790904D01*
X118882142Y-47790904D02*
X119034523Y-47790904D01*
X119110714Y-47829000D01*
X119186904Y-47905190D01*
X119225000Y-48057571D01*
X119225000Y-48324238D01*
X119186904Y-48476619D01*
X119110714Y-48552809D01*
X119034523Y-48590904D01*
X118882142Y-48590904D01*
X118805952Y-48552809D01*
X118729761Y-48476619D01*
X118691666Y-48324238D01*
X118691666Y-48057571D01*
X118729761Y-47905190D01*
X118805952Y-47829000D01*
X118882142Y-47790904D01*
X119948809Y-48590904D02*
X119567857Y-48590904D01*
X119567857Y-47790904D01*
X120215476Y-48171857D02*
X120482142Y-48171857D01*
X120596428Y-48590904D02*
X120215476Y-48590904D01*
X120215476Y-47790904D01*
X120596428Y-47790904D01*
%TO.C,L13*%
D13*
X23702485Y-78989695D02*
X23315438Y-78989695D01*
X23315438Y-78176895D01*
X24399171Y-78989695D02*
X23934714Y-78989695D01*
X24166942Y-78989695D02*
X24166942Y-78176895D01*
X24089533Y-78293009D01*
X24012123Y-78370419D01*
X23934714Y-78409123D01*
X24670104Y-78176895D02*
X25173266Y-78176895D01*
X24902333Y-78486533D01*
X25018447Y-78486533D01*
X25095857Y-78525238D01*
X25134561Y-78563942D01*
X25173266Y-78641352D01*
X25173266Y-78834876D01*
X25134561Y-78912285D01*
X25095857Y-78950990D01*
X25018447Y-78989695D01*
X24786219Y-78989695D01*
X24708809Y-78950990D01*
X24670104Y-78912285D01*
D10*
X22891666Y-76964904D02*
X22891666Y-76164904D01*
X22891666Y-76545857D02*
X23348809Y-76545857D01*
X23348809Y-76964904D02*
X23348809Y-76164904D01*
X23882142Y-76164904D02*
X24034523Y-76164904D01*
X24110714Y-76203000D01*
X24186904Y-76279190D01*
X24225000Y-76431571D01*
X24225000Y-76698238D01*
X24186904Y-76850619D01*
X24110714Y-76926809D01*
X24034523Y-76964904D01*
X23882142Y-76964904D01*
X23805952Y-76926809D01*
X23729761Y-76850619D01*
X23691666Y-76698238D01*
X23691666Y-76431571D01*
X23729761Y-76279190D01*
X23805952Y-76203000D01*
X23882142Y-76164904D01*
X24948809Y-76964904D02*
X24567857Y-76964904D01*
X24567857Y-76164904D01*
X25215476Y-76545857D02*
X25482142Y-76545857D01*
X25596428Y-76964904D02*
X25215476Y-76964904D01*
X25215476Y-76164904D01*
X25596428Y-76164904D01*
%TO.C,L14*%
D13*
X42702485Y-77689695D02*
X42315438Y-77689695D01*
X42315438Y-76876895D01*
X43399171Y-77689695D02*
X42934714Y-77689695D01*
X43166942Y-77689695D02*
X43166942Y-76876895D01*
X43089533Y-76993009D01*
X43012123Y-77070419D01*
X42934714Y-77109123D01*
X44095857Y-77147828D02*
X44095857Y-77689695D01*
X43902333Y-76838190D02*
X43708809Y-77418761D01*
X44211971Y-77418761D01*
D10*
X41891666Y-75664904D02*
X41891666Y-74864904D01*
X41891666Y-75245857D02*
X42348809Y-75245857D01*
X42348809Y-75664904D02*
X42348809Y-74864904D01*
X42882142Y-74864904D02*
X43034523Y-74864904D01*
X43110714Y-74903000D01*
X43186904Y-74979190D01*
X43225000Y-75131571D01*
X43225000Y-75398238D01*
X43186904Y-75550619D01*
X43110714Y-75626809D01*
X43034523Y-75664904D01*
X42882142Y-75664904D01*
X42805952Y-75626809D01*
X42729761Y-75550619D01*
X42691666Y-75398238D01*
X42691666Y-75131571D01*
X42729761Y-74979190D01*
X42805952Y-74903000D01*
X42882142Y-74864904D01*
X43948809Y-75664904D02*
X43567857Y-75664904D01*
X43567857Y-74864904D01*
X44215476Y-75245857D02*
X44482142Y-75245857D01*
X44596428Y-75664904D02*
X44215476Y-75664904D01*
X44215476Y-74864904D01*
X44596428Y-74864904D01*
%TO.C,L15*%
D13*
X61702485Y-62139695D02*
X61315438Y-62139695D01*
X61315438Y-61326895D01*
X62399171Y-62139695D02*
X61934714Y-62139695D01*
X62166942Y-62139695D02*
X62166942Y-61326895D01*
X62089533Y-61443009D01*
X62012123Y-61520419D01*
X61934714Y-61559123D01*
X63134561Y-61326895D02*
X62747514Y-61326895D01*
X62708809Y-61713942D01*
X62747514Y-61675238D01*
X62824923Y-61636533D01*
X63018447Y-61636533D01*
X63095857Y-61675238D01*
X63134561Y-61713942D01*
X63173266Y-61791352D01*
X63173266Y-61984876D01*
X63134561Y-62062285D01*
X63095857Y-62100990D01*
X63018447Y-62139695D01*
X62824923Y-62139695D01*
X62747514Y-62100990D01*
X62708809Y-62062285D01*
D10*
X60891666Y-60114904D02*
X60891666Y-59314904D01*
X60891666Y-59695857D02*
X61348809Y-59695857D01*
X61348809Y-60114904D02*
X61348809Y-59314904D01*
X61882142Y-59314904D02*
X62034523Y-59314904D01*
X62110714Y-59353000D01*
X62186904Y-59429190D01*
X62225000Y-59581571D01*
X62225000Y-59848238D01*
X62186904Y-60000619D01*
X62110714Y-60076809D01*
X62034523Y-60114904D01*
X61882142Y-60114904D01*
X61805952Y-60076809D01*
X61729761Y-60000619D01*
X61691666Y-59848238D01*
X61691666Y-59581571D01*
X61729761Y-59429190D01*
X61805952Y-59353000D01*
X61882142Y-59314904D01*
X62948809Y-60114904D02*
X62567857Y-60114904D01*
X62567857Y-59314904D01*
X63215476Y-59695857D02*
X63482142Y-59695857D01*
X63596428Y-60114904D02*
X63215476Y-60114904D01*
X63215476Y-59314904D01*
X63596428Y-59314904D01*
%TO.C,L16*%
D13*
X80702485Y-59139695D02*
X80315438Y-59139695D01*
X80315438Y-58326895D01*
X81399171Y-59139695D02*
X80934714Y-59139695D01*
X81166942Y-59139695D02*
X81166942Y-58326895D01*
X81089533Y-58443009D01*
X81012123Y-58520419D01*
X80934714Y-58559123D01*
X82095857Y-58326895D02*
X81941038Y-58326895D01*
X81863628Y-58365600D01*
X81824923Y-58404304D01*
X81747514Y-58520419D01*
X81708809Y-58675238D01*
X81708809Y-58984876D01*
X81747514Y-59062285D01*
X81786219Y-59100990D01*
X81863628Y-59139695D01*
X82018447Y-59139695D01*
X82095857Y-59100990D01*
X82134561Y-59062285D01*
X82173266Y-58984876D01*
X82173266Y-58791352D01*
X82134561Y-58713942D01*
X82095857Y-58675238D01*
X82018447Y-58636533D01*
X81863628Y-58636533D01*
X81786219Y-58675238D01*
X81747514Y-58713942D01*
X81708809Y-58791352D01*
D10*
X79891666Y-57114904D02*
X79891666Y-56314904D01*
X79891666Y-56695857D02*
X80348809Y-56695857D01*
X80348809Y-57114904D02*
X80348809Y-56314904D01*
X80882142Y-56314904D02*
X81034523Y-56314904D01*
X81110714Y-56353000D01*
X81186904Y-56429190D01*
X81225000Y-56581571D01*
X81225000Y-56848238D01*
X81186904Y-57000619D01*
X81110714Y-57076809D01*
X81034523Y-57114904D01*
X80882142Y-57114904D01*
X80805952Y-57076809D01*
X80729761Y-57000619D01*
X80691666Y-56848238D01*
X80691666Y-56581571D01*
X80729761Y-56429190D01*
X80805952Y-56353000D01*
X80882142Y-56314904D01*
X81948809Y-57114904D02*
X81567857Y-57114904D01*
X81567857Y-56314904D01*
X82215476Y-56695857D02*
X82482142Y-56695857D01*
X82596428Y-57114904D02*
X82215476Y-57114904D01*
X82215476Y-56314904D01*
X82596428Y-56314904D01*
%TO.C,L17*%
D13*
X99702485Y-69139695D02*
X99315438Y-69139695D01*
X99315438Y-68326895D01*
X100399171Y-69139695D02*
X99934714Y-69139695D01*
X100166942Y-69139695D02*
X100166942Y-68326895D01*
X100089533Y-68443009D01*
X100012123Y-68520419D01*
X99934714Y-68559123D01*
X100670104Y-68326895D02*
X101211971Y-68326895D01*
X100863628Y-69139695D01*
D10*
X98891666Y-67114904D02*
X98891666Y-66314904D01*
X98891666Y-66695857D02*
X99348809Y-66695857D01*
X99348809Y-67114904D02*
X99348809Y-66314904D01*
X99882142Y-66314904D02*
X100034523Y-66314904D01*
X100110714Y-66353000D01*
X100186904Y-66429190D01*
X100225000Y-66581571D01*
X100225000Y-66848238D01*
X100186904Y-67000619D01*
X100110714Y-67076809D01*
X100034523Y-67114904D01*
X99882142Y-67114904D01*
X99805952Y-67076809D01*
X99729761Y-67000619D01*
X99691666Y-66848238D01*
X99691666Y-66581571D01*
X99729761Y-66429190D01*
X99805952Y-66353000D01*
X99882142Y-66314904D01*
X100948809Y-67114904D02*
X100567857Y-67114904D01*
X100567857Y-66314904D01*
X101215476Y-66695857D02*
X101482142Y-66695857D01*
X101596428Y-67114904D02*
X101215476Y-67114904D01*
X101215476Y-66314904D01*
X101596428Y-66314904D01*
%TO.C,L18*%
X117891666Y-69114904D02*
X117891666Y-68314904D01*
X117891666Y-68695857D02*
X118348809Y-68695857D01*
X118348809Y-69114904D02*
X118348809Y-68314904D01*
X118882142Y-68314904D02*
X119034523Y-68314904D01*
X119110714Y-68353000D01*
X119186904Y-68429190D01*
X119225000Y-68581571D01*
X119225000Y-68848238D01*
X119186904Y-69000619D01*
X119110714Y-69076809D01*
X119034523Y-69114904D01*
X118882142Y-69114904D01*
X118805952Y-69076809D01*
X118729761Y-69000619D01*
X118691666Y-68848238D01*
X118691666Y-68581571D01*
X118729761Y-68429190D01*
X118805952Y-68353000D01*
X118882142Y-68314904D01*
X119948809Y-69114904D02*
X119567857Y-69114904D01*
X119567857Y-68314904D01*
X120215476Y-68695857D02*
X120482142Y-68695857D01*
X120596428Y-69114904D02*
X120215476Y-69114904D01*
X120215476Y-68314904D01*
X120596428Y-68314904D01*
D13*
X118702485Y-71139695D02*
X118315438Y-71139695D01*
X118315438Y-70326895D01*
X119399171Y-71139695D02*
X118934714Y-71139695D01*
X119166942Y-71139695D02*
X119166942Y-70326895D01*
X119089533Y-70443009D01*
X119012123Y-70520419D01*
X118934714Y-70559123D01*
X119863628Y-70675238D02*
X119786219Y-70636533D01*
X119747514Y-70597828D01*
X119708809Y-70520419D01*
X119708809Y-70481714D01*
X119747514Y-70404304D01*
X119786219Y-70365600D01*
X119863628Y-70326895D01*
X120018447Y-70326895D01*
X120095857Y-70365600D01*
X120134561Y-70404304D01*
X120173266Y-70481714D01*
X120173266Y-70520419D01*
X120134561Y-70597828D01*
X120095857Y-70636533D01*
X120018447Y-70675238D01*
X119863628Y-70675238D01*
X119786219Y-70713942D01*
X119747514Y-70752647D01*
X119708809Y-70830057D01*
X119708809Y-70984876D01*
X119747514Y-71062285D01*
X119786219Y-71100990D01*
X119863628Y-71139695D01*
X120018447Y-71139695D01*
X120095857Y-71100990D01*
X120134561Y-71062285D01*
X120173266Y-70984876D01*
X120173266Y-70830057D01*
X120134561Y-70752647D01*
X120095857Y-70713942D01*
X120018447Y-70675238D01*
%TO.C,L19*%
X85314985Y-82586695D02*
X84927938Y-82586695D01*
X84927938Y-81773895D01*
X86011671Y-82586695D02*
X85547214Y-82586695D01*
X85779442Y-82586695D02*
X85779442Y-81773895D01*
X85702033Y-81890009D01*
X85624623Y-81967419D01*
X85547214Y-82006123D01*
X86398719Y-82586695D02*
X86553538Y-82586695D01*
X86630947Y-82547990D01*
X86669652Y-82509285D01*
X86747061Y-82393171D01*
X86785766Y-82238352D01*
X86785766Y-81928714D01*
X86747061Y-81851304D01*
X86708357Y-81812600D01*
X86630947Y-81773895D01*
X86476128Y-81773895D01*
X86398719Y-81812600D01*
X86360014Y-81851304D01*
X86321309Y-81928714D01*
X86321309Y-82122238D01*
X86360014Y-82199647D01*
X86398719Y-82238352D01*
X86476128Y-82277057D01*
X86630947Y-82277057D01*
X86708357Y-82238352D01*
X86747061Y-82199647D01*
X86785766Y-82122238D01*
D10*
X84504166Y-84599904D02*
X84504166Y-83799904D01*
X84504166Y-84180857D02*
X84961309Y-84180857D01*
X84961309Y-84599904D02*
X84961309Y-83799904D01*
X85494642Y-83799904D02*
X85647023Y-83799904D01*
X85723214Y-83838000D01*
X85799404Y-83914190D01*
X85837500Y-84066571D01*
X85837500Y-84333238D01*
X85799404Y-84485619D01*
X85723214Y-84561809D01*
X85647023Y-84599904D01*
X85494642Y-84599904D01*
X85418452Y-84561809D01*
X85342261Y-84485619D01*
X85304166Y-84333238D01*
X85304166Y-84066571D01*
X85342261Y-83914190D01*
X85418452Y-83838000D01*
X85494642Y-83799904D01*
X86561309Y-84599904D02*
X86180357Y-84599904D01*
X86180357Y-83799904D01*
X86827976Y-84180857D02*
X87094642Y-84180857D01*
X87208928Y-84599904D02*
X86827976Y-84599904D01*
X86827976Y-83799904D01*
X87208928Y-83799904D01*
%TO.C,L20*%
D13*
X104314985Y-84586695D02*
X103927938Y-84586695D01*
X103927938Y-83773895D01*
X104547214Y-83851304D02*
X104585919Y-83812600D01*
X104663328Y-83773895D01*
X104856852Y-83773895D01*
X104934261Y-83812600D01*
X104972966Y-83851304D01*
X105011671Y-83928714D01*
X105011671Y-84006123D01*
X104972966Y-84122238D01*
X104508509Y-84586695D01*
X105011671Y-84586695D01*
X105514833Y-83773895D02*
X105592242Y-83773895D01*
X105669652Y-83812600D01*
X105708357Y-83851304D01*
X105747061Y-83928714D01*
X105785766Y-84083533D01*
X105785766Y-84277057D01*
X105747061Y-84431876D01*
X105708357Y-84509285D01*
X105669652Y-84547990D01*
X105592242Y-84586695D01*
X105514833Y-84586695D01*
X105437423Y-84547990D01*
X105398719Y-84509285D01*
X105360014Y-84431876D01*
X105321309Y-84277057D01*
X105321309Y-84083533D01*
X105360014Y-83928714D01*
X105398719Y-83851304D01*
X105437423Y-83812600D01*
X105514833Y-83773895D01*
D10*
X103504166Y-86599904D02*
X103504166Y-85799904D01*
X103504166Y-86180857D02*
X103961309Y-86180857D01*
X103961309Y-86599904D02*
X103961309Y-85799904D01*
X104494642Y-85799904D02*
X104647023Y-85799904D01*
X104723214Y-85838000D01*
X104799404Y-85914190D01*
X104837500Y-86066571D01*
X104837500Y-86333238D01*
X104799404Y-86485619D01*
X104723214Y-86561809D01*
X104647023Y-86599904D01*
X104494642Y-86599904D01*
X104418452Y-86561809D01*
X104342261Y-86485619D01*
X104304166Y-86333238D01*
X104304166Y-86066571D01*
X104342261Y-85914190D01*
X104418452Y-85838000D01*
X104494642Y-85799904D01*
X105561309Y-86599904D02*
X105180357Y-86599904D01*
X105180357Y-85799904D01*
X105827976Y-86180857D02*
X106094642Y-86180857D01*
X106208928Y-86599904D02*
X105827976Y-86599904D01*
X105827976Y-85799904D01*
X106208928Y-85799904D01*
%TO.C,L21*%
D13*
X124712994Y-95778428D02*
X124331826Y-95711218D01*
X124472968Y-94910766D01*
X125069393Y-95094536D02*
X125114231Y-95063140D01*
X125197186Y-95038465D01*
X125387770Y-95072070D01*
X125457282Y-95123629D01*
X125488678Y-95168467D01*
X125513352Y-95251421D01*
X125499910Y-95327655D01*
X125441631Y-95435284D01*
X124903578Y-95812033D01*
X125399095Y-95899406D01*
X126161430Y-96033826D02*
X125704029Y-95953174D01*
X125932730Y-95993500D02*
X126073871Y-95193049D01*
X125977474Y-95293957D01*
X125887799Y-95356748D01*
X125804844Y-95381423D01*
D10*
X123564902Y-97620254D02*
X123703821Y-96832408D01*
X123637669Y-97207573D02*
X124087867Y-97286955D01*
X124015100Y-97699636D02*
X124154019Y-96911790D01*
X124679250Y-97004402D02*
X124829316Y-97030863D01*
X124897733Y-97081610D01*
X124959536Y-97169873D01*
X124970592Y-97326554D01*
X124924286Y-97589170D01*
X124860308Y-97732620D01*
X124772045Y-97794423D01*
X124690397Y-97818709D01*
X124540331Y-97792249D01*
X124471913Y-97741502D01*
X124410111Y-97653238D01*
X124399055Y-97496557D01*
X124445361Y-97233942D01*
X124509338Y-97090491D01*
X124597601Y-97028689D01*
X124679250Y-97004402D01*
X125590793Y-97977473D02*
X125215628Y-97911322D01*
X125354546Y-97123475D01*
X125926175Y-97611098D02*
X126188790Y-97657404D01*
X126228573Y-98089931D02*
X125853408Y-98023780D01*
X125992327Y-97235933D01*
X126367491Y-97302085D01*
%TO.C,L22*%
D13*
X143654490Y-99232625D02*
X143273322Y-99165415D01*
X143414464Y-98364963D01*
X144010889Y-98548733D02*
X144055727Y-98517337D01*
X144138682Y-98492662D01*
X144329266Y-98526267D01*
X144398778Y-98577826D01*
X144430174Y-98622664D01*
X144454848Y-98705618D01*
X144441406Y-98781852D01*
X144383127Y-98889481D01*
X143845074Y-99266230D01*
X144340591Y-99353603D01*
X144773224Y-98683153D02*
X144818062Y-98651757D01*
X144901017Y-98627083D01*
X145091600Y-98660688D01*
X145161113Y-98712246D01*
X145192509Y-98757084D01*
X145217183Y-98840039D01*
X145203741Y-98916272D01*
X145145462Y-99023901D01*
X144607409Y-99400650D01*
X145102926Y-99488023D01*
D10*
X142506398Y-101074451D02*
X142645317Y-100286605D01*
X142579165Y-100661770D02*
X143029363Y-100741152D01*
X142956596Y-101153833D02*
X143095515Y-100365987D01*
X143620746Y-100458599D02*
X143770812Y-100485060D01*
X143839229Y-100535807D01*
X143901032Y-100624070D01*
X143912088Y-100780751D01*
X143865782Y-101043367D01*
X143801804Y-101186817D01*
X143713541Y-101248620D01*
X143631893Y-101272906D01*
X143481827Y-101246446D01*
X143413409Y-101195699D01*
X143351607Y-101107435D01*
X143340551Y-100950754D01*
X143386857Y-100688139D01*
X143450834Y-100544688D01*
X143539097Y-100482886D01*
X143620746Y-100458599D01*
X144532289Y-101431670D02*
X144157124Y-101365519D01*
X144296042Y-100577672D01*
X144867671Y-101065295D02*
X145130286Y-101111601D01*
X145170069Y-101544128D02*
X144794904Y-101477977D01*
X144933823Y-100690130D01*
X145308987Y-100756282D01*
%TO.C,L23*%
D13*
X158100125Y-115041341D02*
X158032915Y-115422509D01*
X157232463Y-115281367D01*
X157416233Y-114684942D02*
X157384837Y-114640104D01*
X157360162Y-114557149D01*
X157393767Y-114366565D01*
X157445326Y-114297053D01*
X157490164Y-114265657D01*
X157573118Y-114240983D01*
X157649352Y-114254425D01*
X157756981Y-114312704D01*
X158133730Y-114850757D01*
X158221103Y-114355240D01*
X157467699Y-113947281D02*
X157555072Y-113451764D01*
X157812959Y-113772349D01*
X157833122Y-113657999D01*
X157884680Y-113588486D01*
X157929518Y-113557090D01*
X158012473Y-113532416D01*
X158203056Y-113566021D01*
X158272569Y-113617579D01*
X158303965Y-113662417D01*
X158328639Y-113745372D01*
X158288313Y-113974072D01*
X158236755Y-114043585D01*
X158191917Y-114074980D01*
D10*
X155965299Y-115488241D02*
X155177453Y-115349322D01*
X155552618Y-115415474D02*
X155632000Y-114965276D01*
X156044681Y-115038043D02*
X155256835Y-114899124D01*
X155349447Y-114373893D02*
X155375908Y-114223827D01*
X155426655Y-114155410D01*
X155514918Y-114093607D01*
X155671599Y-114082551D01*
X155934215Y-114128857D01*
X156077665Y-114192835D01*
X156139468Y-114281098D01*
X156163754Y-114362746D01*
X156137294Y-114512812D01*
X156086547Y-114581230D01*
X155998283Y-114643032D01*
X155841602Y-114654088D01*
X155578987Y-114607782D01*
X155435536Y-114543805D01*
X155373734Y-114455542D01*
X155349447Y-114373893D01*
X156322518Y-113462350D02*
X156256367Y-113837515D01*
X155468520Y-113698597D01*
X155956143Y-113126968D02*
X156002449Y-112864353D01*
X156434976Y-112824570D02*
X156368825Y-113199735D01*
X155580978Y-113060816D01*
X155647130Y-112685652D01*
%TD*%
M02*
